G04 PROTEUS RS274X GERBER FILE*
%FSLAX45Y45*%
%MOMM*%
G01*
%ADD24C,0.127000*%
%ADD22C,0.025400*%
%ADD47C,0.063500*%
D24*
X+2482399Y+3029401D02*
X+2572201Y+2939599D01*
X+2482399Y+2939599D02*
X+2572201Y+3029401D01*
X+3048599Y+2463201D02*
X+3138401Y+2373399D01*
X+3048599Y+2373399D02*
X+3138401Y+2463201D01*
X+2482399Y+2775401D02*
X+2572201Y+2685599D01*
X+2482399Y+2685599D02*
X+2572201Y+2775401D01*
X+3113599Y+2392901D02*
X+3203401Y+2303099D01*
X+3113599Y+2303099D02*
X+3203401Y+2392901D01*
X+3668599Y+3194501D02*
X+3758401Y+3104699D01*
X+3668599Y+3104699D02*
X+3758401Y+3194501D01*
X+3143599Y+3194501D02*
X+3233401Y+3104699D01*
X+3143599Y+3104699D02*
X+3233401Y+3194501D01*
X+2482399Y+3194501D02*
X+2572201Y+3104699D01*
X+2482399Y+3104699D02*
X+2572201Y+3194501D01*
X+2642399Y+3359601D02*
X+2732201Y+3269799D01*
X+2642399Y+3269799D02*
X+2732201Y+3359601D01*
X+3037799Y+2040001D02*
X+3127601Y+1950199D01*
X+3037799Y+1950199D02*
X+3127601Y+2040001D01*
X+3964899Y+2040001D02*
X+4054701Y+1950199D01*
X+3964899Y+1950199D02*
X+4054701Y+2040001D01*
X+2850199Y+1060901D02*
X+2940001Y+971099D01*
X+2850199Y+971099D02*
X+2940001Y+1060901D01*
X+3274879Y+1322521D02*
X+3364681Y+1232719D01*
X+3274879Y+1232719D02*
X+3364681Y+1322521D01*
X+3542849Y+1060901D02*
X+3632651Y+971099D01*
X+3542849Y+971099D02*
X+3632651Y+1060901D01*
X+2743999Y+3258001D02*
X+2833801Y+3168199D01*
X+2743999Y+3168199D02*
X+2833801Y+3258001D01*
X+2872699Y+2040001D02*
X+2962501Y+1950199D01*
X+2872699Y+1950199D02*
X+2962501Y+2040001D01*
X+2495099Y+1532051D02*
X+2584901Y+1442249D01*
X+2495099Y+1442249D02*
X+2584901Y+1532051D01*
X+2495099Y+1659051D02*
X+2584901Y+1569249D01*
X+2495099Y+1569249D02*
X+2584901Y+1659051D01*
X+717099Y+298901D02*
X+806901Y+209099D01*
X+717099Y+209099D02*
X+806901Y+298901D01*
X+463099Y+552901D02*
X+552901Y+463099D01*
X+463099Y+463099D02*
X+552901Y+552901D01*
X+209099Y+806901D02*
X+298901Y+717099D01*
X+209099Y+717099D02*
X+298901Y+806901D01*
X+717099Y+806901D02*
X+806901Y+717099D01*
X+717099Y+717099D02*
X+806901Y+806901D01*
X+971099Y+552901D02*
X+1060901Y+463099D01*
X+971099Y+463099D02*
X+1060901Y+552901D01*
X+1225099Y+806901D02*
X+1314901Y+717099D01*
X+1225099Y+717099D02*
X+1314901Y+806901D01*
X+1479099Y+552901D02*
X+1568901Y+463099D01*
X+1479099Y+463099D02*
X+1568901Y+552901D01*
X+1733099Y+806901D02*
X+1822901Y+717099D01*
X+1733099Y+717099D02*
X+1822901Y+806901D01*
X+1987099Y+552901D02*
X+2076901Y+463099D01*
X+1987099Y+463099D02*
X+2076901Y+552901D01*
X+2241099Y+806901D02*
X+2330901Y+717099D01*
X+2241099Y+717099D02*
X+2330901Y+806901D01*
X+1987099Y+1060901D02*
X+2076901Y+971099D01*
X+1987099Y+971099D02*
X+2076901Y+1060901D01*
X+1479099Y+1060901D02*
X+1568901Y+971099D01*
X+1479099Y+971099D02*
X+1568901Y+1060901D01*
X+971099Y+1060901D02*
X+1060901Y+971099D01*
X+971099Y+971099D02*
X+1060901Y+1060901D01*
X+463099Y+1060901D02*
X+552901Y+971099D01*
X+463099Y+971099D02*
X+552901Y+1060901D01*
X+209099Y+1314901D02*
X+298901Y+1225099D01*
X+209099Y+1225099D02*
X+298901Y+1314901D01*
X+717099Y+1314901D02*
X+806901Y+1225099D01*
X+717099Y+1225099D02*
X+806901Y+1314901D01*
X+1225099Y+1314901D02*
X+1314901Y+1225099D01*
X+1225099Y+1225099D02*
X+1314901Y+1314901D01*
X+1733099Y+1314901D02*
X+1822901Y+1225099D01*
X+1733099Y+1225099D02*
X+1822901Y+1314901D01*
X+2329999Y+1372051D02*
X+2419801Y+1282249D01*
X+2329999Y+1282249D02*
X+2419801Y+1372051D01*
X+2329999Y+1220901D02*
X+2419801Y+1131099D01*
X+2329999Y+1131099D02*
X+2419801Y+1220901D01*
X+2495099Y+1220901D02*
X+2584901Y+1131099D01*
X+2495099Y+1131099D02*
X+2584901Y+1220901D01*
X+2495099Y+1372051D02*
X+2584901Y+1282249D01*
X+2495099Y+1282249D02*
X+2584901Y+1372051D01*
X+2755199Y+1060901D02*
X+2845001Y+971099D01*
X+2755199Y+971099D02*
X+2845001Y+1060901D01*
X+2671649Y+1532051D02*
X+2761451Y+1442249D01*
X+2671649Y+1442249D02*
X+2761451Y+1532051D01*
X+3015799Y+1532051D02*
X+3105601Y+1442249D01*
X+3015799Y+1442249D02*
X+3105601Y+1532051D01*
X+3371399Y+1060901D02*
X+3461201Y+971099D01*
X+3371399Y+971099D02*
X+3461201Y+1060901D01*
X+1987099Y+1568901D02*
X+2076901Y+1479099D01*
X+1987099Y+1479099D02*
X+2076901Y+1568901D01*
X+1479099Y+1568901D02*
X+1568901Y+1479099D01*
X+1479099Y+1479099D02*
X+1568901Y+1568901D01*
X+971099Y+1568901D02*
X+1060901Y+1479099D01*
X+971099Y+1479099D02*
X+1060901Y+1568901D01*
X+463099Y+1568901D02*
X+552901Y+1479099D01*
X+463099Y+1479099D02*
X+552901Y+1568901D01*
X+209099Y+1822901D02*
X+298901Y+1733099D01*
X+209099Y+1733099D02*
X+298901Y+1822901D01*
X+717099Y+1822901D02*
X+806901Y+1733099D01*
X+717099Y+1733099D02*
X+806901Y+1822901D01*
X+1733099Y+1822901D02*
X+1822901Y+1733099D01*
X+1733099Y+1733099D02*
X+1822901Y+1822901D01*
X+2241099Y+1822901D02*
X+2330901Y+1733099D01*
X+2241099Y+1733099D02*
X+2330901Y+1822901D01*
X+209099Y+2330901D02*
X+298901Y+2241099D01*
X+209099Y+2241099D02*
X+298901Y+2330901D01*
X+463099Y+2584901D02*
X+552901Y+2495099D01*
X+463099Y+2495099D02*
X+552901Y+2584901D01*
X+971099Y+2584901D02*
X+1060901Y+2495099D01*
X+971099Y+2495099D02*
X+1060901Y+2584901D01*
X+717099Y+2838901D02*
X+806901Y+2749099D01*
X+717099Y+2749099D02*
X+806901Y+2838901D01*
X+209099Y+2838901D02*
X+298901Y+2749099D01*
X+209099Y+2749099D02*
X+298901Y+2838901D01*
X+209099Y+3346901D02*
X+298901Y+3257099D01*
X+209099Y+3257099D02*
X+298901Y+3346901D01*
X+209099Y+3854901D02*
X+298901Y+3765099D01*
X+209099Y+3765099D02*
X+298901Y+3854901D01*
X+463099Y+3600901D02*
X+552901Y+3511099D01*
X+463099Y+3511099D02*
X+552901Y+3600901D01*
X+971099Y+3600901D02*
X+1060901Y+3511099D01*
X+971099Y+3511099D02*
X+1060901Y+3600901D01*
X+1987099Y+3600901D02*
X+2076901Y+3511099D01*
X+1987099Y+3511099D02*
X+2076901Y+3600901D01*
X+2495099Y+3600901D02*
X+2584901Y+3511099D01*
X+2495099Y+3511099D02*
X+2584901Y+3600901D01*
X+3003099Y+3600901D02*
X+3092901Y+3511099D01*
X+3003099Y+3511099D02*
X+3092901Y+3600901D01*
X+2241099Y+3092901D02*
X+2330901Y+3003099D01*
X+2241099Y+3003099D02*
X+2330901Y+3092901D01*
X+1479099Y+2584901D02*
X+1568901Y+2495099D01*
X+1479099Y+2495099D02*
X+1568901Y+2584901D01*
X+1225099Y+2838901D02*
X+1314901Y+2749099D01*
X+1225099Y+2749099D02*
X+1314901Y+2838901D01*
X+1479099Y+3092901D02*
X+1568901Y+3003099D01*
X+1479099Y+3003099D02*
X+1568901Y+3092901D01*
X+2482399Y+2191201D02*
X+2572201Y+2101399D01*
X+2482399Y+2101399D02*
X+2572201Y+2191201D01*
X+2872699Y+1880001D02*
X+2962501Y+1790199D01*
X+2872699Y+1790199D02*
X+2962501Y+1880001D01*
X+3037799Y+1880001D02*
X+3127601Y+1790199D01*
X+3037799Y+1790199D02*
X+3127601Y+1880001D01*
X+3205149Y+2040001D02*
X+3294951Y+1950199D01*
X+3205149Y+1950199D02*
X+3294951Y+2040001D01*
X+3964899Y+1880001D02*
X+4054701Y+1790199D01*
X+3964899Y+1790199D02*
X+4054701Y+1880001D01*
X+3395649Y+2050001D02*
X+3485451Y+1960199D01*
X+3395649Y+1960199D02*
X+3485451Y+2050001D01*
X+3615649Y+1880001D02*
X+3705451Y+1790199D01*
X+3615649Y+1790199D02*
X+3705451Y+1880001D01*
X+209099Y+4362901D02*
X+298901Y+4273099D01*
X+209099Y+4273099D02*
X+298901Y+4362901D01*
X+209099Y+4870901D02*
X+298901Y+4781099D01*
X+209099Y+4781099D02*
X+298901Y+4870901D01*
X+717099Y+4870901D02*
X+806901Y+4781099D01*
X+717099Y+4781099D02*
X+806901Y+4870901D01*
X+463099Y+4616901D02*
X+552901Y+4527099D01*
X+463099Y+4527099D02*
X+552901Y+4616901D01*
X+717099Y+4362901D02*
X+806901Y+4273099D01*
X+717099Y+4273099D02*
X+806901Y+4362901D01*
X+463099Y+4108901D02*
X+552901Y+4019099D01*
X+463099Y+4019099D02*
X+552901Y+4108901D01*
X+717099Y+3854901D02*
X+806901Y+3765099D01*
X+717099Y+3765099D02*
X+806901Y+3854901D01*
X+971099Y+4108901D02*
X+1060901Y+4019099D01*
X+971099Y+4019099D02*
X+1060901Y+4108901D01*
X+1225099Y+3854901D02*
X+1314901Y+3765099D01*
X+1225099Y+3765099D02*
X+1314901Y+3854901D01*
X+1479099Y+4108901D02*
X+1568901Y+4019099D01*
X+1479099Y+4019099D02*
X+1568901Y+4108901D01*
X+1733099Y+3854901D02*
X+1822901Y+3765099D01*
X+1733099Y+3765099D02*
X+1822901Y+3854901D01*
X+1987099Y+4108901D02*
X+2076901Y+4019099D01*
X+1987099Y+4019099D02*
X+2076901Y+4108901D01*
X+2241099Y+3854901D02*
X+2330901Y+3765099D01*
X+2241099Y+3765099D02*
X+2330901Y+3854901D01*
X+2495099Y+4108901D02*
X+2584901Y+4019099D01*
X+2495099Y+4019099D02*
X+2584901Y+4108901D01*
X+2749099Y+3854901D02*
X+2838901Y+3765099D01*
X+2749099Y+3765099D02*
X+2838901Y+3854901D01*
X+2241099Y+4362901D02*
X+2330901Y+4273099D01*
X+2241099Y+4273099D02*
X+2330901Y+4362901D01*
X+1733099Y+4362901D02*
X+1822901Y+4273099D01*
X+1733099Y+4273099D02*
X+1822901Y+4362901D01*
X+1225099Y+4362901D02*
X+1314901Y+4273099D01*
X+1225099Y+4273099D02*
X+1314901Y+4362901D01*
X+971099Y+4616901D02*
X+1060901Y+4527099D01*
X+971099Y+4527099D02*
X+1060901Y+4616901D01*
X+1225099Y+4870901D02*
X+1314901Y+4781099D01*
X+1225099Y+4781099D02*
X+1314901Y+4870901D01*
X+1733099Y+4870901D02*
X+1822901Y+4781099D01*
X+1733099Y+4781099D02*
X+1822901Y+4870901D01*
X+1479099Y+4616901D02*
X+1568901Y+4527099D01*
X+1479099Y+4527099D02*
X+1568901Y+4616901D01*
X+1987099Y+4616901D02*
X+2076901Y+4527099D01*
X+1987099Y+4527099D02*
X+2076901Y+4616901D01*
X+2749099Y+4870901D02*
X+2838901Y+4781099D01*
X+2749099Y+4781099D02*
X+2838901Y+4870901D01*
X+3003099Y+4616901D02*
X+3092901Y+4527099D01*
X+3003099Y+4527099D02*
X+3092901Y+4616901D01*
X+3257099Y+4362901D02*
X+3346901Y+4273099D01*
X+3257099Y+4273099D02*
X+3346901Y+4362901D01*
X+3511099Y+4108901D02*
X+3600901Y+4019099D01*
X+3511099Y+4019099D02*
X+3600901Y+4108901D01*
X+3765099Y+4362901D02*
X+3854901Y+4273099D01*
X+3765099Y+4273099D02*
X+3854901Y+4362901D01*
X+4019099Y+4616901D02*
X+4108901Y+4527099D01*
X+4019099Y+4527099D02*
X+4108901Y+4616901D01*
X+4273099Y+4870901D02*
X+4362901Y+4781099D01*
X+4273099Y+4781099D02*
X+4362901Y+4870901D01*
X+3765099Y+4870901D02*
X+3854901Y+4781099D01*
X+3765099Y+4781099D02*
X+3854901Y+4870901D01*
X+3511099Y+4616901D02*
X+3600901Y+4527099D01*
X+3511099Y+4527099D02*
X+3600901Y+4616901D01*
X+3257099Y+4870901D02*
X+3346901Y+4781099D01*
X+3257099Y+4781099D02*
X+3346901Y+4870901D01*
X+4019099Y+3600901D02*
X+4108901Y+3511099D01*
X+4019099Y+3511099D02*
X+4108901Y+3600901D01*
X+3765099Y+3854901D02*
X+3854901Y+3765099D01*
X+3765099Y+3765099D02*
X+3854901Y+3854901D01*
X+4019099Y+4108901D02*
X+4108901Y+4019099D01*
X+4019099Y+4019099D02*
X+4108901Y+4108901D01*
X+4273099Y+4362901D02*
X+4362901Y+4273099D01*
X+4273099Y+4273099D02*
X+4362901Y+4362901D01*
X+4527099Y+4616901D02*
X+4616901Y+4527099D01*
X+4527099Y+4527099D02*
X+4616901Y+4616901D01*
X+4781099Y+4870901D02*
X+4870901Y+4781099D01*
X+4781099Y+4781099D02*
X+4870901Y+4870901D01*
X+5035099Y+4616901D02*
X+5124901Y+4527099D01*
X+5035099Y+4527099D02*
X+5124901Y+4616901D01*
X+4781099Y+4362901D02*
X+4870901Y+4273099D01*
X+4781099Y+4273099D02*
X+4870901Y+4362901D01*
X+4527099Y+4108901D02*
X+4616901Y+4019099D01*
X+4527099Y+4019099D02*
X+4616901Y+4108901D01*
X+4273099Y+3854901D02*
X+4362901Y+3765099D01*
X+4273099Y+3765099D02*
X+4362901Y+3854901D01*
X+4273099Y+3346901D02*
X+4362901Y+3257099D01*
X+4273099Y+3257099D02*
X+4362901Y+3346901D01*
X+4527099Y+3600901D02*
X+4616901Y+3511099D01*
X+4527099Y+3511099D02*
X+4616901Y+3600901D01*
X+4781099Y+3854901D02*
X+4870901Y+3765099D01*
X+4781099Y+3765099D02*
X+4870901Y+3854901D01*
X+5035099Y+4108901D02*
X+5124901Y+4019099D01*
X+5035099Y+4019099D02*
X+5124901Y+4108901D01*
X+5289099Y+3854901D02*
X+5378901Y+3765099D01*
X+5289099Y+3765099D02*
X+5378901Y+3854901D01*
X+5035099Y+3600901D02*
X+5124901Y+3511099D01*
X+5035099Y+3511099D02*
X+5124901Y+3600901D01*
X+4781099Y+3346901D02*
X+4870901Y+3257099D01*
X+4781099Y+3257099D02*
X+4870901Y+3346901D01*
X+4527099Y+3092901D02*
X+4616901Y+3003099D01*
X+4527099Y+3003099D02*
X+4616901Y+3092901D01*
X+4273099Y+2838901D02*
X+4362901Y+2749099D01*
X+4273099Y+2749099D02*
X+4362901Y+2838901D01*
X+4019099Y+3092901D02*
X+4108901Y+3003099D01*
X+4019099Y+3003099D02*
X+4108901Y+3092901D01*
X+3765099Y+2838901D02*
X+3854901Y+2749099D01*
X+3765099Y+2749099D02*
X+3854901Y+2838901D01*
X+3257099Y+2838901D02*
X+3346901Y+2749099D01*
X+3257099Y+2749099D02*
X+3346901Y+2838901D01*
X+3511099Y+2584901D02*
X+3600901Y+2495099D01*
X+3511099Y+2495099D02*
X+3600901Y+2584901D01*
X+4019099Y+2584901D02*
X+4108901Y+2495099D01*
X+4019099Y+2495099D02*
X+4108901Y+2584901D01*
X+4527099Y+2584901D02*
X+4616901Y+2495099D01*
X+4527099Y+2495099D02*
X+4616901Y+2584901D01*
X+4781099Y+2838901D02*
X+4870901Y+2749099D01*
X+4781099Y+2749099D02*
X+4870901Y+2838901D01*
X+5035099Y+3092901D02*
X+5124901Y+3003099D01*
X+5035099Y+3003099D02*
X+5124901Y+3092901D01*
X+5289099Y+3346901D02*
X+5378901Y+3257099D01*
X+5289099Y+3257099D02*
X+5378901Y+3346901D01*
X+5289099Y+2838901D02*
X+5378901Y+2749099D01*
X+5289099Y+2749099D02*
X+5378901Y+2838901D01*
X+5035099Y+2584901D02*
X+5124901Y+2495099D01*
X+5035099Y+2495099D02*
X+5124901Y+2584901D01*
X+4781099Y+2330901D02*
X+4870901Y+2241099D01*
X+4781099Y+2241099D02*
X+4870901Y+2330901D01*
X+4527099Y+2076901D02*
X+4616901Y+1987099D01*
X+4527099Y+1987099D02*
X+4616901Y+2076901D01*
X+4273099Y+2330901D02*
X+4362901Y+2241099D01*
X+4273099Y+2241099D02*
X+4362901Y+2330901D01*
X+5289099Y+2330901D02*
X+5378901Y+2241099D01*
X+5289099Y+2241099D02*
X+5378901Y+2330901D01*
X+5289099Y+1822901D02*
X+5378901Y+1733099D01*
X+5289099Y+1733099D02*
X+5378901Y+1822901D01*
X+5289099Y+1314901D02*
X+5378901Y+1225099D01*
X+5289099Y+1225099D02*
X+5378901Y+1314901D01*
X+5035099Y+1060901D02*
X+5124901Y+971099D01*
X+5035099Y+971099D02*
X+5124901Y+1060901D01*
X+5035099Y+1568901D02*
X+5124901Y+1479099D01*
X+5035099Y+1479099D02*
X+5124901Y+1568901D01*
X+5035099Y+2076901D02*
X+5124901Y+1987099D01*
X+5035099Y+1987099D02*
X+5124901Y+2076901D01*
X+4781099Y+1822901D02*
X+4870901Y+1733099D01*
X+4781099Y+1733099D02*
X+4870901Y+1822901D01*
X+4781099Y+1314901D02*
X+4870901Y+1225099D01*
X+4781099Y+1225099D02*
X+4870901Y+1314901D01*
X+4781099Y+806901D02*
X+4870901Y+717099D01*
X+4781099Y+717099D02*
X+4870901Y+806901D01*
X+5035099Y+552901D02*
X+5124901Y+463099D01*
X+5035099Y+463099D02*
X+5124901Y+552901D01*
X+4527099Y+552901D02*
X+4616901Y+463099D01*
X+4527099Y+463099D02*
X+4616901Y+552901D01*
X+4527099Y+1060901D02*
X+4616901Y+971099D01*
X+4527099Y+971099D02*
X+4616901Y+1060901D01*
X+4527099Y+1568901D02*
X+4616901Y+1479099D01*
X+4527099Y+1479099D02*
X+4616901Y+1568901D01*
X+4273099Y+1822901D02*
X+4362901Y+1733099D01*
X+4273099Y+1733099D02*
X+4362901Y+1822901D01*
X+4273099Y+1314901D02*
X+4362901Y+1225099D01*
X+4273099Y+1225099D02*
X+4362901Y+1314901D01*
X+4019099Y+1568901D02*
X+4108901Y+1479099D01*
X+4019099Y+1479099D02*
X+4108901Y+1568901D01*
X+3511099Y+1568901D02*
X+3600901Y+1479099D01*
X+3511099Y+1479099D02*
X+3600901Y+1568901D01*
X+3765099Y+1314901D02*
X+3854901Y+1225099D01*
X+3765099Y+1225099D02*
X+3854901Y+1314901D01*
X+4019099Y+1060901D02*
X+4108901Y+971099D01*
X+4019099Y+971099D02*
X+4108901Y+1060901D01*
X+4273099Y+806901D02*
X+4362901Y+717099D01*
X+4273099Y+717099D02*
X+4362901Y+806901D01*
X+4019099Y+552901D02*
X+4108901Y+463099D01*
X+4019099Y+463099D02*
X+4108901Y+552901D01*
X+3765099Y+806901D02*
X+3854901Y+717099D01*
X+3765099Y+717099D02*
X+3854901Y+806901D01*
X+3511099Y+552901D02*
X+3600901Y+463099D01*
X+3511099Y+463099D02*
X+3600901Y+552901D01*
X+3003099Y+806901D02*
X+3092901Y+717099D01*
X+3003099Y+717099D02*
X+3092901Y+806901D01*
X+1016000Y+317500D02*
X+1016000Y+190500D01*
X+952500Y+254000D02*
X+1079500Y+254000D01*
X+1270000Y+317500D02*
X+1270000Y+190500D01*
X+1206500Y+254000D02*
X+1333500Y+254000D01*
X+1524000Y+317500D02*
X+1524000Y+190500D01*
X+1460500Y+254000D02*
X+1587500Y+254000D01*
X+1778000Y+317500D02*
X+1778000Y+190500D01*
X+1714500Y+254000D02*
X+1841500Y+254000D01*
X+2032000Y+317500D02*
X+2032000Y+190500D01*
X+1968500Y+254000D02*
X+2095500Y+254000D01*
X+2286000Y+317500D02*
X+2286000Y+190500D01*
X+2222500Y+254000D02*
X+2349500Y+254000D01*
X+2540000Y+317500D02*
X+2540000Y+190500D01*
X+2476500Y+254000D02*
X+2603500Y+254000D01*
X+2794000Y+317500D02*
X+2794000Y+190500D01*
X+2730500Y+254000D02*
X+2857500Y+254000D01*
X+3048000Y+317500D02*
X+3048000Y+190500D01*
X+2984500Y+254000D02*
X+3111500Y+254000D01*
X+3302000Y+317500D02*
X+3302000Y+190500D01*
X+3238500Y+254000D02*
X+3365500Y+254000D01*
X+3556000Y+317500D02*
X+3556000Y+190500D01*
X+3492500Y+254000D02*
X+3619500Y+254000D01*
X+3810000Y+317500D02*
X+3810000Y+190500D01*
X+3746500Y+254000D02*
X+3873500Y+254000D01*
X+4064000Y+317500D02*
X+4064000Y+190500D01*
X+4000500Y+254000D02*
X+4127500Y+254000D01*
X+4318000Y+317500D02*
X+4318000Y+190500D01*
X+4254500Y+254000D02*
X+4381500Y+254000D01*
X+4572000Y+317500D02*
X+4572000Y+190500D01*
X+4508500Y+254000D02*
X+4635500Y+254000D01*
X+4826000Y+317500D02*
X+4826000Y+190500D01*
X+4762500Y+254000D02*
X+4889500Y+254000D01*
X+5080000Y+317500D02*
X+5080000Y+190500D01*
X+5016500Y+254000D02*
X+5143500Y+254000D01*
X+609600Y+5143500D02*
X+609600Y+5016500D01*
X+546100Y+5080000D02*
X+673100Y+5080000D01*
X+863600Y+5143500D02*
X+863600Y+5016500D01*
X+800100Y+5080000D02*
X+927100Y+5080000D01*
X+1117600Y+5143500D02*
X+1117600Y+5016500D01*
X+1054100Y+5080000D02*
X+1181100Y+5080000D01*
X+1371600Y+5143500D02*
X+1371600Y+5016500D01*
X+1308100Y+5080000D02*
X+1435100Y+5080000D01*
X+1625600Y+5143500D02*
X+1625600Y+5016500D01*
X+1562100Y+5080000D02*
X+1689100Y+5080000D01*
X+1879600Y+5143500D02*
X+1879600Y+5016500D01*
X+1816100Y+5080000D02*
X+1943100Y+5080000D01*
X+2133600Y+5143500D02*
X+2133600Y+5016500D01*
X+2070100Y+5080000D02*
X+2197100Y+5080000D01*
X+2387600Y+5143500D02*
X+2387600Y+5016500D01*
X+2324100Y+5080000D02*
X+2451100Y+5080000D01*
X+2641600Y+5143500D02*
X+2641600Y+5016500D01*
X+2578100Y+5080000D02*
X+2705100Y+5080000D01*
X+2895600Y+5143500D02*
X+2895600Y+5016500D01*
X+2832100Y+5080000D02*
X+2959100Y+5080000D01*
X+3302000Y+5143500D02*
X+3302000Y+5016500D01*
X+3238500Y+5080000D02*
X+3365500Y+5080000D01*
X+3556000Y+5143500D02*
X+3556000Y+5016500D01*
X+3492500Y+5080000D02*
X+3619500Y+5080000D01*
X+3810000Y+5143500D02*
X+3810000Y+5016500D01*
X+3746500Y+5080000D02*
X+3873500Y+5080000D01*
X+4064000Y+5143500D02*
X+4064000Y+5016500D01*
X+4000500Y+5080000D02*
X+4127500Y+5080000D01*
X+4318000Y+5143500D02*
X+4318000Y+5016500D01*
X+4254500Y+5080000D02*
X+4381500Y+5080000D01*
X+4572000Y+5143500D02*
X+4572000Y+5016500D01*
X+4508500Y+5080000D02*
X+4635500Y+5080000D01*
X+4826000Y+5143500D02*
X+4826000Y+5016500D01*
X+4762500Y+5080000D02*
X+4889500Y+5080000D01*
X+5080000Y+5143500D02*
X+5080000Y+5016500D01*
X+5016500Y+5080000D02*
X+5143500Y+5080000D01*
X+1765300Y+3175000D02*
X+1765300Y+3048000D01*
X+1701800Y+3111500D02*
X+1828800Y+3111500D01*
X+2019300Y+3048000D02*
X+2019300Y+2921000D01*
X+1955800Y+2984500D02*
X+2082800Y+2984500D01*
X+1765300Y+2921000D02*
X+1765300Y+2794000D01*
X+1701800Y+2857500D02*
X+1828800Y+2857500D01*
X+2019300Y+2794000D02*
X+2019300Y+2667000D01*
X+1955800Y+2730500D02*
X+2082800Y+2730500D01*
X+1765300Y+2667000D02*
X+1765300Y+2540000D01*
X+1701800Y+2603500D02*
X+1828800Y+2603500D01*
X+2019300Y+2540000D02*
X+2019300Y+2413000D01*
X+1955800Y+2476500D02*
X+2082800Y+2476500D01*
X+1765300Y+2413000D02*
X+1765300Y+2286000D01*
X+1701800Y+2349500D02*
X+1828800Y+2349500D01*
X+2019300Y+2286000D02*
X+2019300Y+2159000D01*
X+1955800Y+2222500D02*
X+2082800Y+2222500D01*
X+640300Y+3393000D02*
X+640300Y+3266000D01*
X+576800Y+3329500D02*
X+703800Y+3329500D01*
X+640300Y+3139000D02*
X+640300Y+3012000D01*
X+576800Y+3075500D02*
X+703800Y+3075500D01*
X+640300Y+2322000D02*
X+640300Y+2195000D01*
X+576800Y+2258500D02*
X+703800Y+2258500D01*
X+640300Y+2068000D02*
X+640300Y+1941000D01*
X+576800Y+2004500D02*
X+703800Y+2004500D01*
X+1435300Y+3505000D02*
X+1435300Y+3378000D01*
X+1371800Y+3441500D02*
X+1498800Y+3441500D01*
X+1390399Y+3486401D02*
X+1480201Y+3396599D01*
X+1390399Y+3396599D02*
X+1480201Y+3486401D01*
X+1435300Y+1956000D02*
X+1435300Y+1829000D01*
X+1371800Y+1892500D02*
X+1498800Y+1892500D01*
X+1390399Y+1937401D02*
X+1480201Y+1847599D01*
X+1390399Y+1847599D02*
X+1480201Y+1937401D01*
X+1193800Y+3238500D02*
X+1193583Y+3243747D01*
X+1191818Y+3254242D01*
X+1188126Y+3264737D01*
X+1182098Y+3275232D01*
X+1172876Y+3285612D01*
X+1162381Y+3293300D01*
X+1151886Y+3298218D01*
X+1141391Y+3301024D01*
X+1130896Y+3301997D01*
X+1130300Y+3302000D01*
X+1066800Y+3238500D02*
X+1067017Y+3243747D01*
X+1068782Y+3254242D01*
X+1072474Y+3264737D01*
X+1078502Y+3275232D01*
X+1087724Y+3285612D01*
X+1098219Y+3293300D01*
X+1108714Y+3298218D01*
X+1119209Y+3301024D01*
X+1129704Y+3301997D01*
X+1130300Y+3302000D01*
X+1066800Y+3238500D02*
X+1067017Y+3233253D01*
X+1068782Y+3222758D01*
X+1072474Y+3212263D01*
X+1078502Y+3201768D01*
X+1087724Y+3191388D01*
X+1098219Y+3183700D01*
X+1108714Y+3178782D01*
X+1119209Y+3175976D01*
X+1129704Y+3175003D01*
X+1130300Y+3175000D01*
X+1193800Y+3238500D02*
X+1193583Y+3233253D01*
X+1191818Y+3222758D01*
X+1188126Y+3212263D01*
X+1182098Y+3201768D01*
X+1172876Y+3191388D01*
X+1162381Y+3183700D01*
X+1151886Y+3178782D01*
X+1141391Y+3175976D01*
X+1130896Y+3175003D01*
X+1130300Y+3175000D01*
X+1130300Y+3302000D02*
X+1130300Y+3175000D01*
X+1066800Y+3238500D02*
X+1193800Y+3238500D01*
X+1193800Y+2095500D02*
X+1193583Y+2100747D01*
X+1191818Y+2111242D01*
X+1188126Y+2121737D01*
X+1182098Y+2132232D01*
X+1172876Y+2142612D01*
X+1162381Y+2150300D01*
X+1151886Y+2155218D01*
X+1141391Y+2158024D01*
X+1130896Y+2158997D01*
X+1130300Y+2159000D01*
X+1066800Y+2095500D02*
X+1067017Y+2100747D01*
X+1068782Y+2111242D01*
X+1072474Y+2121737D01*
X+1078502Y+2132232D01*
X+1087724Y+2142612D01*
X+1098219Y+2150300D01*
X+1108714Y+2155218D01*
X+1119209Y+2158024D01*
X+1129704Y+2158997D01*
X+1130300Y+2159000D01*
X+1066800Y+2095500D02*
X+1067017Y+2090253D01*
X+1068782Y+2079758D01*
X+1072474Y+2069263D01*
X+1078502Y+2058768D01*
X+1087724Y+2048388D01*
X+1098219Y+2040700D01*
X+1108714Y+2035782D01*
X+1119209Y+2032976D01*
X+1129704Y+2032003D01*
X+1130300Y+2032000D01*
X+1193800Y+2095500D02*
X+1193583Y+2090253D01*
X+1191818Y+2079758D01*
X+1188126Y+2069263D01*
X+1182098Y+2058768D01*
X+1172876Y+2048388D01*
X+1162381Y+2040700D01*
X+1151886Y+2035782D01*
X+1141391Y+2032976D01*
X+1130896Y+2032003D01*
X+1130300Y+2032000D01*
X+1130300Y+2159000D02*
X+1130300Y+2032000D01*
X+1066800Y+2095500D02*
X+1193800Y+2095500D01*
D22*
X+5492750Y+762000D02*
X+5492220Y+774958D01*
X+5487916Y+800876D01*
X+5478925Y+826794D01*
X+5464280Y+852712D01*
X+5441876Y+878466D01*
X+5415958Y+897958D01*
X+5390040Y+910530D01*
X+5364122Y+917866D01*
X+5338204Y+920694D01*
X+5334000Y+920750D01*
X+5175250Y+762000D02*
X+5175780Y+774958D01*
X+5180084Y+800876D01*
X+5189075Y+826794D01*
X+5203720Y+852712D01*
X+5226124Y+878466D01*
X+5252042Y+897958D01*
X+5277960Y+910530D01*
X+5303878Y+917866D01*
X+5329796Y+920694D01*
X+5334000Y+920750D01*
X+5175250Y+762000D02*
X+5175780Y+749042D01*
X+5180084Y+723124D01*
X+5189075Y+697206D01*
X+5203720Y+671288D01*
X+5226124Y+645534D01*
X+5252042Y+626042D01*
X+5277960Y+613470D01*
X+5303878Y+606134D01*
X+5329796Y+603306D01*
X+5334000Y+603250D01*
X+5492750Y+762000D02*
X+5492220Y+749042D01*
X+5487916Y+723124D01*
X+5478925Y+697206D01*
X+5464280Y+671288D01*
X+5441876Y+645534D01*
X+5415958Y+626042D01*
X+5390040Y+613470D01*
X+5364122Y+606134D01*
X+5338204Y+603306D01*
X+5334000Y+603250D01*
X+5492750Y+3556000D02*
X+5492220Y+3568958D01*
X+5487916Y+3594876D01*
X+5478925Y+3620794D01*
X+5464280Y+3646712D01*
X+5441876Y+3672466D01*
X+5415958Y+3691958D01*
X+5390040Y+3704530D01*
X+5364122Y+3711866D01*
X+5338204Y+3714694D01*
X+5334000Y+3714750D01*
X+5175250Y+3556000D02*
X+5175780Y+3568958D01*
X+5180084Y+3594876D01*
X+5189075Y+3620794D01*
X+5203720Y+3646712D01*
X+5226124Y+3672466D01*
X+5252042Y+3691958D01*
X+5277960Y+3704530D01*
X+5303878Y+3711866D01*
X+5329796Y+3714694D01*
X+5334000Y+3714750D01*
X+5175250Y+3556000D02*
X+5175780Y+3543042D01*
X+5180084Y+3517124D01*
X+5189075Y+3491206D01*
X+5203720Y+3465288D01*
X+5226124Y+3439534D01*
X+5252042Y+3420042D01*
X+5277960Y+3407470D01*
X+5303878Y+3400134D01*
X+5329796Y+3397306D01*
X+5334000Y+3397250D01*
X+5492750Y+3556000D02*
X+5492220Y+3543042D01*
X+5487916Y+3517124D01*
X+5478925Y+3491206D01*
X+5464280Y+3465288D01*
X+5441876Y+3439534D01*
X+5415958Y+3420042D01*
X+5390040Y+3407470D01*
X+5364122Y+3400134D01*
X+5338204Y+3397306D01*
X+5334000Y+3397250D01*
X+412750Y+5080000D02*
X+412220Y+5092958D01*
X+407916Y+5118876D01*
X+398925Y+5144794D01*
X+384280Y+5170712D01*
X+361876Y+5196466D01*
X+335958Y+5215958D01*
X+310040Y+5228530D01*
X+284122Y+5235866D01*
X+258204Y+5238694D01*
X+254000Y+5238750D01*
X+95250Y+5080000D02*
X+95780Y+5092958D01*
X+100084Y+5118876D01*
X+109075Y+5144794D01*
X+123720Y+5170712D01*
X+146124Y+5196466D01*
X+172042Y+5215958D01*
X+197960Y+5228530D01*
X+223878Y+5235866D01*
X+249796Y+5238694D01*
X+254000Y+5238750D01*
X+95250Y+5080000D02*
X+95780Y+5067042D01*
X+100084Y+5041124D01*
X+109075Y+5015206D01*
X+123720Y+4989288D01*
X+146124Y+4963534D01*
X+172042Y+4944042D01*
X+197960Y+4931470D01*
X+223878Y+4924134D01*
X+249796Y+4921306D01*
X+254000Y+4921250D01*
X+412750Y+5080000D02*
X+412220Y+5067042D01*
X+407916Y+5041124D01*
X+398925Y+5015206D01*
X+384280Y+4989288D01*
X+361876Y+4963534D01*
X+335958Y+4944042D01*
X+310040Y+4931470D01*
X+284122Y+4924134D01*
X+258204Y+4921306D01*
X+254000Y+4921250D01*
X+412750Y+254000D02*
X+412220Y+266958D01*
X+407916Y+292876D01*
X+398925Y+318794D01*
X+384280Y+344712D01*
X+361876Y+370466D01*
X+335958Y+389958D01*
X+310040Y+402530D01*
X+284122Y+409866D01*
X+258204Y+412694D01*
X+254000Y+412750D01*
X+95250Y+254000D02*
X+95780Y+266958D01*
X+100084Y+292876D01*
X+109075Y+318794D01*
X+123720Y+344712D01*
X+146124Y+370466D01*
X+172042Y+389958D01*
X+197960Y+402530D01*
X+223878Y+409866D01*
X+249796Y+412694D01*
X+254000Y+412750D01*
X+95250Y+254000D02*
X+95780Y+241042D01*
X+100084Y+215124D01*
X+109075Y+189206D01*
X+123720Y+163288D01*
X+146124Y+137534D01*
X+172042Y+118042D01*
X+197960Y+105470D01*
X+223878Y+98134D01*
X+249796Y+95306D01*
X+254000Y+95250D01*
X+412750Y+254000D02*
X+412220Y+241042D01*
X+407916Y+215124D01*
X+398925Y+189206D01*
X+384280Y+163288D01*
X+361876Y+137534D01*
X+335958Y+118042D01*
X+310040Y+105470D01*
X+284122Y+98134D01*
X+258204Y+95306D01*
X+254000Y+95250D01*
X+0Y+127000D02*
X+2527Y+101032D01*
X+9798Y+77018D01*
X+21348Y+55423D01*
X+36711Y+36711D01*
X+55423Y+21347D01*
X+77018Y+9798D01*
X+101032Y+2527D01*
X+127000Y+0D01*
X+5207000Y+0D01*
X+5232967Y+2527D01*
X+5256981Y+9798D01*
X+5278577Y+21347D01*
X+5297289Y+36711D01*
X+5312652Y+55423D01*
X+5324202Y+77018D01*
X+5331473Y+101032D01*
X+5334000Y+127000D01*
X+5334000Y+254000D01*
X+5588000Y+508000D01*
X+5588000Y+3810000D01*
X+5334000Y+4064000D01*
X+5334000Y+5207000D01*
X+5207000Y+5334000D01*
X+127000Y+5334000D01*
X+101032Y+5331473D01*
X+77018Y+5324202D01*
X+55423Y+5312652D01*
X+36711Y+5297289D01*
X+21348Y+5278577D01*
X+9798Y+5256981D01*
X+2527Y+5232967D01*
X+0Y+5207000D01*
X+0Y+127000D01*
D24*
X-39700Y-1508125D02*
X+2604440Y-1508125D01*
X+2604440Y-263525D01*
X-39700Y-263525D01*
X-39700Y-1508125D01*
D47*
X+427662Y-263525D02*
X+427662Y-1508125D01*
X+1240462Y-263525D02*
X+1240462Y-1508125D01*
X+2073582Y-263525D02*
X+2073582Y-1508125D01*
X-39700Y-536575D02*
X+2604440Y-536575D01*
X-39700Y-777875D02*
X+2604440Y-777875D01*
X-39700Y-1019175D02*
X+2604440Y-1019175D01*
X-39700Y-1260475D02*
X+2604440Y-1260475D01*
D24*
X+17450Y-427355D02*
X+32690Y-442595D01*
X+93650Y-442595D01*
X+108890Y-427355D01*
X+108890Y-412115D01*
X+93650Y-396875D01*
X+32690Y-396875D01*
X+17450Y-381635D01*
X+17450Y-366395D01*
X+32690Y-351155D01*
X+93650Y-351155D01*
X+108890Y-366395D01*
X+230810Y-351155D02*
X+139370Y-442595D01*
X+139370Y-351155D02*
X+185090Y-396875D01*
X+261290Y-442595D02*
X+261290Y-351155D01*
X+307010Y-396875D01*
X+352730Y-351155D01*
X+352730Y-442595D01*
X+484810Y-427355D02*
X+500050Y-442595D01*
X+561010Y-442595D01*
X+576250Y-427355D01*
X+576250Y-412115D01*
X+561010Y-396875D01*
X+500050Y-396875D01*
X+484810Y-381635D01*
X+484810Y-366395D01*
X+500050Y-351155D01*
X+561010Y-351155D01*
X+576250Y-366395D01*
X+621970Y-351155D02*
X+682930Y-351155D01*
X+652450Y-351155D02*
X+652450Y-442595D01*
X+621970Y-442595D02*
X+682930Y-442595D01*
X+728650Y-351155D02*
X+820090Y-351155D01*
X+728650Y-442595D01*
X+820090Y-442595D01*
X+942010Y-442595D02*
X+850570Y-442595D01*
X+850570Y-351155D01*
X+942010Y-351155D01*
X+850570Y-396875D02*
X+911530Y-396875D01*
X+1297610Y-442595D02*
X+1297610Y-351155D01*
X+1373810Y-351155D01*
X+1389050Y-366395D01*
X+1389050Y-381635D01*
X+1373810Y-396875D01*
X+1297610Y-396875D01*
X+1419530Y-351155D02*
X+1419530Y-442595D01*
X+1510970Y-442595D01*
X+1541450Y-442595D02*
X+1541450Y-381635D01*
X+1571930Y-351155D01*
X+1602410Y-351155D01*
X+1632890Y-381635D01*
X+1632890Y-442595D01*
X+1541450Y-412115D02*
X+1632890Y-412115D01*
X+1663370Y-351155D02*
X+1754810Y-351155D01*
X+1709090Y-351155D02*
X+1709090Y-442595D01*
X+1876730Y-442595D02*
X+1785290Y-442595D01*
X+1785290Y-351155D01*
X+1876730Y-351155D01*
X+1785290Y-396875D02*
X+1846250Y-396875D01*
X+1907210Y-442595D02*
X+1907210Y-351155D01*
X+1968170Y-351155D01*
X+1998650Y-381635D01*
X+1998650Y-412115D01*
X+1968170Y-442595D01*
X+1907210Y-442595D01*
X+2130730Y-381635D02*
X+2161210Y-351155D01*
X+2191690Y-351155D01*
X+2222170Y-381635D01*
X+2222170Y-412115D01*
X+2191690Y-442595D01*
X+2161210Y-442595D01*
X+2130730Y-412115D01*
X+2130730Y-381635D01*
X+2191690Y-412115D02*
X+2222170Y-442595D01*
X+2252650Y-351155D02*
X+2344090Y-351155D01*
X+2298370Y-351155D02*
X+2298370Y-442595D01*
X+2466010Y-351155D02*
X+2374570Y-442595D01*
X+2374570Y-351155D02*
X+2420290Y-396875D01*
X+206680Y-587375D02*
X+206680Y-714375D01*
X+143180Y-650875D02*
X+270180Y-650875D01*
X+503860Y-676275D02*
X+503860Y-625475D01*
X+516560Y-612775D01*
X+567360Y-612775D01*
X+580060Y-625475D01*
X+580060Y-676275D01*
X+567360Y-688975D01*
X+516560Y-688975D01*
X+503860Y-676275D01*
X+503860Y-688975D02*
X+580060Y-612775D01*
X+643560Y-676275D02*
X+656260Y-676275D01*
X+656260Y-688975D01*
X+643560Y-688975D01*
X+643560Y-676275D01*
X+783260Y-638175D02*
X+770560Y-650875D01*
X+732460Y-650875D01*
X+719760Y-638175D01*
X+719760Y-625475D01*
X+732460Y-612775D01*
X+770560Y-612775D01*
X+783260Y-625475D01*
X+783260Y-676275D01*
X+770560Y-688975D01*
X+732460Y-688975D01*
X+884860Y-612775D02*
X+821360Y-612775D01*
X+821360Y-638175D01*
X+872160Y-638175D01*
X+884860Y-650875D01*
X+884860Y-676275D01*
X+872160Y-688975D01*
X+834060Y-688975D01*
X+821360Y-676275D01*
X+910260Y-688975D02*
X+910260Y-638175D01*
X+910260Y-650875D02*
X+922960Y-638175D01*
X+948360Y-663575D01*
X+973760Y-638175D01*
X+986460Y-650875D01*
X+986460Y-688975D01*
X+1011860Y-688975D02*
X+1011860Y-638175D01*
X+1011860Y-650875D02*
X+1024560Y-638175D01*
X+1049960Y-663575D01*
X+1075360Y-638175D01*
X+1088060Y-650875D01*
X+1088060Y-688975D01*
X+1405560Y-612775D02*
X+1329360Y-688975D01*
X+1329360Y-612775D02*
X+1367460Y-650875D01*
X+1507160Y-688975D02*
X+1430960Y-688975D01*
X+1430960Y-612775D01*
X+1507160Y-612775D01*
X+1430960Y-650875D02*
X+1481760Y-650875D01*
X+1532560Y-676275D02*
X+1545260Y-688975D01*
X+1596060Y-688975D01*
X+1608760Y-676275D01*
X+1608760Y-663575D01*
X+1596060Y-650875D01*
X+1545260Y-650875D01*
X+1532560Y-638175D01*
X+1532560Y-625475D01*
X+1545260Y-612775D01*
X+1596060Y-612775D01*
X+1608760Y-625475D01*
X+2251380Y-663575D02*
X+2175180Y-663575D01*
X+2225980Y-612775D01*
X+2225980Y-688975D01*
X+2289480Y-612775D02*
X+2352980Y-612775D01*
X+2352980Y-625475D01*
X+2289480Y-688975D01*
X+161779Y-847274D02*
X+251581Y-937076D01*
X+161779Y-937076D02*
X+251581Y-847274D01*
X+503860Y-917575D02*
X+503860Y-866775D01*
X+516560Y-854075D01*
X+567360Y-854075D01*
X+580060Y-866775D01*
X+580060Y-917575D01*
X+567360Y-930275D01*
X+516560Y-930275D01*
X+503860Y-917575D01*
X+503860Y-930275D02*
X+580060Y-854075D01*
X+643560Y-917575D02*
X+656260Y-917575D01*
X+656260Y-930275D01*
X+643560Y-930275D01*
X+643560Y-917575D01*
X+719760Y-866775D02*
X+732460Y-854075D01*
X+770560Y-854075D01*
X+783260Y-866775D01*
X+783260Y-879475D01*
X+770560Y-892175D01*
X+783260Y-904875D01*
X+783260Y-917575D01*
X+770560Y-930275D01*
X+732460Y-930275D01*
X+719760Y-917575D01*
X+745160Y-892175D02*
X+770560Y-892175D01*
X+808660Y-917575D02*
X+808660Y-866775D01*
X+821360Y-854075D01*
X+872160Y-854075D01*
X+884860Y-866775D01*
X+884860Y-917575D01*
X+872160Y-930275D01*
X+821360Y-930275D01*
X+808660Y-917575D01*
X+808660Y-930275D02*
X+884860Y-854075D01*
X+986460Y-854075D02*
X+922960Y-854075D01*
X+922960Y-879475D01*
X+973760Y-879475D01*
X+986460Y-892175D01*
X+986460Y-917575D01*
X+973760Y-930275D01*
X+935660Y-930275D01*
X+922960Y-917575D01*
X+1011860Y-930275D02*
X+1011860Y-879475D01*
X+1011860Y-892175D02*
X+1024560Y-879475D01*
X+1049960Y-904875D01*
X+1075360Y-879475D01*
X+1088060Y-892175D01*
X+1088060Y-930275D01*
X+1113460Y-930275D02*
X+1113460Y-879475D01*
X+1113460Y-892175D02*
X+1126160Y-879475D01*
X+1151560Y-904875D01*
X+1176960Y-879475D01*
X+1189660Y-892175D01*
X+1189660Y-930275D01*
X+1405560Y-854075D02*
X+1329360Y-930275D01*
X+1329360Y-854075D02*
X+1367460Y-892175D01*
X+1507160Y-930275D02*
X+1430960Y-930275D01*
X+1430960Y-854075D01*
X+1507160Y-854075D01*
X+1430960Y-892175D02*
X+1481760Y-892175D01*
X+1532560Y-917575D02*
X+1545260Y-930275D01*
X+1596060Y-930275D01*
X+1608760Y-917575D01*
X+1608760Y-904875D01*
X+1596060Y-892175D01*
X+1545260Y-892175D01*
X+1532560Y-879475D01*
X+1532560Y-866775D01*
X+1545260Y-854075D01*
X+1596060Y-854075D01*
X+1608760Y-866775D01*
X+2200580Y-879475D02*
X+2225980Y-854075D01*
X+2225980Y-930275D01*
X+2352980Y-866775D02*
X+2340280Y-854075D01*
X+2302180Y-854075D01*
X+2289480Y-866775D01*
X+2289480Y-917575D01*
X+2302180Y-930275D01*
X+2340280Y-930275D01*
X+2352980Y-917575D01*
X+2352980Y-904875D01*
X+2340280Y-892175D01*
X+2289480Y-892175D01*
X+2454580Y-904875D02*
X+2378380Y-904875D01*
X+2429180Y-854075D01*
X+2429180Y-930275D01*
X+206680Y-1069975D02*
X+206680Y-1196975D01*
X+143180Y-1133475D02*
X+270180Y-1133475D01*
X+161779Y-1088574D02*
X+251581Y-1178376D01*
X+161779Y-1178376D02*
X+251581Y-1088574D01*
X+529260Y-1120775D02*
X+554660Y-1095375D01*
X+554660Y-1171575D01*
X+643560Y-1158875D02*
X+656260Y-1158875D01*
X+656260Y-1171575D01*
X+643560Y-1171575D01*
X+643560Y-1158875D01*
X+783260Y-1108075D02*
X+770560Y-1095375D01*
X+732460Y-1095375D01*
X+719760Y-1108075D01*
X+719760Y-1158875D01*
X+732460Y-1171575D01*
X+770560Y-1171575D01*
X+783260Y-1158875D01*
X+783260Y-1146175D01*
X+770560Y-1133475D01*
X+719760Y-1133475D01*
X+821360Y-1108075D02*
X+834060Y-1095375D01*
X+872160Y-1095375D01*
X+884860Y-1108075D01*
X+884860Y-1120775D01*
X+872160Y-1133475D01*
X+884860Y-1146175D01*
X+884860Y-1158875D01*
X+872160Y-1171575D01*
X+834060Y-1171575D01*
X+821360Y-1158875D01*
X+846760Y-1133475D02*
X+872160Y-1133475D01*
X+910260Y-1171575D02*
X+910260Y-1120775D01*
X+910260Y-1133475D02*
X+922960Y-1120775D01*
X+948360Y-1146175D01*
X+973760Y-1120775D01*
X+986460Y-1133475D01*
X+986460Y-1171575D01*
X+1011860Y-1171575D02*
X+1011860Y-1120775D01*
X+1011860Y-1133475D02*
X+1024560Y-1120775D01*
X+1049960Y-1146175D01*
X+1075360Y-1120775D01*
X+1088060Y-1133475D01*
X+1088060Y-1171575D01*
X+1405560Y-1095375D02*
X+1329360Y-1171575D01*
X+1329360Y-1095375D02*
X+1367460Y-1133475D01*
X+1507160Y-1171575D02*
X+1430960Y-1171575D01*
X+1430960Y-1095375D01*
X+1507160Y-1095375D01*
X+1430960Y-1133475D02*
X+1481760Y-1133475D01*
X+1532560Y-1158875D02*
X+1545260Y-1171575D01*
X+1596060Y-1171575D01*
X+1608760Y-1158875D01*
X+1608760Y-1146175D01*
X+1596060Y-1133475D01*
X+1545260Y-1133475D01*
X+1532560Y-1120775D01*
X+1532560Y-1108075D01*
X+1545260Y-1095375D01*
X+1596060Y-1095375D01*
X+1608760Y-1108075D01*
X+2187880Y-1108075D02*
X+2200580Y-1095375D01*
X+2238680Y-1095375D01*
X+2251380Y-1108075D01*
X+2251380Y-1120775D01*
X+2238680Y-1133475D01*
X+2200580Y-1133475D01*
X+2187880Y-1146175D01*
X+2187880Y-1171575D01*
X+2251380Y-1171575D01*
X+270180Y-1374775D02*
X+269963Y-1369528D01*
X+268198Y-1359033D01*
X+264506Y-1348538D01*
X+258478Y-1338043D01*
X+249256Y-1327663D01*
X+238761Y-1319975D01*
X+228266Y-1315057D01*
X+217771Y-1312251D01*
X+207276Y-1311278D01*
X+206680Y-1311275D01*
X+143180Y-1374775D02*
X+143397Y-1369528D01*
X+145162Y-1359033D01*
X+148854Y-1348538D01*
X+154882Y-1338043D01*
X+164104Y-1327663D01*
X+174599Y-1319975D01*
X+185094Y-1315057D01*
X+195589Y-1312251D01*
X+206084Y-1311278D01*
X+206680Y-1311275D01*
X+143180Y-1374775D02*
X+143397Y-1380022D01*
X+145162Y-1390517D01*
X+148854Y-1401012D01*
X+154882Y-1411507D01*
X+164104Y-1421887D01*
X+174599Y-1429575D01*
X+185094Y-1434493D01*
X+195589Y-1437299D01*
X+206084Y-1438272D01*
X+206680Y-1438275D01*
X+270180Y-1374775D02*
X+269963Y-1380022D01*
X+268198Y-1390517D01*
X+264506Y-1401012D01*
X+258478Y-1411507D01*
X+249256Y-1421887D01*
X+238761Y-1429575D01*
X+228266Y-1434493D01*
X+217771Y-1437299D01*
X+207276Y-1438272D01*
X+206680Y-1438275D01*
X+206680Y-1311275D02*
X+206680Y-1438275D01*
X+143180Y-1374775D02*
X+270180Y-1374775D01*
X+516560Y-1349375D02*
X+529260Y-1336675D01*
X+567360Y-1336675D01*
X+580060Y-1349375D01*
X+580060Y-1362075D01*
X+567360Y-1374775D01*
X+580060Y-1387475D01*
X+580060Y-1400175D01*
X+567360Y-1412875D01*
X+529260Y-1412875D01*
X+516560Y-1400175D01*
X+541960Y-1374775D02*
X+567360Y-1374775D01*
X+643560Y-1400175D02*
X+656260Y-1400175D01*
X+656260Y-1412875D01*
X+643560Y-1412875D01*
X+643560Y-1400175D01*
X+719760Y-1349375D02*
X+732460Y-1336675D01*
X+770560Y-1336675D01*
X+783260Y-1349375D01*
X+783260Y-1362075D01*
X+770560Y-1374775D01*
X+732460Y-1374775D01*
X+719760Y-1387475D01*
X+719760Y-1412875D01*
X+783260Y-1412875D01*
X+884860Y-1336675D02*
X+821360Y-1336675D01*
X+821360Y-1362075D01*
X+872160Y-1362075D01*
X+884860Y-1374775D01*
X+884860Y-1400175D01*
X+872160Y-1412875D01*
X+834060Y-1412875D01*
X+821360Y-1400175D01*
X+910260Y-1412875D02*
X+910260Y-1362075D01*
X+910260Y-1374775D02*
X+922960Y-1362075D01*
X+948360Y-1387475D01*
X+973760Y-1362075D01*
X+986460Y-1374775D01*
X+986460Y-1412875D01*
X+1011860Y-1412875D02*
X+1011860Y-1362075D01*
X+1011860Y-1374775D02*
X+1024560Y-1362075D01*
X+1049960Y-1387475D01*
X+1075360Y-1362075D01*
X+1088060Y-1374775D01*
X+1088060Y-1412875D01*
X+1329360Y-1412875D02*
X+1329360Y-1336675D01*
X+1405560Y-1412875D01*
X+1405560Y-1336675D01*
X+1430960Y-1362075D02*
X+1456360Y-1336675D01*
X+1481760Y-1336675D01*
X+1507160Y-1362075D01*
X+1507160Y-1387475D01*
X+1481760Y-1412875D01*
X+1456360Y-1412875D01*
X+1430960Y-1387475D01*
X+1430960Y-1362075D01*
X+2187880Y-1349375D02*
X+2200580Y-1336675D01*
X+2238680Y-1336675D01*
X+2251380Y-1349375D01*
X+2251380Y-1362075D01*
X+2238680Y-1374775D01*
X+2200580Y-1374775D01*
X+2187880Y-1387475D01*
X+2187880Y-1412875D01*
X+2251380Y-1412875D01*
M02*
