G04 PROTEUS RS274X GERBER FILE*
%FSLAX45Y45*%
%MOMM*%
G01*
%ADD10C,0.190500*%
%ADD11C,0.300000*%
%ADD12C,0.508000*%
%ADD13C,0.609600*%
%AMPPAD004*
4,1,36,
-0.495200,0.800000,
0.495200,0.800000,
0.557520,0.793940,
0.615160,0.776490,
0.666980,0.748770,
0.711890,0.711890,
0.748760,0.666980,
0.776480,0.615160,
0.793930,0.557520,
0.800000,0.495200,
0.800000,-0.495200,
0.793930,-0.557520,
0.776480,-0.615160,
0.748760,-0.666980,
0.711890,-0.711890,
0.666980,-0.748770,
0.615160,-0.776490,
0.557520,-0.793940,
0.495200,-0.800000,
-0.495200,-0.800000,
-0.557520,-0.793940,
-0.615160,-0.776490,
-0.666980,-0.748770,
-0.711890,-0.711890,
-0.748760,-0.666980,
-0.776480,-0.615160,
-0.793930,-0.557520,
-0.800000,-0.495200,
-0.800000,0.495200,
-0.793930,0.557520,
-0.776480,0.615160,
-0.748760,0.666980,
-0.711890,0.711890,
-0.666980,0.748770,
-0.615160,0.776490,
-0.557520,0.793940,
-0.495200,0.800000,
0*%
%ADD14PPAD004*%
%ADD15C,1.600000*%
%ADD16C,2.440000*%
%ADD17C,1.620000*%
%ADD18R,0.350000X1.100000*%
%ADD19R,0.900000X1.050000*%
%ADD70R,1.400000X1.200000*%
%ADD71R,1.050000X0.900000*%
%ADD20R,0.660000X1.000000*%
%ADD21R,0.711200X0.990600*%
%ADD22C,0.025400*%
G36*
X+5307966Y+5196216D02*
X+5307966Y+4053216D01*
X+5561965Y+3799217D01*
X+5561965Y+518783D01*
X+5307965Y+264783D01*
X+5307965Y+128257D01*
X+5305810Y+106112D01*
X+5300031Y+87027D01*
X+5290904Y+69961D01*
X+5278793Y+55211D01*
X+5264038Y+43095D01*
X+5246971Y+33968D01*
X+5227887Y+28190D01*
X+5205743Y+26035D01*
X+128257Y+26035D01*
X+106112Y+28190D01*
X+87028Y+33968D01*
X+69962Y+43095D01*
X+55207Y+55211D01*
X+43096Y+69961D01*
X+33969Y+87027D01*
X+28190Y+106112D01*
X+26035Y+128257D01*
X+26035Y+5205743D01*
X+28190Y+5227887D01*
X+33969Y+5246973D01*
X+43096Y+5264039D01*
X+55208Y+5278792D01*
X+69961Y+5290904D01*
X+87027Y+5300031D01*
X+106112Y+5305810D01*
X+128257Y+5307965D01*
X+5196217Y+5307965D01*
X+5307966Y+5196216D01*
G37*
%LPC*%
G36*
X+5337320Y+946571D02*
X+5337320Y+946572D01*
X+5380860Y+940974D01*
X+5426171Y+922434D01*
X+5428984Y+920250D01*
X+5466838Y+890851D01*
X+5469060Y+887729D01*
X+5499996Y+844254D01*
X+5503236Y+830594D01*
X+5519507Y+762000D01*
X+5518082Y+755992D01*
X+5499996Y+679746D01*
X+5466838Y+633149D01*
X+5426171Y+601566D01*
X+5380860Y+583026D01*
X+5334000Y+577002D01*
X+5330680Y+577428D01*
X+5287140Y+583026D01*
X+5241829Y+601566D01*
X+5239016Y+603750D01*
X+5201162Y+633149D01*
X+5198940Y+636271D01*
X+5168004Y+679746D01*
X+5164764Y+693406D01*
X+5148493Y+762000D01*
X+5149918Y+768008D01*
X+5168004Y+844254D01*
X+5201162Y+890851D01*
X+5241829Y+922434D01*
X+5287140Y+940974D01*
X+5334000Y+946998D01*
X+5337320Y+946571D01*
G37*
G36*
X+5337320Y+3740571D02*
X+5337320Y+3740572D01*
X+5380860Y+3734974D01*
X+5426171Y+3716434D01*
X+5428984Y+3714250D01*
X+5466838Y+3684851D01*
X+5469060Y+3681729D01*
X+5499996Y+3638254D01*
X+5503236Y+3624594D01*
X+5519507Y+3556000D01*
X+5518082Y+3549992D01*
X+5499996Y+3473746D01*
X+5466838Y+3427149D01*
X+5426171Y+3395566D01*
X+5380860Y+3377026D01*
X+5334000Y+3371002D01*
X+5330680Y+3371428D01*
X+5287140Y+3377026D01*
X+5241829Y+3395566D01*
X+5239016Y+3397750D01*
X+5201162Y+3427149D01*
X+5198940Y+3430271D01*
X+5168004Y+3473746D01*
X+5164764Y+3487406D01*
X+5148493Y+3556000D01*
X+5149918Y+3562008D01*
X+5168004Y+3638254D01*
X+5201162Y+3684851D01*
X+5241829Y+3716434D01*
X+5287140Y+3734974D01*
X+5334000Y+3740998D01*
X+5337320Y+3740571D01*
G37*
G36*
X+257320Y+5264571D02*
X+257320Y+5264572D01*
X+300860Y+5258974D01*
X+346171Y+5240434D01*
X+348984Y+5238250D01*
X+386838Y+5208851D01*
X+389060Y+5205729D01*
X+419996Y+5162254D01*
X+423236Y+5148594D01*
X+439507Y+5080000D01*
X+438082Y+5073992D01*
X+419996Y+4997746D01*
X+386838Y+4951149D01*
X+346171Y+4919566D01*
X+300860Y+4901026D01*
X+254000Y+4895002D01*
X+250680Y+4895428D01*
X+207140Y+4901026D01*
X+161829Y+4919566D01*
X+159016Y+4921750D01*
X+121162Y+4951149D01*
X+118940Y+4954271D01*
X+88004Y+4997746D01*
X+84764Y+5011406D01*
X+68493Y+5080000D01*
X+69918Y+5086008D01*
X+88004Y+5162254D01*
X+121162Y+5208851D01*
X+161829Y+5240434D01*
X+207140Y+5258974D01*
X+254000Y+5264998D01*
X+257320Y+5264571D01*
G37*
G36*
X+257320Y+438571D02*
X+257320Y+438572D01*
X+300860Y+432974D01*
X+346171Y+414434D01*
X+348984Y+412250D01*
X+386838Y+382851D01*
X+389060Y+379729D01*
X+419996Y+336254D01*
X+423236Y+322594D01*
X+439507Y+254000D01*
X+438082Y+247992D01*
X+419996Y+171746D01*
X+386838Y+125149D01*
X+346171Y+93566D01*
X+300860Y+75026D01*
X+254000Y+69002D01*
X+250680Y+69428D01*
X+207140Y+75026D01*
X+161829Y+93566D01*
X+159016Y+95750D01*
X+121162Y+125149D01*
X+118940Y+128271D01*
X+88004Y+171746D01*
X+84764Y+185406D01*
X+68493Y+254000D01*
X+69918Y+260008D01*
X+88004Y+336254D01*
X+121162Y+382851D01*
X+161829Y+414434D01*
X+207140Y+432974D01*
X+254000Y+438998D01*
X+257320Y+438571D01*
G37*
G36*
X+2573250Y+1667490D02*
X+2573252Y+1667490D01*
X+2618740Y+1622002D01*
X+2618740Y+1511048D01*
X+2618739Y+1511047D01*
X+2618739Y+1487053D01*
X+2642539Y+1463253D01*
X+2642539Y+1463251D01*
X+2755026Y+1350764D01*
X+2762864Y+1350764D01*
X+2762864Y+1342926D01*
X+2764789Y+1341001D01*
X+2764789Y+1217349D01*
X+2762864Y+1215424D01*
X+2762864Y+1201236D01*
X+2748676Y+1201236D01*
X+2744701Y+1197261D01*
X+2659149Y+1197261D01*
X+2655174Y+1201236D01*
X+2647336Y+1201236D01*
X+2647336Y+1209074D01*
X+2639061Y+1217349D01*
X+2639061Y+1323497D01*
X+2547797Y+1414761D01*
X+2309897Y+1414761D01*
X+2307272Y+1417386D01*
X+2297636Y+1417386D01*
X+2297636Y+1427022D01*
X+2289811Y+1434847D01*
X+2289811Y+1539451D01*
X+2297636Y+1547276D01*
X+2297636Y+1556914D01*
X+2307274Y+1556914D01*
X+2309899Y+1559539D01*
X+2398797Y+1559539D01*
X+2506748Y+1667490D01*
X+2506750Y+1667490D01*
X+2513099Y+1673839D01*
X+2566901Y+1673839D01*
X+2573250Y+1667490D01*
G37*
G36*
X+2748676Y+1090764D02*
X+2762864Y+1090764D01*
X+2762864Y+1076576D01*
X+2764789Y+1074651D01*
X+2764789Y+957347D01*
X+2762864Y+955422D01*
X+2762864Y+941236D01*
X+2748678Y+941236D01*
X+2744703Y+937261D01*
X+2744701Y+937261D01*
X+2650489Y+843049D01*
X+2650489Y+201699D01*
X+2592301Y+143511D01*
X+2487699Y+143511D01*
X+2429511Y+201699D01*
X+2429511Y+817649D01*
X+2309899Y+937261D01*
X+2309897Y+937261D01*
X+2300922Y+946236D01*
X+2297636Y+946236D01*
X+2297636Y+949522D01*
X+2289811Y+957347D01*
X+2289811Y+1074651D01*
X+2297636Y+1082476D01*
X+2297636Y+1085764D01*
X+2300924Y+1085764D01*
X+2309899Y+1094739D01*
X+2744701Y+1094739D01*
X+2748676Y+1090764D01*
G37*
G36*
X+1099426Y+358764D02*
X+1120764Y+358764D01*
X+1120764Y+337426D01*
X+1126489Y+331701D01*
X+1126489Y+176299D01*
X+1120764Y+170574D01*
X+1120764Y+149236D01*
X+1099426Y+149236D01*
X+1093701Y+143511D01*
X+938299Y+143511D01*
X+932574Y+149236D01*
X+911236Y+149236D01*
X+911236Y+170574D01*
X+905511Y+176299D01*
X+905511Y+331701D01*
X+911236Y+337426D01*
X+911236Y+358764D01*
X+932574Y+358764D01*
X+938299Y+364489D01*
X+1093701Y+364489D01*
X+1099426Y+358764D01*
G37*
G36*
X+1332345Y+354445D02*
X+1380489Y+306301D01*
X+1380489Y+201699D01*
X+1322301Y+143511D01*
X+1217699Y+143511D01*
X+1159511Y+201699D01*
X+1159511Y+306301D01*
X+1217699Y+364489D01*
X+1322301Y+364489D01*
X+1332345Y+354445D01*
G37*
G36*
X+1586345Y+354445D02*
X+1634489Y+306301D01*
X+1634489Y+201699D01*
X+1576301Y+143511D01*
X+1471699Y+143511D01*
X+1413511Y+201699D01*
X+1413511Y+306301D01*
X+1471699Y+364489D01*
X+1576301Y+364489D01*
X+1586345Y+354445D01*
G37*
G36*
X+1840345Y+354445D02*
X+1888489Y+306301D01*
X+1888489Y+201699D01*
X+1830301Y+143511D01*
X+1725699Y+143511D01*
X+1667511Y+201699D01*
X+1667511Y+306301D01*
X+1725699Y+364489D01*
X+1830301Y+364489D01*
X+1840345Y+354445D01*
G37*
G36*
X+3137964Y+1257386D02*
X+3094989Y+1257386D01*
X+3094989Y+1245764D01*
X+3137964Y+1245764D01*
X+3137964Y+1147226D01*
X+3194896Y+1090294D01*
X+3286124Y+1090294D01*
X+3286124Y+941706D01*
X+3165476Y+941706D01*
X+3165476Y+1022734D01*
X+3137964Y+1050246D01*
X+3137964Y+946236D01*
X+3033075Y+946236D01*
X+2955289Y+868450D01*
X+2955289Y+163599D01*
X+2846301Y+54611D01*
X+2182899Y+54611D01*
X+2093999Y+143511D01*
X+1979699Y+143511D01*
X+1921511Y+201699D01*
X+1921511Y+306301D01*
X+1979699Y+364489D01*
X+2084301Y+364489D01*
X+2142489Y+306301D01*
X+2142489Y+192001D01*
X+2211301Y+123189D01*
X+2817899Y+123189D01*
X+2886711Y+192001D01*
X+2886711Y+896852D01*
X+2931095Y+941236D01*
X+2837336Y+941236D01*
X+2837336Y+1090764D01*
X+2952864Y+1090764D01*
X+2952864Y+963005D01*
X+2983436Y+993577D01*
X+2983436Y+1085764D01*
X+3102446Y+1085764D01*
X+3081974Y+1106236D01*
X+2983436Y+1106236D01*
X+2983436Y+1245764D01*
X+3026411Y+1245764D01*
X+3026411Y+1257386D01*
X+2983436Y+1257386D01*
X+2983436Y+1396914D01*
X+3137964Y+1396914D01*
X+3137964Y+1257386D01*
G37*
G36*
X+2348345Y+354445D02*
X+2396489Y+306301D01*
X+2396489Y+201699D01*
X+2338301Y+143511D01*
X+2233699Y+143511D01*
X+2175511Y+201699D01*
X+2175511Y+306301D01*
X+2233699Y+364489D01*
X+2338301Y+364489D01*
X+2348345Y+354445D01*
G37*
G36*
X+2736975Y+230379D02*
X+2736975Y+277621D01*
X+2770379Y+311025D01*
X+2817621Y+311025D01*
X+2851025Y+277621D01*
X+2851025Y+230379D01*
X+2817621Y+196975D01*
X+2770379Y+196975D01*
X+2736975Y+230379D01*
G37*
G36*
X+2990975Y+230379D02*
X+2990975Y+277621D01*
X+3024379Y+311025D01*
X+3071621Y+311025D01*
X+3105025Y+277621D01*
X+3105025Y+230379D01*
X+3071621Y+196975D01*
X+3024379Y+196975D01*
X+2990975Y+230379D01*
G37*
G36*
X+3364345Y+354445D02*
X+3412489Y+306301D01*
X+3412489Y+201699D01*
X+3354301Y+143511D01*
X+3249699Y+143511D01*
X+3191511Y+201699D01*
X+3191511Y+306301D01*
X+3249699Y+364489D01*
X+3354301Y+364489D01*
X+3364345Y+354445D01*
G37*
G36*
X+3498975Y+230379D02*
X+3498975Y+277621D01*
X+3532379Y+311025D01*
X+3579621Y+311025D01*
X+3613025Y+277621D01*
X+3613025Y+230379D01*
X+3579621Y+196975D01*
X+3532379Y+196975D01*
X+3498975Y+230379D01*
G37*
G36*
X+3872345Y+354445D02*
X+3920489Y+306301D01*
X+3920489Y+201699D01*
X+3862301Y+143511D01*
X+3757699Y+143511D01*
X+3699511Y+201699D01*
X+3699511Y+306301D01*
X+3757699Y+364489D01*
X+3862301Y+364489D01*
X+3872345Y+354445D01*
G37*
G36*
X+4126345Y+354445D02*
X+4174489Y+306301D01*
X+4174489Y+201699D01*
X+4116301Y+143511D01*
X+4011699Y+143511D01*
X+3953511Y+201699D01*
X+3953511Y+306301D01*
X+4011699Y+364489D01*
X+4116301Y+364489D01*
X+4126345Y+354445D01*
G37*
G36*
X+4380345Y+354445D02*
X+4428489Y+306301D01*
X+4428489Y+201699D01*
X+4370301Y+143511D01*
X+4265699Y+143511D01*
X+4207511Y+201699D01*
X+4207511Y+306301D01*
X+4265699Y+364489D01*
X+4370301Y+364489D01*
X+4380345Y+354445D01*
G37*
G36*
X+4634345Y+354445D02*
X+4682489Y+306301D01*
X+4682489Y+201699D01*
X+4624301Y+143511D01*
X+4519699Y+143511D01*
X+4461511Y+201699D01*
X+4461511Y+306301D01*
X+4519699Y+364489D01*
X+4624301Y+364489D01*
X+4634345Y+354445D01*
G37*
G36*
X+4888345Y+354445D02*
X+4936489Y+306301D01*
X+4936489Y+201699D01*
X+4878301Y+143511D01*
X+4773699Y+143511D01*
X+4715511Y+201699D01*
X+4715511Y+306301D01*
X+4773699Y+364489D01*
X+4878301Y+364489D01*
X+4888345Y+354445D01*
G37*
G36*
X+5142345Y+354445D02*
X+5190489Y+306301D01*
X+5190489Y+201699D01*
X+5132301Y+143511D01*
X+5027699Y+143511D01*
X+4969511Y+201699D01*
X+4969511Y+306301D01*
X+5027699Y+364489D01*
X+5132301Y+364489D01*
X+5142345Y+354445D01*
G37*
G36*
X+693026Y+5184764D02*
X+714364Y+5184764D01*
X+714364Y+5163426D01*
X+720089Y+5157701D01*
X+720089Y+5002299D01*
X+714364Y+4996574D01*
X+714364Y+4975236D01*
X+693026Y+4975236D01*
X+687301Y+4969511D01*
X+531899Y+4969511D01*
X+526174Y+4975236D01*
X+504836Y+4975236D01*
X+504836Y+4996574D01*
X+499111Y+5002299D01*
X+499111Y+5157701D01*
X+504836Y+5163426D01*
X+504836Y+5184764D01*
X+526174Y+5184764D01*
X+531899Y+5190489D01*
X+687301Y+5190489D01*
X+693026Y+5184764D01*
G37*
G36*
X+925945Y+5180445D02*
X+974089Y+5132301D01*
X+974089Y+5027699D01*
X+915901Y+4969511D01*
X+811299Y+4969511D01*
X+753111Y+5027699D01*
X+753111Y+5132301D01*
X+811299Y+5190489D01*
X+915901Y+5190489D01*
X+925945Y+5180445D01*
G37*
G36*
X+2339773Y+5224722D02*
X+2545368Y+5224722D01*
X+2579601Y+5190489D01*
X+2693901Y+5190489D01*
X+2752089Y+5132301D01*
X+2752089Y+5027699D01*
X+2693901Y+4969511D01*
X+2589299Y+4969511D01*
X+2531111Y+5027699D01*
X+2531111Y+5141999D01*
X+2516966Y+5156144D01*
X+2474246Y+5156144D01*
X+2498089Y+5132301D01*
X+2498089Y+5027699D01*
X+2439901Y+4969511D01*
X+2341027Y+4969511D01*
X+3580399Y+3730139D01*
X+4537711Y+4687451D01*
X+4537711Y+4951499D01*
X+4532574Y+4956636D01*
X+4532572Y+4956636D01*
X+4499611Y+4989597D01*
X+4499611Y+4989599D01*
X+4461511Y+5027699D01*
X+4461511Y+5132301D01*
X+4519699Y+5190489D01*
X+4624301Y+5190489D01*
X+4682489Y+5132301D01*
X+4682489Y+5027699D01*
X+4644389Y+4989599D01*
X+4644389Y+4989597D01*
X+4611428Y+4956636D01*
X+4611426Y+4956636D01*
X+4606289Y+4951499D01*
X+4606289Y+4659049D01*
X+3647789Y+3700549D01*
X+3647789Y+3106651D01*
X+3712789Y+3041651D01*
X+3712789Y+3038864D01*
X+3839211Y+3038864D01*
X+3839211Y+3072336D01*
X+3803736Y+3072336D01*
X+3803736Y+3226864D01*
X+3943264Y+3226864D01*
X+3943264Y+3072336D01*
X+3907789Y+3072336D01*
X+3907789Y+3038864D01*
X+3915764Y+3038864D01*
X+3915764Y+2879336D01*
X+3246236Y+2879336D01*
X+3246236Y+3038864D01*
X+3254211Y+3038864D01*
X+3254211Y+3765731D01*
X+2160515Y+4859427D01*
X+1586609Y+4859427D01*
X+1510760Y+4935276D01*
X+1305082Y+4935276D01*
X+1226872Y+5013486D01*
X+1226872Y+5026482D01*
X+1169901Y+4969511D01*
X+1065299Y+4969511D01*
X+1007111Y+5027699D01*
X+1007111Y+5132301D01*
X+1065299Y+5190489D01*
X+1169901Y+5190489D01*
X+1226872Y+5133518D01*
X+1226872Y+5146422D01*
X+1305141Y+5224691D01*
X+1510684Y+5224691D01*
X+1544951Y+5258958D01*
X+1913305Y+5258958D01*
X+1947522Y+5293175D01*
X+2271320Y+5293175D01*
X+2339773Y+5224722D01*
G37*
G36*
X+2957945Y+5180445D02*
X+3006089Y+5132301D01*
X+3006089Y+5027699D01*
X+2947901Y+4969511D01*
X+2843299Y+4969511D01*
X+2785111Y+5027699D01*
X+2785111Y+5132301D01*
X+2843299Y+5190489D01*
X+2947901Y+5190489D01*
X+2957945Y+5180445D01*
G37*
G36*
X+3385426Y+5184764D02*
X+3406764Y+5184764D01*
X+3406764Y+5163426D01*
X+3412489Y+5157701D01*
X+3412489Y+5002299D01*
X+3406764Y+4996574D01*
X+3406764Y+4975236D01*
X+3385426Y+4975236D01*
X+3379701Y+4969511D01*
X+3224299Y+4969511D01*
X+3218574Y+4975236D01*
X+3197236Y+4975236D01*
X+3197236Y+4996574D01*
X+3191511Y+5002299D01*
X+3191511Y+5157701D01*
X+3197236Y+5163426D01*
X+3197236Y+5184764D01*
X+3218574Y+5184764D01*
X+3224299Y+5190489D01*
X+3379701Y+5190489D01*
X+3385426Y+5184764D01*
G37*
G36*
X+3618345Y+5180445D02*
X+3666489Y+5132301D01*
X+3666489Y+5027699D01*
X+3608301Y+4969511D01*
X+3503699Y+4969511D01*
X+3445511Y+5027699D01*
X+3445511Y+5132301D01*
X+3503699Y+5190489D01*
X+3608301Y+5190489D01*
X+3618345Y+5180445D01*
G37*
G36*
X+3872345Y+5180445D02*
X+3920489Y+5132301D01*
X+3920489Y+5027699D01*
X+3862301Y+4969511D01*
X+3757699Y+4969511D01*
X+3699511Y+5027699D01*
X+3699511Y+5132301D01*
X+3757699Y+5190489D01*
X+3862301Y+5190489D01*
X+3872345Y+5180445D01*
G37*
G36*
X+4126345Y+5180445D02*
X+4174489Y+5132301D01*
X+4174489Y+5027699D01*
X+4116301Y+4969511D01*
X+4011699Y+4969511D01*
X+3953511Y+5027699D01*
X+3953511Y+5132301D01*
X+4011699Y+5190489D01*
X+4116301Y+5190489D01*
X+4126345Y+5180445D01*
G37*
G36*
X+4380345Y+5180445D02*
X+4428489Y+5132301D01*
X+4428489Y+5027699D01*
X+4370301Y+4969511D01*
X+4265699Y+4969511D01*
X+4207511Y+5027699D01*
X+4207511Y+5132301D01*
X+4265699Y+5190489D01*
X+4370301Y+5190489D01*
X+4380345Y+5180445D01*
G37*
G36*
X+4888345Y+5180445D02*
X+4936489Y+5132301D01*
X+4936489Y+5027699D01*
X+4878301Y+4969511D01*
X+4773699Y+4969511D01*
X+4715511Y+5027699D01*
X+4715511Y+5132301D01*
X+4773699Y+5190489D01*
X+4878301Y+5190489D01*
X+4888345Y+5180445D01*
G37*
G36*
X+5142345Y+5180445D02*
X+5190489Y+5132301D01*
X+5190489Y+5027699D01*
X+5132301Y+4969511D01*
X+5027699Y+4969511D01*
X+4969511Y+5027699D01*
X+4969511Y+5132301D01*
X+5027699Y+5190489D01*
X+5132301Y+5190489D01*
X+5142345Y+5180445D01*
G37*
G36*
X+2757064Y+3306126D02*
X+2790401Y+3272789D01*
X+2815801Y+3272789D01*
X+2848589Y+3240001D01*
X+2848589Y+3186199D01*
X+2815801Y+3153411D01*
X+2761999Y+3153411D01*
X+2757064Y+3158346D01*
X+2757064Y+3072336D01*
X+2727064Y+3072336D01*
X+2727064Y+3061764D01*
X+2757064Y+3061764D01*
X+2757064Y+2907236D01*
X+2727064Y+2907236D01*
X+2727064Y+2807764D01*
X+2757064Y+2807764D01*
X+2757064Y+2686743D01*
X+2888346Y+2686743D01*
X+3059211Y+2857608D01*
X+3059211Y+2879336D01*
X+2986236Y+2879336D01*
X+2986236Y+3038864D01*
X+2994211Y+3038864D01*
X+2994211Y+3072336D01*
X+2958736Y+3072336D01*
X+2958736Y+3226864D01*
X+3098264Y+3226864D01*
X+3098264Y+3072336D01*
X+3062789Y+3072336D01*
X+3062789Y+3038864D01*
X+3200764Y+3038864D01*
X+3200764Y+2879336D01*
X+3192789Y+2879336D01*
X+3192789Y+2845849D01*
X+2930855Y+2583915D01*
X+2693509Y+2583915D01*
X+2663358Y+2553764D01*
X+2757064Y+2553764D01*
X+2757064Y+2399236D01*
X+2721589Y+2399236D01*
X+2721589Y+2388664D01*
X+2757064Y+2388664D01*
X+2757064Y+2234136D01*
X+2721589Y+2234136D01*
X+2721589Y+2223564D01*
X+2757064Y+2223564D01*
X+2757064Y+2069036D01*
X+2617536Y+2069036D01*
X+2617536Y+2223564D01*
X+2653011Y+2223564D01*
X+2653011Y+2234136D01*
X+2617536Y+2234136D01*
X+2617536Y+2353146D01*
X+2597064Y+2332674D01*
X+2597064Y+2234136D01*
X+2457536Y+2234136D01*
X+2457536Y+2332674D01*
X+2227383Y+2562827D01*
X+2154096Y+2562827D01*
X+2129789Y+2538520D01*
X+2129789Y+2424199D01*
X+2071601Y+2366011D01*
X+1966999Y+2366011D01*
X+1908811Y+2424199D01*
X+1908811Y+2528801D01*
X+1959305Y+2579295D01*
X+1890799Y+2647801D01*
X+1890797Y+2647801D01*
X+1870711Y+2667887D01*
X+1870711Y+2703599D01*
X+1827299Y+2747011D01*
X+1712999Y+2747011D01*
X+1654811Y+2805199D01*
X+1654811Y+2909801D01*
X+1712999Y+2967989D01*
X+1817601Y+2967989D01*
X+1875789Y+2909801D01*
X+1875789Y+2795501D01*
X+1908811Y+2762479D01*
X+1908811Y+2782801D01*
X+1965790Y+2839780D01*
X+1948412Y+2839780D01*
X+1928326Y+2859866D01*
X+1928326Y+2859868D01*
X+1902491Y+2885703D01*
X+1902489Y+2885703D01*
X+1882403Y+2905789D01*
X+1874576Y+2913619D01*
X+1874576Y+2954066D01*
X+1827629Y+3001011D01*
X+1712999Y+3001011D01*
X+1654811Y+3059199D01*
X+1654811Y+3163801D01*
X+1712999Y+3221989D01*
X+1817601Y+3221989D01*
X+1875789Y+3163801D01*
X+1875789Y+3049835D01*
X+1908811Y+3016813D01*
X+1908811Y+3036801D01*
X+1966999Y+3094989D01*
X+2071601Y+3094989D01*
X+2109701Y+3056889D01*
X+2109703Y+3056889D01*
X+2129789Y+3036803D01*
X+2129789Y+2922501D01*
X+2142902Y+2909388D01*
X+2403698Y+2909388D01*
X+2457536Y+2963226D01*
X+2457536Y+3061764D01*
X+2597064Y+3061764D01*
X+2597064Y+2907236D01*
X+2498526Y+2907236D01*
X+2448790Y+2857500D01*
X+2498526Y+2807764D01*
X+2597064Y+2807764D01*
X+2597064Y+2683654D01*
X+2617536Y+2704126D01*
X+2617536Y+2807764D01*
X+2647536Y+2807764D01*
X+2647536Y+2907236D01*
X+2617536Y+2907236D01*
X+2617536Y+3061764D01*
X+2647536Y+3061764D01*
X+2647536Y+3072336D01*
X+2617536Y+3072336D01*
X+2617536Y+3163130D01*
X+2543230Y+3237436D01*
X+2457536Y+3237436D01*
X+2457536Y+3391964D01*
X+2597064Y+3391964D01*
X+2597064Y+3296070D01*
X+2617536Y+3275598D01*
X+2617536Y+3391964D01*
X+2757064Y+3391964D01*
X+2757064Y+3306126D01*
G37*
G36*
X+1827645Y+2703945D02*
X+1875789Y+2655801D01*
X+1875789Y+2551199D01*
X+1817601Y+2493011D01*
X+1712999Y+2493011D01*
X+1654811Y+2551199D01*
X+1654811Y+2655801D01*
X+1712999Y+2713989D01*
X+1817601Y+2713989D01*
X+1827645Y+2703945D01*
G37*
G36*
X+702645Y+3429945D02*
X+750789Y+3381801D01*
X+750789Y+3248863D01*
X+1654811Y+2344841D01*
X+1654811Y+2401801D01*
X+1712999Y+2459989D01*
X+1817601Y+2459989D01*
X+1875789Y+2401801D01*
X+1875789Y+2297199D01*
X+1817601Y+2239011D01*
X+1760641Y+2239011D01*
X+1984163Y+2015489D01*
X+2457536Y+2015489D01*
X+2457536Y+2058464D01*
X+2597064Y+2058464D01*
X+2597064Y+1903936D01*
X+2487954Y+1903936D01*
X+2498526Y+1893364D01*
X+2597064Y+1893364D01*
X+2597064Y+1738836D01*
X+2457536Y+1738836D01*
X+2457536Y+1837374D01*
X+2382214Y+1912696D01*
X+1941534Y+1912696D01*
X+1523154Y+2331076D01*
X+1015366Y+2331076D01*
X+750789Y+2066499D01*
X+750789Y+1952199D01*
X+692601Y+1894011D01*
X+587999Y+1894011D01*
X+529811Y+1952199D01*
X+529811Y+2056801D01*
X+587999Y+2114989D01*
X+702299Y+2114989D01*
X+986964Y+2399654D01*
X+1503018Y+2399654D01*
X+702299Y+3200373D01*
X+702297Y+3200373D01*
X+683659Y+3219011D01*
X+587999Y+3219011D01*
X+529811Y+3277199D01*
X+529811Y+3381801D01*
X+587999Y+3439989D01*
X+692601Y+3439989D01*
X+702645Y+3429945D01*
G37*
G36*
X+1962275Y+2198879D02*
X+1962275Y+2246121D01*
X+1995679Y+2279525D01*
X+2042921Y+2279525D01*
X+2076325Y+2246121D01*
X+2076325Y+2198879D01*
X+2042921Y+2165475D01*
X+1995679Y+2165475D01*
X+1962275Y+2198879D01*
G37*
G36*
X+583275Y+3051879D02*
X+583275Y+3099121D01*
X+616679Y+3132525D01*
X+663921Y+3132525D01*
X+697325Y+3099121D01*
X+697325Y+3051879D01*
X+663921Y+3018475D01*
X+616679Y+3018475D01*
X+583275Y+3051879D01*
G37*
G36*
X+583275Y+2234879D02*
X+583275Y+2282121D01*
X+616679Y+2315525D01*
X+663921Y+2315525D01*
X+697325Y+2282121D01*
X+697325Y+2234879D01*
X+663921Y+2201475D01*
X+616679Y+2201475D01*
X+583275Y+2234879D01*
G37*
G36*
X+1473004Y+3350475D02*
X+1397596Y+3350475D01*
X+1344275Y+3403796D01*
X+1344275Y+3479204D01*
X+1397596Y+3532525D01*
X+1473004Y+3532525D01*
X+1526325Y+3479204D01*
X+1526325Y+3403796D01*
X+1473004Y+3350475D01*
G37*
G36*
X+1473004Y+1801475D02*
X+1397596Y+1801475D01*
X+1344275Y+1854796D01*
X+1344275Y+1930204D01*
X+1397596Y+1983525D01*
X+1473004Y+1983525D01*
X+1526325Y+1930204D01*
X+1526325Y+1854796D01*
X+1473004Y+1801475D01*
G37*
G36*
X+1174109Y+3132736D02*
X+1086491Y+3132736D01*
X+1024536Y+3194691D01*
X+1024536Y+3282309D01*
X+1086491Y+3344264D01*
X+1174109Y+3344264D01*
X+1236064Y+3282309D01*
X+1236064Y+3194691D01*
X+1174109Y+3132736D01*
G37*
G36*
X+1174109Y+1989736D02*
X+1086491Y+1989736D01*
X+1024536Y+2051691D01*
X+1024536Y+2139309D01*
X+1086491Y+2201264D01*
X+1174109Y+2201264D01*
X+1236064Y+2139309D01*
X+1236064Y+2051691D01*
X+1174109Y+1989736D01*
G37*
G36*
X+3213975Y+2955155D02*
X+3213975Y+2963045D01*
X+3219555Y+2968625D01*
X+3227445Y+2968625D01*
X+3233025Y+2963045D01*
X+3233025Y+2955155D01*
X+3227445Y+2949575D01*
X+3219555Y+2949575D01*
X+3213975Y+2955155D01*
G37*
G36*
X+3133101Y+2465289D02*
X+3133103Y+2465289D01*
X+3153189Y+2445203D01*
X+3153189Y+2407689D01*
X+3185403Y+2407689D01*
X+3205489Y+2387603D01*
X+3205489Y+2387601D01*
X+3218189Y+2374901D01*
X+3218189Y+2321099D01*
X+3205489Y+2308399D01*
X+3205489Y+2308397D01*
X+3200764Y+2303672D01*
X+3200764Y+2179336D01*
X+3040770Y+2179336D01*
X+2928923Y+2067489D01*
X+3098855Y+2067489D01*
X+3205930Y+2174564D01*
X+3248736Y+2174564D01*
X+3248736Y+2179336D01*
X+3246236Y+2179336D01*
X+3246236Y+2338864D01*
X+3395764Y+2338864D01*
X+3395764Y+2179336D01*
X+3393264Y+2179336D01*
X+3393264Y+2135130D01*
X+3351190Y+2093056D01*
X+3236890Y+2093056D01*
X+3167789Y+2023955D01*
X+3167789Y+1942799D01*
X+3159964Y+1934974D01*
X+3159964Y+1925336D01*
X+3150326Y+1925336D01*
X+3147701Y+1922711D01*
X+2852599Y+1922711D01*
X+2849974Y+1925336D01*
X+2840336Y+1925336D01*
X+2840336Y+1934974D01*
X+2832511Y+1942799D01*
X+2832511Y+2088901D01*
X+2986236Y+2242626D01*
X+2986236Y+2338864D01*
X+3059211Y+2338864D01*
X+3059211Y+2365997D01*
X+3046511Y+2378697D01*
X+3046511Y+2378699D01*
X+3033811Y+2391399D01*
X+3033811Y+2445201D01*
X+3066599Y+2477989D01*
X+3120401Y+2477989D01*
X+3133101Y+2465289D01*
G37*
G36*
X+3213975Y+2255155D02*
X+3213975Y+2263045D01*
X+3219555Y+2268625D01*
X+3227445Y+2268625D01*
X+3233025Y+2263045D01*
X+3233025Y+2255155D01*
X+3227445Y+2249575D01*
X+3219555Y+2249575D01*
X+3213975Y+2255155D01*
G37*
G36*
X+3408975Y+2255155D02*
X+3408975Y+2263045D01*
X+3414555Y+2268625D01*
X+3422445Y+2268625D01*
X+3428025Y+2263045D01*
X+3428025Y+2255155D01*
X+3422445Y+2249575D01*
X+3414555Y+2249575D01*
X+3408975Y+2255155D01*
G37*
G36*
X+3473975Y+2255155D02*
X+3473975Y+2263045D01*
X+3479555Y+2268625D01*
X+3487445Y+2268625D01*
X+3493025Y+2263045D01*
X+3493025Y+2255155D01*
X+3487445Y+2249575D01*
X+3479555Y+2249575D01*
X+3473975Y+2255155D01*
G37*
G36*
X+4138017Y+2455428D02*
X+4214569Y+2378876D01*
X+4214569Y+1731351D01*
X+4194483Y+1711265D01*
X+4194481Y+1711265D01*
X+4073295Y+1590079D01*
X+2853779Y+1590079D01*
X+2833693Y+1610165D01*
X+2833693Y+1610167D01*
X+2705024Y+1738836D01*
X+2617536Y+1738836D01*
X+2617536Y+1893364D01*
X+2722747Y+1893364D01*
X+2722747Y+1897263D01*
X+2716074Y+1903936D01*
X+2617536Y+1903936D01*
X+2617536Y+2058464D01*
X+2757064Y+2058464D01*
X+2757064Y+1959926D01*
X+2791325Y+1925665D01*
X+2791325Y+1797931D01*
X+2896367Y+1692889D01*
X+4030750Y+1692889D01*
X+4111768Y+1773907D01*
X+4111768Y+2336317D01*
X+4085440Y+2362645D01*
X+3862561Y+2362645D01*
X+3842789Y+2342873D01*
X+3842789Y+2338864D01*
X+3915764Y+2338864D01*
X+3915764Y+2179336D01*
X+3718264Y+2179336D01*
X+3718264Y+2171028D01*
X+3744962Y+2144330D01*
X+3916804Y+2144330D01*
X+3996270Y+2064864D01*
X+4087064Y+2064864D01*
X+4087064Y+1925336D01*
X+3932536Y+1925336D01*
X+3932536Y+2016130D01*
X+3921964Y+2026702D01*
X+3921964Y+1925336D01*
X+3767436Y+1925336D01*
X+3767436Y+1960811D01*
X+3755314Y+1960811D01*
X+3755314Y+1920336D01*
X+3582789Y+1920336D01*
X+3582789Y+1914699D01*
X+3535314Y+1867224D01*
X+3535314Y+1750336D01*
X+3345786Y+1750336D01*
X+3345786Y+1800811D01*
X+3327314Y+1800811D01*
X+3327314Y+1765336D01*
X+3172786Y+1765336D01*
X+3172786Y+1904864D01*
X+3327314Y+1904864D01*
X+3327314Y+1869389D01*
X+3345786Y+1869389D01*
X+3345786Y+1919864D01*
X+3490974Y+1919864D01*
X+3514211Y+1943101D01*
X+3514211Y+2179336D01*
X+3506236Y+2179336D01*
X+3506236Y+2338864D01*
X+3709211Y+2338864D01*
X+3709211Y+2354638D01*
X+3820045Y+2465472D01*
X+4127973Y+2465472D01*
X+4138017Y+2455428D01*
G37*
G36*
X+2552065Y+2156558D02*
X+2552065Y+2136042D01*
X+2537558Y+2121535D01*
X+2517042Y+2121535D01*
X+2502535Y+2136042D01*
X+2502535Y+2156558D01*
X+2517042Y+2171065D01*
X+2537558Y+2171065D01*
X+2552065Y+2156558D01*
G37*
G36*
X+2552065Y+3159858D02*
X+2552065Y+3139342D01*
X+2537558Y+3124835D01*
X+2517042Y+3124835D01*
X+2502535Y+3139342D01*
X+2502535Y+3159858D01*
X+2517042Y+3174365D01*
X+2537558Y+3174365D01*
X+2552065Y+3159858D01*
G37*
G36*
X+3685315Y+1845358D02*
X+3685315Y+1824842D01*
X+3670808Y+1810335D01*
X+3650292Y+1810335D01*
X+3635785Y+1824842D01*
X+3635785Y+1845358D01*
X+3650292Y+1859865D01*
X+3670808Y+1859865D01*
X+3685315Y+1845358D01*
G37*
G36*
X+3465315Y+2015358D02*
X+3465315Y+1994842D01*
X+3450808Y+1980335D01*
X+3430292Y+1980335D01*
X+3415785Y+1994842D01*
X+3415785Y+2015358D01*
X+3430292Y+2029865D01*
X+3450808Y+2029865D01*
X+3465315Y+2015358D01*
G37*
G36*
X+3738265Y+3159858D02*
X+3738265Y+3139342D01*
X+3723758Y+3124835D01*
X+3703242Y+3124835D01*
X+3688735Y+3139342D01*
X+3688735Y+3159858D01*
X+3703242Y+3174365D01*
X+3723758Y+3174365D01*
X+3738265Y+3159858D01*
G37*
G36*
X+3213265Y+3159858D02*
X+3213265Y+3139342D01*
X+3198758Y+3124835D01*
X+3178242Y+3124835D01*
X+3163735Y+3139342D01*
X+3163735Y+3159858D01*
X+3178242Y+3174365D01*
X+3198758Y+3174365D01*
X+3213265Y+3159858D01*
G37*
G36*
X+3274815Y+2005358D02*
X+3274815Y+1984842D01*
X+3260308Y+1970335D01*
X+3239792Y+1970335D01*
X+3225285Y+1984842D01*
X+3225285Y+2005358D01*
X+3239792Y+2019865D01*
X+3260308Y+2019865D01*
X+3274815Y+2005358D01*
G37*
G36*
X+3848645Y+1825575D02*
X+3840755Y+1825575D01*
X+3835175Y+1831155D01*
X+3835175Y+1839045D01*
X+3840755Y+1844625D01*
X+3848645Y+1844625D01*
X+3854225Y+1839045D01*
X+3854225Y+1831155D01*
X+3848645Y+1825575D01*
G37*
G36*
X+4034565Y+1845358D02*
X+4034565Y+1824842D01*
X+4020058Y+1810335D01*
X+3999542Y+1810335D01*
X+3985035Y+1824842D01*
X+3985035Y+1845358D01*
X+3999542Y+1859865D01*
X+4020058Y+1859865D01*
X+4034565Y+1845358D01*
G37*
G36*
X+2942365Y+1845358D02*
X+2942365Y+1824842D01*
X+2927858Y+1810335D01*
X+2907342Y+1810335D01*
X+2892835Y+1824842D01*
X+2892835Y+1845358D01*
X+2907342Y+1859865D01*
X+2927858Y+1859865D01*
X+2942365Y+1845358D01*
G37*
G36*
X+3107465Y+1845358D02*
X+3107465Y+1824842D01*
X+3092958Y+1810335D01*
X+3072442Y+1810335D01*
X+3057935Y+1824842D01*
X+3057935Y+1845358D01*
X+3072442Y+1859865D01*
X+3092958Y+1859865D01*
X+3107465Y+1845358D01*
G37*
G36*
X+2824865Y+1026258D02*
X+2824865Y+1005742D01*
X+2810358Y+991235D01*
X+2789842Y+991235D01*
X+2775335Y+1005742D01*
X+2775335Y+1026258D01*
X+2789842Y+1040765D01*
X+2810358Y+1040765D01*
X+2824865Y+1026258D01*
G37*
G36*
X+2946314Y+1409886D02*
X+2929389Y+1409886D01*
X+2929389Y+1350764D01*
X+2952864Y+1350764D01*
X+2952864Y+1201236D01*
X+2837336Y+1201236D01*
X+2837336Y+1350764D01*
X+2860811Y+1350764D01*
X+2860811Y+1409886D01*
X+2806786Y+1409886D01*
X+2806786Y+1564414D01*
X+2946314Y+1564414D01*
X+2946314Y+1409886D01*
G37*
G36*
X+3441065Y+1026258D02*
X+3441065Y+1005742D01*
X+3426558Y+991235D01*
X+3406042Y+991235D01*
X+3391535Y+1005742D01*
X+3391535Y+1026258D01*
X+3406042Y+1040765D01*
X+3426558Y+1040765D01*
X+3441065Y+1026258D01*
G37*
G36*
X+3380104Y+1311909D02*
X+3486381Y+1311909D01*
X+3552526Y+1245764D01*
X+3665014Y+1245764D01*
X+3665014Y+1106236D01*
X+3510486Y+1106236D01*
X+3510486Y+1190824D01*
X+3457979Y+1243331D01*
X+3380104Y+1243331D01*
X+3380104Y+1203326D01*
X+3259456Y+1203326D01*
X+3259456Y+1351914D01*
X+3380104Y+1351914D01*
X+3380104Y+1311909D01*
G37*
G36*
X+2564765Y+1186258D02*
X+2564765Y+1165742D01*
X+2550258Y+1151235D01*
X+2529742Y+1151235D01*
X+2515235Y+1165742D01*
X+2515235Y+1186258D01*
X+2529742Y+1200765D01*
X+2550258Y+1200765D01*
X+2564765Y+1186258D01*
G37*
G36*
X+3665014Y+946236D02*
X+3510486Y+946236D01*
X+3510486Y+1085764D01*
X+3665014Y+1085764D01*
X+3665014Y+946236D01*
G37*
G36*
X+3085465Y+1497408D02*
X+3085465Y+1476892D01*
X+3070958Y+1462385D01*
X+3050442Y+1462385D01*
X+3035935Y+1476892D01*
X+3035935Y+1497408D01*
X+3050442Y+1511915D01*
X+3070958Y+1511915D01*
X+3085465Y+1497408D01*
G37*
G36*
X+2564765Y+1337408D02*
X+2564765Y+1316892D01*
X+2550258Y+1302385D01*
X+2529742Y+1302385D01*
X+2515235Y+1316892D01*
X+2515235Y+1337408D01*
X+2529742Y+1351915D01*
X+2550258Y+1351915D01*
X+2564765Y+1337408D01*
G37*
G36*
X+2399665Y+1337408D02*
X+2399665Y+1316892D01*
X+2385158Y+1302385D01*
X+2364642Y+1302385D01*
X+2350135Y+1316892D01*
X+2350135Y+1337408D01*
X+2364642Y+1351915D01*
X+2385158Y+1351915D01*
X+2399665Y+1337408D01*
G37*
G36*
X+2741315Y+1497408D02*
X+2741315Y+1476892D01*
X+2726808Y+1462385D01*
X+2706292Y+1462385D01*
X+2691785Y+1476892D01*
X+2691785Y+1497408D01*
X+2706292Y+1511915D01*
X+2726808Y+1511915D01*
X+2741315Y+1497408D01*
G37*
G36*
X+2399665Y+1186258D02*
X+2399665Y+1165742D01*
X+2385158Y+1151235D01*
X+2364642Y+1151235D01*
X+2350135Y+1165742D01*
X+2350135Y+1186258D01*
X+2364642Y+1200765D01*
X+2385158Y+1200765D01*
X+2399665Y+1186258D01*
G37*
G36*
X+737235Y+243742D02*
X+737235Y+264258D01*
X+751742Y+278765D01*
X+772258Y+278765D01*
X+786765Y+264258D01*
X+786765Y+243742D01*
X+772258Y+229235D01*
X+751742Y+229235D01*
X+737235Y+243742D01*
G37*
G36*
X+483235Y+497742D02*
X+483235Y+518258D01*
X+497742Y+532765D01*
X+518258Y+532765D01*
X+532765Y+518258D01*
X+532765Y+497742D01*
X+518258Y+483235D01*
X+497742Y+483235D01*
X+483235Y+497742D01*
G37*
G36*
X+229235Y+751742D02*
X+229235Y+772258D01*
X+243742Y+786765D01*
X+264258Y+786765D01*
X+278765Y+772258D01*
X+278765Y+751742D01*
X+264258Y+737235D01*
X+243742Y+737235D01*
X+229235Y+751742D01*
G37*
G36*
X+737235Y+751742D02*
X+737235Y+772258D01*
X+751742Y+786765D01*
X+772258Y+786765D01*
X+786765Y+772258D01*
X+786765Y+751742D01*
X+772258Y+737235D01*
X+751742Y+737235D01*
X+737235Y+751742D01*
G37*
G36*
X+991235Y+497742D02*
X+991235Y+518258D01*
X+1005742Y+532765D01*
X+1026258Y+532765D01*
X+1040765Y+518258D01*
X+1040765Y+497742D01*
X+1026258Y+483235D01*
X+1005742Y+483235D01*
X+991235Y+497742D01*
G37*
G36*
X+1245235Y+751742D02*
X+1245235Y+772258D01*
X+1259742Y+786765D01*
X+1280258Y+786765D01*
X+1294765Y+772258D01*
X+1294765Y+751742D01*
X+1280258Y+737235D01*
X+1259742Y+737235D01*
X+1245235Y+751742D01*
G37*
G36*
X+1499235Y+497742D02*
X+1499235Y+518258D01*
X+1513742Y+532765D01*
X+1534258Y+532765D01*
X+1548765Y+518258D01*
X+1548765Y+497742D01*
X+1534258Y+483235D01*
X+1513742Y+483235D01*
X+1499235Y+497742D01*
G37*
G36*
X+1753235Y+751742D02*
X+1753235Y+772258D01*
X+1767742Y+786765D01*
X+1788258Y+786765D01*
X+1802765Y+772258D01*
X+1802765Y+751742D01*
X+1788258Y+737235D01*
X+1767742Y+737235D01*
X+1753235Y+751742D01*
G37*
G36*
X+2007235Y+497742D02*
X+2007235Y+518258D01*
X+2021742Y+532765D01*
X+2042258Y+532765D01*
X+2056765Y+518258D01*
X+2056765Y+497742D01*
X+2042258Y+483235D01*
X+2021742Y+483235D01*
X+2007235Y+497742D01*
G37*
G36*
X+2261235Y+751742D02*
X+2261235Y+772258D01*
X+2275742Y+786765D01*
X+2296258Y+786765D01*
X+2310765Y+772258D01*
X+2310765Y+751742D01*
X+2296258Y+737235D01*
X+2275742Y+737235D01*
X+2261235Y+751742D01*
G37*
G36*
X+2007235Y+1005742D02*
X+2007235Y+1026258D01*
X+2021742Y+1040765D01*
X+2042258Y+1040765D01*
X+2056765Y+1026258D01*
X+2056765Y+1005742D01*
X+2042258Y+991235D01*
X+2021742Y+991235D01*
X+2007235Y+1005742D01*
G37*
G36*
X+1499235Y+1005742D02*
X+1499235Y+1026258D01*
X+1513742Y+1040765D01*
X+1534258Y+1040765D01*
X+1548765Y+1026258D01*
X+1548765Y+1005742D01*
X+1534258Y+991235D01*
X+1513742Y+991235D01*
X+1499235Y+1005742D01*
G37*
G36*
X+991235Y+1005742D02*
X+991235Y+1026258D01*
X+1005742Y+1040765D01*
X+1026258Y+1040765D01*
X+1040765Y+1026258D01*
X+1040765Y+1005742D01*
X+1026258Y+991235D01*
X+1005742Y+991235D01*
X+991235Y+1005742D01*
G37*
G36*
X+483235Y+1005742D02*
X+483235Y+1026258D01*
X+497742Y+1040765D01*
X+518258Y+1040765D01*
X+532765Y+1026258D01*
X+532765Y+1005742D01*
X+518258Y+991235D01*
X+497742Y+991235D01*
X+483235Y+1005742D01*
G37*
G36*
X+229235Y+1259742D02*
X+229235Y+1280258D01*
X+243742Y+1294765D01*
X+264258Y+1294765D01*
X+278765Y+1280258D01*
X+278765Y+1259742D01*
X+264258Y+1245235D01*
X+243742Y+1245235D01*
X+229235Y+1259742D01*
G37*
G36*
X+737235Y+1259742D02*
X+737235Y+1280258D01*
X+751742Y+1294765D01*
X+772258Y+1294765D01*
X+786765Y+1280258D01*
X+786765Y+1259742D01*
X+772258Y+1245235D01*
X+751742Y+1245235D01*
X+737235Y+1259742D01*
G37*
G36*
X+1245235Y+1259742D02*
X+1245235Y+1280258D01*
X+1259742Y+1294765D01*
X+1280258Y+1294765D01*
X+1294765Y+1280258D01*
X+1294765Y+1259742D01*
X+1280258Y+1245235D01*
X+1259742Y+1245235D01*
X+1245235Y+1259742D01*
G37*
G36*
X+1753235Y+1259742D02*
X+1753235Y+1280258D01*
X+1767742Y+1294765D01*
X+1788258Y+1294765D01*
X+1802765Y+1280258D01*
X+1802765Y+1259742D01*
X+1788258Y+1245235D01*
X+1767742Y+1245235D01*
X+1753235Y+1259742D01*
G37*
G36*
X+2007235Y+1513742D02*
X+2007235Y+1534258D01*
X+2021742Y+1548765D01*
X+2042258Y+1548765D01*
X+2056765Y+1534258D01*
X+2056765Y+1513742D01*
X+2042258Y+1499235D01*
X+2021742Y+1499235D01*
X+2007235Y+1513742D01*
G37*
G36*
X+1499235Y+1513742D02*
X+1499235Y+1534258D01*
X+1513742Y+1548765D01*
X+1534258Y+1548765D01*
X+1548765Y+1534258D01*
X+1548765Y+1513742D01*
X+1534258Y+1499235D01*
X+1513742Y+1499235D01*
X+1499235Y+1513742D01*
G37*
G36*
X+991235Y+1513742D02*
X+991235Y+1534258D01*
X+1005742Y+1548765D01*
X+1026258Y+1548765D01*
X+1040765Y+1534258D01*
X+1040765Y+1513742D01*
X+1026258Y+1499235D01*
X+1005742Y+1499235D01*
X+991235Y+1513742D01*
G37*
G36*
X+483235Y+1513742D02*
X+483235Y+1534258D01*
X+497742Y+1548765D01*
X+518258Y+1548765D01*
X+532765Y+1534258D01*
X+532765Y+1513742D01*
X+518258Y+1499235D01*
X+497742Y+1499235D01*
X+483235Y+1513742D01*
G37*
G36*
X+229235Y+1767742D02*
X+229235Y+1788258D01*
X+243742Y+1802765D01*
X+264258Y+1802765D01*
X+278765Y+1788258D01*
X+278765Y+1767742D01*
X+264258Y+1753235D01*
X+243742Y+1753235D01*
X+229235Y+1767742D01*
G37*
G36*
X+737235Y+1767742D02*
X+737235Y+1788258D01*
X+751742Y+1802765D01*
X+772258Y+1802765D01*
X+786765Y+1788258D01*
X+786765Y+1767742D01*
X+772258Y+1753235D01*
X+751742Y+1753235D01*
X+737235Y+1767742D01*
G37*
G36*
X+1753235Y+1767742D02*
X+1753235Y+1788258D01*
X+1767742Y+1802765D01*
X+1788258Y+1802765D01*
X+1802765Y+1788258D01*
X+1802765Y+1767742D01*
X+1788258Y+1753235D01*
X+1767742Y+1753235D01*
X+1753235Y+1767742D01*
G37*
G36*
X+2261235Y+1767742D02*
X+2261235Y+1788258D01*
X+2275742Y+1802765D01*
X+2296258Y+1802765D01*
X+2310765Y+1788258D01*
X+2310765Y+1767742D01*
X+2296258Y+1753235D01*
X+2275742Y+1753235D01*
X+2261235Y+1767742D01*
G37*
G36*
X+229235Y+2275742D02*
X+229235Y+2296258D01*
X+243742Y+2310765D01*
X+264258Y+2310765D01*
X+278765Y+2296258D01*
X+278765Y+2275742D01*
X+264258Y+2261235D01*
X+243742Y+2261235D01*
X+229235Y+2275742D01*
G37*
G36*
X+483235Y+2529742D02*
X+483235Y+2550258D01*
X+497742Y+2564765D01*
X+518258Y+2564765D01*
X+532765Y+2550258D01*
X+532765Y+2529742D01*
X+518258Y+2515235D01*
X+497742Y+2515235D01*
X+483235Y+2529742D01*
G37*
G36*
X+991235Y+2529742D02*
X+991235Y+2550258D01*
X+1005742Y+2564765D01*
X+1026258Y+2564765D01*
X+1040765Y+2550258D01*
X+1040765Y+2529742D01*
X+1026258Y+2515235D01*
X+1005742Y+2515235D01*
X+991235Y+2529742D01*
G37*
G36*
X+737235Y+2783742D02*
X+737235Y+2804258D01*
X+751742Y+2818765D01*
X+772258Y+2818765D01*
X+786765Y+2804258D01*
X+786765Y+2783742D01*
X+772258Y+2769235D01*
X+751742Y+2769235D01*
X+737235Y+2783742D01*
G37*
G36*
X+229235Y+2783742D02*
X+229235Y+2804258D01*
X+243742Y+2818765D01*
X+264258Y+2818765D01*
X+278765Y+2804258D01*
X+278765Y+2783742D01*
X+264258Y+2769235D01*
X+243742Y+2769235D01*
X+229235Y+2783742D01*
G37*
G36*
X+229235Y+3291742D02*
X+229235Y+3312258D01*
X+243742Y+3326765D01*
X+264258Y+3326765D01*
X+278765Y+3312258D01*
X+278765Y+3291742D01*
X+264258Y+3277235D01*
X+243742Y+3277235D01*
X+229235Y+3291742D01*
G37*
G36*
X+229235Y+3799742D02*
X+229235Y+3820258D01*
X+243742Y+3834765D01*
X+264258Y+3834765D01*
X+278765Y+3820258D01*
X+278765Y+3799742D01*
X+264258Y+3785235D01*
X+243742Y+3785235D01*
X+229235Y+3799742D01*
G37*
G36*
X+483235Y+3545742D02*
X+483235Y+3566258D01*
X+497742Y+3580765D01*
X+518258Y+3580765D01*
X+532765Y+3566258D01*
X+532765Y+3545742D01*
X+518258Y+3531235D01*
X+497742Y+3531235D01*
X+483235Y+3545742D01*
G37*
G36*
X+991235Y+3545742D02*
X+991235Y+3566258D01*
X+1005742Y+3580765D01*
X+1026258Y+3580765D01*
X+1040765Y+3566258D01*
X+1040765Y+3545742D01*
X+1026258Y+3531235D01*
X+1005742Y+3531235D01*
X+991235Y+3545742D01*
G37*
G36*
X+2007235Y+3545742D02*
X+2007235Y+3566258D01*
X+2021742Y+3580765D01*
X+2042258Y+3580765D01*
X+2056765Y+3566258D01*
X+2056765Y+3545742D01*
X+2042258Y+3531235D01*
X+2021742Y+3531235D01*
X+2007235Y+3545742D01*
G37*
G36*
X+2515235Y+3545742D02*
X+2515235Y+3566258D01*
X+2529742Y+3580765D01*
X+2550258Y+3580765D01*
X+2564765Y+3566258D01*
X+2564765Y+3545742D01*
X+2550258Y+3531235D01*
X+2529742Y+3531235D01*
X+2515235Y+3545742D01*
G37*
G36*
X+3023235Y+3545742D02*
X+3023235Y+3566258D01*
X+3037742Y+3580765D01*
X+3058258Y+3580765D01*
X+3072765Y+3566258D01*
X+3072765Y+3545742D01*
X+3058258Y+3531235D01*
X+3037742Y+3531235D01*
X+3023235Y+3545742D01*
G37*
G36*
X+2261235Y+3037742D02*
X+2261235Y+3058258D01*
X+2275742Y+3072765D01*
X+2296258Y+3072765D01*
X+2310765Y+3058258D01*
X+2310765Y+3037742D01*
X+2296258Y+3023235D01*
X+2275742Y+3023235D01*
X+2261235Y+3037742D01*
G37*
G36*
X+1499235Y+2529742D02*
X+1499235Y+2550258D01*
X+1513742Y+2564765D01*
X+1534258Y+2564765D01*
X+1548765Y+2550258D01*
X+1548765Y+2529742D01*
X+1534258Y+2515235D01*
X+1513742Y+2515235D01*
X+1499235Y+2529742D01*
G37*
G36*
X+1245235Y+2783742D02*
X+1245235Y+2804258D01*
X+1259742Y+2818765D01*
X+1280258Y+2818765D01*
X+1294765Y+2804258D01*
X+1294765Y+2783742D01*
X+1280258Y+2769235D01*
X+1259742Y+2769235D01*
X+1245235Y+2783742D01*
G37*
G36*
X+1499235Y+3037742D02*
X+1499235Y+3058258D01*
X+1513742Y+3072765D01*
X+1534258Y+3072765D01*
X+1548765Y+3058258D01*
X+1548765Y+3037742D01*
X+1534258Y+3023235D01*
X+1513742Y+3023235D01*
X+1499235Y+3037742D01*
G37*
G36*
X+229235Y+4307742D02*
X+229235Y+4328258D01*
X+243742Y+4342765D01*
X+264258Y+4342765D01*
X+278765Y+4328258D01*
X+278765Y+4307742D01*
X+264258Y+4293235D01*
X+243742Y+4293235D01*
X+229235Y+4307742D01*
G37*
G36*
X+229235Y+4815742D02*
X+229235Y+4836258D01*
X+243742Y+4850765D01*
X+264258Y+4850765D01*
X+278765Y+4836258D01*
X+278765Y+4815742D01*
X+264258Y+4801235D01*
X+243742Y+4801235D01*
X+229235Y+4815742D01*
G37*
G36*
X+737235Y+4815742D02*
X+737235Y+4836258D01*
X+751742Y+4850765D01*
X+772258Y+4850765D01*
X+786765Y+4836258D01*
X+786765Y+4815742D01*
X+772258Y+4801235D01*
X+751742Y+4801235D01*
X+737235Y+4815742D01*
G37*
G36*
X+483235Y+4561742D02*
X+483235Y+4582258D01*
X+497742Y+4596765D01*
X+518258Y+4596765D01*
X+532765Y+4582258D01*
X+532765Y+4561742D01*
X+518258Y+4547235D01*
X+497742Y+4547235D01*
X+483235Y+4561742D01*
G37*
G36*
X+737235Y+4307742D02*
X+737235Y+4328258D01*
X+751742Y+4342765D01*
X+772258Y+4342765D01*
X+786765Y+4328258D01*
X+786765Y+4307742D01*
X+772258Y+4293235D01*
X+751742Y+4293235D01*
X+737235Y+4307742D01*
G37*
G36*
X+483235Y+4053742D02*
X+483235Y+4074258D01*
X+497742Y+4088765D01*
X+518258Y+4088765D01*
X+532765Y+4074258D01*
X+532765Y+4053742D01*
X+518258Y+4039235D01*
X+497742Y+4039235D01*
X+483235Y+4053742D01*
G37*
G36*
X+737235Y+3799742D02*
X+737235Y+3820258D01*
X+751742Y+3834765D01*
X+772258Y+3834765D01*
X+786765Y+3820258D01*
X+786765Y+3799742D01*
X+772258Y+3785235D01*
X+751742Y+3785235D01*
X+737235Y+3799742D01*
G37*
G36*
X+991235Y+4053742D02*
X+991235Y+4074258D01*
X+1005742Y+4088765D01*
X+1026258Y+4088765D01*
X+1040765Y+4074258D01*
X+1040765Y+4053742D01*
X+1026258Y+4039235D01*
X+1005742Y+4039235D01*
X+991235Y+4053742D01*
G37*
G36*
X+1245235Y+3799742D02*
X+1245235Y+3820258D01*
X+1259742Y+3834765D01*
X+1280258Y+3834765D01*
X+1294765Y+3820258D01*
X+1294765Y+3799742D01*
X+1280258Y+3785235D01*
X+1259742Y+3785235D01*
X+1245235Y+3799742D01*
G37*
G36*
X+1499235Y+4053742D02*
X+1499235Y+4074258D01*
X+1513742Y+4088765D01*
X+1534258Y+4088765D01*
X+1548765Y+4074258D01*
X+1548765Y+4053742D01*
X+1534258Y+4039235D01*
X+1513742Y+4039235D01*
X+1499235Y+4053742D01*
G37*
G36*
X+1753235Y+3799742D02*
X+1753235Y+3820258D01*
X+1767742Y+3834765D01*
X+1788258Y+3834765D01*
X+1802765Y+3820258D01*
X+1802765Y+3799742D01*
X+1788258Y+3785235D01*
X+1767742Y+3785235D01*
X+1753235Y+3799742D01*
G37*
G36*
X+2007235Y+4053742D02*
X+2007235Y+4074258D01*
X+2021742Y+4088765D01*
X+2042258Y+4088765D01*
X+2056765Y+4074258D01*
X+2056765Y+4053742D01*
X+2042258Y+4039235D01*
X+2021742Y+4039235D01*
X+2007235Y+4053742D01*
G37*
G36*
X+2261235Y+3799742D02*
X+2261235Y+3820258D01*
X+2275742Y+3834765D01*
X+2296258Y+3834765D01*
X+2310765Y+3820258D01*
X+2310765Y+3799742D01*
X+2296258Y+3785235D01*
X+2275742Y+3785235D01*
X+2261235Y+3799742D01*
G37*
G36*
X+2515235Y+4053742D02*
X+2515235Y+4074258D01*
X+2529742Y+4088765D01*
X+2550258Y+4088765D01*
X+2564765Y+4074258D01*
X+2564765Y+4053742D01*
X+2550258Y+4039235D01*
X+2529742Y+4039235D01*
X+2515235Y+4053742D01*
G37*
G36*
X+2769235Y+3799742D02*
X+2769235Y+3820258D01*
X+2783742Y+3834765D01*
X+2804258Y+3834765D01*
X+2818765Y+3820258D01*
X+2818765Y+3799742D01*
X+2804258Y+3785235D01*
X+2783742Y+3785235D01*
X+2769235Y+3799742D01*
G37*
G36*
X+2261235Y+4307742D02*
X+2261235Y+4328258D01*
X+2275742Y+4342765D01*
X+2296258Y+4342765D01*
X+2310765Y+4328258D01*
X+2310765Y+4307742D01*
X+2296258Y+4293235D01*
X+2275742Y+4293235D01*
X+2261235Y+4307742D01*
G37*
G36*
X+1753235Y+4307742D02*
X+1753235Y+4328258D01*
X+1767742Y+4342765D01*
X+1788258Y+4342765D01*
X+1802765Y+4328258D01*
X+1802765Y+4307742D01*
X+1788258Y+4293235D01*
X+1767742Y+4293235D01*
X+1753235Y+4307742D01*
G37*
G36*
X+1245235Y+4307742D02*
X+1245235Y+4328258D01*
X+1259742Y+4342765D01*
X+1280258Y+4342765D01*
X+1294765Y+4328258D01*
X+1294765Y+4307742D01*
X+1280258Y+4293235D01*
X+1259742Y+4293235D01*
X+1245235Y+4307742D01*
G37*
G36*
X+991235Y+4561742D02*
X+991235Y+4582258D01*
X+1005742Y+4596765D01*
X+1026258Y+4596765D01*
X+1040765Y+4582258D01*
X+1040765Y+4561742D01*
X+1026258Y+4547235D01*
X+1005742Y+4547235D01*
X+991235Y+4561742D01*
G37*
G36*
X+1245235Y+4815742D02*
X+1245235Y+4836258D01*
X+1259742Y+4850765D01*
X+1280258Y+4850765D01*
X+1294765Y+4836258D01*
X+1294765Y+4815742D01*
X+1280258Y+4801235D01*
X+1259742Y+4801235D01*
X+1245235Y+4815742D01*
G37*
G36*
X+1753235Y+4815742D02*
X+1753235Y+4836258D01*
X+1767742Y+4850765D01*
X+1788258Y+4850765D01*
X+1802765Y+4836258D01*
X+1802765Y+4815742D01*
X+1788258Y+4801235D01*
X+1767742Y+4801235D01*
X+1753235Y+4815742D01*
G37*
G36*
X+1499235Y+4561742D02*
X+1499235Y+4582258D01*
X+1513742Y+4596765D01*
X+1534258Y+4596765D01*
X+1548765Y+4582258D01*
X+1548765Y+4561742D01*
X+1534258Y+4547235D01*
X+1513742Y+4547235D01*
X+1499235Y+4561742D01*
G37*
G36*
X+2007235Y+4561742D02*
X+2007235Y+4582258D01*
X+2021742Y+4596765D01*
X+2042258Y+4596765D01*
X+2056765Y+4582258D01*
X+2056765Y+4561742D01*
X+2042258Y+4547235D01*
X+2021742Y+4547235D01*
X+2007235Y+4561742D01*
G37*
G36*
X+2769235Y+4815742D02*
X+2769235Y+4836258D01*
X+2783742Y+4850765D01*
X+2804258Y+4850765D01*
X+2818765Y+4836258D01*
X+2818765Y+4815742D01*
X+2804258Y+4801235D01*
X+2783742Y+4801235D01*
X+2769235Y+4815742D01*
G37*
G36*
X+3023235Y+4561742D02*
X+3023235Y+4582258D01*
X+3037742Y+4596765D01*
X+3058258Y+4596765D01*
X+3072765Y+4582258D01*
X+3072765Y+4561742D01*
X+3058258Y+4547235D01*
X+3037742Y+4547235D01*
X+3023235Y+4561742D01*
G37*
G36*
X+3277235Y+4307742D02*
X+3277235Y+4328258D01*
X+3291742Y+4342765D01*
X+3312258Y+4342765D01*
X+3326765Y+4328258D01*
X+3326765Y+4307742D01*
X+3312258Y+4293235D01*
X+3291742Y+4293235D01*
X+3277235Y+4307742D01*
G37*
G36*
X+3531235Y+4053742D02*
X+3531235Y+4074258D01*
X+3545742Y+4088765D01*
X+3566258Y+4088765D01*
X+3580765Y+4074258D01*
X+3580765Y+4053742D01*
X+3566258Y+4039235D01*
X+3545742Y+4039235D01*
X+3531235Y+4053742D01*
G37*
G36*
X+3785235Y+4307742D02*
X+3785235Y+4328258D01*
X+3799742Y+4342765D01*
X+3820258Y+4342765D01*
X+3834765Y+4328258D01*
X+3834765Y+4307742D01*
X+3820258Y+4293235D01*
X+3799742Y+4293235D01*
X+3785235Y+4307742D01*
G37*
G36*
X+4039235Y+4561742D02*
X+4039235Y+4582258D01*
X+4053742Y+4596765D01*
X+4074258Y+4596765D01*
X+4088765Y+4582258D01*
X+4088765Y+4561742D01*
X+4074258Y+4547235D01*
X+4053742Y+4547235D01*
X+4039235Y+4561742D01*
G37*
G36*
X+4293235Y+4815742D02*
X+4293235Y+4836258D01*
X+4307742Y+4850765D01*
X+4328258Y+4850765D01*
X+4342765Y+4836258D01*
X+4342765Y+4815742D01*
X+4328258Y+4801235D01*
X+4307742Y+4801235D01*
X+4293235Y+4815742D01*
G37*
G36*
X+3785235Y+4815742D02*
X+3785235Y+4836258D01*
X+3799742Y+4850765D01*
X+3820258Y+4850765D01*
X+3834765Y+4836258D01*
X+3834765Y+4815742D01*
X+3820258Y+4801235D01*
X+3799742Y+4801235D01*
X+3785235Y+4815742D01*
G37*
G36*
X+3531235Y+4561742D02*
X+3531235Y+4582258D01*
X+3545742Y+4596765D01*
X+3566258Y+4596765D01*
X+3580765Y+4582258D01*
X+3580765Y+4561742D01*
X+3566258Y+4547235D01*
X+3545742Y+4547235D01*
X+3531235Y+4561742D01*
G37*
G36*
X+3277235Y+4815742D02*
X+3277235Y+4836258D01*
X+3291742Y+4850765D01*
X+3312258Y+4850765D01*
X+3326765Y+4836258D01*
X+3326765Y+4815742D01*
X+3312258Y+4801235D01*
X+3291742Y+4801235D01*
X+3277235Y+4815742D01*
G37*
G36*
X+4039235Y+3545742D02*
X+4039235Y+3566258D01*
X+4053742Y+3580765D01*
X+4074258Y+3580765D01*
X+4088765Y+3566258D01*
X+4088765Y+3545742D01*
X+4074258Y+3531235D01*
X+4053742Y+3531235D01*
X+4039235Y+3545742D01*
G37*
G36*
X+3785235Y+3799742D02*
X+3785235Y+3820258D01*
X+3799742Y+3834765D01*
X+3820258Y+3834765D01*
X+3834765Y+3820258D01*
X+3834765Y+3799742D01*
X+3820258Y+3785235D01*
X+3799742Y+3785235D01*
X+3785235Y+3799742D01*
G37*
G36*
X+4039235Y+4053742D02*
X+4039235Y+4074258D01*
X+4053742Y+4088765D01*
X+4074258Y+4088765D01*
X+4088765Y+4074258D01*
X+4088765Y+4053742D01*
X+4074258Y+4039235D01*
X+4053742Y+4039235D01*
X+4039235Y+4053742D01*
G37*
G36*
X+4293235Y+4307742D02*
X+4293235Y+4328258D01*
X+4307742Y+4342765D01*
X+4328258Y+4342765D01*
X+4342765Y+4328258D01*
X+4342765Y+4307742D01*
X+4328258Y+4293235D01*
X+4307742Y+4293235D01*
X+4293235Y+4307742D01*
G37*
G36*
X+4547235Y+4561742D02*
X+4547235Y+4582258D01*
X+4561742Y+4596765D01*
X+4582258Y+4596765D01*
X+4596765Y+4582258D01*
X+4596765Y+4561742D01*
X+4582258Y+4547235D01*
X+4561742Y+4547235D01*
X+4547235Y+4561742D01*
G37*
G36*
X+4801235Y+4815742D02*
X+4801235Y+4836258D01*
X+4815742Y+4850765D01*
X+4836258Y+4850765D01*
X+4850765Y+4836258D01*
X+4850765Y+4815742D01*
X+4836258Y+4801235D01*
X+4815742Y+4801235D01*
X+4801235Y+4815742D01*
G37*
G36*
X+5055235Y+4561742D02*
X+5055235Y+4582258D01*
X+5069742Y+4596765D01*
X+5090258Y+4596765D01*
X+5104765Y+4582258D01*
X+5104765Y+4561742D01*
X+5090258Y+4547235D01*
X+5069742Y+4547235D01*
X+5055235Y+4561742D01*
G37*
G36*
X+4801235Y+4307742D02*
X+4801235Y+4328258D01*
X+4815742Y+4342765D01*
X+4836258Y+4342765D01*
X+4850765Y+4328258D01*
X+4850765Y+4307742D01*
X+4836258Y+4293235D01*
X+4815742Y+4293235D01*
X+4801235Y+4307742D01*
G37*
G36*
X+4547235Y+4053742D02*
X+4547235Y+4074258D01*
X+4561742Y+4088765D01*
X+4582258Y+4088765D01*
X+4596765Y+4074258D01*
X+4596765Y+4053742D01*
X+4582258Y+4039235D01*
X+4561742Y+4039235D01*
X+4547235Y+4053742D01*
G37*
G36*
X+4293235Y+3799742D02*
X+4293235Y+3820258D01*
X+4307742Y+3834765D01*
X+4328258Y+3834765D01*
X+4342765Y+3820258D01*
X+4342765Y+3799742D01*
X+4328258Y+3785235D01*
X+4307742Y+3785235D01*
X+4293235Y+3799742D01*
G37*
G36*
X+4293235Y+3291742D02*
X+4293235Y+3312258D01*
X+4307742Y+3326765D01*
X+4328258Y+3326765D01*
X+4342765Y+3312258D01*
X+4342765Y+3291742D01*
X+4328258Y+3277235D01*
X+4307742Y+3277235D01*
X+4293235Y+3291742D01*
G37*
G36*
X+4547235Y+3545742D02*
X+4547235Y+3566258D01*
X+4561742Y+3580765D01*
X+4582258Y+3580765D01*
X+4596765Y+3566258D01*
X+4596765Y+3545742D01*
X+4582258Y+3531235D01*
X+4561742Y+3531235D01*
X+4547235Y+3545742D01*
G37*
G36*
X+4801235Y+3799742D02*
X+4801235Y+3820258D01*
X+4815742Y+3834765D01*
X+4836258Y+3834765D01*
X+4850765Y+3820258D01*
X+4850765Y+3799742D01*
X+4836258Y+3785235D01*
X+4815742Y+3785235D01*
X+4801235Y+3799742D01*
G37*
G36*
X+5055235Y+4053742D02*
X+5055235Y+4074258D01*
X+5069742Y+4088765D01*
X+5090258Y+4088765D01*
X+5104765Y+4074258D01*
X+5104765Y+4053742D01*
X+5090258Y+4039235D01*
X+5069742Y+4039235D01*
X+5055235Y+4053742D01*
G37*
G36*
X+5309235Y+3799742D02*
X+5309235Y+3820258D01*
X+5323742Y+3834765D01*
X+5344258Y+3834765D01*
X+5358765Y+3820258D01*
X+5358765Y+3799742D01*
X+5344258Y+3785235D01*
X+5323742Y+3785235D01*
X+5309235Y+3799742D01*
G37*
G36*
X+5055235Y+3545742D02*
X+5055235Y+3566258D01*
X+5069742Y+3580765D01*
X+5090258Y+3580765D01*
X+5104765Y+3566258D01*
X+5104765Y+3545742D01*
X+5090258Y+3531235D01*
X+5069742Y+3531235D01*
X+5055235Y+3545742D01*
G37*
G36*
X+4801235Y+3291742D02*
X+4801235Y+3312258D01*
X+4815742Y+3326765D01*
X+4836258Y+3326765D01*
X+4850765Y+3312258D01*
X+4850765Y+3291742D01*
X+4836258Y+3277235D01*
X+4815742Y+3277235D01*
X+4801235Y+3291742D01*
G37*
G36*
X+4547235Y+3037742D02*
X+4547235Y+3058258D01*
X+4561742Y+3072765D01*
X+4582258Y+3072765D01*
X+4596765Y+3058258D01*
X+4596765Y+3037742D01*
X+4582258Y+3023235D01*
X+4561742Y+3023235D01*
X+4547235Y+3037742D01*
G37*
G36*
X+4293235Y+2783742D02*
X+4293235Y+2804258D01*
X+4307742Y+2818765D01*
X+4328258Y+2818765D01*
X+4342765Y+2804258D01*
X+4342765Y+2783742D01*
X+4328258Y+2769235D01*
X+4307742Y+2769235D01*
X+4293235Y+2783742D01*
G37*
G36*
X+4039235Y+3037742D02*
X+4039235Y+3058258D01*
X+4053742Y+3072765D01*
X+4074258Y+3072765D01*
X+4088765Y+3058258D01*
X+4088765Y+3037742D01*
X+4074258Y+3023235D01*
X+4053742Y+3023235D01*
X+4039235Y+3037742D01*
G37*
G36*
X+3785235Y+2783742D02*
X+3785235Y+2804258D01*
X+3799742Y+2818765D01*
X+3820258Y+2818765D01*
X+3834765Y+2804258D01*
X+3834765Y+2783742D01*
X+3820258Y+2769235D01*
X+3799742Y+2769235D01*
X+3785235Y+2783742D01*
G37*
G36*
X+3277235Y+2783742D02*
X+3277235Y+2804258D01*
X+3291742Y+2818765D01*
X+3312258Y+2818765D01*
X+3326765Y+2804258D01*
X+3326765Y+2783742D01*
X+3312258Y+2769235D01*
X+3291742Y+2769235D01*
X+3277235Y+2783742D01*
G37*
G36*
X+3531235Y+2529742D02*
X+3531235Y+2550258D01*
X+3545742Y+2564765D01*
X+3566258Y+2564765D01*
X+3580765Y+2550258D01*
X+3580765Y+2529742D01*
X+3566258Y+2515235D01*
X+3545742Y+2515235D01*
X+3531235Y+2529742D01*
G37*
G36*
X+4039235Y+2529742D02*
X+4039235Y+2550258D01*
X+4053742Y+2564765D01*
X+4074258Y+2564765D01*
X+4088765Y+2550258D01*
X+4088765Y+2529742D01*
X+4074258Y+2515235D01*
X+4053742Y+2515235D01*
X+4039235Y+2529742D01*
G37*
G36*
X+4547235Y+2529742D02*
X+4547235Y+2550258D01*
X+4561742Y+2564765D01*
X+4582258Y+2564765D01*
X+4596765Y+2550258D01*
X+4596765Y+2529742D01*
X+4582258Y+2515235D01*
X+4561742Y+2515235D01*
X+4547235Y+2529742D01*
G37*
G36*
X+4801235Y+2783742D02*
X+4801235Y+2804258D01*
X+4815742Y+2818765D01*
X+4836258Y+2818765D01*
X+4850765Y+2804258D01*
X+4850765Y+2783742D01*
X+4836258Y+2769235D01*
X+4815742Y+2769235D01*
X+4801235Y+2783742D01*
G37*
G36*
X+5055235Y+3037742D02*
X+5055235Y+3058258D01*
X+5069742Y+3072765D01*
X+5090258Y+3072765D01*
X+5104765Y+3058258D01*
X+5104765Y+3037742D01*
X+5090258Y+3023235D01*
X+5069742Y+3023235D01*
X+5055235Y+3037742D01*
G37*
G36*
X+5309235Y+3291742D02*
X+5309235Y+3312258D01*
X+5323742Y+3326765D01*
X+5344258Y+3326765D01*
X+5358765Y+3312258D01*
X+5358765Y+3291742D01*
X+5344258Y+3277235D01*
X+5323742Y+3277235D01*
X+5309235Y+3291742D01*
G37*
G36*
X+5309235Y+2783742D02*
X+5309235Y+2804258D01*
X+5323742Y+2818765D01*
X+5344258Y+2818765D01*
X+5358765Y+2804258D01*
X+5358765Y+2783742D01*
X+5344258Y+2769235D01*
X+5323742Y+2769235D01*
X+5309235Y+2783742D01*
G37*
G36*
X+5055235Y+2529742D02*
X+5055235Y+2550258D01*
X+5069742Y+2564765D01*
X+5090258Y+2564765D01*
X+5104765Y+2550258D01*
X+5104765Y+2529742D01*
X+5090258Y+2515235D01*
X+5069742Y+2515235D01*
X+5055235Y+2529742D01*
G37*
G36*
X+4801235Y+2275742D02*
X+4801235Y+2296258D01*
X+4815742Y+2310765D01*
X+4836258Y+2310765D01*
X+4850765Y+2296258D01*
X+4850765Y+2275742D01*
X+4836258Y+2261235D01*
X+4815742Y+2261235D01*
X+4801235Y+2275742D01*
G37*
G36*
X+4547235Y+2021742D02*
X+4547235Y+2042258D01*
X+4561742Y+2056765D01*
X+4582258Y+2056765D01*
X+4596765Y+2042258D01*
X+4596765Y+2021742D01*
X+4582258Y+2007235D01*
X+4561742Y+2007235D01*
X+4547235Y+2021742D01*
G37*
G36*
X+4293235Y+2275742D02*
X+4293235Y+2296258D01*
X+4307742Y+2310765D01*
X+4328258Y+2310765D01*
X+4342765Y+2296258D01*
X+4342765Y+2275742D01*
X+4328258Y+2261235D01*
X+4307742Y+2261235D01*
X+4293235Y+2275742D01*
G37*
G36*
X+5309235Y+2275742D02*
X+5309235Y+2296258D01*
X+5323742Y+2310765D01*
X+5344258Y+2310765D01*
X+5358765Y+2296258D01*
X+5358765Y+2275742D01*
X+5344258Y+2261235D01*
X+5323742Y+2261235D01*
X+5309235Y+2275742D01*
G37*
G36*
X+5309235Y+1767742D02*
X+5309235Y+1788258D01*
X+5323742Y+1802765D01*
X+5344258Y+1802765D01*
X+5358765Y+1788258D01*
X+5358765Y+1767742D01*
X+5344258Y+1753235D01*
X+5323742Y+1753235D01*
X+5309235Y+1767742D01*
G37*
G36*
X+5309235Y+1259742D02*
X+5309235Y+1280258D01*
X+5323742Y+1294765D01*
X+5344258Y+1294765D01*
X+5358765Y+1280258D01*
X+5358765Y+1259742D01*
X+5344258Y+1245235D01*
X+5323742Y+1245235D01*
X+5309235Y+1259742D01*
G37*
G36*
X+5055235Y+1005742D02*
X+5055235Y+1026258D01*
X+5069742Y+1040765D01*
X+5090258Y+1040765D01*
X+5104765Y+1026258D01*
X+5104765Y+1005742D01*
X+5090258Y+991235D01*
X+5069742Y+991235D01*
X+5055235Y+1005742D01*
G37*
G36*
X+5055235Y+1513742D02*
X+5055235Y+1534258D01*
X+5069742Y+1548765D01*
X+5090258Y+1548765D01*
X+5104765Y+1534258D01*
X+5104765Y+1513742D01*
X+5090258Y+1499235D01*
X+5069742Y+1499235D01*
X+5055235Y+1513742D01*
G37*
G36*
X+5055235Y+2021742D02*
X+5055235Y+2042258D01*
X+5069742Y+2056765D01*
X+5090258Y+2056765D01*
X+5104765Y+2042258D01*
X+5104765Y+2021742D01*
X+5090258Y+2007235D01*
X+5069742Y+2007235D01*
X+5055235Y+2021742D01*
G37*
G36*
X+4801235Y+1767742D02*
X+4801235Y+1788258D01*
X+4815742Y+1802765D01*
X+4836258Y+1802765D01*
X+4850765Y+1788258D01*
X+4850765Y+1767742D01*
X+4836258Y+1753235D01*
X+4815742Y+1753235D01*
X+4801235Y+1767742D01*
G37*
G36*
X+4801235Y+1259742D02*
X+4801235Y+1280258D01*
X+4815742Y+1294765D01*
X+4836258Y+1294765D01*
X+4850765Y+1280258D01*
X+4850765Y+1259742D01*
X+4836258Y+1245235D01*
X+4815742Y+1245235D01*
X+4801235Y+1259742D01*
G37*
G36*
X+4801235Y+751742D02*
X+4801235Y+772258D01*
X+4815742Y+786765D01*
X+4836258Y+786765D01*
X+4850765Y+772258D01*
X+4850765Y+751742D01*
X+4836258Y+737235D01*
X+4815742Y+737235D01*
X+4801235Y+751742D01*
G37*
G36*
X+5055235Y+497742D02*
X+5055235Y+518258D01*
X+5069742Y+532765D01*
X+5090258Y+532765D01*
X+5104765Y+518258D01*
X+5104765Y+497742D01*
X+5090258Y+483235D01*
X+5069742Y+483235D01*
X+5055235Y+497742D01*
G37*
G36*
X+4547235Y+497742D02*
X+4547235Y+518258D01*
X+4561742Y+532765D01*
X+4582258Y+532765D01*
X+4596765Y+518258D01*
X+4596765Y+497742D01*
X+4582258Y+483235D01*
X+4561742Y+483235D01*
X+4547235Y+497742D01*
G37*
G36*
X+4547235Y+1005742D02*
X+4547235Y+1026258D01*
X+4561742Y+1040765D01*
X+4582258Y+1040765D01*
X+4596765Y+1026258D01*
X+4596765Y+1005742D01*
X+4582258Y+991235D01*
X+4561742Y+991235D01*
X+4547235Y+1005742D01*
G37*
G36*
X+4547235Y+1513742D02*
X+4547235Y+1534258D01*
X+4561742Y+1548765D01*
X+4582258Y+1548765D01*
X+4596765Y+1534258D01*
X+4596765Y+1513742D01*
X+4582258Y+1499235D01*
X+4561742Y+1499235D01*
X+4547235Y+1513742D01*
G37*
G36*
X+4293235Y+1767742D02*
X+4293235Y+1788258D01*
X+4307742Y+1802765D01*
X+4328258Y+1802765D01*
X+4342765Y+1788258D01*
X+4342765Y+1767742D01*
X+4328258Y+1753235D01*
X+4307742Y+1753235D01*
X+4293235Y+1767742D01*
G37*
G36*
X+4293235Y+1259742D02*
X+4293235Y+1280258D01*
X+4307742Y+1294765D01*
X+4328258Y+1294765D01*
X+4342765Y+1280258D01*
X+4342765Y+1259742D01*
X+4328258Y+1245235D01*
X+4307742Y+1245235D01*
X+4293235Y+1259742D01*
G37*
G36*
X+4039235Y+1513742D02*
X+4039235Y+1534258D01*
X+4053742Y+1548765D01*
X+4074258Y+1548765D01*
X+4088765Y+1534258D01*
X+4088765Y+1513742D01*
X+4074258Y+1499235D01*
X+4053742Y+1499235D01*
X+4039235Y+1513742D01*
G37*
G36*
X+3531235Y+1513742D02*
X+3531235Y+1534258D01*
X+3545742Y+1548765D01*
X+3566258Y+1548765D01*
X+3580765Y+1534258D01*
X+3580765Y+1513742D01*
X+3566258Y+1499235D01*
X+3545742Y+1499235D01*
X+3531235Y+1513742D01*
G37*
G36*
X+3785235Y+1259742D02*
X+3785235Y+1280258D01*
X+3799742Y+1294765D01*
X+3820258Y+1294765D01*
X+3834765Y+1280258D01*
X+3834765Y+1259742D01*
X+3820258Y+1245235D01*
X+3799742Y+1245235D01*
X+3785235Y+1259742D01*
G37*
G36*
X+4039235Y+1005742D02*
X+4039235Y+1026258D01*
X+4053742Y+1040765D01*
X+4074258Y+1040765D01*
X+4088765Y+1026258D01*
X+4088765Y+1005742D01*
X+4074258Y+991235D01*
X+4053742Y+991235D01*
X+4039235Y+1005742D01*
G37*
G36*
X+4293235Y+751742D02*
X+4293235Y+772258D01*
X+4307742Y+786765D01*
X+4328258Y+786765D01*
X+4342765Y+772258D01*
X+4342765Y+751742D01*
X+4328258Y+737235D01*
X+4307742Y+737235D01*
X+4293235Y+751742D01*
G37*
G36*
X+4039235Y+497742D02*
X+4039235Y+518258D01*
X+4053742Y+532765D01*
X+4074258Y+532765D01*
X+4088765Y+518258D01*
X+4088765Y+497742D01*
X+4074258Y+483235D01*
X+4053742Y+483235D01*
X+4039235Y+497742D01*
G37*
G36*
X+3785235Y+751742D02*
X+3785235Y+772258D01*
X+3799742Y+786765D01*
X+3820258Y+786765D01*
X+3834765Y+772258D01*
X+3834765Y+751742D01*
X+3820258Y+737235D01*
X+3799742Y+737235D01*
X+3785235Y+751742D01*
G37*
G36*
X+3531235Y+497742D02*
X+3531235Y+518258D01*
X+3545742Y+532765D01*
X+3566258Y+532765D01*
X+3580765Y+518258D01*
X+3580765Y+497742D01*
X+3566258Y+483235D01*
X+3545742Y+483235D01*
X+3531235Y+497742D01*
G37*
G36*
X+3023235Y+751742D02*
X+3023235Y+772258D01*
X+3037742Y+786765D01*
X+3058258Y+786765D01*
X+3072765Y+772258D01*
X+3072765Y+751742D01*
X+3058258Y+737235D01*
X+3037742Y+737235D01*
X+3023235Y+751742D01*
G37*
%LPD*%
G36*
X+2584450Y+1607800D02*
X+2584450Y+1525250D01*
X+2580027Y+1525250D01*
X+2562883Y+1542394D01*
X+2517117Y+1542394D01*
X+2499973Y+1525250D01*
X+2419350Y+1525250D01*
X+2419350Y+1531600D01*
X+2520950Y+1633200D01*
X+2524027Y+1633200D01*
X+2515235Y+1624408D01*
X+2515235Y+1603892D01*
X+2529742Y+1589385D01*
X+2550258Y+1589385D01*
X+2564765Y+1603892D01*
X+2564765Y+1624408D01*
X+2555973Y+1633200D01*
X+2559050Y+1633200D01*
X+2584450Y+1607800D01*
G37*
G36*
X+2724150Y+1047750D02*
X+2724150Y+971550D01*
X+2609850Y+863600D01*
X+2609850Y+304800D01*
X+2569846Y+304800D01*
X+2563621Y+311025D01*
X+2516379Y+311025D01*
X+2510154Y+304800D01*
X+2470150Y+304800D01*
X+2470150Y+831850D01*
X+2330450Y+971550D01*
X+2330450Y+1047750D01*
X+2336800Y+1054100D01*
X+2717800Y+1054100D01*
X+2724150Y+1047750D01*
G37*
%LPC*%
G36*
X+2695575Y+1012055D02*
X+2695575Y+1019945D01*
X+2701155Y+1025525D01*
X+2709045Y+1025525D01*
X+2714625Y+1019945D01*
X+2714625Y+1012055D01*
X+2709045Y+1006475D01*
X+2701155Y+1006475D01*
X+2695575Y+1012055D01*
G37*
G36*
X+2543945Y+1006475D02*
X+2536055Y+1006475D01*
X+2530475Y+1012055D01*
X+2530475Y+1019945D01*
X+2536055Y+1025525D01*
X+2543945Y+1025525D01*
X+2549525Y+1019945D01*
X+2549525Y+1012055D01*
X+2543945Y+1006475D01*
G37*
G36*
X+2378845Y+1006475D02*
X+2370955Y+1006475D01*
X+2365375Y+1012055D01*
X+2365375Y+1019945D01*
X+2370955Y+1025525D01*
X+2378845Y+1025525D01*
X+2384425Y+1019945D01*
X+2384425Y+1012055D01*
X+2378845Y+1006475D01*
G37*
%LPD*%
G36*
X+1480917Y+5146481D02*
X+1480917Y+5013506D01*
X+1490569Y+5003854D01*
X+1333484Y+5003854D01*
X+1295450Y+5041888D01*
X+1295450Y+5118020D01*
X+1333543Y+5156113D01*
X+1490549Y+5156113D01*
X+1480917Y+5146481D01*
G37*
%LPC*%
G36*
X+1314575Y+5056379D02*
X+1314575Y+5103621D01*
X+1347979Y+5137025D01*
X+1395221Y+5137025D01*
X+1428625Y+5103621D01*
X+1428625Y+5056379D01*
X+1395221Y+5022975D01*
X+1347979Y+5022975D01*
X+1314575Y+5056379D01*
G37*
%LPD*%
D10*
X+1765300Y+2603500D02*
X+1765300Y+2679700D01*
X+1803400Y+2679700D01*
X+1841500Y+2641600D01*
X+1841500Y+2565400D01*
X+1803400Y+2527300D01*
X+1727200Y+2527300D01*
X+1689100Y+2565400D01*
X+1689100Y+2641600D01*
X+1727200Y+2679700D01*
X+1765300Y+2679700D01*
X+1765300Y+2349500D02*
X+1765300Y+2425700D01*
X+1803400Y+2425700D01*
X+1841500Y+2387600D01*
X+1841500Y+2311400D01*
X+1803400Y+2273300D01*
X+1727200Y+2273300D01*
X+1689100Y+2311400D01*
X+1689100Y+2387600D01*
X+1727200Y+2425700D01*
X+1765300Y+2425700D01*
X+863600Y+5080000D02*
X+863600Y+5156200D01*
X+901700Y+5156200D01*
X+939800Y+5118100D01*
X+939800Y+5041900D01*
X+901700Y+5003800D01*
X+825500Y+5003800D01*
X+787400Y+5041900D01*
X+787400Y+5118100D01*
X+825500Y+5156200D01*
X+863600Y+5156200D01*
X+1117600Y+5080000D02*
X+1117600Y+5156200D01*
X+1155700Y+5156200D01*
X+1193800Y+5118100D01*
X+1193800Y+5041900D01*
X+1155700Y+5003800D01*
X+1079500Y+5003800D01*
X+1041400Y+5041900D01*
X+1041400Y+5118100D01*
X+1079500Y+5156200D01*
X+1117600Y+5156200D01*
X+1371600Y+5080000D02*
X+1371600Y+5156200D01*
X+1409700Y+5156200D01*
X+1447800Y+5118100D01*
X+1447800Y+5041900D01*
X+1409700Y+5003800D01*
X+1333500Y+5003800D01*
X+1295400Y+5041900D01*
X+1295400Y+5118100D01*
X+1333500Y+5156200D01*
X+1371600Y+5156200D01*
X+2895600Y+5080000D02*
X+2895600Y+5156200D01*
X+2933700Y+5156200D01*
X+2971800Y+5118100D01*
X+2971800Y+5041900D01*
X+2933700Y+5003800D01*
X+2857500Y+5003800D01*
X+2819400Y+5041900D01*
X+2819400Y+5118100D01*
X+2857500Y+5156200D01*
X+2895600Y+5156200D01*
X+3556000Y+5080000D02*
X+3556000Y+5156200D01*
X+3594100Y+5156200D01*
X+3632200Y+5118100D01*
X+3632200Y+5041900D01*
X+3594100Y+5003800D01*
X+3517900Y+5003800D01*
X+3479800Y+5041900D01*
X+3479800Y+5118100D01*
X+3517900Y+5156200D01*
X+3556000Y+5156200D01*
X+3810000Y+5080000D02*
X+3810000Y+5156200D01*
X+3848100Y+5156200D01*
X+3886200Y+5118100D01*
X+3886200Y+5041900D01*
X+3848100Y+5003800D01*
X+3771900Y+5003800D01*
X+3733800Y+5041900D01*
X+3733800Y+5118100D01*
X+3771900Y+5156200D01*
X+3810000Y+5156200D01*
X+4064000Y+5080000D02*
X+4064000Y+5156200D01*
X+4102100Y+5156200D01*
X+4140200Y+5118100D01*
X+4140200Y+5041900D01*
X+4102100Y+5003800D01*
X+4025900Y+5003800D01*
X+3987800Y+5041900D01*
X+3987800Y+5118100D01*
X+4025900Y+5156200D01*
X+4064000Y+5156200D01*
X+4318000Y+5080000D02*
X+4318000Y+5156200D01*
X+4356100Y+5156200D01*
X+4394200Y+5118100D01*
X+4394200Y+5041900D01*
X+4356100Y+5003800D01*
X+4279900Y+5003800D01*
X+4241800Y+5041900D01*
X+4241800Y+5118100D01*
X+4279900Y+5156200D01*
X+4318000Y+5156200D01*
X+4826000Y+5080000D02*
X+4826000Y+5156200D01*
X+4864100Y+5156200D01*
X+4902200Y+5118100D01*
X+4902200Y+5041900D01*
X+4864100Y+5003800D01*
X+4787900Y+5003800D01*
X+4749800Y+5041900D01*
X+4749800Y+5118100D01*
X+4787900Y+5156200D01*
X+4826000Y+5156200D01*
X+5080000Y+5080000D02*
X+5080000Y+5156200D01*
X+5118100Y+5156200D01*
X+5156200Y+5118100D01*
X+5156200Y+5041900D01*
X+5118100Y+5003800D01*
X+5041900Y+5003800D01*
X+5003800Y+5041900D01*
X+5003800Y+5118100D01*
X+5041900Y+5156200D01*
X+5080000Y+5156200D01*
X+5080000Y+254000D02*
X+5080000Y+330200D01*
X+5118100Y+330200D01*
X+5156200Y+292100D01*
X+5156200Y+215900D01*
X+5118100Y+177800D01*
X+5041900Y+177800D01*
X+5003800Y+215900D01*
X+5003800Y+292100D01*
X+5041900Y+330200D01*
X+5080000Y+330200D01*
X+4826000Y+254000D02*
X+4826000Y+330200D01*
X+4864100Y+330200D01*
X+4902200Y+292100D01*
X+4902200Y+215900D01*
X+4864100Y+177800D01*
X+4787900Y+177800D01*
X+4749800Y+215900D01*
X+4749800Y+292100D01*
X+4787900Y+330200D01*
X+4826000Y+330200D01*
X+4572000Y+254000D02*
X+4572000Y+330200D01*
X+4610100Y+330200D01*
X+4648200Y+292100D01*
X+4648200Y+215900D01*
X+4610100Y+177800D01*
X+4533900Y+177800D01*
X+4495800Y+215900D01*
X+4495800Y+292100D01*
X+4533900Y+330200D01*
X+4572000Y+330200D01*
X+4318000Y+254000D02*
X+4318000Y+330200D01*
X+4356100Y+330200D01*
X+4394200Y+292100D01*
X+4394200Y+215900D01*
X+4356100Y+177800D01*
X+4279900Y+177800D01*
X+4241800Y+215900D01*
X+4241800Y+292100D01*
X+4279900Y+330200D01*
X+4318000Y+330200D01*
X+4064000Y+254000D02*
X+4064000Y+330200D01*
X+4102100Y+330200D01*
X+4140200Y+292100D01*
X+4140200Y+215900D01*
X+4102100Y+177800D01*
X+4025900Y+177800D01*
X+3987800Y+215900D01*
X+3987800Y+292100D01*
X+4025900Y+330200D01*
X+4064000Y+330200D01*
X+3810000Y+254000D02*
X+3810000Y+330200D01*
X+3848100Y+330200D01*
X+3886200Y+292100D01*
X+3886200Y+215900D01*
X+3848100Y+177800D01*
X+3771900Y+177800D01*
X+3733800Y+215900D01*
X+3733800Y+292100D01*
X+3771900Y+330200D01*
X+3810000Y+330200D01*
X+3302000Y+254000D02*
X+3302000Y+330200D01*
X+3340100Y+330200D01*
X+3378200Y+292100D01*
X+3378200Y+215900D01*
X+3340100Y+177800D01*
X+3263900Y+177800D01*
X+3225800Y+215900D01*
X+3225800Y+292100D01*
X+3263900Y+330200D01*
X+3302000Y+330200D01*
X+3048000Y+254000D02*
X+3048000Y+330200D01*
X+3086100Y+330200D01*
X+3124200Y+292100D01*
X+3124200Y+215900D01*
X+3086100Y+177800D01*
X+3009900Y+177800D01*
X+2971800Y+215900D01*
X+2971800Y+292100D01*
X+3009900Y+330200D01*
X+3048000Y+330200D01*
X+2286000Y+254000D02*
X+2286000Y+330200D01*
X+2324100Y+330200D01*
X+2362200Y+292100D01*
X+2362200Y+215900D01*
X+2324100Y+177800D01*
X+2247900Y+177800D01*
X+2209800Y+215900D01*
X+2209800Y+292100D01*
X+2247900Y+330200D01*
X+2286000Y+330200D01*
X+1778000Y+254000D02*
X+1778000Y+330200D01*
X+1816100Y+330200D01*
X+1854200Y+292100D01*
X+1854200Y+215900D01*
X+1816100Y+177800D01*
X+1739900Y+177800D01*
X+1701800Y+215900D01*
X+1701800Y+292100D01*
X+1739900Y+330200D01*
X+1778000Y+330200D01*
X+1524000Y+254000D02*
X+1524000Y+330200D01*
X+1562100Y+330200D01*
X+1600200Y+292100D01*
X+1600200Y+215900D01*
X+1562100Y+177800D01*
X+1485900Y+177800D01*
X+1447800Y+215900D01*
X+1447800Y+292100D01*
X+1485900Y+330200D01*
X+1524000Y+330200D01*
X+1270000Y+254000D02*
X+1270000Y+330200D01*
X+1308100Y+330200D01*
X+1346200Y+292100D01*
X+1346200Y+215900D01*
X+1308100Y+177800D01*
X+1231900Y+177800D01*
X+1193800Y+215900D01*
X+1193800Y+292100D01*
X+1231900Y+330200D01*
X+1270000Y+330200D01*
X+1016000Y+254000D02*
X+1016000Y+330200D01*
X+1079500Y+330200D01*
X+1092200Y+317500D01*
X+1092200Y+190500D01*
X+1079500Y+177800D01*
X+952500Y+177800D01*
X+939800Y+190500D01*
X+939800Y+317500D01*
X+952500Y+330200D01*
X+1016000Y+330200D01*
X+3302000Y+5080000D02*
X+3302000Y+5156200D01*
X+3365500Y+5156200D01*
X+3378200Y+5143500D01*
X+3378200Y+5016500D01*
X+3365500Y+5003800D01*
X+3238500Y+5003800D01*
X+3225800Y+5016500D01*
X+3225800Y+5143500D01*
X+3238500Y+5156200D01*
X+3302000Y+5156200D01*
X+609600Y+5080000D02*
X+609600Y+5156200D01*
X+673100Y+5156200D01*
X+685800Y+5143500D01*
X+685800Y+5016500D01*
X+673100Y+5003800D01*
X+546100Y+5003800D01*
X+533400Y+5016500D01*
X+533400Y+5143500D01*
X+546100Y+5156200D01*
X+609600Y+5156200D01*
X+2019300Y+2984500D02*
X+2095500Y+2984500D01*
X+1765300Y+2857500D02*
X+1822450Y+2800350D01*
X+2019300Y+2476500D02*
X+2076450Y+2533650D01*
X+2095500Y+2552700D01*
X+2095500Y+2501900D02*
X+2095500Y+2514600D01*
X+2095500Y+2552700D01*
X+2076450Y+2533650D02*
X+2095500Y+2514600D01*
X+2095500Y+2501900D02*
X+2095500Y+2438400D01*
X+2057400Y+2400300D01*
X+1981200Y+2400300D01*
X+1943100Y+2438400D01*
X+1943100Y+2514600D01*
X+1981200Y+2552700D01*
X+2019300Y+2552700D01*
X+2044700Y+2552700D02*
X+2057400Y+2552700D01*
X+1841500Y+2844800D02*
X+1841500Y+2819400D01*
X+1841500Y+2781300D01*
X+1765300Y+2857500D02*
X+1765300Y+2933700D01*
X+1803400Y+2933700D01*
X+1841500Y+2895600D01*
X+1841500Y+2844800D01*
X+1841500Y+2819400D02*
X+1822450Y+2800350D01*
X+1841500Y+2781300D01*
X+1790700Y+2781300D02*
X+1803400Y+2781300D01*
X+1841500Y+2781300D01*
X+1854200Y+2768600D01*
X+1866900Y+2755900D01*
X+1822450Y+2800350D02*
X+1803400Y+2781300D01*
X+1790700Y+2781300D02*
X+1727200Y+2781300D01*
X+1689100Y+2819400D01*
X+1689100Y+2895600D01*
X+1727200Y+2933700D01*
X+1765300Y+2933700D01*
X+1866900Y+2755900D02*
X+1905000Y+2717800D01*
X+1905000Y+2682090D01*
X+2082800Y+2933700D02*
X+2095500Y+2946400D01*
X+2082800Y+3035300D02*
X+2095500Y+3022600D01*
X+2019300Y+2984500D02*
X+2019300Y+3060700D01*
X+2057400Y+3060700D01*
X+2082800Y+3035300D01*
X+1765300Y+3111500D02*
X+1822450Y+3054350D01*
X+2032000Y+2730500D02*
X+2095500Y+2730500D01*
X+2019300Y+2730500D02*
X+2032000Y+2730500D01*
X+2082800Y+2679700D02*
X+2095500Y+2692400D01*
X+2095500Y+2730500D02*
X+2095500Y+2692400D01*
X+2082800Y+2679700D02*
X+2057400Y+2654300D01*
X+1981200Y+2654300D01*
X+1943100Y+2692400D01*
X+1943100Y+2768600D01*
X+1981200Y+2806700D01*
X+2019300Y+2806700D01*
X+2163441Y+2730500D02*
X+2362200Y+2730500D01*
X+2451100Y+2641600D01*
X+2603500Y+2641600D01*
X+2687300Y+2725400D01*
X+2687300Y+2730500D01*
X+2082800Y+2781300D02*
X+2095500Y+2768600D01*
X+2133600Y+2730500D02*
X+2163441Y+2730500D01*
X+2019300Y+2730500D02*
X+2019300Y+2806700D01*
X+2057400Y+2806700D01*
X+2082800Y+2781300D01*
X+2095500Y+2768600D02*
X+2095500Y+2730500D01*
X+2108200Y+2755900D02*
X+2108200Y+2730500D01*
X+2108200Y+2705100D01*
X+2095500Y+2692400D01*
X+2108200Y+2705100D02*
X+2133600Y+2730500D01*
X+2095500Y+2730500D02*
X+2108200Y+2730500D01*
X+2133600Y+2730500D01*
X+2095500Y+2768600D02*
X+2108200Y+2755900D01*
X+2133600Y+2730500D01*
X+1822616Y+3054516D02*
X+1765633Y+3111500D01*
X+1765300Y+3111500D01*
X+1822616Y+3054516D02*
X+1822450Y+3054350D01*
X+1841500Y+3086100D02*
X+1841500Y+3073400D01*
X+1841500Y+3035632D01*
X+1822616Y+3054516D01*
X+1765300Y+3111500D02*
X+1765300Y+3187700D01*
X+1803400Y+3187700D01*
X+1841500Y+3149600D01*
X+1841500Y+3086100D01*
X+1841500Y+3073400D02*
X+1822616Y+3054516D01*
X+1790700Y+3035300D02*
X+1803400Y+3035300D01*
X+1841832Y+3035300D01*
X+1822450Y+3054350D02*
X+1803400Y+3035300D01*
X+1790700Y+3035300D02*
X+1727200Y+3035300D01*
X+1689100Y+3073400D01*
X+1689100Y+3149600D01*
X+1727200Y+3187700D01*
X+1765300Y+3187700D01*
X+1841500Y+3035632D02*
X+1841832Y+3035300D01*
X+2019300Y+2984500D02*
X+2076450Y+2927350D01*
X+2082800Y+2933700D02*
X+2076450Y+2927350D01*
X+2095500Y+3009900D02*
X+2095500Y+2984500D01*
X+2095500Y+2946400D01*
X+2095500Y+2908300D01*
X+2095500Y+3022600D02*
X+2095500Y+3009900D01*
X+2076450Y+2927350D02*
X+2095500Y+2908300D01*
X+2101850Y+2901950D02*
X+2128701Y+2875099D01*
X+2203403Y+2875099D01*
X+2417899Y+2875099D01*
X+2527300Y+2984500D01*
X+2044700Y+2908300D02*
X+2057400Y+2908300D01*
X+2095500Y+2908300D01*
X+2101850Y+2901950D01*
X+2076450Y+2927350D02*
X+2057400Y+2908300D01*
X+2044700Y+2908300D02*
X+1981200Y+2908300D01*
X+1943100Y+2946400D01*
X+1943100Y+3022600D01*
X+1981200Y+3060700D01*
X+2019300Y+3060700D01*
X+1916692Y+2919992D02*
X+1962615Y+2874069D01*
X+1962616Y+2874069D01*
X+1962615Y+2874069D01*
X+1916692Y+2919992D01*
X+1908865Y+2927820D01*
X+1908865Y+2968268D01*
X+1841832Y+3035300D01*
X+1967026Y+2620064D02*
X+1931595Y+2655495D01*
X+1905000Y+2682090D02*
X+1931595Y+2655495D01*
X+2096710Y+2602290D02*
X+2081349Y+2586929D01*
X+2039717Y+2586929D01*
X+2000161Y+2586929D01*
X+1967026Y+2620064D01*
X+2527300Y+2730500D02*
X+2416894Y+2840906D01*
X+2114473Y+2840906D01*
X+2081310Y+2874069D01*
X+1962616Y+2874069D01*
D11*
X+2687300Y+2730500D02*
X+2687300Y+2984500D01*
X+2687300Y+3149600D01*
X+2527300Y+3309600D01*
X+2527300Y+3314700D01*
D10*
X+2687300Y+2476500D02*
X+2687300Y+2311400D01*
X+2687300Y+2146300D01*
X+2635250Y+2622550D02*
X+2620100Y+2607400D01*
X+2620099Y+2607400D01*
X+2582111Y+2607400D01*
X+2562950Y+2607400D01*
X+2527300Y+2571750D01*
X+2527300Y+2514601D01*
X+2527300Y+2476500D01*
X+2527300Y+2472599D01*
X+2527234Y+2472533D01*
X+2635250Y+2622550D02*
X+2620099Y+2607400D01*
X+2305050Y+2533650D02*
X+2241584Y+2597116D01*
X+2305050Y+2533650D02*
X+2527300Y+2311400D01*
X+2152650Y+2597116D02*
X+2139984Y+2597116D01*
X+2139895Y+2597116D01*
X+2095479Y+2552700D01*
X+2076440Y+2533660D01*
X+2019300Y+2476521D01*
X+2019300Y+2476500D01*
X+2057400Y+2552700D02*
X+2095479Y+2552700D01*
X+2095500Y+2552700D01*
X+2019300Y+2476521D02*
X+2019300Y+2552700D01*
X+2044700Y+2552700D01*
X+2057400Y+2552700D02*
X+2076440Y+2533660D01*
X+2076450Y+2533650D01*
X+2241584Y+2597116D02*
X+2152650Y+2597116D01*
X+2527300Y+2476500D02*
X+2410580Y+2476500D01*
X+2382009Y+2505071D01*
X+2255703Y+2631377D01*
X+2206442Y+2631377D01*
X+2125797Y+2631377D01*
X+2103060Y+2608640D01*
X+2096710Y+2602290D02*
X+2103060Y+2608640D01*
X+3158500Y+2959100D02*
X+3158500Y+2860050D01*
X+2916654Y+2618204D01*
X+2679308Y+2618204D01*
X+2609850Y+2548746D01*
X+2609850Y+2393950D01*
X+2527300Y+2311400D01*
X+3093500Y+2895600D02*
X+3093500Y+2858551D01*
X+3093500Y+2959100D02*
X+3093500Y+2895600D01*
X+3093500Y+2858551D02*
X+3093500Y+2843407D01*
X+2902547Y+2652454D01*
X+2665153Y+2652454D01*
X+2635250Y+2622550D01*
X+3093500Y+2392900D02*
X+3093500Y+2418300D01*
X+3074450Y+2399250D02*
X+3080800Y+2392900D01*
X+3087150Y+2386550D01*
X+3093500Y+2380200D01*
X+3093500Y+2259100D02*
X+3093500Y+2380200D01*
X+3093500Y+2392900D01*
X+3093500Y+2418300D02*
X+3118900Y+2418300D01*
X+3118900Y+2431000D01*
X+3106200Y+2443700D01*
X+3080800Y+2443700D01*
X+3068100Y+2431000D01*
X+3068100Y+2405600D01*
X+3074450Y+2399250D01*
X+3080800Y+2392900D02*
X+3093500Y+2392900D01*
X+3118900Y+2405600D02*
X+3106200Y+2392900D01*
X+3093500Y+2380200D01*
X+3093500Y+2392900D02*
X+3106200Y+2392900D01*
X+3118900Y+2405600D02*
X+3118900Y+2431000D01*
X+3158500Y+2328950D02*
X+3158500Y+2348000D01*
X+3158500Y+2322600D02*
X+3158500Y+2328950D01*
X+3171200Y+2322600D02*
X+3158500Y+2309900D01*
X+3158500Y+2348000D02*
X+3158500Y+2373400D01*
X+3171200Y+2373400D01*
X+3183900Y+2360700D01*
X+3183900Y+2341650D01*
X+3183900Y+2335300D01*
X+3171200Y+2322600D01*
X+3158500Y+2322600D01*
X+3158500Y+2259100D02*
X+3158500Y+2309900D01*
X+3158500Y+2322600D01*
X+3145800Y+2322600D02*
X+3158500Y+2309900D01*
X+3158500Y+2322600D02*
X+3145800Y+2322600D01*
X+3133100Y+2335300D01*
X+3133100Y+2360700D01*
X+3145800Y+2373400D01*
X+3171200Y+2373400D01*
X+3548500Y+2259100D02*
X+3548500Y+1928900D01*
X+3454700Y+1835100D01*
X+3440550Y+1835100D01*
X+3613500Y+2259100D02*
X+3613500Y+2052150D01*
X+3660550Y+2005100D01*
X+3418500Y+2252750D02*
X+3418500Y+2259100D01*
X+3223500Y+2259100D02*
X+3223500Y+2637083D01*
X+3418500Y+2252750D02*
X+3418500Y+2027150D01*
X+3440550Y+2005100D01*
X+3483500Y+2246400D02*
X+3483500Y+2259100D01*
X+3483500Y+2246400D02*
X+3483500Y+2048050D01*
X+3440550Y+2005100D01*
X+3418500Y+2259100D02*
X+3418500Y+2637082D01*
X+3223500Y+2637083D01*
X+3873500Y+2959100D02*
X+3873500Y+3149600D01*
X+3028500Y+2959100D02*
X+3028500Y+3149600D01*
X+3223500Y+2940050D02*
X+3223500Y+2959100D01*
X+3223500Y+3114600D01*
X+3188500Y+3149600D01*
X+3223500Y+2637083D02*
X+3223500Y+2940050D01*
X+2190750Y+5022850D02*
X+2133600Y+5080000D01*
X+1936750Y+5137150D02*
X+1879600Y+5080000D01*
X+1682750Y+5022850D02*
X+1625600Y+5080000D01*
X+2330450Y+5137150D02*
X+2387600Y+5080000D01*
X+2311400Y+5092700D02*
X+2311400Y+5118100D01*
X+2311400Y+5156200D01*
X+2330450Y+5137150D01*
X+2387600Y+5080000D02*
X+2387600Y+5156200D01*
X+2425700Y+5156200D01*
X+2463800Y+5118100D01*
X+2463800Y+5041900D01*
X+2425700Y+5003800D01*
X+2349500Y+5003800D01*
X+2311400Y+5041900D01*
X+2311400Y+5092700D01*
X+2311400Y+5118100D02*
X+2330450Y+5137150D01*
X+2381250Y+5156200D02*
X+2349500Y+5156200D01*
X+2311400Y+5156200D01*
X+2298700Y+5168900D01*
X+2330450Y+5137150D02*
X+2349500Y+5156200D01*
X+2381250Y+5156200D02*
X+2387600Y+5156200D01*
X+3353500Y+2959100D02*
X+3353500Y+3763307D01*
X+3232339Y+3884468D01*
X+2188878Y+4927929D01*
X+2091834Y+4927929D01*
X+1614984Y+4927929D01*
X+1515206Y+5027707D01*
X+1515206Y+5132280D01*
X+1573341Y+5190415D01*
X+1628794Y+5190415D01*
X+1941631Y+5190415D01*
X+1975909Y+5224693D01*
X+2067241Y+5224693D01*
X+2242907Y+5224693D01*
X+2298700Y+5168900D01*
X+2641600Y+5080000D02*
X+2584450Y+5137150D01*
X+1625600Y+5003800D02*
X+1663700Y+5003800D01*
X+1701800Y+5003800D01*
X+3418500Y+2959100D02*
X+3418500Y+3746724D01*
X+3220662Y+3944562D01*
X+2203052Y+4962172D01*
X+1743428Y+4962172D01*
X+1727200Y+4978400D01*
X+1701800Y+5003800D02*
X+1682750Y+5022850D01*
X+1663700Y+5003800D01*
X+1625600Y+5003800D02*
X+1587500Y+5003800D01*
X+1549400Y+5041900D01*
X+1549400Y+5118100D01*
X+1587500Y+5156200D01*
X+1625600Y+5156200D01*
X+1701800Y+5054600D02*
X+1701800Y+5041900D01*
X+1701800Y+5003800D01*
X+1724025Y+4981575D01*
X+1625600Y+5080000D02*
X+1625600Y+5156200D01*
X+1663700Y+5156200D01*
X+1701800Y+5118100D01*
X+1701800Y+5054600D01*
X+1701800Y+5041900D02*
X+1682750Y+5022850D01*
X+1724025Y+4981575D02*
X+1727200Y+4978400D01*
X+1955800Y+5080000D02*
X+1955800Y+5118100D01*
X+1955800Y+5156200D01*
X+1962150Y+5162550D01*
X+3548500Y+2959100D02*
X+3548500Y+3713548D01*
X+3415124Y+3846924D01*
X+2244058Y+5017990D01*
X+2244058Y+5132219D01*
X+2185827Y+5190450D01*
X+1990050Y+5190450D01*
X+1962150Y+5162550D01*
X+1955800Y+5156200D02*
X+1936750Y+5137150D01*
X+1955800Y+5118100D01*
X+1955800Y+5080000D02*
X+1955800Y+5041900D01*
X+1917700Y+5003800D01*
X+1841500Y+5003800D01*
X+1803400Y+5041900D01*
X+1803400Y+5118100D01*
X+1841500Y+5156200D01*
X+1879600Y+5156200D01*
X+1905000Y+5156200D02*
X+1917700Y+5156200D01*
X+1955781Y+5156200D01*
X+1967366Y+5167785D01*
X+1879600Y+5080000D02*
X+1879600Y+5156200D01*
X+1905000Y+5156200D01*
X+1917700Y+5156200D02*
X+1936750Y+5137150D01*
X+2209800Y+5060950D02*
X+2209800Y+5041900D01*
X+2133600Y+5080000D02*
X+2133600Y+5156200D01*
X+2171700Y+5156200D01*
X+2209800Y+5118100D01*
X+2209800Y+5060950D01*
X+2209800Y+5041900D02*
X+2190750Y+5022850D01*
X+2152650Y+5003800D02*
X+2171700Y+5003800D01*
X+2209800Y+5003800D01*
X+2209836Y+5003800D01*
X+2232043Y+4981593D01*
X+3483500Y+2959100D02*
X+3483500Y+3730100D01*
X+2209800Y+5003800D01*
X+2190750Y+5022850D01*
X+2171700Y+5003800D01*
X+2152650Y+5003800D02*
X+2095500Y+5003800D01*
X+2057400Y+5041900D01*
X+2057400Y+5118100D01*
X+2095500Y+5156200D01*
X+2133600Y+5156200D01*
X+2209800Y+5041900D02*
X+2209800Y+5003836D01*
X+2209836Y+5003800D01*
X+4572000Y+5003800D02*
X+4572000Y+5080000D01*
X+4521375Y+5016325D02*
X+4533900Y+5003800D01*
X+3678500Y+2959100D02*
X+3678500Y+3027450D01*
X+3613500Y+3092450D01*
X+3613500Y+3714750D01*
X+3645250Y+3746500D01*
X+4572000Y+4673250D01*
X+4572000Y+4965700D01*
X+4572000Y+5003800D02*
X+4533900Y+5003800D01*
X+4521375Y+5016325D02*
X+4495800Y+5041900D01*
X+4495800Y+5118100D01*
X+4533900Y+5156200D01*
X+4572000Y+5156200D01*
X+4642025Y+5035725D02*
X+4610100Y+5003800D01*
X+4572000Y+5080000D02*
X+4572000Y+5156200D01*
X+4610100Y+5156200D01*
X+4648200Y+5118100D01*
X+4648200Y+5041900D01*
X+4642025Y+5035725D01*
X+4610100Y+5003800D02*
X+4572000Y+5003800D01*
X+4546775Y+4990925D02*
X+4572000Y+4990925D01*
X+4597225Y+4990925D01*
X+4603925Y+4997625D01*
X+4533900Y+5003800D02*
X+4546775Y+4990925D01*
X+4572000Y+4965700D01*
X+4572000Y+4990925D01*
X+4572000Y+5000000D01*
X+4572000Y+5003800D01*
X+4610100Y+5003800D02*
X+4603925Y+4997625D01*
X+4597225Y+4990925D02*
X+4572000Y+4965700D01*
X+2076450Y+2165350D02*
X+2019300Y+2222500D01*
X+2019300Y+2298700D01*
X+2057400Y+2298700D01*
X+2095500Y+2260600D01*
X+2095500Y+2184400D01*
X+2076450Y+2165350D01*
X+2057400Y+2146300D01*
X+1981200Y+2146300D01*
X+1943100Y+2184400D01*
X+1943100Y+2260600D01*
X+1981200Y+2298700D01*
X+2019300Y+2298700D01*
X+688131Y+3263031D02*
X+640300Y+3310862D01*
X+640300Y+3329500D01*
X+716500Y+3327400D02*
X+716500Y+3291400D01*
X+2527300Y+1981200D02*
X+1969962Y+1981200D01*
X+734156Y+3217006D01*
X+640300Y+3329500D02*
X+640300Y+3405700D01*
X+678400Y+3405700D01*
X+716500Y+3367600D01*
X+716500Y+3327400D01*
X+716500Y+3291400D02*
X+688131Y+3263031D01*
X+641350Y+3253300D02*
X+678400Y+3253300D01*
X+697862Y+3253300D02*
X+716500Y+3234662D01*
X+727806Y+3223356D01*
X+688131Y+3263031D02*
X+678400Y+3253300D01*
X+641350Y+3253300D02*
X+602200Y+3253300D01*
X+564100Y+3291400D01*
X+564100Y+3367600D01*
X+602200Y+3405700D01*
X+640300Y+3405700D01*
X+727806Y+3223356D02*
X+734156Y+3217006D01*
X+692150Y+3253300D02*
X+695006Y+3256156D01*
X+716500Y+3277650D01*
X+716500Y+3286289D01*
X+716500Y+3291400D02*
X+716500Y+3286289D01*
X+716500Y+3277650D02*
X+716500Y+3234662D01*
X+678400Y+3253300D02*
X+692150Y+3253300D01*
X+697862Y+3253300D01*
X+695006Y+3256156D01*
X+688131Y+3263031D01*
X+640300Y+2258500D02*
X+640300Y+2334700D01*
X+640300Y+2999300D02*
X+640300Y+3075500D01*
X+640300Y+2334700D02*
X+678400Y+2334700D01*
X+716500Y+2296600D01*
X+716500Y+2220400D01*
X+678400Y+2182300D01*
X+602200Y+2182300D01*
X+564100Y+2220400D01*
X+564100Y+2296600D01*
X+602200Y+2334700D01*
X+640300Y+2334700D01*
X+640300Y+3075500D02*
X+640300Y+3151700D01*
X+678400Y+3151700D01*
X+716500Y+3113600D01*
X+716500Y+3037400D01*
X+678400Y+2999300D01*
X+640300Y+2999300D01*
X+640300Y+3075500D02*
X+583150Y+3132650D01*
X+529902Y+3185898D01*
X+529902Y+3381848D01*
X+587994Y+3439940D01*
X+1433740Y+3439940D01*
X+1435300Y+3441500D01*
X+640300Y+2999300D02*
X+602200Y+2999300D01*
X+564100Y+3037400D01*
X+564100Y+3113600D01*
X+583150Y+3132650D01*
X+602200Y+3151700D01*
X+640300Y+3151700D01*
X+640300Y+2004500D02*
X+697450Y+2061650D01*
X+716500Y+2006600D02*
X+716500Y+2042600D01*
X+716500Y+2080700D01*
X+697450Y+2061650D02*
X+716500Y+2080700D01*
X+746650Y+2110850D02*
X+1001165Y+2365365D01*
X+1537355Y+2365365D01*
X+1955735Y+1946985D01*
X+2074615Y+1946985D01*
X+2396415Y+1946985D01*
X+2527300Y+1816100D01*
X+697450Y+2061650D02*
X+716500Y+2042600D01*
X+716500Y+2006600D02*
X+716500Y+1966400D01*
X+678400Y+1928300D01*
X+602200Y+1928300D01*
X+564100Y+1966400D01*
X+564100Y+2042600D01*
X+602200Y+2080700D01*
X+640300Y+2080700D01*
X+660400Y+2080700D02*
X+678400Y+2080700D01*
X+716500Y+2080700D01*
X+743475Y+2107675D01*
X+640300Y+2004500D02*
X+640300Y+2080700D01*
X+660400Y+2080700D01*
X+678400Y+2080700D02*
X+697450Y+2061650D01*
X+743475Y+2107675D02*
X+746650Y+2110850D01*
X+3844700Y+1995100D02*
X+3670550Y+1995100D01*
X+3660550Y+2005100D01*
X+3250050Y+1835100D02*
X+3370550Y+1835100D01*
X+3440550Y+1835100D01*
X+3260500Y+1995100D02*
X+3250050Y+1995100D01*
X+3260500Y+1995100D02*
X+3430550Y+1995100D01*
X+3440550Y+2005100D01*
X+3838350Y+1835100D02*
X+3844700Y+1835100D01*
X+4009800Y+1835100D01*
X+3838350Y+1835100D02*
X+3660550Y+1835100D01*
X+3082700Y+1835100D02*
X+3162256Y+1835100D01*
X+3250050Y+1995100D02*
X+3240402Y+1995100D01*
X+3162256Y+1916954D01*
X+3162256Y+1835100D01*
X+3162256Y+1777139D01*
X+3218748Y+1720647D01*
X+3465897Y+1720647D01*
X+3546097Y+1720647D01*
X+3660550Y+1835100D01*
X+3082700Y+1995100D02*
X+2917600Y+1995100D01*
D11*
X+4009800Y+1995100D02*
X+3900334Y+2104566D01*
X+3728492Y+2104566D01*
X+3678500Y+2154558D01*
X+3678500Y+2259100D01*
D10*
X+2993800Y+1835100D02*
X+2917600Y+1835100D01*
X+2881796Y+1835100D01*
X+2762980Y+1953916D01*
X+2757000Y+1959896D01*
X+2757000Y+2050320D01*
X+2748945Y+2058375D01*
X+2684839Y+2058375D01*
X+2607578Y+2058375D01*
X+2519653Y+2146300D01*
X+2527300Y+2146300D02*
X+2519653Y+2146300D01*
X+2095500Y+2146300D01*
X+2076450Y+2165350D01*
X+2993800Y+1835100D02*
X+3082700Y+1835100D01*
X+3060700Y+1327150D02*
X+3060700Y+1176000D01*
X+3220700Y+1016000D01*
X+3225800Y+1016000D01*
X+2540000Y+1176000D02*
X+2759703Y+1176000D01*
X+2540000Y+1176000D02*
X+2540000Y+1327150D01*
X+2089150Y+196850D02*
X+2032000Y+254000D01*
X+2794000Y+254000D02*
X+2794000Y+330200D01*
X+2794000Y+1009900D01*
X+2800100Y+1016000D01*
X+2540000Y+254000D02*
X+2540000Y+330200D01*
X+3416300Y+1016000D02*
X+3186360Y+1245940D01*
X+3186360Y+1343676D01*
X+3186360Y+1361490D01*
X+3060700Y+1487150D01*
X+2800100Y+1135603D02*
X+2800100Y+1114176D01*
X+2800100Y+1016000D02*
X+2800100Y+1114176D01*
X+2800100Y+1135603D02*
X+2759703Y+1176000D01*
X+2565400Y+5099050D02*
X+2565400Y+5118100D01*
X+2565400Y+5156200D01*
X+2584450Y+5137150D02*
X+2565400Y+5156200D01*
X+2531167Y+5190433D01*
X+2387600Y+5190433D01*
X+2325572Y+5190433D01*
X+2257119Y+5258886D01*
X+2206256Y+5258886D01*
X+1961723Y+5258886D01*
X+1941467Y+5238630D01*
X+1927506Y+5224669D01*
X+1846179Y+5224669D01*
X+1559152Y+5224669D01*
X+1524885Y+5190402D01*
X+1319342Y+5190402D01*
X+1261161Y+5132221D01*
X+1261161Y+5027687D01*
X+1319283Y+4969565D01*
X+1377950Y+4969565D01*
X+1524961Y+4969565D01*
X+1600810Y+4893716D01*
X+1670050Y+4893716D01*
X+2174716Y+4893716D01*
X+2200241Y+4868191D01*
X+3288500Y+3779932D01*
X+3288500Y+2959100D01*
X+2565400Y+5118100D02*
X+2584450Y+5137150D01*
X+2654300Y+5156200D02*
X+2641600Y+5156200D01*
X+2603500Y+5156200D01*
X+2565400Y+5156200D01*
X+2584450Y+5137150D02*
X+2603500Y+5156200D01*
X+2641600Y+5080000D02*
X+2641600Y+5156200D01*
X+2654300Y+5156200D02*
X+2679700Y+5156200D01*
X+2717800Y+5118100D01*
X+2717800Y+5041900D01*
X+2679700Y+5003800D01*
X+2603500Y+5003800D01*
X+2565400Y+5041900D01*
X+2565400Y+5099050D01*
X+2788900Y+3213100D02*
X+2769850Y+3232150D01*
X+2763500Y+3225800D02*
X+2687300Y+3302000D01*
X+2687300Y+3314700D01*
X+2769850Y+3232150D02*
X+2763500Y+3225800D01*
X+2763500Y+3206750D01*
X+2763500Y+3200400D01*
X+2776200Y+3187700D01*
X+2801600Y+3187700D01*
X+2814300Y+3200400D01*
X+2814300Y+3219450D01*
X+2776200Y+3238500D02*
X+2701266Y+3313434D01*
X+2688566Y+3313434D01*
X+2788900Y+3213100D02*
X+2814300Y+3213100D01*
X+2814300Y+3225800D01*
X+2801600Y+3238500D01*
X+2776200Y+3238500D01*
X+2769850Y+3232150D01*
X+2688566Y+3313434D01*
X+2688566Y+3323538D01*
X+3808500Y+2259100D02*
X+3808500Y+2357074D01*
X+3848360Y+2396934D01*
X+4099641Y+2396934D01*
X+4146057Y+2350518D01*
X+4146057Y+1759706D01*
X+4044951Y+1658600D01*
X+2882166Y+1658600D01*
X+2757036Y+1783730D01*
X+2757036Y+1911464D01*
X+2687300Y+1981200D01*
X+4180280Y+1893550D02*
X+4180280Y+1768931D01*
X+4180280Y+1745554D01*
X+4113588Y+1678862D01*
X+4059094Y+1624368D01*
X+3968750Y+1624368D01*
X+2867982Y+1624368D01*
X+2687300Y+1816100D02*
X+2687300Y+1805050D01*
X+2733450Y+1758900D01*
X+2867982Y+1624368D01*
X+4180280Y+1893550D02*
X+4180280Y+2364675D01*
X+4113772Y+2431183D01*
X+4014611Y+2431183D01*
X+3834246Y+2431183D01*
X+3743500Y+2340437D01*
X+3743500Y+2259100D01*
X+2957706Y+1590144D02*
X+2938718Y+1590144D01*
X+2819544Y+1590144D01*
X+2716550Y+1487150D01*
X+3060700Y+1487150D02*
X+2957706Y+1590144D01*
X+2895100Y+1276000D02*
X+2895100Y+1468600D01*
X+2876550Y+1487150D01*
X+2378428Y+1171532D02*
X+2487500Y+1171532D01*
X+2540000Y+1176000D01*
X+2378428Y+1171532D02*
X+2374900Y+1176000D01*
X+2622550Y+1016000D02*
X+2540000Y+1016000D01*
X+2374900Y+1016000D01*
X+2622550Y+1016000D02*
X+2705100Y+1016000D01*
X+3486150Y+323850D02*
X+3556000Y+254000D01*
X+3486150Y+323850D02*
X+3492500Y+330200D01*
X+3556000Y+330200D01*
X+2444750Y+1487150D02*
X+2374900Y+1487150D01*
X+2444750Y+1487150D02*
X+2540000Y+1487150D01*
D12*
X+2705100Y+1276000D02*
X+2705100Y+1328400D01*
X+2673350Y+1360150D01*
D10*
X+2730500Y+1269650D02*
X+2730500Y+1276000D01*
X+2705100Y+1276000D02*
X+2730500Y+1276000D01*
X+2730500Y+1269650D02*
X+2730500Y+1231550D01*
X+2673350Y+1231550D01*
X+2673350Y+1360150D01*
X+2324100Y+1449050D02*
X+2584450Y+1449050D01*
X+2608250Y+1449050D01*
X+2730500Y+1276000D02*
X+2730500Y+1326800D01*
X+2608250Y+1449050D01*
D12*
X+2673350Y+1360150D02*
X+2584450Y+1449050D01*
X+2571750Y+1461750D01*
D10*
X+2324100Y+1449050D01*
X+2324100Y+1487150D02*
X+2374900Y+1487150D01*
X+2324100Y+1487150D02*
X+2324100Y+1474450D01*
X+2324100Y+1512550D02*
X+2584450Y+1512550D01*
X+2324100Y+1506200D02*
X+2584450Y+1506200D01*
X+2324100Y+1512550D02*
X+2324100Y+1506200D01*
X+2324100Y+1487150D01*
X+2324100Y+1474450D02*
X+2584450Y+1474450D01*
X+2324100Y+1461750D02*
X+2571750Y+1461750D01*
X+2595550Y+1461750D01*
X+2324100Y+1449050D02*
X+2324100Y+1461750D01*
X+2324100Y+1474450D01*
X+2608250Y+1449050D02*
X+2595550Y+1461750D01*
X+2584450Y+1472850D01*
X+2584450Y+1474450D01*
X+2584450Y+1493500D02*
X+2584450Y+1506200D01*
X+2584450Y+1512550D01*
X+2584450Y+1525250D01*
X+2584450Y+1607800D01*
X+2565400Y+1626850D01*
X+2562225Y+1630025D01*
X+2540000Y+1614150D02*
X+2565400Y+1614150D01*
X+2565400Y+1626850D01*
X+2584450Y+1474450D02*
X+2584450Y+1493500D01*
X+2520950Y+1633200D02*
X+2514600Y+1626850D01*
X+2413000Y+1525250D01*
X+2364196Y+1525250D01*
X+2584450Y+1525250D02*
X+2413000Y+1525250D01*
X+2364196Y+1525250D02*
X+2324100Y+1525250D01*
X+2324100Y+1512550D01*
X+2562225Y+1630025D02*
X+2552700Y+1639550D01*
X+2527300Y+1639550D01*
X+2520950Y+1633200D01*
X+2514600Y+1626850D02*
X+2514600Y+1601450D01*
X+2527300Y+1588750D01*
X+2552700Y+1588750D01*
X+2565400Y+1601450D01*
X+2565400Y+1620500D01*
X+2540000Y+990600D02*
X+2540000Y+1016000D01*
X+2540000Y+330200D02*
X+2540000Y+971550D01*
X+2540000Y+990600D01*
X+2463800Y+273050D02*
X+2463800Y+292100D01*
X+2463800Y+831850D01*
X+2324100Y+971550D01*
X+2463800Y+292100D02*
X+2501900Y+330200D01*
X+2540000Y+330200D01*
X+2540000Y+1016000D02*
X+2540000Y+1054100D01*
X+2324100Y+1054100D01*
X+2324100Y+977900D01*
X+2324100Y+971550D01*
X+2540000Y+971550D01*
X+2730500Y+971550D02*
X+2616200Y+857250D01*
X+2616200Y+292100D01*
X+2616200Y+266700D01*
X+2540000Y+971550D02*
X+2730500Y+971550D01*
X+2730500Y+1060450D01*
X+2324100Y+1060450D01*
X+2324100Y+1047750D01*
X+2540000Y+330200D02*
X+2578100Y+330200D01*
X+2616200Y+292100D01*
X+2616200Y+266700D02*
X+2616200Y+215900D01*
X+2578100Y+177800D01*
X+2501900Y+177800D01*
X+2463800Y+215900D01*
X+2463800Y+273050D01*
X+2108200Y+266700D02*
X+2108200Y+215900D01*
X+2108200Y+177800D01*
X+2032000Y+254000D02*
X+2032000Y+330200D01*
X+2070100Y+330200D01*
X+2108200Y+292100D01*
X+2108200Y+266700D01*
X+2108200Y+215900D02*
X+2089150Y+196850D01*
X+2108200Y+177800D02*
X+2089150Y+196850D01*
X+2038350Y+177800D02*
X+2070100Y+177800D01*
X+2108200Y+177800D01*
X+2089150Y+196850D02*
X+2070100Y+177800D01*
X+2038350Y+177800D02*
X+1993900Y+177800D01*
X+1955800Y+215900D01*
X+1955800Y+292100D01*
X+1993900Y+330200D01*
X+2032000Y+330200D01*
X+2794000Y+254000D02*
X+2736850Y+196850D01*
X+2794000Y+330200D02*
X+2832100Y+330200D01*
X+2870200Y+292100D01*
X+2870200Y+215900D01*
X+2832100Y+177800D01*
X+2755900Y+177800D01*
X+2736850Y+196850D01*
X+2717800Y+215900D01*
X+2717800Y+292100D01*
X+2755900Y+330200D01*
X+2794000Y+330200D01*
X+3060700Y+1016000D02*
X+3054349Y+1016000D01*
X+2921000Y+882651D01*
X+2921000Y+177800D01*
X+2832100Y+88900D01*
X+2197100Y+88900D01*
X+2108200Y+177800D01*
X+3587750Y+1176000D02*
X+3573800Y+1176000D01*
X+3472180Y+1277620D01*
X+3319780Y+1277620D01*
X+3063650Y+2033200D02*
X+3082700Y+2033200D01*
X+3120800Y+2033200D01*
X+3133500Y+2033200D01*
X+3063650Y+2033200D02*
X+2917600Y+2033200D01*
X+3133500Y+2033200D02*
X+3133500Y+2045900D01*
D11*
X+3120800Y+2033200D02*
X+3133500Y+2045900D01*
D10*
X+2917600Y+2020500D02*
X+3082700Y+2020500D01*
X+3108100Y+2020500D01*
X+3133500Y+2020500D01*
X+3082700Y+2020500D02*
X+3082700Y+2033200D01*
X+3133500Y+2020500D02*
X+3133500Y+2033200D01*
D11*
X+3108100Y+2020500D02*
X+3120800Y+2033200D01*
D10*
X+3133500Y+2007800D02*
X+3095400Y+2007800D01*
X+3082700Y+2007800D01*
X+2917600Y+2007800D01*
X+2866800Y+2007800D01*
D11*
X+2917600Y+1995100D02*
X+2917600Y+2007800D01*
X+2917600Y+2020500D01*
D10*
X+3082700Y+1995100D02*
X+3082700Y+2007800D01*
X+3082700Y+2020500D01*
X+2866800Y+2020500D02*
X+2866800Y+2007800D01*
X+3133500Y+2007800D02*
X+3133500Y+2020500D01*
D11*
X+3082700Y+1995100D02*
X+3095400Y+2007800D01*
X+3108100Y+2020500D01*
D10*
X+2866800Y+1988750D02*
X+3133500Y+1988750D01*
X+2866800Y+2007800D02*
X+2866800Y+1988750D01*
X+3133500Y+1988750D02*
X+3133500Y+2007800D01*
X+3133500Y+1976050D02*
X+2866800Y+1976050D01*
X+2866800Y+1988750D02*
X+2866800Y+1976050D01*
X+3133500Y+1976050D02*
X+3133500Y+1988750D01*
X+2866800Y+1969700D02*
X+3133500Y+1969700D01*
X+2866800Y+1976050D02*
X+2866800Y+1969700D01*
X+2866800Y+1957000D01*
X+3133500Y+1957000D01*
X+3133500Y+1969700D01*
X+3133500Y+1976050D01*
D11*
X+2885850Y+2020500D02*
X+2885850Y+2033200D01*
D10*
X+2866800Y+2020500D02*
X+2885850Y+2020500D01*
X+2917600Y+2020500D01*
X+2885850Y+2033200D02*
X+2866800Y+2033200D01*
X+2866800Y+2026850D02*
X+2866800Y+2033200D01*
X+2866800Y+2026850D02*
X+2866800Y+2020500D01*
D11*
X+3028500Y+2236400D02*
X+3028500Y+2259100D01*
D10*
X+2911250Y+2033200D02*
X+2885850Y+2058600D01*
X+2868275Y+2076175D01*
X+2917600Y+2033200D02*
X+2911250Y+2033200D01*
X+2885850Y+2033200D01*
X+2866800Y+2033200D02*
X+2866800Y+2074700D01*
X+2868275Y+2076175D01*
X+3028500Y+2236400D01*
D11*
X+2885850Y+2033200D02*
X+2885850Y+2058600D01*
X+2885850Y+2080650D01*
X+3028500Y+2223300D01*
X+3028500Y+2236400D01*
D10*
X+3317650Y+2132820D02*
X+3288500Y+2161970D01*
D11*
X+3288500Y+2132820D02*
X+3288500Y+2132819D01*
X+3288500Y+2161970D01*
X+3288500Y+2259100D01*
X+3353500Y+2259100D02*
X+3353500Y+2151600D01*
X+3334720Y+2132820D01*
X+3317650Y+2132820D01*
X+3288500Y+2132820D01*
X+3133500Y+2045900D02*
X+3220420Y+2132820D01*
D10*
X+3288500Y+2161970D02*
X+3261330Y+2134800D01*
X+3259350Y+2132820D01*
D11*
X+3288500Y+2132820D02*
X+3259350Y+2132820D01*
X+3220420Y+2132820D01*
X+3222400Y+2134800D01*
X+3261330Y+2134800D01*
X+3286520Y+2134800D01*
X+3288500Y+2132820D01*
D10*
X+3556000Y+254000D02*
X+3486150Y+184150D01*
X+3356661Y+54661D01*
X+961339Y+54661D01*
X+762000Y+254000D01*
X+3556000Y+254000D02*
X+3556000Y+330200D01*
X+3619500Y+330200D01*
X+3632200Y+317500D01*
X+3632200Y+190500D01*
X+3619500Y+177800D01*
X+3492500Y+177800D01*
X+3486150Y+184150D01*
X+3479800Y+190500D01*
X+3479800Y+317500D01*
X+3486150Y+323850D01*
X+508000Y+508000D02*
X+254000Y+762000D01*
X+762000Y+762000D02*
X+1016000Y+508000D01*
X+1270000Y+762000D02*
X+1524000Y+508000D01*
X+1778000Y+762000D02*
X+2032000Y+508000D01*
X+2286000Y+762000D02*
X+2032000Y+1016000D01*
X+1524000Y+1016000D02*
X+1016000Y+1016000D01*
X+508000Y+1016000D02*
X+254000Y+1270000D01*
X+762000Y+1270000D02*
X+1270000Y+1270000D01*
X+2374900Y+1327150D02*
X+2374900Y+1270000D01*
X+2374900Y+1176000D01*
X+2374900Y+1175060D01*
X+2378428Y+1171532D01*
X+2032000Y+1270000D02*
X+2032000Y+1524000D01*
X+1524000Y+1524000D02*
X+1016000Y+1524000D01*
X+508000Y+1524000D02*
X+254000Y+1778000D01*
X+762000Y+1778000D02*
X+1778000Y+1778000D01*
X+1778000Y+1270000D02*
X+2032000Y+1270000D01*
X+2374900Y+1270000D01*
X+254000Y+1778000D02*
X+254000Y+2286000D01*
X+508000Y+2540000D02*
X+640300Y+2540000D01*
X+1016000Y+2540000D01*
X+762000Y+2794000D02*
X+640300Y+2794000D01*
X+254000Y+2794000D01*
X+508000Y+3556000D02*
X+1016000Y+3556000D01*
X+640300Y+2334700D02*
X+640300Y+2540000D01*
X+640300Y+2794000D01*
X+640300Y+2995500D01*
X+640300Y+2999300D01*
X+2286000Y+3556000D02*
X+2286000Y+3225183D01*
X+2286000Y+3048000D01*
X+1435300Y+3441500D02*
X+1651617Y+3225183D01*
X+2286000Y+3225183D01*
X+2451717Y+3225183D01*
X+2527300Y+3149600D01*
X+2032000Y+3556000D02*
X+2286000Y+3556000D01*
X+2540000Y+3556000D01*
X+1524000Y+2540000D02*
X+1270000Y+2794000D01*
X+254000Y+3784600D02*
X+254000Y+3810000D01*
X+254000Y+4318000D01*
X+254000Y+4826000D02*
X+762000Y+4826000D01*
X+508000Y+4572000D02*
X+762000Y+4318000D01*
X+508000Y+4064000D02*
X+762000Y+3810000D01*
X+1016000Y+4064000D02*
X+1270000Y+3810000D01*
X+1524000Y+4064000D02*
X+1778000Y+3810000D01*
X+2032000Y+4064000D02*
X+2286000Y+3810000D01*
X+2540000Y+4064000D02*
X+2794000Y+3810000D01*
X+254000Y+3302000D02*
X+254000Y+3784600D01*
X+2286000Y+4318000D02*
X+1778000Y+4318000D01*
X+1270000Y+4318000D02*
X+1016000Y+4572000D01*
X+1270000Y+4826000D02*
X+1778000Y+4826000D01*
X+1524000Y+4572000D02*
X+2032000Y+4572000D01*
X+2794000Y+4826000D02*
X+3048000Y+4572000D01*
X+3302000Y+4318000D02*
X+3556000Y+4064000D01*
X+3810000Y+4318000D02*
X+4064000Y+4572000D01*
X+4318000Y+4826000D02*
X+3810000Y+4826000D01*
X+3556000Y+4572000D02*
X+3302000Y+4826000D01*
X+4064000Y+4064000D02*
X+4318000Y+4318000D01*
X+4572000Y+4572000D02*
X+4826000Y+4826000D01*
X+5080000Y+4572000D02*
X+4826000Y+4318000D01*
X+4572000Y+4064000D02*
X+4318000Y+3810000D01*
X+4038600Y+3581400D02*
X+4064000Y+3556000D01*
X+4318000Y+3302000D01*
X+4572000Y+3556000D02*
X+4826000Y+3810000D01*
X+5080000Y+4064000D02*
X+5334000Y+3810000D01*
X+4038600Y+3581400D02*
X+3810000Y+3810000D01*
X+5080000Y+3556000D02*
X+4826000Y+3302000D01*
X+4572000Y+3048000D02*
X+4318000Y+2794000D01*
X+3810000Y+2794000D01*
X+3302000Y+2794000D02*
X+3458918Y+2637082D01*
X+3483500Y+2612500D01*
X+3556000Y+2540000D01*
X+4064000Y+2540000D02*
X+4428057Y+2540000D01*
X+4572000Y+2540000D01*
X+4826000Y+2794000D02*
X+5080000Y+3048000D01*
X+5080000Y+2540000D02*
X+4826000Y+2286000D01*
X+4572000Y+2032000D02*
X+4434304Y+2169696D01*
X+4318000Y+2286000D01*
X+3418500Y+2637082D02*
X+3458918Y+2637082D01*
X+3483500Y+2637082D01*
X+4330975Y+2637082D01*
X+4428057Y+2540000D01*
X+4434304Y+2533753D01*
X+4434304Y+2169696D01*
X+3483500Y+2259100D02*
X+3483500Y+2612500D01*
X+3483500Y+2637082D01*
X+5334000Y+2844800D02*
X+5334000Y+2794000D01*
X+5334000Y+2286000D01*
X+5334000Y+1778000D02*
X+5334000Y+1270000D01*
X+5080000Y+1016000D02*
X+5080000Y+1524000D01*
X+5080000Y+2032000D02*
X+4826000Y+1778000D01*
X+4826000Y+1270000D02*
X+4826000Y+762000D01*
X+5080000Y+508000D02*
X+4572000Y+508000D01*
X+4572000Y+1016000D02*
X+4572000Y+1524000D01*
X+5334000Y+3302000D02*
X+5334000Y+2844800D01*
X+4572000Y+1524000D02*
X+4318000Y+1270000D01*
X+4064000Y+1524000D02*
X+4058681Y+1524000D01*
X+3556000Y+1524000D01*
X+4434304Y+2169696D02*
X+4434304Y+1899623D01*
X+4058681Y+1524000D01*
X+4021831Y+1487150D01*
X+3060700Y+1487150D01*
X+3810000Y+1270000D02*
X+4064000Y+1016000D01*
X+4318000Y+762000D02*
X+4064000Y+508000D01*
X+3810000Y+762000D02*
X+3556000Y+508000D01*
X+3810000Y+762000D02*
X+3416300Y+762000D01*
X+3048000Y+762000D01*
X+3416300Y+1016000D02*
X+3416300Y+762000D01*
X+3416300Y+393700D01*
X+3486150Y+323850D01*
D13*
X+2527300Y+2984500D03*
X+3093500Y+2418300D03*
X+2527300Y+2730500D03*
X+3158500Y+2348000D03*
X+3713500Y+3149600D03*
X+3188500Y+3149600D03*
X+2527300Y+3149600D03*
X+2687300Y+3314700D03*
X+3082700Y+1995100D03*
X+4009800Y+1995100D03*
X+2895100Y+1016000D03*
X+3319780Y+1277620D03*
X+3587750Y+1016000D03*
X+2788900Y+3213100D03*
X+2917600Y+1995100D03*
X+2540000Y+1487150D03*
X+2540000Y+1614150D03*
X+762000Y+254000D03*
X+508000Y+508000D03*
X+254000Y+762000D03*
X+762000Y+762000D03*
X+1016000Y+508000D03*
X+1270000Y+762000D03*
X+1524000Y+508000D03*
X+1778000Y+762000D03*
X+2032000Y+508000D03*
X+2286000Y+762000D03*
X+2032000Y+1016000D03*
X+1524000Y+1016000D03*
X+1016000Y+1016000D03*
X+508000Y+1016000D03*
X+254000Y+1270000D03*
X+762000Y+1270000D03*
X+1270000Y+1270000D03*
X+1778000Y+1270000D03*
X+2374900Y+1327150D03*
X+2374900Y+1176000D03*
X+2540000Y+1176000D03*
X+2540000Y+1327150D03*
X+2800100Y+1016000D03*
X+2716550Y+1487150D03*
X+3060700Y+1487150D03*
X+3416300Y+1016000D03*
X+2032000Y+1524000D03*
X+1524000Y+1524000D03*
X+1016000Y+1524000D03*
X+508000Y+1524000D03*
X+254000Y+1778000D03*
X+762000Y+1778000D03*
X+1778000Y+1778000D03*
X+2286000Y+1778000D03*
X+254000Y+2286000D03*
X+508000Y+2540000D03*
X+1016000Y+2540000D03*
X+762000Y+2794000D03*
X+254000Y+2794000D03*
X+254000Y+3302000D03*
X+254000Y+3810000D03*
X+508000Y+3556000D03*
X+1016000Y+3556000D03*
X+2032000Y+3556000D03*
X+2540000Y+3556000D03*
X+3048000Y+3556000D03*
X+2286000Y+3048000D03*
X+1524000Y+2540000D03*
X+1270000Y+2794000D03*
X+1524000Y+3048000D03*
X+2527300Y+2146300D03*
X+2917600Y+1835100D03*
X+3082700Y+1835100D03*
X+3250050Y+1995100D03*
X+4009800Y+1835100D03*
X+3440550Y+2005100D03*
X+3660550Y+1835100D03*
X+254000Y+4318000D03*
X+254000Y+4826000D03*
X+762000Y+4826000D03*
X+508000Y+4572000D03*
X+762000Y+4318000D03*
X+508000Y+4064000D03*
X+762000Y+3810000D03*
X+1016000Y+4064000D03*
X+1270000Y+3810000D03*
X+1524000Y+4064000D03*
X+1778000Y+3810000D03*
X+2032000Y+4064000D03*
X+2286000Y+3810000D03*
X+2540000Y+4064000D03*
X+2794000Y+3810000D03*
X+2286000Y+4318000D03*
X+1778000Y+4318000D03*
X+1270000Y+4318000D03*
X+1016000Y+4572000D03*
X+1270000Y+4826000D03*
X+1778000Y+4826000D03*
X+1524000Y+4572000D03*
X+2032000Y+4572000D03*
X+2794000Y+4826000D03*
X+3048000Y+4572000D03*
X+3302000Y+4318000D03*
X+3556000Y+4064000D03*
X+3810000Y+4318000D03*
X+4064000Y+4572000D03*
X+4318000Y+4826000D03*
X+3810000Y+4826000D03*
X+3556000Y+4572000D03*
X+3302000Y+4826000D03*
X+4064000Y+3556000D03*
X+3810000Y+3810000D03*
X+4064000Y+4064000D03*
X+4318000Y+4318000D03*
X+4572000Y+4572000D03*
X+4826000Y+4826000D03*
X+5080000Y+4572000D03*
X+4826000Y+4318000D03*
X+4572000Y+4064000D03*
X+4318000Y+3810000D03*
X+4318000Y+3302000D03*
X+4572000Y+3556000D03*
X+4826000Y+3810000D03*
X+5080000Y+4064000D03*
X+5334000Y+3810000D03*
X+5080000Y+3556000D03*
X+4826000Y+3302000D03*
X+4572000Y+3048000D03*
X+4318000Y+2794000D03*
X+4064000Y+3048000D03*
X+3810000Y+2794000D03*
X+3302000Y+2794000D03*
X+3556000Y+2540000D03*
X+4064000Y+2540000D03*
X+4572000Y+2540000D03*
X+4826000Y+2794000D03*
X+5080000Y+3048000D03*
X+5334000Y+3302000D03*
X+5334000Y+2794000D03*
X+5080000Y+2540000D03*
X+4826000Y+2286000D03*
X+4572000Y+2032000D03*
X+4318000Y+2286000D03*
X+5334000Y+2286000D03*
X+5334000Y+1778000D03*
X+5334000Y+1270000D03*
X+5080000Y+1016000D03*
X+5080000Y+1524000D03*
X+5080000Y+2032000D03*
X+4826000Y+1778000D03*
X+4826000Y+1270000D03*
X+4826000Y+762000D03*
X+5080000Y+508000D03*
X+4572000Y+508000D03*
X+4572000Y+1016000D03*
X+4572000Y+1524000D03*
X+4318000Y+1778000D03*
X+4318000Y+1270000D03*
X+4064000Y+1524000D03*
X+3556000Y+1524000D03*
X+3810000Y+1270000D03*
X+4064000Y+1016000D03*
X+4318000Y+762000D03*
X+4064000Y+508000D03*
X+3810000Y+762000D03*
X+3556000Y+508000D03*
X+3048000Y+762000D03*
D10*
X+2584450Y+1607800D02*
X+2584450Y+1525250D01*
X+2580027Y+1525250D01*
X+2562883Y+1542394D01*
X+2517117Y+1542394D01*
X+2499973Y+1525250D01*
X+2419350Y+1525250D01*
X+2419350Y+1531600D01*
X+2520950Y+1633200D01*
X+2524027Y+1633200D01*
X+2515235Y+1624408D01*
X+2515235Y+1603892D01*
X+2529742Y+1589385D01*
X+2550258Y+1589385D01*
X+2564765Y+1603892D01*
X+2564765Y+1624408D01*
X+2555973Y+1633200D01*
X+2559050Y+1633200D01*
X+2584450Y+1607800D01*
X+2724150Y+1047750D02*
X+2724150Y+971550D01*
X+2609850Y+863600D01*
X+2609850Y+304800D01*
X+2569846Y+304800D01*
X+2563621Y+311025D01*
X+2516379Y+311025D01*
X+2510154Y+304800D01*
X+2470150Y+304800D01*
X+2470150Y+831850D01*
X+2330450Y+971550D01*
X+2330450Y+1047750D01*
X+2336800Y+1054100D01*
X+2717800Y+1054100D01*
X+2724150Y+1047750D01*
X+2695575Y+1012055D02*
X+2695575Y+1019945D01*
X+2701155Y+1025525D01*
X+2709045Y+1025525D01*
X+2714625Y+1019945D01*
X+2714625Y+1012055D01*
X+2709045Y+1006475D01*
X+2701155Y+1006475D01*
X+2695575Y+1012055D01*
X+2543945Y+1006475D02*
X+2536055Y+1006475D01*
X+2530475Y+1012055D01*
X+2530475Y+1019945D01*
X+2536055Y+1025525D01*
X+2543945Y+1025525D01*
X+2549525Y+1019945D01*
X+2549525Y+1012055D01*
X+2543945Y+1006475D01*
X+2378845Y+1006475D02*
X+2370955Y+1006475D01*
X+2365375Y+1012055D01*
X+2365375Y+1019945D01*
X+2370955Y+1025525D01*
X+2378845Y+1025525D01*
X+2384425Y+1019945D01*
X+2384425Y+1012055D01*
X+2378845Y+1006475D01*
X+2540000Y+311025D02*
X+2540000Y+254000D01*
X+2695575Y+1016000D02*
X+2705100Y+1016000D01*
X+2714625Y+1016000D02*
X+2705100Y+1016000D01*
X+2705100Y+1006475D02*
X+2705100Y+1016000D01*
X+2705100Y+1025525D02*
X+2705100Y+1016000D01*
X+2540000Y+1006475D02*
X+2540000Y+1016000D01*
X+2540000Y+1025525D02*
X+2540000Y+1016000D01*
X+2549525Y+1016000D02*
X+2540000Y+1016000D01*
X+2530475Y+1016000D02*
X+2540000Y+1016000D01*
X+2374900Y+1006475D02*
X+2374900Y+1016000D01*
X+2374900Y+1025525D02*
X+2374900Y+1016000D01*
X+2384425Y+1016000D02*
X+2374900Y+1016000D01*
X+2365375Y+1016000D02*
X+2374900Y+1016000D01*
X+5307966Y+5196216D02*
X+5307966Y+4053216D01*
X+5561965Y+3799217D01*
X+5561965Y+518783D01*
X+5307965Y+264783D01*
X+5307965Y+128257D01*
X+5305810Y+106112D01*
X+5300031Y+87027D01*
X+5290904Y+69961D01*
X+5278793Y+55211D01*
X+5264038Y+43095D01*
X+5246971Y+33968D01*
X+5227887Y+28190D01*
X+5205743Y+26035D01*
X+128257Y+26035D01*
X+106112Y+28190D01*
X+87028Y+33968D01*
X+69962Y+43095D01*
X+55207Y+55211D01*
X+43096Y+69961D01*
X+33969Y+87027D01*
X+28190Y+106112D01*
X+26035Y+128257D01*
X+26035Y+5205743D01*
X+28190Y+5227887D01*
X+33969Y+5246973D01*
X+43096Y+5264039D01*
X+55208Y+5278792D01*
X+69961Y+5290904D01*
X+87027Y+5300031D01*
X+106112Y+5305810D01*
X+128257Y+5307965D01*
X+5196217Y+5307965D01*
X+5307966Y+5196216D01*
X+5337320Y+946571D02*
X+5337320Y+946572D01*
X+5380860Y+940974D01*
X+5426171Y+922434D01*
X+5428984Y+920250D01*
X+5466838Y+890851D01*
X+5469060Y+887729D01*
X+5499996Y+844254D01*
X+5503236Y+830594D01*
X+5519507Y+762000D01*
X+5518082Y+755992D01*
X+5499996Y+679746D01*
X+5466838Y+633149D01*
X+5426171Y+601566D01*
X+5380860Y+583026D01*
X+5334000Y+577002D01*
X+5330680Y+577428D01*
X+5287140Y+583026D01*
X+5241829Y+601566D01*
X+5239016Y+603750D01*
X+5201162Y+633149D01*
X+5198940Y+636271D01*
X+5168004Y+679746D01*
X+5164764Y+693406D01*
X+5148493Y+762000D01*
X+5149918Y+768008D01*
X+5168004Y+844254D01*
X+5201162Y+890851D01*
X+5241829Y+922434D01*
X+5287140Y+940974D01*
X+5334000Y+946998D01*
X+5337320Y+946571D01*
X+5337320Y+3740571D02*
X+5337320Y+3740572D01*
X+5380860Y+3734974D01*
X+5426171Y+3716434D01*
X+5428984Y+3714250D01*
X+5466838Y+3684851D01*
X+5469060Y+3681729D01*
X+5499996Y+3638254D01*
X+5503236Y+3624594D01*
X+5519507Y+3556000D01*
X+5518082Y+3549992D01*
X+5499996Y+3473746D01*
X+5466838Y+3427149D01*
X+5426171Y+3395566D01*
X+5380860Y+3377026D01*
X+5334000Y+3371002D01*
X+5330680Y+3371428D01*
X+5287140Y+3377026D01*
X+5241829Y+3395566D01*
X+5239016Y+3397750D01*
X+5201162Y+3427149D01*
X+5198940Y+3430271D01*
X+5168004Y+3473746D01*
X+5164764Y+3487406D01*
X+5148493Y+3556000D01*
X+5149918Y+3562008D01*
X+5168004Y+3638254D01*
X+5201162Y+3684851D01*
X+5241829Y+3716434D01*
X+5287140Y+3734974D01*
X+5334000Y+3740998D01*
X+5337320Y+3740571D01*
X+257320Y+5264571D02*
X+257320Y+5264572D01*
X+300860Y+5258974D01*
X+346171Y+5240434D01*
X+348984Y+5238250D01*
X+386838Y+5208851D01*
X+389060Y+5205729D01*
X+419996Y+5162254D01*
X+423236Y+5148594D01*
X+439507Y+5080000D01*
X+438082Y+5073992D01*
X+419996Y+4997746D01*
X+386838Y+4951149D01*
X+346171Y+4919566D01*
X+300860Y+4901026D01*
X+254000Y+4895002D01*
X+250680Y+4895428D01*
X+207140Y+4901026D01*
X+161829Y+4919566D01*
X+159016Y+4921750D01*
X+121162Y+4951149D01*
X+118940Y+4954271D01*
X+88004Y+4997746D01*
X+84764Y+5011406D01*
X+68493Y+5080000D01*
X+69918Y+5086008D01*
X+88004Y+5162254D01*
X+121162Y+5208851D01*
X+161829Y+5240434D01*
X+207140Y+5258974D01*
X+254000Y+5264998D01*
X+257320Y+5264571D01*
X+257320Y+438571D02*
X+257320Y+438572D01*
X+300860Y+432974D01*
X+346171Y+414434D01*
X+348984Y+412250D01*
X+386838Y+382851D01*
X+389060Y+379729D01*
X+419996Y+336254D01*
X+423236Y+322594D01*
X+439507Y+254000D01*
X+438082Y+247992D01*
X+419996Y+171746D01*
X+386838Y+125149D01*
X+346171Y+93566D01*
X+300860Y+75026D01*
X+254000Y+69002D01*
X+250680Y+69428D01*
X+207140Y+75026D01*
X+161829Y+93566D01*
X+159016Y+95750D01*
X+121162Y+125149D01*
X+118940Y+128271D01*
X+88004Y+171746D01*
X+84764Y+185406D01*
X+68493Y+254000D01*
X+69918Y+260008D01*
X+88004Y+336254D01*
X+121162Y+382851D01*
X+161829Y+414434D01*
X+207140Y+432974D01*
X+254000Y+438998D01*
X+257320Y+438571D01*
X+2573250Y+1667490D02*
X+2573252Y+1667490D01*
X+2618740Y+1622002D01*
X+2618740Y+1511048D01*
X+2618739Y+1511047D01*
X+2618739Y+1487053D01*
X+2642539Y+1463253D01*
X+2642539Y+1463251D01*
X+2755026Y+1350764D01*
X+2762864Y+1350764D01*
X+2762864Y+1342926D01*
X+2764789Y+1341001D01*
X+2764789Y+1217349D01*
X+2762864Y+1215424D01*
X+2762864Y+1201236D01*
X+2748676Y+1201236D01*
X+2744701Y+1197261D01*
X+2659149Y+1197261D01*
X+2655174Y+1201236D01*
X+2647336Y+1201236D01*
X+2647336Y+1209074D01*
X+2639061Y+1217349D01*
X+2639061Y+1323497D01*
X+2547797Y+1414761D01*
X+2309897Y+1414761D01*
X+2307272Y+1417386D01*
X+2297636Y+1417386D01*
X+2297636Y+1427022D01*
X+2289811Y+1434847D01*
X+2289811Y+1539451D01*
X+2297636Y+1547276D01*
X+2297636Y+1556914D01*
X+2307274Y+1556914D01*
X+2309899Y+1559539D01*
X+2398797Y+1559539D01*
X+2506748Y+1667490D01*
X+2506750Y+1667490D01*
X+2513099Y+1673839D01*
X+2566901Y+1673839D01*
X+2573250Y+1667490D01*
X+2748676Y+1090764D02*
X+2762864Y+1090764D01*
X+2762864Y+1076576D01*
X+2764789Y+1074651D01*
X+2764789Y+957347D01*
X+2762864Y+955422D01*
X+2762864Y+941236D01*
X+2748678Y+941236D01*
X+2744703Y+937261D01*
X+2744701Y+937261D01*
X+2650489Y+843049D01*
X+2650489Y+201699D01*
X+2592301Y+143511D01*
X+2487699Y+143511D01*
X+2429511Y+201699D01*
X+2429511Y+817649D01*
X+2309899Y+937261D01*
X+2309897Y+937261D01*
X+2300922Y+946236D01*
X+2297636Y+946236D01*
X+2297636Y+949522D01*
X+2289811Y+957347D01*
X+2289811Y+1074651D01*
X+2297636Y+1082476D01*
X+2297636Y+1085764D01*
X+2300924Y+1085764D01*
X+2309899Y+1094739D01*
X+2744701Y+1094739D01*
X+2748676Y+1090764D01*
X+1099426Y+358764D02*
X+1120764Y+358764D01*
X+1120764Y+337426D01*
X+1126489Y+331701D01*
X+1126489Y+176299D01*
X+1120764Y+170574D01*
X+1120764Y+149236D01*
X+1099426Y+149236D01*
X+1093701Y+143511D01*
X+938299Y+143511D01*
X+932574Y+149236D01*
X+911236Y+149236D01*
X+911236Y+170574D01*
X+905511Y+176299D01*
X+905511Y+331701D01*
X+911236Y+337426D01*
X+911236Y+358764D01*
X+932574Y+358764D01*
X+938299Y+364489D01*
X+1093701Y+364489D01*
X+1099426Y+358764D01*
X+1332345Y+354445D02*
X+1380489Y+306301D01*
X+1380489Y+201699D01*
X+1322301Y+143511D01*
X+1217699Y+143511D01*
X+1159511Y+201699D01*
X+1159511Y+306301D01*
X+1217699Y+364489D01*
X+1322301Y+364489D01*
X+1332345Y+354445D01*
X+1586345Y+354445D02*
X+1634489Y+306301D01*
X+1634489Y+201699D01*
X+1576301Y+143511D01*
X+1471699Y+143511D01*
X+1413511Y+201699D01*
X+1413511Y+306301D01*
X+1471699Y+364489D01*
X+1576301Y+364489D01*
X+1586345Y+354445D01*
X+1840345Y+354445D02*
X+1888489Y+306301D01*
X+1888489Y+201699D01*
X+1830301Y+143511D01*
X+1725699Y+143511D01*
X+1667511Y+201699D01*
X+1667511Y+306301D01*
X+1725699Y+364489D01*
X+1830301Y+364489D01*
X+1840345Y+354445D01*
X+3137964Y+1257386D02*
X+3094989Y+1257386D01*
X+3094989Y+1245764D01*
X+3137964Y+1245764D01*
X+3137964Y+1147226D01*
X+3194896Y+1090294D01*
X+3286124Y+1090294D01*
X+3286124Y+941706D01*
X+3165476Y+941706D01*
X+3165476Y+1022734D01*
X+3137964Y+1050246D01*
X+3137964Y+946236D01*
X+3033075Y+946236D01*
X+2955289Y+868450D01*
X+2955289Y+163599D01*
X+2846301Y+54611D01*
X+2182899Y+54611D01*
X+2093999Y+143511D01*
X+1979699Y+143511D01*
X+1921511Y+201699D01*
X+1921511Y+306301D01*
X+1979699Y+364489D01*
X+2084301Y+364489D01*
X+2142489Y+306301D01*
X+2142489Y+192001D01*
X+2211301Y+123189D01*
X+2817899Y+123189D01*
X+2886711Y+192001D01*
X+2886711Y+896852D01*
X+2931095Y+941236D01*
X+2837336Y+941236D01*
X+2837336Y+1090764D01*
X+2952864Y+1090764D01*
X+2952864Y+963005D01*
X+2983436Y+993577D01*
X+2983436Y+1085764D01*
X+3102446Y+1085764D01*
X+3081974Y+1106236D01*
X+2983436Y+1106236D01*
X+2983436Y+1245764D01*
X+3026411Y+1245764D01*
X+3026411Y+1257386D01*
X+2983436Y+1257386D01*
X+2983436Y+1396914D01*
X+3137964Y+1396914D01*
X+3137964Y+1257386D01*
X+2348345Y+354445D02*
X+2396489Y+306301D01*
X+2396489Y+201699D01*
X+2338301Y+143511D01*
X+2233699Y+143511D01*
X+2175511Y+201699D01*
X+2175511Y+306301D01*
X+2233699Y+364489D01*
X+2338301Y+364489D01*
X+2348345Y+354445D01*
X+2736975Y+230379D02*
X+2736975Y+277621D01*
X+2770379Y+311025D01*
X+2817621Y+311025D01*
X+2851025Y+277621D01*
X+2851025Y+230379D01*
X+2817621Y+196975D01*
X+2770379Y+196975D01*
X+2736975Y+230379D01*
X+2990975Y+230379D02*
X+2990975Y+277621D01*
X+3024379Y+311025D01*
X+3071621Y+311025D01*
X+3105025Y+277621D01*
X+3105025Y+230379D01*
X+3071621Y+196975D01*
X+3024379Y+196975D01*
X+2990975Y+230379D01*
X+3364345Y+354445D02*
X+3412489Y+306301D01*
X+3412489Y+201699D01*
X+3354301Y+143511D01*
X+3249699Y+143511D01*
X+3191511Y+201699D01*
X+3191511Y+306301D01*
X+3249699Y+364489D01*
X+3354301Y+364489D01*
X+3364345Y+354445D01*
X+3498975Y+230379D02*
X+3498975Y+277621D01*
X+3532379Y+311025D01*
X+3579621Y+311025D01*
X+3613025Y+277621D01*
X+3613025Y+230379D01*
X+3579621Y+196975D01*
X+3532379Y+196975D01*
X+3498975Y+230379D01*
X+3872345Y+354445D02*
X+3920489Y+306301D01*
X+3920489Y+201699D01*
X+3862301Y+143511D01*
X+3757699Y+143511D01*
X+3699511Y+201699D01*
X+3699511Y+306301D01*
X+3757699Y+364489D01*
X+3862301Y+364489D01*
X+3872345Y+354445D01*
X+4126345Y+354445D02*
X+4174489Y+306301D01*
X+4174489Y+201699D01*
X+4116301Y+143511D01*
X+4011699Y+143511D01*
X+3953511Y+201699D01*
X+3953511Y+306301D01*
X+4011699Y+364489D01*
X+4116301Y+364489D01*
X+4126345Y+354445D01*
X+4380345Y+354445D02*
X+4428489Y+306301D01*
X+4428489Y+201699D01*
X+4370301Y+143511D01*
X+4265699Y+143511D01*
X+4207511Y+201699D01*
X+4207511Y+306301D01*
X+4265699Y+364489D01*
X+4370301Y+364489D01*
X+4380345Y+354445D01*
X+4634345Y+354445D02*
X+4682489Y+306301D01*
X+4682489Y+201699D01*
X+4624301Y+143511D01*
X+4519699Y+143511D01*
X+4461511Y+201699D01*
X+4461511Y+306301D01*
X+4519699Y+364489D01*
X+4624301Y+364489D01*
X+4634345Y+354445D01*
X+4888345Y+354445D02*
X+4936489Y+306301D01*
X+4936489Y+201699D01*
X+4878301Y+143511D01*
X+4773699Y+143511D01*
X+4715511Y+201699D01*
X+4715511Y+306301D01*
X+4773699Y+364489D01*
X+4878301Y+364489D01*
X+4888345Y+354445D01*
X+5142345Y+354445D02*
X+5190489Y+306301D01*
X+5190489Y+201699D01*
X+5132301Y+143511D01*
X+5027699Y+143511D01*
X+4969511Y+201699D01*
X+4969511Y+306301D01*
X+5027699Y+364489D01*
X+5132301Y+364489D01*
X+5142345Y+354445D01*
X+693026Y+5184764D02*
X+714364Y+5184764D01*
X+714364Y+5163426D01*
X+720089Y+5157701D01*
X+720089Y+5002299D01*
X+714364Y+4996574D01*
X+714364Y+4975236D01*
X+693026Y+4975236D01*
X+687301Y+4969511D01*
X+531899Y+4969511D01*
X+526174Y+4975236D01*
X+504836Y+4975236D01*
X+504836Y+4996574D01*
X+499111Y+5002299D01*
X+499111Y+5157701D01*
X+504836Y+5163426D01*
X+504836Y+5184764D01*
X+526174Y+5184764D01*
X+531899Y+5190489D01*
X+687301Y+5190489D01*
X+693026Y+5184764D01*
X+925945Y+5180445D02*
X+974089Y+5132301D01*
X+974089Y+5027699D01*
X+915901Y+4969511D01*
X+811299Y+4969511D01*
X+753111Y+5027699D01*
X+753111Y+5132301D01*
X+811299Y+5190489D01*
X+915901Y+5190489D01*
X+925945Y+5180445D01*
X+2339773Y+5224722D02*
X+2545368Y+5224722D01*
X+2579601Y+5190489D01*
X+2693901Y+5190489D01*
X+2752089Y+5132301D01*
X+2752089Y+5027699D01*
X+2693901Y+4969511D01*
X+2589299Y+4969511D01*
X+2531111Y+5027699D01*
X+2531111Y+5141999D01*
X+2516966Y+5156144D01*
X+2474246Y+5156144D01*
X+2498089Y+5132301D01*
X+2498089Y+5027699D01*
X+2439901Y+4969511D01*
X+2341027Y+4969511D01*
X+3580399Y+3730139D01*
X+4537711Y+4687451D01*
X+4537711Y+4951499D01*
X+4532574Y+4956636D01*
X+4532572Y+4956636D01*
X+4499611Y+4989597D01*
X+4499611Y+4989599D01*
X+4461511Y+5027699D01*
X+4461511Y+5132301D01*
X+4519699Y+5190489D01*
X+4624301Y+5190489D01*
X+4682489Y+5132301D01*
X+4682489Y+5027699D01*
X+4644389Y+4989599D01*
X+4644389Y+4989597D01*
X+4611428Y+4956636D01*
X+4611426Y+4956636D01*
X+4606289Y+4951499D01*
X+4606289Y+4659049D01*
X+3647789Y+3700549D01*
X+3647789Y+3106651D01*
X+3712789Y+3041651D01*
X+3712789Y+3038864D01*
X+3839211Y+3038864D01*
X+3839211Y+3072336D01*
X+3803736Y+3072336D01*
X+3803736Y+3226864D01*
X+3943264Y+3226864D01*
X+3943264Y+3072336D01*
X+3907789Y+3072336D01*
X+3907789Y+3038864D01*
X+3915764Y+3038864D01*
X+3915764Y+2879336D01*
X+3246236Y+2879336D01*
X+3246236Y+3038864D01*
X+3254211Y+3038864D01*
X+3254211Y+3765731D01*
X+2160515Y+4859427D01*
X+1586609Y+4859427D01*
X+1510760Y+4935276D01*
X+1305082Y+4935276D01*
X+1226872Y+5013486D01*
X+1226872Y+5026482D01*
X+1169901Y+4969511D01*
X+1065299Y+4969511D01*
X+1007111Y+5027699D01*
X+1007111Y+5132301D01*
X+1065299Y+5190489D01*
X+1169901Y+5190489D01*
X+1226872Y+5133518D01*
X+1226872Y+5146422D01*
X+1305141Y+5224691D01*
X+1510684Y+5224691D01*
X+1544951Y+5258958D01*
X+1913305Y+5258958D01*
X+1947522Y+5293175D01*
X+2271320Y+5293175D01*
X+2339773Y+5224722D01*
X+2957945Y+5180445D02*
X+3006089Y+5132301D01*
X+3006089Y+5027699D01*
X+2947901Y+4969511D01*
X+2843299Y+4969511D01*
X+2785111Y+5027699D01*
X+2785111Y+5132301D01*
X+2843299Y+5190489D01*
X+2947901Y+5190489D01*
X+2957945Y+5180445D01*
X+3385426Y+5184764D02*
X+3406764Y+5184764D01*
X+3406764Y+5163426D01*
X+3412489Y+5157701D01*
X+3412489Y+5002299D01*
X+3406764Y+4996574D01*
X+3406764Y+4975236D01*
X+3385426Y+4975236D01*
X+3379701Y+4969511D01*
X+3224299Y+4969511D01*
X+3218574Y+4975236D01*
X+3197236Y+4975236D01*
X+3197236Y+4996574D01*
X+3191511Y+5002299D01*
X+3191511Y+5157701D01*
X+3197236Y+5163426D01*
X+3197236Y+5184764D01*
X+3218574Y+5184764D01*
X+3224299Y+5190489D01*
X+3379701Y+5190489D01*
X+3385426Y+5184764D01*
X+3618345Y+5180445D02*
X+3666489Y+5132301D01*
X+3666489Y+5027699D01*
X+3608301Y+4969511D01*
X+3503699Y+4969511D01*
X+3445511Y+5027699D01*
X+3445511Y+5132301D01*
X+3503699Y+5190489D01*
X+3608301Y+5190489D01*
X+3618345Y+5180445D01*
X+3872345Y+5180445D02*
X+3920489Y+5132301D01*
X+3920489Y+5027699D01*
X+3862301Y+4969511D01*
X+3757699Y+4969511D01*
X+3699511Y+5027699D01*
X+3699511Y+5132301D01*
X+3757699Y+5190489D01*
X+3862301Y+5190489D01*
X+3872345Y+5180445D01*
X+4126345Y+5180445D02*
X+4174489Y+5132301D01*
X+4174489Y+5027699D01*
X+4116301Y+4969511D01*
X+4011699Y+4969511D01*
X+3953511Y+5027699D01*
X+3953511Y+5132301D01*
X+4011699Y+5190489D01*
X+4116301Y+5190489D01*
X+4126345Y+5180445D01*
X+4380345Y+5180445D02*
X+4428489Y+5132301D01*
X+4428489Y+5027699D01*
X+4370301Y+4969511D01*
X+4265699Y+4969511D01*
X+4207511Y+5027699D01*
X+4207511Y+5132301D01*
X+4265699Y+5190489D01*
X+4370301Y+5190489D01*
X+4380345Y+5180445D01*
X+4888345Y+5180445D02*
X+4936489Y+5132301D01*
X+4936489Y+5027699D01*
X+4878301Y+4969511D01*
X+4773699Y+4969511D01*
X+4715511Y+5027699D01*
X+4715511Y+5132301D01*
X+4773699Y+5190489D01*
X+4878301Y+5190489D01*
X+4888345Y+5180445D01*
X+5142345Y+5180445D02*
X+5190489Y+5132301D01*
X+5190489Y+5027699D01*
X+5132301Y+4969511D01*
X+5027699Y+4969511D01*
X+4969511Y+5027699D01*
X+4969511Y+5132301D01*
X+5027699Y+5190489D01*
X+5132301Y+5190489D01*
X+5142345Y+5180445D01*
X+2757064Y+3306126D02*
X+2790401Y+3272789D01*
X+2815801Y+3272789D01*
X+2848589Y+3240001D01*
X+2848589Y+3186199D01*
X+2815801Y+3153411D01*
X+2761999Y+3153411D01*
X+2757064Y+3158346D01*
X+2757064Y+3072336D01*
X+2727064Y+3072336D01*
X+2727064Y+3061764D01*
X+2757064Y+3061764D01*
X+2757064Y+2907236D01*
X+2727064Y+2907236D01*
X+2727064Y+2807764D01*
X+2757064Y+2807764D01*
X+2757064Y+2686743D01*
X+2888346Y+2686743D01*
X+3059211Y+2857608D01*
X+3059211Y+2879336D01*
X+2986236Y+2879336D01*
X+2986236Y+3038864D01*
X+2994211Y+3038864D01*
X+2994211Y+3072336D01*
X+2958736Y+3072336D01*
X+2958736Y+3226864D01*
X+3098264Y+3226864D01*
X+3098264Y+3072336D01*
X+3062789Y+3072336D01*
X+3062789Y+3038864D01*
X+3200764Y+3038864D01*
X+3200764Y+2879336D01*
X+3192789Y+2879336D01*
X+3192789Y+2845849D01*
X+2930855Y+2583915D01*
X+2693509Y+2583915D01*
X+2663358Y+2553764D01*
X+2757064Y+2553764D01*
X+2757064Y+2399236D01*
X+2721589Y+2399236D01*
X+2721589Y+2388664D01*
X+2757064Y+2388664D01*
X+2757064Y+2234136D01*
X+2721589Y+2234136D01*
X+2721589Y+2223564D01*
X+2757064Y+2223564D01*
X+2757064Y+2069036D01*
X+2617536Y+2069036D01*
X+2617536Y+2223564D01*
X+2653011Y+2223564D01*
X+2653011Y+2234136D01*
X+2617536Y+2234136D01*
X+2617536Y+2353146D01*
X+2597064Y+2332674D01*
X+2597064Y+2234136D01*
X+2457536Y+2234136D01*
X+2457536Y+2332674D01*
X+2227383Y+2562827D01*
X+2154096Y+2562827D01*
X+2129789Y+2538520D01*
X+2129789Y+2424199D01*
X+2071601Y+2366011D01*
X+1966999Y+2366011D01*
X+1908811Y+2424199D01*
X+1908811Y+2528801D01*
X+1959305Y+2579295D01*
X+1890799Y+2647801D01*
X+1890797Y+2647801D01*
X+1870711Y+2667887D01*
X+1870711Y+2703599D01*
X+1827299Y+2747011D01*
X+1712999Y+2747011D01*
X+1654811Y+2805199D01*
X+1654811Y+2909801D01*
X+1712999Y+2967989D01*
X+1817601Y+2967989D01*
X+1875789Y+2909801D01*
X+1875789Y+2795501D01*
X+1908811Y+2762479D01*
X+1908811Y+2782801D01*
X+1965790Y+2839780D01*
X+1948412Y+2839780D01*
X+1928326Y+2859866D01*
X+1928326Y+2859868D01*
X+1902491Y+2885703D01*
X+1902489Y+2885703D01*
X+1882403Y+2905789D01*
X+1874576Y+2913619D01*
X+1874576Y+2954066D01*
X+1827629Y+3001011D01*
X+1712999Y+3001011D01*
X+1654811Y+3059199D01*
X+1654811Y+3163801D01*
X+1712999Y+3221989D01*
X+1817601Y+3221989D01*
X+1875789Y+3163801D01*
X+1875789Y+3049835D01*
X+1908811Y+3016813D01*
X+1908811Y+3036801D01*
X+1966999Y+3094989D01*
X+2071601Y+3094989D01*
X+2109701Y+3056889D01*
X+2109703Y+3056889D01*
X+2129789Y+3036803D01*
X+2129789Y+2922501D01*
X+2142902Y+2909388D01*
X+2403698Y+2909388D01*
X+2457536Y+2963226D01*
X+2457536Y+3061764D01*
X+2597064Y+3061764D01*
X+2597064Y+2907236D01*
X+2498526Y+2907236D01*
X+2448790Y+2857500D01*
X+2498526Y+2807764D01*
X+2597064Y+2807764D01*
X+2597064Y+2683654D01*
X+2617536Y+2704126D01*
X+2617536Y+2807764D01*
X+2647536Y+2807764D01*
X+2647536Y+2907236D01*
X+2617536Y+2907236D01*
X+2617536Y+3061764D01*
X+2647536Y+3061764D01*
X+2647536Y+3072336D01*
X+2617536Y+3072336D01*
X+2617536Y+3163130D01*
X+2543230Y+3237436D01*
X+2457536Y+3237436D01*
X+2457536Y+3391964D01*
X+2597064Y+3391964D01*
X+2597064Y+3296070D01*
X+2617536Y+3275598D01*
X+2617536Y+3391964D01*
X+2757064Y+3391964D01*
X+2757064Y+3306126D01*
X+1827645Y+2703945D02*
X+1875789Y+2655801D01*
X+1875789Y+2551199D01*
X+1817601Y+2493011D01*
X+1712999Y+2493011D01*
X+1654811Y+2551199D01*
X+1654811Y+2655801D01*
X+1712999Y+2713989D01*
X+1817601Y+2713989D01*
X+1827645Y+2703945D01*
X+702645Y+3429945D02*
X+750789Y+3381801D01*
X+750789Y+3248863D01*
X+1654811Y+2344841D01*
X+1654811Y+2401801D01*
X+1712999Y+2459989D01*
X+1817601Y+2459989D01*
X+1875789Y+2401801D01*
X+1875789Y+2297199D01*
X+1817601Y+2239011D01*
X+1760641Y+2239011D01*
X+1984163Y+2015489D01*
X+2457536Y+2015489D01*
X+2457536Y+2058464D01*
X+2597064Y+2058464D01*
X+2597064Y+1903936D01*
X+2487954Y+1903936D01*
X+2498526Y+1893364D01*
X+2597064Y+1893364D01*
X+2597064Y+1738836D01*
X+2457536Y+1738836D01*
X+2457536Y+1837374D01*
X+2382214Y+1912696D01*
X+1941534Y+1912696D01*
X+1523154Y+2331076D01*
X+1015366Y+2331076D01*
X+750789Y+2066499D01*
X+750789Y+1952199D01*
X+692601Y+1894011D01*
X+587999Y+1894011D01*
X+529811Y+1952199D01*
X+529811Y+2056801D01*
X+587999Y+2114989D01*
X+702299Y+2114989D01*
X+986964Y+2399654D01*
X+1503018Y+2399654D01*
X+702299Y+3200373D01*
X+702297Y+3200373D01*
X+683659Y+3219011D01*
X+587999Y+3219011D01*
X+529811Y+3277199D01*
X+529811Y+3381801D01*
X+587999Y+3439989D01*
X+692601Y+3439989D01*
X+702645Y+3429945D01*
X+1962275Y+2198879D02*
X+1962275Y+2246121D01*
X+1995679Y+2279525D01*
X+2042921Y+2279525D01*
X+2076325Y+2246121D01*
X+2076325Y+2198879D01*
X+2042921Y+2165475D01*
X+1995679Y+2165475D01*
X+1962275Y+2198879D01*
X+583275Y+3051879D02*
X+583275Y+3099121D01*
X+616679Y+3132525D01*
X+663921Y+3132525D01*
X+697325Y+3099121D01*
X+697325Y+3051879D01*
X+663921Y+3018475D01*
X+616679Y+3018475D01*
X+583275Y+3051879D01*
X+583275Y+2234879D02*
X+583275Y+2282121D01*
X+616679Y+2315525D01*
X+663921Y+2315525D01*
X+697325Y+2282121D01*
X+697325Y+2234879D01*
X+663921Y+2201475D01*
X+616679Y+2201475D01*
X+583275Y+2234879D01*
X+1473004Y+3350475D02*
X+1397596Y+3350475D01*
X+1344275Y+3403796D01*
X+1344275Y+3479204D01*
X+1397596Y+3532525D01*
X+1473004Y+3532525D01*
X+1526325Y+3479204D01*
X+1526325Y+3403796D01*
X+1473004Y+3350475D01*
X+1473004Y+1801475D02*
X+1397596Y+1801475D01*
X+1344275Y+1854796D01*
X+1344275Y+1930204D01*
X+1397596Y+1983525D01*
X+1473004Y+1983525D01*
X+1526325Y+1930204D01*
X+1526325Y+1854796D01*
X+1473004Y+1801475D01*
X+1174109Y+3132736D02*
X+1086491Y+3132736D01*
X+1024536Y+3194691D01*
X+1024536Y+3282309D01*
X+1086491Y+3344264D01*
X+1174109Y+3344264D01*
X+1236064Y+3282309D01*
X+1236064Y+3194691D01*
X+1174109Y+3132736D01*
X+1174109Y+1989736D02*
X+1086491Y+1989736D01*
X+1024536Y+2051691D01*
X+1024536Y+2139309D01*
X+1086491Y+2201264D01*
X+1174109Y+2201264D01*
X+1236064Y+2139309D01*
X+1236064Y+2051691D01*
X+1174109Y+1989736D01*
X+3213975Y+2955155D02*
X+3213975Y+2963045D01*
X+3219555Y+2968625D01*
X+3227445Y+2968625D01*
X+3233025Y+2963045D01*
X+3233025Y+2955155D01*
X+3227445Y+2949575D01*
X+3219555Y+2949575D01*
X+3213975Y+2955155D01*
X+3133101Y+2465289D02*
X+3133103Y+2465289D01*
X+3153189Y+2445203D01*
X+3153189Y+2407689D01*
X+3185403Y+2407689D01*
X+3205489Y+2387603D01*
X+3205489Y+2387601D01*
X+3218189Y+2374901D01*
X+3218189Y+2321099D01*
X+3205489Y+2308399D01*
X+3205489Y+2308397D01*
X+3200764Y+2303672D01*
X+3200764Y+2179336D01*
X+3040770Y+2179336D01*
X+2928923Y+2067489D01*
X+3098855Y+2067489D01*
X+3205930Y+2174564D01*
X+3248736Y+2174564D01*
X+3248736Y+2179336D01*
X+3246236Y+2179336D01*
X+3246236Y+2338864D01*
X+3395764Y+2338864D01*
X+3395764Y+2179336D01*
X+3393264Y+2179336D01*
X+3393264Y+2135130D01*
X+3351190Y+2093056D01*
X+3236890Y+2093056D01*
X+3167789Y+2023955D01*
X+3167789Y+1942799D01*
X+3159964Y+1934974D01*
X+3159964Y+1925336D01*
X+3150326Y+1925336D01*
X+3147701Y+1922711D01*
X+2852599Y+1922711D01*
X+2849974Y+1925336D01*
X+2840336Y+1925336D01*
X+2840336Y+1934974D01*
X+2832511Y+1942799D01*
X+2832511Y+2088901D01*
X+2986236Y+2242626D01*
X+2986236Y+2338864D01*
X+3059211Y+2338864D01*
X+3059211Y+2365997D01*
X+3046511Y+2378697D01*
X+3046511Y+2378699D01*
X+3033811Y+2391399D01*
X+3033811Y+2445201D01*
X+3066599Y+2477989D01*
X+3120401Y+2477989D01*
X+3133101Y+2465289D01*
X+3213975Y+2255155D02*
X+3213975Y+2263045D01*
X+3219555Y+2268625D01*
X+3227445Y+2268625D01*
X+3233025Y+2263045D01*
X+3233025Y+2255155D01*
X+3227445Y+2249575D01*
X+3219555Y+2249575D01*
X+3213975Y+2255155D01*
X+3408975Y+2255155D02*
X+3408975Y+2263045D01*
X+3414555Y+2268625D01*
X+3422445Y+2268625D01*
X+3428025Y+2263045D01*
X+3428025Y+2255155D01*
X+3422445Y+2249575D01*
X+3414555Y+2249575D01*
X+3408975Y+2255155D01*
X+3473975Y+2255155D02*
X+3473975Y+2263045D01*
X+3479555Y+2268625D01*
X+3487445Y+2268625D01*
X+3493025Y+2263045D01*
X+3493025Y+2255155D01*
X+3487445Y+2249575D01*
X+3479555Y+2249575D01*
X+3473975Y+2255155D01*
X+4138017Y+2455428D02*
X+4214569Y+2378876D01*
X+4214569Y+1731351D01*
X+4194483Y+1711265D01*
X+4194481Y+1711265D01*
X+4073295Y+1590079D01*
X+2853779Y+1590079D01*
X+2833693Y+1610165D01*
X+2833693Y+1610167D01*
X+2705024Y+1738836D01*
X+2617536Y+1738836D01*
X+2617536Y+1893364D01*
X+2722747Y+1893364D01*
X+2722747Y+1897263D01*
X+2716074Y+1903936D01*
X+2617536Y+1903936D01*
X+2617536Y+2058464D01*
X+2757064Y+2058464D01*
X+2757064Y+1959926D01*
X+2791325Y+1925665D01*
X+2791325Y+1797931D01*
X+2896367Y+1692889D01*
X+4030750Y+1692889D01*
X+4111768Y+1773907D01*
X+4111768Y+2336317D01*
X+4085440Y+2362645D01*
X+3862561Y+2362645D01*
X+3842789Y+2342873D01*
X+3842789Y+2338864D01*
X+3915764Y+2338864D01*
X+3915764Y+2179336D01*
X+3718264Y+2179336D01*
X+3718264Y+2171028D01*
X+3744962Y+2144330D01*
X+3916804Y+2144330D01*
X+3996270Y+2064864D01*
X+4087064Y+2064864D01*
X+4087064Y+1925336D01*
X+3932536Y+1925336D01*
X+3932536Y+2016130D01*
X+3921964Y+2026702D01*
X+3921964Y+1925336D01*
X+3767436Y+1925336D01*
X+3767436Y+1960811D01*
X+3755314Y+1960811D01*
X+3755314Y+1920336D01*
X+3582789Y+1920336D01*
X+3582789Y+1914699D01*
X+3535314Y+1867224D01*
X+3535314Y+1750336D01*
X+3345786Y+1750336D01*
X+3345786Y+1800811D01*
X+3327314Y+1800811D01*
X+3327314Y+1765336D01*
X+3172786Y+1765336D01*
X+3172786Y+1904864D01*
X+3327314Y+1904864D01*
X+3327314Y+1869389D01*
X+3345786Y+1869389D01*
X+3345786Y+1919864D01*
X+3490974Y+1919864D01*
X+3514211Y+1943101D01*
X+3514211Y+2179336D01*
X+3506236Y+2179336D01*
X+3506236Y+2338864D01*
X+3709211Y+2338864D01*
X+3709211Y+2354638D01*
X+3820045Y+2465472D01*
X+4127973Y+2465472D01*
X+4138017Y+2455428D01*
X+2552065Y+2156558D02*
X+2552065Y+2136042D01*
X+2537558Y+2121535D01*
X+2517042Y+2121535D01*
X+2502535Y+2136042D01*
X+2502535Y+2156558D01*
X+2517042Y+2171065D01*
X+2537558Y+2171065D01*
X+2552065Y+2156558D01*
X+2552065Y+3159858D02*
X+2552065Y+3139342D01*
X+2537558Y+3124835D01*
X+2517042Y+3124835D01*
X+2502535Y+3139342D01*
X+2502535Y+3159858D01*
X+2517042Y+3174365D01*
X+2537558Y+3174365D01*
X+2552065Y+3159858D01*
X+3685315Y+1845358D02*
X+3685315Y+1824842D01*
X+3670808Y+1810335D01*
X+3650292Y+1810335D01*
X+3635785Y+1824842D01*
X+3635785Y+1845358D01*
X+3650292Y+1859865D01*
X+3670808Y+1859865D01*
X+3685315Y+1845358D01*
X+3465315Y+2015358D02*
X+3465315Y+1994842D01*
X+3450808Y+1980335D01*
X+3430292Y+1980335D01*
X+3415785Y+1994842D01*
X+3415785Y+2015358D01*
X+3430292Y+2029865D01*
X+3450808Y+2029865D01*
X+3465315Y+2015358D01*
X+3738265Y+3159858D02*
X+3738265Y+3139342D01*
X+3723758Y+3124835D01*
X+3703242Y+3124835D01*
X+3688735Y+3139342D01*
X+3688735Y+3159858D01*
X+3703242Y+3174365D01*
X+3723758Y+3174365D01*
X+3738265Y+3159858D01*
X+3213265Y+3159858D02*
X+3213265Y+3139342D01*
X+3198758Y+3124835D01*
X+3178242Y+3124835D01*
X+3163735Y+3139342D01*
X+3163735Y+3159858D01*
X+3178242Y+3174365D01*
X+3198758Y+3174365D01*
X+3213265Y+3159858D01*
X+3274815Y+2005358D02*
X+3274815Y+1984842D01*
X+3260308Y+1970335D01*
X+3239792Y+1970335D01*
X+3225285Y+1984842D01*
X+3225285Y+2005358D01*
X+3239792Y+2019865D01*
X+3260308Y+2019865D01*
X+3274815Y+2005358D01*
X+3848645Y+1825575D02*
X+3840755Y+1825575D01*
X+3835175Y+1831155D01*
X+3835175Y+1839045D01*
X+3840755Y+1844625D01*
X+3848645Y+1844625D01*
X+3854225Y+1839045D01*
X+3854225Y+1831155D01*
X+3848645Y+1825575D01*
X+4034565Y+1845358D02*
X+4034565Y+1824842D01*
X+4020058Y+1810335D01*
X+3999542Y+1810335D01*
X+3985035Y+1824842D01*
X+3985035Y+1845358D01*
X+3999542Y+1859865D01*
X+4020058Y+1859865D01*
X+4034565Y+1845358D01*
X+2942365Y+1845358D02*
X+2942365Y+1824842D01*
X+2927858Y+1810335D01*
X+2907342Y+1810335D01*
X+2892835Y+1824842D01*
X+2892835Y+1845358D01*
X+2907342Y+1859865D01*
X+2927858Y+1859865D01*
X+2942365Y+1845358D01*
X+3107465Y+1845358D02*
X+3107465Y+1824842D01*
X+3092958Y+1810335D01*
X+3072442Y+1810335D01*
X+3057935Y+1824842D01*
X+3057935Y+1845358D01*
X+3072442Y+1859865D01*
X+3092958Y+1859865D01*
X+3107465Y+1845358D01*
X+2824865Y+1026258D02*
X+2824865Y+1005742D01*
X+2810358Y+991235D01*
X+2789842Y+991235D01*
X+2775335Y+1005742D01*
X+2775335Y+1026258D01*
X+2789842Y+1040765D01*
X+2810358Y+1040765D01*
X+2824865Y+1026258D01*
X+2946314Y+1409886D02*
X+2929389Y+1409886D01*
X+2929389Y+1350764D01*
X+2952864Y+1350764D01*
X+2952864Y+1201236D01*
X+2837336Y+1201236D01*
X+2837336Y+1350764D01*
X+2860811Y+1350764D01*
X+2860811Y+1409886D01*
X+2806786Y+1409886D01*
X+2806786Y+1564414D01*
X+2946314Y+1564414D01*
X+2946314Y+1409886D01*
X+3441065Y+1026258D02*
X+3441065Y+1005742D01*
X+3426558Y+991235D01*
X+3406042Y+991235D01*
X+3391535Y+1005742D01*
X+3391535Y+1026258D01*
X+3406042Y+1040765D01*
X+3426558Y+1040765D01*
X+3441065Y+1026258D01*
X+3380104Y+1311909D02*
X+3486381Y+1311909D01*
X+3552526Y+1245764D01*
X+3665014Y+1245764D01*
X+3665014Y+1106236D01*
X+3510486Y+1106236D01*
X+3510486Y+1190824D01*
X+3457979Y+1243331D01*
X+3380104Y+1243331D01*
X+3380104Y+1203326D01*
X+3259456Y+1203326D01*
X+3259456Y+1351914D01*
X+3380104Y+1351914D01*
X+3380104Y+1311909D01*
X+2564765Y+1186258D02*
X+2564765Y+1165742D01*
X+2550258Y+1151235D01*
X+2529742Y+1151235D01*
X+2515235Y+1165742D01*
X+2515235Y+1186258D01*
X+2529742Y+1200765D01*
X+2550258Y+1200765D01*
X+2564765Y+1186258D01*
X+3665014Y+946236D02*
X+3510486Y+946236D01*
X+3510486Y+1085764D01*
X+3665014Y+1085764D01*
X+3665014Y+946236D01*
X+3085465Y+1497408D02*
X+3085465Y+1476892D01*
X+3070958Y+1462385D01*
X+3050442Y+1462385D01*
X+3035935Y+1476892D01*
X+3035935Y+1497408D01*
X+3050442Y+1511915D01*
X+3070958Y+1511915D01*
X+3085465Y+1497408D01*
X+2564765Y+1337408D02*
X+2564765Y+1316892D01*
X+2550258Y+1302385D01*
X+2529742Y+1302385D01*
X+2515235Y+1316892D01*
X+2515235Y+1337408D01*
X+2529742Y+1351915D01*
X+2550258Y+1351915D01*
X+2564765Y+1337408D01*
X+2399665Y+1337408D02*
X+2399665Y+1316892D01*
X+2385158Y+1302385D01*
X+2364642Y+1302385D01*
X+2350135Y+1316892D01*
X+2350135Y+1337408D01*
X+2364642Y+1351915D01*
X+2385158Y+1351915D01*
X+2399665Y+1337408D01*
X+2741315Y+1497408D02*
X+2741315Y+1476892D01*
X+2726808Y+1462385D01*
X+2706292Y+1462385D01*
X+2691785Y+1476892D01*
X+2691785Y+1497408D01*
X+2706292Y+1511915D01*
X+2726808Y+1511915D01*
X+2741315Y+1497408D01*
X+2399665Y+1186258D02*
X+2399665Y+1165742D01*
X+2385158Y+1151235D01*
X+2364642Y+1151235D01*
X+2350135Y+1165742D01*
X+2350135Y+1186258D01*
X+2364642Y+1200765D01*
X+2385158Y+1200765D01*
X+2399665Y+1186258D01*
X+737235Y+243742D02*
X+737235Y+264258D01*
X+751742Y+278765D01*
X+772258Y+278765D01*
X+786765Y+264258D01*
X+786765Y+243742D01*
X+772258Y+229235D01*
X+751742Y+229235D01*
X+737235Y+243742D01*
X+483235Y+497742D02*
X+483235Y+518258D01*
X+497742Y+532765D01*
X+518258Y+532765D01*
X+532765Y+518258D01*
X+532765Y+497742D01*
X+518258Y+483235D01*
X+497742Y+483235D01*
X+483235Y+497742D01*
X+229235Y+751742D02*
X+229235Y+772258D01*
X+243742Y+786765D01*
X+264258Y+786765D01*
X+278765Y+772258D01*
X+278765Y+751742D01*
X+264258Y+737235D01*
X+243742Y+737235D01*
X+229235Y+751742D01*
X+737235Y+751742D02*
X+737235Y+772258D01*
X+751742Y+786765D01*
X+772258Y+786765D01*
X+786765Y+772258D01*
X+786765Y+751742D01*
X+772258Y+737235D01*
X+751742Y+737235D01*
X+737235Y+751742D01*
X+991235Y+497742D02*
X+991235Y+518258D01*
X+1005742Y+532765D01*
X+1026258Y+532765D01*
X+1040765Y+518258D01*
X+1040765Y+497742D01*
X+1026258Y+483235D01*
X+1005742Y+483235D01*
X+991235Y+497742D01*
X+1245235Y+751742D02*
X+1245235Y+772258D01*
X+1259742Y+786765D01*
X+1280258Y+786765D01*
X+1294765Y+772258D01*
X+1294765Y+751742D01*
X+1280258Y+737235D01*
X+1259742Y+737235D01*
X+1245235Y+751742D01*
X+1499235Y+497742D02*
X+1499235Y+518258D01*
X+1513742Y+532765D01*
X+1534258Y+532765D01*
X+1548765Y+518258D01*
X+1548765Y+497742D01*
X+1534258Y+483235D01*
X+1513742Y+483235D01*
X+1499235Y+497742D01*
X+1753235Y+751742D02*
X+1753235Y+772258D01*
X+1767742Y+786765D01*
X+1788258Y+786765D01*
X+1802765Y+772258D01*
X+1802765Y+751742D01*
X+1788258Y+737235D01*
X+1767742Y+737235D01*
X+1753235Y+751742D01*
X+2007235Y+497742D02*
X+2007235Y+518258D01*
X+2021742Y+532765D01*
X+2042258Y+532765D01*
X+2056765Y+518258D01*
X+2056765Y+497742D01*
X+2042258Y+483235D01*
X+2021742Y+483235D01*
X+2007235Y+497742D01*
X+2261235Y+751742D02*
X+2261235Y+772258D01*
X+2275742Y+786765D01*
X+2296258Y+786765D01*
X+2310765Y+772258D01*
X+2310765Y+751742D01*
X+2296258Y+737235D01*
X+2275742Y+737235D01*
X+2261235Y+751742D01*
X+2007235Y+1005742D02*
X+2007235Y+1026258D01*
X+2021742Y+1040765D01*
X+2042258Y+1040765D01*
X+2056765Y+1026258D01*
X+2056765Y+1005742D01*
X+2042258Y+991235D01*
X+2021742Y+991235D01*
X+2007235Y+1005742D01*
X+1499235Y+1005742D02*
X+1499235Y+1026258D01*
X+1513742Y+1040765D01*
X+1534258Y+1040765D01*
X+1548765Y+1026258D01*
X+1548765Y+1005742D01*
X+1534258Y+991235D01*
X+1513742Y+991235D01*
X+1499235Y+1005742D01*
X+991235Y+1005742D02*
X+991235Y+1026258D01*
X+1005742Y+1040765D01*
X+1026258Y+1040765D01*
X+1040765Y+1026258D01*
X+1040765Y+1005742D01*
X+1026258Y+991235D01*
X+1005742Y+991235D01*
X+991235Y+1005742D01*
X+483235Y+1005742D02*
X+483235Y+1026258D01*
X+497742Y+1040765D01*
X+518258Y+1040765D01*
X+532765Y+1026258D01*
X+532765Y+1005742D01*
X+518258Y+991235D01*
X+497742Y+991235D01*
X+483235Y+1005742D01*
X+229235Y+1259742D02*
X+229235Y+1280258D01*
X+243742Y+1294765D01*
X+264258Y+1294765D01*
X+278765Y+1280258D01*
X+278765Y+1259742D01*
X+264258Y+1245235D01*
X+243742Y+1245235D01*
X+229235Y+1259742D01*
X+737235Y+1259742D02*
X+737235Y+1280258D01*
X+751742Y+1294765D01*
X+772258Y+1294765D01*
X+786765Y+1280258D01*
X+786765Y+1259742D01*
X+772258Y+1245235D01*
X+751742Y+1245235D01*
X+737235Y+1259742D01*
X+1245235Y+1259742D02*
X+1245235Y+1280258D01*
X+1259742Y+1294765D01*
X+1280258Y+1294765D01*
X+1294765Y+1280258D01*
X+1294765Y+1259742D01*
X+1280258Y+1245235D01*
X+1259742Y+1245235D01*
X+1245235Y+1259742D01*
X+1753235Y+1259742D02*
X+1753235Y+1280258D01*
X+1767742Y+1294765D01*
X+1788258Y+1294765D01*
X+1802765Y+1280258D01*
X+1802765Y+1259742D01*
X+1788258Y+1245235D01*
X+1767742Y+1245235D01*
X+1753235Y+1259742D01*
X+2007235Y+1513742D02*
X+2007235Y+1534258D01*
X+2021742Y+1548765D01*
X+2042258Y+1548765D01*
X+2056765Y+1534258D01*
X+2056765Y+1513742D01*
X+2042258Y+1499235D01*
X+2021742Y+1499235D01*
X+2007235Y+1513742D01*
X+1499235Y+1513742D02*
X+1499235Y+1534258D01*
X+1513742Y+1548765D01*
X+1534258Y+1548765D01*
X+1548765Y+1534258D01*
X+1548765Y+1513742D01*
X+1534258Y+1499235D01*
X+1513742Y+1499235D01*
X+1499235Y+1513742D01*
X+991235Y+1513742D02*
X+991235Y+1534258D01*
X+1005742Y+1548765D01*
X+1026258Y+1548765D01*
X+1040765Y+1534258D01*
X+1040765Y+1513742D01*
X+1026258Y+1499235D01*
X+1005742Y+1499235D01*
X+991235Y+1513742D01*
X+483235Y+1513742D02*
X+483235Y+1534258D01*
X+497742Y+1548765D01*
X+518258Y+1548765D01*
X+532765Y+1534258D01*
X+532765Y+1513742D01*
X+518258Y+1499235D01*
X+497742Y+1499235D01*
X+483235Y+1513742D01*
X+229235Y+1767742D02*
X+229235Y+1788258D01*
X+243742Y+1802765D01*
X+264258Y+1802765D01*
X+278765Y+1788258D01*
X+278765Y+1767742D01*
X+264258Y+1753235D01*
X+243742Y+1753235D01*
X+229235Y+1767742D01*
X+737235Y+1767742D02*
X+737235Y+1788258D01*
X+751742Y+1802765D01*
X+772258Y+1802765D01*
X+786765Y+1788258D01*
X+786765Y+1767742D01*
X+772258Y+1753235D01*
X+751742Y+1753235D01*
X+737235Y+1767742D01*
X+1753235Y+1767742D02*
X+1753235Y+1788258D01*
X+1767742Y+1802765D01*
X+1788258Y+1802765D01*
X+1802765Y+1788258D01*
X+1802765Y+1767742D01*
X+1788258Y+1753235D01*
X+1767742Y+1753235D01*
X+1753235Y+1767742D01*
X+2261235Y+1767742D02*
X+2261235Y+1788258D01*
X+2275742Y+1802765D01*
X+2296258Y+1802765D01*
X+2310765Y+1788258D01*
X+2310765Y+1767742D01*
X+2296258Y+1753235D01*
X+2275742Y+1753235D01*
X+2261235Y+1767742D01*
X+229235Y+2275742D02*
X+229235Y+2296258D01*
X+243742Y+2310765D01*
X+264258Y+2310765D01*
X+278765Y+2296258D01*
X+278765Y+2275742D01*
X+264258Y+2261235D01*
X+243742Y+2261235D01*
X+229235Y+2275742D01*
X+483235Y+2529742D02*
X+483235Y+2550258D01*
X+497742Y+2564765D01*
X+518258Y+2564765D01*
X+532765Y+2550258D01*
X+532765Y+2529742D01*
X+518258Y+2515235D01*
X+497742Y+2515235D01*
X+483235Y+2529742D01*
X+991235Y+2529742D02*
X+991235Y+2550258D01*
X+1005742Y+2564765D01*
X+1026258Y+2564765D01*
X+1040765Y+2550258D01*
X+1040765Y+2529742D01*
X+1026258Y+2515235D01*
X+1005742Y+2515235D01*
X+991235Y+2529742D01*
X+737235Y+2783742D02*
X+737235Y+2804258D01*
X+751742Y+2818765D01*
X+772258Y+2818765D01*
X+786765Y+2804258D01*
X+786765Y+2783742D01*
X+772258Y+2769235D01*
X+751742Y+2769235D01*
X+737235Y+2783742D01*
X+229235Y+2783742D02*
X+229235Y+2804258D01*
X+243742Y+2818765D01*
X+264258Y+2818765D01*
X+278765Y+2804258D01*
X+278765Y+2783742D01*
X+264258Y+2769235D01*
X+243742Y+2769235D01*
X+229235Y+2783742D01*
X+229235Y+3291742D02*
X+229235Y+3312258D01*
X+243742Y+3326765D01*
X+264258Y+3326765D01*
X+278765Y+3312258D01*
X+278765Y+3291742D01*
X+264258Y+3277235D01*
X+243742Y+3277235D01*
X+229235Y+3291742D01*
X+229235Y+3799742D02*
X+229235Y+3820258D01*
X+243742Y+3834765D01*
X+264258Y+3834765D01*
X+278765Y+3820258D01*
X+278765Y+3799742D01*
X+264258Y+3785235D01*
X+243742Y+3785235D01*
X+229235Y+3799742D01*
X+483235Y+3545742D02*
X+483235Y+3566258D01*
X+497742Y+3580765D01*
X+518258Y+3580765D01*
X+532765Y+3566258D01*
X+532765Y+3545742D01*
X+518258Y+3531235D01*
X+497742Y+3531235D01*
X+483235Y+3545742D01*
X+991235Y+3545742D02*
X+991235Y+3566258D01*
X+1005742Y+3580765D01*
X+1026258Y+3580765D01*
X+1040765Y+3566258D01*
X+1040765Y+3545742D01*
X+1026258Y+3531235D01*
X+1005742Y+3531235D01*
X+991235Y+3545742D01*
X+2007235Y+3545742D02*
X+2007235Y+3566258D01*
X+2021742Y+3580765D01*
X+2042258Y+3580765D01*
X+2056765Y+3566258D01*
X+2056765Y+3545742D01*
X+2042258Y+3531235D01*
X+2021742Y+3531235D01*
X+2007235Y+3545742D01*
X+2515235Y+3545742D02*
X+2515235Y+3566258D01*
X+2529742Y+3580765D01*
X+2550258Y+3580765D01*
X+2564765Y+3566258D01*
X+2564765Y+3545742D01*
X+2550258Y+3531235D01*
X+2529742Y+3531235D01*
X+2515235Y+3545742D01*
X+3023235Y+3545742D02*
X+3023235Y+3566258D01*
X+3037742Y+3580765D01*
X+3058258Y+3580765D01*
X+3072765Y+3566258D01*
X+3072765Y+3545742D01*
X+3058258Y+3531235D01*
X+3037742Y+3531235D01*
X+3023235Y+3545742D01*
X+2261235Y+3037742D02*
X+2261235Y+3058258D01*
X+2275742Y+3072765D01*
X+2296258Y+3072765D01*
X+2310765Y+3058258D01*
X+2310765Y+3037742D01*
X+2296258Y+3023235D01*
X+2275742Y+3023235D01*
X+2261235Y+3037742D01*
X+1499235Y+2529742D02*
X+1499235Y+2550258D01*
X+1513742Y+2564765D01*
X+1534258Y+2564765D01*
X+1548765Y+2550258D01*
X+1548765Y+2529742D01*
X+1534258Y+2515235D01*
X+1513742Y+2515235D01*
X+1499235Y+2529742D01*
X+1245235Y+2783742D02*
X+1245235Y+2804258D01*
X+1259742Y+2818765D01*
X+1280258Y+2818765D01*
X+1294765Y+2804258D01*
X+1294765Y+2783742D01*
X+1280258Y+2769235D01*
X+1259742Y+2769235D01*
X+1245235Y+2783742D01*
X+1499235Y+3037742D02*
X+1499235Y+3058258D01*
X+1513742Y+3072765D01*
X+1534258Y+3072765D01*
X+1548765Y+3058258D01*
X+1548765Y+3037742D01*
X+1534258Y+3023235D01*
X+1513742Y+3023235D01*
X+1499235Y+3037742D01*
X+229235Y+4307742D02*
X+229235Y+4328258D01*
X+243742Y+4342765D01*
X+264258Y+4342765D01*
X+278765Y+4328258D01*
X+278765Y+4307742D01*
X+264258Y+4293235D01*
X+243742Y+4293235D01*
X+229235Y+4307742D01*
X+229235Y+4815742D02*
X+229235Y+4836258D01*
X+243742Y+4850765D01*
X+264258Y+4850765D01*
X+278765Y+4836258D01*
X+278765Y+4815742D01*
X+264258Y+4801235D01*
X+243742Y+4801235D01*
X+229235Y+4815742D01*
X+737235Y+4815742D02*
X+737235Y+4836258D01*
X+751742Y+4850765D01*
X+772258Y+4850765D01*
X+786765Y+4836258D01*
X+786765Y+4815742D01*
X+772258Y+4801235D01*
X+751742Y+4801235D01*
X+737235Y+4815742D01*
X+483235Y+4561742D02*
X+483235Y+4582258D01*
X+497742Y+4596765D01*
X+518258Y+4596765D01*
X+532765Y+4582258D01*
X+532765Y+4561742D01*
X+518258Y+4547235D01*
X+497742Y+4547235D01*
X+483235Y+4561742D01*
X+737235Y+4307742D02*
X+737235Y+4328258D01*
X+751742Y+4342765D01*
X+772258Y+4342765D01*
X+786765Y+4328258D01*
X+786765Y+4307742D01*
X+772258Y+4293235D01*
X+751742Y+4293235D01*
X+737235Y+4307742D01*
X+483235Y+4053742D02*
X+483235Y+4074258D01*
X+497742Y+4088765D01*
X+518258Y+4088765D01*
X+532765Y+4074258D01*
X+532765Y+4053742D01*
X+518258Y+4039235D01*
X+497742Y+4039235D01*
X+483235Y+4053742D01*
X+737235Y+3799742D02*
X+737235Y+3820258D01*
X+751742Y+3834765D01*
X+772258Y+3834765D01*
X+786765Y+3820258D01*
X+786765Y+3799742D01*
X+772258Y+3785235D01*
X+751742Y+3785235D01*
X+737235Y+3799742D01*
X+991235Y+4053742D02*
X+991235Y+4074258D01*
X+1005742Y+4088765D01*
X+1026258Y+4088765D01*
X+1040765Y+4074258D01*
X+1040765Y+4053742D01*
X+1026258Y+4039235D01*
X+1005742Y+4039235D01*
X+991235Y+4053742D01*
X+1245235Y+3799742D02*
X+1245235Y+3820258D01*
X+1259742Y+3834765D01*
X+1280258Y+3834765D01*
X+1294765Y+3820258D01*
X+1294765Y+3799742D01*
X+1280258Y+3785235D01*
X+1259742Y+3785235D01*
X+1245235Y+3799742D01*
X+1499235Y+4053742D02*
X+1499235Y+4074258D01*
X+1513742Y+4088765D01*
X+1534258Y+4088765D01*
X+1548765Y+4074258D01*
X+1548765Y+4053742D01*
X+1534258Y+4039235D01*
X+1513742Y+4039235D01*
X+1499235Y+4053742D01*
X+1753235Y+3799742D02*
X+1753235Y+3820258D01*
X+1767742Y+3834765D01*
X+1788258Y+3834765D01*
X+1802765Y+3820258D01*
X+1802765Y+3799742D01*
X+1788258Y+3785235D01*
X+1767742Y+3785235D01*
X+1753235Y+3799742D01*
X+2007235Y+4053742D02*
X+2007235Y+4074258D01*
X+2021742Y+4088765D01*
X+2042258Y+4088765D01*
X+2056765Y+4074258D01*
X+2056765Y+4053742D01*
X+2042258Y+4039235D01*
X+2021742Y+4039235D01*
X+2007235Y+4053742D01*
X+2261235Y+3799742D02*
X+2261235Y+3820258D01*
X+2275742Y+3834765D01*
X+2296258Y+3834765D01*
X+2310765Y+3820258D01*
X+2310765Y+3799742D01*
X+2296258Y+3785235D01*
X+2275742Y+3785235D01*
X+2261235Y+3799742D01*
X+2515235Y+4053742D02*
X+2515235Y+4074258D01*
X+2529742Y+4088765D01*
X+2550258Y+4088765D01*
X+2564765Y+4074258D01*
X+2564765Y+4053742D01*
X+2550258Y+4039235D01*
X+2529742Y+4039235D01*
X+2515235Y+4053742D01*
X+2769235Y+3799742D02*
X+2769235Y+3820258D01*
X+2783742Y+3834765D01*
X+2804258Y+3834765D01*
X+2818765Y+3820258D01*
X+2818765Y+3799742D01*
X+2804258Y+3785235D01*
X+2783742Y+3785235D01*
X+2769235Y+3799742D01*
X+2261235Y+4307742D02*
X+2261235Y+4328258D01*
X+2275742Y+4342765D01*
X+2296258Y+4342765D01*
X+2310765Y+4328258D01*
X+2310765Y+4307742D01*
X+2296258Y+4293235D01*
X+2275742Y+4293235D01*
X+2261235Y+4307742D01*
X+1753235Y+4307742D02*
X+1753235Y+4328258D01*
X+1767742Y+4342765D01*
X+1788258Y+4342765D01*
X+1802765Y+4328258D01*
X+1802765Y+4307742D01*
X+1788258Y+4293235D01*
X+1767742Y+4293235D01*
X+1753235Y+4307742D01*
X+1245235Y+4307742D02*
X+1245235Y+4328258D01*
X+1259742Y+4342765D01*
X+1280258Y+4342765D01*
X+1294765Y+4328258D01*
X+1294765Y+4307742D01*
X+1280258Y+4293235D01*
X+1259742Y+4293235D01*
X+1245235Y+4307742D01*
X+991235Y+4561742D02*
X+991235Y+4582258D01*
X+1005742Y+4596765D01*
X+1026258Y+4596765D01*
X+1040765Y+4582258D01*
X+1040765Y+4561742D01*
X+1026258Y+4547235D01*
X+1005742Y+4547235D01*
X+991235Y+4561742D01*
X+1245235Y+4815742D02*
X+1245235Y+4836258D01*
X+1259742Y+4850765D01*
X+1280258Y+4850765D01*
X+1294765Y+4836258D01*
X+1294765Y+4815742D01*
X+1280258Y+4801235D01*
X+1259742Y+4801235D01*
X+1245235Y+4815742D01*
X+1753235Y+4815742D02*
X+1753235Y+4836258D01*
X+1767742Y+4850765D01*
X+1788258Y+4850765D01*
X+1802765Y+4836258D01*
X+1802765Y+4815742D01*
X+1788258Y+4801235D01*
X+1767742Y+4801235D01*
X+1753235Y+4815742D01*
X+1499235Y+4561742D02*
X+1499235Y+4582258D01*
X+1513742Y+4596765D01*
X+1534258Y+4596765D01*
X+1548765Y+4582258D01*
X+1548765Y+4561742D01*
X+1534258Y+4547235D01*
X+1513742Y+4547235D01*
X+1499235Y+4561742D01*
X+2007235Y+4561742D02*
X+2007235Y+4582258D01*
X+2021742Y+4596765D01*
X+2042258Y+4596765D01*
X+2056765Y+4582258D01*
X+2056765Y+4561742D01*
X+2042258Y+4547235D01*
X+2021742Y+4547235D01*
X+2007235Y+4561742D01*
X+2769235Y+4815742D02*
X+2769235Y+4836258D01*
X+2783742Y+4850765D01*
X+2804258Y+4850765D01*
X+2818765Y+4836258D01*
X+2818765Y+4815742D01*
X+2804258Y+4801235D01*
X+2783742Y+4801235D01*
X+2769235Y+4815742D01*
X+3023235Y+4561742D02*
X+3023235Y+4582258D01*
X+3037742Y+4596765D01*
X+3058258Y+4596765D01*
X+3072765Y+4582258D01*
X+3072765Y+4561742D01*
X+3058258Y+4547235D01*
X+3037742Y+4547235D01*
X+3023235Y+4561742D01*
X+3277235Y+4307742D02*
X+3277235Y+4328258D01*
X+3291742Y+4342765D01*
X+3312258Y+4342765D01*
X+3326765Y+4328258D01*
X+3326765Y+4307742D01*
X+3312258Y+4293235D01*
X+3291742Y+4293235D01*
X+3277235Y+4307742D01*
X+3531235Y+4053742D02*
X+3531235Y+4074258D01*
X+3545742Y+4088765D01*
X+3566258Y+4088765D01*
X+3580765Y+4074258D01*
X+3580765Y+4053742D01*
X+3566258Y+4039235D01*
X+3545742Y+4039235D01*
X+3531235Y+4053742D01*
X+3785235Y+4307742D02*
X+3785235Y+4328258D01*
X+3799742Y+4342765D01*
X+3820258Y+4342765D01*
X+3834765Y+4328258D01*
X+3834765Y+4307742D01*
X+3820258Y+4293235D01*
X+3799742Y+4293235D01*
X+3785235Y+4307742D01*
X+4039235Y+4561742D02*
X+4039235Y+4582258D01*
X+4053742Y+4596765D01*
X+4074258Y+4596765D01*
X+4088765Y+4582258D01*
X+4088765Y+4561742D01*
X+4074258Y+4547235D01*
X+4053742Y+4547235D01*
X+4039235Y+4561742D01*
X+4293235Y+4815742D02*
X+4293235Y+4836258D01*
X+4307742Y+4850765D01*
X+4328258Y+4850765D01*
X+4342765Y+4836258D01*
X+4342765Y+4815742D01*
X+4328258Y+4801235D01*
X+4307742Y+4801235D01*
X+4293235Y+4815742D01*
X+3785235Y+4815742D02*
X+3785235Y+4836258D01*
X+3799742Y+4850765D01*
X+3820258Y+4850765D01*
X+3834765Y+4836258D01*
X+3834765Y+4815742D01*
X+3820258Y+4801235D01*
X+3799742Y+4801235D01*
X+3785235Y+4815742D01*
X+3531235Y+4561742D02*
X+3531235Y+4582258D01*
X+3545742Y+4596765D01*
X+3566258Y+4596765D01*
X+3580765Y+4582258D01*
X+3580765Y+4561742D01*
X+3566258Y+4547235D01*
X+3545742Y+4547235D01*
X+3531235Y+4561742D01*
X+3277235Y+4815742D02*
X+3277235Y+4836258D01*
X+3291742Y+4850765D01*
X+3312258Y+4850765D01*
X+3326765Y+4836258D01*
X+3326765Y+4815742D01*
X+3312258Y+4801235D01*
X+3291742Y+4801235D01*
X+3277235Y+4815742D01*
X+4039235Y+3545742D02*
X+4039235Y+3566258D01*
X+4053742Y+3580765D01*
X+4074258Y+3580765D01*
X+4088765Y+3566258D01*
X+4088765Y+3545742D01*
X+4074258Y+3531235D01*
X+4053742Y+3531235D01*
X+4039235Y+3545742D01*
X+3785235Y+3799742D02*
X+3785235Y+3820258D01*
X+3799742Y+3834765D01*
X+3820258Y+3834765D01*
X+3834765Y+3820258D01*
X+3834765Y+3799742D01*
X+3820258Y+3785235D01*
X+3799742Y+3785235D01*
X+3785235Y+3799742D01*
X+4039235Y+4053742D02*
X+4039235Y+4074258D01*
X+4053742Y+4088765D01*
X+4074258Y+4088765D01*
X+4088765Y+4074258D01*
X+4088765Y+4053742D01*
X+4074258Y+4039235D01*
X+4053742Y+4039235D01*
X+4039235Y+4053742D01*
X+4293235Y+4307742D02*
X+4293235Y+4328258D01*
X+4307742Y+4342765D01*
X+4328258Y+4342765D01*
X+4342765Y+4328258D01*
X+4342765Y+4307742D01*
X+4328258Y+4293235D01*
X+4307742Y+4293235D01*
X+4293235Y+4307742D01*
X+4547235Y+4561742D02*
X+4547235Y+4582258D01*
X+4561742Y+4596765D01*
X+4582258Y+4596765D01*
X+4596765Y+4582258D01*
X+4596765Y+4561742D01*
X+4582258Y+4547235D01*
X+4561742Y+4547235D01*
X+4547235Y+4561742D01*
X+4801235Y+4815742D02*
X+4801235Y+4836258D01*
X+4815742Y+4850765D01*
X+4836258Y+4850765D01*
X+4850765Y+4836258D01*
X+4850765Y+4815742D01*
X+4836258Y+4801235D01*
X+4815742Y+4801235D01*
X+4801235Y+4815742D01*
X+5055235Y+4561742D02*
X+5055235Y+4582258D01*
X+5069742Y+4596765D01*
X+5090258Y+4596765D01*
X+5104765Y+4582258D01*
X+5104765Y+4561742D01*
X+5090258Y+4547235D01*
X+5069742Y+4547235D01*
X+5055235Y+4561742D01*
X+4801235Y+4307742D02*
X+4801235Y+4328258D01*
X+4815742Y+4342765D01*
X+4836258Y+4342765D01*
X+4850765Y+4328258D01*
X+4850765Y+4307742D01*
X+4836258Y+4293235D01*
X+4815742Y+4293235D01*
X+4801235Y+4307742D01*
X+4547235Y+4053742D02*
X+4547235Y+4074258D01*
X+4561742Y+4088765D01*
X+4582258Y+4088765D01*
X+4596765Y+4074258D01*
X+4596765Y+4053742D01*
X+4582258Y+4039235D01*
X+4561742Y+4039235D01*
X+4547235Y+4053742D01*
X+4293235Y+3799742D02*
X+4293235Y+3820258D01*
X+4307742Y+3834765D01*
X+4328258Y+3834765D01*
X+4342765Y+3820258D01*
X+4342765Y+3799742D01*
X+4328258Y+3785235D01*
X+4307742Y+3785235D01*
X+4293235Y+3799742D01*
X+4293235Y+3291742D02*
X+4293235Y+3312258D01*
X+4307742Y+3326765D01*
X+4328258Y+3326765D01*
X+4342765Y+3312258D01*
X+4342765Y+3291742D01*
X+4328258Y+3277235D01*
X+4307742Y+3277235D01*
X+4293235Y+3291742D01*
X+4547235Y+3545742D02*
X+4547235Y+3566258D01*
X+4561742Y+3580765D01*
X+4582258Y+3580765D01*
X+4596765Y+3566258D01*
X+4596765Y+3545742D01*
X+4582258Y+3531235D01*
X+4561742Y+3531235D01*
X+4547235Y+3545742D01*
X+4801235Y+3799742D02*
X+4801235Y+3820258D01*
X+4815742Y+3834765D01*
X+4836258Y+3834765D01*
X+4850765Y+3820258D01*
X+4850765Y+3799742D01*
X+4836258Y+3785235D01*
X+4815742Y+3785235D01*
X+4801235Y+3799742D01*
X+5055235Y+4053742D02*
X+5055235Y+4074258D01*
X+5069742Y+4088765D01*
X+5090258Y+4088765D01*
X+5104765Y+4074258D01*
X+5104765Y+4053742D01*
X+5090258Y+4039235D01*
X+5069742Y+4039235D01*
X+5055235Y+4053742D01*
X+5309235Y+3799742D02*
X+5309235Y+3820258D01*
X+5323742Y+3834765D01*
X+5344258Y+3834765D01*
X+5358765Y+3820258D01*
X+5358765Y+3799742D01*
X+5344258Y+3785235D01*
X+5323742Y+3785235D01*
X+5309235Y+3799742D01*
X+5055235Y+3545742D02*
X+5055235Y+3566258D01*
X+5069742Y+3580765D01*
X+5090258Y+3580765D01*
X+5104765Y+3566258D01*
X+5104765Y+3545742D01*
X+5090258Y+3531235D01*
X+5069742Y+3531235D01*
X+5055235Y+3545742D01*
X+4801235Y+3291742D02*
X+4801235Y+3312258D01*
X+4815742Y+3326765D01*
X+4836258Y+3326765D01*
X+4850765Y+3312258D01*
X+4850765Y+3291742D01*
X+4836258Y+3277235D01*
X+4815742Y+3277235D01*
X+4801235Y+3291742D01*
X+4547235Y+3037742D02*
X+4547235Y+3058258D01*
X+4561742Y+3072765D01*
X+4582258Y+3072765D01*
X+4596765Y+3058258D01*
X+4596765Y+3037742D01*
X+4582258Y+3023235D01*
X+4561742Y+3023235D01*
X+4547235Y+3037742D01*
X+4293235Y+2783742D02*
X+4293235Y+2804258D01*
X+4307742Y+2818765D01*
X+4328258Y+2818765D01*
X+4342765Y+2804258D01*
X+4342765Y+2783742D01*
X+4328258Y+2769235D01*
X+4307742Y+2769235D01*
X+4293235Y+2783742D01*
X+4039235Y+3037742D02*
X+4039235Y+3058258D01*
X+4053742Y+3072765D01*
X+4074258Y+3072765D01*
X+4088765Y+3058258D01*
X+4088765Y+3037742D01*
X+4074258Y+3023235D01*
X+4053742Y+3023235D01*
X+4039235Y+3037742D01*
X+3785235Y+2783742D02*
X+3785235Y+2804258D01*
X+3799742Y+2818765D01*
X+3820258Y+2818765D01*
X+3834765Y+2804258D01*
X+3834765Y+2783742D01*
X+3820258Y+2769235D01*
X+3799742Y+2769235D01*
X+3785235Y+2783742D01*
X+3277235Y+2783742D02*
X+3277235Y+2804258D01*
X+3291742Y+2818765D01*
X+3312258Y+2818765D01*
X+3326765Y+2804258D01*
X+3326765Y+2783742D01*
X+3312258Y+2769235D01*
X+3291742Y+2769235D01*
X+3277235Y+2783742D01*
X+3531235Y+2529742D02*
X+3531235Y+2550258D01*
X+3545742Y+2564765D01*
X+3566258Y+2564765D01*
X+3580765Y+2550258D01*
X+3580765Y+2529742D01*
X+3566258Y+2515235D01*
X+3545742Y+2515235D01*
X+3531235Y+2529742D01*
X+4039235Y+2529742D02*
X+4039235Y+2550258D01*
X+4053742Y+2564765D01*
X+4074258Y+2564765D01*
X+4088765Y+2550258D01*
X+4088765Y+2529742D01*
X+4074258Y+2515235D01*
X+4053742Y+2515235D01*
X+4039235Y+2529742D01*
X+4547235Y+2529742D02*
X+4547235Y+2550258D01*
X+4561742Y+2564765D01*
X+4582258Y+2564765D01*
X+4596765Y+2550258D01*
X+4596765Y+2529742D01*
X+4582258Y+2515235D01*
X+4561742Y+2515235D01*
X+4547235Y+2529742D01*
X+4801235Y+2783742D02*
X+4801235Y+2804258D01*
X+4815742Y+2818765D01*
X+4836258Y+2818765D01*
X+4850765Y+2804258D01*
X+4850765Y+2783742D01*
X+4836258Y+2769235D01*
X+4815742Y+2769235D01*
X+4801235Y+2783742D01*
X+5055235Y+3037742D02*
X+5055235Y+3058258D01*
X+5069742Y+3072765D01*
X+5090258Y+3072765D01*
X+5104765Y+3058258D01*
X+5104765Y+3037742D01*
X+5090258Y+3023235D01*
X+5069742Y+3023235D01*
X+5055235Y+3037742D01*
X+5309235Y+3291742D02*
X+5309235Y+3312258D01*
X+5323742Y+3326765D01*
X+5344258Y+3326765D01*
X+5358765Y+3312258D01*
X+5358765Y+3291742D01*
X+5344258Y+3277235D01*
X+5323742Y+3277235D01*
X+5309235Y+3291742D01*
X+5309235Y+2783742D02*
X+5309235Y+2804258D01*
X+5323742Y+2818765D01*
X+5344258Y+2818765D01*
X+5358765Y+2804258D01*
X+5358765Y+2783742D01*
X+5344258Y+2769235D01*
X+5323742Y+2769235D01*
X+5309235Y+2783742D01*
X+5055235Y+2529742D02*
X+5055235Y+2550258D01*
X+5069742Y+2564765D01*
X+5090258Y+2564765D01*
X+5104765Y+2550258D01*
X+5104765Y+2529742D01*
X+5090258Y+2515235D01*
X+5069742Y+2515235D01*
X+5055235Y+2529742D01*
X+4801235Y+2275742D02*
X+4801235Y+2296258D01*
X+4815742Y+2310765D01*
X+4836258Y+2310765D01*
X+4850765Y+2296258D01*
X+4850765Y+2275742D01*
X+4836258Y+2261235D01*
X+4815742Y+2261235D01*
X+4801235Y+2275742D01*
X+4547235Y+2021742D02*
X+4547235Y+2042258D01*
X+4561742Y+2056765D01*
X+4582258Y+2056765D01*
X+4596765Y+2042258D01*
X+4596765Y+2021742D01*
X+4582258Y+2007235D01*
X+4561742Y+2007235D01*
X+4547235Y+2021742D01*
X+4293235Y+2275742D02*
X+4293235Y+2296258D01*
X+4307742Y+2310765D01*
X+4328258Y+2310765D01*
X+4342765Y+2296258D01*
X+4342765Y+2275742D01*
X+4328258Y+2261235D01*
X+4307742Y+2261235D01*
X+4293235Y+2275742D01*
X+5309235Y+2275742D02*
X+5309235Y+2296258D01*
X+5323742Y+2310765D01*
X+5344258Y+2310765D01*
X+5358765Y+2296258D01*
X+5358765Y+2275742D01*
X+5344258Y+2261235D01*
X+5323742Y+2261235D01*
X+5309235Y+2275742D01*
X+5309235Y+1767742D02*
X+5309235Y+1788258D01*
X+5323742Y+1802765D01*
X+5344258Y+1802765D01*
X+5358765Y+1788258D01*
X+5358765Y+1767742D01*
X+5344258Y+1753235D01*
X+5323742Y+1753235D01*
X+5309235Y+1767742D01*
X+5309235Y+1259742D02*
X+5309235Y+1280258D01*
X+5323742Y+1294765D01*
X+5344258Y+1294765D01*
X+5358765Y+1280258D01*
X+5358765Y+1259742D01*
X+5344258Y+1245235D01*
X+5323742Y+1245235D01*
X+5309235Y+1259742D01*
X+5055235Y+1005742D02*
X+5055235Y+1026258D01*
X+5069742Y+1040765D01*
X+5090258Y+1040765D01*
X+5104765Y+1026258D01*
X+5104765Y+1005742D01*
X+5090258Y+991235D01*
X+5069742Y+991235D01*
X+5055235Y+1005742D01*
X+5055235Y+1513742D02*
X+5055235Y+1534258D01*
X+5069742Y+1548765D01*
X+5090258Y+1548765D01*
X+5104765Y+1534258D01*
X+5104765Y+1513742D01*
X+5090258Y+1499235D01*
X+5069742Y+1499235D01*
X+5055235Y+1513742D01*
X+5055235Y+2021742D02*
X+5055235Y+2042258D01*
X+5069742Y+2056765D01*
X+5090258Y+2056765D01*
X+5104765Y+2042258D01*
X+5104765Y+2021742D01*
X+5090258Y+2007235D01*
X+5069742Y+2007235D01*
X+5055235Y+2021742D01*
X+4801235Y+1767742D02*
X+4801235Y+1788258D01*
X+4815742Y+1802765D01*
X+4836258Y+1802765D01*
X+4850765Y+1788258D01*
X+4850765Y+1767742D01*
X+4836258Y+1753235D01*
X+4815742Y+1753235D01*
X+4801235Y+1767742D01*
X+4801235Y+1259742D02*
X+4801235Y+1280258D01*
X+4815742Y+1294765D01*
X+4836258Y+1294765D01*
X+4850765Y+1280258D01*
X+4850765Y+1259742D01*
X+4836258Y+1245235D01*
X+4815742Y+1245235D01*
X+4801235Y+1259742D01*
X+4801235Y+751742D02*
X+4801235Y+772258D01*
X+4815742Y+786765D01*
X+4836258Y+786765D01*
X+4850765Y+772258D01*
X+4850765Y+751742D01*
X+4836258Y+737235D01*
X+4815742Y+737235D01*
X+4801235Y+751742D01*
X+5055235Y+497742D02*
X+5055235Y+518258D01*
X+5069742Y+532765D01*
X+5090258Y+532765D01*
X+5104765Y+518258D01*
X+5104765Y+497742D01*
X+5090258Y+483235D01*
X+5069742Y+483235D01*
X+5055235Y+497742D01*
X+4547235Y+497742D02*
X+4547235Y+518258D01*
X+4561742Y+532765D01*
X+4582258Y+532765D01*
X+4596765Y+518258D01*
X+4596765Y+497742D01*
X+4582258Y+483235D01*
X+4561742Y+483235D01*
X+4547235Y+497742D01*
X+4547235Y+1005742D02*
X+4547235Y+1026258D01*
X+4561742Y+1040765D01*
X+4582258Y+1040765D01*
X+4596765Y+1026258D01*
X+4596765Y+1005742D01*
X+4582258Y+991235D01*
X+4561742Y+991235D01*
X+4547235Y+1005742D01*
X+4547235Y+1513742D02*
X+4547235Y+1534258D01*
X+4561742Y+1548765D01*
X+4582258Y+1548765D01*
X+4596765Y+1534258D01*
X+4596765Y+1513742D01*
X+4582258Y+1499235D01*
X+4561742Y+1499235D01*
X+4547235Y+1513742D01*
X+4293235Y+1767742D02*
X+4293235Y+1788258D01*
X+4307742Y+1802765D01*
X+4328258Y+1802765D01*
X+4342765Y+1788258D01*
X+4342765Y+1767742D01*
X+4328258Y+1753235D01*
X+4307742Y+1753235D01*
X+4293235Y+1767742D01*
X+4293235Y+1259742D02*
X+4293235Y+1280258D01*
X+4307742Y+1294765D01*
X+4328258Y+1294765D01*
X+4342765Y+1280258D01*
X+4342765Y+1259742D01*
X+4328258Y+1245235D01*
X+4307742Y+1245235D01*
X+4293235Y+1259742D01*
X+4039235Y+1513742D02*
X+4039235Y+1534258D01*
X+4053742Y+1548765D01*
X+4074258Y+1548765D01*
X+4088765Y+1534258D01*
X+4088765Y+1513742D01*
X+4074258Y+1499235D01*
X+4053742Y+1499235D01*
X+4039235Y+1513742D01*
X+3531235Y+1513742D02*
X+3531235Y+1534258D01*
X+3545742Y+1548765D01*
X+3566258Y+1548765D01*
X+3580765Y+1534258D01*
X+3580765Y+1513742D01*
X+3566258Y+1499235D01*
X+3545742Y+1499235D01*
X+3531235Y+1513742D01*
X+3785235Y+1259742D02*
X+3785235Y+1280258D01*
X+3799742Y+1294765D01*
X+3820258Y+1294765D01*
X+3834765Y+1280258D01*
X+3834765Y+1259742D01*
X+3820258Y+1245235D01*
X+3799742Y+1245235D01*
X+3785235Y+1259742D01*
X+4039235Y+1005742D02*
X+4039235Y+1026258D01*
X+4053742Y+1040765D01*
X+4074258Y+1040765D01*
X+4088765Y+1026258D01*
X+4088765Y+1005742D01*
X+4074258Y+991235D01*
X+4053742Y+991235D01*
X+4039235Y+1005742D01*
X+4293235Y+751742D02*
X+4293235Y+772258D01*
X+4307742Y+786765D01*
X+4328258Y+786765D01*
X+4342765Y+772258D01*
X+4342765Y+751742D01*
X+4328258Y+737235D01*
X+4307742Y+737235D01*
X+4293235Y+751742D01*
X+4039235Y+497742D02*
X+4039235Y+518258D01*
X+4053742Y+532765D01*
X+4074258Y+532765D01*
X+4088765Y+518258D01*
X+4088765Y+497742D01*
X+4074258Y+483235D01*
X+4053742Y+483235D01*
X+4039235Y+497742D01*
X+3785235Y+751742D02*
X+3785235Y+772258D01*
X+3799742Y+786765D01*
X+3820258Y+786765D01*
X+3834765Y+772258D01*
X+3834765Y+751742D01*
X+3820258Y+737235D01*
X+3799742Y+737235D01*
X+3785235Y+751742D01*
X+3531235Y+497742D02*
X+3531235Y+518258D01*
X+3545742Y+532765D01*
X+3566258Y+532765D01*
X+3580765Y+518258D01*
X+3580765Y+497742D01*
X+3566258Y+483235D01*
X+3545742Y+483235D01*
X+3531235Y+497742D01*
X+3023235Y+751742D02*
X+3023235Y+772258D01*
X+3037742Y+786765D01*
X+3058258Y+786765D01*
X+3072765Y+772258D01*
X+3072765Y+751742D01*
X+3058258Y+737235D01*
X+3037742Y+737235D01*
X+3023235Y+751742D01*
X+1480917Y+5146481D02*
X+1480917Y+5013506D01*
X+1490569Y+5003854D01*
X+1333484Y+5003854D01*
X+1295450Y+5041888D01*
X+1295450Y+5118020D01*
X+1333543Y+5156113D01*
X+1490549Y+5156113D01*
X+1480917Y+5146481D01*
X+1314575Y+5056379D02*
X+1314575Y+5103621D01*
X+1347979Y+5137025D01*
X+1395221Y+5137025D01*
X+1428625Y+5103621D01*
X+1428625Y+5056379D01*
X+1395221Y+5022975D01*
X+1347979Y+5022975D01*
X+1314575Y+5056379D01*
X+2736975Y+254000D02*
X+2794000Y+254000D01*
X+2851025Y+254000D02*
X+2794000Y+254000D01*
X+2794000Y+196975D02*
X+2794000Y+254000D01*
X+2794000Y+311025D02*
X+2794000Y+254000D01*
X+2990975Y+254000D02*
X+3048000Y+254000D01*
X+3105025Y+254000D02*
X+3048000Y+254000D01*
X+3048000Y+196975D02*
X+3048000Y+254000D01*
X+3048000Y+311025D02*
X+3048000Y+254000D01*
X+3498975Y+254000D02*
X+3556000Y+254000D01*
X+3613025Y+254000D02*
X+3556000Y+254000D01*
X+3556000Y+196975D02*
X+3556000Y+254000D01*
X+3556000Y+311025D02*
X+3556000Y+254000D01*
X+1314575Y+5080000D02*
X+1371600Y+5080000D01*
X+1428625Y+5080000D02*
X+1371600Y+5080000D01*
X+1371600Y+5022975D02*
X+1371600Y+5080000D01*
X+1371600Y+5137025D02*
X+1371600Y+5080000D01*
X+1962275Y+2222500D02*
X+2019300Y+2222500D01*
X+2076325Y+2222500D02*
X+2019300Y+2222500D01*
X+2019300Y+2165475D02*
X+2019300Y+2222500D01*
X+2019300Y+2279525D02*
X+2019300Y+2222500D01*
X+583275Y+3075500D02*
X+640300Y+3075500D01*
X+697325Y+3075500D02*
X+640300Y+3075500D01*
X+640300Y+3018475D02*
X+640300Y+3075500D01*
X+640300Y+3132525D02*
X+640300Y+3075500D01*
X+583275Y+2258500D02*
X+640300Y+2258500D01*
X+697325Y+2258500D02*
X+640300Y+2258500D01*
X+640300Y+2201475D02*
X+640300Y+2258500D01*
X+640300Y+2315525D02*
X+640300Y+2258500D01*
X+1435300Y+3350475D02*
X+1435300Y+3441500D01*
X+1435300Y+3532525D02*
X+1435300Y+3441500D01*
X+1526325Y+3441500D02*
X+1435300Y+3441500D01*
X+1344275Y+3441500D02*
X+1435300Y+3441500D01*
X+1435300Y+1801475D02*
X+1435300Y+1892500D01*
X+1435300Y+1983525D02*
X+1435300Y+1892500D01*
X+1526325Y+1892500D02*
X+1435300Y+1892500D01*
X+1344275Y+1892500D02*
X+1435300Y+1892500D01*
X+3213975Y+2959100D02*
X+3223500Y+2959100D01*
X+3233025Y+2959100D02*
X+3223500Y+2959100D01*
X+3223500Y+2949575D02*
X+3223500Y+2959100D01*
X+3223500Y+2968625D02*
X+3223500Y+2959100D01*
X+3213975Y+2259100D02*
X+3223500Y+2259100D01*
X+3233025Y+2259100D02*
X+3223500Y+2259100D01*
X+3223500Y+2249575D02*
X+3223500Y+2259100D01*
X+3223500Y+2268625D02*
X+3223500Y+2259100D01*
X+3408975Y+2259100D02*
X+3418500Y+2259100D01*
X+3428025Y+2259100D02*
X+3418500Y+2259100D01*
X+3418500Y+2249575D02*
X+3418500Y+2259100D01*
X+3418500Y+2268625D02*
X+3418500Y+2259100D01*
X+3473975Y+2259100D02*
X+3483500Y+2259100D01*
X+3493025Y+2259100D02*
X+3483500Y+2259100D01*
X+3483500Y+2249575D02*
X+3483500Y+2259100D01*
X+3483500Y+2268625D02*
X+3483500Y+2259100D01*
X+3844700Y+1825575D02*
X+3844700Y+1835100D01*
X+3844700Y+1844625D02*
X+3844700Y+1835100D01*
X+3854225Y+1835100D02*
X+3844700Y+1835100D01*
X+3835175Y+1835100D02*
X+3844700Y+1835100D01*
D14*
X+1016000Y+254000D03*
D15*
X+1270000Y+254000D03*
X+1524000Y+254000D03*
X+1778000Y+254000D03*
X+2032000Y+254000D03*
X+2286000Y+254000D03*
X+2540000Y+254000D03*
X+2794000Y+254000D03*
X+3048000Y+254000D03*
X+3302000Y+254000D03*
D14*
X+3556000Y+254000D03*
D15*
X+3810000Y+254000D03*
X+4064000Y+254000D03*
X+4318000Y+254000D03*
X+4572000Y+254000D03*
X+4826000Y+254000D03*
X+5080000Y+254000D03*
D14*
X+609600Y+5080000D03*
D15*
X+863600Y+5080000D03*
X+1117600Y+5080000D03*
X+1371600Y+5080000D03*
X+1625600Y+5080000D03*
X+1879600Y+5080000D03*
X+2133600Y+5080000D03*
X+2387600Y+5080000D03*
X+2641600Y+5080000D03*
X+2895600Y+5080000D03*
D14*
X+3302000Y+5080000D03*
D15*
X+3556000Y+5080000D03*
X+3810000Y+5080000D03*
X+4064000Y+5080000D03*
X+4318000Y+5080000D03*
X+4572000Y+5080000D03*
X+4826000Y+5080000D03*
X+5080000Y+5080000D03*
X+1765300Y+3111500D03*
X+2019300Y+2984500D03*
X+1765300Y+2857500D03*
X+2019300Y+2730500D03*
X+1765300Y+2603500D03*
X+2019300Y+2476500D03*
X+1765300Y+2349500D03*
X+2019300Y+2222500D03*
X+640300Y+3329500D03*
X+640300Y+3075500D03*
X+640300Y+2258500D03*
X+640300Y+2004500D03*
D16*
X+1435300Y+3441500D03*
X+1435300Y+1892500D03*
D17*
X+1130300Y+3238500D03*
X+1130300Y+2095500D03*
D18*
X+3873500Y+2959100D03*
X+3808500Y+2959100D03*
X+3743500Y+2959100D03*
X+3678500Y+2959100D03*
X+3613500Y+2959100D03*
X+3548500Y+2959100D03*
X+3483500Y+2959100D03*
X+3418500Y+2959100D03*
X+3353500Y+2959100D03*
X+3288500Y+2959100D03*
X+3223500Y+2959100D03*
X+3158500Y+2959100D03*
X+3093500Y+2959100D03*
X+3028500Y+2959100D03*
X+3028500Y+2259100D03*
X+3093500Y+2259100D03*
X+3158500Y+2259100D03*
X+3223500Y+2259100D03*
X+3288500Y+2259100D03*
X+3353500Y+2259100D03*
X+3418500Y+2259100D03*
X+3483500Y+2259100D03*
X+3548500Y+2259100D03*
X+3613500Y+2259100D03*
X+3678500Y+2259100D03*
X+3743500Y+2259100D03*
X+3808500Y+2259100D03*
X+3873500Y+2259100D03*
D19*
X+2687300Y+2476500D03*
X+2527300Y+2476500D03*
X+2527300Y+2311400D03*
X+2687300Y+2311400D03*
X+2687300Y+2730500D03*
X+2527300Y+2730500D03*
X+2527300Y+2984500D03*
X+2687300Y+2984500D03*
X+2687300Y+2146300D03*
X+2527300Y+2146300D03*
X+2687300Y+3149600D03*
X+2527300Y+3149600D03*
X+2687300Y+3314700D03*
X+2527300Y+3314700D03*
D70*
X+3440550Y+1835100D03*
X+3660550Y+1835100D03*
X+3660550Y+2005100D03*
X+3440550Y+2005100D03*
D19*
X+3873500Y+3149600D03*
X+3713500Y+3149600D03*
X+3028500Y+3149600D03*
X+3188500Y+3149600D03*
X+2527300Y+1981200D03*
X+2687300Y+1981200D03*
X+2527300Y+1816100D03*
X+2687300Y+1816100D03*
D71*
X+3250050Y+1995100D03*
X+3250050Y+1835100D03*
X+3844700Y+1835100D03*
X+3844700Y+1995100D03*
X+4009800Y+1995100D03*
X+4009800Y+1835100D03*
X+2917600Y+1995100D03*
X+2917600Y+1835100D03*
X+3082700Y+1995100D03*
X+3082700Y+1835100D03*
D20*
X+2705100Y+1016000D03*
X+2800100Y+1016000D03*
X+2895100Y+1016000D03*
X+2895100Y+1276000D03*
X+2705100Y+1276000D03*
D21*
X+3225800Y+1016000D03*
X+3416300Y+1016000D03*
X+3319780Y+1277620D03*
D71*
X+2540000Y+1016000D03*
X+2540000Y+1176000D03*
X+3587750Y+1016000D03*
X+3587750Y+1176000D03*
X+3060700Y+1327150D03*
X+3060700Y+1487150D03*
X+3060700Y+1016000D03*
X+3060700Y+1176000D03*
X+2540000Y+1487150D03*
X+2540000Y+1327150D03*
X+2374900Y+1487150D03*
X+2374900Y+1327150D03*
D19*
X+2876550Y+1487150D03*
X+2716550Y+1487150D03*
D71*
X+2374900Y+1016000D03*
X+2374900Y+1176000D03*
D22*
X+5492750Y+762000D02*
X+5492220Y+774958D01*
X+5487916Y+800876D01*
X+5478925Y+826794D01*
X+5464280Y+852712D01*
X+5441876Y+878466D01*
X+5415958Y+897958D01*
X+5390040Y+910530D01*
X+5364122Y+917866D01*
X+5338204Y+920694D01*
X+5334000Y+920750D01*
X+5175250Y+762000D02*
X+5175780Y+774958D01*
X+5180084Y+800876D01*
X+5189075Y+826794D01*
X+5203720Y+852712D01*
X+5226124Y+878466D01*
X+5252042Y+897958D01*
X+5277960Y+910530D01*
X+5303878Y+917866D01*
X+5329796Y+920694D01*
X+5334000Y+920750D01*
X+5175250Y+762000D02*
X+5175780Y+749042D01*
X+5180084Y+723124D01*
X+5189075Y+697206D01*
X+5203720Y+671288D01*
X+5226124Y+645534D01*
X+5252042Y+626042D01*
X+5277960Y+613470D01*
X+5303878Y+606134D01*
X+5329796Y+603306D01*
X+5334000Y+603250D01*
X+5492750Y+762000D02*
X+5492220Y+749042D01*
X+5487916Y+723124D01*
X+5478925Y+697206D01*
X+5464280Y+671288D01*
X+5441876Y+645534D01*
X+5415958Y+626042D01*
X+5390040Y+613470D01*
X+5364122Y+606134D01*
X+5338204Y+603306D01*
X+5334000Y+603250D01*
X+5492750Y+3556000D02*
X+5492220Y+3568958D01*
X+5487916Y+3594876D01*
X+5478925Y+3620794D01*
X+5464280Y+3646712D01*
X+5441876Y+3672466D01*
X+5415958Y+3691958D01*
X+5390040Y+3704530D01*
X+5364122Y+3711866D01*
X+5338204Y+3714694D01*
X+5334000Y+3714750D01*
X+5175250Y+3556000D02*
X+5175780Y+3568958D01*
X+5180084Y+3594876D01*
X+5189075Y+3620794D01*
X+5203720Y+3646712D01*
X+5226124Y+3672466D01*
X+5252042Y+3691958D01*
X+5277960Y+3704530D01*
X+5303878Y+3711866D01*
X+5329796Y+3714694D01*
X+5334000Y+3714750D01*
X+5175250Y+3556000D02*
X+5175780Y+3543042D01*
X+5180084Y+3517124D01*
X+5189075Y+3491206D01*
X+5203720Y+3465288D01*
X+5226124Y+3439534D01*
X+5252042Y+3420042D01*
X+5277960Y+3407470D01*
X+5303878Y+3400134D01*
X+5329796Y+3397306D01*
X+5334000Y+3397250D01*
X+5492750Y+3556000D02*
X+5492220Y+3543042D01*
X+5487916Y+3517124D01*
X+5478925Y+3491206D01*
X+5464280Y+3465288D01*
X+5441876Y+3439534D01*
X+5415958Y+3420042D01*
X+5390040Y+3407470D01*
X+5364122Y+3400134D01*
X+5338204Y+3397306D01*
X+5334000Y+3397250D01*
X+412750Y+5080000D02*
X+412220Y+5092958D01*
X+407916Y+5118876D01*
X+398925Y+5144794D01*
X+384280Y+5170712D01*
X+361876Y+5196466D01*
X+335958Y+5215958D01*
X+310040Y+5228530D01*
X+284122Y+5235866D01*
X+258204Y+5238694D01*
X+254000Y+5238750D01*
X+95250Y+5080000D02*
X+95780Y+5092958D01*
X+100084Y+5118876D01*
X+109075Y+5144794D01*
X+123720Y+5170712D01*
X+146124Y+5196466D01*
X+172042Y+5215958D01*
X+197960Y+5228530D01*
X+223878Y+5235866D01*
X+249796Y+5238694D01*
X+254000Y+5238750D01*
X+95250Y+5080000D02*
X+95780Y+5067042D01*
X+100084Y+5041124D01*
X+109075Y+5015206D01*
X+123720Y+4989288D01*
X+146124Y+4963534D01*
X+172042Y+4944042D01*
X+197960Y+4931470D01*
X+223878Y+4924134D01*
X+249796Y+4921306D01*
X+254000Y+4921250D01*
X+412750Y+5080000D02*
X+412220Y+5067042D01*
X+407916Y+5041124D01*
X+398925Y+5015206D01*
X+384280Y+4989288D01*
X+361876Y+4963534D01*
X+335958Y+4944042D01*
X+310040Y+4931470D01*
X+284122Y+4924134D01*
X+258204Y+4921306D01*
X+254000Y+4921250D01*
X+412750Y+254000D02*
X+412220Y+266958D01*
X+407916Y+292876D01*
X+398925Y+318794D01*
X+384280Y+344712D01*
X+361876Y+370466D01*
X+335958Y+389958D01*
X+310040Y+402530D01*
X+284122Y+409866D01*
X+258204Y+412694D01*
X+254000Y+412750D01*
X+95250Y+254000D02*
X+95780Y+266958D01*
X+100084Y+292876D01*
X+109075Y+318794D01*
X+123720Y+344712D01*
X+146124Y+370466D01*
X+172042Y+389958D01*
X+197960Y+402530D01*
X+223878Y+409866D01*
X+249796Y+412694D01*
X+254000Y+412750D01*
X+95250Y+254000D02*
X+95780Y+241042D01*
X+100084Y+215124D01*
X+109075Y+189206D01*
X+123720Y+163288D01*
X+146124Y+137534D01*
X+172042Y+118042D01*
X+197960Y+105470D01*
X+223878Y+98134D01*
X+249796Y+95306D01*
X+254000Y+95250D01*
X+412750Y+254000D02*
X+412220Y+241042D01*
X+407916Y+215124D01*
X+398925Y+189206D01*
X+384280Y+163288D01*
X+361876Y+137534D01*
X+335958Y+118042D01*
X+310040Y+105470D01*
X+284122Y+98134D01*
X+258204Y+95306D01*
X+254000Y+95250D01*
X+0Y+127000D02*
X+2527Y+101032D01*
X+9798Y+77018D01*
X+21348Y+55423D01*
X+36711Y+36711D01*
X+55423Y+21347D01*
X+77018Y+9798D01*
X+101032Y+2527D01*
X+127000Y+0D01*
X+5207000Y+0D01*
X+5232967Y+2527D01*
X+5256981Y+9798D01*
X+5278577Y+21347D01*
X+5297289Y+36711D01*
X+5312652Y+55423D01*
X+5324202Y+77018D01*
X+5331473Y+101032D01*
X+5334000Y+127000D01*
X+5334000Y+254000D01*
X+5588000Y+508000D01*
X+5588000Y+3810000D01*
X+5334000Y+4064000D01*
X+5334000Y+5207000D01*
X+5207000Y+5334000D01*
X+127000Y+5334000D01*
X+101032Y+5331473D01*
X+77018Y+5324202D01*
X+55423Y+5312652D01*
X+36711Y+5297289D01*
X+21348Y+5278577D01*
X+9798Y+5256981D01*
X+2527Y+5232967D01*
X+0Y+5207000D01*
X+0Y+127000D01*
M02*
