G04 PROTEUS RS274X GERBER FILE*
%FSLAX45Y45*%
%MOMM*%
G01*
%ADD22C,0.025400*%
%ADD24C,0.127000*%
%ADD35C,0.640000*%
%ADD36C,0.177800*%
%ADD25C,0.100000*%
%ADD37C,0.471390*%
%ADD38C,0.315000*%
%ADD39C,0.223260*%
%ADD40C,0.420000*%
%ADD41C,0.067500*%
%ADD42C,0.560000*%
%ADD43C,0.116660*%
%ADD23C,0.400000*%
%ADD44C,0.113280*%
%ADD45C,0.396240*%
%ADD46C,0.103290*%
D22*
X+5492750Y+762000D02*
X+5492220Y+774958D01*
X+5487916Y+800876D01*
X+5478925Y+826794D01*
X+5464280Y+852712D01*
X+5441876Y+878466D01*
X+5415958Y+897958D01*
X+5390040Y+910530D01*
X+5364122Y+917866D01*
X+5338204Y+920694D01*
X+5334000Y+920750D01*
X+5175250Y+762000D02*
X+5175780Y+774958D01*
X+5180084Y+800876D01*
X+5189075Y+826794D01*
X+5203720Y+852712D01*
X+5226124Y+878466D01*
X+5252042Y+897958D01*
X+5277960Y+910530D01*
X+5303878Y+917866D01*
X+5329796Y+920694D01*
X+5334000Y+920750D01*
X+5175250Y+762000D02*
X+5175780Y+749042D01*
X+5180084Y+723124D01*
X+5189075Y+697206D01*
X+5203720Y+671288D01*
X+5226124Y+645534D01*
X+5252042Y+626042D01*
X+5277960Y+613470D01*
X+5303878Y+606134D01*
X+5329796Y+603306D01*
X+5334000Y+603250D01*
X+5492750Y+762000D02*
X+5492220Y+749042D01*
X+5487916Y+723124D01*
X+5478925Y+697206D01*
X+5464280Y+671288D01*
X+5441876Y+645534D01*
X+5415958Y+626042D01*
X+5390040Y+613470D01*
X+5364122Y+606134D01*
X+5338204Y+603306D01*
X+5334000Y+603250D01*
X+5492750Y+3556000D02*
X+5492220Y+3568958D01*
X+5487916Y+3594876D01*
X+5478925Y+3620794D01*
X+5464280Y+3646712D01*
X+5441876Y+3672466D01*
X+5415958Y+3691958D01*
X+5390040Y+3704530D01*
X+5364122Y+3711866D01*
X+5338204Y+3714694D01*
X+5334000Y+3714750D01*
X+5175250Y+3556000D02*
X+5175780Y+3568958D01*
X+5180084Y+3594876D01*
X+5189075Y+3620794D01*
X+5203720Y+3646712D01*
X+5226124Y+3672466D01*
X+5252042Y+3691958D01*
X+5277960Y+3704530D01*
X+5303878Y+3711866D01*
X+5329796Y+3714694D01*
X+5334000Y+3714750D01*
X+5175250Y+3556000D02*
X+5175780Y+3543042D01*
X+5180084Y+3517124D01*
X+5189075Y+3491206D01*
X+5203720Y+3465288D01*
X+5226124Y+3439534D01*
X+5252042Y+3420042D01*
X+5277960Y+3407470D01*
X+5303878Y+3400134D01*
X+5329796Y+3397306D01*
X+5334000Y+3397250D01*
X+5492750Y+3556000D02*
X+5492220Y+3543042D01*
X+5487916Y+3517124D01*
X+5478925Y+3491206D01*
X+5464280Y+3465288D01*
X+5441876Y+3439534D01*
X+5415958Y+3420042D01*
X+5390040Y+3407470D01*
X+5364122Y+3400134D01*
X+5338204Y+3397306D01*
X+5334000Y+3397250D01*
X+412750Y+5080000D02*
X+412220Y+5092958D01*
X+407916Y+5118876D01*
X+398925Y+5144794D01*
X+384280Y+5170712D01*
X+361876Y+5196466D01*
X+335958Y+5215958D01*
X+310040Y+5228530D01*
X+284122Y+5235866D01*
X+258204Y+5238694D01*
X+254000Y+5238750D01*
X+95250Y+5080000D02*
X+95780Y+5092958D01*
X+100084Y+5118876D01*
X+109075Y+5144794D01*
X+123720Y+5170712D01*
X+146124Y+5196466D01*
X+172042Y+5215958D01*
X+197960Y+5228530D01*
X+223878Y+5235866D01*
X+249796Y+5238694D01*
X+254000Y+5238750D01*
X+95250Y+5080000D02*
X+95780Y+5067042D01*
X+100084Y+5041124D01*
X+109075Y+5015206D01*
X+123720Y+4989288D01*
X+146124Y+4963534D01*
X+172042Y+4944042D01*
X+197960Y+4931470D01*
X+223878Y+4924134D01*
X+249796Y+4921306D01*
X+254000Y+4921250D01*
X+412750Y+5080000D02*
X+412220Y+5067042D01*
X+407916Y+5041124D01*
X+398925Y+5015206D01*
X+384280Y+4989288D01*
X+361876Y+4963534D01*
X+335958Y+4944042D01*
X+310040Y+4931470D01*
X+284122Y+4924134D01*
X+258204Y+4921306D01*
X+254000Y+4921250D01*
X+412750Y+254000D02*
X+412220Y+266958D01*
X+407916Y+292876D01*
X+398925Y+318794D01*
X+384280Y+344712D01*
X+361876Y+370466D01*
X+335958Y+389958D01*
X+310040Y+402530D01*
X+284122Y+409866D01*
X+258204Y+412694D01*
X+254000Y+412750D01*
X+95250Y+254000D02*
X+95780Y+266958D01*
X+100084Y+292876D01*
X+109075Y+318794D01*
X+123720Y+344712D01*
X+146124Y+370466D01*
X+172042Y+389958D01*
X+197960Y+402530D01*
X+223878Y+409866D01*
X+249796Y+412694D01*
X+254000Y+412750D01*
X+95250Y+254000D02*
X+95780Y+241042D01*
X+100084Y+215124D01*
X+109075Y+189206D01*
X+123720Y+163288D01*
X+146124Y+137534D01*
X+172042Y+118042D01*
X+197960Y+105470D01*
X+223878Y+98134D01*
X+249796Y+95306D01*
X+254000Y+95250D01*
X+412750Y+254000D02*
X+412220Y+241042D01*
X+407916Y+215124D01*
X+398925Y+189206D01*
X+384280Y+163288D01*
X+361876Y+137534D01*
X+335958Y+118042D01*
X+310040Y+105470D01*
X+284122Y+98134D01*
X+258204Y+95306D01*
X+254000Y+95250D01*
X+0Y+127000D02*
X+2527Y+101032D01*
X+9798Y+77018D01*
X+21348Y+55423D01*
X+36711Y+36711D01*
X+55423Y+21347D01*
X+77018Y+9798D01*
X+101032Y+2527D01*
X+127000Y+0D01*
X+5207000Y+0D01*
X+5232967Y+2527D01*
X+5256981Y+9798D01*
X+5278577Y+21347D01*
X+5297289Y+36711D01*
X+5312652Y+55423D01*
X+5324202Y+77018D01*
X+5331473Y+101032D01*
X+5334000Y+127000D01*
X+5334000Y+254000D01*
X+5588000Y+508000D01*
X+5588000Y+3810000D01*
X+5334000Y+4064000D01*
X+5334000Y+5207000D01*
X+5207000Y+5334000D01*
X+127000Y+5334000D01*
X+101032Y+5331473D01*
X+77018Y+5324202D01*
X+55423Y+5312652D01*
X+36711Y+5297289D01*
X+21348Y+5278577D01*
X+9798Y+5256981D01*
X+2527Y+5232967D01*
X+0Y+5207000D01*
X+0Y+127000D01*
D24*
X+882650Y+120650D02*
X+3435350Y+120650D01*
X+3435350Y+387350D01*
X+882650Y+387350D01*
X+882650Y+120650D01*
D35*
X+1016000Y+254000D02*
X+1016000Y+254000D01*
D36*
X+2081655Y+236220D02*
X+2081655Y+218440D01*
X+2101657Y+200660D01*
X+2181667Y+200660D01*
X+2201670Y+218440D01*
X+2201670Y+307340D01*
X+2261677Y+289560D02*
X+2281680Y+307340D01*
X+2341687Y+307340D01*
X+2361690Y+289560D01*
X+2361690Y+271780D01*
X+2341687Y+254000D01*
X+2281680Y+254000D01*
X+2261677Y+236220D01*
X+2261677Y+200660D01*
X+2361690Y+200660D01*
D24*
X+3422650Y+120650D02*
X+5213350Y+120650D01*
X+5213350Y+387350D01*
X+3422650Y+387350D01*
X+3422650Y+120650D01*
D35*
X+3556000Y+254000D02*
X+3556000Y+254000D01*
D36*
X+4240655Y+236220D02*
X+4240655Y+218440D01*
X+4260657Y+200660D01*
X+4340667Y+200660D01*
X+4360670Y+218440D01*
X+4360670Y+307340D01*
X+4520690Y+236220D02*
X+4400675Y+236220D01*
X+4480685Y+307340D01*
X+4480685Y+200660D01*
D24*
X+476250Y+4946650D02*
X+3028950Y+4946650D01*
X+3028950Y+5213350D01*
X+476250Y+5213350D01*
X+476250Y+4946650D01*
D35*
X+609600Y+5080000D02*
X+609600Y+5080000D01*
D36*
X+1675255Y+5062220D02*
X+1675255Y+5044440D01*
X+1695257Y+5026660D01*
X+1775267Y+5026660D01*
X+1795270Y+5044440D01*
X+1795270Y+5133340D01*
X+1955290Y+5115560D02*
X+1935287Y+5133340D01*
X+1875280Y+5133340D01*
X+1855277Y+5115560D01*
X+1855277Y+5044440D01*
X+1875280Y+5026660D01*
X+1935287Y+5026660D01*
X+1955290Y+5044440D01*
X+1955290Y+5062220D01*
X+1935287Y+5080000D01*
X+1855277Y+5080000D01*
D24*
X+3168650Y+4946650D02*
X+5213350Y+4946650D01*
X+5213350Y+5213350D01*
X+3168650Y+5213350D01*
X+3168650Y+4946650D01*
D35*
X+3302000Y+5080000D02*
X+3302000Y+5080000D01*
D36*
X+4113655Y+5062220D02*
X+4113655Y+5044440D01*
X+4133657Y+5026660D01*
X+4213667Y+5026660D01*
X+4233670Y+5044440D01*
X+4233670Y+5133340D01*
X+4293677Y+5133340D02*
X+4393690Y+5133340D01*
X+4393690Y+5115560D01*
X+4293677Y+5026660D01*
D25*
X-34700Y+1669500D02*
X+2295300Y+1669500D01*
X+2295300Y+3663500D01*
X-34700Y+3663500D01*
X-34700Y+1669500D01*
D35*
X+1765300Y+3111500D02*
X+1765300Y+3111500D01*
D37*
X+893939Y+2242247D02*
X+941079Y+2242247D01*
X+988218Y+2295278D01*
X+988218Y+2507405D01*
X+941079Y+2560436D01*
X+705382Y+2560436D01*
X+799661Y+2772563D02*
X+705382Y+2878626D01*
X+988218Y+2878626D01*
D24*
X+2983340Y+2204100D02*
X+3933660Y+2204100D01*
X+3933660Y+3014100D01*
X+2983340Y+3014100D01*
X+2983340Y+2204100D01*
D38*
X+3873500Y+2959100D02*
X+3873500Y+2959100D01*
D39*
X+3219609Y+2676079D02*
X+3219609Y+2564447D01*
X+3244726Y+2542121D01*
X+3345194Y+2542121D01*
X+3370311Y+2564447D01*
X+3370311Y+2676079D01*
X+3470779Y+2631426D02*
X+3521013Y+2676079D01*
X+3521013Y+2542121D01*
D22*
X+2452350Y+2393955D02*
X+2763500Y+2393955D01*
X+2763500Y+2559055D01*
X+2452350Y+2559055D01*
X+2452350Y+2393955D01*
D40*
X+2687300Y+2476500D02*
X+2687300Y+2476500D01*
D41*
X+2497935Y+2456253D02*
X+2497935Y+2496756D01*
X+2535906Y+2496756D01*
X+2543501Y+2490006D01*
X+2543501Y+2483255D01*
X+2535906Y+2476505D01*
X+2497935Y+2476505D01*
X+2535906Y+2476505D02*
X+2543501Y+2469754D01*
X+2543501Y+2456253D01*
X+2604256Y+2469754D02*
X+2558690Y+2469754D01*
X+2589067Y+2496756D01*
X+2589067Y+2456253D01*
D22*
X+2451100Y+2228845D02*
X+2762250Y+2228845D01*
X+2762250Y+2393945D01*
X+2451100Y+2393945D01*
X+2451100Y+2228845D01*
D40*
X+2527300Y+2311400D02*
X+2527300Y+2311400D01*
D41*
X+2595155Y+2291143D02*
X+2595155Y+2331646D01*
X+2633126Y+2331646D01*
X+2640721Y+2324896D01*
X+2640721Y+2318145D01*
X+2633126Y+2311395D01*
X+2595155Y+2311395D01*
X+2633126Y+2311395D02*
X+2640721Y+2304644D01*
X+2640721Y+2291143D01*
X+2701476Y+2331646D02*
X+2663504Y+2331646D01*
X+2663504Y+2318145D01*
X+2693881Y+2318145D01*
X+2701476Y+2311395D01*
X+2701476Y+2297893D01*
X+2693881Y+2291143D01*
X+2671098Y+2291143D01*
X+2663504Y+2297893D01*
D22*
X+2452350Y+2647955D02*
X+2763500Y+2647955D01*
X+2763500Y+2813055D01*
X+2452350Y+2813055D01*
X+2452350Y+2647955D01*
D40*
X+2687300Y+2730500D02*
X+2687300Y+2730500D01*
D41*
X+2497935Y+2710253D02*
X+2497935Y+2750756D01*
X+2535906Y+2750756D01*
X+2543501Y+2744006D01*
X+2543501Y+2737255D01*
X+2535906Y+2730505D01*
X+2497935Y+2730505D01*
X+2535906Y+2730505D02*
X+2543501Y+2723754D01*
X+2543501Y+2710253D01*
X+2604256Y+2744006D02*
X+2596661Y+2750756D01*
X+2573878Y+2750756D01*
X+2566284Y+2744006D01*
X+2566284Y+2717003D01*
X+2573878Y+2710253D01*
X+2596661Y+2710253D01*
X+2604256Y+2717003D01*
X+2604256Y+2723754D01*
X+2596661Y+2730505D01*
X+2566284Y+2730505D01*
D22*
X+2451100Y+2901945D02*
X+2762250Y+2901945D01*
X+2762250Y+3067045D01*
X+2451100Y+3067045D01*
X+2451100Y+2901945D01*
D40*
X+2527300Y+2984500D02*
X+2527300Y+2984500D01*
D41*
X+2595155Y+2964243D02*
X+2595155Y+3004746D01*
X+2633126Y+3004746D01*
X+2640721Y+2997996D01*
X+2640721Y+2991245D01*
X+2633126Y+2984495D01*
X+2595155Y+2984495D01*
X+2633126Y+2984495D02*
X+2640721Y+2977744D01*
X+2640721Y+2964243D01*
X+2663504Y+3004746D02*
X+2701476Y+3004746D01*
X+2701476Y+2997996D01*
X+2663504Y+2964243D01*
D22*
X+2452350Y+2063755D02*
X+2763500Y+2063755D01*
X+2763500Y+2228855D01*
X+2452350Y+2228855D01*
X+2452350Y+2063755D01*
D40*
X+2687300Y+2146300D02*
X+2687300Y+2146300D01*
D41*
X+2543501Y+2132803D02*
X+2535906Y+2126053D01*
X+2513123Y+2126053D01*
X+2497935Y+2139554D01*
X+2497935Y+2153055D01*
X+2513123Y+2166556D01*
X+2535906Y+2166556D01*
X+2543501Y+2159806D01*
X+2566284Y+2166556D02*
X+2604256Y+2166556D01*
X+2604256Y+2159806D01*
X+2566284Y+2126053D01*
D22*
X+2452350Y+3067055D02*
X+2763500Y+3067055D01*
X+2763500Y+3232155D01*
X+2452350Y+3232155D01*
X+2452350Y+3067055D01*
D40*
X+2687300Y+3149600D02*
X+2687300Y+3149600D01*
D41*
X+2543501Y+3136103D02*
X+2535906Y+3129353D01*
X+2513123Y+3129353D01*
X+2497935Y+3142854D01*
X+2497935Y+3156355D01*
X+2513123Y+3169856D01*
X+2535906Y+3169856D01*
X+2543501Y+3163106D01*
X+2573878Y+3149605D02*
X+2566284Y+3156355D01*
X+2566284Y+3163106D01*
X+2573878Y+3169856D01*
X+2596661Y+3169856D01*
X+2604256Y+3163106D01*
X+2604256Y+3156355D01*
X+2596661Y+3149605D01*
X+2573878Y+3149605D01*
X+2566284Y+3142854D01*
X+2566284Y+3136103D01*
X+2573878Y+3129353D01*
X+2596661Y+3129353D01*
X+2604256Y+3136103D01*
X+2604256Y+3142854D01*
X+2596661Y+3149605D01*
D22*
X+2452350Y+3232155D02*
X+2763500Y+3232155D01*
X+2763500Y+3397255D01*
X+2452350Y+3397255D01*
X+2452350Y+3232155D01*
D40*
X+2687300Y+3314700D02*
X+2687300Y+3314700D01*
D41*
X+2467558Y+3294453D02*
X+2467558Y+3334956D01*
X+2513124Y+3334956D01*
X+2467558Y+3314705D02*
X+2497935Y+3314705D01*
X+2528313Y+3334956D02*
X+2573879Y+3334956D01*
X+2551096Y+3334956D02*
X+2551096Y+3294453D01*
X+2604256Y+3321455D02*
X+2619445Y+3334956D01*
X+2619445Y+3294453D01*
D24*
X+3340550Y+1745100D02*
X+3760550Y+1745100D01*
X+3760550Y+2095100D01*
X+3340550Y+2095100D01*
X+3340550Y+1745100D01*
D42*
X+3440550Y+1835100D02*
X+3440550Y+1835100D01*
D43*
X+3582726Y+1815101D02*
X+3652725Y+1893850D01*
X+3652725Y+1815101D02*
X+3582726Y+1893850D01*
X+3606059Y+1946349D02*
X+3582726Y+1972599D01*
X+3652725Y+1972599D01*
D22*
X+3638550Y+3067055D02*
X+3949700Y+3067055D01*
X+3949700Y+3232155D01*
X+3638550Y+3232155D01*
X+3638550Y+3067055D01*
D40*
X+3873500Y+3149600D02*
X+3873500Y+3149600D01*
D41*
X+3729701Y+3136103D02*
X+3722106Y+3129353D01*
X+3699323Y+3129353D01*
X+3684135Y+3142854D01*
X+3684135Y+3156355D01*
X+3699323Y+3169856D01*
X+3722106Y+3169856D01*
X+3729701Y+3163106D01*
X+3760078Y+3156355D02*
X+3775267Y+3169856D01*
X+3775267Y+3129353D01*
D22*
X+2952300Y+3067045D02*
X+3263450Y+3067045D01*
X+3263450Y+3232145D01*
X+2952300Y+3232145D01*
X+2952300Y+3067045D01*
D40*
X+3028500Y+3149600D02*
X+3028500Y+3149600D01*
D41*
X+3096355Y+3129343D02*
X+3096355Y+3169846D01*
X+3134326Y+3169846D01*
X+3141921Y+3163096D01*
X+3141921Y+3156345D01*
X+3134326Y+3149595D01*
X+3096355Y+3149595D01*
X+3134326Y+3149595D02*
X+3141921Y+3142844D01*
X+3141921Y+3129343D01*
X+3172298Y+3156345D02*
X+3187487Y+3169846D01*
X+3187487Y+3129343D01*
D22*
X+2451100Y+1898645D02*
X+2762250Y+1898645D01*
X+2762250Y+2063745D01*
X+2451100Y+2063745D01*
X+2451100Y+1898645D01*
D40*
X+2527300Y+1981200D02*
X+2527300Y+1981200D01*
D41*
X+2595155Y+1960943D02*
X+2595155Y+2001446D01*
X+2633126Y+2001446D01*
X+2640721Y+1994696D01*
X+2640721Y+1987945D01*
X+2633126Y+1981195D01*
X+2595155Y+1981195D01*
X+2633126Y+1981195D02*
X+2640721Y+1974444D01*
X+2640721Y+1960943D01*
X+2663504Y+1994696D02*
X+2671098Y+2001446D01*
X+2693881Y+2001446D01*
X+2701476Y+1994696D01*
X+2701476Y+1987945D01*
X+2693881Y+1981195D01*
X+2671098Y+1981195D01*
X+2663504Y+1974444D01*
X+2663504Y+1960943D01*
X+2701476Y+1960943D01*
D22*
X+2451100Y+1733545D02*
X+2762250Y+1733545D01*
X+2762250Y+1898645D01*
X+2451100Y+1898645D01*
X+2451100Y+1733545D01*
D40*
X+2527300Y+1816100D02*
X+2527300Y+1816100D01*
D41*
X+2595155Y+1795843D02*
X+2595155Y+1836346D01*
X+2633126Y+1836346D01*
X+2640721Y+1829596D01*
X+2640721Y+1822845D01*
X+2633126Y+1816095D01*
X+2595155Y+1816095D01*
X+2633126Y+1816095D02*
X+2640721Y+1809344D01*
X+2640721Y+1795843D01*
X+2663504Y+1829596D02*
X+2671098Y+1836346D01*
X+2693881Y+1836346D01*
X+2701476Y+1829596D01*
X+2701476Y+1822845D01*
X+2693881Y+1816095D01*
X+2701476Y+1809344D01*
X+2701476Y+1802593D01*
X+2693881Y+1795843D01*
X+2671098Y+1795843D01*
X+2663504Y+1802593D01*
X+2678693Y+1816095D02*
X+2693881Y+1816095D01*
D22*
X+3167495Y+1760150D02*
X+3332595Y+1760150D01*
X+3332595Y+2071300D01*
X+3167495Y+2071300D01*
X+3167495Y+1760150D01*
D40*
X+3250050Y+1995100D02*
X+3250050Y+1995100D01*
D41*
X+3263547Y+1851301D02*
X+3270297Y+1843706D01*
X+3270297Y+1820923D01*
X+3256796Y+1805735D01*
X+3243295Y+1805735D01*
X+3229794Y+1820923D01*
X+3229794Y+1843706D01*
X+3236544Y+1851301D01*
X+3229794Y+1912056D02*
X+3229794Y+1874084D01*
X+3243295Y+1874084D01*
X+3243295Y+1904461D01*
X+3250045Y+1912056D01*
X+3263547Y+1912056D01*
X+3270297Y+1904461D01*
X+3270297Y+1881678D01*
X+3263547Y+1874084D01*
D22*
X+3762155Y+1758900D02*
X+3927255Y+1758900D01*
X+3927255Y+2070050D01*
X+3762155Y+2070050D01*
X+3762155Y+1758900D01*
D40*
X+3844700Y+1835100D02*
X+3844700Y+1835100D01*
D41*
X+3858207Y+1948521D02*
X+3864957Y+1940926D01*
X+3864957Y+1918143D01*
X+3851456Y+1902955D01*
X+3837955Y+1902955D01*
X+3824454Y+1918143D01*
X+3824454Y+1940926D01*
X+3831204Y+1948521D01*
X+3831204Y+2009276D02*
X+3824454Y+2001681D01*
X+3824454Y+1978898D01*
X+3831204Y+1971304D01*
X+3858207Y+1971304D01*
X+3864957Y+1978898D01*
X+3864957Y+2001681D01*
X+3858207Y+2009276D01*
X+3851456Y+2009276D01*
X+3844705Y+2001681D01*
X+3844705Y+1971304D01*
D22*
X+3927245Y+1760150D02*
X+4092345Y+1760150D01*
X+4092345Y+2071300D01*
X+3927245Y+2071300D01*
X+3927245Y+1760150D01*
D40*
X+4009800Y+1995100D02*
X+4009800Y+1995100D01*
D41*
X+4023297Y+1851301D02*
X+4030047Y+1843706D01*
X+4030047Y+1820923D01*
X+4016546Y+1805735D01*
X+4003045Y+1805735D01*
X+3989544Y+1820923D01*
X+3989544Y+1843706D01*
X+3996294Y+1851301D01*
X+3996294Y+1874084D02*
X+3989544Y+1881678D01*
X+3989544Y+1904461D01*
X+3996294Y+1912056D01*
X+4003045Y+1912056D01*
X+4009795Y+1904461D01*
X+4009795Y+1881678D01*
X+4016546Y+1874084D01*
X+4030047Y+1874084D01*
X+4030047Y+1912056D01*
D22*
X+2835045Y+1760150D02*
X+3000145Y+1760150D01*
X+3000145Y+2071300D01*
X+2835045Y+2071300D01*
X+2835045Y+1760150D01*
D40*
X+2917600Y+1995100D02*
X+2917600Y+1995100D01*
D41*
X+2931097Y+1851301D02*
X+2937847Y+1843706D01*
X+2937847Y+1820923D01*
X+2924346Y+1805735D01*
X+2910845Y+1805735D01*
X+2897344Y+1820923D01*
X+2897344Y+1843706D01*
X+2904094Y+1851301D01*
X+2904094Y+1874084D02*
X+2897344Y+1881678D01*
X+2897344Y+1904461D01*
X+2904094Y+1912056D01*
X+2910845Y+1912056D01*
X+2917595Y+1904461D01*
X+2924346Y+1912056D01*
X+2931097Y+1912056D01*
X+2937847Y+1904461D01*
X+2937847Y+1881678D01*
X+2931097Y+1874084D01*
X+2917595Y+1889273D02*
X+2917595Y+1904461D01*
D22*
X+3000145Y+1760150D02*
X+3165245Y+1760150D01*
X+3165245Y+2071300D01*
X+3000145Y+2071300D01*
X+3000145Y+1760150D01*
D40*
X+3082700Y+1995100D02*
X+3082700Y+1995100D01*
D41*
X+3096197Y+1851301D02*
X+3102947Y+1843706D01*
X+3102947Y+1820923D01*
X+3089446Y+1805735D01*
X+3075945Y+1805735D01*
X+3062444Y+1820923D01*
X+3062444Y+1843706D01*
X+3069194Y+1851301D01*
X+3089446Y+1912056D02*
X+3089446Y+1866490D01*
X+3062444Y+1896867D01*
X+3102947Y+1896867D01*
D22*
X+2790100Y+1146000D02*
X+2810100Y+1146000D01*
X+2800100Y+1156000D02*
X+2800100Y+1136000D01*
X+2625100Y+946000D02*
X+2975100Y+946000D01*
X+2975100Y+1346000D01*
X+2625100Y+1346000D01*
X+2625100Y+946000D01*
D23*
X+2705100Y+1016000D02*
X+2705100Y+1016000D01*
D44*
X+2698148Y+1225619D02*
X+2698148Y+1168979D01*
X+2710892Y+1157651D01*
X+2761868Y+1157651D01*
X+2774612Y+1168979D01*
X+2774612Y+1225619D01*
X+2812844Y+1214291D02*
X+2825588Y+1225619D01*
X+2863820Y+1225619D01*
X+2876564Y+1214291D01*
X+2876564Y+1202963D01*
X+2863820Y+1191635D01*
X+2825588Y+1191635D01*
X+2812844Y+1180307D01*
X+2812844Y+1157651D01*
X+2876564Y+1157651D01*
D24*
X+3158490Y+966470D02*
X+3481070Y+966470D01*
X+3481070Y+1327150D01*
X+3158490Y+1327150D01*
X+3158490Y+966470D01*
D45*
X+3225800Y+1016000D02*
X+3225800Y+1016000D01*
D46*
X+3226817Y+1191810D02*
X+3250057Y+1212469D01*
X+3273298Y+1212469D01*
X+3296539Y+1191810D01*
X+3296539Y+1171152D01*
X+3273298Y+1150493D01*
X+3250057Y+1150493D01*
X+3226817Y+1171152D01*
X+3226817Y+1191810D01*
X+3273298Y+1171152D02*
X+3296539Y+1150493D01*
X+3343020Y+1191810D02*
X+3366261Y+1212469D01*
X+3366261Y+1150493D01*
D22*
X+2457455Y+939800D02*
X+2622555Y+939800D01*
X+2622555Y+1250950D01*
X+2457455Y+1250950D01*
X+2457455Y+939800D01*
D40*
X+2540000Y+1016000D02*
X+2540000Y+1016000D01*
D41*
X+2553507Y+1099044D02*
X+2560257Y+1091449D01*
X+2560257Y+1068666D01*
X+2546756Y+1053478D01*
X+2533255Y+1053478D01*
X+2519754Y+1068666D01*
X+2519754Y+1091449D01*
X+2526504Y+1099044D01*
X+2533255Y+1129421D02*
X+2519754Y+1144610D01*
X+2560257Y+1144610D01*
X+2533255Y+1190176D02*
X+2519754Y+1205365D01*
X+2560257Y+1205365D01*
D22*
X+3505205Y+939800D02*
X+3670305Y+939800D01*
X+3670305Y+1250950D01*
X+3505205Y+1250950D01*
X+3505205Y+939800D01*
D40*
X+3587750Y+1016000D02*
X+3587750Y+1016000D01*
D41*
X+3608007Y+1083855D02*
X+3567504Y+1083855D01*
X+3567504Y+1121826D01*
X+3574254Y+1129421D01*
X+3581005Y+1129421D01*
X+3587755Y+1121826D01*
X+3587755Y+1083855D01*
X+3587755Y+1121826D02*
X+3594506Y+1129421D01*
X+3608007Y+1129421D01*
X+3581005Y+1190176D02*
X+3587755Y+1182581D01*
X+3587755Y+1159798D01*
X+3581005Y+1152204D01*
X+3574254Y+1152204D01*
X+3567504Y+1159798D01*
X+3567504Y+1182581D01*
X+3574254Y+1190176D01*
X+3601257Y+1190176D01*
X+3608007Y+1182581D01*
X+3608007Y+1159798D01*
D22*
X+2978155Y+1250950D02*
X+3143255Y+1250950D01*
X+3143255Y+1562100D01*
X+2978155Y+1562100D01*
X+2978155Y+1250950D01*
D40*
X+3060700Y+1327150D02*
X+3060700Y+1327150D01*
D41*
X+3080957Y+1364628D02*
X+3040454Y+1364628D01*
X+3040454Y+1402599D01*
X+3047204Y+1410194D01*
X+3053955Y+1410194D01*
X+3060705Y+1402599D01*
X+3060705Y+1364628D01*
X+3060705Y+1402599D02*
X+3067456Y+1410194D01*
X+3080957Y+1410194D01*
X+3053955Y+1440571D02*
X+3040454Y+1455760D01*
X+3080957Y+1455760D01*
X+3074207Y+1486138D02*
X+3047204Y+1486138D01*
X+3040454Y+1493732D01*
X+3040454Y+1524109D01*
X+3047204Y+1531704D01*
X+3074207Y+1531704D01*
X+3080957Y+1524109D01*
X+3080957Y+1493732D01*
X+3074207Y+1486138D01*
X+3080957Y+1486138D02*
X+3040454Y+1531704D01*
D22*
X+2978155Y+939800D02*
X+3143255Y+939800D01*
X+3143255Y+1250950D01*
X+2978155Y+1250950D01*
X+2978155Y+939800D01*
D40*
X+3060700Y+1016000D02*
X+3060700Y+1016000D01*
D41*
X+3080957Y+1083855D02*
X+3040454Y+1083855D01*
X+3040454Y+1121826D01*
X+3047204Y+1129421D01*
X+3053955Y+1129421D01*
X+3060705Y+1121826D01*
X+3060705Y+1083855D01*
X+3060705Y+1121826D02*
X+3067456Y+1129421D01*
X+3080957Y+1129421D01*
X+3060705Y+1159798D02*
X+3053955Y+1152204D01*
X+3047204Y+1152204D01*
X+3040454Y+1159798D01*
X+3040454Y+1182581D01*
X+3047204Y+1190176D01*
X+3053955Y+1190176D01*
X+3060705Y+1182581D01*
X+3060705Y+1159798D01*
X+3067456Y+1152204D01*
X+3074207Y+1152204D01*
X+3080957Y+1159798D01*
X+3080957Y+1182581D01*
X+3074207Y+1190176D01*
X+3067456Y+1190176D01*
X+3060705Y+1182581D01*
D22*
X+2457445Y+1252200D02*
X+2622545Y+1252200D01*
X+2622545Y+1563350D01*
X+2457445Y+1563350D01*
X+2457445Y+1252200D01*
D40*
X+2540000Y+1487150D02*
X+2540000Y+1487150D01*
D41*
X+2553497Y+1343351D02*
X+2560247Y+1335756D01*
X+2560247Y+1312973D01*
X+2546746Y+1297785D01*
X+2533245Y+1297785D01*
X+2519744Y+1312973D01*
X+2519744Y+1335756D01*
X+2526494Y+1343351D01*
X+2533245Y+1404106D02*
X+2539995Y+1396511D01*
X+2539995Y+1373728D01*
X+2533245Y+1366134D01*
X+2526494Y+1366134D01*
X+2519744Y+1373728D01*
X+2519744Y+1396511D01*
X+2526494Y+1404106D01*
X+2553497Y+1404106D01*
X+2560247Y+1396511D01*
X+2560247Y+1373728D01*
D22*
X+2292345Y+1252200D02*
X+2457445Y+1252200D01*
X+2457445Y+1563350D01*
X+2292345Y+1563350D01*
X+2292345Y+1252200D01*
D40*
X+2374900Y+1487150D02*
X+2374900Y+1487150D01*
D41*
X+2388397Y+1312974D02*
X+2395147Y+1305379D01*
X+2395147Y+1282596D01*
X+2381646Y+1267408D01*
X+2368145Y+1267408D01*
X+2354644Y+1282596D01*
X+2354644Y+1305379D01*
X+2361394Y+1312974D01*
X+2368145Y+1343351D02*
X+2354644Y+1358540D01*
X+2395147Y+1358540D01*
X+2388397Y+1388918D02*
X+2361394Y+1388918D01*
X+2354644Y+1396512D01*
X+2354644Y+1426889D01*
X+2361394Y+1434484D01*
X+2388397Y+1434484D01*
X+2395147Y+1426889D01*
X+2395147Y+1396512D01*
X+2388397Y+1388918D01*
X+2395147Y+1388918D02*
X+2354644Y+1434484D01*
D22*
X+2641600Y+1404605D02*
X+2952750Y+1404605D01*
X+2952750Y+1569705D01*
X+2641600Y+1569705D01*
X+2641600Y+1404605D01*
D40*
X+2876550Y+1487150D02*
X+2876550Y+1487150D01*
D41*
X+2702374Y+1473653D02*
X+2694779Y+1466903D01*
X+2671996Y+1466903D01*
X+2656808Y+1480404D01*
X+2656808Y+1493905D01*
X+2671996Y+1507406D01*
X+2694779Y+1507406D01*
X+2702374Y+1500656D01*
X+2732751Y+1493905D02*
X+2747940Y+1507406D01*
X+2747940Y+1466903D01*
X+2785912Y+1500656D02*
X+2793506Y+1507406D01*
X+2816289Y+1507406D01*
X+2823884Y+1500656D01*
X+2823884Y+1493905D01*
X+2816289Y+1487155D01*
X+2793506Y+1487155D01*
X+2785912Y+1480404D01*
X+2785912Y+1466903D01*
X+2823884Y+1466903D01*
D22*
X+2292355Y+939800D02*
X+2457455Y+939800D01*
X+2457455Y+1250950D01*
X+2292355Y+1250950D01*
X+2292355Y+939800D01*
D40*
X+2374900Y+1016000D02*
X+2374900Y+1016000D01*
D41*
X+2388407Y+1099044D02*
X+2395157Y+1091449D01*
X+2395157Y+1068666D01*
X+2381656Y+1053478D01*
X+2368155Y+1053478D01*
X+2354654Y+1068666D01*
X+2354654Y+1091449D01*
X+2361404Y+1099044D01*
X+2368155Y+1129421D02*
X+2354654Y+1144610D01*
X+2395157Y+1144610D01*
X+2361404Y+1182582D02*
X+2354654Y+1190176D01*
X+2354654Y+1212959D01*
X+2361404Y+1220554D01*
X+2368155Y+1220554D01*
X+2374905Y+1212959D01*
X+2381656Y+1220554D01*
X+2388407Y+1220554D01*
X+2395157Y+1212959D01*
X+2395157Y+1190176D01*
X+2388407Y+1182582D01*
X+2374905Y+1197771D02*
X+2374905Y+1212959D01*
M02*
