G04 PROTEUS RS274X GERBER FILE*
%FSLAX45Y45*%
%MOMM*%
G01*
%ADD22C,0.025400*%
%ADD24C,0.127000*%
%ADD25C,0.100000*%
%ADD26C,0.200000*%
%ADD27C,0.203200*%
%ADD28C,0.031750*%
D22*
X+5492750Y+762000D02*
X+5492220Y+774958D01*
X+5487916Y+800876D01*
X+5478925Y+826794D01*
X+5464280Y+852712D01*
X+5441876Y+878466D01*
X+5415958Y+897958D01*
X+5390040Y+910530D01*
X+5364122Y+917866D01*
X+5338204Y+920694D01*
X+5334000Y+920750D01*
X+5175250Y+762000D02*
X+5175780Y+774958D01*
X+5180084Y+800876D01*
X+5189075Y+826794D01*
X+5203720Y+852712D01*
X+5226124Y+878466D01*
X+5252042Y+897958D01*
X+5277960Y+910530D01*
X+5303878Y+917866D01*
X+5329796Y+920694D01*
X+5334000Y+920750D01*
X+5175250Y+762000D02*
X+5175780Y+749042D01*
X+5180084Y+723124D01*
X+5189075Y+697206D01*
X+5203720Y+671288D01*
X+5226124Y+645534D01*
X+5252042Y+626042D01*
X+5277960Y+613470D01*
X+5303878Y+606134D01*
X+5329796Y+603306D01*
X+5334000Y+603250D01*
X+5492750Y+762000D02*
X+5492220Y+749042D01*
X+5487916Y+723124D01*
X+5478925Y+697206D01*
X+5464280Y+671288D01*
X+5441876Y+645534D01*
X+5415958Y+626042D01*
X+5390040Y+613470D01*
X+5364122Y+606134D01*
X+5338204Y+603306D01*
X+5334000Y+603250D01*
X+5492750Y+3556000D02*
X+5492220Y+3568958D01*
X+5487916Y+3594876D01*
X+5478925Y+3620794D01*
X+5464280Y+3646712D01*
X+5441876Y+3672466D01*
X+5415958Y+3691958D01*
X+5390040Y+3704530D01*
X+5364122Y+3711866D01*
X+5338204Y+3714694D01*
X+5334000Y+3714750D01*
X+5175250Y+3556000D02*
X+5175780Y+3568958D01*
X+5180084Y+3594876D01*
X+5189075Y+3620794D01*
X+5203720Y+3646712D01*
X+5226124Y+3672466D01*
X+5252042Y+3691958D01*
X+5277960Y+3704530D01*
X+5303878Y+3711866D01*
X+5329796Y+3714694D01*
X+5334000Y+3714750D01*
X+5175250Y+3556000D02*
X+5175780Y+3543042D01*
X+5180084Y+3517124D01*
X+5189075Y+3491206D01*
X+5203720Y+3465288D01*
X+5226124Y+3439534D01*
X+5252042Y+3420042D01*
X+5277960Y+3407470D01*
X+5303878Y+3400134D01*
X+5329796Y+3397306D01*
X+5334000Y+3397250D01*
X+5492750Y+3556000D02*
X+5492220Y+3543042D01*
X+5487916Y+3517124D01*
X+5478925Y+3491206D01*
X+5464280Y+3465288D01*
X+5441876Y+3439534D01*
X+5415958Y+3420042D01*
X+5390040Y+3407470D01*
X+5364122Y+3400134D01*
X+5338204Y+3397306D01*
X+5334000Y+3397250D01*
X+412750Y+5080000D02*
X+412220Y+5092958D01*
X+407916Y+5118876D01*
X+398925Y+5144794D01*
X+384280Y+5170712D01*
X+361876Y+5196466D01*
X+335958Y+5215958D01*
X+310040Y+5228530D01*
X+284122Y+5235866D01*
X+258204Y+5238694D01*
X+254000Y+5238750D01*
X+95250Y+5080000D02*
X+95780Y+5092958D01*
X+100084Y+5118876D01*
X+109075Y+5144794D01*
X+123720Y+5170712D01*
X+146124Y+5196466D01*
X+172042Y+5215958D01*
X+197960Y+5228530D01*
X+223878Y+5235866D01*
X+249796Y+5238694D01*
X+254000Y+5238750D01*
X+95250Y+5080000D02*
X+95780Y+5067042D01*
X+100084Y+5041124D01*
X+109075Y+5015206D01*
X+123720Y+4989288D01*
X+146124Y+4963534D01*
X+172042Y+4944042D01*
X+197960Y+4931470D01*
X+223878Y+4924134D01*
X+249796Y+4921306D01*
X+254000Y+4921250D01*
X+412750Y+5080000D02*
X+412220Y+5067042D01*
X+407916Y+5041124D01*
X+398925Y+5015206D01*
X+384280Y+4989288D01*
X+361876Y+4963534D01*
X+335958Y+4944042D01*
X+310040Y+4931470D01*
X+284122Y+4924134D01*
X+258204Y+4921306D01*
X+254000Y+4921250D01*
X+412750Y+254000D02*
X+412220Y+266958D01*
X+407916Y+292876D01*
X+398925Y+318794D01*
X+384280Y+344712D01*
X+361876Y+370466D01*
X+335958Y+389958D01*
X+310040Y+402530D01*
X+284122Y+409866D01*
X+258204Y+412694D01*
X+254000Y+412750D01*
X+95250Y+254000D02*
X+95780Y+266958D01*
X+100084Y+292876D01*
X+109075Y+318794D01*
X+123720Y+344712D01*
X+146124Y+370466D01*
X+172042Y+389958D01*
X+197960Y+402530D01*
X+223878Y+409866D01*
X+249796Y+412694D01*
X+254000Y+412750D01*
X+95250Y+254000D02*
X+95780Y+241042D01*
X+100084Y+215124D01*
X+109075Y+189206D01*
X+123720Y+163288D01*
X+146124Y+137534D01*
X+172042Y+118042D01*
X+197960Y+105470D01*
X+223878Y+98134D01*
X+249796Y+95306D01*
X+254000Y+95250D01*
X+412750Y+254000D02*
X+412220Y+241042D01*
X+407916Y+215124D01*
X+398925Y+189206D01*
X+384280Y+163288D01*
X+361876Y+137534D01*
X+335958Y+118042D01*
X+310040Y+105470D01*
X+284122Y+98134D01*
X+258204Y+95306D01*
X+254000Y+95250D01*
X+0Y+127000D02*
X+2527Y+101032D01*
X+9798Y+77018D01*
X+21348Y+55423D01*
X+36711Y+36711D01*
X+55423Y+21347D01*
X+77018Y+9798D01*
X+101032Y+2527D01*
X+127000Y+0D01*
X+5207000Y+0D01*
X+5232967Y+2527D01*
X+5256981Y+9798D01*
X+5278577Y+21347D01*
X+5297289Y+36711D01*
X+5312652Y+55423D01*
X+5324202Y+77018D01*
X+5331473Y+101032D01*
X+5334000Y+127000D01*
X+5334000Y+254000D01*
X+5588000Y+508000D01*
X+5588000Y+3810000D01*
X+5334000Y+4064000D01*
X+5334000Y+5207000D01*
X+5207000Y+5334000D01*
X+127000Y+5334000D01*
X+101032Y+5331473D01*
X+77018Y+5324202D01*
X+55423Y+5312652D01*
X+36711Y+5297289D01*
X+21348Y+5278577D01*
X+9798Y+5256981D01*
X+2527Y+5232967D01*
X+0Y+5207000D01*
X+0Y+127000D01*
D24*
X+889000Y+127000D02*
X+3429000Y+127000D01*
X+3429000Y+381000D01*
X+889000Y+381000D01*
X+889000Y+127000D01*
X+3429000Y+127000D02*
X+5207000Y+127000D01*
X+5207000Y+381000D01*
X+3429000Y+381000D01*
X+3429000Y+127000D01*
X+482600Y+4953000D02*
X+3022600Y+4953000D01*
X+3022600Y+5207000D01*
X+482600Y+5207000D01*
X+482600Y+4953000D01*
X+3175000Y+4953000D02*
X+5207000Y+4953000D01*
X+5207000Y+5207000D01*
X+3175000Y+5207000D01*
X+3175000Y+4953000D01*
X+1282700Y+5257800D02*
X+1460500Y+5257800D01*
D25*
X+65300Y+1865500D02*
X+1230300Y+1865500D01*
X+1230300Y+1865500D01*
X+65300Y+1865500D01*
X+65300Y+1865500D01*
X+65300Y+3469500D02*
X+1205300Y+3469500D01*
X+1205300Y+3469500D01*
X+65300Y+3469500D01*
X+65300Y+3469500D01*
X+1655300Y+3469500D02*
X+2195300Y+3469500D01*
X+2195300Y+3469500D01*
X+1655300Y+3469500D01*
X+1655300Y+3469500D01*
X+1655300Y+1865500D02*
X+2195300Y+1865500D01*
X+2195300Y+1865500D01*
X+1655300Y+1865500D01*
X+1655300Y+1865500D01*
D26*
X+1780300Y+3516500D02*
X+1775300Y+3521500D01*
X+1770300Y+3516500D01*
X+1775300Y+3511500D01*
X+1780300Y+3516500D01*
D27*
X+2993500Y+2359100D02*
X+3923500Y+2359100D01*
X+3923500Y+2859100D01*
X+2993500Y+2859100D01*
X+2993500Y+2359100D01*
D24*
X+3883500Y+2809100D02*
X+3883465Y+2809931D01*
X+3883184Y+2811595D01*
X+3882594Y+2813259D01*
X+3881630Y+2814923D01*
X+3880155Y+2816564D01*
X+3878491Y+2817765D01*
X+3876827Y+2818530D01*
X+3875163Y+2818961D01*
X+3873500Y+2819100D01*
X+3863500Y+2809100D02*
X+3863535Y+2809931D01*
X+3863816Y+2811595D01*
X+3864406Y+2813259D01*
X+3865370Y+2814923D01*
X+3866845Y+2816564D01*
X+3868509Y+2817765D01*
X+3870173Y+2818530D01*
X+3871837Y+2818961D01*
X+3873500Y+2819100D01*
X+3863500Y+2809100D02*
X+3863535Y+2808269D01*
X+3863816Y+2806605D01*
X+3864406Y+2804941D01*
X+3865370Y+2803277D01*
X+3866845Y+2801636D01*
X+3868509Y+2800435D01*
X+3870173Y+2799670D01*
X+3871837Y+2799239D01*
X+3873500Y+2799100D01*
X+3883500Y+2809100D02*
X+3883465Y+2808269D01*
X+3883184Y+2806605D01*
X+3882594Y+2804941D01*
X+3881630Y+2803277D01*
X+3880155Y+2801636D01*
X+3878491Y+2800435D01*
X+3876827Y+2799670D01*
X+3875163Y+2799239D01*
X+3873500Y+2799100D01*
D28*
X+3972708Y+2476023D02*
X+3972708Y+2493803D01*
X+3972708Y+2684303D02*
X+3972708Y+2704623D01*
X+3975248Y+2338863D02*
X+3975248Y+2356643D01*
X+3975248Y+2407443D02*
X+3975248Y+2425223D01*
X+3975248Y+2470943D02*
X+3975248Y+2498883D01*
X+3975248Y+2539523D02*
X+3975248Y+2557303D01*
X+3975248Y+2590323D02*
X+3975248Y+2648743D01*
X+3975248Y+2676683D02*
X+3975248Y+2712243D01*
X+3975248Y+2750343D02*
X+3975248Y+2763043D01*
X+3975248Y+2808763D02*
X+3975248Y+2818923D01*
X+3975248Y+2836703D02*
X+3975248Y+2902743D01*
X+3977788Y+2333783D02*
X+3977788Y+2364263D01*
X+3977788Y+2402363D02*
X+3977788Y+2432843D01*
X+3977788Y+2468403D02*
X+3977788Y+2503963D01*
X+3977788Y+2531903D02*
X+3977788Y+2564923D01*
X+3977788Y+2590323D02*
X+3977788Y+2648743D01*
X+3977788Y+2674143D02*
X+3977788Y+2714783D01*
X+3977788Y+2750343D02*
X+3977788Y+2763043D01*
X+3977788Y+2808763D02*
X+3977788Y+2818923D01*
X+3977788Y+2836703D02*
X+3977788Y+2902743D01*
X+3980328Y+2328703D02*
X+3980328Y+2366803D01*
X+3980328Y+2397283D02*
X+3980328Y+2435383D01*
X+3980328Y+2465863D02*
X+3980328Y+2503963D01*
X+3980328Y+2529363D02*
X+3980328Y+2567463D01*
X+3980328Y+2590323D02*
X+3980328Y+2648743D01*
X+3980328Y+2669063D02*
X+3980328Y+2719863D01*
X+3980328Y+2750343D02*
X+3980328Y+2765583D01*
X+3980328Y+2808763D02*
X+3980328Y+2818923D01*
X+3980328Y+2836703D02*
X+3980328Y+2902743D01*
X+3982868Y+2326163D02*
X+3982868Y+2369343D01*
X+3982868Y+2394743D02*
X+3982868Y+2437923D01*
X+3982868Y+2463323D02*
X+3982868Y+2478563D01*
X+3982868Y+2491263D02*
X+3982868Y+2506503D01*
X+3982868Y+2526823D02*
X+3982868Y+2570003D01*
X+3982868Y+2590323D02*
X+3982868Y+2646203D01*
X+3982868Y+2666523D02*
X+3982868Y+2686843D01*
X+3982868Y+2702083D02*
X+3982868Y+2722403D01*
X+3982868Y+2750343D02*
X+3982868Y+2768123D01*
X+3982868Y+2808763D02*
X+3982868Y+2818923D01*
X+3982868Y+2836703D02*
X+3982868Y+2902743D01*
X+3985408Y+2326163D02*
X+3985408Y+2341403D01*
X+3985408Y+2354103D02*
X+3985408Y+2369343D01*
X+3985408Y+2392203D02*
X+3985408Y+2407443D01*
X+3985408Y+2425223D02*
X+3985408Y+2440463D01*
X+3985408Y+2463323D02*
X+3985408Y+2473483D01*
X+3985408Y+2493803D02*
X+3985408Y+2506503D01*
X+3985408Y+2524283D02*
X+3985408Y+2539523D01*
X+3985408Y+2557303D02*
X+3985408Y+2572543D01*
X+3985408Y+2633503D02*
X+3985408Y+2646203D01*
X+3985408Y+2666523D02*
X+3985408Y+2681763D01*
X+3985408Y+2707163D02*
X+3985408Y+2722403D01*
X+3985408Y+2750343D02*
X+3985408Y+2768123D01*
X+3985408Y+2808763D02*
X+3985408Y+2818923D01*
X+3985408Y+2892583D02*
X+3985408Y+2902743D01*
X+3987948Y+2323623D02*
X+3987948Y+2336323D01*
X+3987948Y+2359183D02*
X+3987948Y+2371883D01*
X+3987948Y+2392203D02*
X+3987948Y+2404903D01*
X+3987948Y+2430303D02*
X+3987948Y+2443003D01*
X+3987948Y+2463323D02*
X+3987948Y+2473483D01*
X+3987948Y+2496343D02*
X+3987948Y+2509043D01*
X+3987948Y+2521743D02*
X+3987948Y+2534443D01*
X+3987948Y+2562383D02*
X+3987948Y+2575083D01*
X+3987948Y+2630963D02*
X+3987948Y+2643663D01*
X+3987948Y+2663983D02*
X+3987948Y+2676683D01*
X+3987948Y+2712243D02*
X+3987948Y+2724943D01*
X+3987948Y+2750343D02*
X+3987948Y+2770663D01*
X+3987948Y+2808763D02*
X+3987948Y+2818923D01*
X+3987948Y+2892583D02*
X+3987948Y+2902743D01*
X+3990488Y+2323623D02*
X+3990488Y+2333783D01*
X+3990488Y+2361723D02*
X+3990488Y+2371883D01*
X+3990488Y+2389663D02*
X+3990488Y+2402363D01*
X+3990488Y+2432843D02*
X+3990488Y+2443003D01*
X+3990488Y+2460783D02*
X+3990488Y+2470943D01*
X+3990488Y+2496343D02*
X+3990488Y+2509043D01*
X+3990488Y+2521743D02*
X+3990488Y+2531903D01*
X+3990488Y+2564923D02*
X+3990488Y+2575083D01*
X+3990488Y+2628423D02*
X+3990488Y+2641123D01*
X+3990488Y+2663983D02*
X+3990488Y+2674143D01*
X+3990488Y+2714783D02*
X+3990488Y+2727483D01*
X+3990488Y+2750343D02*
X+3990488Y+2773203D01*
X+3990488Y+2808763D02*
X+3990488Y+2818923D01*
X+3990488Y+2892583D02*
X+3990488Y+2902743D01*
X+3993028Y+2321083D02*
X+3993028Y+2331243D01*
X+3993028Y+2364263D02*
X+3993028Y+2374423D01*
X+3993028Y+2389663D02*
X+3993028Y+2399823D01*
X+3993028Y+2435383D02*
X+3993028Y+2445543D01*
X+3993028Y+2460783D02*
X+3993028Y+2470943D01*
X+3993028Y+2498883D02*
X+3993028Y+2509043D01*
X+3993028Y+2519203D02*
X+3993028Y+2531903D01*
X+3993028Y+2564923D02*
X+3993028Y+2577623D01*
X+3993028Y+2625883D02*
X+3993028Y+2638583D01*
X+3993028Y+2661443D02*
X+3993028Y+2674143D01*
X+3993028Y+2717323D02*
X+3993028Y+2727483D01*
X+3993028Y+2750343D02*
X+3993028Y+2760503D01*
X+3993028Y+2763043D02*
X+3993028Y+2773203D01*
X+3993028Y+2808763D02*
X+3993028Y+2818923D01*
X+3993028Y+2892583D02*
X+3993028Y+2902743D01*
X+3995568Y+2321083D02*
X+3995568Y+2331243D01*
X+3995568Y+2364263D02*
X+3995568Y+2374423D01*
X+3995568Y+2387123D02*
X+3995568Y+2399823D01*
X+3995568Y+2435383D02*
X+3995568Y+2445543D01*
X+3995568Y+2460783D02*
X+3995568Y+2470943D01*
X+3995568Y+2498883D02*
X+3995568Y+2509043D01*
X+3995568Y+2519203D02*
X+3995568Y+2529363D01*
X+3995568Y+2567463D02*
X+3995568Y+2577623D01*
X+3995568Y+2623343D02*
X+3995568Y+2636043D01*
X+3995568Y+2661443D02*
X+3995568Y+2671603D01*
X+3995568Y+2717323D02*
X+3995568Y+2727483D01*
X+3995568Y+2750343D02*
X+3995568Y+2760503D01*
X+3995568Y+2763043D02*
X+3995568Y+2775743D01*
X+3995568Y+2808763D02*
X+3995568Y+2818923D01*
X+3995568Y+2892583D02*
X+3995568Y+2902743D01*
X+3998108Y+2321083D02*
X+3998108Y+2331243D01*
X+3998108Y+2364263D02*
X+3998108Y+2374423D01*
X+3998108Y+2387123D02*
X+3998108Y+2397283D01*
X+3998108Y+2437923D02*
X+3998108Y+2445543D01*
X+3998108Y+2460783D02*
X+3998108Y+2470943D01*
X+3998108Y+2498883D02*
X+3998108Y+2509043D01*
X+3998108Y+2519203D02*
X+3998108Y+2529363D01*
X+3998108Y+2567463D02*
X+3998108Y+2577623D01*
X+3998108Y+2618263D02*
X+3998108Y+2633503D01*
X+3998108Y+2658903D02*
X+3998108Y+2671603D01*
X+3998108Y+2719863D02*
X+3998108Y+2730023D01*
X+3998108Y+2750343D02*
X+3998108Y+2760503D01*
X+3998108Y+2765583D02*
X+3998108Y+2778283D01*
X+3998108Y+2808763D02*
X+3998108Y+2818923D01*
X+3998108Y+2892583D02*
X+3998108Y+2902743D01*
X+4000648Y+2321083D02*
X+4000648Y+2331243D01*
X+4000648Y+2364263D02*
X+4000648Y+2374423D01*
X+4000648Y+2387123D02*
X+4000648Y+2397283D01*
X+4000648Y+2437923D02*
X+4000648Y+2445543D01*
X+4000648Y+2460783D02*
X+4000648Y+2470943D01*
X+4000648Y+2519203D02*
X+4000648Y+2529363D01*
X+4000648Y+2567463D02*
X+4000648Y+2577623D01*
X+4000648Y+2615723D02*
X+4000648Y+2630963D01*
X+4000648Y+2658903D02*
X+4000648Y+2669063D01*
X+4000648Y+2719863D02*
X+4000648Y+2730023D01*
X+4000648Y+2750343D02*
X+4000648Y+2760503D01*
X+4000648Y+2768123D02*
X+4000648Y+2778283D01*
X+4000648Y+2808763D02*
X+4000648Y+2818923D01*
X+4000648Y+2892583D02*
X+4000648Y+2902743D01*
X+4003188Y+2318543D02*
X+4003188Y+2328703D01*
X+4003188Y+2366803D02*
X+4003188Y+2376963D01*
X+4003188Y+2387123D02*
X+4003188Y+2397283D01*
X+4003188Y+2437923D02*
X+4003188Y+2448083D01*
X+4003188Y+2460783D02*
X+4003188Y+2470943D01*
X+4003188Y+2519203D02*
X+4003188Y+2529363D01*
X+4003188Y+2567463D02*
X+4003188Y+2577623D01*
X+4003188Y+2613183D02*
X+4003188Y+2628423D01*
X+4003188Y+2663983D02*
X+4003188Y+2669063D01*
X+4003188Y+2719863D02*
X+4003188Y+2730023D01*
X+4003188Y+2750343D02*
X+4003188Y+2760503D01*
X+4003188Y+2768123D02*
X+4003188Y+2780823D01*
X+4003188Y+2808763D02*
X+4003188Y+2818923D01*
X+4003188Y+2892583D02*
X+4003188Y+2902743D01*
X+4005728Y+2318543D02*
X+4005728Y+2328703D01*
X+4005728Y+2366803D02*
X+4005728Y+2376963D01*
X+4005728Y+2387123D02*
X+4005728Y+2397283D01*
X+4005728Y+2437923D02*
X+4005728Y+2448083D01*
X+4005728Y+2460783D02*
X+4005728Y+2470943D01*
X+4005728Y+2519203D02*
X+4005728Y+2529363D01*
X+4005728Y+2567463D02*
X+4005728Y+2577623D01*
X+4005728Y+2610643D02*
X+4005728Y+2623343D01*
X+4005728Y+2722403D02*
X+4005728Y+2732563D01*
X+4005728Y+2750343D02*
X+4005728Y+2760503D01*
X+4005728Y+2770663D02*
X+4005728Y+2780823D01*
X+4005728Y+2808763D02*
X+4005728Y+2818923D01*
X+4005728Y+2892583D02*
X+4005728Y+2902743D01*
X+4008268Y+2318543D02*
X+4008268Y+2328703D01*
X+4008268Y+2366803D02*
X+4008268Y+2376963D01*
X+4008268Y+2387123D02*
X+4008268Y+2397283D01*
X+4008268Y+2437923D02*
X+4008268Y+2448083D01*
X+4008268Y+2460783D02*
X+4008268Y+2470943D01*
X+4008268Y+2519203D02*
X+4008268Y+2531903D01*
X+4008268Y+2564923D02*
X+4008268Y+2577623D01*
X+4008268Y+2608103D02*
X+4008268Y+2620803D01*
X+4008268Y+2722403D02*
X+4008268Y+2732563D01*
X+4008268Y+2750343D02*
X+4008268Y+2760503D01*
X+4008268Y+2773203D02*
X+4008268Y+2783363D01*
X+4008268Y+2808763D02*
X+4008268Y+2818923D01*
X+4008268Y+2892583D02*
X+4008268Y+2902743D01*
X+4010808Y+2318543D02*
X+4010808Y+2328703D01*
X+4010808Y+2366803D02*
X+4010808Y+2376963D01*
X+4010808Y+2387123D02*
X+4010808Y+2397283D01*
X+4010808Y+2437923D02*
X+4010808Y+2448083D01*
X+4010808Y+2460783D02*
X+4010808Y+2470943D01*
X+4010808Y+2521743D02*
X+4010808Y+2531903D01*
X+4010808Y+2564923D02*
X+4010808Y+2575083D01*
X+4010808Y+2605563D02*
X+4010808Y+2618263D01*
X+4010808Y+2722403D02*
X+4010808Y+2732563D01*
X+4010808Y+2750343D02*
X+4010808Y+2760503D01*
X+4010808Y+2773203D02*
X+4010808Y+2785903D01*
X+4010808Y+2808763D02*
X+4010808Y+2818923D01*
X+4010808Y+2892583D02*
X+4010808Y+2902743D01*
X+4013348Y+2318543D02*
X+4013348Y+2328703D01*
X+4013348Y+2366803D02*
X+4013348Y+2376963D01*
X+4013348Y+2389663D02*
X+4013348Y+2399823D01*
X+4013348Y+2435383D02*
X+4013348Y+2448083D01*
X+4013348Y+2460783D02*
X+4013348Y+2470943D01*
X+4013348Y+2521743D02*
X+4013348Y+2534443D01*
X+4013348Y+2562383D02*
X+4013348Y+2575083D01*
X+4013348Y+2603023D02*
X+4013348Y+2615723D01*
X+4013348Y+2722403D02*
X+4013348Y+2732563D01*
X+4013348Y+2750343D02*
X+4013348Y+2760503D01*
X+4013348Y+2775743D02*
X+4013348Y+2785903D01*
X+4013348Y+2808763D02*
X+4013348Y+2818923D01*
X+4013348Y+2892583D02*
X+4013348Y+2902743D01*
X+4015888Y+2318543D02*
X+4015888Y+2328703D01*
X+4015888Y+2366803D02*
X+4015888Y+2376963D01*
X+4015888Y+2389663D02*
X+4015888Y+2402363D01*
X+4015888Y+2432843D02*
X+4015888Y+2448083D01*
X+4015888Y+2460783D02*
X+4015888Y+2470943D01*
X+4015888Y+2524283D02*
X+4015888Y+2539523D01*
X+4015888Y+2557303D02*
X+4015888Y+2572543D01*
X+4015888Y+2600483D02*
X+4015888Y+2613183D01*
X+4015888Y+2722403D02*
X+4015888Y+2732563D01*
X+4015888Y+2750343D02*
X+4015888Y+2760503D01*
X+4015888Y+2778283D02*
X+4015888Y+2788443D01*
X+4015888Y+2808763D02*
X+4015888Y+2818923D01*
X+4015888Y+2841783D02*
X+4015888Y+2902743D01*
X+4018428Y+2318543D02*
X+4018428Y+2328703D01*
X+4018428Y+2366803D02*
X+4018428Y+2376963D01*
X+4018428Y+2389663D02*
X+4018428Y+2404903D01*
X+4018428Y+2430303D02*
X+4018428Y+2448083D01*
X+4018428Y+2460783D02*
X+4018428Y+2470943D01*
X+4018428Y+2526823D02*
X+4018428Y+2570003D01*
X+4018428Y+2597943D02*
X+4018428Y+2610643D01*
X+4018428Y+2722403D02*
X+4018428Y+2732563D01*
X+4018428Y+2750343D02*
X+4018428Y+2760503D01*
X+4018428Y+2778283D02*
X+4018428Y+2790983D01*
X+4018428Y+2808763D02*
X+4018428Y+2818923D01*
X+4018428Y+2841783D02*
X+4018428Y+2902743D01*
X+4020968Y+2318543D02*
X+4020968Y+2328703D01*
X+4020968Y+2366803D02*
X+4020968Y+2376963D01*
X+4020968Y+2392203D02*
X+4020968Y+2407443D01*
X+4020968Y+2425223D02*
X+4020968Y+2448083D01*
X+4020968Y+2460783D02*
X+4020968Y+2470943D01*
X+4020968Y+2529363D02*
X+4020968Y+2567463D01*
X+4020968Y+2595403D02*
X+4020968Y+2608103D01*
X+4020968Y+2722403D02*
X+4020968Y+2732563D01*
X+4020968Y+2750343D02*
X+4020968Y+2760503D01*
X+4020968Y+2780823D02*
X+4020968Y+2790983D01*
X+4020968Y+2808763D02*
X+4020968Y+2818923D01*
X+4020968Y+2841783D02*
X+4020968Y+2902743D01*
X+4023508Y+2318543D02*
X+4023508Y+2328703D01*
X+4023508Y+2366803D02*
X+4023508Y+2376963D01*
X+4023508Y+2394743D02*
X+4023508Y+2435383D01*
X+4023508Y+2437923D02*
X+4023508Y+2448083D01*
X+4023508Y+2460783D02*
X+4023508Y+2470943D01*
X+4023508Y+2531903D02*
X+4023508Y+2564923D01*
X+4023508Y+2595403D02*
X+4023508Y+2605563D01*
X+4023508Y+2722403D02*
X+4023508Y+2732563D01*
X+4023508Y+2750343D02*
X+4023508Y+2760503D01*
X+4023508Y+2783363D02*
X+4023508Y+2793523D01*
X+4023508Y+2808763D02*
X+4023508Y+2818923D01*
X+4023508Y+2841783D02*
X+4023508Y+2902743D01*
X+4026048Y+2318543D02*
X+4026048Y+2328703D01*
X+4026048Y+2366803D02*
X+4026048Y+2376963D01*
X+4026048Y+2397283D02*
X+4026048Y+2432843D01*
X+4026048Y+2437923D02*
X+4026048Y+2448083D01*
X+4026048Y+2460783D02*
X+4026048Y+2470943D01*
X+4026048Y+2526823D02*
X+4026048Y+2567463D01*
X+4026048Y+2592863D02*
X+4026048Y+2605563D01*
X+4026048Y+2722403D02*
X+4026048Y+2732563D01*
X+4026048Y+2750343D02*
X+4026048Y+2760503D01*
X+4026048Y+2783363D02*
X+4026048Y+2796063D01*
X+4026048Y+2808763D02*
X+4026048Y+2818923D01*
X+4026048Y+2892583D02*
X+4026048Y+2902743D01*
X+4028588Y+2318543D02*
X+4028588Y+2328703D01*
X+4028588Y+2366803D02*
X+4028588Y+2376963D01*
X+4028588Y+2399823D02*
X+4028588Y+2430303D01*
X+4028588Y+2437923D02*
X+4028588Y+2448083D01*
X+4028588Y+2460783D02*
X+4028588Y+2470943D01*
X+4028588Y+2524283D02*
X+4028588Y+2539523D01*
X+4028588Y+2557303D02*
X+4028588Y+2570003D01*
X+4028588Y+2592863D02*
X+4028588Y+2603023D01*
X+4028588Y+2722403D02*
X+4028588Y+2732563D01*
X+4028588Y+2750343D02*
X+4028588Y+2760503D01*
X+4028588Y+2785903D02*
X+4028588Y+2796063D01*
X+4028588Y+2808763D02*
X+4028588Y+2818923D01*
X+4028588Y+2892583D02*
X+4028588Y+2902743D01*
X+4031128Y+2318543D02*
X+4031128Y+2328703D01*
X+4031128Y+2366803D02*
X+4031128Y+2376963D01*
X+4031128Y+2407443D02*
X+4031128Y+2422683D01*
X+4031128Y+2437923D02*
X+4031128Y+2448083D01*
X+4031128Y+2460783D02*
X+4031128Y+2470943D01*
X+4031128Y+2524283D02*
X+4031128Y+2534443D01*
X+4031128Y+2559843D02*
X+4031128Y+2572543D01*
X+4031128Y+2590323D02*
X+4031128Y+2600483D01*
X+4031128Y+2722403D02*
X+4031128Y+2732563D01*
X+4031128Y+2750343D02*
X+4031128Y+2760503D01*
X+4031128Y+2788443D02*
X+4031128Y+2798603D01*
X+4031128Y+2808763D02*
X+4031128Y+2818923D01*
X+4031128Y+2892583D02*
X+4031128Y+2902743D01*
X+4033668Y+2318543D02*
X+4033668Y+2328703D01*
X+4033668Y+2366803D02*
X+4033668Y+2376963D01*
X+4033668Y+2437923D02*
X+4033668Y+2445543D01*
X+4033668Y+2460783D02*
X+4033668Y+2470943D01*
X+4033668Y+2521743D02*
X+4033668Y+2534443D01*
X+4033668Y+2562383D02*
X+4033668Y+2575083D01*
X+4033668Y+2590323D02*
X+4033668Y+2600483D01*
X+4033668Y+2719863D02*
X+4033668Y+2730023D01*
X+4033668Y+2750343D02*
X+4033668Y+2760503D01*
X+4033668Y+2788443D02*
X+4033668Y+2801143D01*
X+4033668Y+2808763D02*
X+4033668Y+2818923D01*
X+4033668Y+2892583D02*
X+4033668Y+2902743D01*
X+4036208Y+2321083D02*
X+4036208Y+2331243D01*
X+4036208Y+2364263D02*
X+4036208Y+2374423D01*
X+4036208Y+2435383D02*
X+4036208Y+2445543D01*
X+4036208Y+2460783D02*
X+4036208Y+2470943D01*
X+4036208Y+2521743D02*
X+4036208Y+2531903D01*
X+4036208Y+2564923D02*
X+4036208Y+2575083D01*
X+4036208Y+2590323D02*
X+4036208Y+2600483D01*
X+4036208Y+2636043D02*
X+4036208Y+2641123D01*
X+4036208Y+2719863D02*
X+4036208Y+2730023D01*
X+4036208Y+2750343D02*
X+4036208Y+2760503D01*
X+4036208Y+2790983D02*
X+4036208Y+2801143D01*
X+4036208Y+2808763D02*
X+4036208Y+2818923D01*
X+4036208Y+2892583D02*
X+4036208Y+2902743D01*
X+4038748Y+2321083D02*
X+4038748Y+2331243D01*
X+4038748Y+2364263D02*
X+4038748Y+2374423D01*
X+4038748Y+2435383D02*
X+4038748Y+2445543D01*
X+4038748Y+2460783D02*
X+4038748Y+2470943D01*
X+4038748Y+2521743D02*
X+4038748Y+2531903D01*
X+4038748Y+2564923D02*
X+4038748Y+2575083D01*
X+4038748Y+2590323D02*
X+4038748Y+2600483D01*
X+4038748Y+2636043D02*
X+4038748Y+2646203D01*
X+4038748Y+2661443D02*
X+4038748Y+2671603D01*
X+4038748Y+2719863D02*
X+4038748Y+2730023D01*
X+4038748Y+2750343D02*
X+4038748Y+2760503D01*
X+4038748Y+2790983D02*
X+4038748Y+2803683D01*
X+4038748Y+2808763D02*
X+4038748Y+2818923D01*
X+4038748Y+2892583D02*
X+4038748Y+2902743D01*
X+4041288Y+2321083D02*
X+4041288Y+2331243D01*
X+4041288Y+2364263D02*
X+4041288Y+2374423D01*
X+4041288Y+2389663D02*
X+4041288Y+2399823D01*
X+4041288Y+2432843D02*
X+4041288Y+2445543D01*
X+4041288Y+2460783D02*
X+4041288Y+2470943D01*
X+4041288Y+2521743D02*
X+4041288Y+2531903D01*
X+4041288Y+2564923D02*
X+4041288Y+2575083D01*
X+4041288Y+2590323D02*
X+4041288Y+2600483D01*
X+4041288Y+2636043D02*
X+4041288Y+2646203D01*
X+4041288Y+2661443D02*
X+4041288Y+2674143D01*
X+4041288Y+2717323D02*
X+4041288Y+2730023D01*
X+4041288Y+2750343D02*
X+4041288Y+2760503D01*
X+4041288Y+2793523D02*
X+4041288Y+2806223D01*
X+4041288Y+2808763D02*
X+4041288Y+2818923D01*
X+4041288Y+2892583D02*
X+4041288Y+2902743D01*
X+4043828Y+2321083D02*
X+4043828Y+2333783D01*
X+4043828Y+2364263D02*
X+4043828Y+2374423D01*
X+4043828Y+2389663D02*
X+4043828Y+2402363D01*
X+4043828Y+2432843D02*
X+4043828Y+2443003D01*
X+4043828Y+2460783D02*
X+4043828Y+2470943D01*
X+4043828Y+2521743D02*
X+4043828Y+2531903D01*
X+4043828Y+2564923D02*
X+4043828Y+2575083D01*
X+4043828Y+2590323D02*
X+4043828Y+2603023D01*
X+4043828Y+2633503D02*
X+4043828Y+2646203D01*
X+4043828Y+2663983D02*
X+4043828Y+2674143D01*
X+4043828Y+2717323D02*
X+4043828Y+2727483D01*
X+4043828Y+2750343D02*
X+4043828Y+2760503D01*
X+4043828Y+2796063D02*
X+4043828Y+2806223D01*
X+4043828Y+2808763D02*
X+4043828Y+2818923D01*
X+4043828Y+2892583D02*
X+4043828Y+2902743D01*
X+4046368Y+2323623D02*
X+4046368Y+2333783D01*
X+4046368Y+2361723D02*
X+4046368Y+2371883D01*
X+4046368Y+2392203D02*
X+4046368Y+2402363D01*
X+4046368Y+2430303D02*
X+4046368Y+2443003D01*
X+4046368Y+2460783D02*
X+4046368Y+2470943D01*
X+4046368Y+2521743D02*
X+4046368Y+2534443D01*
X+4046368Y+2562383D02*
X+4046368Y+2575083D01*
X+4046368Y+2592863D02*
X+4046368Y+2603023D01*
X+4046368Y+2633503D02*
X+4046368Y+2643663D01*
X+4046368Y+2663983D02*
X+4046368Y+2676683D01*
X+4046368Y+2714783D02*
X+4046368Y+2727483D01*
X+4046368Y+2750343D02*
X+4046368Y+2760503D01*
X+4046368Y+2796063D02*
X+4046368Y+2818923D01*
X+4046368Y+2892583D02*
X+4046368Y+2902743D01*
X+4048908Y+2323623D02*
X+4048908Y+2336323D01*
X+4048908Y+2359183D02*
X+4048908Y+2371883D01*
X+4048908Y+2392203D02*
X+4048908Y+2404903D01*
X+4048908Y+2427763D02*
X+4048908Y+2440463D01*
X+4048908Y+2460783D02*
X+4048908Y+2470943D01*
X+4048908Y+2524283D02*
X+4048908Y+2536983D01*
X+4048908Y+2559843D02*
X+4048908Y+2572543D01*
X+4048908Y+2592863D02*
X+4048908Y+2605563D01*
X+4048908Y+2630963D02*
X+4048908Y+2643663D01*
X+4048908Y+2666523D02*
X+4048908Y+2679223D01*
X+4048908Y+2712243D02*
X+4048908Y+2724943D01*
X+4048908Y+2750343D02*
X+4048908Y+2760503D01*
X+4048908Y+2798603D02*
X+4048908Y+2818923D01*
X+4048908Y+2892583D02*
X+4048908Y+2902743D01*
X+4051448Y+2326163D02*
X+4051448Y+2341403D01*
X+4051448Y+2354103D02*
X+4051448Y+2369343D01*
X+4051448Y+2392203D02*
X+4051448Y+2409983D01*
X+4051448Y+2422683D02*
X+4051448Y+2440463D01*
X+4051448Y+2460783D02*
X+4051448Y+2470943D01*
X+4051448Y+2524283D02*
X+4051448Y+2539523D01*
X+4051448Y+2557303D02*
X+4051448Y+2572543D01*
X+4051448Y+2592863D02*
X+4051448Y+2610643D01*
X+4051448Y+2625883D02*
X+4051448Y+2641123D01*
X+4051448Y+2666523D02*
X+4051448Y+2681763D01*
X+4051448Y+2709703D02*
X+4051448Y+2722403D01*
X+4051448Y+2750343D02*
X+4051448Y+2760503D01*
X+4051448Y+2801143D02*
X+4051448Y+2818923D01*
X+4051448Y+2892583D02*
X+4051448Y+2902743D01*
X+4053988Y+2326163D02*
X+4053988Y+2369343D01*
X+4053988Y+2394743D02*
X+4053988Y+2437923D01*
X+4053988Y+2460783D02*
X+4053988Y+2470943D01*
X+4053988Y+2526823D02*
X+4053988Y+2570003D01*
X+4053988Y+2595403D02*
X+4053988Y+2641123D01*
X+4053988Y+2669063D02*
X+4053988Y+2686843D01*
X+4053988Y+2702083D02*
X+4053988Y+2719863D01*
X+4053988Y+2750343D02*
X+4053988Y+2760503D01*
X+4053988Y+2801143D02*
X+4053988Y+2818923D01*
X+4053988Y+2839243D02*
X+4053988Y+2902743D01*
X+4056528Y+2328703D02*
X+4056528Y+2366803D01*
X+4056528Y+2397283D02*
X+4056528Y+2435383D01*
X+4056528Y+2460783D02*
X+4056528Y+2470943D01*
X+4056528Y+2529363D02*
X+4056528Y+2567463D01*
X+4056528Y+2597943D02*
X+4056528Y+2638583D01*
X+4056528Y+2671603D02*
X+4056528Y+2717323D01*
X+4056528Y+2750343D02*
X+4056528Y+2760503D01*
X+4056528Y+2803683D02*
X+4056528Y+2818923D01*
X+4056528Y+2839243D02*
X+4056528Y+2902743D01*
X+4059068Y+2333783D02*
X+4059068Y+2361723D01*
X+4059068Y+2399823D02*
X+4059068Y+2430303D01*
X+4059068Y+2460783D02*
X+4059068Y+2470943D01*
X+4059068Y+2531903D02*
X+4059068Y+2564923D01*
X+4059068Y+2603023D02*
X+4059068Y+2633503D01*
X+4059068Y+2674143D02*
X+4059068Y+2714783D01*
X+4059068Y+2750343D02*
X+4059068Y+2760503D01*
X+4059068Y+2806223D02*
X+4059068Y+2818923D01*
X+4059068Y+2839243D02*
X+4059068Y+2902743D01*
X+4061608Y+2338863D02*
X+4061608Y+2356643D01*
X+4061608Y+2407443D02*
X+4061608Y+2425223D01*
X+4061608Y+2460783D02*
X+4061608Y+2470943D01*
X+4061608Y+2539523D02*
X+4061608Y+2557303D01*
X+4061608Y+2608103D02*
X+4061608Y+2628423D01*
X+4061608Y+2676683D02*
X+4061608Y+2709703D01*
X+4061608Y+2750343D02*
X+4061608Y+2760503D01*
X+4061608Y+2806223D02*
X+4061608Y+2818923D01*
X+4061608Y+2839243D02*
X+4061608Y+2902743D01*
X+4064148Y+2684303D02*
X+4064148Y+2704623D01*
D24*
X+2617450Y+2438400D02*
X+2598400Y+2438400D01*
X+2617450Y+2514600D02*
X+2598400Y+2514600D01*
X+2597150Y+2349500D02*
X+2616200Y+2349500D01*
X+2597150Y+2273300D02*
X+2616200Y+2273300D01*
X+2617450Y+2692400D02*
X+2598400Y+2692400D01*
X+2617450Y+2768600D02*
X+2598400Y+2768600D01*
X+2597150Y+3022600D02*
X+2616200Y+3022600D01*
X+2597150Y+2946400D02*
X+2616200Y+2946400D01*
X+2607300Y+2095350D02*
X+2607300Y+2197250D01*
X+2607300Y+3098650D02*
X+2607300Y+3200550D01*
X+2617450Y+3276600D02*
X+2598400Y+3276600D01*
X+2617450Y+3352800D02*
X+2598400Y+3352800D01*
X+2617450Y+3314700D02*
X+2598400Y+3314700D01*
X+3345550Y+1895100D02*
X+3345550Y+1750100D01*
X+3510550Y+1750100D01*
X+3590550Y+1750100D02*
X+3755550Y+1750100D01*
X+3755550Y+2090100D01*
X+3345550Y+2090100D01*
X+3345550Y+1945100D01*
X+3793500Y+3098650D02*
X+3793500Y+3200550D01*
X+3098350Y+3187700D02*
X+3117400Y+3187700D01*
X+3098350Y+3111500D02*
X+3117400Y+3111500D01*
X+2597150Y+2019300D02*
X+2616200Y+2019300D01*
X+2597150Y+1943100D02*
X+2616200Y+1943100D01*
X+2597150Y+1854200D02*
X+2616200Y+1854200D01*
X+2597150Y+1778000D02*
X+2616200Y+1778000D01*
X+3301000Y+1915100D02*
X+3199100Y+1915100D01*
X+3793750Y+1915100D02*
X+3895650Y+1915100D01*
X+4060750Y+1915100D02*
X+3958850Y+1915100D01*
X+2968550Y+1915100D02*
X+2866650Y+1915100D01*
X+3133650Y+1915100D02*
X+3031750Y+1915100D01*
X+2955100Y+1226000D02*
X+2955100Y+1066000D01*
X+2645100Y+1066000D02*
X+2645100Y+1116000D01*
X+2645100Y+1166000D02*
X+2645100Y+1226000D01*
X+3164840Y+1231900D02*
X+3256280Y+1231900D01*
X+3383280Y+1231900D02*
X+3474720Y+1231900D01*
X+3289300Y+1061720D02*
X+3352800Y+1061720D01*
X+3474720Y+1231900D02*
X+3474720Y+1087120D01*
X+3164840Y+1231900D02*
X+3164840Y+1087120D01*
X+2489050Y+1096000D02*
X+2590950Y+1096000D01*
X+3549650Y+1085850D02*
X+3549650Y+1104900D01*
X+3625850Y+1085850D02*
X+3625850Y+1104900D01*
X+3022600Y+1397000D02*
X+3022600Y+1416050D01*
X+3098800Y+1397000D02*
X+3098800Y+1416050D01*
X+3022600Y+1085850D02*
X+3022600Y+1104900D01*
X+3098800Y+1085850D02*
X+3098800Y+1104900D01*
X+2590950Y+1407150D02*
X+2489050Y+1407150D01*
X+2425850Y+1407150D02*
X+2323950Y+1407150D01*
X+2796550Y+1436200D02*
X+2796550Y+1538100D01*
X+2323950Y+1096000D02*
X+2425850Y+1096000D01*
D28*
X+4523105Y+4670996D02*
X+4523105Y+4681156D01*
X+4523105Y+4724336D02*
X+4523105Y+4737036D01*
X+4523105Y+4782756D02*
X+4523105Y+4792916D01*
X+4523105Y+4815776D02*
X+4523105Y+4825936D01*
X+4525645Y+4670996D02*
X+4525645Y+4681156D01*
X+4525645Y+4724336D02*
X+4525645Y+4737036D01*
X+4525645Y+4782756D02*
X+4525645Y+4792916D01*
X+4525645Y+4815776D02*
X+4525645Y+4825936D01*
X+4528185Y+4670996D02*
X+4528185Y+4681156D01*
X+4528185Y+4724336D02*
X+4528185Y+4739576D01*
X+4528185Y+4782756D02*
X+4528185Y+4792916D01*
X+4528185Y+4815776D02*
X+4528185Y+4825936D01*
X+4530725Y+4670996D02*
X+4530725Y+4681156D01*
X+4530725Y+4724336D02*
X+4530725Y+4742116D01*
X+4530725Y+4782756D02*
X+4530725Y+4792916D01*
X+4530725Y+4815776D02*
X+4530725Y+4825936D01*
X+4533265Y+4670996D02*
X+4533265Y+4681156D01*
X+4533265Y+4724336D02*
X+4533265Y+4742116D01*
X+4533265Y+4782756D02*
X+4533265Y+4792916D01*
X+4533265Y+4815776D02*
X+4533265Y+4825936D01*
X+4535805Y+4670996D02*
X+4535805Y+4681156D01*
X+4535805Y+4724336D02*
X+4535805Y+4744656D01*
X+4535805Y+4782756D02*
X+4535805Y+4792916D01*
X+4535805Y+4815776D02*
X+4535805Y+4825936D01*
X+4538345Y+4670996D02*
X+4538345Y+4681156D01*
X+4538345Y+4724336D02*
X+4538345Y+4747196D01*
X+4538345Y+4782756D02*
X+4538345Y+4792916D01*
X+4538345Y+4815776D02*
X+4538345Y+4825936D01*
X+4540885Y+4670996D02*
X+4540885Y+4681156D01*
X+4540885Y+4724336D02*
X+4540885Y+4734496D01*
X+4540885Y+4737036D02*
X+4540885Y+4747196D01*
X+4540885Y+4782756D02*
X+4540885Y+4792916D01*
X+4540885Y+4815776D02*
X+4540885Y+4825936D01*
X+4543425Y+4670996D02*
X+4543425Y+4681156D01*
X+4543425Y+4724336D02*
X+4543425Y+4734496D01*
X+4543425Y+4737036D02*
X+4543425Y+4749736D01*
X+4543425Y+4782756D02*
X+4543425Y+4792916D01*
X+4543425Y+4815776D02*
X+4543425Y+4825936D01*
X+4545965Y+4670996D02*
X+4545965Y+4681156D01*
X+4545965Y+4724336D02*
X+4545965Y+4734496D01*
X+4545965Y+4739576D02*
X+4545965Y+4752276D01*
X+4545965Y+4782756D02*
X+4545965Y+4792916D01*
X+4545965Y+4815776D02*
X+4545965Y+4825936D01*
X+4548505Y+4670996D02*
X+4548505Y+4681156D01*
X+4548505Y+4724336D02*
X+4548505Y+4734496D01*
X+4548505Y+4742116D02*
X+4548505Y+4752276D01*
X+4548505Y+4782756D02*
X+4548505Y+4792916D01*
X+4548505Y+4815776D02*
X+4548505Y+4825936D01*
X+4551045Y+4670996D02*
X+4551045Y+4681156D01*
X+4551045Y+4724336D02*
X+4551045Y+4734496D01*
X+4551045Y+4742116D02*
X+4551045Y+4754816D01*
X+4551045Y+4782756D02*
X+4551045Y+4792916D01*
X+4551045Y+4815776D02*
X+4551045Y+4825936D01*
X+4553585Y+4670996D02*
X+4553585Y+4681156D01*
X+4553585Y+4724336D02*
X+4553585Y+4734496D01*
X+4553585Y+4744656D02*
X+4553585Y+4754816D01*
X+4553585Y+4782756D02*
X+4553585Y+4792916D01*
X+4553585Y+4815776D02*
X+4553585Y+4825936D01*
X+4556125Y+4670996D02*
X+4556125Y+4681156D01*
X+4556125Y+4724336D02*
X+4556125Y+4734496D01*
X+4556125Y+4747196D02*
X+4556125Y+4757356D01*
X+4556125Y+4782756D02*
X+4556125Y+4792916D01*
X+4556125Y+4815776D02*
X+4556125Y+4825936D01*
X+4558665Y+4670996D02*
X+4558665Y+4681156D01*
X+4558665Y+4724336D02*
X+4558665Y+4734496D01*
X+4558665Y+4747196D02*
X+4558665Y+4759896D01*
X+4558665Y+4782756D02*
X+4558665Y+4792916D01*
X+4558665Y+4815776D02*
X+4558665Y+4825936D01*
X+4561205Y+4670996D02*
X+4561205Y+4681156D01*
X+4561205Y+4724336D02*
X+4561205Y+4734496D01*
X+4561205Y+4749736D02*
X+4561205Y+4759896D01*
X+4561205Y+4782756D02*
X+4561205Y+4792916D01*
X+4561205Y+4815776D02*
X+4561205Y+4825936D01*
X+4563745Y+4670996D02*
X+4563745Y+4681156D01*
X+4563745Y+4724336D02*
X+4563745Y+4734496D01*
X+4563745Y+4752276D02*
X+4563745Y+4762436D01*
X+4563745Y+4782756D02*
X+4563745Y+4792916D01*
X+4563745Y+4815776D02*
X+4563745Y+4825936D01*
X+4566285Y+4670996D02*
X+4566285Y+4681156D01*
X+4566285Y+4724336D02*
X+4566285Y+4734496D01*
X+4566285Y+4752276D02*
X+4566285Y+4764976D01*
X+4566285Y+4782756D02*
X+4566285Y+4792916D01*
X+4566285Y+4815776D02*
X+4566285Y+4825936D01*
X+4568825Y+4670996D02*
X+4568825Y+4681156D01*
X+4568825Y+4724336D02*
X+4568825Y+4734496D01*
X+4568825Y+4754816D02*
X+4568825Y+4764976D01*
X+4568825Y+4782756D02*
X+4568825Y+4792916D01*
X+4568825Y+4815776D02*
X+4568825Y+4825936D01*
X+4571365Y+4670996D02*
X+4571365Y+4681156D01*
X+4571365Y+4724336D02*
X+4571365Y+4734496D01*
X+4571365Y+4757356D02*
X+4571365Y+4767516D01*
X+4571365Y+4782756D02*
X+4571365Y+4792916D01*
X+4571365Y+4815776D02*
X+4571365Y+4825936D01*
X+4573905Y+4670996D02*
X+4573905Y+4681156D01*
X+4573905Y+4724336D02*
X+4573905Y+4734496D01*
X+4573905Y+4757356D02*
X+4573905Y+4770056D01*
X+4573905Y+4782756D02*
X+4573905Y+4792916D01*
X+4573905Y+4815776D02*
X+4573905Y+4825936D01*
X+4576445Y+4670996D02*
X+4576445Y+4681156D01*
X+4576445Y+4724336D02*
X+4576445Y+4734496D01*
X+4576445Y+4759896D02*
X+4576445Y+4770056D01*
X+4576445Y+4782756D02*
X+4576445Y+4792916D01*
X+4576445Y+4815776D02*
X+4576445Y+4825936D01*
X+4578985Y+4670996D02*
X+4578985Y+4681156D01*
X+4578985Y+4724336D02*
X+4578985Y+4734496D01*
X+4578985Y+4762436D02*
X+4578985Y+4772596D01*
X+4578985Y+4782756D02*
X+4578985Y+4792916D01*
X+4578985Y+4815776D02*
X+4578985Y+4825936D01*
X+4581525Y+4670996D02*
X+4581525Y+4681156D01*
X+4581525Y+4724336D02*
X+4581525Y+4734496D01*
X+4581525Y+4762436D02*
X+4581525Y+4775136D01*
X+4581525Y+4782756D02*
X+4581525Y+4792916D01*
X+4581525Y+4815776D02*
X+4581525Y+4825936D01*
X+4584065Y+4670996D02*
X+4584065Y+4681156D01*
X+4584065Y+4724336D02*
X+4584065Y+4734496D01*
X+4584065Y+4764976D02*
X+4584065Y+4775136D01*
X+4584065Y+4782756D02*
X+4584065Y+4792916D01*
X+4584065Y+4815776D02*
X+4584065Y+4825936D01*
X+4586605Y+4670996D02*
X+4586605Y+4681156D01*
X+4586605Y+4724336D02*
X+4586605Y+4734496D01*
X+4586605Y+4764976D02*
X+4586605Y+4777676D01*
X+4586605Y+4782756D02*
X+4586605Y+4792916D01*
X+4586605Y+4815776D02*
X+4586605Y+4825936D01*
X+4589145Y+4670996D02*
X+4589145Y+4681156D01*
X+4589145Y+4724336D02*
X+4589145Y+4734496D01*
X+4589145Y+4767516D02*
X+4589145Y+4780216D01*
X+4589145Y+4782756D02*
X+4589145Y+4792916D01*
X+4589145Y+4815776D02*
X+4589145Y+4825936D01*
X+4591685Y+4670996D02*
X+4591685Y+4681156D01*
X+4591685Y+4724336D02*
X+4591685Y+4734496D01*
X+4591685Y+4770056D02*
X+4591685Y+4780216D01*
X+4591685Y+4782756D02*
X+4591685Y+4792916D01*
X+4591685Y+4815776D02*
X+4591685Y+4825936D01*
X+4594225Y+4670996D02*
X+4594225Y+4681156D01*
X+4594225Y+4724336D02*
X+4594225Y+4734496D01*
X+4594225Y+4770056D02*
X+4594225Y+4792916D01*
X+4594225Y+4815776D02*
X+4594225Y+4825936D01*
X+4596765Y+4670996D02*
X+4596765Y+4681156D01*
X+4596765Y+4724336D02*
X+4596765Y+4734496D01*
X+4596765Y+4772596D02*
X+4596765Y+4792916D01*
X+4596765Y+4815776D02*
X+4596765Y+4825936D01*
X+4599305Y+4670996D02*
X+4599305Y+4681156D01*
X+4599305Y+4724336D02*
X+4599305Y+4734496D01*
X+4599305Y+4775136D02*
X+4599305Y+4792916D01*
X+4599305Y+4815776D02*
X+4599305Y+4825936D01*
X+4601845Y+4640516D02*
X+4601845Y+4711636D01*
X+4601845Y+4724336D02*
X+4601845Y+4734496D01*
X+4601845Y+4775136D02*
X+4601845Y+4792916D01*
X+4601845Y+4815776D02*
X+4601845Y+4825936D01*
X+4604385Y+4640516D02*
X+4604385Y+4711636D01*
X+4604385Y+4724336D02*
X+4604385Y+4734496D01*
X+4604385Y+4777676D02*
X+4604385Y+4792916D01*
X+4604385Y+4815776D02*
X+4604385Y+4825936D01*
X+4606925Y+4640516D02*
X+4606925Y+4711636D01*
X+4606925Y+4724336D02*
X+4606925Y+4734496D01*
X+4606925Y+4780216D02*
X+4606925Y+4792916D01*
X+4606925Y+4815776D02*
X+4606925Y+4825936D01*
X+4609465Y+4640516D02*
X+4609465Y+4711636D01*
X+4609465Y+4724336D02*
X+4609465Y+4734496D01*
X+4609465Y+4780216D02*
X+4609465Y+4792916D01*
X+4609465Y+4815776D02*
X+4609465Y+4825936D01*
D24*
X+4648200Y+4826000D02*
X+4648200Y+4635500D01*
D28*
X+2596515Y+4608492D02*
X+2596515Y+4631352D01*
X+2599055Y+4453552D02*
X+2599055Y+4463712D01*
X+2599055Y+4504352D02*
X+2599055Y+4570392D01*
X+2599055Y+4603412D02*
X+2599055Y+4638972D01*
X+2599055Y+4671992D02*
X+2599055Y+4738032D01*
X+2599055Y+4755812D02*
X+2599055Y+4765972D01*
X+2599055Y+4816772D02*
X+2599055Y+4826932D01*
X+2601595Y+4453552D02*
X+2601595Y+4463712D01*
X+2601595Y+4504352D02*
X+2601595Y+4570392D01*
X+2601595Y+4598332D02*
X+2601595Y+4644052D01*
X+2601595Y+4671992D02*
X+2601595Y+4738032D01*
X+2601595Y+4755812D02*
X+2601595Y+4768512D01*
X+2601595Y+4816772D02*
X+2601595Y+4826932D01*
X+2604135Y+4453552D02*
X+2604135Y+4463712D01*
X+2604135Y+4504352D02*
X+2604135Y+4570392D01*
X+2604135Y+4595792D02*
X+2604135Y+4646592D01*
X+2604135Y+4671992D02*
X+2604135Y+4738032D01*
X+2604135Y+4758352D02*
X+2604135Y+4768512D01*
X+2604135Y+4816772D02*
X+2604135Y+4826932D01*
X+2606675Y+4453552D02*
X+2606675Y+4463712D01*
X+2606675Y+4504352D02*
X+2606675Y+4570392D01*
X+2606675Y+4593252D02*
X+2606675Y+4611032D01*
X+2606675Y+4628812D02*
X+2606675Y+4649132D01*
X+2606675Y+4671992D02*
X+2606675Y+4738032D01*
X+2606675Y+4758352D02*
X+2606675Y+4771052D01*
X+2606675Y+4816772D02*
X+2606675Y+4826932D01*
X+2609215Y+4453552D02*
X+2609215Y+4463712D01*
X+2609215Y+4560232D02*
X+2609215Y+4570392D01*
X+2609215Y+4590712D02*
X+2609215Y+4605952D01*
X+2609215Y+4636432D02*
X+2609215Y+4651672D01*
X+2609215Y+4727872D02*
X+2609215Y+4738032D01*
X+2609215Y+4760892D02*
X+2609215Y+4773592D01*
X+2609215Y+4816772D02*
X+2609215Y+4826932D01*
X+2611755Y+4453552D02*
X+2611755Y+4463712D01*
X+2611755Y+4560232D02*
X+2611755Y+4570392D01*
X+2611755Y+4590712D02*
X+2611755Y+4603412D01*
X+2611755Y+4638972D02*
X+2611755Y+4651672D01*
X+2611755Y+4727872D02*
X+2611755Y+4738032D01*
X+2611755Y+4763432D02*
X+2611755Y+4773592D01*
X+2611755Y+4816772D02*
X+2611755Y+4826932D01*
X+2614295Y+4453552D02*
X+2614295Y+4463712D01*
X+2614295Y+4560232D02*
X+2614295Y+4570392D01*
X+2614295Y+4590712D02*
X+2614295Y+4600872D01*
X+2614295Y+4641512D02*
X+2614295Y+4654212D01*
X+2614295Y+4727872D02*
X+2614295Y+4738032D01*
X+2614295Y+4763432D02*
X+2614295Y+4776132D01*
X+2614295Y+4816772D02*
X+2614295Y+4826932D01*
X+2616835Y+4453552D02*
X+2616835Y+4463712D01*
X+2616835Y+4560232D02*
X+2616835Y+4570392D01*
X+2616835Y+4588172D02*
X+2616835Y+4598332D01*
X+2616835Y+4644052D02*
X+2616835Y+4654212D01*
X+2616835Y+4727872D02*
X+2616835Y+4738032D01*
X+2616835Y+4765972D02*
X+2616835Y+4778672D01*
X+2616835Y+4816772D02*
X+2616835Y+4826932D01*
X+2619375Y+4453552D02*
X+2619375Y+4463712D01*
X+2619375Y+4560232D02*
X+2619375Y+4570392D01*
X+2619375Y+4588172D02*
X+2619375Y+4598332D01*
X+2619375Y+4644052D02*
X+2619375Y+4656752D01*
X+2619375Y+4727872D02*
X+2619375Y+4738032D01*
X+2619375Y+4765972D02*
X+2619375Y+4778672D01*
X+2619375Y+4816772D02*
X+2619375Y+4826932D01*
X+2621915Y+4453552D02*
X+2621915Y+4463712D01*
X+2621915Y+4560232D02*
X+2621915Y+4570392D01*
X+2621915Y+4588172D02*
X+2621915Y+4598332D01*
X+2621915Y+4646592D02*
X+2621915Y+4656752D01*
X+2621915Y+4727872D02*
X+2621915Y+4738032D01*
X+2621915Y+4768512D02*
X+2621915Y+4781212D01*
X+2621915Y+4816772D02*
X+2621915Y+4826932D01*
X+2624455Y+4453552D02*
X+2624455Y+4463712D01*
X+2624455Y+4560232D02*
X+2624455Y+4570392D01*
X+2624455Y+4588172D02*
X+2624455Y+4598332D01*
X+2624455Y+4646592D02*
X+2624455Y+4656752D01*
X+2624455Y+4727872D02*
X+2624455Y+4738032D01*
X+2624455Y+4771052D02*
X+2624455Y+4783752D01*
X+2624455Y+4816772D02*
X+2624455Y+4826932D01*
X+2626995Y+4453552D02*
X+2626995Y+4463712D01*
X+2626995Y+4560232D02*
X+2626995Y+4570392D01*
X+2626995Y+4588172D02*
X+2626995Y+4598332D01*
X+2626995Y+4646592D02*
X+2626995Y+4656752D01*
X+2626995Y+4727872D02*
X+2626995Y+4738032D01*
X+2626995Y+4773592D02*
X+2626995Y+4783752D01*
X+2626995Y+4816772D02*
X+2626995Y+4826932D01*
X+2629535Y+4453552D02*
X+2629535Y+4463712D01*
X+2629535Y+4560232D02*
X+2629535Y+4570392D01*
X+2629535Y+4588172D02*
X+2629535Y+4600872D01*
X+2629535Y+4727872D02*
X+2629535Y+4738032D01*
X+2629535Y+4773592D02*
X+2629535Y+4786292D01*
X+2629535Y+4816772D02*
X+2629535Y+4826932D01*
X+2632075Y+4453552D02*
X+2632075Y+4463712D01*
X+2632075Y+4560232D02*
X+2632075Y+4570392D01*
X+2632075Y+4590712D02*
X+2632075Y+4603412D01*
X+2632075Y+4727872D02*
X+2632075Y+4738032D01*
X+2632075Y+4776132D02*
X+2632075Y+4788832D01*
X+2632075Y+4816772D02*
X+2632075Y+4826932D01*
X+2634615Y+4453552D02*
X+2634615Y+4463712D01*
X+2634615Y+4560232D02*
X+2634615Y+4570392D01*
X+2634615Y+4590712D02*
X+2634615Y+4611032D01*
X+2634615Y+4727872D02*
X+2634615Y+4738032D01*
X+2634615Y+4778672D02*
X+2634615Y+4791372D01*
X+2634615Y+4816772D02*
X+2634615Y+4826932D01*
X+2637155Y+4453552D02*
X+2637155Y+4463712D01*
X+2637155Y+4560232D02*
X+2637155Y+4570392D01*
X+2637155Y+4593252D02*
X+2637155Y+4618652D01*
X+2637155Y+4727872D02*
X+2637155Y+4738032D01*
X+2637155Y+4781212D02*
X+2637155Y+4793912D01*
X+2637155Y+4816772D02*
X+2637155Y+4826932D01*
X+2639695Y+4453552D02*
X+2639695Y+4463712D01*
X+2639695Y+4509432D02*
X+2639695Y+4570392D01*
X+2639695Y+4595792D02*
X+2639695Y+4628812D01*
X+2639695Y+4677072D02*
X+2639695Y+4738032D01*
X+2639695Y+4776132D02*
X+2639695Y+4826932D01*
X+2642235Y+4453552D02*
X+2642235Y+4463712D01*
X+2642235Y+4509432D02*
X+2642235Y+4570392D01*
X+2642235Y+4598332D02*
X+2642235Y+4638972D01*
X+2642235Y+4677072D02*
X+2642235Y+4738032D01*
X+2642235Y+4771052D02*
X+2642235Y+4826932D01*
X+2644775Y+4453552D02*
X+2644775Y+4463712D01*
X+2644775Y+4509432D02*
X+2644775Y+4570392D01*
X+2644775Y+4603412D02*
X+2644775Y+4644052D01*
X+2644775Y+4677072D02*
X+2644775Y+4738032D01*
X+2644775Y+4765972D02*
X+2644775Y+4826932D01*
X+2647315Y+4453552D02*
X+2647315Y+4463712D01*
X+2647315Y+4509432D02*
X+2647315Y+4570392D01*
X+2647315Y+4611032D02*
X+2647315Y+4646592D01*
X+2647315Y+4677072D02*
X+2647315Y+4738032D01*
X+2647315Y+4763432D02*
X+2647315Y+4826932D01*
X+2649855Y+4453552D02*
X+2649855Y+4463712D01*
X+2649855Y+4560232D02*
X+2649855Y+4570392D01*
X+2649855Y+4618652D02*
X+2649855Y+4649132D01*
X+2649855Y+4727872D02*
X+2649855Y+4738032D01*
X+2649855Y+4760892D02*
X+2649855Y+4778672D01*
X+2649855Y+4816772D02*
X+2649855Y+4826932D01*
X+2652395Y+4453552D02*
X+2652395Y+4463712D01*
X+2652395Y+4560232D02*
X+2652395Y+4570392D01*
X+2652395Y+4628812D02*
X+2652395Y+4651672D01*
X+2652395Y+4727872D02*
X+2652395Y+4738032D01*
X+2652395Y+4760892D02*
X+2652395Y+4773592D01*
X+2652395Y+4816772D02*
X+2652395Y+4826932D01*
X+2654935Y+4453552D02*
X+2654935Y+4463712D01*
X+2654935Y+4560232D02*
X+2654935Y+4570392D01*
X+2654935Y+4636432D02*
X+2654935Y+4651672D01*
X+2654935Y+4727872D02*
X+2654935Y+4738032D01*
X+2654935Y+4758352D02*
X+2654935Y+4771052D01*
X+2654935Y+4816772D02*
X+2654935Y+4826932D01*
X+2657475Y+4453552D02*
X+2657475Y+4463712D01*
X+2657475Y+4560232D02*
X+2657475Y+4570392D01*
X+2657475Y+4641512D02*
X+2657475Y+4654212D01*
X+2657475Y+4727872D02*
X+2657475Y+4738032D01*
X+2657475Y+4758352D02*
X+2657475Y+4768512D01*
X+2657475Y+4816772D02*
X+2657475Y+4826932D01*
X+2660015Y+4453552D02*
X+2660015Y+4463712D01*
X+2660015Y+4560232D02*
X+2660015Y+4570392D01*
X+2660015Y+4644052D02*
X+2660015Y+4654212D01*
X+2660015Y+4727872D02*
X+2660015Y+4738032D01*
X+2660015Y+4758352D02*
X+2660015Y+4768512D01*
X+2660015Y+4816772D02*
X+2660015Y+4826932D01*
X+2662555Y+4453552D02*
X+2662555Y+4463712D01*
X+2662555Y+4560232D02*
X+2662555Y+4570392D01*
X+2662555Y+4644052D02*
X+2662555Y+4654212D01*
X+2662555Y+4727872D02*
X+2662555Y+4738032D01*
X+2662555Y+4758352D02*
X+2662555Y+4768512D01*
X+2662555Y+4816772D02*
X+2662555Y+4826932D01*
X+2665095Y+4453552D02*
X+2665095Y+4463712D01*
X+2665095Y+4560232D02*
X+2665095Y+4570392D01*
X+2665095Y+4590712D02*
X+2665095Y+4600872D01*
X+2665095Y+4644052D02*
X+2665095Y+4654212D01*
X+2665095Y+4727872D02*
X+2665095Y+4738032D01*
X+2665095Y+4758352D02*
X+2665095Y+4768512D01*
X+2665095Y+4816772D02*
X+2665095Y+4826932D01*
X+2667635Y+4453552D02*
X+2667635Y+4463712D01*
X+2667635Y+4560232D02*
X+2667635Y+4570392D01*
X+2667635Y+4590712D02*
X+2667635Y+4600872D01*
X+2667635Y+4644052D02*
X+2667635Y+4654212D01*
X+2667635Y+4727872D02*
X+2667635Y+4738032D01*
X+2667635Y+4758352D02*
X+2667635Y+4768512D01*
X+2667635Y+4816772D02*
X+2667635Y+4826932D01*
X+2670175Y+4453552D02*
X+2670175Y+4463712D01*
X+2670175Y+4560232D02*
X+2670175Y+4570392D01*
X+2670175Y+4590712D02*
X+2670175Y+4603412D01*
X+2670175Y+4644052D02*
X+2670175Y+4654212D01*
X+2670175Y+4727872D02*
X+2670175Y+4738032D01*
X+2670175Y+4758352D02*
X+2670175Y+4771052D01*
X+2670175Y+4816772D02*
X+2670175Y+4826932D01*
X+2672715Y+4453552D02*
X+2672715Y+4463712D01*
X+2672715Y+4560232D02*
X+2672715Y+4570392D01*
X+2672715Y+4593252D02*
X+2672715Y+4603412D01*
X+2672715Y+4641512D02*
X+2672715Y+4651672D01*
X+2672715Y+4727872D02*
X+2672715Y+4738032D01*
X+2672715Y+4760892D02*
X+2672715Y+4773592D01*
X+2672715Y+4816772D02*
X+2672715Y+4826932D01*
X+2675255Y+4453552D02*
X+2675255Y+4463712D01*
X+2675255Y+4560232D02*
X+2675255Y+4570392D01*
X+2675255Y+4593252D02*
X+2675255Y+4608492D01*
X+2675255Y+4638972D02*
X+2675255Y+4651672D01*
X+2675255Y+4727872D02*
X+2675255Y+4738032D01*
X+2675255Y+4760892D02*
X+2675255Y+4778672D01*
X+2675255Y+4816772D02*
X+2675255Y+4826932D01*
X+2677795Y+4423072D02*
X+2677795Y+4494192D01*
X+2677795Y+4506892D02*
X+2677795Y+4570392D01*
X+2677795Y+4595792D02*
X+2677795Y+4613572D01*
X+2677795Y+4633892D02*
X+2677795Y+4649132D01*
X+2677795Y+4674532D02*
X+2677795Y+4738032D01*
X+2677795Y+4763432D02*
X+2677795Y+4826932D01*
X+2680335Y+4423072D02*
X+2680335Y+4494192D01*
X+2680335Y+4506892D02*
X+2680335Y+4570392D01*
X+2680335Y+4598332D02*
X+2680335Y+4649132D01*
X+2680335Y+4674532D02*
X+2680335Y+4738032D01*
X+2680335Y+4765972D02*
X+2680335Y+4826932D01*
X+2682875Y+4423072D02*
X+2682875Y+4494192D01*
X+2682875Y+4506892D02*
X+2682875Y+4570392D01*
X+2682875Y+4600872D02*
X+2682875Y+4644052D01*
X+2682875Y+4674532D02*
X+2682875Y+4738032D01*
X+2682875Y+4768512D02*
X+2682875Y+4826932D01*
X+2685415Y+4423072D02*
X+2685415Y+4494192D01*
X+2685415Y+4506892D02*
X+2685415Y+4570392D01*
X+2685415Y+4603412D02*
X+2685415Y+4641512D01*
X+2685415Y+4674532D02*
X+2685415Y+4738032D01*
X+2685415Y+4776132D02*
X+2685415Y+4826932D01*
X+2687955Y+4611032D02*
X+2687955Y+4633892D01*
X+2342515Y+4693862D02*
X+2342515Y+4716722D01*
X+2342515Y+4782762D02*
X+2342515Y+4803082D01*
X+2345055Y+4688782D02*
X+2345055Y+4724342D01*
X+2345055Y+4775142D02*
X+2345055Y+4810702D01*
X+2347595Y+4683702D02*
X+2347595Y+4729422D01*
X+2347595Y+4772602D02*
X+2347595Y+4813242D01*
X+2350135Y+4681162D02*
X+2350135Y+4731962D01*
X+2350135Y+4767522D02*
X+2350135Y+4818322D01*
X+2352675Y+4678622D02*
X+2352675Y+4696402D01*
X+2352675Y+4714182D02*
X+2352675Y+4734502D01*
X+2352675Y+4764982D02*
X+2352675Y+4785302D01*
X+2352675Y+4800542D02*
X+2352675Y+4820862D01*
X+2355215Y+4676082D02*
X+2355215Y+4691322D01*
X+2355215Y+4721802D02*
X+2355215Y+4737042D01*
X+2355215Y+4764982D02*
X+2355215Y+4780222D01*
X+2355215Y+4805622D02*
X+2355215Y+4820862D01*
X+2357755Y+4676082D02*
X+2357755Y+4688782D01*
X+2357755Y+4724342D02*
X+2357755Y+4737042D01*
X+2357755Y+4762442D02*
X+2357755Y+4775142D01*
X+2357755Y+4810702D02*
X+2357755Y+4823402D01*
X+2360295Y+4676082D02*
X+2360295Y+4686242D01*
X+2360295Y+4726882D02*
X+2360295Y+4739582D01*
X+2360295Y+4762442D02*
X+2360295Y+4772602D01*
X+2360295Y+4813242D02*
X+2360295Y+4825942D01*
X+2362835Y+4673542D02*
X+2362835Y+4683702D01*
X+2362835Y+4729422D02*
X+2362835Y+4739582D01*
X+2362835Y+4759902D02*
X+2362835Y+4772602D01*
X+2362835Y+4815782D02*
X+2362835Y+4825942D01*
X+2365375Y+4673542D02*
X+2365375Y+4683702D01*
X+2365375Y+4729422D02*
X+2365375Y+4742122D01*
X+2365375Y+4759902D02*
X+2365375Y+4770062D01*
X+2365375Y+4815782D02*
X+2365375Y+4825942D01*
X+2367915Y+4673542D02*
X+2367915Y+4683702D01*
X+2367915Y+4731962D02*
X+2367915Y+4742122D01*
X+2367915Y+4757362D02*
X+2367915Y+4770062D01*
X+2367915Y+4818322D02*
X+2367915Y+4828482D01*
X+2370455Y+4673542D02*
X+2370455Y+4683702D01*
X+2370455Y+4731962D02*
X+2370455Y+4742122D01*
X+2370455Y+4757362D02*
X+2370455Y+4767522D01*
X+2370455Y+4818322D02*
X+2370455Y+4828482D01*
X+2372995Y+4673542D02*
X+2372995Y+4683702D01*
X+2372995Y+4731962D02*
X+2372995Y+4742122D01*
X+2372995Y+4762442D02*
X+2372995Y+4767522D01*
X+2372995Y+4818322D02*
X+2372995Y+4828482D01*
X+2375535Y+4673542D02*
X+2375535Y+4686242D01*
X+2375535Y+4820862D02*
X+2375535Y+4831022D01*
X+2378075Y+4676082D02*
X+2378075Y+4688782D01*
X+2378075Y+4820862D02*
X+2378075Y+4831022D01*
X+2380615Y+4676082D02*
X+2380615Y+4696402D01*
X+2380615Y+4820862D02*
X+2380615Y+4831022D01*
X+2383155Y+4678622D02*
X+2383155Y+4704022D01*
X+2383155Y+4820862D02*
X+2383155Y+4831022D01*
X+2385695Y+4681162D02*
X+2385695Y+4714182D01*
X+2385695Y+4820862D02*
X+2385695Y+4831022D01*
X+2388235Y+4683702D02*
X+2388235Y+4724342D01*
X+2388235Y+4820862D02*
X+2388235Y+4831022D01*
X+2390775Y+4688782D02*
X+2390775Y+4729422D01*
X+2390775Y+4820862D02*
X+2390775Y+4831022D01*
X+2393315Y+4696402D02*
X+2393315Y+4731962D01*
X+2393315Y+4820862D02*
X+2393315Y+4831022D01*
X+2395855Y+4704022D02*
X+2395855Y+4734502D01*
X+2395855Y+4820862D02*
X+2395855Y+4831022D01*
X+2398395Y+4714182D02*
X+2398395Y+4737042D01*
X+2398395Y+4820862D02*
X+2398395Y+4831022D01*
X+2400935Y+4721802D02*
X+2400935Y+4737042D01*
X+2400935Y+4820862D02*
X+2400935Y+4831022D01*
X+2403475Y+4726882D02*
X+2403475Y+4739582D01*
X+2403475Y+4818322D02*
X+2403475Y+4828482D01*
X+2406015Y+4729422D02*
X+2406015Y+4739582D01*
X+2406015Y+4818322D02*
X+2406015Y+4828482D01*
X+2408555Y+4729422D02*
X+2408555Y+4739582D01*
X+2408555Y+4759902D02*
X+2408555Y+4770062D01*
X+2408555Y+4818322D02*
X+2408555Y+4828482D01*
X+2411095Y+4676082D02*
X+2411095Y+4686242D01*
X+2411095Y+4729422D02*
X+2411095Y+4739582D01*
X+2411095Y+4759902D02*
X+2411095Y+4772602D01*
X+2411095Y+4815782D02*
X+2411095Y+4828482D01*
X+2413635Y+4676082D02*
X+2413635Y+4686242D01*
X+2413635Y+4729422D02*
X+2413635Y+4739582D01*
X+2413635Y+4762442D02*
X+2413635Y+4772602D01*
X+2413635Y+4815782D02*
X+2413635Y+4825942D01*
X+2416175Y+4676082D02*
X+2416175Y+4688782D01*
X+2416175Y+4729422D02*
X+2416175Y+4739582D01*
X+2416175Y+4762442D02*
X+2416175Y+4775142D01*
X+2416175Y+4813242D02*
X+2416175Y+4825942D01*
X+2418715Y+4678622D02*
X+2418715Y+4688782D01*
X+2418715Y+4726882D02*
X+2418715Y+4737042D01*
X+2418715Y+4764982D02*
X+2418715Y+4777682D01*
X+2418715Y+4810702D02*
X+2418715Y+4823402D01*
X+2421255Y+4678622D02*
X+2421255Y+4693862D01*
X+2421255Y+4724342D02*
X+2421255Y+4737042D01*
X+2421255Y+4764982D02*
X+2421255Y+4780222D01*
X+2421255Y+4808162D02*
X+2421255Y+4820862D01*
X+2423795Y+4681162D02*
X+2423795Y+4698942D01*
X+2423795Y+4719262D02*
X+2423795Y+4734502D01*
X+2423795Y+4767522D02*
X+2423795Y+4785302D01*
X+2423795Y+4800542D02*
X+2423795Y+4818322D01*
X+2426335Y+4683702D02*
X+2426335Y+4734502D01*
X+2426335Y+4770062D02*
X+2426335Y+4815782D01*
X+2428875Y+4686242D02*
X+2428875Y+4729422D01*
X+2428875Y+4772602D02*
X+2428875Y+4813242D01*
X+2431415Y+4688782D02*
X+2431415Y+4726882D01*
X+2431415Y+4775142D02*
X+2431415Y+4808162D01*
X+2433955Y+4696402D02*
X+2433955Y+4719262D01*
X+2433955Y+4782762D02*
X+2433955Y+4803082D01*
X+2088515Y+4780746D02*
X+2088515Y+4803606D01*
X+2091055Y+4641046D02*
X+2091055Y+4651206D01*
X+2091055Y+4699466D02*
X+2091055Y+4742646D01*
X+2091055Y+4775666D02*
X+2091055Y+4811226D01*
X+2093595Y+4641046D02*
X+2093595Y+4651206D01*
X+2093595Y+4691846D02*
X+2093595Y+4742646D01*
X+2093595Y+4770586D02*
X+2093595Y+4816306D01*
X+2096135Y+4641046D02*
X+2096135Y+4651206D01*
X+2096135Y+4686766D02*
X+2096135Y+4742646D01*
X+2096135Y+4768046D02*
X+2096135Y+4818846D01*
X+2098675Y+4641046D02*
X+2098675Y+4651206D01*
X+2098675Y+4684226D02*
X+2098675Y+4742646D01*
X+2098675Y+4765506D02*
X+2098675Y+4783286D01*
X+2098675Y+4801066D02*
X+2098675Y+4821386D01*
X+2101215Y+4641046D02*
X+2101215Y+4651206D01*
X+2101215Y+4681686D02*
X+2101215Y+4699466D01*
X+2101215Y+4732486D02*
X+2101215Y+4742646D01*
X+2101215Y+4762966D02*
X+2101215Y+4778206D01*
X+2101215Y+4808686D02*
X+2101215Y+4823926D01*
X+2103755Y+4641046D02*
X+2103755Y+4651206D01*
X+2103755Y+4679146D02*
X+2103755Y+4694386D01*
X+2103755Y+4732486D02*
X+2103755Y+4742646D01*
X+2103755Y+4762966D02*
X+2103755Y+4775666D01*
X+2103755Y+4811226D02*
X+2103755Y+4823926D01*
X+2106295Y+4641046D02*
X+2106295Y+4651206D01*
X+2106295Y+4679146D02*
X+2106295Y+4691846D01*
X+2106295Y+4732486D02*
X+2106295Y+4742646D01*
X+2106295Y+4762966D02*
X+2106295Y+4773126D01*
X+2106295Y+4813766D02*
X+2106295Y+4826466D01*
X+2108835Y+4641046D02*
X+2108835Y+4651206D01*
X+2108835Y+4676606D02*
X+2108835Y+4689306D01*
X+2108835Y+4732486D02*
X+2108835Y+4742646D01*
X+2108835Y+4760426D02*
X+2108835Y+4770586D01*
X+2108835Y+4816306D02*
X+2108835Y+4826466D01*
X+2111375Y+4641046D02*
X+2111375Y+4651206D01*
X+2111375Y+4676606D02*
X+2111375Y+4686766D01*
X+2111375Y+4732486D02*
X+2111375Y+4742646D01*
X+2111375Y+4760426D02*
X+2111375Y+4770586D01*
X+2111375Y+4816306D02*
X+2111375Y+4829006D01*
X+2113915Y+4641046D02*
X+2113915Y+4651206D01*
X+2113915Y+4674066D02*
X+2113915Y+4686766D01*
X+2113915Y+4732486D02*
X+2113915Y+4742646D01*
X+2113915Y+4760426D02*
X+2113915Y+4770586D01*
X+2113915Y+4818846D02*
X+2113915Y+4829006D01*
X+2116455Y+4641046D02*
X+2116455Y+4651206D01*
X+2116455Y+4674066D02*
X+2116455Y+4684226D01*
X+2116455Y+4732486D02*
X+2116455Y+4742646D01*
X+2116455Y+4760426D02*
X+2116455Y+4770586D01*
X+2116455Y+4818846D02*
X+2116455Y+4829006D01*
X+2118995Y+4641046D02*
X+2118995Y+4651206D01*
X+2118995Y+4674066D02*
X+2118995Y+4684226D01*
X+2118995Y+4732486D02*
X+2118995Y+4742646D01*
X+2118995Y+4760426D02*
X+2118995Y+4770586D01*
X+2118995Y+4818846D02*
X+2118995Y+4829006D01*
X+2121535Y+4641046D02*
X+2121535Y+4651206D01*
X+2121535Y+4671526D02*
X+2121535Y+4684226D01*
X+2121535Y+4732486D02*
X+2121535Y+4742646D01*
X+2121535Y+4760426D02*
X+2121535Y+4773126D01*
X+2124075Y+4641046D02*
X+2124075Y+4651206D01*
X+2124075Y+4671526D02*
X+2124075Y+4681686D01*
X+2124075Y+4732486D02*
X+2124075Y+4742646D01*
X+2124075Y+4762966D02*
X+2124075Y+4775666D01*
X+2126615Y+4641046D02*
X+2126615Y+4651206D01*
X+2126615Y+4671526D02*
X+2126615Y+4681686D01*
X+2126615Y+4732486D02*
X+2126615Y+4742646D01*
X+2126615Y+4762966D02*
X+2126615Y+4783286D01*
X+2129155Y+4641046D02*
X+2129155Y+4651206D01*
X+2129155Y+4671526D02*
X+2129155Y+4681686D01*
X+2129155Y+4732486D02*
X+2129155Y+4742646D01*
X+2129155Y+4765506D02*
X+2129155Y+4790906D01*
X+2131695Y+4641046D02*
X+2131695Y+4651206D01*
X+2131695Y+4671526D02*
X+2131695Y+4681686D01*
X+2131695Y+4732486D02*
X+2131695Y+4742646D01*
X+2131695Y+4768046D02*
X+2131695Y+4801066D01*
X+2134235Y+4641046D02*
X+2134235Y+4651206D01*
X+2134235Y+4671526D02*
X+2134235Y+4681686D01*
X+2134235Y+4732486D02*
X+2134235Y+4742646D01*
X+2134235Y+4770586D02*
X+2134235Y+4811226D01*
X+2136775Y+4641046D02*
X+2136775Y+4651206D01*
X+2136775Y+4671526D02*
X+2136775Y+4681686D01*
X+2136775Y+4732486D02*
X+2136775Y+4742646D01*
X+2136775Y+4775666D02*
X+2136775Y+4816306D01*
X+2139315Y+4641046D02*
X+2139315Y+4651206D01*
X+2139315Y+4671526D02*
X+2139315Y+4681686D01*
X+2139315Y+4732486D02*
X+2139315Y+4742646D01*
X+2139315Y+4783286D02*
X+2139315Y+4818846D01*
X+2141855Y+4641046D02*
X+2141855Y+4651206D01*
X+2141855Y+4671526D02*
X+2141855Y+4681686D01*
X+2141855Y+4732486D02*
X+2141855Y+4742646D01*
X+2141855Y+4790906D02*
X+2141855Y+4821386D01*
X+2144395Y+4641046D02*
X+2144395Y+4651206D01*
X+2144395Y+4671526D02*
X+2144395Y+4681686D01*
X+2144395Y+4732486D02*
X+2144395Y+4742646D01*
X+2144395Y+4801066D02*
X+2144395Y+4823926D01*
X+2146935Y+4641046D02*
X+2146935Y+4651206D01*
X+2146935Y+4671526D02*
X+2146935Y+4681686D01*
X+2146935Y+4732486D02*
X+2146935Y+4742646D01*
X+2146935Y+4808686D02*
X+2146935Y+4823926D01*
X+2149475Y+4641046D02*
X+2149475Y+4651206D01*
X+2149475Y+4674066D02*
X+2149475Y+4684226D01*
X+2149475Y+4732486D02*
X+2149475Y+4742646D01*
X+2149475Y+4813766D02*
X+2149475Y+4826466D01*
X+2152015Y+4641046D02*
X+2152015Y+4651206D01*
X+2152015Y+4674066D02*
X+2152015Y+4684226D01*
X+2152015Y+4732486D02*
X+2152015Y+4742646D01*
X+2152015Y+4816306D02*
X+2152015Y+4826466D01*
X+2154555Y+4641046D02*
X+2154555Y+4651206D01*
X+2154555Y+4674066D02*
X+2154555Y+4684226D01*
X+2154555Y+4732486D02*
X+2154555Y+4742646D01*
X+2154555Y+4816306D02*
X+2154555Y+4826466D01*
X+2157095Y+4641046D02*
X+2157095Y+4651206D01*
X+2157095Y+4676606D02*
X+2157095Y+4686766D01*
X+2157095Y+4732486D02*
X+2157095Y+4742646D01*
X+2157095Y+4762966D02*
X+2157095Y+4773126D01*
X+2157095Y+4816306D02*
X+2157095Y+4826466D01*
X+2159635Y+4641046D02*
X+2159635Y+4651206D01*
X+2159635Y+4676606D02*
X+2159635Y+4689306D01*
X+2159635Y+4732486D02*
X+2159635Y+4742646D01*
X+2159635Y+4762966D02*
X+2159635Y+4773126D01*
X+2159635Y+4816306D02*
X+2159635Y+4826466D01*
X+2162175Y+4641046D02*
X+2162175Y+4651206D01*
X+2162175Y+4676606D02*
X+2162175Y+4691846D01*
X+2162175Y+4732486D02*
X+2162175Y+4742646D01*
X+2162175Y+4762966D02*
X+2162175Y+4775666D01*
X+2162175Y+4816306D02*
X+2162175Y+4826466D01*
X+2164715Y+4641046D02*
X+2164715Y+4651206D01*
X+2164715Y+4679146D02*
X+2164715Y+4694386D01*
X+2164715Y+4732486D02*
X+2164715Y+4742646D01*
X+2164715Y+4765506D02*
X+2164715Y+4775666D01*
X+2164715Y+4813766D02*
X+2164715Y+4823926D01*
X+2167255Y+4641046D02*
X+2167255Y+4651206D01*
X+2167255Y+4681686D02*
X+2167255Y+4699466D01*
X+2167255Y+4732486D02*
X+2167255Y+4742646D01*
X+2167255Y+4765506D02*
X+2167255Y+4780746D01*
X+2167255Y+4811226D02*
X+2167255Y+4823926D01*
X+2169795Y+4641046D02*
X+2169795Y+4651206D01*
X+2169795Y+4684226D02*
X+2169795Y+4742646D01*
X+2169795Y+4768046D02*
X+2169795Y+4785826D01*
X+2169795Y+4806146D02*
X+2169795Y+4821386D01*
X+2172335Y+4641046D02*
X+2172335Y+4651206D01*
X+2172335Y+4686766D02*
X+2172335Y+4742646D01*
X+2172335Y+4770586D02*
X+2172335Y+4821386D01*
X+2174875Y+4641046D02*
X+2174875Y+4651206D01*
X+2174875Y+4691846D02*
X+2174875Y+4742646D01*
X+2174875Y+4773126D02*
X+2174875Y+4816306D01*
X+2177415Y+4641046D02*
X+2177415Y+4651206D01*
X+2177415Y+4696926D02*
X+2177415Y+4742646D01*
X+2177415Y+4775666D02*
X+2177415Y+4813766D01*
X+2179955Y+4783286D02*
X+2179955Y+4806146D01*
X+1834515Y+4605866D02*
X+1834515Y+4626186D01*
X+1834515Y+4781126D02*
X+1834515Y+4803986D01*
X+1837055Y+4598246D02*
X+1837055Y+4633806D01*
X+1837055Y+4699846D02*
X+1837055Y+4743026D01*
X+1837055Y+4776046D02*
X+1837055Y+4811606D01*
X+1839595Y+4593166D02*
X+1839595Y+4638886D01*
X+1839595Y+4692226D02*
X+1839595Y+4743026D01*
X+1839595Y+4770966D02*
X+1839595Y+4816686D01*
X+1842135Y+4590626D02*
X+1842135Y+4641426D01*
X+1842135Y+4687146D02*
X+1842135Y+4743026D01*
X+1842135Y+4768426D02*
X+1842135Y+4819226D01*
X+1844675Y+4588086D02*
X+1844675Y+4605866D01*
X+1844675Y+4626186D02*
X+1844675Y+4643966D01*
X+1844675Y+4684606D02*
X+1844675Y+4743026D01*
X+1844675Y+4765886D02*
X+1844675Y+4783666D01*
X+1844675Y+4801446D02*
X+1844675Y+4821766D01*
X+1847215Y+4585546D02*
X+1847215Y+4600786D01*
X+1847215Y+4631266D02*
X+1847215Y+4646506D01*
X+1847215Y+4682066D02*
X+1847215Y+4699846D01*
X+1847215Y+4732866D02*
X+1847215Y+4743026D01*
X+1847215Y+4763346D02*
X+1847215Y+4778586D01*
X+1847215Y+4809066D02*
X+1847215Y+4824306D01*
X+1849755Y+4583006D02*
X+1849755Y+4598246D01*
X+1849755Y+4633806D02*
X+1849755Y+4649046D01*
X+1849755Y+4679526D02*
X+1849755Y+4694766D01*
X+1849755Y+4732866D02*
X+1849755Y+4743026D01*
X+1849755Y+4763346D02*
X+1849755Y+4776046D01*
X+1849755Y+4811606D02*
X+1849755Y+4824306D01*
X+1852295Y+4583006D02*
X+1852295Y+4595706D01*
X+1852295Y+4636346D02*
X+1852295Y+4649046D01*
X+1852295Y+4679526D02*
X+1852295Y+4692226D01*
X+1852295Y+4732866D02*
X+1852295Y+4743026D01*
X+1852295Y+4763346D02*
X+1852295Y+4773506D01*
X+1852295Y+4814146D02*
X+1852295Y+4826846D01*
X+1854835Y+4580466D02*
X+1854835Y+4593166D01*
X+1854835Y+4638886D02*
X+1854835Y+4651586D01*
X+1854835Y+4676986D02*
X+1854835Y+4689686D01*
X+1854835Y+4732866D02*
X+1854835Y+4743026D01*
X+1854835Y+4760806D02*
X+1854835Y+4770966D01*
X+1854835Y+4816686D02*
X+1854835Y+4826846D01*
X+1857375Y+4580466D02*
X+1857375Y+4590626D01*
X+1857375Y+4641426D02*
X+1857375Y+4651586D01*
X+1857375Y+4676986D02*
X+1857375Y+4687146D01*
X+1857375Y+4732866D02*
X+1857375Y+4743026D01*
X+1857375Y+4760806D02*
X+1857375Y+4770966D01*
X+1857375Y+4816686D02*
X+1857375Y+4829386D01*
X+1859915Y+4577926D02*
X+1859915Y+4590626D01*
X+1859915Y+4641426D02*
X+1859915Y+4654126D01*
X+1859915Y+4674446D02*
X+1859915Y+4687146D01*
X+1859915Y+4732866D02*
X+1859915Y+4743026D01*
X+1859915Y+4760806D02*
X+1859915Y+4770966D01*
X+1859915Y+4819226D02*
X+1859915Y+4829386D01*
X+1862455Y+4577926D02*
X+1862455Y+4588086D01*
X+1862455Y+4643966D02*
X+1862455Y+4654126D01*
X+1862455Y+4674446D02*
X+1862455Y+4684606D01*
X+1862455Y+4732866D02*
X+1862455Y+4743026D01*
X+1862455Y+4760806D02*
X+1862455Y+4770966D01*
X+1862455Y+4819226D02*
X+1862455Y+4829386D01*
X+1864995Y+4577926D02*
X+1864995Y+4588086D01*
X+1864995Y+4643966D02*
X+1864995Y+4654126D01*
X+1864995Y+4674446D02*
X+1864995Y+4684606D01*
X+1864995Y+4732866D02*
X+1864995Y+4743026D01*
X+1864995Y+4760806D02*
X+1864995Y+4770966D01*
X+1864995Y+4819226D02*
X+1864995Y+4829386D01*
X+1867535Y+4575386D02*
X+1867535Y+4588086D01*
X+1867535Y+4646506D02*
X+1867535Y+4656666D01*
X+1867535Y+4671906D02*
X+1867535Y+4684606D01*
X+1867535Y+4732866D02*
X+1867535Y+4743026D01*
X+1867535Y+4760806D02*
X+1867535Y+4773506D01*
X+1870075Y+4575386D02*
X+1870075Y+4585546D01*
X+1870075Y+4646506D02*
X+1870075Y+4656666D01*
X+1870075Y+4671906D02*
X+1870075Y+4682066D01*
X+1870075Y+4732866D02*
X+1870075Y+4743026D01*
X+1870075Y+4763346D02*
X+1870075Y+4776046D01*
X+1872615Y+4575386D02*
X+1872615Y+4585546D01*
X+1872615Y+4646506D02*
X+1872615Y+4656666D01*
X+1872615Y+4671906D02*
X+1872615Y+4682066D01*
X+1872615Y+4732866D02*
X+1872615Y+4743026D01*
X+1872615Y+4763346D02*
X+1872615Y+4783666D01*
X+1875155Y+4575386D02*
X+1875155Y+4585546D01*
X+1875155Y+4646506D02*
X+1875155Y+4656666D01*
X+1875155Y+4671906D02*
X+1875155Y+4682066D01*
X+1875155Y+4732866D02*
X+1875155Y+4743026D01*
X+1875155Y+4765886D02*
X+1875155Y+4791286D01*
X+1877695Y+4575386D02*
X+1877695Y+4585546D01*
X+1877695Y+4646506D02*
X+1877695Y+4656666D01*
X+1877695Y+4671906D02*
X+1877695Y+4682066D01*
X+1877695Y+4732866D02*
X+1877695Y+4743026D01*
X+1877695Y+4768426D02*
X+1877695Y+4801446D01*
X+1880235Y+4575386D02*
X+1880235Y+4585546D01*
X+1880235Y+4646506D02*
X+1880235Y+4656666D01*
X+1880235Y+4671906D02*
X+1880235Y+4682066D01*
X+1880235Y+4732866D02*
X+1880235Y+4743026D01*
X+1880235Y+4770966D02*
X+1880235Y+4811606D01*
X+1882775Y+4575386D02*
X+1882775Y+4585546D01*
X+1882775Y+4646506D02*
X+1882775Y+4656666D01*
X+1882775Y+4671906D02*
X+1882775Y+4682066D01*
X+1882775Y+4732866D02*
X+1882775Y+4743026D01*
X+1882775Y+4776046D02*
X+1882775Y+4816686D01*
X+1885315Y+4575386D02*
X+1885315Y+4585546D01*
X+1885315Y+4646506D02*
X+1885315Y+4656666D01*
X+1885315Y+4671906D02*
X+1885315Y+4682066D01*
X+1885315Y+4732866D02*
X+1885315Y+4743026D01*
X+1885315Y+4783666D02*
X+1885315Y+4819226D01*
X+1887855Y+4575386D02*
X+1887855Y+4585546D01*
X+1887855Y+4646506D02*
X+1887855Y+4656666D01*
X+1887855Y+4671906D02*
X+1887855Y+4682066D01*
X+1887855Y+4732866D02*
X+1887855Y+4743026D01*
X+1887855Y+4791286D02*
X+1887855Y+4821766D01*
X+1890395Y+4575386D02*
X+1890395Y+4585546D01*
X+1890395Y+4646506D02*
X+1890395Y+4656666D01*
X+1890395Y+4671906D02*
X+1890395Y+4682066D01*
X+1890395Y+4732866D02*
X+1890395Y+4743026D01*
X+1890395Y+4801446D02*
X+1890395Y+4824306D01*
X+1892935Y+4575386D02*
X+1892935Y+4588086D01*
X+1892935Y+4643966D02*
X+1892935Y+4656666D01*
X+1892935Y+4671906D02*
X+1892935Y+4682066D01*
X+1892935Y+4732866D02*
X+1892935Y+4743026D01*
X+1892935Y+4809066D02*
X+1892935Y+4824306D01*
X+1895475Y+4577926D02*
X+1895475Y+4588086D01*
X+1895475Y+4643966D02*
X+1895475Y+4654126D01*
X+1895475Y+4674446D02*
X+1895475Y+4684606D01*
X+1895475Y+4732866D02*
X+1895475Y+4743026D01*
X+1895475Y+4814146D02*
X+1895475Y+4826846D01*
X+1898015Y+4577926D02*
X+1898015Y+4588086D01*
X+1898015Y+4643966D02*
X+1898015Y+4654126D01*
X+1898015Y+4674446D02*
X+1898015Y+4684606D01*
X+1898015Y+4732866D02*
X+1898015Y+4743026D01*
X+1898015Y+4816686D02*
X+1898015Y+4826846D01*
X+1900555Y+4577926D02*
X+1900555Y+4590626D01*
X+1900555Y+4643966D02*
X+1900555Y+4654126D01*
X+1900555Y+4674446D02*
X+1900555Y+4684606D01*
X+1900555Y+4732866D02*
X+1900555Y+4743026D01*
X+1900555Y+4816686D02*
X+1900555Y+4826846D01*
X+1903095Y+4580466D02*
X+1903095Y+4590626D01*
X+1903095Y+4641426D02*
X+1903095Y+4651586D01*
X+1903095Y+4676986D02*
X+1903095Y+4687146D01*
X+1903095Y+4732866D02*
X+1903095Y+4743026D01*
X+1903095Y+4763346D02*
X+1903095Y+4773506D01*
X+1903095Y+4816686D02*
X+1903095Y+4826846D01*
X+1905635Y+4580466D02*
X+1905635Y+4593166D01*
X+1905635Y+4638886D02*
X+1905635Y+4651586D01*
X+1905635Y+4676986D02*
X+1905635Y+4689686D01*
X+1905635Y+4732866D02*
X+1905635Y+4743026D01*
X+1905635Y+4763346D02*
X+1905635Y+4773506D01*
X+1905635Y+4816686D02*
X+1905635Y+4826846D01*
X+1908175Y+4583006D02*
X+1908175Y+4595706D01*
X+1908175Y+4636346D02*
X+1908175Y+4649046D01*
X+1908175Y+4676986D02*
X+1908175Y+4692226D01*
X+1908175Y+4732866D02*
X+1908175Y+4743026D01*
X+1908175Y+4763346D02*
X+1908175Y+4776046D01*
X+1908175Y+4816686D02*
X+1908175Y+4826846D01*
X+1910715Y+4583006D02*
X+1910715Y+4598246D01*
X+1910715Y+4633806D02*
X+1910715Y+4649046D01*
X+1910715Y+4679526D02*
X+1910715Y+4694766D01*
X+1910715Y+4732866D02*
X+1910715Y+4743026D01*
X+1910715Y+4765886D02*
X+1910715Y+4776046D01*
X+1910715Y+4814146D02*
X+1910715Y+4824306D01*
X+1913255Y+4585546D02*
X+1913255Y+4600786D01*
X+1913255Y+4631266D02*
X+1913255Y+4646506D01*
X+1913255Y+4682066D02*
X+1913255Y+4699846D01*
X+1913255Y+4732866D02*
X+1913255Y+4743026D01*
X+1913255Y+4765886D02*
X+1913255Y+4781126D01*
X+1913255Y+4811606D02*
X+1913255Y+4824306D01*
X+1915795Y+4588086D02*
X+1915795Y+4605866D01*
X+1915795Y+4626186D02*
X+1915795Y+4643966D01*
X+1915795Y+4684606D02*
X+1915795Y+4743026D01*
X+1915795Y+4768426D02*
X+1915795Y+4786206D01*
X+1915795Y+4806526D02*
X+1915795Y+4821766D01*
X+1918335Y+4590626D02*
X+1918335Y+4641426D01*
X+1918335Y+4687146D02*
X+1918335Y+4743026D01*
X+1918335Y+4770966D02*
X+1918335Y+4821766D01*
X+1920875Y+4593166D02*
X+1920875Y+4638886D01*
X+1920875Y+4692226D02*
X+1920875Y+4743026D01*
X+1920875Y+4773506D02*
X+1920875Y+4816686D01*
X+1923415Y+4598246D02*
X+1923415Y+4633806D01*
X+1923415Y+4697306D02*
X+1923415Y+4743026D01*
X+1923415Y+4776046D02*
X+1923415Y+4814146D01*
X+1925955Y+4605866D02*
X+1925955Y+4626186D01*
X+1925955Y+4783666D02*
X+1925955Y+4806526D01*
X+1580515Y+4698648D02*
X+1580515Y+4718968D01*
X+1580515Y+4782468D02*
X+1580515Y+4805328D01*
X+1583055Y+4581808D02*
X+1583055Y+4594508D01*
X+1583055Y+4645308D02*
X+1583055Y+4655468D01*
X+1583055Y+4691028D02*
X+1583055Y+4726588D01*
X+1583055Y+4777388D02*
X+1583055Y+4812948D01*
X+1585595Y+4584348D02*
X+1585595Y+4597048D01*
X+1585595Y+4645308D02*
X+1585595Y+4655468D01*
X+1585595Y+4688488D02*
X+1585595Y+4729128D01*
X+1585595Y+4772308D02*
X+1585595Y+4818028D01*
X+1588135Y+4586888D02*
X+1588135Y+4599588D01*
X+1588135Y+4645308D02*
X+1588135Y+4655468D01*
X+1588135Y+4683408D02*
X+1588135Y+4734208D01*
X+1588135Y+4769768D02*
X+1588135Y+4820568D01*
X+1590675Y+4589428D02*
X+1590675Y+4599588D01*
X+1590675Y+4645308D02*
X+1590675Y+4655468D01*
X+1590675Y+4680868D02*
X+1590675Y+4701188D01*
X+1590675Y+4716428D02*
X+1590675Y+4736748D01*
X+1590675Y+4767228D02*
X+1590675Y+4785008D01*
X+1590675Y+4802788D02*
X+1590675Y+4823108D01*
X+1593215Y+4589428D02*
X+1593215Y+4602128D01*
X+1593215Y+4645308D02*
X+1593215Y+4655468D01*
X+1593215Y+4680868D02*
X+1593215Y+4696108D01*
X+1593215Y+4721508D02*
X+1593215Y+4736748D01*
X+1593215Y+4764688D02*
X+1593215Y+4779928D01*
X+1593215Y+4810408D02*
X+1593215Y+4825648D01*
X+1595755Y+4591968D02*
X+1595755Y+4604668D01*
X+1595755Y+4645308D02*
X+1595755Y+4655468D01*
X+1595755Y+4678328D02*
X+1595755Y+4691028D01*
X+1595755Y+4726588D02*
X+1595755Y+4739288D01*
X+1595755Y+4764688D02*
X+1595755Y+4777388D01*
X+1595755Y+4812948D02*
X+1595755Y+4825648D01*
X+1598295Y+4594508D02*
X+1598295Y+4607208D01*
X+1598295Y+4645308D02*
X+1598295Y+4655468D01*
X+1598295Y+4678328D02*
X+1598295Y+4688488D01*
X+1598295Y+4729128D02*
X+1598295Y+4741828D01*
X+1598295Y+4764688D02*
X+1598295Y+4774848D01*
X+1598295Y+4815488D02*
X+1598295Y+4828188D01*
X+1600835Y+4597048D02*
X+1600835Y+4607208D01*
X+1600835Y+4645308D02*
X+1600835Y+4655468D01*
X+1600835Y+4675788D02*
X+1600835Y+4688488D01*
X+1600835Y+4731668D02*
X+1600835Y+4741828D01*
X+1600835Y+4762148D02*
X+1600835Y+4772308D01*
X+1600835Y+4818028D02*
X+1600835Y+4828188D01*
X+1603375Y+4597048D02*
X+1603375Y+4609748D01*
X+1603375Y+4645308D02*
X+1603375Y+4655468D01*
X+1603375Y+4675788D02*
X+1603375Y+4685948D01*
X+1603375Y+4731668D02*
X+1603375Y+4741828D01*
X+1603375Y+4762148D02*
X+1603375Y+4772308D01*
X+1603375Y+4818028D02*
X+1603375Y+4830728D01*
X+1605915Y+4599588D02*
X+1605915Y+4612288D01*
X+1605915Y+4645308D02*
X+1605915Y+4655468D01*
X+1605915Y+4673248D02*
X+1605915Y+4685948D01*
X+1605915Y+4734208D02*
X+1605915Y+4744368D01*
X+1605915Y+4762148D02*
X+1605915Y+4772308D01*
X+1605915Y+4820568D02*
X+1605915Y+4830728D01*
X+1608455Y+4602128D02*
X+1608455Y+4614828D01*
X+1608455Y+4645308D02*
X+1608455Y+4655468D01*
X+1608455Y+4673248D02*
X+1608455Y+4683408D01*
X+1608455Y+4734208D02*
X+1608455Y+4744368D01*
X+1608455Y+4762148D02*
X+1608455Y+4772308D01*
X+1608455Y+4820568D02*
X+1608455Y+4830728D01*
X+1610995Y+4604668D02*
X+1610995Y+4614828D01*
X+1610995Y+4645308D02*
X+1610995Y+4655468D01*
X+1610995Y+4678328D02*
X+1610995Y+4683408D01*
X+1610995Y+4734208D02*
X+1610995Y+4744368D01*
X+1610995Y+4762148D02*
X+1610995Y+4772308D01*
X+1610995Y+4820568D02*
X+1610995Y+4830728D01*
X+1613535Y+4604668D02*
X+1613535Y+4617368D01*
X+1613535Y+4642768D02*
X+1613535Y+4655468D01*
X+1613535Y+4736748D02*
X+1613535Y+4746908D01*
X+1613535Y+4762148D02*
X+1613535Y+4774848D01*
X+1616075Y+4607208D02*
X+1616075Y+4619908D01*
X+1616075Y+4640228D02*
X+1616075Y+4655468D01*
X+1616075Y+4736748D02*
X+1616075Y+4746908D01*
X+1616075Y+4764688D02*
X+1616075Y+4777388D01*
X+1618615Y+4609748D02*
X+1618615Y+4622448D01*
X+1618615Y+4637688D02*
X+1618615Y+4655468D01*
X+1618615Y+4736748D02*
X+1618615Y+4746908D01*
X+1618615Y+4764688D02*
X+1618615Y+4785008D01*
X+1621155Y+4612288D02*
X+1621155Y+4622448D01*
X+1621155Y+4635148D02*
X+1621155Y+4655468D01*
X+1621155Y+4736748D02*
X+1621155Y+4746908D01*
X+1621155Y+4767228D02*
X+1621155Y+4792628D01*
X+1623695Y+4612288D02*
X+1623695Y+4624988D01*
X+1623695Y+4632608D02*
X+1623695Y+4655468D01*
X+1623695Y+4736748D02*
X+1623695Y+4746908D01*
X+1623695Y+4769768D02*
X+1623695Y+4802788D01*
X+1626235Y+4614828D02*
X+1626235Y+4627528D01*
X+1626235Y+4630068D02*
X+1626235Y+4655468D01*
X+1626235Y+4736748D02*
X+1626235Y+4746908D01*
X+1626235Y+4772308D02*
X+1626235Y+4812948D01*
X+1628775Y+4617368D02*
X+1628775Y+4642768D01*
X+1628775Y+4645308D02*
X+1628775Y+4655468D01*
X+1628775Y+4736748D02*
X+1628775Y+4746908D01*
X+1628775Y+4777388D02*
X+1628775Y+4818028D01*
X+1631315Y+4619908D02*
X+1631315Y+4640228D01*
X+1631315Y+4645308D02*
X+1631315Y+4655468D01*
X+1631315Y+4736748D02*
X+1631315Y+4746908D01*
X+1631315Y+4785008D02*
X+1631315Y+4820568D01*
X+1633855Y+4619908D02*
X+1633855Y+4635148D01*
X+1633855Y+4645308D02*
X+1633855Y+4655468D01*
X+1633855Y+4736748D02*
X+1633855Y+4746908D01*
X+1633855Y+4792628D02*
X+1633855Y+4823108D01*
X+1636395Y+4619908D02*
X+1636395Y+4632608D01*
X+1636395Y+4645308D02*
X+1636395Y+4655468D01*
X+1636395Y+4736748D02*
X+1636395Y+4746908D01*
X+1636395Y+4802788D02*
X+1636395Y+4825648D01*
X+1638935Y+4617368D02*
X+1638935Y+4630068D01*
X+1638935Y+4645308D02*
X+1638935Y+4655468D01*
X+1638935Y+4736748D02*
X+1638935Y+4746908D01*
X+1638935Y+4810408D02*
X+1638935Y+4825648D01*
X+1641475Y+4614828D02*
X+1641475Y+4627528D01*
X+1641475Y+4645308D02*
X+1641475Y+4655468D01*
X+1641475Y+4734208D02*
X+1641475Y+4744368D01*
X+1641475Y+4815488D02*
X+1641475Y+4828188D01*
X+1644015Y+4612288D02*
X+1644015Y+4624988D01*
X+1644015Y+4645308D02*
X+1644015Y+4655468D01*
X+1644015Y+4734208D02*
X+1644015Y+4744368D01*
X+1644015Y+4818028D02*
X+1644015Y+4828188D01*
X+1646555Y+4609748D02*
X+1646555Y+4622448D01*
X+1646555Y+4645308D02*
X+1646555Y+4655468D01*
X+1646555Y+4675788D02*
X+1646555Y+4685948D01*
X+1646555Y+4734208D02*
X+1646555Y+4744368D01*
X+1646555Y+4818028D02*
X+1646555Y+4828188D01*
X+1649095Y+4607208D02*
X+1649095Y+4619908D01*
X+1649095Y+4645308D02*
X+1649095Y+4655468D01*
X+1649095Y+4675788D02*
X+1649095Y+4688488D01*
X+1649095Y+4731668D02*
X+1649095Y+4744368D01*
X+1649095Y+4764688D02*
X+1649095Y+4774848D01*
X+1649095Y+4818028D02*
X+1649095Y+4828188D01*
X+1651635Y+4604668D02*
X+1651635Y+4617368D01*
X+1651635Y+4645308D02*
X+1651635Y+4655468D01*
X+1651635Y+4678328D02*
X+1651635Y+4688488D01*
X+1651635Y+4731668D02*
X+1651635Y+4741828D01*
X+1651635Y+4764688D02*
X+1651635Y+4774848D01*
X+1651635Y+4818028D02*
X+1651635Y+4828188D01*
X+1654175Y+4602128D02*
X+1654175Y+4614828D01*
X+1654175Y+4645308D02*
X+1654175Y+4655468D01*
X+1654175Y+4678328D02*
X+1654175Y+4691028D01*
X+1654175Y+4729128D02*
X+1654175Y+4741828D01*
X+1654175Y+4764688D02*
X+1654175Y+4777388D01*
X+1654175Y+4818028D02*
X+1654175Y+4828188D01*
X+1656715Y+4599588D02*
X+1656715Y+4612288D01*
X+1656715Y+4645308D02*
X+1656715Y+4655468D01*
X+1656715Y+4680868D02*
X+1656715Y+4693568D01*
X+1656715Y+4726588D02*
X+1656715Y+4739288D01*
X+1656715Y+4767228D02*
X+1656715Y+4777388D01*
X+1656715Y+4815488D02*
X+1656715Y+4825648D01*
X+1659255Y+4597048D02*
X+1659255Y+4609748D01*
X+1659255Y+4645308D02*
X+1659255Y+4655468D01*
X+1659255Y+4680868D02*
X+1659255Y+4696108D01*
X+1659255Y+4724048D02*
X+1659255Y+4736748D01*
X+1659255Y+4767228D02*
X+1659255Y+4782468D01*
X+1659255Y+4812948D02*
X+1659255Y+4825648D01*
X+1661795Y+4594508D02*
X+1661795Y+4607208D01*
X+1661795Y+4645308D02*
X+1661795Y+4655468D01*
X+1661795Y+4683408D02*
X+1661795Y+4701188D01*
X+1661795Y+4716428D02*
X+1661795Y+4734208D01*
X+1661795Y+4769768D02*
X+1661795Y+4787548D01*
X+1661795Y+4807868D02*
X+1661795Y+4823108D01*
X+1664335Y+4591968D02*
X+1664335Y+4604668D01*
X+1664335Y+4645308D02*
X+1664335Y+4655468D01*
X+1664335Y+4685948D02*
X+1664335Y+4731668D01*
X+1664335Y+4772308D02*
X+1664335Y+4823108D01*
X+1666875Y+4589428D02*
X+1666875Y+4602128D01*
X+1666875Y+4645308D02*
X+1666875Y+4655468D01*
X+1666875Y+4688488D02*
X+1666875Y+4729128D01*
X+1666875Y+4774848D02*
X+1666875Y+4818028D01*
X+1669415Y+4586888D02*
X+1669415Y+4599588D01*
X+1669415Y+4645308D02*
X+1669415Y+4655468D01*
X+1669415Y+4691028D02*
X+1669415Y+4724048D01*
X+1669415Y+4777388D02*
X+1669415Y+4815488D01*
X+1671955Y+4698648D02*
X+1671955Y+4718968D01*
X+1671955Y+4785008D02*
X+1671955Y+4807868D01*
X+1326515Y+4774174D02*
X+1326515Y+4797034D01*
X+1329055Y+4598914D02*
X+1329055Y+4642094D01*
X+1329055Y+4662414D02*
X+1329055Y+4675114D01*
X+1329055Y+4720834D02*
X+1329055Y+4730994D01*
X+1329055Y+4766554D02*
X+1329055Y+4804654D01*
X+1331595Y+4591294D02*
X+1331595Y+4642094D01*
X+1331595Y+4662414D02*
X+1331595Y+4675114D01*
X+1331595Y+4720834D02*
X+1331595Y+4730994D01*
X+1331595Y+4761474D02*
X+1331595Y+4809734D01*
X+1334135Y+4586214D02*
X+1334135Y+4642094D01*
X+1334135Y+4662414D02*
X+1334135Y+4677654D01*
X+1334135Y+4720834D02*
X+1334135Y+4730994D01*
X+1334135Y+4756394D02*
X+1334135Y+4814814D01*
X+1336675Y+4583674D02*
X+1336675Y+4642094D01*
X+1336675Y+4662414D02*
X+1336675Y+4680194D01*
X+1336675Y+4720834D02*
X+1336675Y+4730994D01*
X+1336675Y+4751314D02*
X+1336675Y+4776714D01*
X+1336675Y+4797034D02*
X+1336675Y+4817354D01*
X+1339215Y+4581134D02*
X+1339215Y+4598914D01*
X+1339215Y+4631934D02*
X+1339215Y+4642094D01*
X+1339215Y+4662414D02*
X+1339215Y+4680194D01*
X+1339215Y+4720834D02*
X+1339215Y+4730994D01*
X+1339215Y+4748774D02*
X+1339215Y+4769094D01*
X+1339215Y+4802114D02*
X+1339215Y+4819894D01*
X+1341755Y+4578594D02*
X+1341755Y+4593834D01*
X+1341755Y+4631934D02*
X+1341755Y+4642094D01*
X+1341755Y+4662414D02*
X+1341755Y+4682734D01*
X+1341755Y+4720834D02*
X+1341755Y+4730994D01*
X+1341755Y+4748774D02*
X+1341755Y+4764014D01*
X+1341755Y+4807194D02*
X+1341755Y+4819894D01*
X+1344295Y+4578594D02*
X+1344295Y+4591294D01*
X+1344295Y+4631934D02*
X+1344295Y+4642094D01*
X+1344295Y+4662414D02*
X+1344295Y+4685274D01*
X+1344295Y+4720834D02*
X+1344295Y+4730994D01*
X+1344295Y+4748774D02*
X+1344295Y+4761474D01*
X+1344295Y+4809734D02*
X+1344295Y+4822434D01*
X+1346835Y+4576054D02*
X+1346835Y+4588754D01*
X+1346835Y+4631934D02*
X+1346835Y+4642094D01*
X+1346835Y+4662414D02*
X+1346835Y+4672574D01*
X+1346835Y+4675114D02*
X+1346835Y+4685274D01*
X+1346835Y+4720834D02*
X+1346835Y+4730994D01*
X+1346835Y+4748774D02*
X+1346835Y+4758934D01*
X+1346835Y+4812274D02*
X+1346835Y+4824974D01*
X+1349375Y+4576054D02*
X+1349375Y+4586214D01*
X+1349375Y+4631934D02*
X+1349375Y+4642094D01*
X+1349375Y+4662414D02*
X+1349375Y+4672574D01*
X+1349375Y+4675114D02*
X+1349375Y+4687814D01*
X+1349375Y+4720834D02*
X+1349375Y+4730994D01*
X+1349375Y+4748774D02*
X+1349375Y+4758934D01*
X+1349375Y+4814814D02*
X+1349375Y+4824974D01*
X+1351915Y+4573514D02*
X+1351915Y+4586214D01*
X+1351915Y+4631934D02*
X+1351915Y+4642094D01*
X+1351915Y+4662414D02*
X+1351915Y+4672574D01*
X+1351915Y+4677654D02*
X+1351915Y+4690354D01*
X+1351915Y+4720834D02*
X+1351915Y+4730994D01*
X+1351915Y+4748774D02*
X+1351915Y+4758934D01*
X+1351915Y+4814814D02*
X+1351915Y+4827514D01*
X+1354455Y+4573514D02*
X+1354455Y+4583674D01*
X+1354455Y+4631934D02*
X+1354455Y+4642094D01*
X+1354455Y+4662414D02*
X+1354455Y+4672574D01*
X+1354455Y+4680194D02*
X+1354455Y+4690354D01*
X+1354455Y+4720834D02*
X+1354455Y+4730994D01*
X+1354455Y+4748774D02*
X+1354455Y+4758934D01*
X+1354455Y+4817354D02*
X+1354455Y+4827514D01*
X+1356995Y+4573514D02*
X+1356995Y+4583674D01*
X+1356995Y+4631934D02*
X+1356995Y+4642094D01*
X+1356995Y+4662414D02*
X+1356995Y+4672574D01*
X+1356995Y+4680194D02*
X+1356995Y+4692894D01*
X+1356995Y+4720834D02*
X+1356995Y+4730994D01*
X+1356995Y+4748774D02*
X+1356995Y+4758934D01*
X+1356995Y+4817354D02*
X+1356995Y+4827514D01*
X+1359535Y+4570974D02*
X+1359535Y+4583674D01*
X+1359535Y+4631934D02*
X+1359535Y+4642094D01*
X+1359535Y+4662414D02*
X+1359535Y+4672574D01*
X+1359535Y+4682734D02*
X+1359535Y+4692894D01*
X+1359535Y+4720834D02*
X+1359535Y+4730994D01*
X+1359535Y+4748774D02*
X+1359535Y+4758934D01*
X+1359535Y+4817354D02*
X+1359535Y+4830054D01*
X+1362075Y+4570974D02*
X+1362075Y+4581134D01*
X+1362075Y+4631934D02*
X+1362075Y+4642094D01*
X+1362075Y+4662414D02*
X+1362075Y+4672574D01*
X+1362075Y+4685274D02*
X+1362075Y+4695434D01*
X+1362075Y+4720834D02*
X+1362075Y+4730994D01*
X+1362075Y+4748774D02*
X+1362075Y+4758934D01*
X+1362075Y+4819894D02*
X+1362075Y+4830054D01*
X+1364615Y+4570974D02*
X+1364615Y+4581134D01*
X+1364615Y+4631934D02*
X+1364615Y+4642094D01*
X+1364615Y+4662414D02*
X+1364615Y+4672574D01*
X+1364615Y+4685274D02*
X+1364615Y+4697974D01*
X+1364615Y+4720834D02*
X+1364615Y+4730994D01*
X+1364615Y+4748774D02*
X+1364615Y+4786874D01*
X+1364615Y+4819894D02*
X+1364615Y+4830054D01*
X+1367155Y+4570974D02*
X+1367155Y+4581134D01*
X+1367155Y+4631934D02*
X+1367155Y+4642094D01*
X+1367155Y+4662414D02*
X+1367155Y+4672574D01*
X+1367155Y+4687814D02*
X+1367155Y+4697974D01*
X+1367155Y+4720834D02*
X+1367155Y+4730994D01*
X+1367155Y+4748774D02*
X+1367155Y+4786874D01*
X+1367155Y+4819894D02*
X+1367155Y+4830054D01*
X+1369695Y+4570974D02*
X+1369695Y+4581134D01*
X+1369695Y+4631934D02*
X+1369695Y+4642094D01*
X+1369695Y+4662414D02*
X+1369695Y+4672574D01*
X+1369695Y+4690354D02*
X+1369695Y+4700514D01*
X+1369695Y+4720834D02*
X+1369695Y+4730994D01*
X+1369695Y+4748774D02*
X+1369695Y+4786874D01*
X+1369695Y+4819894D02*
X+1369695Y+4830054D01*
X+1372235Y+4570974D02*
X+1372235Y+4581134D01*
X+1372235Y+4631934D02*
X+1372235Y+4642094D01*
X+1372235Y+4662414D02*
X+1372235Y+4672574D01*
X+1372235Y+4690354D02*
X+1372235Y+4703054D01*
X+1372235Y+4720834D02*
X+1372235Y+4730994D01*
X+1372235Y+4748774D02*
X+1372235Y+4786874D01*
X+1372235Y+4819894D02*
X+1372235Y+4830054D01*
X+1374775Y+4570974D02*
X+1374775Y+4581134D01*
X+1374775Y+4631934D02*
X+1374775Y+4642094D01*
X+1374775Y+4662414D02*
X+1374775Y+4672574D01*
X+1374775Y+4692894D02*
X+1374775Y+4703054D01*
X+1374775Y+4720834D02*
X+1374775Y+4730994D01*
X+1374775Y+4819894D02*
X+1374775Y+4830054D01*
X+1377315Y+4570974D02*
X+1377315Y+4581134D01*
X+1377315Y+4631934D02*
X+1377315Y+4642094D01*
X+1377315Y+4662414D02*
X+1377315Y+4672574D01*
X+1377315Y+4695434D02*
X+1377315Y+4705594D01*
X+1377315Y+4720834D02*
X+1377315Y+4730994D01*
X+1377315Y+4819894D02*
X+1377315Y+4830054D01*
X+1379855Y+4570974D02*
X+1379855Y+4581134D01*
X+1379855Y+4631934D02*
X+1379855Y+4642094D01*
X+1379855Y+4662414D02*
X+1379855Y+4672574D01*
X+1379855Y+4695434D02*
X+1379855Y+4708134D01*
X+1379855Y+4720834D02*
X+1379855Y+4730994D01*
X+1379855Y+4819894D02*
X+1379855Y+4830054D01*
X+1382395Y+4570974D02*
X+1382395Y+4581134D01*
X+1382395Y+4631934D02*
X+1382395Y+4642094D01*
X+1382395Y+4662414D02*
X+1382395Y+4672574D01*
X+1382395Y+4697974D02*
X+1382395Y+4708134D01*
X+1382395Y+4720834D02*
X+1382395Y+4730994D01*
X+1382395Y+4819894D02*
X+1382395Y+4830054D01*
X+1384935Y+4570974D02*
X+1384935Y+4581134D01*
X+1384935Y+4631934D02*
X+1384935Y+4642094D01*
X+1384935Y+4662414D02*
X+1384935Y+4672574D01*
X+1384935Y+4700514D02*
X+1384935Y+4710674D01*
X+1384935Y+4720834D02*
X+1384935Y+4730994D01*
X+1384935Y+4817354D02*
X+1384935Y+4827514D01*
X+1387475Y+4573514D02*
X+1387475Y+4583674D01*
X+1387475Y+4631934D02*
X+1387475Y+4642094D01*
X+1387475Y+4662414D02*
X+1387475Y+4672574D01*
X+1387475Y+4700514D02*
X+1387475Y+4713214D01*
X+1387475Y+4720834D02*
X+1387475Y+4730994D01*
X+1387475Y+4817354D02*
X+1387475Y+4827514D01*
X+1390015Y+4573514D02*
X+1390015Y+4583674D01*
X+1390015Y+4631934D02*
X+1390015Y+4642094D01*
X+1390015Y+4662414D02*
X+1390015Y+4672574D01*
X+1390015Y+4703054D02*
X+1390015Y+4713214D01*
X+1390015Y+4720834D02*
X+1390015Y+4730994D01*
X+1390015Y+4817354D02*
X+1390015Y+4827514D01*
X+1392555Y+4573514D02*
X+1392555Y+4583674D01*
X+1392555Y+4631934D02*
X+1392555Y+4642094D01*
X+1392555Y+4662414D02*
X+1392555Y+4672574D01*
X+1392555Y+4703054D02*
X+1392555Y+4715754D01*
X+1392555Y+4720834D02*
X+1392555Y+4730994D01*
X+1392555Y+4748774D02*
X+1392555Y+4761474D01*
X+1392555Y+4814814D02*
X+1392555Y+4827514D01*
X+1395095Y+4576054D02*
X+1395095Y+4586214D01*
X+1395095Y+4631934D02*
X+1395095Y+4642094D01*
X+1395095Y+4662414D02*
X+1395095Y+4672574D01*
X+1395095Y+4705594D02*
X+1395095Y+4718294D01*
X+1395095Y+4720834D02*
X+1395095Y+4730994D01*
X+1395095Y+4751314D02*
X+1395095Y+4761474D01*
X+1395095Y+4814814D02*
X+1395095Y+4824974D01*
X+1397635Y+4576054D02*
X+1397635Y+4588754D01*
X+1397635Y+4631934D02*
X+1397635Y+4642094D01*
X+1397635Y+4662414D02*
X+1397635Y+4672574D01*
X+1397635Y+4708134D02*
X+1397635Y+4718294D01*
X+1397635Y+4720834D02*
X+1397635Y+4730994D01*
X+1397635Y+4751314D02*
X+1397635Y+4761474D01*
X+1397635Y+4812274D02*
X+1397635Y+4824974D01*
X+1400175Y+4576054D02*
X+1400175Y+4591294D01*
X+1400175Y+4631934D02*
X+1400175Y+4642094D01*
X+1400175Y+4662414D02*
X+1400175Y+4672574D01*
X+1400175Y+4708134D02*
X+1400175Y+4730994D01*
X+1400175Y+4751314D02*
X+1400175Y+4764014D01*
X+1400175Y+4809734D02*
X+1400175Y+4822434D01*
X+1402715Y+4578594D02*
X+1402715Y+4593834D01*
X+1402715Y+4631934D02*
X+1402715Y+4642094D01*
X+1402715Y+4662414D02*
X+1402715Y+4672574D01*
X+1402715Y+4710674D02*
X+1402715Y+4730994D01*
X+1402715Y+4753854D02*
X+1402715Y+4766554D01*
X+1402715Y+4807194D02*
X+1402715Y+4822434D01*
X+1405255Y+4581134D02*
X+1405255Y+4598914D01*
X+1405255Y+4631934D02*
X+1405255Y+4642094D01*
X+1405255Y+4662414D02*
X+1405255Y+4672574D01*
X+1405255Y+4713214D02*
X+1405255Y+4730994D01*
X+1405255Y+4756394D02*
X+1405255Y+4771634D01*
X+1405255Y+4802114D02*
X+1405255Y+4819894D01*
X+1407795Y+4583674D02*
X+1407795Y+4642094D01*
X+1407795Y+4662414D02*
X+1407795Y+4672574D01*
X+1407795Y+4713214D02*
X+1407795Y+4730994D01*
X+1407795Y+4756394D02*
X+1407795Y+4776714D01*
X+1407795Y+4797034D02*
X+1407795Y+4817354D01*
X+1410335Y+4586214D02*
X+1410335Y+4642094D01*
X+1410335Y+4662414D02*
X+1410335Y+4672574D01*
X+1410335Y+4715754D02*
X+1410335Y+4730994D01*
X+1410335Y+4758934D02*
X+1410335Y+4814814D01*
X+1412875Y+4591294D02*
X+1412875Y+4642094D01*
X+1412875Y+4662414D02*
X+1412875Y+4672574D01*
X+1412875Y+4718294D02*
X+1412875Y+4730994D01*
X+1412875Y+4761474D02*
X+1412875Y+4809734D01*
X+1415415Y+4596374D02*
X+1415415Y+4642094D01*
X+1415415Y+4662414D02*
X+1415415Y+4672574D01*
X+1415415Y+4718294D02*
X+1415415Y+4730994D01*
X+1415415Y+4766554D02*
X+1415415Y+4804654D01*
X+1417955Y+4774174D02*
X+1417955Y+4797034D01*
D24*
X+2717800Y+4826000D02*
X+2717800Y+4419600D01*
X+2463800Y+4826000D02*
X+2463800Y+4673600D01*
D28*
X+3510915Y+723900D02*
X+3510915Y+746760D01*
X+3513455Y+548640D02*
X+3513455Y+591820D01*
X+3513455Y+612140D02*
X+3513455Y+624840D01*
X+3513455Y+670560D02*
X+3513455Y+680720D01*
X+3513455Y+716280D02*
X+3513455Y+754380D01*
X+3515995Y+541020D02*
X+3515995Y+591820D01*
X+3515995Y+612140D02*
X+3515995Y+624840D01*
X+3515995Y+670560D02*
X+3515995Y+680720D01*
X+3515995Y+711200D02*
X+3515995Y+759460D01*
X+3518535Y+535940D02*
X+3518535Y+591820D01*
X+3518535Y+612140D02*
X+3518535Y+627380D01*
X+3518535Y+670560D02*
X+3518535Y+680720D01*
X+3518535Y+706120D02*
X+3518535Y+764540D01*
X+3521075Y+533400D02*
X+3521075Y+591820D01*
X+3521075Y+612140D02*
X+3521075Y+629920D01*
X+3521075Y+670560D02*
X+3521075Y+680720D01*
X+3521075Y+701040D02*
X+3521075Y+726440D01*
X+3521075Y+746760D02*
X+3521075Y+767080D01*
X+3523615Y+530860D02*
X+3523615Y+548640D01*
X+3523615Y+581660D02*
X+3523615Y+591820D01*
X+3523615Y+612140D02*
X+3523615Y+629920D01*
X+3523615Y+670560D02*
X+3523615Y+680720D01*
X+3523615Y+698500D02*
X+3523615Y+718820D01*
X+3523615Y+751840D02*
X+3523615Y+769620D01*
X+3526155Y+528320D02*
X+3526155Y+543560D01*
X+3526155Y+581660D02*
X+3526155Y+591820D01*
X+3526155Y+612140D02*
X+3526155Y+632460D01*
X+3526155Y+670560D02*
X+3526155Y+680720D01*
X+3526155Y+698500D02*
X+3526155Y+713740D01*
X+3526155Y+756920D02*
X+3526155Y+769620D01*
X+3528695Y+528320D02*
X+3528695Y+541020D01*
X+3528695Y+581660D02*
X+3528695Y+591820D01*
X+3528695Y+612140D02*
X+3528695Y+635000D01*
X+3528695Y+670560D02*
X+3528695Y+680720D01*
X+3528695Y+698500D02*
X+3528695Y+711200D01*
X+3528695Y+759460D02*
X+3528695Y+772160D01*
X+3531235Y+525780D02*
X+3531235Y+538480D01*
X+3531235Y+581660D02*
X+3531235Y+591820D01*
X+3531235Y+612140D02*
X+3531235Y+622300D01*
X+3531235Y+624840D02*
X+3531235Y+635000D01*
X+3531235Y+670560D02*
X+3531235Y+680720D01*
X+3531235Y+698500D02*
X+3531235Y+708660D01*
X+3531235Y+762000D02*
X+3531235Y+774700D01*
X+3533775Y+525780D02*
X+3533775Y+535940D01*
X+3533775Y+581660D02*
X+3533775Y+591820D01*
X+3533775Y+612140D02*
X+3533775Y+622300D01*
X+3533775Y+624840D02*
X+3533775Y+637540D01*
X+3533775Y+670560D02*
X+3533775Y+680720D01*
X+3533775Y+698500D02*
X+3533775Y+708660D01*
X+3533775Y+764540D02*
X+3533775Y+774700D01*
X+3536315Y+523240D02*
X+3536315Y+535940D01*
X+3536315Y+581660D02*
X+3536315Y+591820D01*
X+3536315Y+612140D02*
X+3536315Y+622300D01*
X+3536315Y+627380D02*
X+3536315Y+640080D01*
X+3536315Y+670560D02*
X+3536315Y+680720D01*
X+3536315Y+698500D02*
X+3536315Y+708660D01*
X+3536315Y+764540D02*
X+3536315Y+777240D01*
X+3538855Y+523240D02*
X+3538855Y+533400D01*
X+3538855Y+581660D02*
X+3538855Y+591820D01*
X+3538855Y+612140D02*
X+3538855Y+622300D01*
X+3538855Y+629920D02*
X+3538855Y+640080D01*
X+3538855Y+670560D02*
X+3538855Y+680720D01*
X+3538855Y+698500D02*
X+3538855Y+708660D01*
X+3538855Y+767080D02*
X+3538855Y+777240D01*
X+3541395Y+523240D02*
X+3541395Y+533400D01*
X+3541395Y+581660D02*
X+3541395Y+591820D01*
X+3541395Y+612140D02*
X+3541395Y+622300D01*
X+3541395Y+629920D02*
X+3541395Y+642620D01*
X+3541395Y+670560D02*
X+3541395Y+680720D01*
X+3541395Y+698500D02*
X+3541395Y+708660D01*
X+3541395Y+767080D02*
X+3541395Y+777240D01*
X+3543935Y+520700D02*
X+3543935Y+533400D01*
X+3543935Y+581660D02*
X+3543935Y+591820D01*
X+3543935Y+612140D02*
X+3543935Y+622300D01*
X+3543935Y+632460D02*
X+3543935Y+642620D01*
X+3543935Y+670560D02*
X+3543935Y+680720D01*
X+3543935Y+698500D02*
X+3543935Y+708660D01*
X+3543935Y+767080D02*
X+3543935Y+779780D01*
X+3546475Y+520700D02*
X+3546475Y+530860D01*
X+3546475Y+581660D02*
X+3546475Y+591820D01*
X+3546475Y+612140D02*
X+3546475Y+622300D01*
X+3546475Y+635000D02*
X+3546475Y+645160D01*
X+3546475Y+670560D02*
X+3546475Y+680720D01*
X+3546475Y+698500D02*
X+3546475Y+708660D01*
X+3546475Y+769620D02*
X+3546475Y+779780D01*
X+3549015Y+520700D02*
X+3549015Y+530860D01*
X+3549015Y+581660D02*
X+3549015Y+591820D01*
X+3549015Y+612140D02*
X+3549015Y+622300D01*
X+3549015Y+635000D02*
X+3549015Y+647700D01*
X+3549015Y+670560D02*
X+3549015Y+680720D01*
X+3549015Y+698500D02*
X+3549015Y+736600D01*
X+3549015Y+769620D02*
X+3549015Y+779780D01*
X+3551555Y+520700D02*
X+3551555Y+530860D01*
X+3551555Y+581660D02*
X+3551555Y+591820D01*
X+3551555Y+612140D02*
X+3551555Y+622300D01*
X+3551555Y+637540D02*
X+3551555Y+647700D01*
X+3551555Y+670560D02*
X+3551555Y+680720D01*
X+3551555Y+698500D02*
X+3551555Y+736600D01*
X+3551555Y+769620D02*
X+3551555Y+779780D01*
X+3554095Y+520700D02*
X+3554095Y+530860D01*
X+3554095Y+581660D02*
X+3554095Y+591820D01*
X+3554095Y+612140D02*
X+3554095Y+622300D01*
X+3554095Y+640080D02*
X+3554095Y+650240D01*
X+3554095Y+670560D02*
X+3554095Y+680720D01*
X+3554095Y+698500D02*
X+3554095Y+736600D01*
X+3554095Y+769620D02*
X+3554095Y+779780D01*
X+3556635Y+520700D02*
X+3556635Y+530860D01*
X+3556635Y+581660D02*
X+3556635Y+591820D01*
X+3556635Y+612140D02*
X+3556635Y+622300D01*
X+3556635Y+640080D02*
X+3556635Y+652780D01*
X+3556635Y+670560D02*
X+3556635Y+680720D01*
X+3556635Y+698500D02*
X+3556635Y+736600D01*
X+3556635Y+769620D02*
X+3556635Y+779780D01*
X+3559175Y+520700D02*
X+3559175Y+530860D01*
X+3559175Y+581660D02*
X+3559175Y+591820D01*
X+3559175Y+612140D02*
X+3559175Y+622300D01*
X+3559175Y+642620D02*
X+3559175Y+652780D01*
X+3559175Y+670560D02*
X+3559175Y+680720D01*
X+3559175Y+769620D02*
X+3559175Y+779780D01*
X+3561715Y+520700D02*
X+3561715Y+530860D01*
X+3561715Y+581660D02*
X+3561715Y+591820D01*
X+3561715Y+612140D02*
X+3561715Y+622300D01*
X+3561715Y+645160D02*
X+3561715Y+655320D01*
X+3561715Y+670560D02*
X+3561715Y+680720D01*
X+3561715Y+769620D02*
X+3561715Y+779780D01*
X+3564255Y+520700D02*
X+3564255Y+530860D01*
X+3564255Y+581660D02*
X+3564255Y+591820D01*
X+3564255Y+612140D02*
X+3564255Y+622300D01*
X+3564255Y+645160D02*
X+3564255Y+657860D01*
X+3564255Y+670560D02*
X+3564255Y+680720D01*
X+3564255Y+769620D02*
X+3564255Y+779780D01*
X+3566795Y+520700D02*
X+3566795Y+530860D01*
X+3566795Y+581660D02*
X+3566795Y+591820D01*
X+3566795Y+612140D02*
X+3566795Y+622300D01*
X+3566795Y+647700D02*
X+3566795Y+657860D01*
X+3566795Y+670560D02*
X+3566795Y+680720D01*
X+3566795Y+769620D02*
X+3566795Y+779780D01*
X+3569335Y+520700D02*
X+3569335Y+530860D01*
X+3569335Y+581660D02*
X+3569335Y+591820D01*
X+3569335Y+612140D02*
X+3569335Y+622300D01*
X+3569335Y+650240D02*
X+3569335Y+660400D01*
X+3569335Y+670560D02*
X+3569335Y+680720D01*
X+3569335Y+767080D02*
X+3569335Y+777240D01*
X+3571875Y+523240D02*
X+3571875Y+533400D01*
X+3571875Y+581660D02*
X+3571875Y+591820D01*
X+3571875Y+612140D02*
X+3571875Y+622300D01*
X+3571875Y+650240D02*
X+3571875Y+662940D01*
X+3571875Y+670560D02*
X+3571875Y+680720D01*
X+3571875Y+767080D02*
X+3571875Y+777240D01*
X+3574415Y+523240D02*
X+3574415Y+533400D01*
X+3574415Y+581660D02*
X+3574415Y+591820D01*
X+3574415Y+612140D02*
X+3574415Y+622300D01*
X+3574415Y+652780D02*
X+3574415Y+662940D01*
X+3574415Y+670560D02*
X+3574415Y+680720D01*
X+3574415Y+767080D02*
X+3574415Y+777240D01*
X+3576955Y+523240D02*
X+3576955Y+533400D01*
X+3576955Y+581660D02*
X+3576955Y+591820D01*
X+3576955Y+612140D02*
X+3576955Y+622300D01*
X+3576955Y+652780D02*
X+3576955Y+665480D01*
X+3576955Y+670560D02*
X+3576955Y+680720D01*
X+3576955Y+698500D02*
X+3576955Y+711200D01*
X+3576955Y+764540D02*
X+3576955Y+777240D01*
X+3579495Y+525780D02*
X+3579495Y+535940D01*
X+3579495Y+581660D02*
X+3579495Y+591820D01*
X+3579495Y+612140D02*
X+3579495Y+622300D01*
X+3579495Y+655320D02*
X+3579495Y+668020D01*
X+3579495Y+670560D02*
X+3579495Y+680720D01*
X+3579495Y+701040D02*
X+3579495Y+711200D01*
X+3579495Y+764540D02*
X+3579495Y+774700D01*
X+3582035Y+525780D02*
X+3582035Y+538480D01*
X+3582035Y+581660D02*
X+3582035Y+591820D01*
X+3582035Y+612140D02*
X+3582035Y+622300D01*
X+3582035Y+657860D02*
X+3582035Y+668020D01*
X+3582035Y+670560D02*
X+3582035Y+680720D01*
X+3582035Y+701040D02*
X+3582035Y+711200D01*
X+3582035Y+762000D02*
X+3582035Y+774700D01*
X+3584575Y+525780D02*
X+3584575Y+541020D01*
X+3584575Y+581660D02*
X+3584575Y+591820D01*
X+3584575Y+612140D02*
X+3584575Y+622300D01*
X+3584575Y+657860D02*
X+3584575Y+680720D01*
X+3584575Y+701040D02*
X+3584575Y+713740D01*
X+3584575Y+759460D02*
X+3584575Y+772160D01*
X+3587115Y+528320D02*
X+3587115Y+543560D01*
X+3587115Y+581660D02*
X+3587115Y+591820D01*
X+3587115Y+612140D02*
X+3587115Y+622300D01*
X+3587115Y+660400D02*
X+3587115Y+680720D01*
X+3587115Y+703580D02*
X+3587115Y+716280D01*
X+3587115Y+756920D02*
X+3587115Y+772160D01*
X+3589655Y+530860D02*
X+3589655Y+548640D01*
X+3589655Y+581660D02*
X+3589655Y+591820D01*
X+3589655Y+612140D02*
X+3589655Y+622300D01*
X+3589655Y+662940D02*
X+3589655Y+680720D01*
X+3589655Y+706120D02*
X+3589655Y+721360D01*
X+3589655Y+751840D02*
X+3589655Y+769620D01*
X+3592195Y+533400D02*
X+3592195Y+591820D01*
X+3592195Y+612140D02*
X+3592195Y+622300D01*
X+3592195Y+662940D02*
X+3592195Y+680720D01*
X+3592195Y+706120D02*
X+3592195Y+726440D01*
X+3592195Y+746760D02*
X+3592195Y+767080D01*
X+3594735Y+535940D02*
X+3594735Y+591820D01*
X+3594735Y+612140D02*
X+3594735Y+622300D01*
X+3594735Y+665480D02*
X+3594735Y+680720D01*
X+3594735Y+708660D02*
X+3594735Y+764540D01*
X+3597275Y+541020D02*
X+3597275Y+591820D01*
X+3597275Y+612140D02*
X+3597275Y+622300D01*
X+3597275Y+668020D02*
X+3597275Y+680720D01*
X+3597275Y+711200D02*
X+3597275Y+759460D01*
X+3599815Y+546100D02*
X+3599815Y+591820D01*
X+3599815Y+612140D02*
X+3599815Y+622300D01*
X+3599815Y+668020D02*
X+3599815Y+680720D01*
X+3599815Y+716280D02*
X+3599815Y+754380D01*
X+3602355Y+723900D02*
X+3602355Y+746760D01*
X+3002915Y+723900D02*
X+3002915Y+746760D01*
X+3005455Y+548640D02*
X+3005455Y+591820D01*
X+3005455Y+612140D02*
X+3005455Y+624840D01*
X+3005455Y+670560D02*
X+3005455Y+680720D01*
X+3005455Y+716280D02*
X+3005455Y+754380D01*
X+3007995Y+541020D02*
X+3007995Y+591820D01*
X+3007995Y+612140D02*
X+3007995Y+624840D01*
X+3007995Y+670560D02*
X+3007995Y+680720D01*
X+3007995Y+711200D02*
X+3007995Y+759460D01*
X+3010535Y+535940D02*
X+3010535Y+591820D01*
X+3010535Y+612140D02*
X+3010535Y+627380D01*
X+3010535Y+670560D02*
X+3010535Y+680720D01*
X+3010535Y+706120D02*
X+3010535Y+764540D01*
X+3013075Y+533400D02*
X+3013075Y+591820D01*
X+3013075Y+612140D02*
X+3013075Y+629920D01*
X+3013075Y+670560D02*
X+3013075Y+680720D01*
X+3013075Y+701040D02*
X+3013075Y+726440D01*
X+3013075Y+746760D02*
X+3013075Y+767080D01*
X+3015615Y+530860D02*
X+3015615Y+548640D01*
X+3015615Y+581660D02*
X+3015615Y+591820D01*
X+3015615Y+612140D02*
X+3015615Y+629920D01*
X+3015615Y+670560D02*
X+3015615Y+680720D01*
X+3015615Y+698500D02*
X+3015615Y+718820D01*
X+3015615Y+751840D02*
X+3015615Y+769620D01*
X+3018155Y+528320D02*
X+3018155Y+543560D01*
X+3018155Y+581660D02*
X+3018155Y+591820D01*
X+3018155Y+612140D02*
X+3018155Y+632460D01*
X+3018155Y+670560D02*
X+3018155Y+680720D01*
X+3018155Y+698500D02*
X+3018155Y+713740D01*
X+3018155Y+756920D02*
X+3018155Y+769620D01*
X+3020695Y+528320D02*
X+3020695Y+541020D01*
X+3020695Y+581660D02*
X+3020695Y+591820D01*
X+3020695Y+612140D02*
X+3020695Y+635000D01*
X+3020695Y+670560D02*
X+3020695Y+680720D01*
X+3020695Y+698500D02*
X+3020695Y+711200D01*
X+3020695Y+759460D02*
X+3020695Y+772160D01*
X+3023235Y+525780D02*
X+3023235Y+538480D01*
X+3023235Y+581660D02*
X+3023235Y+591820D01*
X+3023235Y+612140D02*
X+3023235Y+622300D01*
X+3023235Y+624840D02*
X+3023235Y+635000D01*
X+3023235Y+670560D02*
X+3023235Y+680720D01*
X+3023235Y+698500D02*
X+3023235Y+708660D01*
X+3023235Y+762000D02*
X+3023235Y+774700D01*
X+3025775Y+525780D02*
X+3025775Y+535940D01*
X+3025775Y+581660D02*
X+3025775Y+591820D01*
X+3025775Y+612140D02*
X+3025775Y+622300D01*
X+3025775Y+624840D02*
X+3025775Y+637540D01*
X+3025775Y+670560D02*
X+3025775Y+680720D01*
X+3025775Y+698500D02*
X+3025775Y+708660D01*
X+3025775Y+764540D02*
X+3025775Y+774700D01*
X+3028315Y+523240D02*
X+3028315Y+535940D01*
X+3028315Y+581660D02*
X+3028315Y+591820D01*
X+3028315Y+612140D02*
X+3028315Y+622300D01*
X+3028315Y+627380D02*
X+3028315Y+640080D01*
X+3028315Y+670560D02*
X+3028315Y+680720D01*
X+3028315Y+698500D02*
X+3028315Y+708660D01*
X+3028315Y+764540D02*
X+3028315Y+777240D01*
X+3030855Y+523240D02*
X+3030855Y+533400D01*
X+3030855Y+581660D02*
X+3030855Y+591820D01*
X+3030855Y+612140D02*
X+3030855Y+622300D01*
X+3030855Y+629920D02*
X+3030855Y+640080D01*
X+3030855Y+670560D02*
X+3030855Y+680720D01*
X+3030855Y+698500D02*
X+3030855Y+708660D01*
X+3030855Y+767080D02*
X+3030855Y+777240D01*
X+3033395Y+523240D02*
X+3033395Y+533400D01*
X+3033395Y+581660D02*
X+3033395Y+591820D01*
X+3033395Y+612140D02*
X+3033395Y+622300D01*
X+3033395Y+629920D02*
X+3033395Y+642620D01*
X+3033395Y+670560D02*
X+3033395Y+680720D01*
X+3033395Y+698500D02*
X+3033395Y+708660D01*
X+3033395Y+767080D02*
X+3033395Y+777240D01*
X+3035935Y+520700D02*
X+3035935Y+533400D01*
X+3035935Y+581660D02*
X+3035935Y+591820D01*
X+3035935Y+612140D02*
X+3035935Y+622300D01*
X+3035935Y+632460D02*
X+3035935Y+642620D01*
X+3035935Y+670560D02*
X+3035935Y+680720D01*
X+3035935Y+698500D02*
X+3035935Y+708660D01*
X+3035935Y+767080D02*
X+3035935Y+779780D01*
X+3038475Y+520700D02*
X+3038475Y+530860D01*
X+3038475Y+581660D02*
X+3038475Y+591820D01*
X+3038475Y+612140D02*
X+3038475Y+622300D01*
X+3038475Y+635000D02*
X+3038475Y+645160D01*
X+3038475Y+670560D02*
X+3038475Y+680720D01*
X+3038475Y+698500D02*
X+3038475Y+708660D01*
X+3038475Y+769620D02*
X+3038475Y+779780D01*
X+3041015Y+520700D02*
X+3041015Y+530860D01*
X+3041015Y+581660D02*
X+3041015Y+591820D01*
X+3041015Y+612140D02*
X+3041015Y+622300D01*
X+3041015Y+635000D02*
X+3041015Y+647700D01*
X+3041015Y+670560D02*
X+3041015Y+680720D01*
X+3041015Y+698500D02*
X+3041015Y+736600D01*
X+3041015Y+769620D02*
X+3041015Y+779780D01*
X+3043555Y+520700D02*
X+3043555Y+530860D01*
X+3043555Y+581660D02*
X+3043555Y+591820D01*
X+3043555Y+612140D02*
X+3043555Y+622300D01*
X+3043555Y+637540D02*
X+3043555Y+647700D01*
X+3043555Y+670560D02*
X+3043555Y+680720D01*
X+3043555Y+698500D02*
X+3043555Y+736600D01*
X+3043555Y+769620D02*
X+3043555Y+779780D01*
X+3046095Y+520700D02*
X+3046095Y+530860D01*
X+3046095Y+581660D02*
X+3046095Y+591820D01*
X+3046095Y+612140D02*
X+3046095Y+622300D01*
X+3046095Y+640080D02*
X+3046095Y+650240D01*
X+3046095Y+670560D02*
X+3046095Y+680720D01*
X+3046095Y+698500D02*
X+3046095Y+736600D01*
X+3046095Y+769620D02*
X+3046095Y+779780D01*
X+3048635Y+520700D02*
X+3048635Y+530860D01*
X+3048635Y+581660D02*
X+3048635Y+591820D01*
X+3048635Y+612140D02*
X+3048635Y+622300D01*
X+3048635Y+640080D02*
X+3048635Y+652780D01*
X+3048635Y+670560D02*
X+3048635Y+680720D01*
X+3048635Y+698500D02*
X+3048635Y+736600D01*
X+3048635Y+769620D02*
X+3048635Y+779780D01*
X+3051175Y+520700D02*
X+3051175Y+530860D01*
X+3051175Y+581660D02*
X+3051175Y+591820D01*
X+3051175Y+612140D02*
X+3051175Y+622300D01*
X+3051175Y+642620D02*
X+3051175Y+652780D01*
X+3051175Y+670560D02*
X+3051175Y+680720D01*
X+3051175Y+769620D02*
X+3051175Y+779780D01*
X+3053715Y+520700D02*
X+3053715Y+530860D01*
X+3053715Y+581660D02*
X+3053715Y+591820D01*
X+3053715Y+612140D02*
X+3053715Y+622300D01*
X+3053715Y+645160D02*
X+3053715Y+655320D01*
X+3053715Y+670560D02*
X+3053715Y+680720D01*
X+3053715Y+769620D02*
X+3053715Y+779780D01*
X+3056255Y+520700D02*
X+3056255Y+530860D01*
X+3056255Y+581660D02*
X+3056255Y+591820D01*
X+3056255Y+612140D02*
X+3056255Y+622300D01*
X+3056255Y+645160D02*
X+3056255Y+657860D01*
X+3056255Y+670560D02*
X+3056255Y+680720D01*
X+3056255Y+769620D02*
X+3056255Y+779780D01*
X+3058795Y+520700D02*
X+3058795Y+530860D01*
X+3058795Y+581660D02*
X+3058795Y+591820D01*
X+3058795Y+612140D02*
X+3058795Y+622300D01*
X+3058795Y+647700D02*
X+3058795Y+657860D01*
X+3058795Y+670560D02*
X+3058795Y+680720D01*
X+3058795Y+769620D02*
X+3058795Y+779780D01*
X+3061335Y+520700D02*
X+3061335Y+530860D01*
X+3061335Y+581660D02*
X+3061335Y+591820D01*
X+3061335Y+612140D02*
X+3061335Y+622300D01*
X+3061335Y+650240D02*
X+3061335Y+660400D01*
X+3061335Y+670560D02*
X+3061335Y+680720D01*
X+3061335Y+767080D02*
X+3061335Y+777240D01*
X+3063875Y+523240D02*
X+3063875Y+533400D01*
X+3063875Y+581660D02*
X+3063875Y+591820D01*
X+3063875Y+612140D02*
X+3063875Y+622300D01*
X+3063875Y+650240D02*
X+3063875Y+662940D01*
X+3063875Y+670560D02*
X+3063875Y+680720D01*
X+3063875Y+767080D02*
X+3063875Y+777240D01*
X+3066415Y+523240D02*
X+3066415Y+533400D01*
X+3066415Y+581660D02*
X+3066415Y+591820D01*
X+3066415Y+612140D02*
X+3066415Y+622300D01*
X+3066415Y+652780D02*
X+3066415Y+662940D01*
X+3066415Y+670560D02*
X+3066415Y+680720D01*
X+3066415Y+767080D02*
X+3066415Y+777240D01*
X+3068955Y+523240D02*
X+3068955Y+533400D01*
X+3068955Y+581660D02*
X+3068955Y+591820D01*
X+3068955Y+612140D02*
X+3068955Y+622300D01*
X+3068955Y+652780D02*
X+3068955Y+665480D01*
X+3068955Y+670560D02*
X+3068955Y+680720D01*
X+3068955Y+698500D02*
X+3068955Y+711200D01*
X+3068955Y+764540D02*
X+3068955Y+777240D01*
X+3071495Y+525780D02*
X+3071495Y+535940D01*
X+3071495Y+581660D02*
X+3071495Y+591820D01*
X+3071495Y+612140D02*
X+3071495Y+622300D01*
X+3071495Y+655320D02*
X+3071495Y+668020D01*
X+3071495Y+670560D02*
X+3071495Y+680720D01*
X+3071495Y+701040D02*
X+3071495Y+711200D01*
X+3071495Y+764540D02*
X+3071495Y+774700D01*
X+3074035Y+525780D02*
X+3074035Y+538480D01*
X+3074035Y+581660D02*
X+3074035Y+591820D01*
X+3074035Y+612140D02*
X+3074035Y+622300D01*
X+3074035Y+657860D02*
X+3074035Y+668020D01*
X+3074035Y+670560D02*
X+3074035Y+680720D01*
X+3074035Y+701040D02*
X+3074035Y+711200D01*
X+3074035Y+762000D02*
X+3074035Y+774700D01*
X+3076575Y+525780D02*
X+3076575Y+541020D01*
X+3076575Y+581660D02*
X+3076575Y+591820D01*
X+3076575Y+612140D02*
X+3076575Y+622300D01*
X+3076575Y+657860D02*
X+3076575Y+680720D01*
X+3076575Y+701040D02*
X+3076575Y+713740D01*
X+3076575Y+759460D02*
X+3076575Y+772160D01*
X+3079115Y+528320D02*
X+3079115Y+543560D01*
X+3079115Y+581660D02*
X+3079115Y+591820D01*
X+3079115Y+612140D02*
X+3079115Y+622300D01*
X+3079115Y+660400D02*
X+3079115Y+680720D01*
X+3079115Y+703580D02*
X+3079115Y+716280D01*
X+3079115Y+756920D02*
X+3079115Y+772160D01*
X+3081655Y+530860D02*
X+3081655Y+548640D01*
X+3081655Y+581660D02*
X+3081655Y+591820D01*
X+3081655Y+612140D02*
X+3081655Y+622300D01*
X+3081655Y+662940D02*
X+3081655Y+680720D01*
X+3081655Y+706120D02*
X+3081655Y+721360D01*
X+3081655Y+751840D02*
X+3081655Y+769620D01*
X+3084195Y+533400D02*
X+3084195Y+591820D01*
X+3084195Y+612140D02*
X+3084195Y+622300D01*
X+3084195Y+662940D02*
X+3084195Y+680720D01*
X+3084195Y+706120D02*
X+3084195Y+726440D01*
X+3084195Y+746760D02*
X+3084195Y+767080D01*
X+3086735Y+535940D02*
X+3086735Y+591820D01*
X+3086735Y+612140D02*
X+3086735Y+622300D01*
X+3086735Y+665480D02*
X+3086735Y+680720D01*
X+3086735Y+708660D02*
X+3086735Y+764540D01*
X+3089275Y+541020D02*
X+3089275Y+591820D01*
X+3089275Y+612140D02*
X+3089275Y+622300D01*
X+3089275Y+668020D02*
X+3089275Y+680720D01*
X+3089275Y+711200D02*
X+3089275Y+759460D01*
X+3091815Y+546100D02*
X+3091815Y+591820D01*
X+3091815Y+612140D02*
X+3091815Y+622300D01*
X+3091815Y+668020D02*
X+3091815Y+680720D01*
X+3091815Y+716280D02*
X+3091815Y+754380D01*
X+3094355Y+723900D02*
X+3094355Y+746760D01*
X+2742565Y+723900D02*
X+2742565Y+746760D01*
X+2745105Y+548640D02*
X+2745105Y+591820D01*
X+2745105Y+612140D02*
X+2745105Y+624840D01*
X+2745105Y+670560D02*
X+2745105Y+680720D01*
X+2745105Y+716280D02*
X+2745105Y+754380D01*
X+2747645Y+541020D02*
X+2747645Y+591820D01*
X+2747645Y+612140D02*
X+2747645Y+624840D01*
X+2747645Y+670560D02*
X+2747645Y+680720D01*
X+2747645Y+711200D02*
X+2747645Y+759460D01*
X+2750185Y+535940D02*
X+2750185Y+591820D01*
X+2750185Y+612140D02*
X+2750185Y+627380D01*
X+2750185Y+670560D02*
X+2750185Y+680720D01*
X+2750185Y+706120D02*
X+2750185Y+764540D01*
X+2752725Y+533400D02*
X+2752725Y+591820D01*
X+2752725Y+612140D02*
X+2752725Y+629920D01*
X+2752725Y+670560D02*
X+2752725Y+680720D01*
X+2752725Y+701040D02*
X+2752725Y+726440D01*
X+2752725Y+746760D02*
X+2752725Y+767080D01*
X+2755265Y+530860D02*
X+2755265Y+548640D01*
X+2755265Y+581660D02*
X+2755265Y+591820D01*
X+2755265Y+612140D02*
X+2755265Y+629920D01*
X+2755265Y+670560D02*
X+2755265Y+680720D01*
X+2755265Y+698500D02*
X+2755265Y+718820D01*
X+2755265Y+751840D02*
X+2755265Y+769620D01*
X+2757805Y+528320D02*
X+2757805Y+543560D01*
X+2757805Y+581660D02*
X+2757805Y+591820D01*
X+2757805Y+612140D02*
X+2757805Y+632460D01*
X+2757805Y+670560D02*
X+2757805Y+680720D01*
X+2757805Y+698500D02*
X+2757805Y+713740D01*
X+2757805Y+756920D02*
X+2757805Y+769620D01*
X+2760345Y+528320D02*
X+2760345Y+541020D01*
X+2760345Y+581660D02*
X+2760345Y+591820D01*
X+2760345Y+612140D02*
X+2760345Y+635000D01*
X+2760345Y+670560D02*
X+2760345Y+680720D01*
X+2760345Y+698500D02*
X+2760345Y+711200D01*
X+2760345Y+759460D02*
X+2760345Y+772160D01*
X+2762885Y+525780D02*
X+2762885Y+538480D01*
X+2762885Y+581660D02*
X+2762885Y+591820D01*
X+2762885Y+612140D02*
X+2762885Y+622300D01*
X+2762885Y+624840D02*
X+2762885Y+635000D01*
X+2762885Y+670560D02*
X+2762885Y+680720D01*
X+2762885Y+698500D02*
X+2762885Y+708660D01*
X+2762885Y+762000D02*
X+2762885Y+774700D01*
X+2765425Y+525780D02*
X+2765425Y+535940D01*
X+2765425Y+581660D02*
X+2765425Y+591820D01*
X+2765425Y+612140D02*
X+2765425Y+622300D01*
X+2765425Y+624840D02*
X+2765425Y+637540D01*
X+2765425Y+670560D02*
X+2765425Y+680720D01*
X+2765425Y+698500D02*
X+2765425Y+708660D01*
X+2765425Y+764540D02*
X+2765425Y+774700D01*
X+2767965Y+523240D02*
X+2767965Y+535940D01*
X+2767965Y+581660D02*
X+2767965Y+591820D01*
X+2767965Y+612140D02*
X+2767965Y+622300D01*
X+2767965Y+627380D02*
X+2767965Y+640080D01*
X+2767965Y+670560D02*
X+2767965Y+680720D01*
X+2767965Y+698500D02*
X+2767965Y+708660D01*
X+2767965Y+764540D02*
X+2767965Y+777240D01*
X+2770505Y+523240D02*
X+2770505Y+533400D01*
X+2770505Y+581660D02*
X+2770505Y+591820D01*
X+2770505Y+612140D02*
X+2770505Y+622300D01*
X+2770505Y+629920D02*
X+2770505Y+640080D01*
X+2770505Y+670560D02*
X+2770505Y+680720D01*
X+2770505Y+698500D02*
X+2770505Y+708660D01*
X+2770505Y+767080D02*
X+2770505Y+777240D01*
X+2773045Y+523240D02*
X+2773045Y+533400D01*
X+2773045Y+581660D02*
X+2773045Y+591820D01*
X+2773045Y+612140D02*
X+2773045Y+622300D01*
X+2773045Y+629920D02*
X+2773045Y+642620D01*
X+2773045Y+670560D02*
X+2773045Y+680720D01*
X+2773045Y+698500D02*
X+2773045Y+708660D01*
X+2773045Y+767080D02*
X+2773045Y+777240D01*
X+2775585Y+520700D02*
X+2775585Y+533400D01*
X+2775585Y+581660D02*
X+2775585Y+591820D01*
X+2775585Y+612140D02*
X+2775585Y+622300D01*
X+2775585Y+632460D02*
X+2775585Y+642620D01*
X+2775585Y+670560D02*
X+2775585Y+680720D01*
X+2775585Y+698500D02*
X+2775585Y+708660D01*
X+2775585Y+767080D02*
X+2775585Y+779780D01*
X+2778125Y+520700D02*
X+2778125Y+530860D01*
X+2778125Y+581660D02*
X+2778125Y+591820D01*
X+2778125Y+612140D02*
X+2778125Y+622300D01*
X+2778125Y+635000D02*
X+2778125Y+645160D01*
X+2778125Y+670560D02*
X+2778125Y+680720D01*
X+2778125Y+698500D02*
X+2778125Y+708660D01*
X+2778125Y+769620D02*
X+2778125Y+779780D01*
X+2780665Y+520700D02*
X+2780665Y+530860D01*
X+2780665Y+581660D02*
X+2780665Y+591820D01*
X+2780665Y+612140D02*
X+2780665Y+622300D01*
X+2780665Y+635000D02*
X+2780665Y+647700D01*
X+2780665Y+670560D02*
X+2780665Y+680720D01*
X+2780665Y+698500D02*
X+2780665Y+736600D01*
X+2780665Y+769620D02*
X+2780665Y+779780D01*
X+2783205Y+520700D02*
X+2783205Y+530860D01*
X+2783205Y+581660D02*
X+2783205Y+591820D01*
X+2783205Y+612140D02*
X+2783205Y+622300D01*
X+2783205Y+637540D02*
X+2783205Y+647700D01*
X+2783205Y+670560D02*
X+2783205Y+680720D01*
X+2783205Y+698500D02*
X+2783205Y+736600D01*
X+2783205Y+769620D02*
X+2783205Y+779780D01*
X+2785745Y+520700D02*
X+2785745Y+530860D01*
X+2785745Y+581660D02*
X+2785745Y+591820D01*
X+2785745Y+612140D02*
X+2785745Y+622300D01*
X+2785745Y+640080D02*
X+2785745Y+650240D01*
X+2785745Y+670560D02*
X+2785745Y+680720D01*
X+2785745Y+698500D02*
X+2785745Y+736600D01*
X+2785745Y+769620D02*
X+2785745Y+779780D01*
X+2788285Y+520700D02*
X+2788285Y+530860D01*
X+2788285Y+581660D02*
X+2788285Y+591820D01*
X+2788285Y+612140D02*
X+2788285Y+622300D01*
X+2788285Y+640080D02*
X+2788285Y+652780D01*
X+2788285Y+670560D02*
X+2788285Y+680720D01*
X+2788285Y+698500D02*
X+2788285Y+736600D01*
X+2788285Y+769620D02*
X+2788285Y+779780D01*
X+2790825Y+520700D02*
X+2790825Y+530860D01*
X+2790825Y+581660D02*
X+2790825Y+591820D01*
X+2790825Y+612140D02*
X+2790825Y+622300D01*
X+2790825Y+642620D02*
X+2790825Y+652780D01*
X+2790825Y+670560D02*
X+2790825Y+680720D01*
X+2790825Y+769620D02*
X+2790825Y+779780D01*
X+2793365Y+520700D02*
X+2793365Y+530860D01*
X+2793365Y+581660D02*
X+2793365Y+591820D01*
X+2793365Y+612140D02*
X+2793365Y+622300D01*
X+2793365Y+645160D02*
X+2793365Y+655320D01*
X+2793365Y+670560D02*
X+2793365Y+680720D01*
X+2793365Y+769620D02*
X+2793365Y+779780D01*
X+2795905Y+520700D02*
X+2795905Y+530860D01*
X+2795905Y+581660D02*
X+2795905Y+591820D01*
X+2795905Y+612140D02*
X+2795905Y+622300D01*
X+2795905Y+645160D02*
X+2795905Y+657860D01*
X+2795905Y+670560D02*
X+2795905Y+680720D01*
X+2795905Y+769620D02*
X+2795905Y+779780D01*
X+2798445Y+520700D02*
X+2798445Y+530860D01*
X+2798445Y+581660D02*
X+2798445Y+591820D01*
X+2798445Y+612140D02*
X+2798445Y+622300D01*
X+2798445Y+647700D02*
X+2798445Y+657860D01*
X+2798445Y+670560D02*
X+2798445Y+680720D01*
X+2798445Y+769620D02*
X+2798445Y+779780D01*
X+2800985Y+520700D02*
X+2800985Y+530860D01*
X+2800985Y+581660D02*
X+2800985Y+591820D01*
X+2800985Y+612140D02*
X+2800985Y+622300D01*
X+2800985Y+650240D02*
X+2800985Y+660400D01*
X+2800985Y+670560D02*
X+2800985Y+680720D01*
X+2800985Y+767080D02*
X+2800985Y+777240D01*
X+2803525Y+523240D02*
X+2803525Y+533400D01*
X+2803525Y+581660D02*
X+2803525Y+591820D01*
X+2803525Y+612140D02*
X+2803525Y+622300D01*
X+2803525Y+650240D02*
X+2803525Y+662940D01*
X+2803525Y+670560D02*
X+2803525Y+680720D01*
X+2803525Y+767080D02*
X+2803525Y+777240D01*
X+2806065Y+523240D02*
X+2806065Y+533400D01*
X+2806065Y+581660D02*
X+2806065Y+591820D01*
X+2806065Y+612140D02*
X+2806065Y+622300D01*
X+2806065Y+652780D02*
X+2806065Y+662940D01*
X+2806065Y+670560D02*
X+2806065Y+680720D01*
X+2806065Y+767080D02*
X+2806065Y+777240D01*
X+2808605Y+523240D02*
X+2808605Y+533400D01*
X+2808605Y+581660D02*
X+2808605Y+591820D01*
X+2808605Y+612140D02*
X+2808605Y+622300D01*
X+2808605Y+652780D02*
X+2808605Y+665480D01*
X+2808605Y+670560D02*
X+2808605Y+680720D01*
X+2808605Y+698500D02*
X+2808605Y+711200D01*
X+2808605Y+764540D02*
X+2808605Y+777240D01*
X+2811145Y+525780D02*
X+2811145Y+535940D01*
X+2811145Y+581660D02*
X+2811145Y+591820D01*
X+2811145Y+612140D02*
X+2811145Y+622300D01*
X+2811145Y+655320D02*
X+2811145Y+668020D01*
X+2811145Y+670560D02*
X+2811145Y+680720D01*
X+2811145Y+701040D02*
X+2811145Y+711200D01*
X+2811145Y+764540D02*
X+2811145Y+774700D01*
X+2813685Y+525780D02*
X+2813685Y+538480D01*
X+2813685Y+581660D02*
X+2813685Y+591820D01*
X+2813685Y+612140D02*
X+2813685Y+622300D01*
X+2813685Y+657860D02*
X+2813685Y+668020D01*
X+2813685Y+670560D02*
X+2813685Y+680720D01*
X+2813685Y+701040D02*
X+2813685Y+711200D01*
X+2813685Y+762000D02*
X+2813685Y+774700D01*
X+2816225Y+525780D02*
X+2816225Y+541020D01*
X+2816225Y+581660D02*
X+2816225Y+591820D01*
X+2816225Y+612140D02*
X+2816225Y+622300D01*
X+2816225Y+657860D02*
X+2816225Y+680720D01*
X+2816225Y+701040D02*
X+2816225Y+713740D01*
X+2816225Y+759460D02*
X+2816225Y+772160D01*
X+2818765Y+528320D02*
X+2818765Y+543560D01*
X+2818765Y+581660D02*
X+2818765Y+591820D01*
X+2818765Y+612140D02*
X+2818765Y+622300D01*
X+2818765Y+660400D02*
X+2818765Y+680720D01*
X+2818765Y+703580D02*
X+2818765Y+716280D01*
X+2818765Y+756920D02*
X+2818765Y+772160D01*
X+2821305Y+530860D02*
X+2821305Y+548640D01*
X+2821305Y+581660D02*
X+2821305Y+591820D01*
X+2821305Y+612140D02*
X+2821305Y+622300D01*
X+2821305Y+662940D02*
X+2821305Y+680720D01*
X+2821305Y+706120D02*
X+2821305Y+721360D01*
X+2821305Y+751840D02*
X+2821305Y+769620D01*
X+2823845Y+533400D02*
X+2823845Y+591820D01*
X+2823845Y+612140D02*
X+2823845Y+622300D01*
X+2823845Y+662940D02*
X+2823845Y+680720D01*
X+2823845Y+706120D02*
X+2823845Y+726440D01*
X+2823845Y+746760D02*
X+2823845Y+767080D01*
X+2826385Y+535940D02*
X+2826385Y+591820D01*
X+2826385Y+612140D02*
X+2826385Y+622300D01*
X+2826385Y+665480D02*
X+2826385Y+680720D01*
X+2826385Y+708660D02*
X+2826385Y+764540D01*
X+2828925Y+541020D02*
X+2828925Y+591820D01*
X+2828925Y+612140D02*
X+2828925Y+622300D01*
X+2828925Y+668020D02*
X+2828925Y+680720D01*
X+2828925Y+711200D02*
X+2828925Y+759460D01*
X+2831465Y+546100D02*
X+2831465Y+591820D01*
X+2831465Y+612140D02*
X+2831465Y+622300D01*
X+2831465Y+668020D02*
X+2831465Y+680720D01*
X+2831465Y+716280D02*
X+2831465Y+754380D01*
X+2834005Y+723900D02*
X+2834005Y+746760D01*
X+2497455Y+543560D02*
X+2497455Y+556260D01*
X+2497455Y+617220D02*
X+2497455Y+637540D01*
X+2499995Y+541020D02*
X+2499995Y+558800D01*
X+2499995Y+612140D02*
X+2499995Y+642620D01*
X+2502535Y+541020D02*
X+2502535Y+558800D01*
X+2502535Y+607060D02*
X+2502535Y+645160D01*
X+2505075Y+541020D02*
X+2505075Y+558800D01*
X+2505075Y+604520D02*
X+2505075Y+647700D01*
X+2507615Y+538480D02*
X+2507615Y+548640D01*
X+2507615Y+551180D02*
X+2507615Y+561340D01*
X+2507615Y+604520D02*
X+2507615Y+619760D01*
X+2507615Y+635000D02*
X+2507615Y+650240D01*
X+2510155Y+538480D02*
X+2510155Y+548640D01*
X+2510155Y+551180D02*
X+2510155Y+561340D01*
X+2510155Y+601980D02*
X+2510155Y+614680D01*
X+2510155Y+640080D02*
X+2510155Y+652780D01*
X+2512695Y+538480D02*
X+2512695Y+548640D01*
X+2512695Y+551180D02*
X+2512695Y+561340D01*
X+2512695Y+599440D02*
X+2512695Y+612140D01*
X+2512695Y+642620D02*
X+2512695Y+652780D01*
X+2515235Y+535940D02*
X+2515235Y+548640D01*
X+2515235Y+551180D02*
X+2515235Y+563880D01*
X+2515235Y+599440D02*
X+2515235Y+609600D01*
X+2515235Y+642620D02*
X+2515235Y+655320D01*
X+2517775Y+535940D02*
X+2517775Y+546100D01*
X+2517775Y+553720D02*
X+2517775Y+563880D01*
X+2517775Y+599440D02*
X+2517775Y+609600D01*
X+2517775Y+645160D02*
X+2517775Y+655320D01*
X+2520315Y+533400D02*
X+2520315Y+546100D01*
X+2520315Y+553720D02*
X+2520315Y+566420D01*
X+2520315Y+596900D02*
X+2520315Y+607060D01*
X+2520315Y+645160D02*
X+2520315Y+655320D01*
X+2522855Y+533400D02*
X+2522855Y+543560D01*
X+2522855Y+556260D02*
X+2522855Y+566420D01*
X+2522855Y+596900D02*
X+2522855Y+607060D01*
X+2525395Y+533400D02*
X+2525395Y+543560D01*
X+2525395Y+556260D02*
X+2525395Y+566420D01*
X+2525395Y+596900D02*
X+2525395Y+607060D01*
X+2527935Y+530860D02*
X+2527935Y+543560D01*
X+2527935Y+556260D02*
X+2527935Y+568960D01*
X+2527935Y+596900D02*
X+2527935Y+607060D01*
X+2530475Y+530860D02*
X+2530475Y+541020D01*
X+2530475Y+558800D02*
X+2530475Y+568960D01*
X+2530475Y+596900D02*
X+2530475Y+607060D01*
X+2533015Y+530860D02*
X+2533015Y+541020D01*
X+2533015Y+558800D02*
X+2533015Y+568960D01*
X+2533015Y+596900D02*
X+2533015Y+607060D01*
X+2535555Y+528320D02*
X+2535555Y+541020D01*
X+2535555Y+561340D02*
X+2535555Y+571500D01*
X+2535555Y+596900D02*
X+2535555Y+607060D01*
X+2538095Y+528320D02*
X+2538095Y+538480D01*
X+2538095Y+561340D02*
X+2538095Y+571500D01*
X+2538095Y+599440D02*
X+2538095Y+609600D01*
X+2538095Y+642620D02*
X+2538095Y+647700D01*
X+2540635Y+525780D02*
X+2540635Y+538480D01*
X+2540635Y+561340D02*
X+2540635Y+574040D01*
X+2540635Y+599440D02*
X+2540635Y+609600D01*
X+2540635Y+640080D02*
X+2540635Y+652780D01*
X+2543175Y+525780D02*
X+2543175Y+535940D01*
X+2543175Y+563880D02*
X+2543175Y+574040D01*
X+2543175Y+599440D02*
X+2543175Y+612140D01*
X+2543175Y+637540D02*
X+2543175Y+652780D01*
X+2545715Y+525780D02*
X+2545715Y+535940D01*
X+2545715Y+563880D02*
X+2545715Y+574040D01*
X+2545715Y+601980D02*
X+2545715Y+617220D01*
X+2545715Y+635000D02*
X+2545715Y+650240D01*
X+2548255Y+523240D02*
X+2548255Y+535940D01*
X+2548255Y+563880D02*
X+2548255Y+576580D01*
X+2548255Y+604520D02*
X+2548255Y+650240D01*
X+2550795Y+523240D02*
X+2550795Y+533400D01*
X+2550795Y+566420D02*
X+2550795Y+576580D01*
X+2550795Y+607060D02*
X+2550795Y+650240D01*
X+2553335Y+523240D02*
X+2553335Y+533400D01*
X+2553335Y+566420D02*
X+2553335Y+576580D01*
X+2553335Y+609600D02*
X+2553335Y+637540D01*
X+2553335Y+640080D02*
X+2553335Y+650240D01*
X+2555875Y+520700D02*
X+2555875Y+530860D01*
X+2555875Y+568960D02*
X+2555875Y+579120D01*
X+2555875Y+614680D02*
X+2555875Y+632460D01*
X+2555875Y+640080D02*
X+2555875Y+650240D01*
X+2558415Y+520700D02*
X+2558415Y+530860D01*
X+2558415Y+568960D02*
X+2558415Y+579120D01*
X+2558415Y+637540D02*
X+2558415Y+647700D01*
X+2560955Y+518160D02*
X+2560955Y+530860D01*
X+2560955Y+568960D02*
X+2560955Y+581660D01*
X+2560955Y+637540D02*
X+2560955Y+647700D01*
X+2563495Y+518160D02*
X+2563495Y+528320D01*
X+2563495Y+571500D02*
X+2563495Y+581660D01*
X+2563495Y+637540D02*
X+2563495Y+647700D01*
X+2566035Y+518160D02*
X+2566035Y+528320D01*
X+2566035Y+571500D02*
X+2566035Y+581660D01*
X+2566035Y+637540D02*
X+2566035Y+647700D01*
X+2568575Y+515620D02*
X+2568575Y+528320D01*
X+2568575Y+574040D02*
X+2568575Y+584200D01*
X+2568575Y+635000D02*
X+2568575Y+645160D01*
X+2571115Y+515620D02*
X+2571115Y+525780D01*
X+2571115Y+574040D02*
X+2571115Y+584200D01*
X+2571115Y+635000D02*
X+2571115Y+645160D01*
X+2573655Y+515620D02*
X+2573655Y+525780D01*
X+2573655Y+574040D02*
X+2573655Y+584200D01*
X+2573655Y+635000D02*
X+2573655Y+645160D01*
X+2576195Y+513080D02*
X+2576195Y+523240D01*
X+2576195Y+576580D02*
X+2576195Y+586740D01*
X+2576195Y+601980D02*
X+2576195Y+645160D01*
X+2578735Y+513080D02*
X+2578735Y+523240D01*
X+2578735Y+576580D02*
X+2578735Y+586740D01*
X+2578735Y+601980D02*
X+2578735Y+645160D01*
X+2581275Y+510540D02*
X+2581275Y+523240D01*
X+2581275Y+576580D02*
X+2581275Y+589280D01*
X+2581275Y+601980D02*
X+2581275Y+642620D01*
X+2583815Y+510540D02*
X+2583815Y+520700D01*
X+2583815Y+579120D02*
X+2583815Y+589280D01*
X+2583815Y+601980D02*
X+2583815Y+642620D01*
X+1989455Y+518160D02*
X+1989455Y+530860D01*
X+1989455Y+576580D02*
X+1989455Y+586740D01*
X+1989455Y+604520D02*
X+1989455Y+670560D01*
X+1989455Y+688340D02*
X+1989455Y+698500D01*
X+1989455Y+749300D02*
X+1989455Y+759460D01*
X+1989455Y+795020D02*
X+1989455Y+805180D01*
X+1989455Y+853440D02*
X+1989455Y+863600D01*
X+1989455Y+955040D02*
X+1989455Y+965200D01*
X+1991995Y+518160D02*
X+1991995Y+530860D01*
X+1991995Y+576580D02*
X+1991995Y+586740D01*
X+1991995Y+604520D02*
X+1991995Y+670560D01*
X+1991995Y+688340D02*
X+1991995Y+701040D01*
X+1991995Y+749300D02*
X+1991995Y+759460D01*
X+1991995Y+792480D02*
X+1991995Y+807720D01*
X+1991995Y+850900D02*
X+1991995Y+866140D01*
X+1991995Y+955040D02*
X+1991995Y+965200D01*
X+1994535Y+518160D02*
X+1994535Y+533400D01*
X+1994535Y+576580D02*
X+1994535Y+586740D01*
X+1994535Y+604520D02*
X+1994535Y+670560D01*
X+1994535Y+690880D02*
X+1994535Y+701040D01*
X+1994535Y+749300D02*
X+1994535Y+759460D01*
X+1994535Y+792480D02*
X+1994535Y+807720D01*
X+1994535Y+850900D02*
X+1994535Y+866140D01*
X+1994535Y+955040D02*
X+1994535Y+965200D01*
X+1997075Y+518160D02*
X+1997075Y+535940D01*
X+1997075Y+576580D02*
X+1997075Y+586740D01*
X+1997075Y+604520D02*
X+1997075Y+670560D01*
X+1997075Y+690880D02*
X+1997075Y+703580D01*
X+1997075Y+749300D02*
X+1997075Y+759460D01*
X+1997075Y+792480D02*
X+1997075Y+807720D01*
X+1997075Y+850900D02*
X+1997075Y+866140D01*
X+1997075Y+955040D02*
X+1997075Y+965200D01*
X+1999615Y+518160D02*
X+1999615Y+535940D01*
X+1999615Y+576580D02*
X+1999615Y+586740D01*
X+1999615Y+660400D02*
X+1999615Y+670560D01*
X+1999615Y+693420D02*
X+1999615Y+706120D01*
X+1999615Y+749300D02*
X+1999615Y+759460D01*
X+1999615Y+789940D02*
X+1999615Y+807720D01*
X+1999615Y+848360D02*
X+1999615Y+868680D01*
X+1999615Y+955040D02*
X+1999615Y+965200D01*
X+2002155Y+518160D02*
X+2002155Y+538480D01*
X+2002155Y+576580D02*
X+2002155Y+586740D01*
X+2002155Y+660400D02*
X+2002155Y+670560D01*
X+2002155Y+695960D02*
X+2002155Y+706120D01*
X+2002155Y+749300D02*
X+2002155Y+759460D01*
X+2002155Y+789940D02*
X+2002155Y+797560D01*
X+2002155Y+800100D02*
X+2002155Y+810260D01*
X+2002155Y+848360D02*
X+2002155Y+858520D01*
X+2002155Y+861060D02*
X+2002155Y+868680D01*
X+2002155Y+955040D02*
X+2002155Y+965200D01*
X+2004695Y+518160D02*
X+2004695Y+541020D01*
X+2004695Y+576580D02*
X+2004695Y+586740D01*
X+2004695Y+660400D02*
X+2004695Y+670560D01*
X+2004695Y+695960D02*
X+2004695Y+708660D01*
X+2004695Y+749300D02*
X+2004695Y+759460D01*
X+2004695Y+789940D02*
X+2004695Y+797560D01*
X+2004695Y+800100D02*
X+2004695Y+810260D01*
X+2004695Y+848360D02*
X+2004695Y+858520D01*
X+2004695Y+861060D02*
X+2004695Y+868680D01*
X+2004695Y+955040D02*
X+2004695Y+965200D01*
X+2007235Y+518160D02*
X+2007235Y+528320D01*
X+2007235Y+530860D02*
X+2007235Y+541020D01*
X+2007235Y+576580D02*
X+2007235Y+586740D01*
X+2007235Y+660400D02*
X+2007235Y+670560D01*
X+2007235Y+698500D02*
X+2007235Y+711200D01*
X+2007235Y+749300D02*
X+2007235Y+759460D01*
X+2007235Y+789940D02*
X+2007235Y+797560D01*
X+2007235Y+800100D02*
X+2007235Y+810260D01*
X+2007235Y+848360D02*
X+2007235Y+858520D01*
X+2007235Y+861060D02*
X+2007235Y+868680D01*
X+2007235Y+955040D02*
X+2007235Y+965200D01*
X+2009775Y+518160D02*
X+2009775Y+528320D01*
X+2009775Y+530860D02*
X+2009775Y+543560D01*
X+2009775Y+576580D02*
X+2009775Y+586740D01*
X+2009775Y+660400D02*
X+2009775Y+670560D01*
X+2009775Y+698500D02*
X+2009775Y+711200D01*
X+2009775Y+749300D02*
X+2009775Y+759460D01*
X+2009775Y+787400D02*
X+2009775Y+797560D01*
X+2009775Y+802640D02*
X+2009775Y+812800D01*
X+2009775Y+845820D02*
X+2009775Y+855980D01*
X+2009775Y+861060D02*
X+2009775Y+871220D01*
X+2009775Y+955040D02*
X+2009775Y+965200D01*
X+2012315Y+518160D02*
X+2012315Y+528320D01*
X+2012315Y+533400D02*
X+2012315Y+546100D01*
X+2012315Y+576580D02*
X+2012315Y+586740D01*
X+2012315Y+660400D02*
X+2012315Y+670560D01*
X+2012315Y+701040D02*
X+2012315Y+713740D01*
X+2012315Y+749300D02*
X+2012315Y+759460D01*
X+2012315Y+787400D02*
X+2012315Y+795020D01*
X+2012315Y+802640D02*
X+2012315Y+812800D01*
X+2012315Y+845820D02*
X+2012315Y+855980D01*
X+2012315Y+863600D02*
X+2012315Y+871220D01*
X+2012315Y+955040D02*
X+2012315Y+965200D01*
X+2014855Y+518160D02*
X+2014855Y+528320D01*
X+2014855Y+535940D02*
X+2014855Y+546100D01*
X+2014855Y+576580D02*
X+2014855Y+586740D01*
X+2014855Y+660400D02*
X+2014855Y+670560D01*
X+2014855Y+703580D02*
X+2014855Y+716280D01*
X+2014855Y+749300D02*
X+2014855Y+759460D01*
X+2014855Y+787400D02*
X+2014855Y+795020D01*
X+2014855Y+802640D02*
X+2014855Y+812800D01*
X+2014855Y+845820D02*
X+2014855Y+855980D01*
X+2014855Y+863600D02*
X+2014855Y+871220D01*
X+2014855Y+955040D02*
X+2014855Y+965200D01*
X+2017395Y+518160D02*
X+2017395Y+528320D01*
X+2017395Y+535940D02*
X+2017395Y+548640D01*
X+2017395Y+576580D02*
X+2017395Y+586740D01*
X+2017395Y+660400D02*
X+2017395Y+670560D01*
X+2017395Y+706120D02*
X+2017395Y+716280D01*
X+2017395Y+749300D02*
X+2017395Y+759460D01*
X+2017395Y+784860D02*
X+2017395Y+795020D01*
X+2017395Y+805180D02*
X+2017395Y+815340D01*
X+2017395Y+843280D02*
X+2017395Y+853440D01*
X+2017395Y+863600D02*
X+2017395Y+873760D01*
X+2017395Y+955040D02*
X+2017395Y+965200D01*
X+2019935Y+518160D02*
X+2019935Y+528320D01*
X+2019935Y+538480D02*
X+2019935Y+548640D01*
X+2019935Y+576580D02*
X+2019935Y+586740D01*
X+2019935Y+660400D02*
X+2019935Y+670560D01*
X+2019935Y+706120D02*
X+2019935Y+718820D01*
X+2019935Y+749300D02*
X+2019935Y+759460D01*
X+2019935Y+784860D02*
X+2019935Y+795020D01*
X+2019935Y+805180D02*
X+2019935Y+815340D01*
X+2019935Y+843280D02*
X+2019935Y+853440D01*
X+2019935Y+863600D02*
X+2019935Y+873760D01*
X+2019935Y+955040D02*
X+2019935Y+965200D01*
X+2022475Y+518160D02*
X+2022475Y+528320D01*
X+2022475Y+541020D02*
X+2022475Y+551180D01*
X+2022475Y+576580D02*
X+2022475Y+586740D01*
X+2022475Y+660400D02*
X+2022475Y+670560D01*
X+2022475Y+708660D02*
X+2022475Y+721360D01*
X+2022475Y+749300D02*
X+2022475Y+759460D01*
X+2022475Y+784860D02*
X+2022475Y+792480D01*
X+2022475Y+805180D02*
X+2022475Y+815340D01*
X+2022475Y+843280D02*
X+2022475Y+853440D01*
X+2022475Y+866140D02*
X+2022475Y+873760D01*
X+2022475Y+955040D02*
X+2022475Y+965200D01*
X+2025015Y+518160D02*
X+2025015Y+528320D01*
X+2025015Y+541020D02*
X+2025015Y+553720D01*
X+2025015Y+576580D02*
X+2025015Y+586740D01*
X+2025015Y+660400D02*
X+2025015Y+670560D01*
X+2025015Y+711200D02*
X+2025015Y+723900D01*
X+2025015Y+749300D02*
X+2025015Y+759460D01*
X+2025015Y+784860D02*
X+2025015Y+792480D01*
X+2025015Y+805180D02*
X+2025015Y+817880D01*
X+2025015Y+840740D02*
X+2025015Y+853440D01*
X+2025015Y+866140D02*
X+2025015Y+873760D01*
X+2025015Y+919480D02*
X+2025015Y+965200D01*
X+2027555Y+518160D02*
X+2027555Y+528320D01*
X+2027555Y+543560D02*
X+2027555Y+553720D01*
X+2027555Y+576580D02*
X+2027555Y+586740D01*
X+2027555Y+660400D02*
X+2027555Y+670560D01*
X+2027555Y+713740D02*
X+2027555Y+726440D01*
X+2027555Y+749300D02*
X+2027555Y+759460D01*
X+2027555Y+782320D02*
X+2027555Y+792480D01*
X+2027555Y+807720D02*
X+2027555Y+817880D01*
X+2027555Y+840740D02*
X+2027555Y+850900D01*
X+2027555Y+866140D02*
X+2027555Y+876300D01*
X+2027555Y+911860D02*
X+2027555Y+965200D01*
X+2030095Y+518160D02*
X+2030095Y+528320D01*
X+2030095Y+546100D02*
X+2030095Y+556260D01*
X+2030095Y+576580D02*
X+2030095Y+586740D01*
X+2030095Y+609600D02*
X+2030095Y+670560D01*
X+2030095Y+708660D02*
X+2030095Y+759460D01*
X+2030095Y+782320D02*
X+2030095Y+792480D01*
X+2030095Y+807720D02*
X+2030095Y+817880D01*
X+2030095Y+840740D02*
X+2030095Y+850900D01*
X+2030095Y+866140D02*
X+2030095Y+876300D01*
X+2030095Y+906780D02*
X+2030095Y+965200D01*
X+2032635Y+518160D02*
X+2032635Y+528320D01*
X+2032635Y+546100D02*
X+2032635Y+558800D01*
X+2032635Y+576580D02*
X+2032635Y+586740D01*
X+2032635Y+609600D02*
X+2032635Y+670560D01*
X+2032635Y+703580D02*
X+2032635Y+759460D01*
X+2032635Y+782320D02*
X+2032635Y+789940D01*
X+2032635Y+807720D02*
X+2032635Y+817880D01*
X+2032635Y+840740D02*
X+2032635Y+850900D01*
X+2032635Y+868680D02*
X+2032635Y+876300D01*
X+2032635Y+906780D02*
X+2032635Y+965200D01*
X+2035175Y+518160D02*
X+2035175Y+528320D01*
X+2035175Y+548640D02*
X+2035175Y+558800D01*
X+2035175Y+576580D02*
X+2035175Y+586740D01*
X+2035175Y+609600D02*
X+2035175Y+670560D01*
X+2035175Y+698500D02*
X+2035175Y+759460D01*
X+2035175Y+782320D02*
X+2035175Y+789940D01*
X+2035175Y+810260D02*
X+2035175Y+820420D01*
X+2035175Y+838200D02*
X+2035175Y+848360D01*
X+2035175Y+868680D02*
X+2035175Y+876300D01*
X+2035175Y+904240D02*
X+2035175Y+919480D01*
X+2035175Y+955040D02*
X+2035175Y+965200D01*
X+2037715Y+518160D02*
X+2037715Y+528320D01*
X+2037715Y+551180D02*
X+2037715Y+561340D01*
X+2037715Y+576580D02*
X+2037715Y+586740D01*
X+2037715Y+609600D02*
X+2037715Y+670560D01*
X+2037715Y+695960D02*
X+2037715Y+759460D01*
X+2037715Y+779780D02*
X+2037715Y+789940D01*
X+2037715Y+810260D02*
X+2037715Y+820420D01*
X+2037715Y+838200D02*
X+2037715Y+848360D01*
X+2037715Y+868680D02*
X+2037715Y+878840D01*
X+2037715Y+901700D02*
X+2037715Y+914400D01*
X+2037715Y+955040D02*
X+2037715Y+965200D01*
X+2040255Y+518160D02*
X+2040255Y+528320D01*
X+2040255Y+551180D02*
X+2040255Y+563880D01*
X+2040255Y+576580D02*
X+2040255Y+586740D01*
X+2040255Y+660400D02*
X+2040255Y+670560D01*
X+2040255Y+693420D02*
X+2040255Y+711200D01*
X+2040255Y+749300D02*
X+2040255Y+759460D01*
X+2040255Y+779780D02*
X+2040255Y+789940D01*
X+2040255Y+810260D02*
X+2040255Y+820420D01*
X+2040255Y+838200D02*
X+2040255Y+848360D01*
X+2040255Y+868680D02*
X+2040255Y+878840D01*
X+2040255Y+901700D02*
X+2040255Y+911860D01*
X+2040255Y+955040D02*
X+2040255Y+965200D01*
X+2042795Y+518160D02*
X+2042795Y+528320D01*
X+2042795Y+553720D02*
X+2042795Y+563880D01*
X+2042795Y+576580D02*
X+2042795Y+586740D01*
X+2042795Y+660400D02*
X+2042795Y+670560D01*
X+2042795Y+693420D02*
X+2042795Y+706120D01*
X+2042795Y+749300D02*
X+2042795Y+759460D01*
X+2042795Y+779780D02*
X+2042795Y+787400D01*
X+2042795Y+812800D02*
X+2042795Y+822960D01*
X+2042795Y+835660D02*
X+2042795Y+845820D01*
X+2042795Y+871220D02*
X+2042795Y+878840D01*
X+2042795Y+899160D02*
X+2042795Y+911860D01*
X+2042795Y+955040D02*
X+2042795Y+965200D01*
X+2045335Y+518160D02*
X+2045335Y+528320D01*
X+2045335Y+556260D02*
X+2045335Y+566420D01*
X+2045335Y+576580D02*
X+2045335Y+586740D01*
X+2045335Y+660400D02*
X+2045335Y+670560D01*
X+2045335Y+690880D02*
X+2045335Y+703580D01*
X+2045335Y+749300D02*
X+2045335Y+759460D01*
X+2045335Y+777240D02*
X+2045335Y+787400D01*
X+2045335Y+812800D02*
X+2045335Y+822960D01*
X+2045335Y+835660D02*
X+2045335Y+845820D01*
X+2045335Y+871220D02*
X+2045335Y+881380D01*
X+2045335Y+899160D02*
X+2045335Y+909320D01*
X+2045335Y+955040D02*
X+2045335Y+965200D01*
X+2047875Y+518160D02*
X+2047875Y+528320D01*
X+2047875Y+556260D02*
X+2047875Y+568960D01*
X+2047875Y+576580D02*
X+2047875Y+586740D01*
X+2047875Y+660400D02*
X+2047875Y+670560D01*
X+2047875Y+690880D02*
X+2047875Y+701040D01*
X+2047875Y+749300D02*
X+2047875Y+759460D01*
X+2047875Y+777240D02*
X+2047875Y+787400D01*
X+2047875Y+812800D02*
X+2047875Y+822960D01*
X+2047875Y+835660D02*
X+2047875Y+845820D01*
X+2047875Y+871220D02*
X+2047875Y+881380D01*
X+2047875Y+899160D02*
X+2047875Y+909320D01*
X+2047875Y+955040D02*
X+2047875Y+965200D01*
X+2050415Y+518160D02*
X+2050415Y+528320D01*
X+2050415Y+558800D02*
X+2050415Y+568960D01*
X+2050415Y+576580D02*
X+2050415Y+586740D01*
X+2050415Y+660400D02*
X+2050415Y+670560D01*
X+2050415Y+690880D02*
X+2050415Y+701040D01*
X+2050415Y+749300D02*
X+2050415Y+759460D01*
X+2050415Y+777240D02*
X+2050415Y+787400D01*
X+2050415Y+812800D02*
X+2050415Y+825500D01*
X+2050415Y+833120D02*
X+2050415Y+845820D01*
X+2050415Y+871220D02*
X+2050415Y+881380D01*
X+2050415Y+899160D02*
X+2050415Y+909320D01*
X+2050415Y+955040D02*
X+2050415Y+965200D01*
X+2052955Y+518160D02*
X+2052955Y+528320D01*
X+2052955Y+558800D02*
X+2052955Y+571500D01*
X+2052955Y+576580D02*
X+2052955Y+586740D01*
X+2052955Y+660400D02*
X+2052955Y+670560D01*
X+2052955Y+690880D02*
X+2052955Y+701040D01*
X+2052955Y+749300D02*
X+2052955Y+759460D01*
X+2052955Y+777240D02*
X+2052955Y+784860D01*
X+2052955Y+815340D02*
X+2052955Y+825500D01*
X+2052955Y+833120D02*
X+2052955Y+843280D01*
X+2052955Y+873760D02*
X+2052955Y+881380D01*
X+2052955Y+899160D02*
X+2052955Y+909320D01*
X+2052955Y+955040D02*
X+2052955Y+965200D01*
X+2055495Y+518160D02*
X+2055495Y+528320D01*
X+2055495Y+561340D02*
X+2055495Y+574040D01*
X+2055495Y+576580D02*
X+2055495Y+586740D01*
X+2055495Y+660400D02*
X+2055495Y+670560D01*
X+2055495Y+690880D02*
X+2055495Y+701040D01*
X+2055495Y+749300D02*
X+2055495Y+759460D01*
X+2055495Y+774700D02*
X+2055495Y+784860D01*
X+2055495Y+815340D02*
X+2055495Y+825500D01*
X+2055495Y+833120D02*
X+2055495Y+843280D01*
X+2055495Y+873760D02*
X+2055495Y+883920D01*
X+2055495Y+899160D02*
X+2055495Y+909320D01*
X+2055495Y+955040D02*
X+2055495Y+965200D01*
X+2058035Y+518160D02*
X+2058035Y+528320D01*
X+2058035Y+563880D02*
X+2058035Y+574040D01*
X+2058035Y+576580D02*
X+2058035Y+586740D01*
X+2058035Y+660400D02*
X+2058035Y+670560D01*
X+2058035Y+690880D02*
X+2058035Y+701040D01*
X+2058035Y+749300D02*
X+2058035Y+759460D01*
X+2058035Y+774700D02*
X+2058035Y+784860D01*
X+2058035Y+815340D02*
X+2058035Y+828040D01*
X+2058035Y+830580D02*
X+2058035Y+843280D01*
X+2058035Y+873760D02*
X+2058035Y+883920D01*
X+2058035Y+899160D02*
X+2058035Y+911860D01*
X+2058035Y+955040D02*
X+2058035Y+965200D01*
X+2060575Y+518160D02*
X+2060575Y+528320D01*
X+2060575Y+563880D02*
X+2060575Y+586740D01*
X+2060575Y+660400D02*
X+2060575Y+670560D01*
X+2060575Y+690880D02*
X+2060575Y+703580D01*
X+2060575Y+749300D02*
X+2060575Y+759460D01*
X+2060575Y+774700D02*
X+2060575Y+784860D01*
X+2060575Y+817880D02*
X+2060575Y+828040D01*
X+2060575Y+830580D02*
X+2060575Y+840740D01*
X+2060575Y+873760D02*
X+2060575Y+883920D01*
X+2060575Y+901700D02*
X+2060575Y+911860D01*
X+2060575Y+955040D02*
X+2060575Y+965200D01*
X+2063115Y+518160D02*
X+2063115Y+528320D01*
X+2063115Y+566420D02*
X+2063115Y+586740D01*
X+2063115Y+660400D02*
X+2063115Y+670560D01*
X+2063115Y+693420D02*
X+2063115Y+706120D01*
X+2063115Y+749300D02*
X+2063115Y+759460D01*
X+2063115Y+774700D02*
X+2063115Y+782320D01*
X+2063115Y+817880D02*
X+2063115Y+828040D01*
X+2063115Y+830580D02*
X+2063115Y+840740D01*
X+2063115Y+876300D02*
X+2063115Y+883920D01*
X+2063115Y+901700D02*
X+2063115Y+914400D01*
X+2063115Y+955040D02*
X+2063115Y+965200D01*
X+2065655Y+518160D02*
X+2065655Y+528320D01*
X+2065655Y+568960D02*
X+2065655Y+586740D01*
X+2065655Y+660400D02*
X+2065655Y+670560D01*
X+2065655Y+693420D02*
X+2065655Y+711200D01*
X+2065655Y+749300D02*
X+2065655Y+759460D01*
X+2065655Y+772160D02*
X+2065655Y+782320D01*
X+2065655Y+817880D02*
X+2065655Y+828040D01*
X+2065655Y+830580D02*
X+2065655Y+840740D01*
X+2065655Y+876300D02*
X+2065655Y+886460D01*
X+2065655Y+904240D02*
X+2065655Y+919480D01*
X+2065655Y+955040D02*
X+2065655Y+965200D01*
X+2068195Y+518160D02*
X+2068195Y+528320D01*
X+2068195Y+568960D02*
X+2068195Y+586740D01*
X+2068195Y+607060D02*
X+2068195Y+670560D01*
X+2068195Y+695960D02*
X+2068195Y+759460D01*
X+2068195Y+772160D02*
X+2068195Y+782320D01*
X+2068195Y+820420D02*
X+2068195Y+838200D01*
X+2068195Y+876300D02*
X+2068195Y+886460D01*
X+2068195Y+904240D02*
X+2068195Y+965200D01*
X+2070735Y+518160D02*
X+2070735Y+528320D01*
X+2070735Y+571500D02*
X+2070735Y+586740D01*
X+2070735Y+607060D02*
X+2070735Y+670560D01*
X+2070735Y+698500D02*
X+2070735Y+759460D01*
X+2070735Y+772160D02*
X+2070735Y+782320D01*
X+2070735Y+820420D02*
X+2070735Y+838200D01*
X+2070735Y+876300D02*
X+2070735Y+886460D01*
X+2070735Y+906780D02*
X+2070735Y+965200D01*
X+2073275Y+518160D02*
X+2073275Y+528320D01*
X+2073275Y+574040D02*
X+2073275Y+586740D01*
X+2073275Y+607060D02*
X+2073275Y+670560D01*
X+2073275Y+701040D02*
X+2073275Y+759460D01*
X+2073275Y+769620D02*
X+2073275Y+779780D01*
X+2073275Y+820420D02*
X+2073275Y+838200D01*
X+2073275Y+878840D02*
X+2073275Y+889000D01*
X+2073275Y+911860D02*
X+2073275Y+965200D01*
X+2075815Y+518160D02*
X+2075815Y+528320D01*
X+2075815Y+574040D02*
X+2075815Y+586740D01*
X+2075815Y+607060D02*
X+2075815Y+670560D01*
X+2075815Y+708660D02*
X+2075815Y+759460D01*
X+2075815Y+769620D02*
X+2075815Y+779780D01*
X+2075815Y+822960D02*
X+2075815Y+838200D01*
X+2075815Y+878840D02*
X+2075815Y+889000D01*
X+2075815Y+916940D02*
X+2075815Y+965200D01*
D24*
X+2108200Y+965200D02*
X+2108200Y+520700D01*
D28*
X+138219Y+1395519D02*
X+321099Y+1395519D01*
X+130599Y+1398059D02*
X+331259Y+1398059D01*
X+125519Y+1400599D02*
X+336339Y+1400599D01*
X+120439Y+1403139D02*
X+341419Y+1403139D01*
X+115359Y+1405679D02*
X+343959Y+1405679D01*
X+115359Y+1408219D02*
X+346499Y+1408219D01*
X+110279Y+1410759D02*
X+349039Y+1410759D01*
X+110279Y+1413299D02*
X+351579Y+1413299D01*
X+107739Y+1415839D02*
X+354119Y+1415839D01*
X+107739Y+1418379D02*
X+354119Y+1418379D01*
X+105199Y+1420919D02*
X+356659Y+1420919D01*
X+105199Y+1423459D02*
X+356659Y+1423459D01*
X+102659Y+1425999D02*
X+359199Y+1425999D01*
X+102659Y+1428539D02*
X+359199Y+1428539D01*
X+102659Y+1431079D02*
X+359199Y+1431079D01*
X+100119Y+1433619D02*
X+359199Y+1433619D01*
X+100119Y+1436159D02*
X+359199Y+1436159D01*
X+100119Y+1438699D02*
X+359199Y+1438699D01*
X+100119Y+1441239D02*
X+359199Y+1441239D01*
X+100119Y+1443779D02*
X+359199Y+1443779D01*
X+100119Y+1446319D02*
X+163619Y+1446319D01*
X+265219Y+1446319D02*
X+359199Y+1446319D01*
X+100119Y+1448859D02*
X+161079Y+1448859D01*
X+270299Y+1448859D02*
X+359199Y+1448859D01*
X+100119Y+1451399D02*
X+161079Y+1451399D01*
X+270299Y+1451399D02*
X+359199Y+1451399D01*
X+100119Y+1453939D02*
X+161079Y+1453939D01*
X+272839Y+1453939D02*
X+359199Y+1453939D01*
X+100119Y+1456479D02*
X+161079Y+1456479D01*
X+272839Y+1456479D02*
X+359199Y+1456479D01*
X+100119Y+1459019D02*
X+161079Y+1459019D01*
X+272839Y+1459019D02*
X+359199Y+1459019D01*
X+100119Y+1461559D02*
X+161079Y+1461559D01*
X+272839Y+1461559D02*
X+359199Y+1461559D01*
X+100119Y+1464099D02*
X+161079Y+1464099D01*
X+272839Y+1464099D02*
X+359199Y+1464099D01*
X+100119Y+1466639D02*
X+161079Y+1466639D01*
X+272839Y+1466639D02*
X+359199Y+1466639D01*
X+100119Y+1469179D02*
X+161079Y+1469179D01*
X+272839Y+1469179D02*
X+359199Y+1469179D01*
X+100119Y+1471719D02*
X+161079Y+1471719D01*
X+272839Y+1471719D02*
X+359199Y+1471719D01*
X+100119Y+1474259D02*
X+196639Y+1474259D01*
X+272839Y+1474259D02*
X+359199Y+1474259D01*
X+100119Y+1476799D02*
X+199179Y+1476799D01*
X+272839Y+1476799D02*
X+359199Y+1476799D01*
X+100119Y+1479339D02*
X+199179Y+1479339D01*
X+272839Y+1479339D02*
X+359199Y+1479339D01*
X+100119Y+1481879D02*
X+199179Y+1481879D01*
X+272839Y+1481879D02*
X+359199Y+1481879D01*
X+100119Y+1484419D02*
X+161079Y+1484419D01*
X+272839Y+1484419D02*
X+359199Y+1484419D01*
X+100119Y+1486959D02*
X+161079Y+1486959D01*
X+272839Y+1486959D02*
X+359199Y+1486959D01*
X+100119Y+1489499D02*
X+161079Y+1489499D01*
X+272839Y+1489499D02*
X+359199Y+1489499D01*
X+100119Y+1492039D02*
X+161079Y+1492039D01*
X+272839Y+1492039D02*
X+359199Y+1492039D01*
X+100119Y+1494579D02*
X+161079Y+1494579D01*
X+293159Y+1494579D02*
X+359199Y+1494579D01*
X+100119Y+1497119D02*
X+161079Y+1497119D01*
X+298239Y+1497119D02*
X+359199Y+1497119D01*
X+100119Y+1499659D02*
X+161079Y+1499659D01*
X+300779Y+1499659D02*
X+359199Y+1499659D01*
X+100119Y+1502199D02*
X+161079Y+1502199D01*
X+300779Y+1502199D02*
X+359199Y+1502199D01*
X+100119Y+1504739D02*
X+161079Y+1504739D01*
X+300779Y+1504739D02*
X+359199Y+1504739D01*
X+100119Y+1507279D02*
X+199179Y+1507279D01*
X+300779Y+1507279D02*
X+359199Y+1507279D01*
X+100119Y+1509819D02*
X+199179Y+1509819D01*
X+300779Y+1509819D02*
X+359199Y+1509819D01*
X+100119Y+1512359D02*
X+199179Y+1512359D01*
X+300779Y+1512359D02*
X+359199Y+1512359D01*
X+100119Y+1514899D02*
X+161079Y+1514899D01*
X+300779Y+1514899D02*
X+359199Y+1514899D01*
X+100119Y+1517439D02*
X+161079Y+1517439D01*
X+300779Y+1517439D02*
X+359199Y+1517439D01*
X+100119Y+1519979D02*
X+161079Y+1519979D01*
X+300779Y+1519979D02*
X+359199Y+1519979D01*
X+100119Y+1522519D02*
X+161079Y+1522519D01*
X+300779Y+1522519D02*
X+359199Y+1522519D01*
X+100119Y+1525059D02*
X+161079Y+1525059D01*
X+300779Y+1525059D02*
X+359199Y+1525059D01*
X+100119Y+1527599D02*
X+161079Y+1527599D01*
X+300779Y+1527599D02*
X+359199Y+1527599D01*
X+100119Y+1530139D02*
X+161079Y+1530139D01*
X+300779Y+1530139D02*
X+359199Y+1530139D01*
X+100119Y+1532679D02*
X+161079Y+1532679D01*
X+300779Y+1532679D02*
X+359199Y+1532679D01*
X+100119Y+1535219D02*
X+161079Y+1535219D01*
X+300779Y+1535219D02*
X+359199Y+1535219D01*
X+100119Y+1537759D02*
X+199179Y+1537759D01*
X+300779Y+1537759D02*
X+359199Y+1537759D01*
X+100119Y+1540299D02*
X+199179Y+1540299D01*
X+300779Y+1540299D02*
X+359199Y+1540299D01*
X+100119Y+1542839D02*
X+199179Y+1542839D01*
X+300779Y+1542839D02*
X+359199Y+1542839D01*
X+100119Y+1545379D02*
X+161079Y+1545379D01*
X+300779Y+1545379D02*
X+359199Y+1545379D01*
X+100119Y+1547919D02*
X+161079Y+1547919D01*
X+300779Y+1547919D02*
X+359199Y+1547919D01*
X+100119Y+1550459D02*
X+161079Y+1550459D01*
X+300779Y+1550459D02*
X+359199Y+1550459D01*
X+100119Y+1552999D02*
X+161079Y+1552999D01*
X+298239Y+1552999D02*
X+359199Y+1552999D01*
X+100119Y+1555539D02*
X+161079Y+1555539D01*
X+293159Y+1555539D02*
X+359199Y+1555539D01*
X+100119Y+1558079D02*
X+161079Y+1558079D01*
X+272839Y+1558079D02*
X+359199Y+1558079D01*
X+100119Y+1560619D02*
X+161079Y+1560619D01*
X+272839Y+1560619D02*
X+359199Y+1560619D01*
X+100119Y+1563159D02*
X+161079Y+1563159D01*
X+272839Y+1563159D02*
X+359199Y+1563159D01*
X+100119Y+1565699D02*
X+161079Y+1565699D01*
X+272839Y+1565699D02*
X+359199Y+1565699D01*
X+100119Y+1568239D02*
X+199179Y+1568239D01*
X+272839Y+1568239D02*
X+359199Y+1568239D01*
X+100119Y+1570779D02*
X+199179Y+1570779D01*
X+272839Y+1570779D02*
X+359199Y+1570779D01*
X+100119Y+1573319D02*
X+199179Y+1573319D01*
X+272839Y+1573319D02*
X+359199Y+1573319D01*
X+100119Y+1575859D02*
X+161079Y+1575859D01*
X+272839Y+1575859D02*
X+359199Y+1575859D01*
X+100119Y+1578399D02*
X+161079Y+1578399D01*
X+272839Y+1578399D02*
X+359199Y+1578399D01*
X+100119Y+1580939D02*
X+161079Y+1580939D01*
X+272839Y+1580939D02*
X+359199Y+1580939D01*
X+100119Y+1583479D02*
X+161079Y+1583479D01*
X+272839Y+1583479D02*
X+359199Y+1583479D01*
X+100119Y+1586019D02*
X+161079Y+1586019D01*
X+272839Y+1586019D02*
X+359199Y+1586019D01*
X+100119Y+1588559D02*
X+161079Y+1588559D01*
X+272839Y+1588559D02*
X+359199Y+1588559D01*
X+100119Y+1591099D02*
X+161079Y+1591099D01*
X+272839Y+1591099D02*
X+359199Y+1591099D01*
X+100119Y+1593639D02*
X+161079Y+1593639D01*
X+272839Y+1593639D02*
X+359199Y+1593639D01*
X+100119Y+1596179D02*
X+161079Y+1596179D01*
X+272839Y+1596179D02*
X+359199Y+1596179D01*
X+100119Y+1598719D02*
X+161079Y+1598719D01*
X+270299Y+1598719D02*
X+359199Y+1598719D01*
X+100119Y+1601259D02*
X+163619Y+1601259D01*
X+267759Y+1601259D02*
X+359199Y+1601259D01*
X+100119Y+1603799D02*
X+163619Y+1603799D01*
X+265219Y+1603799D02*
X+359199Y+1603799D01*
X+100119Y+1606339D02*
X+359199Y+1606339D01*
X+100119Y+1608879D02*
X+359199Y+1608879D01*
X+100119Y+1611419D02*
X+359199Y+1611419D01*
X+100119Y+1613959D02*
X+359199Y+1613959D01*
X+102659Y+1616499D02*
X+359199Y+1616499D01*
X+102659Y+1619039D02*
X+359199Y+1619039D01*
X+102659Y+1621579D02*
X+359199Y+1621579D01*
X+102659Y+1624119D02*
X+359199Y+1624119D01*
X+105199Y+1626659D02*
X+356659Y+1626659D01*
X+105199Y+1629199D02*
X+354119Y+1629199D01*
X+107739Y+1631739D02*
X+354119Y+1631739D01*
X+107739Y+1634279D02*
X+351579Y+1634279D01*
X+110279Y+1636819D02*
X+351579Y+1636819D01*
X+112819Y+1639359D02*
X+349039Y+1639359D01*
X+115359Y+1641899D02*
X+346499Y+1641899D01*
X+117899Y+1644439D02*
X+343959Y+1644439D01*
X+120439Y+1646979D02*
X+338879Y+1646979D01*
X+125519Y+1649519D02*
X+333799Y+1649519D01*
X+130599Y+1652059D02*
X+331259Y+1652059D01*
X+4145280Y+2379684D02*
X+4145280Y+2407624D01*
X+4147820Y+1879304D02*
X+4147820Y+1942804D01*
X+4147820Y+1960584D02*
X+4147820Y+2044404D01*
X+4147820Y+2064724D02*
X+4147820Y+2156164D01*
X+4147820Y+2179024D02*
X+4147820Y+2201884D01*
X+4147820Y+2227284D02*
X+4147820Y+2250144D01*
X+4147820Y+2300944D02*
X+4147820Y+2323804D01*
X+4147820Y+2369524D02*
X+4147820Y+2417784D01*
X+4147820Y+2532084D02*
X+4147820Y+2554944D01*
X+4147820Y+2603204D02*
X+4147820Y+2694644D01*
X+4147820Y+2720044D02*
X+4147820Y+2745444D01*
X+4147820Y+2793704D02*
X+4147820Y+2816564D01*
X+4147820Y+2829264D02*
X+4147820Y+2857204D01*
X+4147820Y+2915624D02*
X+4147820Y+2938484D01*
X+4147820Y+2958804D02*
X+4147820Y+3050244D01*
X+4147820Y+3075644D02*
X+4147820Y+3098504D01*
X+4147820Y+3149304D02*
X+4147820Y+3172164D01*
X+4147820Y+3222964D02*
X+4147820Y+3245824D01*
X+4147820Y+3294084D02*
X+4147820Y+3385524D01*
X+4150360Y+1871684D02*
X+4150360Y+1942804D01*
X+4150360Y+1960584D02*
X+4150360Y+2044404D01*
X+4150360Y+2064724D02*
X+4150360Y+2156164D01*
X+4150360Y+2179024D02*
X+4150360Y+2201884D01*
X+4150360Y+2227284D02*
X+4150360Y+2250144D01*
X+4150360Y+2300944D02*
X+4150360Y+2323804D01*
X+4150360Y+2364444D02*
X+4150360Y+2422864D01*
X+4150360Y+2532084D02*
X+4150360Y+2554944D01*
X+4150360Y+2603204D02*
X+4150360Y+2694644D01*
X+4150360Y+2720044D02*
X+4150360Y+2747984D01*
X+4150360Y+2793704D02*
X+4150360Y+2816564D01*
X+4150360Y+2831804D02*
X+4150360Y+2857204D01*
X+4150360Y+2915624D02*
X+4150360Y+2938484D01*
X+4150360Y+2958804D02*
X+4150360Y+3050244D01*
X+4150360Y+3075644D02*
X+4150360Y+3098504D01*
X+4150360Y+3149304D02*
X+4150360Y+3172164D01*
X+4150360Y+3222964D02*
X+4150360Y+3245824D01*
X+4150360Y+3294084D02*
X+4150360Y+3385524D01*
X+4152900Y+1866604D02*
X+4152900Y+1942804D01*
X+4152900Y+1960584D02*
X+4152900Y+2044404D01*
X+4152900Y+2064724D02*
X+4152900Y+2156164D01*
X+4152900Y+2179024D02*
X+4152900Y+2201884D01*
X+4152900Y+2227284D02*
X+4152900Y+2250144D01*
X+4152900Y+2300944D02*
X+4152900Y+2323804D01*
X+4152900Y+2361904D02*
X+4152900Y+2427944D01*
X+4152900Y+2532084D02*
X+4152900Y+2554944D01*
X+4152900Y+2603204D02*
X+4152900Y+2694644D01*
X+4152900Y+2720044D02*
X+4152900Y+2747984D01*
X+4152900Y+2793704D02*
X+4152900Y+2816564D01*
X+4152900Y+2834344D02*
X+4152900Y+2859744D01*
X+4152900Y+2915624D02*
X+4152900Y+2938484D01*
X+4152900Y+2958804D02*
X+4152900Y+3050244D01*
X+4152900Y+3075644D02*
X+4152900Y+3098504D01*
X+4152900Y+3149304D02*
X+4152900Y+3172164D01*
X+4152900Y+3222964D02*
X+4152900Y+3245824D01*
X+4152900Y+3294084D02*
X+4152900Y+3385524D01*
X+4155440Y+1861524D02*
X+4155440Y+1942804D01*
X+4155440Y+1960584D02*
X+4155440Y+2044404D01*
X+4155440Y+2064724D02*
X+4155440Y+2156164D01*
X+4155440Y+2179024D02*
X+4155440Y+2201884D01*
X+4155440Y+2227284D02*
X+4155440Y+2250144D01*
X+4155440Y+2300944D02*
X+4155440Y+2323804D01*
X+4155440Y+2356824D02*
X+4155440Y+2430484D01*
X+4155440Y+2532084D02*
X+4155440Y+2554944D01*
X+4155440Y+2603204D02*
X+4155440Y+2694644D01*
X+4155440Y+2720044D02*
X+4155440Y+2750524D01*
X+4155440Y+2793704D02*
X+4155440Y+2816564D01*
X+4155440Y+2834344D02*
X+4155440Y+2862284D01*
X+4155440Y+2915624D02*
X+4155440Y+2938484D01*
X+4155440Y+2958804D02*
X+4155440Y+3050244D01*
X+4155440Y+3075644D02*
X+4155440Y+3098504D01*
X+4155440Y+3149304D02*
X+4155440Y+3172164D01*
X+4155440Y+3222964D02*
X+4155440Y+3245824D01*
X+4155440Y+3294084D02*
X+4155440Y+3385524D01*
X+4157980Y+1858984D02*
X+4157980Y+1942804D01*
X+4157980Y+1960584D02*
X+4157980Y+2044404D01*
X+4157980Y+2064724D02*
X+4157980Y+2156164D01*
X+4157980Y+2179024D02*
X+4157980Y+2201884D01*
X+4157980Y+2227284D02*
X+4157980Y+2250144D01*
X+4157980Y+2300944D02*
X+4157980Y+2323804D01*
X+4157980Y+2354284D02*
X+4157980Y+2433024D01*
X+4157980Y+2532084D02*
X+4157980Y+2554944D01*
X+4157980Y+2603204D02*
X+4157980Y+2694644D01*
X+4157980Y+2720044D02*
X+4157980Y+2750524D01*
X+4157980Y+2793704D02*
X+4157980Y+2816564D01*
X+4157980Y+2836884D02*
X+4157980Y+2862284D01*
X+4157980Y+2915624D02*
X+4157980Y+2938484D01*
X+4157980Y+2958804D02*
X+4157980Y+3050244D01*
X+4157980Y+3075644D02*
X+4157980Y+3098504D01*
X+4157980Y+3149304D02*
X+4157980Y+3172164D01*
X+4157980Y+3222964D02*
X+4157980Y+3245824D01*
X+4157980Y+3294084D02*
X+4157980Y+3385524D01*
X+4160520Y+1856444D02*
X+4160520Y+1942804D01*
X+4160520Y+1960584D02*
X+4160520Y+2044404D01*
X+4160520Y+2064724D02*
X+4160520Y+2156164D01*
X+4160520Y+2179024D02*
X+4160520Y+2201884D01*
X+4160520Y+2227284D02*
X+4160520Y+2250144D01*
X+4160520Y+2300944D02*
X+4160520Y+2323804D01*
X+4160520Y+2354284D02*
X+4160520Y+2435564D01*
X+4160520Y+2532084D02*
X+4160520Y+2554944D01*
X+4160520Y+2603204D02*
X+4160520Y+2694644D01*
X+4160520Y+2720044D02*
X+4160520Y+2753064D01*
X+4160520Y+2793704D02*
X+4160520Y+2816564D01*
X+4160520Y+2836884D02*
X+4160520Y+2864824D01*
X+4160520Y+2915624D02*
X+4160520Y+2938484D01*
X+4160520Y+2958804D02*
X+4160520Y+3050244D01*
X+4160520Y+3075644D02*
X+4160520Y+3098504D01*
X+4160520Y+3149304D02*
X+4160520Y+3172164D01*
X+4160520Y+3222964D02*
X+4160520Y+3245824D01*
X+4160520Y+3294084D02*
X+4160520Y+3385524D01*
X+4163060Y+1853904D02*
X+4163060Y+1942804D01*
X+4163060Y+1960584D02*
X+4163060Y+2044404D01*
X+4163060Y+2064724D02*
X+4163060Y+2156164D01*
X+4163060Y+2179024D02*
X+4163060Y+2201884D01*
X+4163060Y+2227284D02*
X+4163060Y+2250144D01*
X+4163060Y+2300944D02*
X+4163060Y+2323804D01*
X+4163060Y+2351744D02*
X+4163060Y+2435564D01*
X+4163060Y+2532084D02*
X+4163060Y+2554944D01*
X+4163060Y+2603204D02*
X+4163060Y+2694644D01*
X+4163060Y+2720044D02*
X+4163060Y+2755604D01*
X+4163060Y+2793704D02*
X+4163060Y+2816564D01*
X+4163060Y+2839424D02*
X+4163060Y+2867364D01*
X+4163060Y+2915624D02*
X+4163060Y+2938484D01*
X+4163060Y+2958804D02*
X+4163060Y+3050244D01*
X+4163060Y+3075644D02*
X+4163060Y+3098504D01*
X+4163060Y+3149304D02*
X+4163060Y+3172164D01*
X+4163060Y+3222964D02*
X+4163060Y+3245824D01*
X+4163060Y+3294084D02*
X+4163060Y+3385524D01*
X+4165600Y+1851364D02*
X+4165600Y+1942804D01*
X+4165600Y+1960584D02*
X+4165600Y+2044404D01*
X+4165600Y+2064724D02*
X+4165600Y+2156164D01*
X+4165600Y+2179024D02*
X+4165600Y+2201884D01*
X+4165600Y+2227284D02*
X+4165600Y+2250144D01*
X+4165600Y+2300944D02*
X+4165600Y+2323804D01*
X+4165600Y+2349204D02*
X+4165600Y+2382224D01*
X+4165600Y+2402544D02*
X+4165600Y+2438104D01*
X+4165600Y+2532084D02*
X+4165600Y+2554944D01*
X+4165600Y+2603204D02*
X+4165600Y+2694644D01*
X+4165600Y+2720044D02*
X+4165600Y+2755604D01*
X+4165600Y+2793704D02*
X+4165600Y+2816564D01*
X+4165600Y+2841964D02*
X+4165600Y+2867364D01*
X+4165600Y+2915624D02*
X+4165600Y+2938484D01*
X+4165600Y+2958804D02*
X+4165600Y+3050244D01*
X+4165600Y+3075644D02*
X+4165600Y+3098504D01*
X+4165600Y+3149304D02*
X+4165600Y+3172164D01*
X+4165600Y+3222964D02*
X+4165600Y+3245824D01*
X+4165600Y+3294084D02*
X+4165600Y+3385524D01*
X+4168140Y+1851364D02*
X+4168140Y+1884384D01*
X+4168140Y+1919944D02*
X+4168140Y+1942804D01*
X+4168140Y+2021544D02*
X+4168140Y+2044404D01*
X+4168140Y+2133304D02*
X+4168140Y+2156164D01*
X+4168140Y+2179024D02*
X+4168140Y+2201884D01*
X+4168140Y+2227284D02*
X+4168140Y+2250144D01*
X+4168140Y+2300944D02*
X+4168140Y+2323804D01*
X+4168140Y+2349204D02*
X+4168140Y+2377144D01*
X+4168140Y+2410164D02*
X+4168140Y+2438104D01*
X+4168140Y+2532084D02*
X+4168140Y+2554944D01*
X+4168140Y+2671784D02*
X+4168140Y+2694644D01*
X+4168140Y+2720044D02*
X+4168140Y+2758144D01*
X+4168140Y+2793704D02*
X+4168140Y+2816564D01*
X+4168140Y+2841964D02*
X+4168140Y+2869904D01*
X+4168140Y+2915624D02*
X+4168140Y+2938484D01*
X+4168140Y+3027384D02*
X+4168140Y+3050244D01*
X+4168140Y+3075644D02*
X+4168140Y+3098504D01*
X+4168140Y+3149304D02*
X+4168140Y+3172164D01*
X+4168140Y+3222964D02*
X+4168140Y+3245824D01*
X+4168140Y+3362664D02*
X+4168140Y+3385524D01*
X+4170680Y+1848824D02*
X+4170680Y+1876764D01*
X+4170680Y+1919944D02*
X+4170680Y+1942804D01*
X+4170680Y+2021544D02*
X+4170680Y+2044404D01*
X+4170680Y+2133304D02*
X+4170680Y+2156164D01*
X+4170680Y+2179024D02*
X+4170680Y+2201884D01*
X+4170680Y+2227284D02*
X+4170680Y+2250144D01*
X+4170680Y+2300944D02*
X+4170680Y+2323804D01*
X+4170680Y+2349204D02*
X+4170680Y+2374604D01*
X+4170680Y+2412704D02*
X+4170680Y+2440644D01*
X+4170680Y+2532084D02*
X+4170680Y+2554944D01*
X+4170680Y+2671784D02*
X+4170680Y+2694644D01*
X+4170680Y+2720044D02*
X+4170680Y+2758144D01*
X+4170680Y+2793704D02*
X+4170680Y+2816564D01*
X+4170680Y+2844504D02*
X+4170680Y+2872444D01*
X+4170680Y+2915624D02*
X+4170680Y+2938484D01*
X+4170680Y+3027384D02*
X+4170680Y+3050244D01*
X+4170680Y+3075644D02*
X+4170680Y+3098504D01*
X+4170680Y+3149304D02*
X+4170680Y+3172164D01*
X+4170680Y+3222964D02*
X+4170680Y+3245824D01*
X+4170680Y+3362664D02*
X+4170680Y+3385524D01*
X+4173220Y+1848824D02*
X+4173220Y+1874224D01*
X+4173220Y+1919944D02*
X+4173220Y+1942804D01*
X+4173220Y+2021544D02*
X+4173220Y+2044404D01*
X+4173220Y+2133304D02*
X+4173220Y+2156164D01*
X+4173220Y+2179024D02*
X+4173220Y+2201884D01*
X+4173220Y+2227284D02*
X+4173220Y+2250144D01*
X+4173220Y+2300944D02*
X+4173220Y+2323804D01*
X+4173220Y+2346664D02*
X+4173220Y+2372064D01*
X+4173220Y+2415244D02*
X+4173220Y+2440644D01*
X+4173220Y+2532084D02*
X+4173220Y+2554944D01*
X+4173220Y+2671784D02*
X+4173220Y+2694644D01*
X+4173220Y+2720044D02*
X+4173220Y+2760684D01*
X+4173220Y+2793704D02*
X+4173220Y+2816564D01*
X+4173220Y+2847044D02*
X+4173220Y+2872444D01*
X+4173220Y+2915624D02*
X+4173220Y+2938484D01*
X+4173220Y+3027384D02*
X+4173220Y+3050244D01*
X+4173220Y+3075644D02*
X+4173220Y+3098504D01*
X+4173220Y+3149304D02*
X+4173220Y+3172164D01*
X+4173220Y+3222964D02*
X+4173220Y+3245824D01*
X+4173220Y+3362664D02*
X+4173220Y+3385524D01*
X+4175760Y+1846284D02*
X+4175760Y+1871684D01*
X+4175760Y+1919944D02*
X+4175760Y+1942804D01*
X+4175760Y+2021544D02*
X+4175760Y+2044404D01*
X+4175760Y+2133304D02*
X+4175760Y+2156164D01*
X+4175760Y+2179024D02*
X+4175760Y+2201884D01*
X+4175760Y+2227284D02*
X+4175760Y+2250144D01*
X+4175760Y+2300944D02*
X+4175760Y+2323804D01*
X+4175760Y+2346664D02*
X+4175760Y+2369524D01*
X+4175760Y+2415244D02*
X+4175760Y+2440644D01*
X+4175760Y+2532084D02*
X+4175760Y+2554944D01*
X+4175760Y+2671784D02*
X+4175760Y+2694644D01*
X+4175760Y+2720044D02*
X+4175760Y+2763224D01*
X+4175760Y+2793704D02*
X+4175760Y+2816564D01*
X+4175760Y+2847044D02*
X+4175760Y+2874984D01*
X+4175760Y+2915624D02*
X+4175760Y+2938484D01*
X+4175760Y+3027384D02*
X+4175760Y+3050244D01*
X+4175760Y+3075644D02*
X+4175760Y+3098504D01*
X+4175760Y+3149304D02*
X+4175760Y+3172164D01*
X+4175760Y+3222964D02*
X+4175760Y+3245824D01*
X+4175760Y+3362664D02*
X+4175760Y+3385524D01*
X+4178300Y+1846284D02*
X+4178300Y+1869144D01*
X+4178300Y+1919944D02*
X+4178300Y+1942804D01*
X+4178300Y+2021544D02*
X+4178300Y+2044404D01*
X+4178300Y+2133304D02*
X+4178300Y+2156164D01*
X+4178300Y+2179024D02*
X+4178300Y+2201884D01*
X+4178300Y+2227284D02*
X+4178300Y+2250144D01*
X+4178300Y+2300944D02*
X+4178300Y+2323804D01*
X+4178300Y+2346664D02*
X+4178300Y+2369524D01*
X+4178300Y+2417784D02*
X+4178300Y+2443184D01*
X+4178300Y+2532084D02*
X+4178300Y+2554944D01*
X+4178300Y+2671784D02*
X+4178300Y+2694644D01*
X+4178300Y+2720044D02*
X+4178300Y+2763224D01*
X+4178300Y+2793704D02*
X+4178300Y+2816564D01*
X+4178300Y+2849584D02*
X+4178300Y+2877524D01*
X+4178300Y+2915624D02*
X+4178300Y+2938484D01*
X+4178300Y+3027384D02*
X+4178300Y+3050244D01*
X+4178300Y+3075644D02*
X+4178300Y+3098504D01*
X+4178300Y+3149304D02*
X+4178300Y+3172164D01*
X+4178300Y+3222964D02*
X+4178300Y+3245824D01*
X+4178300Y+3362664D02*
X+4178300Y+3385524D01*
X+4180840Y+1843744D02*
X+4180840Y+1869144D01*
X+4180840Y+1919944D02*
X+4180840Y+1942804D01*
X+4180840Y+2021544D02*
X+4180840Y+2044404D01*
X+4180840Y+2133304D02*
X+4180840Y+2156164D01*
X+4180840Y+2179024D02*
X+4180840Y+2201884D01*
X+4180840Y+2227284D02*
X+4180840Y+2250144D01*
X+4180840Y+2300944D02*
X+4180840Y+2323804D01*
X+4180840Y+2346664D02*
X+4180840Y+2369524D01*
X+4180840Y+2417784D02*
X+4180840Y+2443184D01*
X+4180840Y+2532084D02*
X+4180840Y+2554944D01*
X+4180840Y+2671784D02*
X+4180840Y+2694644D01*
X+4180840Y+2720044D02*
X+4180840Y+2765764D01*
X+4180840Y+2793704D02*
X+4180840Y+2816564D01*
X+4180840Y+2849584D02*
X+4180840Y+2880064D01*
X+4180840Y+2915624D02*
X+4180840Y+2938484D01*
X+4180840Y+3027384D02*
X+4180840Y+3050244D01*
X+4180840Y+3075644D02*
X+4180840Y+3098504D01*
X+4180840Y+3149304D02*
X+4180840Y+3172164D01*
X+4180840Y+3222964D02*
X+4180840Y+3245824D01*
X+4180840Y+3362664D02*
X+4180840Y+3385524D01*
X+4183380Y+1843744D02*
X+4183380Y+1866604D01*
X+4183380Y+1919944D02*
X+4183380Y+1942804D01*
X+4183380Y+2021544D02*
X+4183380Y+2044404D01*
X+4183380Y+2133304D02*
X+4183380Y+2156164D01*
X+4183380Y+2179024D02*
X+4183380Y+2201884D01*
X+4183380Y+2227284D02*
X+4183380Y+2250144D01*
X+4183380Y+2300944D02*
X+4183380Y+2323804D01*
X+4183380Y+2346664D02*
X+4183380Y+2369524D01*
X+4183380Y+2420324D02*
X+4183380Y+2443184D01*
X+4183380Y+2532084D02*
X+4183380Y+2554944D01*
X+4183380Y+2671784D02*
X+4183380Y+2694644D01*
X+4183380Y+2720044D02*
X+4183380Y+2768304D01*
X+4183380Y+2793704D02*
X+4183380Y+2816564D01*
X+4183380Y+2852124D02*
X+4183380Y+2880064D01*
X+4183380Y+2915624D02*
X+4183380Y+2938484D01*
X+4183380Y+3027384D02*
X+4183380Y+3050244D01*
X+4183380Y+3075644D02*
X+4183380Y+3098504D01*
X+4183380Y+3149304D02*
X+4183380Y+3172164D01*
X+4183380Y+3222964D02*
X+4183380Y+3245824D01*
X+4183380Y+3362664D02*
X+4183380Y+3385524D01*
X+4185920Y+1843744D02*
X+4185920Y+1866604D01*
X+4185920Y+1919944D02*
X+4185920Y+1942804D01*
X+4185920Y+2021544D02*
X+4185920Y+2044404D01*
X+4185920Y+2133304D02*
X+4185920Y+2156164D01*
X+4185920Y+2179024D02*
X+4185920Y+2201884D01*
X+4185920Y+2227284D02*
X+4185920Y+2250144D01*
X+4185920Y+2300944D02*
X+4185920Y+2323804D01*
X+4185920Y+2346664D02*
X+4185920Y+2369524D01*
X+4185920Y+2420324D02*
X+4185920Y+2430484D01*
X+4185920Y+2532084D02*
X+4185920Y+2554944D01*
X+4185920Y+2671784D02*
X+4185920Y+2694644D01*
X+4185920Y+2720044D02*
X+4185920Y+2768304D01*
X+4185920Y+2793704D02*
X+4185920Y+2816564D01*
X+4185920Y+2854664D02*
X+4185920Y+2882604D01*
X+4185920Y+2915624D02*
X+4185920Y+2938484D01*
X+4185920Y+3027384D02*
X+4185920Y+3050244D01*
X+4185920Y+3075644D02*
X+4185920Y+3098504D01*
X+4185920Y+3149304D02*
X+4185920Y+3172164D01*
X+4185920Y+3222964D02*
X+4185920Y+3245824D01*
X+4185920Y+3362664D02*
X+4185920Y+3385524D01*
X+4188460Y+1843744D02*
X+4188460Y+1866604D01*
X+4188460Y+1919944D02*
X+4188460Y+1942804D01*
X+4188460Y+2021544D02*
X+4188460Y+2044404D01*
X+4188460Y+2133304D02*
X+4188460Y+2156164D01*
X+4188460Y+2179024D02*
X+4188460Y+2201884D01*
X+4188460Y+2227284D02*
X+4188460Y+2250144D01*
X+4188460Y+2300944D02*
X+4188460Y+2323804D01*
X+4188460Y+2346664D02*
X+4188460Y+2372064D01*
X+4188460Y+2532084D02*
X+4188460Y+2554944D01*
X+4188460Y+2671784D02*
X+4188460Y+2694644D01*
X+4188460Y+2720044D02*
X+4188460Y+2770844D01*
X+4188460Y+2793704D02*
X+4188460Y+2816564D01*
X+4188460Y+2854664D02*
X+4188460Y+2885144D01*
X+4188460Y+2915624D02*
X+4188460Y+2938484D01*
X+4188460Y+3027384D02*
X+4188460Y+3050244D01*
X+4188460Y+3075644D02*
X+4188460Y+3098504D01*
X+4188460Y+3149304D02*
X+4188460Y+3172164D01*
X+4188460Y+3222964D02*
X+4188460Y+3245824D01*
X+4188460Y+3362664D02*
X+4188460Y+3385524D01*
X+4191000Y+1841204D02*
X+4191000Y+1864064D01*
X+4191000Y+1919944D02*
X+4191000Y+1942804D01*
X+4191000Y+2021544D02*
X+4191000Y+2044404D01*
X+4191000Y+2133304D02*
X+4191000Y+2156164D01*
X+4191000Y+2179024D02*
X+4191000Y+2201884D01*
X+4191000Y+2227284D02*
X+4191000Y+2250144D01*
X+4191000Y+2300944D02*
X+4191000Y+2323804D01*
X+4191000Y+2346664D02*
X+4191000Y+2374604D01*
X+4191000Y+2532084D02*
X+4191000Y+2554944D01*
X+4191000Y+2671784D02*
X+4191000Y+2694644D01*
X+4191000Y+2720044D02*
X+4191000Y+2742904D01*
X+4191000Y+2745444D02*
X+4191000Y+2770844D01*
X+4191000Y+2793704D02*
X+4191000Y+2816564D01*
X+4191000Y+2857204D02*
X+4191000Y+2887684D01*
X+4191000Y+2915624D02*
X+4191000Y+2938484D01*
X+4191000Y+3027384D02*
X+4191000Y+3050244D01*
X+4191000Y+3075644D02*
X+4191000Y+3098504D01*
X+4191000Y+3149304D02*
X+4191000Y+3172164D01*
X+4191000Y+3222964D02*
X+4191000Y+3245824D01*
X+4191000Y+3362664D02*
X+4191000Y+3385524D01*
X+4193540Y+1841204D02*
X+4193540Y+1864064D01*
X+4193540Y+1919944D02*
X+4193540Y+1942804D01*
X+4193540Y+2021544D02*
X+4193540Y+2044404D01*
X+4193540Y+2133304D02*
X+4193540Y+2156164D01*
X+4193540Y+2179024D02*
X+4193540Y+2201884D01*
X+4193540Y+2227284D02*
X+4193540Y+2250144D01*
X+4193540Y+2300944D02*
X+4193540Y+2323804D01*
X+4193540Y+2349204D02*
X+4193540Y+2379684D01*
X+4193540Y+2532084D02*
X+4193540Y+2554944D01*
X+4193540Y+2671784D02*
X+4193540Y+2694644D01*
X+4193540Y+2720044D02*
X+4193540Y+2742904D01*
X+4193540Y+2747984D02*
X+4193540Y+2773384D01*
X+4193540Y+2793704D02*
X+4193540Y+2816564D01*
X+4193540Y+2859744D02*
X+4193540Y+2890224D01*
X+4193540Y+2915624D02*
X+4193540Y+2938484D01*
X+4193540Y+3027384D02*
X+4193540Y+3050244D01*
X+4193540Y+3075644D02*
X+4193540Y+3098504D01*
X+4193540Y+3149304D02*
X+4193540Y+3172164D01*
X+4193540Y+3222964D02*
X+4193540Y+3245824D01*
X+4193540Y+3362664D02*
X+4193540Y+3385524D01*
X+4196080Y+1841204D02*
X+4196080Y+1864064D01*
X+4196080Y+1919944D02*
X+4196080Y+1942804D01*
X+4196080Y+2021544D02*
X+4196080Y+2044404D01*
X+4196080Y+2133304D02*
X+4196080Y+2156164D01*
X+4196080Y+2179024D02*
X+4196080Y+2201884D01*
X+4196080Y+2227284D02*
X+4196080Y+2250144D01*
X+4196080Y+2300944D02*
X+4196080Y+2323804D01*
X+4196080Y+2349204D02*
X+4196080Y+2389844D01*
X+4196080Y+2532084D02*
X+4196080Y+2554944D01*
X+4196080Y+2671784D02*
X+4196080Y+2694644D01*
X+4196080Y+2720044D02*
X+4196080Y+2742904D01*
X+4196080Y+2747984D02*
X+4196080Y+2775924D01*
X+4196080Y+2793704D02*
X+4196080Y+2816564D01*
X+4196080Y+2862284D02*
X+4196080Y+2895304D01*
X+4196080Y+2915624D02*
X+4196080Y+2938484D01*
X+4196080Y+3027384D02*
X+4196080Y+3050244D01*
X+4196080Y+3075644D02*
X+4196080Y+3098504D01*
X+4196080Y+3149304D02*
X+4196080Y+3172164D01*
X+4196080Y+3222964D02*
X+4196080Y+3245824D01*
X+4196080Y+3362664D02*
X+4196080Y+3385524D01*
X+4198620Y+1841204D02*
X+4198620Y+1864064D01*
X+4198620Y+1919944D02*
X+4198620Y+1942804D01*
X+4198620Y+2021544D02*
X+4198620Y+2044404D01*
X+4198620Y+2133304D02*
X+4198620Y+2156164D01*
X+4198620Y+2179024D02*
X+4198620Y+2201884D01*
X+4198620Y+2227284D02*
X+4198620Y+2250144D01*
X+4198620Y+2300944D02*
X+4198620Y+2323804D01*
X+4198620Y+2349204D02*
X+4198620Y+2397464D01*
X+4198620Y+2532084D02*
X+4198620Y+2554944D01*
X+4198620Y+2671784D02*
X+4198620Y+2694644D01*
X+4198620Y+2720044D02*
X+4198620Y+2742904D01*
X+4198620Y+2750524D02*
X+4198620Y+2775924D01*
X+4198620Y+2793704D02*
X+4198620Y+2816564D01*
X+4198620Y+2867364D02*
X+4198620Y+2938484D01*
X+4198620Y+3027384D02*
X+4198620Y+3050244D01*
X+4198620Y+3075644D02*
X+4198620Y+3098504D01*
X+4198620Y+3149304D02*
X+4198620Y+3172164D01*
X+4198620Y+3222964D02*
X+4198620Y+3245824D01*
X+4198620Y+3362664D02*
X+4198620Y+3385524D01*
X+4201160Y+1841204D02*
X+4201160Y+1864064D01*
X+4201160Y+1919944D02*
X+4201160Y+1942804D01*
X+4201160Y+2021544D02*
X+4201160Y+2044404D01*
X+4201160Y+2072344D02*
X+4201160Y+2156164D01*
X+4201160Y+2179024D02*
X+4201160Y+2201884D01*
X+4201160Y+2227284D02*
X+4201160Y+2323804D01*
X+4201160Y+2351744D02*
X+4201160Y+2407624D01*
X+4201160Y+2532084D02*
X+4201160Y+2554944D01*
X+4201160Y+2610824D02*
X+4201160Y+2694644D01*
X+4201160Y+2720044D02*
X+4201160Y+2742904D01*
X+4201160Y+2753064D02*
X+4201160Y+2778464D01*
X+4201160Y+2793704D02*
X+4201160Y+2816564D01*
X+4201160Y+2864824D02*
X+4201160Y+2938484D01*
X+4201160Y+2966424D02*
X+4201160Y+3050244D01*
X+4201160Y+3075644D02*
X+4201160Y+3172164D01*
X+4201160Y+3222964D02*
X+4201160Y+3245824D01*
X+4201160Y+3301704D02*
X+4201160Y+3385524D01*
X+4203700Y+1841204D02*
X+4203700Y+1864064D01*
X+4203700Y+1919944D02*
X+4203700Y+1942804D01*
X+4203700Y+2021544D02*
X+4203700Y+2044404D01*
X+4203700Y+2072344D02*
X+4203700Y+2156164D01*
X+4203700Y+2179024D02*
X+4203700Y+2201884D01*
X+4203700Y+2227284D02*
X+4203700Y+2323804D01*
X+4203700Y+2351744D02*
X+4203700Y+2415244D01*
X+4203700Y+2532084D02*
X+4203700Y+2554944D01*
X+4203700Y+2610824D02*
X+4203700Y+2694644D01*
X+4203700Y+2720044D02*
X+4203700Y+2742904D01*
X+4203700Y+2753064D02*
X+4203700Y+2778464D01*
X+4203700Y+2793704D02*
X+4203700Y+2816564D01*
X+4203700Y+2857204D02*
X+4203700Y+2938484D01*
X+4203700Y+2966424D02*
X+4203700Y+3050244D01*
X+4203700Y+3075644D02*
X+4203700Y+3172164D01*
X+4203700Y+3222964D02*
X+4203700Y+3245824D01*
X+4203700Y+3301704D02*
X+4203700Y+3385524D01*
X+4206240Y+1841204D02*
X+4206240Y+1864064D01*
X+4206240Y+1919944D02*
X+4206240Y+1942804D01*
X+4206240Y+2021544D02*
X+4206240Y+2044404D01*
X+4206240Y+2072344D02*
X+4206240Y+2156164D01*
X+4206240Y+2179024D02*
X+4206240Y+2201884D01*
X+4206240Y+2227284D02*
X+4206240Y+2323804D01*
X+4206240Y+2354284D02*
X+4206240Y+2420324D01*
X+4206240Y+2532084D02*
X+4206240Y+2554944D01*
X+4206240Y+2610824D02*
X+4206240Y+2694644D01*
X+4206240Y+2720044D02*
X+4206240Y+2742904D01*
X+4206240Y+2755604D02*
X+4206240Y+2781004D01*
X+4206240Y+2793704D02*
X+4206240Y+2816564D01*
X+4206240Y+2852124D02*
X+4206240Y+2938484D01*
X+4206240Y+2966424D02*
X+4206240Y+3050244D01*
X+4206240Y+3075644D02*
X+4206240Y+3172164D01*
X+4206240Y+3222964D02*
X+4206240Y+3245824D01*
X+4206240Y+3301704D02*
X+4206240Y+3385524D01*
X+4208780Y+1841204D02*
X+4208780Y+1864064D01*
X+4208780Y+1919944D02*
X+4208780Y+1942804D01*
X+4208780Y+2021544D02*
X+4208780Y+2044404D01*
X+4208780Y+2072344D02*
X+4208780Y+2156164D01*
X+4208780Y+2179024D02*
X+4208780Y+2201884D01*
X+4208780Y+2227284D02*
X+4208780Y+2323804D01*
X+4208780Y+2356824D02*
X+4208780Y+2422864D01*
X+4208780Y+2532084D02*
X+4208780Y+2554944D01*
X+4208780Y+2610824D02*
X+4208780Y+2694644D01*
X+4208780Y+2720044D02*
X+4208780Y+2742904D01*
X+4208780Y+2755604D02*
X+4208780Y+2783544D01*
X+4208780Y+2793704D02*
X+4208780Y+2816564D01*
X+4208780Y+2849584D02*
X+4208780Y+2938484D01*
X+4208780Y+2966424D02*
X+4208780Y+3050244D01*
X+4208780Y+3075644D02*
X+4208780Y+3172164D01*
X+4208780Y+3222964D02*
X+4208780Y+3245824D01*
X+4208780Y+3301704D02*
X+4208780Y+3385524D01*
X+4211320Y+1841204D02*
X+4211320Y+1864064D01*
X+4211320Y+1919944D02*
X+4211320Y+1942804D01*
X+4211320Y+2021544D02*
X+4211320Y+2044404D01*
X+4211320Y+2072344D02*
X+4211320Y+2156164D01*
X+4211320Y+2179024D02*
X+4211320Y+2201884D01*
X+4211320Y+2227284D02*
X+4211320Y+2323804D01*
X+4211320Y+2359364D02*
X+4211320Y+2427944D01*
X+4211320Y+2532084D02*
X+4211320Y+2554944D01*
X+4211320Y+2610824D02*
X+4211320Y+2694644D01*
X+4211320Y+2720044D02*
X+4211320Y+2742904D01*
X+4211320Y+2758144D02*
X+4211320Y+2783544D01*
X+4211320Y+2793704D02*
X+4211320Y+2816564D01*
X+4211320Y+2847044D02*
X+4211320Y+2938484D01*
X+4211320Y+2966424D02*
X+4211320Y+3050244D01*
X+4211320Y+3075644D02*
X+4211320Y+3172164D01*
X+4211320Y+3222964D02*
X+4211320Y+3245824D01*
X+4211320Y+3301704D02*
X+4211320Y+3385524D01*
X+4213860Y+1841204D02*
X+4213860Y+1864064D01*
X+4213860Y+1919944D02*
X+4213860Y+1942804D01*
X+4213860Y+2021544D02*
X+4213860Y+2044404D01*
X+4213860Y+2072344D02*
X+4213860Y+2156164D01*
X+4213860Y+2179024D02*
X+4213860Y+2201884D01*
X+4213860Y+2227284D02*
X+4213860Y+2323804D01*
X+4213860Y+2364444D02*
X+4213860Y+2430484D01*
X+4213860Y+2532084D02*
X+4213860Y+2554944D01*
X+4213860Y+2610824D02*
X+4213860Y+2694644D01*
X+4213860Y+2720044D02*
X+4213860Y+2742904D01*
X+4213860Y+2760684D02*
X+4213860Y+2786084D01*
X+4213860Y+2793704D02*
X+4213860Y+2816564D01*
X+4213860Y+2844504D02*
X+4213860Y+2938484D01*
X+4213860Y+2966424D02*
X+4213860Y+3050244D01*
X+4213860Y+3075644D02*
X+4213860Y+3172164D01*
X+4213860Y+3222964D02*
X+4213860Y+3245824D01*
X+4213860Y+3301704D02*
X+4213860Y+3385524D01*
X+4216400Y+1841204D02*
X+4216400Y+1864064D01*
X+4216400Y+1919944D02*
X+4216400Y+1942804D01*
X+4216400Y+2021544D02*
X+4216400Y+2044404D01*
X+4216400Y+2072344D02*
X+4216400Y+2156164D01*
X+4216400Y+2179024D02*
X+4216400Y+2201884D01*
X+4216400Y+2227284D02*
X+4216400Y+2323804D01*
X+4216400Y+2369524D02*
X+4216400Y+2430484D01*
X+4216400Y+2532084D02*
X+4216400Y+2554944D01*
X+4216400Y+2610824D02*
X+4216400Y+2694644D01*
X+4216400Y+2720044D02*
X+4216400Y+2742904D01*
X+4216400Y+2760684D02*
X+4216400Y+2786084D01*
X+4216400Y+2793704D02*
X+4216400Y+2816564D01*
X+4216400Y+2844504D02*
X+4216400Y+2938484D01*
X+4216400Y+2966424D02*
X+4216400Y+3050244D01*
X+4216400Y+3075644D02*
X+4216400Y+3172164D01*
X+4216400Y+3222964D02*
X+4216400Y+3245824D01*
X+4216400Y+3301704D02*
X+4216400Y+3385524D01*
X+4218940Y+1841204D02*
X+4218940Y+1864064D01*
X+4218940Y+1919944D02*
X+4218940Y+1942804D01*
X+4218940Y+2021544D02*
X+4218940Y+2044404D01*
X+4218940Y+2072344D02*
X+4218940Y+2156164D01*
X+4218940Y+2179024D02*
X+4218940Y+2201884D01*
X+4218940Y+2227284D02*
X+4218940Y+2323804D01*
X+4218940Y+2377144D02*
X+4218940Y+2433024D01*
X+4218940Y+2532084D02*
X+4218940Y+2554944D01*
X+4218940Y+2610824D02*
X+4218940Y+2694644D01*
X+4218940Y+2720044D02*
X+4218940Y+2742904D01*
X+4218940Y+2763224D02*
X+4218940Y+2788624D01*
X+4218940Y+2793704D02*
X+4218940Y+2816564D01*
X+4218940Y+2841964D02*
X+4218940Y+2872444D01*
X+4218940Y+2915624D02*
X+4218940Y+2938484D01*
X+4218940Y+2966424D02*
X+4218940Y+3050244D01*
X+4218940Y+3075644D02*
X+4218940Y+3172164D01*
X+4218940Y+3222964D02*
X+4218940Y+3245824D01*
X+4218940Y+3301704D02*
X+4218940Y+3385524D01*
X+4221480Y+1841204D02*
X+4221480Y+1864064D01*
X+4221480Y+1919944D02*
X+4221480Y+1942804D01*
X+4221480Y+2021544D02*
X+4221480Y+2044404D01*
X+4221480Y+2133304D02*
X+4221480Y+2156164D01*
X+4221480Y+2179024D02*
X+4221480Y+2201884D01*
X+4221480Y+2227284D02*
X+4221480Y+2250144D01*
X+4221480Y+2300944D02*
X+4221480Y+2323804D01*
X+4221480Y+2384764D02*
X+4221480Y+2435564D01*
X+4221480Y+2532084D02*
X+4221480Y+2554944D01*
X+4221480Y+2671784D02*
X+4221480Y+2694644D01*
X+4221480Y+2720044D02*
X+4221480Y+2742904D01*
X+4221480Y+2763224D02*
X+4221480Y+2791164D01*
X+4221480Y+2793704D02*
X+4221480Y+2816564D01*
X+4221480Y+2841964D02*
X+4221480Y+2867364D01*
X+4221480Y+2915624D02*
X+4221480Y+2938484D01*
X+4221480Y+3027384D02*
X+4221480Y+3050244D01*
X+4221480Y+3075644D02*
X+4221480Y+3098504D01*
X+4221480Y+3149304D02*
X+4221480Y+3172164D01*
X+4221480Y+3222964D02*
X+4221480Y+3245824D01*
X+4221480Y+3362664D02*
X+4221480Y+3385524D01*
X+4224020Y+1843744D02*
X+4224020Y+1866604D01*
X+4224020Y+1919944D02*
X+4224020Y+1942804D01*
X+4224020Y+2021544D02*
X+4224020Y+2044404D01*
X+4224020Y+2133304D02*
X+4224020Y+2156164D01*
X+4224020Y+2179024D02*
X+4224020Y+2201884D01*
X+4224020Y+2227284D02*
X+4224020Y+2250144D01*
X+4224020Y+2300944D02*
X+4224020Y+2323804D01*
X+4224020Y+2394924D02*
X+4224020Y+2435564D01*
X+4224020Y+2532084D02*
X+4224020Y+2554944D01*
X+4224020Y+2671784D02*
X+4224020Y+2694644D01*
X+4224020Y+2720044D02*
X+4224020Y+2742904D01*
X+4224020Y+2765764D02*
X+4224020Y+2791164D01*
X+4224020Y+2793704D02*
X+4224020Y+2816564D01*
X+4224020Y+2839424D02*
X+4224020Y+2864824D01*
X+4224020Y+2915624D02*
X+4224020Y+2938484D01*
X+4224020Y+3027384D02*
X+4224020Y+3050244D01*
X+4224020Y+3075644D02*
X+4224020Y+3098504D01*
X+4224020Y+3149304D02*
X+4224020Y+3172164D01*
X+4224020Y+3222964D02*
X+4224020Y+3245824D01*
X+4224020Y+3362664D02*
X+4224020Y+3385524D01*
X+4226560Y+1843744D02*
X+4226560Y+1866604D01*
X+4226560Y+1919944D02*
X+4226560Y+1942804D01*
X+4226560Y+2021544D02*
X+4226560Y+2044404D01*
X+4226560Y+2133304D02*
X+4226560Y+2156164D01*
X+4226560Y+2179024D02*
X+4226560Y+2201884D01*
X+4226560Y+2227284D02*
X+4226560Y+2250144D01*
X+4226560Y+2300944D02*
X+4226560Y+2323804D01*
X+4226560Y+2402544D02*
X+4226560Y+2435564D01*
X+4226560Y+2532084D02*
X+4226560Y+2554944D01*
X+4226560Y+2671784D02*
X+4226560Y+2694644D01*
X+4226560Y+2720044D02*
X+4226560Y+2742904D01*
X+4226560Y+2768304D02*
X+4226560Y+2816564D01*
X+4226560Y+2839424D02*
X+4226560Y+2864824D01*
X+4226560Y+2915624D02*
X+4226560Y+2938484D01*
X+4226560Y+3027384D02*
X+4226560Y+3050244D01*
X+4226560Y+3075644D02*
X+4226560Y+3098504D01*
X+4226560Y+3149304D02*
X+4226560Y+3172164D01*
X+4226560Y+3222964D02*
X+4226560Y+3245824D01*
X+4226560Y+3362664D02*
X+4226560Y+3385524D01*
X+4229100Y+1843744D02*
X+4229100Y+1866604D01*
X+4229100Y+1919944D02*
X+4229100Y+1942804D01*
X+4229100Y+2021544D02*
X+4229100Y+2044404D01*
X+4229100Y+2133304D02*
X+4229100Y+2156164D01*
X+4229100Y+2179024D02*
X+4229100Y+2201884D01*
X+4229100Y+2227284D02*
X+4229100Y+2250144D01*
X+4229100Y+2300944D02*
X+4229100Y+2323804D01*
X+4229100Y+2407624D02*
X+4229100Y+2438104D01*
X+4229100Y+2532084D02*
X+4229100Y+2554944D01*
X+4229100Y+2671784D02*
X+4229100Y+2694644D01*
X+4229100Y+2720044D02*
X+4229100Y+2742904D01*
X+4229100Y+2768304D02*
X+4229100Y+2816564D01*
X+4229100Y+2839424D02*
X+4229100Y+2862284D01*
X+4229100Y+2915624D02*
X+4229100Y+2938484D01*
X+4229100Y+3027384D02*
X+4229100Y+3050244D01*
X+4229100Y+3075644D02*
X+4229100Y+3098504D01*
X+4229100Y+3149304D02*
X+4229100Y+3172164D01*
X+4229100Y+3222964D02*
X+4229100Y+3245824D01*
X+4229100Y+3362664D02*
X+4229100Y+3385524D01*
X+4231640Y+1843744D02*
X+4231640Y+1866604D01*
X+4231640Y+1919944D02*
X+4231640Y+1942804D01*
X+4231640Y+2021544D02*
X+4231640Y+2044404D01*
X+4231640Y+2133304D02*
X+4231640Y+2156164D01*
X+4231640Y+2179024D02*
X+4231640Y+2201884D01*
X+4231640Y+2227284D02*
X+4231640Y+2250144D01*
X+4231640Y+2300944D02*
X+4231640Y+2323804D01*
X+4231640Y+2412704D02*
X+4231640Y+2438104D01*
X+4231640Y+2532084D02*
X+4231640Y+2554944D01*
X+4231640Y+2671784D02*
X+4231640Y+2694644D01*
X+4231640Y+2720044D02*
X+4231640Y+2742904D01*
X+4231640Y+2770844D02*
X+4231640Y+2816564D01*
X+4231640Y+2839424D02*
X+4231640Y+2862284D01*
X+4231640Y+2915624D02*
X+4231640Y+2938484D01*
X+4231640Y+3027384D02*
X+4231640Y+3050244D01*
X+4231640Y+3075644D02*
X+4231640Y+3098504D01*
X+4231640Y+3149304D02*
X+4231640Y+3172164D01*
X+4231640Y+3222964D02*
X+4231640Y+3245824D01*
X+4231640Y+3362664D02*
X+4231640Y+3385524D01*
X+4234180Y+1843744D02*
X+4234180Y+1869144D01*
X+4234180Y+1919944D02*
X+4234180Y+1942804D01*
X+4234180Y+2021544D02*
X+4234180Y+2044404D01*
X+4234180Y+2133304D02*
X+4234180Y+2156164D01*
X+4234180Y+2179024D02*
X+4234180Y+2201884D01*
X+4234180Y+2227284D02*
X+4234180Y+2250144D01*
X+4234180Y+2300944D02*
X+4234180Y+2323804D01*
X+4234180Y+2351744D02*
X+4234180Y+2374604D01*
X+4234180Y+2415244D02*
X+4234180Y+2438104D01*
X+4234180Y+2532084D02*
X+4234180Y+2554944D01*
X+4234180Y+2671784D02*
X+4234180Y+2694644D01*
X+4234180Y+2720044D02*
X+4234180Y+2742904D01*
X+4234180Y+2770844D02*
X+4234180Y+2816564D01*
X+4234180Y+2839424D02*
X+4234180Y+2862284D01*
X+4234180Y+2915624D02*
X+4234180Y+2938484D01*
X+4234180Y+3027384D02*
X+4234180Y+3050244D01*
X+4234180Y+3075644D02*
X+4234180Y+3098504D01*
X+4234180Y+3149304D02*
X+4234180Y+3172164D01*
X+4234180Y+3222964D02*
X+4234180Y+3245824D01*
X+4234180Y+3362664D02*
X+4234180Y+3385524D01*
X+4236720Y+1846284D02*
X+4236720Y+1869144D01*
X+4236720Y+1919944D02*
X+4236720Y+1942804D01*
X+4236720Y+2021544D02*
X+4236720Y+2044404D01*
X+4236720Y+2133304D02*
X+4236720Y+2156164D01*
X+4236720Y+2179024D02*
X+4236720Y+2201884D01*
X+4236720Y+2227284D02*
X+4236720Y+2250144D01*
X+4236720Y+2300944D02*
X+4236720Y+2323804D01*
X+4236720Y+2351744D02*
X+4236720Y+2374604D01*
X+4236720Y+2415244D02*
X+4236720Y+2438104D01*
X+4236720Y+2532084D02*
X+4236720Y+2554944D01*
X+4236720Y+2671784D02*
X+4236720Y+2694644D01*
X+4236720Y+2720044D02*
X+4236720Y+2742904D01*
X+4236720Y+2773384D02*
X+4236720Y+2816564D01*
X+4236720Y+2839424D02*
X+4236720Y+2862284D01*
X+4236720Y+2915624D02*
X+4236720Y+2938484D01*
X+4236720Y+3027384D02*
X+4236720Y+3050244D01*
X+4236720Y+3075644D02*
X+4236720Y+3098504D01*
X+4236720Y+3149304D02*
X+4236720Y+3172164D01*
X+4236720Y+3222964D02*
X+4236720Y+3245824D01*
X+4236720Y+3362664D02*
X+4236720Y+3385524D01*
X+4239260Y+1846284D02*
X+4239260Y+1871684D01*
X+4239260Y+1919944D02*
X+4239260Y+1942804D01*
X+4239260Y+2021544D02*
X+4239260Y+2044404D01*
X+4239260Y+2133304D02*
X+4239260Y+2156164D01*
X+4239260Y+2179024D02*
X+4239260Y+2201884D01*
X+4239260Y+2227284D02*
X+4239260Y+2250144D01*
X+4239260Y+2300944D02*
X+4239260Y+2323804D01*
X+4239260Y+2351744D02*
X+4239260Y+2377144D01*
X+4239260Y+2415244D02*
X+4239260Y+2438104D01*
X+4239260Y+2532084D02*
X+4239260Y+2554944D01*
X+4239260Y+2671784D02*
X+4239260Y+2694644D01*
X+4239260Y+2720044D02*
X+4239260Y+2742904D01*
X+4239260Y+2775924D02*
X+4239260Y+2816564D01*
X+4239260Y+2839424D02*
X+4239260Y+2862284D01*
X+4239260Y+2915624D02*
X+4239260Y+2938484D01*
X+4239260Y+3027384D02*
X+4239260Y+3050244D01*
X+4239260Y+3075644D02*
X+4239260Y+3098504D01*
X+4239260Y+3149304D02*
X+4239260Y+3172164D01*
X+4239260Y+3222964D02*
X+4239260Y+3245824D01*
X+4239260Y+3362664D02*
X+4239260Y+3385524D01*
X+4241800Y+1848824D02*
X+4241800Y+1874224D01*
X+4241800Y+1919944D02*
X+4241800Y+1942804D01*
X+4241800Y+2021544D02*
X+4241800Y+2044404D01*
X+4241800Y+2133304D02*
X+4241800Y+2156164D01*
X+4241800Y+2179024D02*
X+4241800Y+2201884D01*
X+4241800Y+2227284D02*
X+4241800Y+2250144D01*
X+4241800Y+2300944D02*
X+4241800Y+2323804D01*
X+4241800Y+2351744D02*
X+4241800Y+2377144D01*
X+4241800Y+2415244D02*
X+4241800Y+2438104D01*
X+4241800Y+2532084D02*
X+4241800Y+2554944D01*
X+4241800Y+2671784D02*
X+4241800Y+2694644D01*
X+4241800Y+2720044D02*
X+4241800Y+2742904D01*
X+4241800Y+2775924D02*
X+4241800Y+2816564D01*
X+4241800Y+2839424D02*
X+4241800Y+2864824D01*
X+4241800Y+2915624D02*
X+4241800Y+2938484D01*
X+4241800Y+3027384D02*
X+4241800Y+3050244D01*
X+4241800Y+3075644D02*
X+4241800Y+3098504D01*
X+4241800Y+3149304D02*
X+4241800Y+3172164D01*
X+4241800Y+3222964D02*
X+4241800Y+3245824D01*
X+4241800Y+3362664D02*
X+4241800Y+3385524D01*
X+4244340Y+1848824D02*
X+4244340Y+1879304D01*
X+4244340Y+1919944D02*
X+4244340Y+1942804D01*
X+4244340Y+2021544D02*
X+4244340Y+2044404D01*
X+4244340Y+2133304D02*
X+4244340Y+2156164D01*
X+4244340Y+2179024D02*
X+4244340Y+2201884D01*
X+4244340Y+2227284D02*
X+4244340Y+2250144D01*
X+4244340Y+2300944D02*
X+4244340Y+2323804D01*
X+4244340Y+2354284D02*
X+4244340Y+2379684D01*
X+4244340Y+2412704D02*
X+4244340Y+2438104D01*
X+4244340Y+2532084D02*
X+4244340Y+2554944D01*
X+4244340Y+2671784D02*
X+4244340Y+2694644D01*
X+4244340Y+2720044D02*
X+4244340Y+2742904D01*
X+4244340Y+2778464D02*
X+4244340Y+2816564D01*
X+4244340Y+2839424D02*
X+4244340Y+2867364D01*
X+4244340Y+2915624D02*
X+4244340Y+2938484D01*
X+4244340Y+3027384D02*
X+4244340Y+3050244D01*
X+4244340Y+3075644D02*
X+4244340Y+3098504D01*
X+4244340Y+3149304D02*
X+4244340Y+3172164D01*
X+4244340Y+3222964D02*
X+4244340Y+3245824D01*
X+4244340Y+3362664D02*
X+4244340Y+3385524D01*
X+4246880Y+1851364D02*
X+4246880Y+1886924D01*
X+4246880Y+1919944D02*
X+4246880Y+1942804D01*
X+4246880Y+2021544D02*
X+4246880Y+2044404D01*
X+4246880Y+2133304D02*
X+4246880Y+2156164D01*
X+4246880Y+2179024D02*
X+4246880Y+2201884D01*
X+4246880Y+2227284D02*
X+4246880Y+2250144D01*
X+4246880Y+2300944D02*
X+4246880Y+2323804D01*
X+4246880Y+2354284D02*
X+4246880Y+2382224D01*
X+4246880Y+2410164D02*
X+4246880Y+2435564D01*
X+4246880Y+2532084D02*
X+4246880Y+2554944D01*
X+4246880Y+2671784D02*
X+4246880Y+2694644D01*
X+4246880Y+2720044D02*
X+4246880Y+2742904D01*
X+4246880Y+2778464D02*
X+4246880Y+2816564D01*
X+4246880Y+2841964D02*
X+4246880Y+2872444D01*
X+4246880Y+2915624D02*
X+4246880Y+2938484D01*
X+4246880Y+3027384D02*
X+4246880Y+3050244D01*
X+4246880Y+3075644D02*
X+4246880Y+3098504D01*
X+4246880Y+3149304D02*
X+4246880Y+3172164D01*
X+4246880Y+3222964D02*
X+4246880Y+3245824D01*
X+4246880Y+3362664D02*
X+4246880Y+3385524D01*
X+4249420Y+1851364D02*
X+4249420Y+1942804D01*
X+4249420Y+2021544D02*
X+4249420Y+2044404D01*
X+4249420Y+2067264D02*
X+4249420Y+2156164D01*
X+4249420Y+2179024D02*
X+4249420Y+2201884D01*
X+4249420Y+2227284D02*
X+4249420Y+2250144D01*
X+4249420Y+2300944D02*
X+4249420Y+2323804D01*
X+4249420Y+2354284D02*
X+4249420Y+2387304D01*
X+4249420Y+2405084D02*
X+4249420Y+2435564D01*
X+4249420Y+2496524D02*
X+4249420Y+2590504D01*
X+4249420Y+2605744D02*
X+4249420Y+2694644D01*
X+4249420Y+2720044D02*
X+4249420Y+2742904D01*
X+4249420Y+2781004D02*
X+4249420Y+2816564D01*
X+4249420Y+2841964D02*
X+4249420Y+2938484D01*
X+4249420Y+2961344D02*
X+4249420Y+3050244D01*
X+4249420Y+3075644D02*
X+4249420Y+3098504D01*
X+4249420Y+3149304D02*
X+4249420Y+3172164D01*
X+4249420Y+3187404D02*
X+4249420Y+3281384D01*
X+4249420Y+3296624D02*
X+4249420Y+3385524D01*
X+4251960Y+1853904D02*
X+4251960Y+1942804D01*
X+4251960Y+2021544D02*
X+4251960Y+2044404D01*
X+4251960Y+2067264D02*
X+4251960Y+2156164D01*
X+4251960Y+2179024D02*
X+4251960Y+2201884D01*
X+4251960Y+2227284D02*
X+4251960Y+2250144D01*
X+4251960Y+2300944D02*
X+4251960Y+2323804D01*
X+4251960Y+2356824D02*
X+4251960Y+2435564D01*
X+4251960Y+2496524D02*
X+4251960Y+2590504D01*
X+4251960Y+2605744D02*
X+4251960Y+2694644D01*
X+4251960Y+2720044D02*
X+4251960Y+2742904D01*
X+4251960Y+2783544D02*
X+4251960Y+2816564D01*
X+4251960Y+2844504D02*
X+4251960Y+2938484D01*
X+4251960Y+2961344D02*
X+4251960Y+3050244D01*
X+4251960Y+3075644D02*
X+4251960Y+3098504D01*
X+4251960Y+3149304D02*
X+4251960Y+3172164D01*
X+4251960Y+3187404D02*
X+4251960Y+3281384D01*
X+4251960Y+3296624D02*
X+4251960Y+3385524D01*
X+4254500Y+1856444D02*
X+4254500Y+1942804D01*
X+4254500Y+2021544D02*
X+4254500Y+2044404D01*
X+4254500Y+2067264D02*
X+4254500Y+2156164D01*
X+4254500Y+2179024D02*
X+4254500Y+2201884D01*
X+4254500Y+2227284D02*
X+4254500Y+2250144D01*
X+4254500Y+2300944D02*
X+4254500Y+2323804D01*
X+4254500Y+2356824D02*
X+4254500Y+2433024D01*
X+4254500Y+2496524D02*
X+4254500Y+2590504D01*
X+4254500Y+2605744D02*
X+4254500Y+2694644D01*
X+4254500Y+2720044D02*
X+4254500Y+2742904D01*
X+4254500Y+2783544D02*
X+4254500Y+2816564D01*
X+4254500Y+2844504D02*
X+4254500Y+2938484D01*
X+4254500Y+2961344D02*
X+4254500Y+3050244D01*
X+4254500Y+3075644D02*
X+4254500Y+3098504D01*
X+4254500Y+3149304D02*
X+4254500Y+3172164D01*
X+4254500Y+3187404D02*
X+4254500Y+3281384D01*
X+4254500Y+3296624D02*
X+4254500Y+3385524D01*
X+4257040Y+1858984D02*
X+4257040Y+1942804D01*
X+4257040Y+2021544D02*
X+4257040Y+2044404D01*
X+4257040Y+2067264D02*
X+4257040Y+2156164D01*
X+4257040Y+2179024D02*
X+4257040Y+2201884D01*
X+4257040Y+2227284D02*
X+4257040Y+2250144D01*
X+4257040Y+2300944D02*
X+4257040Y+2323804D01*
X+4257040Y+2359364D02*
X+4257040Y+2430484D01*
X+4257040Y+2496524D02*
X+4257040Y+2590504D01*
X+4257040Y+2605744D02*
X+4257040Y+2694644D01*
X+4257040Y+2720044D02*
X+4257040Y+2742904D01*
X+4257040Y+2786084D02*
X+4257040Y+2816564D01*
X+4257040Y+2847044D02*
X+4257040Y+2938484D01*
X+4257040Y+2961344D02*
X+4257040Y+3050244D01*
X+4257040Y+3075644D02*
X+4257040Y+3098504D01*
X+4257040Y+3149304D02*
X+4257040Y+3172164D01*
X+4257040Y+3187404D02*
X+4257040Y+3281384D01*
X+4257040Y+3296624D02*
X+4257040Y+3385524D01*
X+4259580Y+1861524D02*
X+4259580Y+1942804D01*
X+4259580Y+2021544D02*
X+4259580Y+2044404D01*
X+4259580Y+2067264D02*
X+4259580Y+2156164D01*
X+4259580Y+2179024D02*
X+4259580Y+2201884D01*
X+4259580Y+2227284D02*
X+4259580Y+2250144D01*
X+4259580Y+2300944D02*
X+4259580Y+2323804D01*
X+4259580Y+2361904D02*
X+4259580Y+2427944D01*
X+4259580Y+2496524D02*
X+4259580Y+2590504D01*
X+4259580Y+2605744D02*
X+4259580Y+2694644D01*
X+4259580Y+2720044D02*
X+4259580Y+2742904D01*
X+4259580Y+2786084D02*
X+4259580Y+2816564D01*
X+4259580Y+2849584D02*
X+4259580Y+2938484D01*
X+4259580Y+2961344D02*
X+4259580Y+3050244D01*
X+4259580Y+3075644D02*
X+4259580Y+3098504D01*
X+4259580Y+3149304D02*
X+4259580Y+3172164D01*
X+4259580Y+3187404D02*
X+4259580Y+3281384D01*
X+4259580Y+3296624D02*
X+4259580Y+3385524D01*
X+4262120Y+1866604D02*
X+4262120Y+1942804D01*
X+4262120Y+2021544D02*
X+4262120Y+2044404D01*
X+4262120Y+2067264D02*
X+4262120Y+2156164D01*
X+4262120Y+2179024D02*
X+4262120Y+2201884D01*
X+4262120Y+2227284D02*
X+4262120Y+2250144D01*
X+4262120Y+2300944D02*
X+4262120Y+2323804D01*
X+4262120Y+2364444D02*
X+4262120Y+2425404D01*
X+4262120Y+2496524D02*
X+4262120Y+2590504D01*
X+4262120Y+2605744D02*
X+4262120Y+2694644D01*
X+4262120Y+2720044D02*
X+4262120Y+2742904D01*
X+4262120Y+2788624D02*
X+4262120Y+2816564D01*
X+4262120Y+2852124D02*
X+4262120Y+2938484D01*
X+4262120Y+2961344D02*
X+4262120Y+3050244D01*
X+4262120Y+3075644D02*
X+4262120Y+3098504D01*
X+4262120Y+3149304D02*
X+4262120Y+3172164D01*
X+4262120Y+3187404D02*
X+4262120Y+3281384D01*
X+4262120Y+3296624D02*
X+4262120Y+3385524D01*
X+4264660Y+1871684D02*
X+4264660Y+1942804D01*
X+4264660Y+2021544D02*
X+4264660Y+2044404D01*
X+4264660Y+2067264D02*
X+4264660Y+2156164D01*
X+4264660Y+2179024D02*
X+4264660Y+2201884D01*
X+4264660Y+2227284D02*
X+4264660Y+2250144D01*
X+4264660Y+2300944D02*
X+4264660Y+2323804D01*
X+4264660Y+2369524D02*
X+4264660Y+2422864D01*
X+4264660Y+2496524D02*
X+4264660Y+2590504D01*
X+4264660Y+2605744D02*
X+4264660Y+2694644D01*
X+4264660Y+2720044D02*
X+4264660Y+2742904D01*
X+4264660Y+2791164D02*
X+4264660Y+2816564D01*
X+4264660Y+2857204D02*
X+4264660Y+2938484D01*
X+4264660Y+2961344D02*
X+4264660Y+3050244D01*
X+4264660Y+3075644D02*
X+4264660Y+3098504D01*
X+4264660Y+3149304D02*
X+4264660Y+3172164D01*
X+4264660Y+3187404D02*
X+4264660Y+3281384D01*
X+4264660Y+3296624D02*
X+4264660Y+3385524D01*
X+4267200Y+1879304D02*
X+4267200Y+1942804D01*
X+4267200Y+2021544D02*
X+4267200Y+2044404D01*
X+4267200Y+2067264D02*
X+4267200Y+2156164D01*
X+4267200Y+2179024D02*
X+4267200Y+2201884D01*
X+4267200Y+2227284D02*
X+4267200Y+2250144D01*
X+4267200Y+2300944D02*
X+4267200Y+2323804D01*
X+4267200Y+2374604D02*
X+4267200Y+2417784D01*
X+4267200Y+2496524D02*
X+4267200Y+2590504D01*
X+4267200Y+2605744D02*
X+4267200Y+2694644D01*
X+4267200Y+2720044D02*
X+4267200Y+2742904D01*
X+4267200Y+2791164D02*
X+4267200Y+2816564D01*
X+4267200Y+2867364D02*
X+4267200Y+2938484D01*
X+4267200Y+2961344D02*
X+4267200Y+3050244D01*
X+4267200Y+3075644D02*
X+4267200Y+3098504D01*
X+4267200Y+3149304D02*
X+4267200Y+3172164D01*
X+4267200Y+3187404D02*
X+4267200Y+3281384D01*
X+4267200Y+3296624D02*
X+4267200Y+3385524D01*
X+4269740Y+2382224D02*
X+4269740Y+2410164D01*
X+4142105Y+1652172D02*
X+4142105Y+1669952D01*
X+4142105Y+1705512D02*
X+4142105Y+1723292D01*
X+4142105Y+1748692D02*
X+4142105Y+1766472D01*
X+4144645Y+1647092D02*
X+4144645Y+1675032D01*
X+4144645Y+1705512D02*
X+4144645Y+1723292D01*
X+4144645Y+1748692D02*
X+4144645Y+1766472D01*
X+4147185Y+1642012D02*
X+4147185Y+1680112D01*
X+4147185Y+1705512D02*
X+4147185Y+1723292D01*
X+4147185Y+1748692D02*
X+4147185Y+1766472D01*
X+4149725Y+1639472D02*
X+4149725Y+1682652D01*
X+4149725Y+1705512D02*
X+4149725Y+1723292D01*
X+4149725Y+1748692D02*
X+4149725Y+1766472D01*
X+4152265Y+1639472D02*
X+4152265Y+1682652D01*
X+4152265Y+1705512D02*
X+4152265Y+1723292D01*
X+4152265Y+1748692D02*
X+4152265Y+1766472D01*
X+4154805Y+1636932D02*
X+4154805Y+1685192D01*
X+4154805Y+1705512D02*
X+4154805Y+1723292D01*
X+4154805Y+1748692D02*
X+4154805Y+1766472D01*
X+4157345Y+1636932D02*
X+4157345Y+1657252D01*
X+4157345Y+1664872D02*
X+4157345Y+1685192D01*
X+4157345Y+1705512D02*
X+4157345Y+1723292D01*
X+4157345Y+1748692D02*
X+4157345Y+1766472D01*
X+4159885Y+1634392D02*
X+4159885Y+1654712D01*
X+4159885Y+1667412D02*
X+4159885Y+1687732D01*
X+4159885Y+1748692D02*
X+4159885Y+1766472D01*
X+4162425Y+1634392D02*
X+4162425Y+1652172D01*
X+4162425Y+1669952D02*
X+4162425Y+1687732D01*
X+4162425Y+1748692D02*
X+4162425Y+1766472D01*
X+4164965Y+1634392D02*
X+4164965Y+1652172D01*
X+4164965Y+1669952D02*
X+4164965Y+1687732D01*
X+4164965Y+1748692D02*
X+4164965Y+1766472D01*
X+4167505Y+1634392D02*
X+4167505Y+1649632D01*
X+4167505Y+1672492D02*
X+4167505Y+1687732D01*
X+4167505Y+1748692D02*
X+4167505Y+1766472D01*
X+4170045Y+1631852D02*
X+4170045Y+1649632D01*
X+4170045Y+1672492D02*
X+4170045Y+1690272D01*
X+4170045Y+1748692D02*
X+4170045Y+1766472D01*
X+4172585Y+1631852D02*
X+4172585Y+1649632D01*
X+4172585Y+1672492D02*
X+4172585Y+1690272D01*
X+4172585Y+1748692D02*
X+4172585Y+1766472D01*
X+4175125Y+1631852D02*
X+4175125Y+1649632D01*
X+4175125Y+1672492D02*
X+4175125Y+1690272D01*
X+4175125Y+1748692D02*
X+4175125Y+1766472D01*
X+4177665Y+1631852D02*
X+4177665Y+1649632D01*
X+4177665Y+1672492D02*
X+4177665Y+1690272D01*
X+4177665Y+1748692D02*
X+4177665Y+1766472D01*
X+4180205Y+1631852D02*
X+4180205Y+1649632D01*
X+4180205Y+1672492D02*
X+4180205Y+1690272D01*
X+4180205Y+1748692D02*
X+4180205Y+1766472D01*
X+4182745Y+1631852D02*
X+4182745Y+1649632D01*
X+4182745Y+1672492D02*
X+4182745Y+1690272D01*
X+4182745Y+1748692D02*
X+4182745Y+1766472D01*
X+4185285Y+1631852D02*
X+4185285Y+1649632D01*
X+4185285Y+1672492D02*
X+4185285Y+1690272D01*
X+4185285Y+1748692D02*
X+4185285Y+1766472D01*
X+4187825Y+1631852D02*
X+4187825Y+1649632D01*
X+4187825Y+1672492D02*
X+4187825Y+1690272D01*
X+4187825Y+1748692D02*
X+4187825Y+1766472D01*
X+4190365Y+1631852D02*
X+4190365Y+1649632D01*
X+4190365Y+1672492D02*
X+4190365Y+1690272D01*
X+4190365Y+1748692D02*
X+4190365Y+1766472D01*
X+4192905Y+1631852D02*
X+4192905Y+1649632D01*
X+4192905Y+1672492D02*
X+4192905Y+1690272D01*
X+4192905Y+1748692D02*
X+4192905Y+1766472D01*
X+4192905Y+1786792D02*
X+4192905Y+1789332D01*
X+4195445Y+1631852D02*
X+4195445Y+1649632D01*
X+4195445Y+1672492D02*
X+4195445Y+1690272D01*
X+4195445Y+1748692D02*
X+4195445Y+1766472D01*
X+4195445Y+1779172D02*
X+4195445Y+1789332D01*
X+4197985Y+1631852D02*
X+4197985Y+1649632D01*
X+4197985Y+1672492D02*
X+4197985Y+1690272D01*
X+4197985Y+1748692D02*
X+4197985Y+1766472D01*
X+4197985Y+1774092D02*
X+4197985Y+1789332D01*
X+4200525Y+1631852D02*
X+4200525Y+1649632D01*
X+4200525Y+1672492D02*
X+4200525Y+1690272D01*
X+4200525Y+1748692D02*
X+4200525Y+1766472D01*
X+4200525Y+1771552D02*
X+4200525Y+1789332D01*
X+4203065Y+1634392D02*
X+4203065Y+1649632D01*
X+4203065Y+1672492D02*
X+4203065Y+1687732D01*
X+4203065Y+1748692D02*
X+4203065Y+1766472D01*
X+4203065Y+1769012D02*
X+4203065Y+1789332D01*
X+4205605Y+1634392D02*
X+4205605Y+1652172D01*
X+4205605Y+1669952D02*
X+4205605Y+1687732D01*
X+4205605Y+1748692D02*
X+4205605Y+1789332D01*
X+4208145Y+1634392D02*
X+4208145Y+1652172D01*
X+4208145Y+1669952D02*
X+4208145Y+1687732D01*
X+4208145Y+1748692D02*
X+4208145Y+1786792D01*
X+4210685Y+1634392D02*
X+4210685Y+1654712D01*
X+4210685Y+1667412D02*
X+4210685Y+1687732D01*
X+4210685Y+1748692D02*
X+4210685Y+1781712D01*
X+4213225Y+1636932D02*
X+4213225Y+1657252D01*
X+4213225Y+1664872D02*
X+4213225Y+1685192D01*
X+4213225Y+1748692D02*
X+4213225Y+1776632D01*
X+4215765Y+1636932D02*
X+4215765Y+1685192D01*
X+4215765Y+1748692D02*
X+4215765Y+1774092D01*
X+4218305Y+1639472D02*
X+4218305Y+1682652D01*
X+4218305Y+1748692D02*
X+4218305Y+1771552D01*
X+4220845Y+1639472D02*
X+4220845Y+1682652D01*
X+4220845Y+1748692D02*
X+4220845Y+1769012D01*
X+4223385Y+1642012D02*
X+4223385Y+1680112D01*
X+4223385Y+1748692D02*
X+4223385Y+1766472D01*
X+4225925Y+1647092D02*
X+4225925Y+1675032D01*
X+4225925Y+1748692D02*
X+4225925Y+1763932D01*
X+4228465Y+1652172D02*
X+4228465Y+1669952D01*
X+4228465Y+1748692D02*
X+4228465Y+1763932D01*
M02*
