M48
METRIC,TZ
T01C0.3050
T02C0.9500
T03C1.6300
T04C3.2500
%
T01
X+25273Y+29845
X+30935Y+24183
X+25273Y+27305
X+31585Y+23480
X+37135Y+31496
X+31885Y+31496
X+25273Y+31496
X+26873Y+33147
X+30827Y+19951
X+40098Y+19951
X+28951Y+10160
X+33198Y+12776
X+35878Y+10160
X+27889Y+32131
X+29176Y+19951
X+25400Y+14872
X+25400Y+16142
X+7620Y+2540
X+5080Y+5080
X+2540Y+7620
X+7620Y+7620
X+10160Y+5080
X+12700Y+7620
X+15240Y+5080
X+17780Y+7620
X+20320Y+5080
X+22860Y+7620
X+20320Y+10160
X+15240Y+10160
X+10160Y+10160
X+5080Y+10160
X+2540Y+12700
X+7620Y+12700
X+12700Y+12700
X+17780Y+12700
X+23749Y+13272
X+23749Y+11760
X+25400Y+11760
X+25400Y+13272
X+28001Y+10160
X+27166Y+14872
X+30607Y+14872
X+34163Y+10160
X+20320Y+15240
X+15240Y+15240
X+10160Y+15240
X+5080Y+15240
X+2540Y+17780
X+7620Y+17780
X+17780Y+17780
X+22860Y+17780
X+2540Y+22860
X+5080Y+25400
X+10160Y+25400
X+7620Y+27940
X+2540Y+27940
X+2540Y+33020
X+2540Y+38100
X+5080Y+35560
X+10160Y+35560
X+20320Y+35560
X+25400Y+35560
X+30480Y+35560
X+22860Y+30480
X+15240Y+25400
X+12700Y+27940
X+15240Y+30480
X+25273Y+21463
X+29176Y+18351
X+30827Y+18351
X+32500Y+19951
X+40098Y+18351
X+34406Y+20051
X+36606Y+18351
X+2540Y+43180
X+2540Y+48260
X+7620Y+48260
X+5080Y+45720
X+7620Y+43180
X+5080Y+40640
X+7620Y+38100
X+10160Y+40640
X+12700Y+38100
X+15240Y+40640
X+17780Y+38100
X+20320Y+40640
X+22860Y+38100
X+25400Y+40640
X+27940Y+38100
X+22860Y+43180
X+17780Y+43180
X+12700Y+43180
X+10160Y+45720
X+12700Y+48260
X+17780Y+48260
X+15240Y+45720
X+20320Y+45720
X+27940Y+48260
X+30480Y+45720
X+33020Y+43180
X+35560Y+40640
X+38100Y+43180
X+40640Y+45720
X+43180Y+48260
X+38100Y+48260
X+35560Y+45720
X+33020Y+48260
X+40640Y+35560
X+38100Y+38100
X+40640Y+40640
X+43180Y+43180
X+45720Y+45720
X+48260Y+48260
X+50800Y+45720
X+48260Y+43180
X+45720Y+40640
X+43180Y+38100
X+43180Y+33020
X+45720Y+35560
X+48260Y+38100
X+50800Y+40640
X+53340Y+38100
X+50800Y+35560
X+48260Y+33020
X+45720Y+30480
X+43180Y+27940
X+40640Y+30480
X+38100Y+27940
X+33020Y+27940
X+35560Y+25400
X+40640Y+25400
X+45720Y+25400
X+48260Y+27940
X+50800Y+30480
X+53340Y+33020
X+53340Y+27940
X+50800Y+25400
X+48260Y+22860
X+45720Y+20320
X+43180Y+22860
X+53340Y+22860
X+53340Y+17780
X+53340Y+12700
X+50800Y+10160
X+50800Y+15240
X+50800Y+20320
X+48260Y+17780
X+48260Y+12700
X+48260Y+7620
X+50800Y+5080
X+45720Y+5080
X+45720Y+10160
X+45720Y+15240
X+43180Y+17780
X+43180Y+12700
X+40640Y+15240
X+35560Y+15240
X+38100Y+12700
X+40640Y+10160
X+43180Y+7620
X+40640Y+5080
X+38100Y+7620
X+35560Y+5080
X+30480Y+7620
T02
X+10160Y+2540
X+12700Y+2540
X+15240Y+2540
X+17780Y+2540
X+20320Y+2540
X+22860Y+2540
X+25400Y+2540
X+27940Y+2540
X+30480Y+2540
X+33020Y+2540
X+35560Y+2540
X+38100Y+2540
X+40640Y+2540
X+43180Y+2540
X+45720Y+2540
X+48260Y+2540
X+50800Y+2540
X+6096Y+50800
X+8636Y+50800
X+11176Y+50800
X+13716Y+50800
X+16256Y+50800
X+18796Y+50800
X+21336Y+50800
X+23876Y+50800
X+26416Y+50800
X+28956Y+50800
X+33020Y+50800
X+35560Y+50800
X+38100Y+50800
X+40640Y+50800
X+43180Y+50800
X+45720Y+50800
X+48260Y+50800
X+50800Y+50800
X+17653Y+31115
X+20193Y+29845
X+17653Y+28575
X+20193Y+27305
X+17653Y+26035
X+20193Y+24765
X+17653Y+23495
X+20193Y+22225
X+6403Y+33295
X+6403Y+30755
X+6403Y+22585
X+6403Y+20045
T03
X+14353Y+34415
X+14353Y+18925
T04
X+11303Y+32385
X+11303Y+20955
M30
