M48
METRIC,TZ
T01C0.3050
T02C0.9500
T03C0.6000
%
T01
X+762Y-508
X+5842Y+500
X+6464Y-3302
X+2641Y-2066
X+12890Y+0
X+13462Y+4128
X+2641Y-6345
X-2793Y+6355
X-2793Y-6345
X+8535Y+3248
X-1166Y-3350
X+15331Y-2314
X+7493Y-6096
X+10604Y-6414
X+6985Y-2143
X+6543Y-7366
X+13780Y+190
X+14542Y+826
X+15875Y+1206
X+13398Y-1270
X+17716Y+1905
X+16574Y-1270
X+13462Y+3238
X+10668Y+3238
X+6477Y+2540
X+11620Y+2286
X+13081Y-2314
X+2617Y+6355
X+9285Y+250
X+15367Y-1270
X+11176Y-4953
X+13843Y-7366
X-3616Y-3950
X-3616Y+3950
X+1041Y+3332
X-5207Y-7493
X+13843Y+7366
X+6543Y+7366
X-1166Y+3350
X-5207Y+7493
T02
X+4445Y+6350
X+4445Y+3810
X+4445Y+1270
X+4445Y-1270
X+4445Y-3810
X+4445Y-6350
T03
X+19304Y-1905
X+20574Y-1905
X+19304Y-635
X+20574Y-635
X+19304Y+635
X+20574Y+635
X+19304Y+1905
X+20574Y+1905
M30
