G04 PROTEUS RS274X GERBER FILE*
%FSLAX45Y45*%
%MOMM*%
G01*
%AMPPAD026*
4,1,36,
0.977000,0.200000,
0.977000,-0.200000,
0.974470,-0.225970,
0.967200,-0.249980,
0.955650,-0.271580,
0.940290,-0.290290,
0.921570,-0.305650,
0.899980,-0.317200,
0.875970,-0.324470,
0.850000,-0.327000,
-0.850000,-0.327000,
-0.875970,-0.324470,
-0.899980,-0.317200,
-0.921570,-0.305650,
-0.940290,-0.290290,
-0.955650,-0.271580,
-0.967200,-0.249980,
-0.974470,-0.225970,
-0.977000,-0.200000,
-0.977000,0.200000,
-0.974470,0.225970,
-0.967200,0.249980,
-0.955650,0.271580,
-0.940290,0.290290,
-0.921570,0.305650,
-0.899980,0.317200,
-0.875970,0.324470,
-0.850000,0.327000,
0.850000,0.327000,
0.875970,0.324470,
0.899980,0.317200,
0.921570,0.305650,
0.940290,0.290290,
0.955650,0.271580,
0.967200,0.249980,
0.974470,0.225970,
0.977000,0.200000,
0*%
%ADD32PPAD026*%
%AMPPAD027*
4,1,36,
1.077000,0.950000,
1.077000,-0.950000,
1.074470,-0.975970,
1.067200,-0.999980,
1.055650,-1.021580,
1.040290,-1.040290,
1.021570,-1.055650,
0.999980,-1.067200,
0.975970,-1.074470,
0.950000,-1.077000,
-0.950000,-1.077000,
-0.975970,-1.074470,
-0.999980,-1.067200,
-1.021570,-1.055650,
-1.040290,-1.040290,
-1.055650,-1.021580,
-1.067200,-0.999980,
-1.074470,-0.975970,
-1.077000,-0.950000,
-1.077000,0.950000,
-1.074470,0.975970,
-1.067200,0.999980,
-1.055650,1.021580,
-1.040290,1.040290,
-1.021570,1.055650,
-0.999980,1.067200,
-0.975970,1.074470,
-0.950000,1.077000,
0.950000,1.077000,
0.975970,1.074470,
0.999980,1.067200,
1.021570,1.055650,
1.040290,1.040290,
1.055650,1.021580,
1.067200,0.999980,
1.074470,0.975970,
1.077000,0.950000,
0*%
%ADD33PPAD027*%
%AMPPAD028*
4,1,36,
0.877000,0.750000,
0.877000,-0.750000,
0.874470,-0.775970,
0.867200,-0.799980,
0.855650,-0.821580,
0.840290,-0.840290,
0.821570,-0.855650,
0.799980,-0.867200,
0.775970,-0.874470,
0.750000,-0.877000,
-0.750000,-0.877000,
-0.775970,-0.874470,
-0.799980,-0.867200,
-0.821570,-0.855650,
-0.840290,-0.840290,
-0.855650,-0.821580,
-0.867200,-0.799980,
-0.874470,-0.775970,
-0.877000,-0.750000,
-0.877000,0.750000,
-0.874470,0.775970,
-0.867200,0.799980,
-0.855650,0.821580,
-0.840290,0.840290,
-0.821570,0.855650,
-0.799980,0.867200,
-0.775970,0.874470,
-0.750000,0.877000,
0.750000,0.877000,
0.775970,0.874470,
0.799980,0.867200,
0.821570,0.855650,
0.840290,0.840290,
0.855650,0.821580,
0.867200,0.799980,
0.874470,0.775970,
0.877000,0.750000,
0*%
%ADD34PPAD028*%
%AMPPAD029*
4,1,48,
0.827000,0.023000,
0.827000,-0.023000,
0.825720,-0.049400,
0.821950,-0.074930,
0.815800,-0.099490,
0.807400,-0.122960,
0.796870,-0.145220,
0.769840,-0.185650,
0.735640,-0.219840,
0.716150,-0.234300,
0.695220,-0.246860,
0.672960,-0.257400,
0.649490,-0.265800,
0.624930,-0.271950,
0.599400,-0.275720,
0.573000,-0.277000,
-0.150000,-0.277000,
-0.175970,-0.274470,
-0.199980,-0.267200,
-0.221570,-0.255650,
-0.240290,-0.240290,
-0.255650,-0.221580,
-0.267200,-0.199980,
-0.274470,-0.175970,
-0.277000,-0.150000,
-0.277000,0.150000,
-0.274470,0.175970,
-0.267200,0.199980,
-0.255650,0.221580,
-0.240290,0.240290,
-0.221570,0.255650,
-0.199980,0.267200,
-0.175970,0.274470,
-0.150000,0.277000,
0.573000,0.277000,
0.599400,0.275720,
0.624930,0.271950,
0.649490,0.265800,
0.672960,0.257400,
0.695220,0.246860,
0.716150,0.234300,
0.735640,0.219840,
0.769840,0.185650,
0.796870,0.145220,
0.807400,0.122960,
0.815800,0.099490,
0.821950,0.074930,
0.825720,0.049400,
0.827000,0.023000,
0*%
%ADD35PPAD029*%
%AMPPAD030*
4,1,48,
-0.023000,0.827000,
0.023000,0.827000,
0.049400,0.825720,
0.074930,0.821950,
0.099490,0.815800,
0.122960,0.807400,
0.145220,0.796870,
0.185650,0.769840,
0.219840,0.735640,
0.234300,0.716150,
0.246860,0.695220,
0.257400,0.672960,
0.265800,0.649490,
0.271950,0.624930,
0.275720,0.599400,
0.277000,0.573000,
0.277000,-0.150000,
0.274470,-0.175970,
0.267200,-0.199980,
0.255650,-0.221570,
0.240290,-0.240290,
0.221580,-0.255650,
0.199980,-0.267200,
0.175970,-0.274470,
0.150000,-0.277000,
-0.150000,-0.277000,
-0.175970,-0.274470,
-0.199980,-0.267200,
-0.221580,-0.255650,
-0.240290,-0.240290,
-0.255650,-0.221570,
-0.267200,-0.199980,
-0.274470,-0.175970,
-0.277000,-0.150000,
-0.277000,0.573000,
-0.275720,0.599400,
-0.271950,0.624930,
-0.265800,0.649490,
-0.257400,0.672960,
-0.246860,0.695220,
-0.234300,0.716150,
-0.219840,0.735640,
-0.185650,0.769840,
-0.145220,0.796870,
-0.122960,0.807400,
-0.099490,0.815800,
-0.074930,0.821950,
-0.049400,0.825720,
-0.023000,0.827000,
0*%
%ADD36PPAD030*%
%AMPPAD031*
4,1,48,
-0.827000,-0.023000,
-0.827000,0.023000,
-0.825720,0.049400,
-0.821950,0.074930,
-0.815800,0.099490,
-0.807400,0.122960,
-0.796870,0.145220,
-0.769840,0.185650,
-0.735640,0.219840,
-0.716150,0.234300,
-0.695220,0.246860,
-0.672960,0.257400,
-0.649490,0.265800,
-0.624930,0.271950,
-0.599400,0.275720,
-0.573000,0.277000,
0.150000,0.277000,
0.175970,0.274470,
0.199980,0.267200,
0.221570,0.255650,
0.240290,0.240290,
0.255650,0.221580,
0.267200,0.199980,
0.274470,0.175970,
0.277000,0.150000,
0.277000,-0.150000,
0.274470,-0.175970,
0.267200,-0.199980,
0.255650,-0.221580,
0.240290,-0.240290,
0.221570,-0.255650,
0.199980,-0.267200,
0.175970,-0.274470,
0.150000,-0.277000,
-0.573000,-0.277000,
-0.599400,-0.275720,
-0.624930,-0.271950,
-0.649490,-0.265800,
-0.672960,-0.257400,
-0.695220,-0.246860,
-0.716150,-0.234300,
-0.735640,-0.219840,
-0.769840,-0.185650,
-0.796870,-0.145220,
-0.807400,-0.122960,
-0.815800,-0.099490,
-0.821950,-0.074930,
-0.825720,-0.049400,
-0.827000,-0.023000,
0*%
%ADD37PPAD031*%
%AMPPAD032*
4,1,48,
0.023000,-0.827000,
-0.023000,-0.827000,
-0.049400,-0.825720,
-0.074930,-0.821950,
-0.099490,-0.815800,
-0.122960,-0.807400,
-0.145220,-0.796870,
-0.185650,-0.769840,
-0.219840,-0.735640,
-0.234300,-0.716150,
-0.246860,-0.695220,
-0.257400,-0.672960,
-0.265800,-0.649490,
-0.271950,-0.624930,
-0.275720,-0.599400,
-0.277000,-0.573000,
-0.277000,0.150000,
-0.274470,0.175970,
-0.267200,0.199980,
-0.255650,0.221570,
-0.240290,0.240290,
-0.221580,0.255650,
-0.199980,0.267200,
-0.175970,0.274470,
-0.150000,0.277000,
0.150000,0.277000,
0.175970,0.274470,
0.199980,0.267200,
0.221580,0.255650,
0.240290,0.240290,
0.255650,0.221570,
0.267200,0.199980,
0.274470,0.175970,
0.277000,0.150000,
0.277000,-0.573000,
0.275720,-0.599400,
0.271950,-0.624930,
0.265800,-0.649490,
0.257400,-0.672960,
0.246860,-0.695220,
0.234300,-0.716150,
0.219840,-0.735640,
0.185650,-0.769840,
0.145220,-0.796870,
0.122960,-0.807400,
0.099490,-0.815800,
0.074930,-0.821950,
0.049400,-0.825720,
0.023000,-0.827000,
0*%
%ADD38PPAD032*%
%AMPPAD033*
4,1,48,
-1.123000,1.377000,
1.123000,1.377000,
1.149400,1.375720,
1.174930,1.371950,
1.199490,1.365800,
1.245220,1.346870,
1.285650,1.319840,
1.319840,1.285640,
1.346860,1.245220,
1.365800,1.199490,
1.371950,1.174930,
1.375720,1.149400,
1.377000,1.123000,
1.377000,-1.123000,
1.375720,-1.149400,
1.371950,-1.174930,
1.365800,-1.199490,
1.346860,-1.245220,
1.319840,-1.285640,
1.285650,-1.319840,
1.245220,-1.346870,
1.199490,-1.365800,
1.174930,-1.371950,
1.149400,-1.375720,
1.123000,-1.377000,
-1.123000,-1.377000,
-1.149400,-1.375720,
-1.174930,-1.371950,
-1.199490,-1.365800,
-1.245220,-1.346870,
-1.285650,-1.319840,
-1.319840,-1.285640,
-1.346860,-1.245220,
-1.365800,-1.199490,
-1.371950,-1.174930,
-1.375720,-1.149400,
-1.377000,-1.123000,
-1.377000,1.123000,
-1.375720,1.149400,
-1.371950,1.174930,
-1.365800,1.199490,
-1.346860,1.245220,
-1.319840,1.285640,
-1.285650,1.319840,
-1.245220,1.346870,
-1.199490,1.365800,
-1.174930,1.371950,
-1.149400,1.375720,
-1.123000,1.377000,
0*%
%ADD39PPAD033*%
%AMPPAD034*
4,1,36,
-0.927000,0.495200,
-0.927000,-0.495200,
-0.918410,-0.583490,
-0.893690,-0.665130,
-0.854420,-0.738560,
-0.802180,-0.802180,
-0.738560,-0.854420,
-0.665130,-0.893690,
-0.583490,-0.918410,
-0.495200,-0.927000,
0.495200,-0.927000,
0.583490,-0.918410,
0.665130,-0.893690,
0.738560,-0.854420,
0.802180,-0.802180,
0.854420,-0.738560,
0.893690,-0.665130,
0.918410,-0.583490,
0.927000,-0.495200,
0.927000,0.495200,
0.918410,0.583490,
0.893690,0.665130,
0.854420,0.738560,
0.802180,0.802180,
0.738560,0.854420,
0.665130,0.893690,
0.583490,0.918410,
0.495200,0.927000,
-0.495200,0.927000,
-0.583490,0.918410,
-0.665130,0.893690,
-0.738560,0.854420,
-0.802180,0.802180,
-0.854420,0.738560,
-0.893690,0.665130,
-0.918410,0.583490,
-0.927000,0.495200,
0*%
%ADD40PPAD034*%
%ADD41C,1.854000*%
%AMPPAD036*
4,1,36,
-0.477000,-0.500000,
-0.477000,0.500000,
-0.474470,0.525970,
-0.467200,0.549980,
-0.455650,0.571580,
-0.440290,0.590290,
-0.421570,0.605650,
-0.399980,0.617200,
-0.375970,0.624470,
-0.350000,0.627000,
0.350000,0.627000,
0.375970,0.624470,
0.399980,0.617200,
0.421570,0.605650,
0.440290,0.590290,
0.455650,0.571580,
0.467200,0.549980,
0.474470,0.525970,
0.477000,0.500000,
0.477000,-0.500000,
0.474470,-0.525970,
0.467200,-0.549980,
0.455650,-0.571580,
0.440290,-0.590290,
0.421570,-0.605650,
0.399980,-0.617200,
0.375970,-0.624470,
0.350000,-0.627000,
-0.350000,-0.627000,
-0.375970,-0.624470,
-0.399980,-0.617200,
-0.421570,-0.605650,
-0.440290,-0.590290,
-0.455650,-0.571580,
-0.467200,-0.549980,
-0.474470,-0.525970,
-0.477000,-0.500000,
0*%
%ADD42PPAD036*%
%AMPPAD037*
4,1,48,
0.577000,0.323000,
0.577000,-0.323000,
0.575720,-0.349400,
0.571950,-0.374930,
0.565800,-0.399490,
0.546870,-0.445220,
0.519840,-0.485650,
0.485640,-0.519840,
0.445220,-0.546860,
0.399490,-0.565800,
0.374930,-0.571950,
0.349400,-0.575720,
0.323000,-0.577000,
-0.323000,-0.577000,
-0.349400,-0.575720,
-0.374930,-0.571950,
-0.399490,-0.565800,
-0.445220,-0.546860,
-0.485640,-0.519840,
-0.519840,-0.485650,
-0.546870,-0.445220,
-0.565800,-0.399490,
-0.571950,-0.374930,
-0.575720,-0.349400,
-0.577000,-0.323000,
-0.577000,0.323000,
-0.575720,0.349400,
-0.571950,0.374930,
-0.565800,0.399490,
-0.546870,0.445220,
-0.519840,0.485650,
-0.485640,0.519840,
-0.445220,0.546860,
-0.399490,0.565800,
-0.374930,0.571950,
-0.349400,0.575720,
-0.323000,0.577000,
0.323000,0.577000,
0.349400,0.575720,
0.374930,0.571950,
0.399490,0.565800,
0.445220,0.546860,
0.485640,0.519840,
0.519840,0.485650,
0.546870,0.445220,
0.565800,0.399490,
0.571950,0.374930,
0.575720,0.349400,
0.577000,0.323000,
0*%
%ADD43PPAD037*%
%ADD44C,1.154000*%
%AMPPAD039*
4,1,36,
-0.450000,0.652000,
0.450000,0.652000,
0.475970,0.649470,
0.499980,0.642200,
0.521580,0.630650,
0.540290,0.615290,
0.555650,0.596570,
0.567200,0.574980,
0.574470,0.550970,
0.577000,0.525000,
0.577000,-0.525000,
0.574470,-0.550970,
0.567200,-0.574980,
0.555650,-0.596570,
0.540290,-0.615290,
0.521580,-0.630650,
0.499980,-0.642200,
0.475970,-0.649470,
0.450000,-0.652000,
-0.450000,-0.652000,
-0.475970,-0.649470,
-0.499980,-0.642200,
-0.521580,-0.630650,
-0.540290,-0.615290,
-0.555650,-0.596570,
-0.567200,-0.574980,
-0.574470,-0.550970,
-0.577000,-0.525000,
-0.577000,0.525000,
-0.574470,0.550970,
-0.567200,0.574980,
-0.555650,0.596570,
-0.540290,0.615290,
-0.521580,0.630650,
-0.499980,0.642200,
-0.475970,0.649470,
-0.450000,0.652000,
0*%
%ADD45PPAD039*%
%AMPPAD040*
4,1,36,
-0.400000,0.527000,
0.400000,0.527000,
0.425970,0.524470,
0.449980,0.517200,
0.471580,0.505650,
0.490290,0.490290,
0.505650,0.471570,
0.517200,0.449980,
0.524470,0.425970,
0.527000,0.400000,
0.527000,-0.400000,
0.524470,-0.425970,
0.517200,-0.449980,
0.505650,-0.471570,
0.490290,-0.490290,
0.471580,-0.505650,
0.449980,-0.517200,
0.425970,-0.524470,
0.400000,-0.527000,
-0.400000,-0.527000,
-0.425970,-0.524470,
-0.449980,-0.517200,
-0.471580,-0.505650,
-0.490290,-0.490290,
-0.505650,-0.471570,
-0.517200,-0.449980,
-0.524470,-0.425970,
-0.527000,-0.400000,
-0.527000,0.400000,
-0.524470,0.425970,
-0.517200,0.449980,
-0.505650,0.471570,
-0.490290,0.490290,
-0.471580,0.505650,
-0.449980,0.517200,
-0.425970,0.524470,
-0.400000,0.527000,
0*%
%ADD46PPAD040*%
%AMPPAD041*
4,1,36,
0.652000,0.450000,
0.652000,-0.450000,
0.649470,-0.475970,
0.642200,-0.499980,
0.630650,-0.521580,
0.615290,-0.540290,
0.596570,-0.555650,
0.574980,-0.567200,
0.550970,-0.574470,
0.525000,-0.577000,
-0.525000,-0.577000,
-0.550970,-0.574470,
-0.574980,-0.567200,
-0.596570,-0.555650,
-0.615290,-0.540290,
-0.630650,-0.521580,
-0.642200,-0.499980,
-0.649470,-0.475970,
-0.652000,-0.450000,
-0.652000,0.450000,
-0.649470,0.475970,
-0.642200,0.499980,
-0.630650,0.521580,
-0.615290,0.540290,
-0.596570,0.555650,
-0.574980,0.567200,
-0.550970,0.574470,
-0.525000,0.577000,
0.525000,0.577000,
0.550970,0.574470,
0.574980,0.567200,
0.596570,0.555650,
0.615290,0.540290,
0.630650,0.521580,
0.642200,0.499980,
0.649470,0.475970,
0.652000,0.450000,
0*%
%ADD47PPAD041*%
%ADD29C,0.025400*%
D32*
X-101600Y+130000D03*
X-101600Y+65000D03*
X-101600Y+0D03*
X-101600Y-65000D03*
X-101600Y-130000D03*
D33*
X-361600Y-395000D03*
D34*
X-116600Y-335000D03*
X-116600Y+335000D03*
D33*
X-361600Y+395000D03*
D35*
X+698500Y+150000D03*
X+698500Y+100000D03*
X+698500Y+50000D03*
X+698500Y+0D03*
X+698500Y-50000D03*
X+698500Y-100000D03*
D36*
X+803500Y-205000D03*
X+853500Y-205000D03*
X+903500Y-205000D03*
X+953500Y-205000D03*
X+1003500Y-205000D03*
X+1053500Y-205000D03*
D37*
X+1158500Y-100000D03*
X+1158500Y-50000D03*
X+1158500Y+0D03*
X+1158500Y+50000D03*
X+1158500Y+100000D03*
X+1158500Y+150000D03*
D38*
X+1053500Y+255000D03*
X+1003500Y+255000D03*
X+953500Y+255000D03*
X+903500Y+255000D03*
X+853500Y+255000D03*
X+803500Y+255000D03*
D39*
X+928500Y+25000D03*
D40*
X+444500Y+635000D03*
D41*
X+444500Y+381000D03*
X+444500Y+127000D03*
X+444500Y-127000D03*
X+444500Y-381000D03*
X+444500Y-635000D03*
D42*
X+1533100Y+228600D03*
X+1533100Y-231400D03*
X+1308100Y-231400D03*
X+1308100Y+228600D03*
D43*
X+1930400Y-190500D03*
D44*
X+2057400Y-190500D03*
X+1930400Y-63500D03*
X+2057400Y-63500D03*
X+1930400Y+63500D03*
X+2057400Y+63500D03*
X+1930400Y+190500D03*
X+2057400Y+190500D03*
D45*
X+104140Y+168100D03*
X+264140Y+168100D03*
D46*
X-279320Y-634540D03*
X-114320Y-634540D03*
X-279320Y+635460D03*
X-114320Y+635460D03*
D45*
X+264140Y+333200D03*
X+104140Y+333200D03*
X+806450Y-330200D03*
X+646450Y-330200D03*
X+104140Y-634540D03*
X+264140Y-634540D03*
X+101680Y+635460D03*
X+261680Y+635460D03*
X+958850Y+495299D03*
X+1118850Y+495299D03*
X+264140Y-206550D03*
X+104140Y-206550D03*
X+264140Y-371650D03*
X+104140Y-371650D03*
X+646450Y+495299D03*
X+806450Y+495299D03*
D47*
X+1771650Y-55901D03*
X+1771650Y-215901D03*
D45*
X+1117600Y-495301D03*
X+957600Y-495301D03*
X+1117600Y-330201D03*
X+957600Y-330201D03*
X+806450Y-495301D03*
X+646450Y-495301D03*
X+1429700Y-367700D03*
X+1269700Y-367700D03*
X+1269700Y-532800D03*
X+1429700Y-532800D03*
D29*
X-116600Y-200000D02*
X-116703Y-197511D01*
X-117545Y-192531D01*
X-119305Y-187551D01*
X-122182Y-182571D01*
X-126583Y-177655D01*
X-131563Y-174041D01*
X-136543Y-171736D01*
X-141523Y-170433D01*
X-146503Y-170000D01*
X-146600Y-170000D01*
X-176600Y-200000D02*
X-176497Y-197511D01*
X-175655Y-192531D01*
X-173895Y-187551D01*
X-171018Y-182571D01*
X-166617Y-177655D01*
X-161637Y-174041D01*
X-156657Y-171736D01*
X-151677Y-170433D01*
X-146697Y-170000D01*
X-146600Y-170000D01*
X-176600Y-200000D02*
X-176497Y-202489D01*
X-175655Y-207469D01*
X-173895Y-212449D01*
X-171018Y-217429D01*
X-166617Y-222345D01*
X-161637Y-225959D01*
X-156657Y-228264D01*
X-151677Y-229567D01*
X-146697Y-230000D01*
X-146600Y-230000D01*
X-116600Y-200000D02*
X-116703Y-202489D01*
X-117545Y-207469D01*
X-119305Y-212449D01*
X-122182Y-217429D01*
X-126583Y-222345D01*
X-131563Y-225959D01*
X-136543Y-228264D01*
X-141523Y-229567D01*
X-146503Y-230000D01*
X-146600Y-230000D01*
X-116600Y+200000D02*
X-116703Y+202489D01*
X-117545Y+207469D01*
X-119305Y+212449D01*
X-122182Y+217429D01*
X-126583Y+222345D01*
X-131563Y+225959D01*
X-136543Y+228264D01*
X-141523Y+229567D01*
X-146503Y+230000D01*
X-146600Y+230000D01*
X-176600Y+200000D02*
X-176497Y+202489D01*
X-175655Y+207469D01*
X-173895Y+212449D01*
X-171018Y+217429D01*
X-166617Y+222345D01*
X-161637Y+225959D01*
X-156657Y+228264D01*
X-151677Y+229567D01*
X-146697Y+230000D01*
X-146600Y+230000D01*
X-176600Y+200000D02*
X-176497Y+197511D01*
X-175655Y+192531D01*
X-173895Y+187551D01*
X-171018Y+182571D01*
X-166617Y+177655D01*
X-161637Y+174041D01*
X-156657Y+171736D01*
X-151677Y+170433D01*
X-146697Y+170000D01*
X-146600Y+170000D01*
X-116600Y+200000D02*
X-116703Y+197511D01*
X-117545Y+192531D01*
X-119305Y+187551D01*
X-122182Y+182571D01*
X-126583Y+177655D01*
X-131563Y+174041D01*
X-136543Y+171736D01*
X-141523Y+170433D01*
X-146503Y+170000D01*
X-146600Y+170000D01*
X-596900Y-774700D02*
X-596900Y+774700D01*
X-546100Y+825500D02*
X+1460500Y+825500D01*
X-596900Y+774700D02*
X-592981Y+794693D01*
X-582216Y+810816D01*
X-566093Y+821581D01*
X-546100Y+825500D01*
X-546100Y-825500D02*
X-566093Y-821581D01*
X-582216Y-810816D01*
X-592981Y-794693D01*
X-596900Y-774700D01*
X-546100Y-825500D02*
X+1460500Y-825500D01*
X+914300Y-631600D02*
X+914145Y-627873D01*
X+912889Y-620418D01*
X+910259Y-612963D01*
X+905963Y-605508D01*
X+899393Y-598142D01*
X+891938Y-592709D01*
X+884483Y-589239D01*
X+877028Y-587269D01*
X+869573Y-586601D01*
X+869300Y-586600D01*
X+824300Y-631600D02*
X+824455Y-627873D01*
X+825711Y-620418D01*
X+828341Y-612963D01*
X+832637Y-605508D01*
X+839207Y-598142D01*
X+846662Y-592709D01*
X+854117Y-589239D01*
X+861572Y-587269D01*
X+869027Y-586601D01*
X+869300Y-586600D01*
X+824300Y-631600D02*
X+824455Y-635327D01*
X+825711Y-642782D01*
X+828341Y-650237D01*
X+832637Y-657692D01*
X+839207Y-665058D01*
X+846662Y-670491D01*
X+854117Y-673961D01*
X+861572Y-675931D01*
X+869027Y-676599D01*
X+869300Y-676600D01*
X+914300Y-631600D02*
X+914145Y-635327D01*
X+912889Y-642782D01*
X+910259Y-650237D01*
X+905963Y-657692D01*
X+899393Y-665058D01*
X+891938Y-670491D01*
X+884483Y-673961D01*
X+877028Y-675931D01*
X+869573Y-676599D01*
X+869300Y-676600D01*
X+1214300Y-631600D02*
X+1214145Y-627873D01*
X+1212889Y-620418D01*
X+1210259Y-612963D01*
X+1205963Y-605508D01*
X+1199393Y-598142D01*
X+1191938Y-592709D01*
X+1184483Y-589239D01*
X+1177028Y-587269D01*
X+1169573Y-586601D01*
X+1169300Y-586600D01*
X+1124300Y-631600D02*
X+1124455Y-627873D01*
X+1125711Y-620418D01*
X+1128341Y-612963D01*
X+1132637Y-605508D01*
X+1139207Y-598142D01*
X+1146662Y-592709D01*
X+1154117Y-589239D01*
X+1161572Y-587269D01*
X+1169027Y-586601D01*
X+1169300Y-586600D01*
X+1124300Y-631600D02*
X+1124455Y-635327D01*
X+1125711Y-642782D01*
X+1128341Y-650237D01*
X+1132637Y-657692D01*
X+1139207Y-665058D01*
X+1146662Y-670491D01*
X+1154117Y-673961D01*
X+1161572Y-675931D01*
X+1169027Y-676599D01*
X+1169300Y-676600D01*
X+1214300Y-631600D02*
X+1214145Y-635327D01*
X+1212889Y-642782D01*
X+1210259Y-650237D01*
X+1205963Y-657692D01*
X+1199393Y-665058D01*
X+1191938Y-670491D01*
X+1184483Y-673961D01*
X+1177028Y-675931D01*
X+1169573Y-676599D01*
X+1169300Y-676600D01*
X+914300Y+631600D02*
X+914145Y+635327D01*
X+912889Y+642782D01*
X+910259Y+650237D01*
X+905963Y+657692D01*
X+899393Y+665058D01*
X+891938Y+670491D01*
X+884483Y+673961D01*
X+877028Y+675931D01*
X+869573Y+676599D01*
X+869300Y+676600D01*
X+824300Y+631600D02*
X+824455Y+635327D01*
X+825711Y+642782D01*
X+828341Y+650237D01*
X+832637Y+657692D01*
X+839207Y+665058D01*
X+846662Y+670491D01*
X+854117Y+673961D01*
X+861572Y+675931D01*
X+869027Y+676599D01*
X+869300Y+676600D01*
X+824300Y+631600D02*
X+824455Y+627873D01*
X+825711Y+620418D01*
X+828341Y+612963D01*
X+832637Y+605508D01*
X+839207Y+598142D01*
X+846662Y+592709D01*
X+854117Y+589239D01*
X+861572Y+587269D01*
X+869027Y+586601D01*
X+869300Y+586600D01*
X+914300Y+631600D02*
X+914145Y+627873D01*
X+912889Y+620418D01*
X+910259Y+612963D01*
X+905963Y+605508D01*
X+899393Y+598142D01*
X+891938Y+592709D01*
X+884483Y+589239D01*
X+877028Y+587269D01*
X+869573Y+586601D01*
X+869300Y+586600D01*
X+1214300Y+631600D02*
X+1214145Y+635327D01*
X+1212889Y+642782D01*
X+1210259Y+650237D01*
X+1205963Y+657692D01*
X+1199393Y+665058D01*
X+1191938Y+670491D01*
X+1184483Y+673961D01*
X+1177028Y+675931D01*
X+1169573Y+676599D01*
X+1169300Y+676600D01*
X+1124300Y+631600D02*
X+1124455Y+635327D01*
X+1125711Y+642782D01*
X+1128341Y+650237D01*
X+1132637Y+657692D01*
X+1139207Y+665058D01*
X+1146662Y+670491D01*
X+1154117Y+673961D01*
X+1161572Y+675931D01*
X+1169027Y+676599D01*
X+1169300Y+676600D01*
X+1124300Y+631600D02*
X+1124455Y+627873D01*
X+1125711Y+620418D01*
X+1128341Y+612963D01*
X+1132637Y+605508D01*
X+1139207Y+598142D01*
X+1146662Y+592709D01*
X+1154117Y+589239D01*
X+1161572Y+587269D01*
X+1169027Y+586601D01*
X+1169300Y+586600D01*
X+1214300Y+631600D02*
X+1214145Y+627873D01*
X+1212889Y+620418D01*
X+1210259Y+612963D01*
X+1205963Y+605508D01*
X+1199393Y+598142D01*
X+1191938Y+592709D01*
X+1184483Y+589239D01*
X+1177028Y+587269D01*
X+1169573Y+586601D01*
X+1169300Y+586600D01*
X+2159000Y-241300D02*
X+2155081Y-261293D01*
X+2144316Y-277416D01*
X+2128193Y-288181D01*
X+2108200Y-292100D01*
X+2108200Y+292100D02*
X+2128193Y+288181D01*
X+2144316Y+277416D01*
X+2155081Y+261293D01*
X+2159000Y+241300D01*
X+2159000Y-241300D01*
X+2108200Y-292100D02*
X+1676400Y-292100D01*
X+1511300Y-457200D01*
X+1511300Y-774700D02*
X+1507381Y-794693D01*
X+1496616Y-810816D01*
X+1480493Y-821581D01*
X+1460500Y-825500D01*
X+1511300Y-774700D02*
X+1511300Y-457200D01*
X+1460500Y+825501D02*
X+1480493Y+821582D01*
X+1496616Y+810817D01*
X+1507381Y+794694D01*
X+1511300Y+774701D01*
X+1676400Y+292100D02*
X+1511300Y+457200D01*
X+2108200Y+292100D02*
X+1676400Y+292100D01*
X+1511300Y+457200D02*
X+1511300Y+774700D01*
M02*
