G04 PROTEUS RS274X GERBER FILE*
%FSLAX45Y45*%
%MOMM*%
G01*
%ADD29C,0.025400*%
%ADD30C,0.127000*%
%ADD31C,0.031750*%
G36*
X+38100Y+508000D02*
X+38100Y+762000D01*
X+292100Y+762000D01*
X+292100Y+508000D01*
X+38100Y+508000D01*
G37*
G36*
X+869300Y-911600D02*
X+869300Y-771600D01*
X+1014300Y-771600D01*
X+1014300Y-911600D01*
X+869300Y-911600D01*
G37*
G36*
X+1024300Y+771600D02*
X+1024300Y+911600D01*
X+1169300Y+911600D01*
X+1169300Y+771600D01*
X+1024300Y+771600D01*
G37*
D29*
X-116600Y-200000D02*
X-116703Y-197511D01*
X-117545Y-192531D01*
X-119305Y-187551D01*
X-122182Y-182571D01*
X-126583Y-177655D01*
X-131563Y-174041D01*
X-136543Y-171736D01*
X-141523Y-170433D01*
X-146503Y-170000D01*
X-146600Y-170000D01*
X-176600Y-200000D02*
X-176497Y-197511D01*
X-175655Y-192531D01*
X-173895Y-187551D01*
X-171018Y-182571D01*
X-166617Y-177655D01*
X-161637Y-174041D01*
X-156657Y-171736D01*
X-151677Y-170433D01*
X-146697Y-170000D01*
X-146600Y-170000D01*
X-176600Y-200000D02*
X-176497Y-202489D01*
X-175655Y-207469D01*
X-173895Y-212449D01*
X-171018Y-217429D01*
X-166617Y-222345D01*
X-161637Y-225959D01*
X-156657Y-228264D01*
X-151677Y-229567D01*
X-146697Y-230000D01*
X-146600Y-230000D01*
X-116600Y-200000D02*
X-116703Y-202489D01*
X-117545Y-207469D01*
X-119305Y-212449D01*
X-122182Y-217429D01*
X-126583Y-222345D01*
X-131563Y-225959D01*
X-136543Y-228264D01*
X-141523Y-229567D01*
X-146503Y-230000D01*
X-146600Y-230000D01*
X-116600Y+200000D02*
X-116703Y+202489D01*
X-117545Y+207469D01*
X-119305Y+212449D01*
X-122182Y+217429D01*
X-126583Y+222345D01*
X-131563Y+225959D01*
X-136543Y+228264D01*
X-141523Y+229567D01*
X-146503Y+230000D01*
X-146600Y+230000D01*
X-176600Y+200000D02*
X-176497Y+202489D01*
X-175655Y+207469D01*
X-173895Y+212449D01*
X-171018Y+217429D01*
X-166617Y+222345D01*
X-161637Y+225959D01*
X-156657Y+228264D01*
X-151677Y+229567D01*
X-146697Y+230000D01*
X-146600Y+230000D01*
X-176600Y+200000D02*
X-176497Y+197511D01*
X-175655Y+192531D01*
X-173895Y+187551D01*
X-171018Y+182571D01*
X-166617Y+177655D01*
X-161637Y+174041D01*
X-156657Y+171736D01*
X-151677Y+170433D01*
X-146697Y+170000D01*
X-146600Y+170000D01*
X-116600Y+200000D02*
X-116703Y+197511D01*
X-117545Y+192531D01*
X-119305Y+187551D01*
X-122182Y+182571D01*
X-126583Y+177655D01*
X-131563Y+174041D01*
X-136543Y+171736D01*
X-141523Y+170433D01*
X-146503Y+170000D01*
X-146600Y+170000D01*
D30*
X+38100Y+508000D02*
X+292100Y+508000D01*
X+292100Y+762000D01*
X+38100Y+762000D01*
X+38100Y+508000D01*
X-561340Y+635000D02*
X-520700Y+596900D01*
X+38100Y+596900D01*
X+38100Y+673100D01*
X-520700Y+673100D01*
X-561340Y+635000D01*
X-561340Y+381000D02*
X-520700Y+342900D01*
X+38100Y+342900D01*
X+38100Y+419100D01*
X-520700Y+419100D01*
X-561340Y+381000D01*
X-561340Y+127000D02*
X-520700Y+88900D01*
X+38100Y+88900D01*
X+38100Y+165100D01*
X-520700Y+165100D01*
X-561340Y+127000D01*
X+38100Y+254000D02*
X+292100Y+254000D01*
X+38100Y-762000D02*
X+292100Y-762000D01*
X+292100Y+762000D01*
X+38100Y+762000D01*
X+38100Y-762000D01*
X-561340Y-127000D02*
X-520700Y-165100D01*
X+38100Y-165100D01*
X+38100Y-88900D01*
X-520700Y-88900D01*
X-561340Y-127000D01*
X-561340Y-381000D02*
X-520700Y-419100D01*
X+38100Y-419100D01*
X+38100Y-342900D01*
X-520700Y-342900D01*
X-561340Y-381000D01*
X-561340Y-635000D02*
X-520700Y-673100D01*
X+38100Y-673100D01*
X+38100Y-596900D01*
X-520700Y-596900D01*
X-561340Y-635000D01*
X+38100Y-254000D02*
X+292100Y-254000D01*
X+38100Y-508000D02*
X+292100Y-508000D01*
X+38100Y+0D02*
X+292100Y+0D01*
D29*
X-596900Y-774700D02*
X-596900Y+774700D01*
X-546100Y+825500D02*
X+1460500Y+825500D01*
X-596900Y+774700D02*
X-592981Y+794693D01*
X-582216Y+810816D01*
X-566093Y+821581D01*
X-546100Y+825500D01*
X-546100Y-825500D02*
X-566093Y-821581D01*
X-582216Y-810816D01*
X-592981Y-794693D01*
X-596900Y-774700D01*
X-546100Y-825500D02*
X+1460500Y-825500D01*
D30*
X+2133600Y-266700D02*
X+1981200Y-266700D01*
X+1854200Y-215900D02*
X+1854200Y-266700D01*
X+2133600Y-266700D02*
X+2133600Y+266700D01*
X+1905000Y-266700D02*
X+1854200Y-266700D01*
X+1854200Y+266700D02*
X+2133600Y+266700D01*
X+1854200Y-114300D02*
X+1854200Y+266700D01*
X+1359300Y-601600D02*
X+1359300Y-661600D01*
X+679300Y-601600D02*
X+679300Y-661600D01*
X+1169300Y-501600D02*
X+1019300Y-501600D01*
X+869300Y-911600D02*
X+1014300Y-911600D01*
X+1014300Y-771600D01*
X+869300Y-771600D01*
X+869300Y-911600D01*
X+1289300Y-771600D02*
X+1169300Y-771600D01*
X+1169300Y-811600D01*
X+1169300Y-861600D02*
X+1169300Y-911600D01*
X+1139300Y-911600D01*
X+869300Y-771600D02*
X+749300Y-771600D01*
X+1169300Y-771600D02*
X+869300Y-771600D01*
X+1089300Y-911600D02*
X+1059300Y-911600D01*
D31*
X+801747Y-327435D02*
X+819527Y-327435D01*
X+880487Y-327435D02*
X+893187Y-327435D01*
X+954147Y-327435D02*
X+971927Y-327435D01*
X+1144647Y-327435D02*
X+1157347Y-327435D01*
X+1218307Y-327435D02*
X+1238627Y-327435D01*
X+796667Y-324895D02*
X+827147Y-324895D01*
X+877947Y-324895D02*
X+895727Y-324895D01*
X+949067Y-324895D02*
X+979547Y-324895D01*
X+1142107Y-324895D02*
X+1159887Y-324895D01*
X+1213227Y-324895D02*
X+1243707Y-324895D01*
X+791587Y-322355D02*
X+829687Y-322355D01*
X+877947Y-322355D02*
X+895727Y-322355D01*
X+943987Y-322355D02*
X+982087Y-322355D01*
X+1142107Y-322355D02*
X+1159887Y-322355D01*
X+1208147Y-322355D02*
X+1246247Y-322355D01*
X+789047Y-319815D02*
X+832227Y-319815D01*
X+877947Y-319815D02*
X+895727Y-319815D01*
X+941447Y-319815D02*
X+984627Y-319815D01*
X+1142107Y-319815D02*
X+1159887Y-319815D01*
X+1205607Y-319815D02*
X+1248787Y-319815D01*
X+786507Y-317275D02*
X+801747Y-317275D01*
X+819527Y-317275D02*
X+834767Y-317275D01*
X+875407Y-317275D02*
X+898267Y-317275D01*
X+938907Y-317275D02*
X+954147Y-317275D01*
X+971927Y-317275D02*
X+987167Y-317275D01*
X+1139567Y-317275D02*
X+1162427Y-317275D01*
X+1205607Y-317275D02*
X+1220847Y-317275D01*
X+1236087Y-317275D02*
X+1251327Y-317275D01*
X+783967Y-314735D02*
X+799207Y-314735D01*
X+822067Y-314735D02*
X+837307Y-314735D01*
X+875407Y-314735D02*
X+885567Y-314735D01*
X+888107Y-314735D02*
X+898267Y-314735D01*
X+936367Y-314735D02*
X+951607Y-314735D01*
X+974467Y-314735D02*
X+989707Y-314735D01*
X+1139567Y-314735D02*
X+1149727Y-314735D01*
X+1152267Y-314735D02*
X+1162427Y-314735D01*
X+1203067Y-314735D02*
X+1215767Y-314735D01*
X+1241167Y-314735D02*
X+1253867Y-314735D01*
X+783967Y-312195D02*
X+796667Y-312195D01*
X+824607Y-312195D02*
X+837307Y-312195D01*
X+875407Y-312195D02*
X+885567Y-312195D01*
X+888107Y-312195D02*
X+898267Y-312195D01*
X+936367Y-312195D02*
X+949067Y-312195D01*
X+977007Y-312195D02*
X+989707Y-312195D01*
X+1139567Y-312195D02*
X+1149727Y-312195D01*
X+1152267Y-312195D02*
X+1162427Y-312195D01*
X+1200527Y-312195D02*
X+1213227Y-312195D01*
X+1243707Y-312195D02*
X+1253867Y-312195D01*
X+783967Y-309655D02*
X+794127Y-309655D01*
X+827147Y-309655D02*
X+839847Y-309655D01*
X+872867Y-309655D02*
X+885567Y-309655D01*
X+888107Y-309655D02*
X+900807Y-309655D01*
X+936367Y-309655D02*
X+946527Y-309655D01*
X+979547Y-309655D02*
X+992247Y-309655D01*
X+1137027Y-309655D02*
X+1149727Y-309655D01*
X+1152267Y-309655D02*
X+1164967Y-309655D01*
X+1200527Y-309655D02*
X+1210687Y-309655D01*
X+1243707Y-309655D02*
X+1256407Y-309655D01*
X+781427Y-307115D02*
X+791587Y-307115D01*
X+827147Y-307115D02*
X+839847Y-307115D01*
X+872867Y-307115D02*
X+883027Y-307115D01*
X+890647Y-307115D02*
X+900807Y-307115D01*
X+933827Y-307115D02*
X+943987Y-307115D01*
X+979547Y-307115D02*
X+992247Y-307115D01*
X+1137027Y-307115D02*
X+1147187Y-307115D01*
X+1154807Y-307115D02*
X+1164967Y-307115D01*
X+1200527Y-307115D02*
X+1210687Y-307115D01*
X+1246247Y-307115D02*
X+1256407Y-307115D01*
X+781427Y-304575D02*
X+791587Y-304575D01*
X+829687Y-304575D02*
X+839847Y-304575D01*
X+870327Y-304575D02*
X+883027Y-304575D01*
X+890647Y-304575D02*
X+903347Y-304575D01*
X+933827Y-304575D02*
X+943987Y-304575D01*
X+982087Y-304575D02*
X+992247Y-304575D01*
X+1134487Y-304575D02*
X+1147187Y-304575D01*
X+1154807Y-304575D02*
X+1167507Y-304575D01*
X+1197987Y-304575D02*
X+1208147Y-304575D01*
X+1246247Y-304575D02*
X+1256407Y-304575D01*
X+781427Y-302035D02*
X+791587Y-302035D01*
X+829687Y-302035D02*
X+834767Y-302035D01*
X+870327Y-302035D02*
X+880487Y-302035D01*
X+893187Y-302035D02*
X+903347Y-302035D01*
X+933827Y-302035D02*
X+943987Y-302035D01*
X+982087Y-302035D02*
X+987167Y-302035D01*
X+1134487Y-302035D02*
X+1144647Y-302035D01*
X+1157347Y-302035D02*
X+1167507Y-302035D01*
X+1197987Y-302035D02*
X+1208147Y-302035D01*
X+781427Y-299495D02*
X+791587Y-299495D01*
X+870327Y-299495D02*
X+880487Y-299495D01*
X+893187Y-299495D02*
X+903347Y-299495D01*
X+933827Y-299495D02*
X+943987Y-299495D01*
X+1035427Y-299495D02*
X+1068447Y-299495D01*
X+1134487Y-299495D02*
X+1144647Y-299495D01*
X+1157347Y-299495D02*
X+1167507Y-299495D01*
X+1197987Y-299495D02*
X+1208147Y-299495D01*
X+781427Y-296955D02*
X+791587Y-296955D01*
X+867787Y-296955D02*
X+880487Y-296955D01*
X+893187Y-296955D02*
X+905887Y-296955D01*
X+933827Y-296955D02*
X+943987Y-296955D01*
X+1035427Y-296955D02*
X+1068447Y-296955D01*
X+1131947Y-296955D02*
X+1144647Y-296955D01*
X+1157347Y-296955D02*
X+1170047Y-296955D01*
X+1197987Y-296955D02*
X+1208147Y-296955D01*
X+781427Y-294415D02*
X+791587Y-294415D01*
X+867787Y-294415D02*
X+877947Y-294415D01*
X+895727Y-294415D02*
X+905887Y-294415D01*
X+933827Y-294415D02*
X+943987Y-294415D01*
X+1035427Y-294415D02*
X+1068447Y-294415D01*
X+1131947Y-294415D02*
X+1142107Y-294415D01*
X+1159887Y-294415D02*
X+1170047Y-294415D01*
X+1197987Y-294415D02*
X+1208147Y-294415D01*
X+783967Y-291875D02*
X+794127Y-291875D01*
X+867787Y-291875D02*
X+877947Y-291875D01*
X+895727Y-291875D02*
X+905887Y-291875D01*
X+936367Y-291875D02*
X+946527Y-291875D01*
X+1035427Y-291875D02*
X+1068447Y-291875D01*
X+1131947Y-291875D02*
X+1142107Y-291875D01*
X+1159887Y-291875D02*
X+1170047Y-291875D01*
X+1197987Y-291875D02*
X+1208147Y-291875D01*
X+783967Y-289335D02*
X+796667Y-289335D01*
X+865247Y-289335D02*
X+877947Y-289335D01*
X+898267Y-289335D02*
X+908427Y-289335D01*
X+936367Y-289335D02*
X+949067Y-289335D01*
X+1129407Y-289335D02*
X+1142107Y-289335D01*
X+1162427Y-289335D02*
X+1172587Y-289335D01*
X+1197987Y-289335D02*
X+1208147Y-289335D01*
X+786507Y-286795D02*
X+799207Y-286795D01*
X+865247Y-286795D02*
X+875407Y-286795D01*
X+898267Y-286795D02*
X+908427Y-286795D01*
X+938907Y-286795D02*
X+951607Y-286795D01*
X+1129407Y-286795D02*
X+1139567Y-286795D01*
X+1162427Y-286795D02*
X+1172587Y-286795D01*
X+1200527Y-286795D02*
X+1210687Y-286795D01*
X+1243707Y-286795D02*
X+1248787Y-286795D01*
X+789047Y-284255D02*
X+816987Y-284255D01*
X+862707Y-284255D02*
X+875407Y-284255D01*
X+898267Y-284255D02*
X+910967Y-284255D01*
X+941447Y-284255D02*
X+969387Y-284255D01*
X+1126867Y-284255D02*
X+1139567Y-284255D01*
X+1162427Y-284255D02*
X+1175127Y-284255D01*
X+1200527Y-284255D02*
X+1210687Y-284255D01*
X+1241167Y-284255D02*
X+1253867Y-284255D01*
X+791587Y-281715D02*
X+816987Y-281715D01*
X+862707Y-281715D02*
X+872867Y-281715D01*
X+900807Y-281715D02*
X+910967Y-281715D01*
X+943987Y-281715D02*
X+969387Y-281715D01*
X+1126867Y-281715D02*
X+1137027Y-281715D01*
X+1164967Y-281715D02*
X+1175127Y-281715D01*
X+1200527Y-281715D02*
X+1213227Y-281715D01*
X+1238627Y-281715D02*
X+1253867Y-281715D01*
X+799207Y-279175D02*
X+816987Y-279175D01*
X+862707Y-279175D02*
X+872867Y-279175D01*
X+900807Y-279175D02*
X+910967Y-279175D01*
X+951607Y-279175D02*
X+969387Y-279175D01*
X+1126867Y-279175D02*
X+1137027Y-279175D01*
X+1164967Y-279175D02*
X+1175127Y-279175D01*
X+1203067Y-279175D02*
X+1218307Y-279175D01*
X+1236087Y-279175D02*
X+1251327Y-279175D01*
X+794127Y-276635D02*
X+816987Y-276635D01*
X+860167Y-276635D02*
X+872867Y-276635D01*
X+900807Y-276635D02*
X+913507Y-276635D01*
X+946527Y-276635D02*
X+969387Y-276635D01*
X+1124327Y-276635D02*
X+1137027Y-276635D01*
X+1164967Y-276635D02*
X+1177667Y-276635D01*
X+1205607Y-276635D02*
X+1251327Y-276635D01*
X+791587Y-274095D02*
X+806827Y-274095D01*
X+860167Y-274095D02*
X+870327Y-274095D01*
X+903347Y-274095D02*
X+913507Y-274095D01*
X+943987Y-274095D02*
X+959227Y-274095D01*
X+1124327Y-274095D02*
X+1134487Y-274095D01*
X+1167507Y-274095D02*
X+1177667Y-274095D01*
X+1208147Y-274095D02*
X+1251327Y-274095D01*
X+789047Y-271555D02*
X+801747Y-271555D01*
X+860167Y-271555D02*
X+870327Y-271555D01*
X+903347Y-271555D02*
X+913507Y-271555D01*
X+941447Y-271555D02*
X+954147Y-271555D01*
X+1124327Y-271555D02*
X+1134487Y-271555D01*
X+1167507Y-271555D02*
X+1177667Y-271555D01*
X+1210687Y-271555D02*
X+1238627Y-271555D01*
X+1241167Y-271555D02*
X+1251327Y-271555D01*
X+789047Y-269015D02*
X+799207Y-269015D01*
X+857627Y-269015D02*
X+867787Y-269015D01*
X+905887Y-269015D02*
X+916047Y-269015D01*
X+941447Y-269015D02*
X+951607Y-269015D01*
X+1121787Y-269015D02*
X+1131947Y-269015D01*
X+1170047Y-269015D02*
X+1180207Y-269015D01*
X+1215767Y-269015D02*
X+1233547Y-269015D01*
X+1241167Y-269015D02*
X+1251327Y-269015D01*
X+786507Y-266475D02*
X+796667Y-266475D01*
X+857627Y-266475D02*
X+867787Y-266475D01*
X+905887Y-266475D02*
X+916047Y-266475D01*
X+938907Y-266475D02*
X+949067Y-266475D01*
X+1121787Y-266475D02*
X+1131947Y-266475D01*
X+1170047Y-266475D02*
X+1180207Y-266475D01*
X+1238627Y-266475D02*
X+1248787Y-266475D01*
X+786507Y-263935D02*
X+796667Y-263935D01*
X+829687Y-263935D02*
X+834767Y-263935D01*
X+855087Y-263935D02*
X+867787Y-263935D01*
X+905887Y-263935D02*
X+918587Y-263935D01*
X+938907Y-263935D02*
X+949067Y-263935D01*
X+982087Y-263935D02*
X+987167Y-263935D01*
X+1119247Y-263935D02*
X+1131947Y-263935D01*
X+1170047Y-263935D02*
X+1182747Y-263935D01*
X+1238627Y-263935D02*
X+1248787Y-263935D01*
X+786507Y-261395D02*
X+796667Y-261395D01*
X+829687Y-261395D02*
X+839847Y-261395D01*
X+855087Y-261395D02*
X+865247Y-261395D01*
X+908427Y-261395D02*
X+918587Y-261395D01*
X+938907Y-261395D02*
X+949067Y-261395D01*
X+982087Y-261395D02*
X+992247Y-261395D01*
X+1119247Y-261395D02*
X+1129407Y-261395D01*
X+1172587Y-261395D02*
X+1182747Y-261395D01*
X+1238627Y-261395D02*
X+1248787Y-261395D01*
X+786507Y-258855D02*
X+796667Y-258855D01*
X+827147Y-258855D02*
X+839847Y-258855D01*
X+855087Y-258855D02*
X+865247Y-258855D01*
X+908427Y-258855D02*
X+918587Y-258855D01*
X+938907Y-258855D02*
X+949067Y-258855D01*
X+979547Y-258855D02*
X+992247Y-258855D01*
X+1119247Y-258855D02*
X+1129407Y-258855D01*
X+1172587Y-258855D02*
X+1182747Y-258855D01*
X+1238627Y-258855D02*
X+1248787Y-258855D01*
X+786507Y-256315D02*
X+799207Y-256315D01*
X+827147Y-256315D02*
X+837307Y-256315D01*
X+852547Y-256315D02*
X+865247Y-256315D01*
X+910967Y-256315D02*
X+921127Y-256315D01*
X+938907Y-256315D02*
X+951607Y-256315D01*
X+979547Y-256315D02*
X+989707Y-256315D01*
X+1116707Y-256315D02*
X+1129407Y-256315D01*
X+1175127Y-256315D02*
X+1185287Y-256315D01*
X+1236087Y-256315D02*
X+1246247Y-256315D01*
X+789047Y-253775D02*
X+801747Y-253775D01*
X+824607Y-253775D02*
X+837307Y-253775D01*
X+852547Y-253775D02*
X+862707Y-253775D01*
X+910967Y-253775D02*
X+921127Y-253775D01*
X+941447Y-253775D02*
X+954147Y-253775D01*
X+977007Y-253775D02*
X+989707Y-253775D01*
X+1116707Y-253775D02*
X+1126867Y-253775D01*
X+1175127Y-253775D02*
X+1185287Y-253775D01*
X+1236087Y-253775D02*
X+1246247Y-253775D01*
X+789047Y-251235D02*
X+804287Y-251235D01*
X+819527Y-251235D02*
X+834767Y-251235D01*
X+852547Y-251235D02*
X+862707Y-251235D01*
X+910967Y-251235D02*
X+921127Y-251235D01*
X+941447Y-251235D02*
X+956687Y-251235D01*
X+971927Y-251235D02*
X+987167Y-251235D01*
X+1116707Y-251235D02*
X+1126867Y-251235D01*
X+1175127Y-251235D02*
X+1185287Y-251235D01*
X+1236087Y-251235D02*
X+1246247Y-251235D01*
X+791587Y-248695D02*
X+834767Y-248695D01*
X+850007Y-248695D02*
X+860167Y-248695D01*
X+913507Y-248695D02*
X+923667Y-248695D01*
X+943987Y-248695D02*
X+987167Y-248695D01*
X+1114167Y-248695D02*
X+1124327Y-248695D01*
X+1177667Y-248695D02*
X+1187827Y-248695D01*
X+1203067Y-248695D02*
X+1246247Y-248695D01*
X+794127Y-246155D02*
X+832227Y-246155D01*
X+850007Y-246155D02*
X+860167Y-246155D01*
X+913507Y-246155D02*
X+923667Y-246155D01*
X+946527Y-246155D02*
X+984627Y-246155D01*
X+1114167Y-246155D02*
X+1124327Y-246155D01*
X+1177667Y-246155D02*
X+1187827Y-246155D01*
X+1203067Y-246155D02*
X+1246247Y-246155D01*
X+796667Y-243615D02*
X+827147Y-243615D01*
X+847467Y-243615D02*
X+860167Y-243615D01*
X+913507Y-243615D02*
X+926207Y-243615D01*
X+949067Y-243615D02*
X+979547Y-243615D01*
X+1111627Y-243615D02*
X+1124327Y-243615D01*
X+1177667Y-243615D02*
X+1190367Y-243615D01*
X+1203067Y-243615D02*
X+1243707Y-243615D01*
X+804287Y-241075D02*
X+822067Y-241075D01*
X+847467Y-241075D02*
X+857627Y-241075D01*
X+916047Y-241075D02*
X+926207Y-241075D01*
X+956687Y-241075D02*
X+974467Y-241075D01*
X+1111627Y-241075D02*
X+1121787Y-241075D01*
X+1180207Y-241075D02*
X+1190367Y-241075D01*
X+1203067Y-241075D02*
X+1243707Y-241075D01*
D30*
X+679300Y+601600D02*
X+679300Y+661600D01*
X+1359300Y+601600D02*
X+1359300Y+661600D01*
X+869300Y+501600D02*
X+1019300Y+501600D01*
X+1024300Y+771600D02*
X+1169300Y+771600D01*
X+1169300Y+911600D01*
X+1024300Y+911600D01*
X+1024300Y+771600D01*
X+749300Y+771600D02*
X+869300Y+771600D01*
X+869300Y+811600D01*
X+869300Y+861600D02*
X+869300Y+911600D01*
X+899300Y+911600D01*
X+1169300Y+771600D02*
X+1289300Y+771600D01*
X+869300Y+771600D02*
X+1169300Y+771600D01*
X+949300Y+911600D02*
X+979300Y+911600D01*
D31*
X+1125484Y+232338D02*
X+1148344Y+232338D01*
X+1214384Y+232338D02*
X+1234704Y+232338D01*
X+747024Y+234878D02*
X+759724Y+234878D01*
X+805444Y+234878D02*
X+815604Y+234878D01*
X+833384Y+234878D02*
X+899424Y+234878D01*
X+952764Y+234878D02*
X+1011184Y+234878D01*
X+1077224Y+234878D02*
X+1087384Y+234878D01*
X+1120404Y+234878D02*
X+1155964Y+234878D01*
X+1206764Y+234878D02*
X+1242324Y+234878D01*
X+1282964Y+234878D02*
X+1293124Y+234878D01*
X+747024Y+237418D02*
X+759724Y+237418D01*
X+805444Y+237418D02*
X+815604Y+237418D01*
X+833384Y+237418D02*
X+899424Y+237418D01*
X+952764Y+237418D02*
X+1011184Y+237418D01*
X+1077224Y+237418D02*
X+1087384Y+237418D01*
X+1115324Y+237418D02*
X+1161044Y+237418D01*
X+1204224Y+237418D02*
X+1244864Y+237418D01*
X+1282964Y+237418D02*
X+1293124Y+237418D01*
X+747024Y+239958D02*
X+762264Y+239958D01*
X+805444Y+239958D02*
X+815604Y+239958D01*
X+833384Y+239958D02*
X+899424Y+239958D01*
X+952764Y+239958D02*
X+1011184Y+239958D01*
X+1077224Y+239958D02*
X+1087384Y+239958D01*
X+1112784Y+239958D02*
X+1163584Y+239958D01*
X+1199144Y+239958D02*
X+1249944Y+239958D01*
X+1282964Y+239958D02*
X+1293124Y+239958D01*
X+747024Y+242498D02*
X+764804Y+242498D01*
X+805444Y+242498D02*
X+815604Y+242498D01*
X+833384Y+242498D02*
X+899424Y+242498D01*
X+952764Y+242498D02*
X+1008644Y+242498D01*
X+1077224Y+242498D02*
X+1087384Y+242498D01*
X+1110244Y+242498D02*
X+1128024Y+242498D01*
X+1145804Y+242498D02*
X+1166124Y+242498D01*
X+1196604Y+242498D02*
X+1216924Y+242498D01*
X+1232164Y+242498D02*
X+1252484Y+242498D01*
X+1282964Y+242498D02*
X+1293124Y+242498D01*
X+747024Y+245038D02*
X+764804Y+245038D01*
X+805444Y+245038D02*
X+815604Y+245038D01*
X+889264Y+245038D02*
X+899424Y+245038D01*
X+995944Y+245038D02*
X+1008644Y+245038D01*
X+1077224Y+245038D02*
X+1087384Y+245038D01*
X+1107704Y+245038D02*
X+1122944Y+245038D01*
X+1153424Y+245038D02*
X+1168664Y+245038D01*
X+1196604Y+245038D02*
X+1211844Y+245038D01*
X+1237244Y+245038D02*
X+1252484Y+245038D01*
X+1282964Y+245038D02*
X+1293124Y+245038D01*
X+747024Y+247578D02*
X+767344Y+247578D01*
X+805444Y+247578D02*
X+815604Y+247578D01*
X+889264Y+247578D02*
X+899424Y+247578D01*
X+993404Y+247578D02*
X+1006104Y+247578D01*
X+1077224Y+247578D02*
X+1087384Y+247578D01*
X+1107704Y+247578D02*
X+1120404Y+247578D01*
X+1155964Y+247578D02*
X+1168664Y+247578D01*
X+1194064Y+247578D02*
X+1206764Y+247578D01*
X+1242324Y+247578D02*
X+1255024Y+247578D01*
X+1282964Y+247578D02*
X+1293124Y+247578D01*
X+747024Y+250118D02*
X+769884Y+250118D01*
X+805444Y+250118D02*
X+815604Y+250118D01*
X+889264Y+250118D02*
X+899424Y+250118D01*
X+990864Y+250118D02*
X+1003564Y+250118D01*
X+1077224Y+250118D02*
X+1087384Y+250118D01*
X+1107704Y+250118D02*
X+1117864Y+250118D01*
X+1158504Y+250118D02*
X+1171204Y+250118D01*
X+1194064Y+250118D02*
X+1204224Y+250118D01*
X+1244864Y+250118D02*
X+1257564Y+250118D01*
X+1282964Y+250118D02*
X+1293124Y+250118D01*
X+747024Y+252658D02*
X+757184Y+252658D01*
X+759724Y+252658D02*
X+769884Y+252658D01*
X+805444Y+252658D02*
X+815604Y+252658D01*
X+889264Y+252658D02*
X+899424Y+252658D01*
X+988324Y+252658D02*
X+1001024Y+252658D01*
X+1077224Y+252658D02*
X+1087384Y+252658D01*
X+1105164Y+252658D02*
X+1115324Y+252658D01*
X+1161044Y+252658D02*
X+1171204Y+252658D01*
X+1191524Y+252658D02*
X+1204224Y+252658D01*
X+1247404Y+252658D02*
X+1257564Y+252658D01*
X+1282964Y+252658D02*
X+1293124Y+252658D01*
X+747024Y+255198D02*
X+757184Y+255198D01*
X+759724Y+255198D02*
X+772424Y+255198D01*
X+805444Y+255198D02*
X+815604Y+255198D01*
X+889264Y+255198D02*
X+899424Y+255198D01*
X+985784Y+255198D02*
X+998484Y+255198D01*
X+1077224Y+255198D02*
X+1087384Y+255198D01*
X+1105164Y+255198D02*
X+1115324Y+255198D01*
X+1161044Y+255198D02*
X+1173744Y+255198D01*
X+1191524Y+255198D02*
X+1201684Y+255198D01*
X+1247404Y+255198D02*
X+1257564Y+255198D01*
X+1282964Y+255198D02*
X+1293124Y+255198D01*
X+747024Y+257738D02*
X+757184Y+257738D01*
X+762264Y+257738D02*
X+774964Y+257738D01*
X+805444Y+257738D02*
X+815604Y+257738D01*
X+889264Y+257738D02*
X+899424Y+257738D01*
X+980704Y+257738D02*
X+995944Y+257738D01*
X+1077224Y+257738D02*
X+1087384Y+257738D01*
X+1105164Y+257738D02*
X+1115324Y+257738D01*
X+1163584Y+257738D02*
X+1173744Y+257738D01*
X+1188984Y+257738D02*
X+1201684Y+257738D01*
X+1249944Y+257738D02*
X+1260104Y+257738D01*
X+1282964Y+257738D02*
X+1293124Y+257738D01*
X+747024Y+260278D02*
X+757184Y+260278D01*
X+764804Y+260278D02*
X+774964Y+260278D01*
X+805444Y+260278D02*
X+815604Y+260278D01*
X+889264Y+260278D02*
X+899424Y+260278D01*
X+978164Y+260278D02*
X+993404Y+260278D01*
X+1077224Y+260278D02*
X+1087384Y+260278D01*
X+1105164Y+260278D02*
X+1115324Y+260278D01*
X+1163584Y+260278D02*
X+1173744Y+260278D01*
X+1188984Y+260278D02*
X+1199144Y+260278D01*
X+1249944Y+260278D02*
X+1260104Y+260278D01*
X+1282964Y+260278D02*
X+1293124Y+260278D01*
X+747024Y+262818D02*
X+757184Y+262818D01*
X+764804Y+262818D02*
X+777504Y+262818D01*
X+805444Y+262818D02*
X+815604Y+262818D01*
X+889264Y+262818D02*
X+899424Y+262818D01*
X+975624Y+262818D02*
X+990864Y+262818D01*
X+1077224Y+262818D02*
X+1087384Y+262818D01*
X+1105164Y+262818D02*
X+1115324Y+262818D01*
X+1163584Y+262818D02*
X+1173744Y+262818D01*
X+1194064Y+262818D02*
X+1199144Y+262818D01*
X+1249944Y+262818D02*
X+1260104Y+262818D01*
X+1282964Y+262818D02*
X+1293124Y+262818D01*
X+747024Y+265358D02*
X+757184Y+265358D01*
X+767344Y+265358D02*
X+777504Y+265358D01*
X+805444Y+265358D02*
X+815604Y+265358D01*
X+889264Y+265358D02*
X+899424Y+265358D01*
X+973084Y+265358D02*
X+985784Y+265358D01*
X+1077224Y+265358D02*
X+1087384Y+265358D01*
X+1105164Y+265358D02*
X+1117864Y+265358D01*
X+1252484Y+265358D02*
X+1262644Y+265358D01*
X+1282964Y+265358D02*
X+1293124Y+265358D01*
X+747024Y+267898D02*
X+757184Y+267898D01*
X+769884Y+267898D02*
X+780044Y+267898D01*
X+805444Y+267898D02*
X+815604Y+267898D01*
X+889264Y+267898D02*
X+899424Y+267898D01*
X+970544Y+267898D02*
X+983244Y+267898D01*
X+1077224Y+267898D02*
X+1087384Y+267898D01*
X+1107704Y+267898D02*
X+1120404Y+267898D01*
X+1252484Y+267898D02*
X+1262644Y+267898D01*
X+1282964Y+267898D02*
X+1293124Y+267898D01*
X+747024Y+270438D02*
X+757184Y+270438D01*
X+769884Y+270438D02*
X+782584Y+270438D01*
X+805444Y+270438D02*
X+815604Y+270438D01*
X+889264Y+270438D02*
X+899424Y+270438D01*
X+968004Y+270438D02*
X+980704Y+270438D01*
X+1041664Y+270438D02*
X+1087384Y+270438D01*
X+1107704Y+270438D02*
X+1128024Y+270438D01*
X+1252484Y+270438D02*
X+1262644Y+270438D01*
X+1282964Y+270438D02*
X+1293124Y+270438D01*
X+747024Y+272978D02*
X+757184Y+272978D01*
X+772424Y+272978D02*
X+782584Y+272978D01*
X+805444Y+272978D02*
X+815604Y+272978D01*
X+889264Y+272978D02*
X+899424Y+272978D01*
X+965464Y+272978D02*
X+978164Y+272978D01*
X+1034044Y+272978D02*
X+1087384Y+272978D01*
X+1110244Y+272978D02*
X+1135644Y+272978D01*
X+1252484Y+272978D02*
X+1262644Y+272978D01*
X+1282964Y+272978D02*
X+1293124Y+272978D01*
X+747024Y+275518D02*
X+757184Y+275518D01*
X+774964Y+275518D02*
X+785124Y+275518D01*
X+805444Y+275518D02*
X+815604Y+275518D01*
X+838464Y+275518D02*
X+899424Y+275518D01*
X+962924Y+275518D02*
X+975624Y+275518D01*
X+1028964Y+275518D02*
X+1087384Y+275518D01*
X+1112784Y+275518D02*
X+1145804Y+275518D01*
X+1252484Y+275518D02*
X+1262644Y+275518D01*
X+1282964Y+275518D02*
X+1293124Y+275518D01*
X+747024Y+278058D02*
X+757184Y+278058D01*
X+774964Y+278058D02*
X+787664Y+278058D01*
X+805444Y+278058D02*
X+815604Y+278058D01*
X+838464Y+278058D02*
X+899424Y+278058D01*
X+960384Y+278058D02*
X+973084Y+278058D01*
X+1028964Y+278058D02*
X+1087384Y+278058D01*
X+1115324Y+278058D02*
X+1155964Y+278058D01*
X+1252484Y+278058D02*
X+1262644Y+278058D01*
X+1282964Y+278058D02*
X+1293124Y+278058D01*
X+747024Y+280598D02*
X+757184Y+280598D01*
X+777504Y+280598D02*
X+787664Y+280598D01*
X+805444Y+280598D02*
X+815604Y+280598D01*
X+838464Y+280598D02*
X+899424Y+280598D01*
X+957844Y+280598D02*
X+970544Y+280598D01*
X+1026424Y+280598D02*
X+1041664Y+280598D01*
X+1077224Y+280598D02*
X+1087384Y+280598D01*
X+1120404Y+280598D02*
X+1161044Y+280598D01*
X+1252484Y+280598D02*
X+1262644Y+280598D01*
X+1282964Y+280598D02*
X+1293124Y+280598D01*
X+747024Y+283138D02*
X+757184Y+283138D01*
X+780044Y+283138D02*
X+790204Y+283138D01*
X+805444Y+283138D02*
X+815604Y+283138D01*
X+838464Y+283138D02*
X+899424Y+283138D01*
X+957844Y+283138D02*
X+968004Y+283138D01*
X+1023884Y+283138D02*
X+1036584Y+283138D01*
X+1077224Y+283138D02*
X+1087384Y+283138D01*
X+1128024Y+283138D02*
X+1163584Y+283138D01*
X+1252484Y+283138D02*
X+1262644Y+283138D01*
X+1282964Y+283138D02*
X+1293124Y+283138D01*
X+747024Y+285678D02*
X+757184Y+285678D01*
X+780044Y+285678D02*
X+792744Y+285678D01*
X+805444Y+285678D02*
X+815604Y+285678D01*
X+889264Y+285678D02*
X+899424Y+285678D01*
X+955304Y+285678D02*
X+968004Y+285678D01*
X+1023884Y+285678D02*
X+1034044Y+285678D01*
X+1077224Y+285678D02*
X+1087384Y+285678D01*
X+1135644Y+285678D02*
X+1166124Y+285678D01*
X+1252484Y+285678D02*
X+1262644Y+285678D01*
X+1282964Y+285678D02*
X+1293124Y+285678D01*
X+747024Y+288218D02*
X+757184Y+288218D01*
X+782584Y+288218D02*
X+792744Y+288218D01*
X+805444Y+288218D02*
X+815604Y+288218D01*
X+889264Y+288218D02*
X+899424Y+288218D01*
X+955304Y+288218D02*
X+965464Y+288218D01*
X+1021344Y+288218D02*
X+1034044Y+288218D01*
X+1077224Y+288218D02*
X+1087384Y+288218D01*
X+1145804Y+288218D02*
X+1168664Y+288218D01*
X+1252484Y+288218D02*
X+1262644Y+288218D01*
X+1282964Y+288218D02*
X+1293124Y+288218D01*
X+747024Y+290758D02*
X+757184Y+290758D01*
X+785124Y+290758D02*
X+795284Y+290758D01*
X+805444Y+290758D02*
X+815604Y+290758D01*
X+889264Y+290758D02*
X+899424Y+290758D01*
X+952764Y+290758D02*
X+962924Y+290758D01*
X+1021344Y+290758D02*
X+1031504Y+290758D01*
X+1077224Y+290758D02*
X+1087384Y+290758D01*
X+1153424Y+290758D02*
X+1168664Y+290758D01*
X+1252484Y+290758D02*
X+1262644Y+290758D01*
X+1282964Y+290758D02*
X+1293124Y+290758D01*
X+747024Y+293298D02*
X+757184Y+293298D01*
X+785124Y+293298D02*
X+797824Y+293298D01*
X+805444Y+293298D02*
X+815604Y+293298D01*
X+889264Y+293298D02*
X+899424Y+293298D01*
X+952764Y+293298D02*
X+962924Y+293298D01*
X+1021344Y+293298D02*
X+1031504Y+293298D01*
X+1077224Y+293298D02*
X+1087384Y+293298D01*
X+1158504Y+293298D02*
X+1171204Y+293298D01*
X+1249944Y+293298D02*
X+1260104Y+293298D01*
X+1282964Y+293298D02*
X+1293124Y+293298D01*
X+747024Y+295838D02*
X+757184Y+295838D01*
X+787664Y+295838D02*
X+797824Y+295838D01*
X+805444Y+295838D02*
X+815604Y+295838D01*
X+889264Y+295838D02*
X+899424Y+295838D01*
X+952764Y+295838D02*
X+962924Y+295838D01*
X+998484Y+295838D02*
X+1003564Y+295838D01*
X+1021344Y+295838D02*
X+1031504Y+295838D01*
X+1077224Y+295838D02*
X+1087384Y+295838D01*
X+1161044Y+295838D02*
X+1171204Y+295838D01*
X+1249944Y+295838D02*
X+1260104Y+295838D01*
X+1282964Y+295838D02*
X+1293124Y+295838D01*
X+747024Y+298378D02*
X+757184Y+298378D01*
X+787664Y+298378D02*
X+800364Y+298378D01*
X+805444Y+298378D02*
X+815604Y+298378D01*
X+889264Y+298378D02*
X+899424Y+298378D01*
X+952764Y+298378D02*
X+962924Y+298378D01*
X+998484Y+298378D02*
X+1008644Y+298378D01*
X+1021344Y+298378D02*
X+1031504Y+298378D01*
X+1077224Y+298378D02*
X+1087384Y+298378D01*
X+1161044Y+298378D02*
X+1171204Y+298378D01*
X+1191524Y+298378D02*
X+1201684Y+298378D01*
X+1249944Y+298378D02*
X+1260104Y+298378D01*
X+1282964Y+298378D02*
X+1293124Y+298378D01*
X+747024Y+300918D02*
X+757184Y+300918D01*
X+790204Y+300918D02*
X+802904Y+300918D01*
X+805444Y+300918D02*
X+815604Y+300918D01*
X+889264Y+300918D02*
X+899424Y+300918D01*
X+952764Y+300918D02*
X+962924Y+300918D01*
X+998484Y+300918D02*
X+1008644Y+300918D01*
X+1021344Y+300918D02*
X+1031504Y+300918D01*
X+1077224Y+300918D02*
X+1087384Y+300918D01*
X+1107704Y+300918D02*
X+1117864Y+300918D01*
X+1161044Y+300918D02*
X+1171204Y+300918D01*
X+1191524Y+300918D02*
X+1204224Y+300918D01*
X+1247404Y+300918D02*
X+1260104Y+300918D01*
X+1282964Y+300918D02*
X+1293124Y+300918D01*
X+747024Y+303458D02*
X+757184Y+303458D01*
X+792744Y+303458D02*
X+802904Y+303458D01*
X+805444Y+303458D02*
X+815604Y+303458D01*
X+889264Y+303458D02*
X+899424Y+303458D01*
X+952764Y+303458D02*
X+965464Y+303458D01*
X+995944Y+303458D02*
X+1008644Y+303458D01*
X+1021344Y+303458D02*
X+1034044Y+303458D01*
X+1077224Y+303458D02*
X+1087384Y+303458D01*
X+1107704Y+303458D02*
X+1117864Y+303458D01*
X+1161044Y+303458D02*
X+1171204Y+303458D01*
X+1194064Y+303458D02*
X+1204224Y+303458D01*
X+1247404Y+303458D02*
X+1257564Y+303458D01*
X+1282964Y+303458D02*
X+1293124Y+303458D01*
X+747024Y+305998D02*
X+757184Y+305998D01*
X+792744Y+305998D02*
X+815604Y+305998D01*
X+889264Y+305998D02*
X+899424Y+305998D01*
X+955304Y+305998D02*
X+965464Y+305998D01*
X+995944Y+305998D02*
X+1006104Y+305998D01*
X+1023884Y+305998D02*
X+1034044Y+305998D01*
X+1077224Y+305998D02*
X+1087384Y+305998D01*
X+1107704Y+305998D02*
X+1120404Y+305998D01*
X+1161044Y+305998D02*
X+1171204Y+305998D01*
X+1194064Y+305998D02*
X+1206764Y+305998D01*
X+1244864Y+305998D02*
X+1257564Y+305998D01*
X+1282964Y+305998D02*
X+1293124Y+305998D01*
X+747024Y+308538D02*
X+757184Y+308538D01*
X+795284Y+308538D02*
X+815604Y+308538D01*
X+889264Y+308538D02*
X+899424Y+308538D01*
X+955304Y+308538D02*
X+968004Y+308538D01*
X+993404Y+308538D02*
X+1006104Y+308538D01*
X+1023884Y+308538D02*
X+1036584Y+308538D01*
X+1077224Y+308538D02*
X+1087384Y+308538D01*
X+1110244Y+308538D02*
X+1120404Y+308538D01*
X+1158504Y+308538D02*
X+1168664Y+308538D01*
X+1196604Y+308538D02*
X+1209304Y+308538D01*
X+1242324Y+308538D02*
X+1255024Y+308538D01*
X+1282964Y+308538D02*
X+1293124Y+308538D01*
X+747024Y+311078D02*
X+757184Y+311078D01*
X+797824Y+311078D02*
X+815604Y+311078D01*
X+889264Y+311078D02*
X+899424Y+311078D01*
X+957844Y+311078D02*
X+973084Y+311078D01*
X+988324Y+311078D02*
X+1003564Y+311078D01*
X+1026424Y+311078D02*
X+1041664Y+311078D01*
X+1077224Y+311078D02*
X+1087384Y+311078D01*
X+1110244Y+311078D02*
X+1125484Y+311078D01*
X+1155964Y+311078D02*
X+1168664Y+311078D01*
X+1196604Y+311078D02*
X+1211844Y+311078D01*
X+1239784Y+311078D02*
X+1252484Y+311078D01*
X+1282964Y+311078D02*
X+1293124Y+311078D01*
X+747024Y+313618D02*
X+757184Y+313618D01*
X+797824Y+313618D02*
X+815604Y+313618D01*
X+835924Y+313618D02*
X+899424Y+313618D01*
X+957844Y+313618D02*
X+1003564Y+313618D01*
X+1026424Y+313618D02*
X+1087384Y+313618D01*
X+1112784Y+313618D02*
X+1130564Y+313618D01*
X+1150884Y+313618D02*
X+1166124Y+313618D01*
X+1199144Y+313618D02*
X+1216924Y+313618D01*
X+1232164Y+313618D02*
X+1249944Y+313618D01*
X+1282964Y+313618D02*
X+1293124Y+313618D01*
X+747024Y+316158D02*
X+757184Y+316158D01*
X+800364Y+316158D02*
X+815604Y+316158D01*
X+835924Y+316158D02*
X+899424Y+316158D01*
X+960384Y+316158D02*
X+1001024Y+316158D01*
X+1028964Y+316158D02*
X+1087384Y+316158D01*
X+1115324Y+316158D02*
X+1166124Y+316158D01*
X+1201684Y+316158D02*
X+1247404Y+316158D01*
X+1282964Y+316158D02*
X+1293124Y+316158D01*
X+747024Y+318698D02*
X+757184Y+318698D01*
X+802904Y+318698D02*
X+815604Y+318698D01*
X+835924Y+318698D02*
X+899424Y+318698D01*
X+965464Y+318698D02*
X+995944Y+318698D01*
X+1034044Y+318698D02*
X+1087384Y+318698D01*
X+1117864Y+318698D02*
X+1161044Y+318698D01*
X+1204224Y+318698D02*
X+1244864Y+318698D01*
X+1282964Y+318698D02*
X+1293124Y+318698D01*
X+747024Y+321238D02*
X+757184Y+321238D01*
X+802904Y+321238D02*
X+815604Y+321238D01*
X+835924Y+321238D02*
X+899424Y+321238D01*
X+970544Y+321238D02*
X+990864Y+321238D01*
X+1039124Y+321238D02*
X+1087384Y+321238D01*
X+1122944Y+321238D02*
X+1158504Y+321238D01*
X+1206764Y+321238D02*
X+1239784Y+321238D01*
X+1282964Y+321238D02*
X+1293124Y+321238D01*
X+1128024Y+323778D02*
X+1150884Y+323778D01*
X+1214384Y+323778D02*
X+1234704Y+323778D01*
D29*
X+914300Y-631600D02*
X+914145Y-627873D01*
X+912889Y-620418D01*
X+910259Y-612963D01*
X+905963Y-605508D01*
X+899393Y-598142D01*
X+891938Y-592709D01*
X+884483Y-589239D01*
X+877028Y-587269D01*
X+869573Y-586601D01*
X+869300Y-586600D01*
X+824300Y-631600D02*
X+824455Y-627873D01*
X+825711Y-620418D01*
X+828341Y-612963D01*
X+832637Y-605508D01*
X+839207Y-598142D01*
X+846662Y-592709D01*
X+854117Y-589239D01*
X+861572Y-587269D01*
X+869027Y-586601D01*
X+869300Y-586600D01*
X+824300Y-631600D02*
X+824455Y-635327D01*
X+825711Y-642782D01*
X+828341Y-650237D01*
X+832637Y-657692D01*
X+839207Y-665058D01*
X+846662Y-670491D01*
X+854117Y-673961D01*
X+861572Y-675931D01*
X+869027Y-676599D01*
X+869300Y-676600D01*
X+914300Y-631600D02*
X+914145Y-635327D01*
X+912889Y-642782D01*
X+910259Y-650237D01*
X+905963Y-657692D01*
X+899393Y-665058D01*
X+891938Y-670491D01*
X+884483Y-673961D01*
X+877028Y-675931D01*
X+869573Y-676599D01*
X+869300Y-676600D01*
X+1214300Y-631600D02*
X+1214145Y-627873D01*
X+1212889Y-620418D01*
X+1210259Y-612963D01*
X+1205963Y-605508D01*
X+1199393Y-598142D01*
X+1191938Y-592709D01*
X+1184483Y-589239D01*
X+1177028Y-587269D01*
X+1169573Y-586601D01*
X+1169300Y-586600D01*
X+1124300Y-631600D02*
X+1124455Y-627873D01*
X+1125711Y-620418D01*
X+1128341Y-612963D01*
X+1132637Y-605508D01*
X+1139207Y-598142D01*
X+1146662Y-592709D01*
X+1154117Y-589239D01*
X+1161572Y-587269D01*
X+1169027Y-586601D01*
X+1169300Y-586600D01*
X+1124300Y-631600D02*
X+1124455Y-635327D01*
X+1125711Y-642782D01*
X+1128341Y-650237D01*
X+1132637Y-657692D01*
X+1139207Y-665058D01*
X+1146662Y-670491D01*
X+1154117Y-673961D01*
X+1161572Y-675931D01*
X+1169027Y-676599D01*
X+1169300Y-676600D01*
X+1214300Y-631600D02*
X+1214145Y-635327D01*
X+1212889Y-642782D01*
X+1210259Y-650237D01*
X+1205963Y-657692D01*
X+1199393Y-665058D01*
X+1191938Y-670491D01*
X+1184483Y-673961D01*
X+1177028Y-675931D01*
X+1169573Y-676599D01*
X+1169300Y-676600D01*
X+914300Y+631600D02*
X+914145Y+635327D01*
X+912889Y+642782D01*
X+910259Y+650237D01*
X+905963Y+657692D01*
X+899393Y+665058D01*
X+891938Y+670491D01*
X+884483Y+673961D01*
X+877028Y+675931D01*
X+869573Y+676599D01*
X+869300Y+676600D01*
X+824300Y+631600D02*
X+824455Y+635327D01*
X+825711Y+642782D01*
X+828341Y+650237D01*
X+832637Y+657692D01*
X+839207Y+665058D01*
X+846662Y+670491D01*
X+854117Y+673961D01*
X+861572Y+675931D01*
X+869027Y+676599D01*
X+869300Y+676600D01*
X+824300Y+631600D02*
X+824455Y+627873D01*
X+825711Y+620418D01*
X+828341Y+612963D01*
X+832637Y+605508D01*
X+839207Y+598142D01*
X+846662Y+592709D01*
X+854117Y+589239D01*
X+861572Y+587269D01*
X+869027Y+586601D01*
X+869300Y+586600D01*
X+914300Y+631600D02*
X+914145Y+627873D01*
X+912889Y+620418D01*
X+910259Y+612963D01*
X+905963Y+605508D01*
X+899393Y+598142D01*
X+891938Y+592709D01*
X+884483Y+589239D01*
X+877028Y+587269D01*
X+869573Y+586601D01*
X+869300Y+586600D01*
X+1214300Y+631600D02*
X+1214145Y+635327D01*
X+1212889Y+642782D01*
X+1210259Y+650237D01*
X+1205963Y+657692D01*
X+1199393Y+665058D01*
X+1191938Y+670491D01*
X+1184483Y+673961D01*
X+1177028Y+675931D01*
X+1169573Y+676599D01*
X+1169300Y+676600D01*
X+1124300Y+631600D02*
X+1124455Y+635327D01*
X+1125711Y+642782D01*
X+1128341Y+650237D01*
X+1132637Y+657692D01*
X+1139207Y+665058D01*
X+1146662Y+670491D01*
X+1154117Y+673961D01*
X+1161572Y+675931D01*
X+1169027Y+676599D01*
X+1169300Y+676600D01*
X+1124300Y+631600D02*
X+1124455Y+627873D01*
X+1125711Y+620418D01*
X+1128341Y+612963D01*
X+1132637Y+605508D01*
X+1139207Y+598142D01*
X+1146662Y+592709D01*
X+1154117Y+589239D01*
X+1161572Y+587269D01*
X+1169027Y+586601D01*
X+1169300Y+586600D01*
X+1214300Y+631600D02*
X+1214145Y+627873D01*
X+1212889Y+620418D01*
X+1210259Y+612963D01*
X+1205963Y+605508D01*
X+1199393Y+598142D01*
X+1191938Y+592709D01*
X+1184483Y+589239D01*
X+1177028Y+587269D01*
X+1169573Y+586601D01*
X+1169300Y+586600D01*
X+2159000Y-241300D02*
X+2155081Y-261293D01*
X+2144316Y-277416D01*
X+2128193Y-288181D01*
X+2108200Y-292100D01*
X+2108200Y+292100D02*
X+2128193Y+288181D01*
X+2144316Y+277416D01*
X+2155081Y+261293D01*
X+2159000Y+241300D01*
X+2159000Y-241300D01*
X+2108200Y-292100D02*
X+1676400Y-292100D01*
X+1511300Y-457200D01*
X+1511300Y-774700D02*
X+1507381Y-794693D01*
X+1496616Y-810816D01*
X+1480493Y-821581D01*
X+1460500Y-825500D01*
X+1511300Y-774700D02*
X+1511300Y-457200D01*
X+1460500Y+825501D02*
X+1480493Y+821582D01*
X+1496616Y+810817D01*
X+1507381Y+794694D01*
X+1511300Y+774701D01*
X+1676400Y+292100D02*
X+1511300Y+457200D01*
X+2108200Y+292100D02*
X+1676400Y+292100D01*
X+1511300Y+457200D02*
X+1511300Y+774700D01*
D30*
X+1301750Y+165100D02*
X+742950Y+165100D01*
X+1301750Y-190500D02*
X+742950Y-190500D01*
X+1301750Y-190500D02*
X+1276350Y-215900D01*
X+1301750Y-190500D02*
X+1276350Y-165100D01*
X+742950Y-190500D02*
X+768350Y-165100D01*
X+742950Y-190500D02*
X+768350Y-215900D01*
X+1301750Y+165100D02*
X+1276350Y+190500D01*
X+1301750Y+165100D02*
X+1276350Y+139700D01*
X+742950Y+190500D02*
X+742950Y+139700D01*
D31*
X-357879Y+704215D02*
X-337559Y+704215D01*
X-594099Y+706755D02*
X-583939Y+706755D01*
X-540759Y+706755D02*
X-530599Y+706755D01*
X-479799Y+706755D02*
X-469639Y+706755D01*
X-454399Y+706755D02*
X-401059Y+706755D01*
X-365499Y+706755D02*
X-329939Y+706755D01*
X-291839Y+706755D02*
X-281679Y+706755D01*
X-256279Y+706755D02*
X-243579Y+706755D01*
X-218179Y+706755D02*
X-208019Y+706755D01*
X-594099Y+709295D02*
X-583939Y+709295D01*
X-540759Y+709295D02*
X-528059Y+709295D01*
X-479799Y+709295D02*
X-469639Y+709295D01*
X-454399Y+709295D02*
X-401059Y+709295D01*
X-368039Y+709295D02*
X-327399Y+709295D01*
X-291839Y+709295D02*
X-281679Y+709295D01*
X-256279Y+709295D02*
X-243579Y+709295D01*
X-218179Y+709295D02*
X-208019Y+709295D01*
X-594099Y+711835D02*
X-583939Y+711835D01*
X-538219Y+711835D02*
X-528059Y+711835D01*
X-479799Y+711835D02*
X-469639Y+711835D01*
X-454399Y+711835D02*
X-401059Y+711835D01*
X-373119Y+711835D02*
X-322319Y+711835D01*
X-291839Y+711835D02*
X-281679Y+711835D01*
X-258819Y+711835D02*
X-241039Y+711835D01*
X-218179Y+711835D02*
X-208019Y+711835D01*
X-594099Y+714375D02*
X-583939Y+714375D01*
X-538219Y+714375D02*
X-525519Y+714375D01*
X-479799Y+714375D02*
X-469639Y+714375D01*
X-454399Y+714375D02*
X-401059Y+714375D01*
X-375659Y+714375D02*
X-355339Y+714375D01*
X-340099Y+714375D02*
X-319779Y+714375D01*
X-291839Y+714375D02*
X-281679Y+714375D01*
X-258819Y+714375D02*
X-241039Y+714375D01*
X-218179Y+714375D02*
X-208019Y+714375D01*
X-594099Y+716915D02*
X-583939Y+716915D01*
X-535679Y+716915D02*
X-522979Y+716915D01*
X-479799Y+716915D02*
X-469639Y+716915D01*
X-411219Y+716915D02*
X-401059Y+716915D01*
X-375659Y+716915D02*
X-360419Y+716915D01*
X-335019Y+716915D02*
X-319779Y+716915D01*
X-291839Y+716915D02*
X-281679Y+716915D01*
X-258819Y+716915D02*
X-241039Y+716915D01*
X-218179Y+716915D02*
X-208019Y+716915D01*
X-594099Y+719455D02*
X-583939Y+719455D01*
X-533139Y+719455D02*
X-522979Y+719455D01*
X-479799Y+719455D02*
X-469639Y+719455D01*
X-411219Y+719455D02*
X-401059Y+719455D01*
X-378199Y+719455D02*
X-365499Y+719455D01*
X-329939Y+719455D02*
X-317239Y+719455D01*
X-291839Y+719455D02*
X-281679Y+719455D01*
X-261359Y+719455D02*
X-251199Y+719455D01*
X-248659Y+719455D02*
X-238499Y+719455D01*
X-218179Y+719455D02*
X-208019Y+719455D01*
X-594099Y+721995D02*
X-583939Y+721995D01*
X-533139Y+721995D02*
X-520439Y+721995D01*
X-479799Y+721995D02*
X-469639Y+721995D01*
X-411219Y+721995D02*
X-401059Y+721995D01*
X-378199Y+721995D02*
X-368039Y+721995D01*
X-327399Y+721995D02*
X-314699Y+721995D01*
X-291839Y+721995D02*
X-281679Y+721995D01*
X-261359Y+721995D02*
X-251199Y+721995D01*
X-248659Y+721995D02*
X-238499Y+721995D01*
X-218179Y+721995D02*
X-208019Y+721995D01*
X-594099Y+724535D02*
X-583939Y+724535D01*
X-530599Y+724535D02*
X-517899Y+724535D01*
X-479799Y+724535D02*
X-469639Y+724535D01*
X-411219Y+724535D02*
X-401059Y+724535D01*
X-380739Y+724535D02*
X-368039Y+724535D01*
X-324859Y+724535D02*
X-314699Y+724535D01*
X-291839Y+724535D02*
X-281679Y+724535D01*
X-261359Y+724535D02*
X-251199Y+724535D01*
X-248659Y+724535D02*
X-238499Y+724535D01*
X-218179Y+724535D02*
X-208019Y+724535D01*
X-594099Y+727075D02*
X-583939Y+727075D01*
X-530599Y+727075D02*
X-517899Y+727075D01*
X-479799Y+727075D02*
X-469639Y+727075D01*
X-411219Y+727075D02*
X-401059Y+727075D01*
X-380739Y+727075D02*
X-370579Y+727075D01*
X-324859Y+727075D02*
X-314699Y+727075D01*
X-291839Y+727075D02*
X-281679Y+727075D01*
X-263899Y+727075D02*
X-253739Y+727075D01*
X-246119Y+727075D02*
X-235959Y+727075D01*
X-218179Y+727075D02*
X-208019Y+727075D01*
X-594099Y+729615D02*
X-583939Y+729615D01*
X-528059Y+729615D02*
X-515359Y+729615D01*
X-479799Y+729615D02*
X-469639Y+729615D01*
X-411219Y+729615D02*
X-401059Y+729615D01*
X-383279Y+729615D02*
X-370579Y+729615D01*
X-322319Y+729615D02*
X-312159Y+729615D01*
X-291839Y+729615D02*
X-281679Y+729615D01*
X-263899Y+729615D02*
X-253739Y+729615D01*
X-246119Y+729615D02*
X-235959Y+729615D01*
X-218179Y+729615D02*
X-208019Y+729615D01*
X-594099Y+732155D02*
X-583939Y+732155D01*
X-525519Y+732155D02*
X-512819Y+732155D01*
X-479799Y+732155D02*
X-469639Y+732155D01*
X-411219Y+732155D02*
X-401059Y+732155D01*
X-383279Y+732155D02*
X-373119Y+732155D01*
X-322319Y+732155D02*
X-312159Y+732155D01*
X-291839Y+732155D02*
X-281679Y+732155D01*
X-263899Y+732155D02*
X-253739Y+732155D01*
X-246119Y+732155D02*
X-235959Y+732155D01*
X-218179Y+732155D02*
X-208019Y+732155D01*
X-594099Y+734695D02*
X-583939Y+734695D01*
X-522979Y+734695D02*
X-512819Y+734695D01*
X-479799Y+734695D02*
X-469639Y+734695D01*
X-411219Y+734695D02*
X-401059Y+734695D01*
X-378199Y+734695D02*
X-373119Y+734695D01*
X-322319Y+734695D02*
X-312159Y+734695D01*
X-291839Y+734695D02*
X-281679Y+734695D01*
X-266439Y+734695D02*
X-256279Y+734695D01*
X-243579Y+734695D02*
X-233419Y+734695D01*
X-218179Y+734695D02*
X-208019Y+734695D01*
X-594099Y+737235D02*
X-583939Y+737235D01*
X-522979Y+737235D02*
X-510279Y+737235D01*
X-479799Y+737235D02*
X-469639Y+737235D01*
X-411219Y+737235D02*
X-401059Y+737235D01*
X-319779Y+737235D02*
X-309619Y+737235D01*
X-291839Y+737235D02*
X-281679Y+737235D01*
X-266439Y+737235D02*
X-256279Y+737235D01*
X-243579Y+737235D02*
X-233419Y+737235D01*
X-218179Y+737235D02*
X-208019Y+737235D01*
X-594099Y+739775D02*
X-583939Y+739775D01*
X-520439Y+739775D02*
X-507739Y+739775D01*
X-479799Y+739775D02*
X-469639Y+739775D01*
X-411219Y+739775D02*
X-401059Y+739775D01*
X-319779Y+739775D02*
X-309619Y+739775D01*
X-291839Y+739775D02*
X-281679Y+739775D01*
X-266439Y+739775D02*
X-256279Y+739775D01*
X-243579Y+739775D02*
X-233419Y+739775D01*
X-218179Y+739775D02*
X-208019Y+739775D01*
X-594099Y+742315D02*
X-583939Y+742315D01*
X-517899Y+742315D02*
X-505199Y+742315D01*
X-479799Y+742315D02*
X-469639Y+742315D01*
X-411219Y+742315D02*
X-401059Y+742315D01*
X-319779Y+742315D02*
X-309619Y+742315D01*
X-291839Y+742315D02*
X-281679Y+742315D01*
X-268979Y+742315D02*
X-258819Y+742315D01*
X-241039Y+742315D02*
X-230879Y+742315D01*
X-218179Y+742315D02*
X-208019Y+742315D01*
X-594099Y+744855D02*
X-583939Y+744855D01*
X-515359Y+744855D02*
X-502659Y+744855D01*
X-479799Y+744855D02*
X-469639Y+744855D01*
X-411219Y+744855D02*
X-401059Y+744855D01*
X-319779Y+744855D02*
X-309619Y+744855D01*
X-291839Y+744855D02*
X-281679Y+744855D01*
X-268979Y+744855D02*
X-258819Y+744855D01*
X-241039Y+744855D02*
X-230879Y+744855D01*
X-218179Y+744855D02*
X-208019Y+744855D01*
X-594099Y+747395D02*
X-583939Y+747395D01*
X-520439Y+747395D02*
X-469639Y+747395D01*
X-411219Y+747395D02*
X-401059Y+747395D01*
X-319779Y+747395D02*
X-309619Y+747395D01*
X-291839Y+747395D02*
X-281679Y+747395D01*
X-268979Y+747395D02*
X-258819Y+747395D01*
X-241039Y+747395D02*
X-230879Y+747395D01*
X-218179Y+747395D02*
X-208019Y+747395D01*
X-594099Y+749935D02*
X-583939Y+749935D01*
X-525519Y+749935D02*
X-469639Y+749935D01*
X-411219Y+749935D02*
X-401059Y+749935D01*
X-319779Y+749935D02*
X-309619Y+749935D01*
X-291839Y+749935D02*
X-281679Y+749935D01*
X-271519Y+749935D02*
X-261359Y+749935D01*
X-238499Y+749935D02*
X-228339Y+749935D01*
X-218179Y+749935D02*
X-208019Y+749935D01*
X-594099Y+752475D02*
X-583939Y+752475D01*
X-530599Y+752475D02*
X-469639Y+752475D01*
X-411219Y+752475D02*
X-401059Y+752475D01*
X-319779Y+752475D02*
X-309619Y+752475D01*
X-291839Y+752475D02*
X-281679Y+752475D01*
X-271519Y+752475D02*
X-261359Y+752475D01*
X-238499Y+752475D02*
X-228339Y+752475D01*
X-218179Y+752475D02*
X-208019Y+752475D01*
X-594099Y+755015D02*
X-583939Y+755015D01*
X-533139Y+755015D02*
X-469639Y+755015D01*
X-411219Y+755015D02*
X-401059Y+755015D01*
X-319779Y+755015D02*
X-309619Y+755015D01*
X-291839Y+755015D02*
X-281679Y+755015D01*
X-271519Y+755015D02*
X-261359Y+755015D01*
X-238499Y+755015D02*
X-228339Y+755015D01*
X-218179Y+755015D02*
X-208019Y+755015D01*
X-594099Y+757555D02*
X-583939Y+757555D01*
X-535679Y+757555D02*
X-515359Y+757555D01*
X-479799Y+757555D02*
X-469639Y+757555D01*
X-411219Y+757555D02*
X-401059Y+757555D01*
X-319779Y+757555D02*
X-309619Y+757555D01*
X-291839Y+757555D02*
X-281679Y+757555D01*
X-274059Y+757555D02*
X-263899Y+757555D01*
X-235959Y+757555D02*
X-225799Y+757555D01*
X-218179Y+757555D02*
X-208019Y+757555D01*
X-594099Y+760095D02*
X-583939Y+760095D01*
X-535679Y+760095D02*
X-522979Y+760095D01*
X-479799Y+760095D02*
X-469639Y+760095D01*
X-411219Y+760095D02*
X-401059Y+760095D01*
X-319779Y+760095D02*
X-309619Y+760095D01*
X-291839Y+760095D02*
X-281679Y+760095D01*
X-274059Y+760095D02*
X-263899Y+760095D01*
X-235959Y+760095D02*
X-225799Y+760095D01*
X-218179Y+760095D02*
X-208019Y+760095D01*
X-594099Y+762635D02*
X-583939Y+762635D01*
X-563619Y+762635D02*
X-561079Y+762635D01*
X-538219Y+762635D02*
X-525519Y+762635D01*
X-479799Y+762635D02*
X-469639Y+762635D01*
X-411219Y+762635D02*
X-401059Y+762635D01*
X-319779Y+762635D02*
X-309619Y+762635D01*
X-291839Y+762635D02*
X-281679Y+762635D01*
X-274059Y+762635D02*
X-263899Y+762635D01*
X-235959Y+762635D02*
X-225799Y+762635D01*
X-218179Y+762635D02*
X-208019Y+762635D01*
X-594099Y+765175D02*
X-583939Y+765175D01*
X-568699Y+765175D02*
X-561079Y+765175D01*
X-538219Y+765175D02*
X-528059Y+765175D01*
X-479799Y+765175D02*
X-469639Y+765175D01*
X-411219Y+765175D02*
X-401059Y+765175D01*
X-322319Y+765175D02*
X-312159Y+765175D01*
X-291839Y+765175D02*
X-281679Y+765175D01*
X-276599Y+765175D02*
X-266439Y+765175D01*
X-233419Y+765175D02*
X-223259Y+765175D01*
X-218179Y+765175D02*
X-208019Y+765175D01*
X-594099Y+767715D02*
X-583939Y+767715D01*
X-573779Y+767715D02*
X-561079Y+767715D01*
X-538219Y+767715D02*
X-528059Y+767715D01*
X-479799Y+767715D02*
X-469639Y+767715D01*
X-411219Y+767715D02*
X-401059Y+767715D01*
X-322319Y+767715D02*
X-312159Y+767715D01*
X-291839Y+767715D02*
X-281679Y+767715D01*
X-276599Y+767715D02*
X-266439Y+767715D01*
X-233419Y+767715D02*
X-223259Y+767715D01*
X-218179Y+767715D02*
X-208019Y+767715D01*
X-594099Y+770255D02*
X-583939Y+770255D01*
X-578859Y+770255D02*
X-561079Y+770255D01*
X-538219Y+770255D02*
X-528059Y+770255D01*
X-479799Y+770255D02*
X-469639Y+770255D01*
X-411219Y+770255D02*
X-401059Y+770255D01*
X-380739Y+770255D02*
X-370579Y+770255D01*
X-322319Y+770255D02*
X-312159Y+770255D01*
X-291839Y+770255D02*
X-281679Y+770255D01*
X-276599Y+770255D02*
X-266439Y+770255D01*
X-233419Y+770255D02*
X-223259Y+770255D01*
X-218179Y+770255D02*
X-208019Y+770255D01*
X-594099Y+772795D02*
X-583939Y+772795D01*
X-581399Y+772795D02*
X-563619Y+772795D01*
X-538219Y+772795D02*
X-528059Y+772795D01*
X-479799Y+772795D02*
X-469639Y+772795D01*
X-411219Y+772795D02*
X-401059Y+772795D01*
X-380739Y+772795D02*
X-368039Y+772795D01*
X-324859Y+772795D02*
X-312159Y+772795D01*
X-291839Y+772795D02*
X-281679Y+772795D01*
X-279139Y+772795D02*
X-266439Y+772795D01*
X-233419Y+772795D02*
X-220719Y+772795D01*
X-218179Y+772795D02*
X-208019Y+772795D01*
X-594099Y+775335D02*
X-566159Y+775335D01*
X-538219Y+775335D02*
X-528059Y+775335D01*
X-479799Y+775335D02*
X-469639Y+775335D01*
X-411219Y+775335D02*
X-401059Y+775335D01*
X-378199Y+775335D02*
X-368039Y+775335D01*
X-324859Y+775335D02*
X-314699Y+775335D01*
X-291839Y+775335D02*
X-281679Y+775335D01*
X-279139Y+775335D02*
X-268979Y+775335D01*
X-230879Y+775335D02*
X-220719Y+775335D01*
X-218179Y+775335D02*
X-208019Y+775335D01*
X-594099Y+777875D02*
X-571239Y+777875D01*
X-538219Y+777875D02*
X-525519Y+777875D01*
X-479799Y+777875D02*
X-469639Y+777875D01*
X-411219Y+777875D02*
X-401059Y+777875D01*
X-378199Y+777875D02*
X-365499Y+777875D01*
X-327399Y+777875D02*
X-314699Y+777875D01*
X-291839Y+777875D02*
X-281679Y+777875D01*
X-279139Y+777875D02*
X-268979Y+777875D01*
X-230879Y+777875D02*
X-220719Y+777875D01*
X-218179Y+777875D02*
X-208019Y+777875D01*
X-594099Y+780415D02*
X-573779Y+780415D01*
X-535679Y+780415D02*
X-522979Y+780415D01*
X-479799Y+780415D02*
X-469639Y+780415D01*
X-411219Y+780415D02*
X-401059Y+780415D01*
X-375659Y+780415D02*
X-362959Y+780415D01*
X-329939Y+780415D02*
X-317239Y+780415D01*
X-291839Y+780415D02*
X-268979Y+780415D01*
X-230879Y+780415D02*
X-208019Y+780415D01*
X-594099Y+782955D02*
X-578859Y+782955D01*
X-535679Y+782955D02*
X-517899Y+782955D01*
X-479799Y+782955D02*
X-469639Y+782955D01*
X-411219Y+782955D02*
X-401059Y+782955D01*
X-375659Y+782955D02*
X-360419Y+782955D01*
X-332479Y+782955D02*
X-319779Y+782955D01*
X-291839Y+782955D02*
X-271519Y+782955D01*
X-228339Y+782955D02*
X-208019Y+782955D01*
X-594099Y+785495D02*
X-581399Y+785495D01*
X-533139Y+785495D02*
X-469639Y+785495D01*
X-411219Y+785495D02*
X-401059Y+785495D01*
X-373119Y+785495D02*
X-355339Y+785495D01*
X-340099Y+785495D02*
X-322319Y+785495D01*
X-291839Y+785495D02*
X-271519Y+785495D01*
X-228339Y+785495D02*
X-208019Y+785495D01*
X-594099Y+788035D02*
X-583939Y+788035D01*
X-530599Y+788035D02*
X-469639Y+788035D01*
X-411219Y+788035D02*
X-401059Y+788035D01*
X-370579Y+788035D02*
X-324859Y+788035D01*
X-291839Y+788035D02*
X-271519Y+788035D01*
X-228339Y+788035D02*
X-208019Y+788035D01*
X-594099Y+790575D02*
X-583939Y+790575D01*
X-528059Y+790575D02*
X-469639Y+790575D01*
X-411219Y+790575D02*
X-401059Y+790575D01*
X-368039Y+790575D02*
X-327399Y+790575D01*
X-291839Y+790575D02*
X-274059Y+790575D01*
X-225799Y+790575D02*
X-208019Y+790575D01*
X-594099Y+793115D02*
X-586479Y+793115D01*
X-520439Y+793115D02*
X-469639Y+793115D01*
X-411219Y+793115D02*
X-401059Y+793115D01*
X-365499Y+793115D02*
X-332479Y+793115D01*
X-291839Y+793115D02*
X-274059Y+793115D01*
X-225799Y+793115D02*
X-208019Y+793115D01*
X-357879Y+795655D02*
X-337559Y+795655D01*
X-346754Y+452755D02*
X-336594Y+452755D01*
X-265474Y+452755D02*
X-222294Y+452755D01*
X-176574Y+452755D02*
X-133394Y+452755D01*
X-87674Y+452755D02*
X-74974Y+452755D01*
X-346754Y+455295D02*
X-336594Y+455295D01*
X-273094Y+455295D02*
X-222294Y+455295D01*
X-184194Y+455295D02*
X-133394Y+455295D01*
X-90214Y+455295D02*
X-72434Y+455295D01*
X-346754Y+457835D02*
X-336594Y+457835D01*
X-278174Y+457835D02*
X-222294Y+457835D01*
X-189274Y+457835D02*
X-133394Y+457835D01*
X-90214Y+457835D02*
X-72434Y+457835D01*
X-346754Y+460375D02*
X-336594Y+460375D01*
X-280714Y+460375D02*
X-222294Y+460375D01*
X-191814Y+460375D02*
X-133394Y+460375D01*
X-90214Y+460375D02*
X-72434Y+460375D01*
X-346754Y+462915D02*
X-336594Y+462915D01*
X-283254Y+462915D02*
X-265474Y+462915D01*
X-232454Y+462915D02*
X-222294Y+462915D01*
X-194354Y+462915D02*
X-176574Y+462915D01*
X-143554Y+462915D02*
X-133394Y+462915D01*
X-92754Y+462915D02*
X-69894Y+462915D01*
X-346754Y+465455D02*
X-336594Y+465455D01*
X-285794Y+465455D02*
X-270554Y+465455D01*
X-232454Y+465455D02*
X-222294Y+465455D01*
X-196894Y+465455D02*
X-181654Y+465455D01*
X-143554Y+465455D02*
X-133394Y+465455D01*
X-92754Y+465455D02*
X-82594Y+465455D01*
X-80054Y+465455D02*
X-69894Y+465455D01*
X-346754Y+467995D02*
X-336594Y+467995D01*
X-285794Y+467995D02*
X-273094Y+467995D01*
X-232454Y+467995D02*
X-222294Y+467995D01*
X-196894Y+467995D02*
X-184194Y+467995D01*
X-143554Y+467995D02*
X-133394Y+467995D01*
X-92754Y+467995D02*
X-82594Y+467995D01*
X-80054Y+467995D02*
X-69894Y+467995D01*
X-346754Y+470535D02*
X-336594Y+470535D01*
X-288334Y+470535D02*
X-275634Y+470535D01*
X-232454Y+470535D02*
X-222294Y+470535D01*
X-199434Y+470535D02*
X-186734Y+470535D01*
X-143554Y+470535D02*
X-133394Y+470535D01*
X-95294Y+470535D02*
X-82594Y+470535D01*
X-80054Y+470535D02*
X-67354Y+470535D01*
X-346754Y+473075D02*
X-336594Y+473075D01*
X-288334Y+473075D02*
X-278174Y+473075D01*
X-232454Y+473075D02*
X-222294Y+473075D01*
X-199434Y+473075D02*
X-189274Y+473075D01*
X-143554Y+473075D02*
X-133394Y+473075D01*
X-95294Y+473075D02*
X-85134Y+473075D01*
X-77514Y+473075D02*
X-67354Y+473075D01*
X-346754Y+475615D02*
X-336594Y+475615D01*
X-290874Y+475615D02*
X-278174Y+475615D01*
X-232454Y+475615D02*
X-222294Y+475615D01*
X-201974Y+475615D02*
X-189274Y+475615D01*
X-143554Y+475615D02*
X-133394Y+475615D01*
X-97834Y+475615D02*
X-85134Y+475615D01*
X-77514Y+475615D02*
X-64814Y+475615D01*
X-346754Y+478155D02*
X-336594Y+478155D01*
X-290874Y+478155D02*
X-280714Y+478155D01*
X-232454Y+478155D02*
X-222294Y+478155D01*
X-201974Y+478155D02*
X-191814Y+478155D01*
X-143554Y+478155D02*
X-133394Y+478155D01*
X-97834Y+478155D02*
X-87674Y+478155D01*
X-74974Y+478155D02*
X-64814Y+478155D01*
X-346754Y+480695D02*
X-336594Y+480695D01*
X-290874Y+480695D02*
X-280714Y+480695D01*
X-232454Y+480695D02*
X-222294Y+480695D01*
X-201974Y+480695D02*
X-191814Y+480695D01*
X-143554Y+480695D02*
X-133394Y+480695D01*
X-97834Y+480695D02*
X-87674Y+480695D01*
X-74974Y+480695D02*
X-64814Y+480695D01*
X-346754Y+483235D02*
X-336594Y+483235D01*
X-293414Y+483235D02*
X-280714Y+483235D01*
X-232454Y+483235D02*
X-222294Y+483235D01*
X-204514Y+483235D02*
X-191814Y+483235D01*
X-143554Y+483235D02*
X-133394Y+483235D01*
X-100374Y+483235D02*
X-87674Y+483235D01*
X-74974Y+483235D02*
X-62274Y+483235D01*
X-346754Y+485775D02*
X-336594Y+485775D01*
X-293414Y+485775D02*
X-283254Y+485775D01*
X-232454Y+485775D02*
X-222294Y+485775D01*
X-204514Y+485775D02*
X-194354Y+485775D01*
X-143554Y+485775D02*
X-133394Y+485775D01*
X-100374Y+485775D02*
X-90214Y+485775D01*
X-72434Y+485775D02*
X-62274Y+485775D01*
X-346754Y+488315D02*
X-336594Y+488315D01*
X-293414Y+488315D02*
X-283254Y+488315D01*
X-232454Y+488315D02*
X-222294Y+488315D01*
X-204514Y+488315D02*
X-194354Y+488315D01*
X-143554Y+488315D02*
X-133394Y+488315D01*
X-100374Y+488315D02*
X-90214Y+488315D01*
X-72434Y+488315D02*
X-62274Y+488315D01*
X-346754Y+490855D02*
X-336594Y+490855D01*
X-293414Y+490855D02*
X-283254Y+490855D01*
X-232454Y+490855D02*
X-222294Y+490855D01*
X-204514Y+490855D02*
X-194354Y+490855D01*
X-143554Y+490855D02*
X-133394Y+490855D01*
X-102914Y+490855D02*
X-90214Y+490855D01*
X-69894Y+490855D02*
X-59734Y+490855D01*
X-346754Y+493395D02*
X-336594Y+493395D01*
X-293414Y+493395D02*
X-283254Y+493395D01*
X-232454Y+493395D02*
X-222294Y+493395D01*
X-204514Y+493395D02*
X-194354Y+493395D01*
X-143554Y+493395D02*
X-133394Y+493395D01*
X-102914Y+493395D02*
X-92754Y+493395D01*
X-69894Y+493395D02*
X-59734Y+493395D01*
X-346754Y+495935D02*
X-336594Y+495935D01*
X-293414Y+495935D02*
X-283254Y+495935D01*
X-232454Y+495935D02*
X-222294Y+495935D01*
X-204514Y+495935D02*
X-194354Y+495935D01*
X-143554Y+495935D02*
X-133394Y+495935D01*
X-105454Y+495935D02*
X-92754Y+495935D01*
X-69894Y+495935D02*
X-57194Y+495935D01*
X-346754Y+498475D02*
X-336594Y+498475D01*
X-293414Y+498475D02*
X-283254Y+498475D01*
X-232454Y+498475D02*
X-222294Y+498475D01*
X-204514Y+498475D02*
X-194354Y+498475D01*
X-143554Y+498475D02*
X-133394Y+498475D01*
X-105454Y+498475D02*
X-95294Y+498475D01*
X-67354Y+498475D02*
X-57194Y+498475D01*
X-346754Y+501015D02*
X-336594Y+501015D01*
X-293414Y+501015D02*
X-283254Y+501015D01*
X-232454Y+501015D02*
X-222294Y+501015D01*
X-204514Y+501015D02*
X-194354Y+501015D01*
X-143554Y+501015D02*
X-133394Y+501015D01*
X-105454Y+501015D02*
X-95294Y+501015D01*
X-67354Y+501015D02*
X-57194Y+501015D01*
X-346754Y+503555D02*
X-336594Y+503555D01*
X-293414Y+503555D02*
X-283254Y+503555D01*
X-232454Y+503555D02*
X-222294Y+503555D01*
X-204514Y+503555D02*
X-194354Y+503555D01*
X-143554Y+503555D02*
X-133394Y+503555D01*
X-107994Y+503555D02*
X-95294Y+503555D01*
X-67354Y+503555D02*
X-54654Y+503555D01*
X-346754Y+506095D02*
X-336594Y+506095D01*
X-293414Y+506095D02*
X-283254Y+506095D01*
X-232454Y+506095D02*
X-222294Y+506095D01*
X-204514Y+506095D02*
X-194354Y+506095D01*
X-143554Y+506095D02*
X-133394Y+506095D01*
X-107994Y+506095D02*
X-97834Y+506095D01*
X-64814Y+506095D02*
X-54654Y+506095D01*
X-346754Y+508635D02*
X-336594Y+508635D01*
X-316274Y+508635D02*
X-313734Y+508635D01*
X-293414Y+508635D02*
X-283254Y+508635D01*
X-232454Y+508635D02*
X-222294Y+508635D01*
X-204514Y+508635D02*
X-194354Y+508635D01*
X-143554Y+508635D02*
X-133394Y+508635D01*
X-107994Y+508635D02*
X-97834Y+508635D01*
X-64814Y+508635D02*
X-54654Y+508635D01*
X-346754Y+511175D02*
X-336594Y+511175D01*
X-321354Y+511175D02*
X-313734Y+511175D01*
X-290874Y+511175D02*
X-280714Y+511175D01*
X-232454Y+511175D02*
X-222294Y+511175D01*
X-201974Y+511175D02*
X-191814Y+511175D01*
X-143554Y+511175D02*
X-133394Y+511175D01*
X-110534Y+511175D02*
X-100374Y+511175D01*
X-62274Y+511175D02*
X-52114Y+511175D01*
X-346754Y+513715D02*
X-336594Y+513715D01*
X-326434Y+513715D02*
X-313734Y+513715D01*
X-290874Y+513715D02*
X-280714Y+513715D01*
X-232454Y+513715D02*
X-222294Y+513715D01*
X-201974Y+513715D02*
X-191814Y+513715D01*
X-143554Y+513715D02*
X-133394Y+513715D01*
X-110534Y+513715D02*
X-100374Y+513715D01*
X-62274Y+513715D02*
X-52114Y+513715D01*
X-346754Y+516255D02*
X-336594Y+516255D01*
X-331514Y+516255D02*
X-313734Y+516255D01*
X-290874Y+516255D02*
X-280714Y+516255D01*
X-232454Y+516255D02*
X-222294Y+516255D01*
X-201974Y+516255D02*
X-191814Y+516255D01*
X-143554Y+516255D02*
X-133394Y+516255D01*
X-113074Y+516255D02*
X-100374Y+516255D01*
X-62274Y+516255D02*
X-49574Y+516255D01*
X-346754Y+518795D02*
X-336594Y+518795D01*
X-334054Y+518795D02*
X-316274Y+518795D01*
X-288334Y+518795D02*
X-278174Y+518795D01*
X-232454Y+518795D02*
X-222294Y+518795D01*
X-199434Y+518795D02*
X-189274Y+518795D01*
X-143554Y+518795D02*
X-133394Y+518795D01*
X-113074Y+518795D02*
X-102914Y+518795D01*
X-59734Y+518795D02*
X-49574Y+518795D01*
X-346754Y+521335D02*
X-318814Y+521335D01*
X-288334Y+521335D02*
X-275634Y+521335D01*
X-232454Y+521335D02*
X-222294Y+521335D01*
X-199434Y+521335D02*
X-186734Y+521335D01*
X-143554Y+521335D02*
X-133394Y+521335D01*
X-113074Y+521335D02*
X-102914Y+521335D01*
X-59734Y+521335D02*
X-49574Y+521335D01*
X-346754Y+523875D02*
X-323894Y+523875D01*
X-288334Y+523875D02*
X-273094Y+523875D01*
X-232454Y+523875D02*
X-222294Y+523875D01*
X-199434Y+523875D02*
X-184194Y+523875D01*
X-143554Y+523875D02*
X-133394Y+523875D01*
X-115614Y+523875D02*
X-102914Y+523875D01*
X-57194Y+523875D02*
X-47034Y+523875D01*
X-346754Y+526415D02*
X-326434Y+526415D01*
X-285794Y+526415D02*
X-270554Y+526415D01*
X-232454Y+526415D02*
X-222294Y+526415D01*
X-196894Y+526415D02*
X-181654Y+526415D01*
X-143554Y+526415D02*
X-133394Y+526415D01*
X-115614Y+526415D02*
X-105454Y+526415D01*
X-57194Y+526415D02*
X-47034Y+526415D01*
X-346754Y+528955D02*
X-331514Y+528955D01*
X-283254Y+528955D02*
X-265474Y+528955D01*
X-232454Y+528955D02*
X-222294Y+528955D01*
X-194354Y+528955D02*
X-176574Y+528955D01*
X-143554Y+528955D02*
X-133394Y+528955D01*
X-115614Y+528955D02*
X-105454Y+528955D01*
X-57194Y+528955D02*
X-47034Y+528955D01*
X-346754Y+531495D02*
X-334054Y+531495D01*
X-280714Y+531495D02*
X-222294Y+531495D01*
X-191814Y+531495D02*
X-133394Y+531495D01*
X-118154Y+531495D02*
X-107994Y+531495D01*
X-54654Y+531495D02*
X-44494Y+531495D01*
X-346754Y+534035D02*
X-336594Y+534035D01*
X-278174Y+534035D02*
X-222294Y+534035D01*
X-189274Y+534035D02*
X-133394Y+534035D01*
X-118154Y+534035D02*
X-107994Y+534035D01*
X-54654Y+534035D02*
X-44494Y+534035D01*
X-346754Y+536575D02*
X-336594Y+536575D01*
X-273094Y+536575D02*
X-222294Y+536575D01*
X-184194Y+536575D02*
X-133394Y+536575D01*
X-120694Y+536575D02*
X-107994Y+536575D01*
X-54654Y+536575D02*
X-41954Y+536575D01*
X-346754Y+539115D02*
X-339134Y+539115D01*
X-268014Y+539115D02*
X-222294Y+539115D01*
X-179114Y+539115D02*
X-133394Y+539115D01*
X-120694Y+539115D02*
X-110534Y+539115D01*
X-52114Y+539115D02*
X-41954Y+539115D01*
X-261376Y+196215D02*
X-238516Y+196215D01*
X-436636Y+198755D02*
X-393456Y+198755D01*
X-373136Y+198755D02*
X-360436Y+198755D01*
X-314716Y+198755D02*
X-304556Y+198755D01*
X-268996Y+198755D02*
X-230896Y+198755D01*
X-444256Y+201295D02*
X-393456Y+201295D01*
X-373136Y+201295D02*
X-360436Y+201295D01*
X-314716Y+201295D02*
X-304556Y+201295D01*
X-274076Y+201295D02*
X-225816Y+201295D01*
X-449336Y+203835D02*
X-393456Y+203835D01*
X-373136Y+203835D02*
X-357896Y+203835D01*
X-314716Y+203835D02*
X-304556Y+203835D01*
X-279156Y+203835D02*
X-220736Y+203835D01*
X-451876Y+206375D02*
X-393456Y+206375D01*
X-373136Y+206375D02*
X-355356Y+206375D01*
X-314716Y+206375D02*
X-304556Y+206375D01*
X-284236Y+206375D02*
X-258836Y+206375D01*
X-238516Y+206375D02*
X-218196Y+206375D01*
X-454416Y+208915D02*
X-436636Y+208915D01*
X-403616Y+208915D02*
X-393456Y+208915D01*
X-373136Y+208915D02*
X-355356Y+208915D01*
X-314716Y+208915D02*
X-304556Y+208915D01*
X-286776Y+208915D02*
X-266456Y+208915D01*
X-233436Y+208915D02*
X-215656Y+208915D01*
X-456956Y+211455D02*
X-441716Y+211455D01*
X-403616Y+211455D02*
X-393456Y+211455D01*
X-373136Y+211455D02*
X-352816Y+211455D01*
X-314716Y+211455D02*
X-304556Y+211455D01*
X-286776Y+211455D02*
X-271536Y+211455D01*
X-228356Y+211455D02*
X-215656Y+211455D01*
X-456956Y+213995D02*
X-444256Y+213995D01*
X-403616Y+213995D02*
X-393456Y+213995D01*
X-373136Y+213995D02*
X-350276Y+213995D01*
X-314716Y+213995D02*
X-304556Y+213995D01*
X-286776Y+213995D02*
X-274076Y+213995D01*
X-225816Y+213995D02*
X-213116Y+213995D01*
X-459496Y+216535D02*
X-446796Y+216535D01*
X-403616Y+216535D02*
X-393456Y+216535D01*
X-373136Y+216535D02*
X-362976Y+216535D01*
X-360436Y+216535D02*
X-350276Y+216535D01*
X-314716Y+216535D02*
X-304556Y+216535D01*
X-286776Y+216535D02*
X-276616Y+216535D01*
X-223276Y+216535D02*
X-210576Y+216535D01*
X-459496Y+219075D02*
X-449336Y+219075D01*
X-403616Y+219075D02*
X-393456Y+219075D01*
X-373136Y+219075D02*
X-362976Y+219075D01*
X-360436Y+219075D02*
X-347736Y+219075D01*
X-314716Y+219075D02*
X-304556Y+219075D01*
X-286776Y+219075D02*
X-276616Y+219075D01*
X-220736Y+219075D02*
X-210576Y+219075D01*
X-462036Y+221615D02*
X-449336Y+221615D01*
X-403616Y+221615D02*
X-393456Y+221615D01*
X-373136Y+221615D02*
X-362976Y+221615D01*
X-357896Y+221615D02*
X-345196Y+221615D01*
X-314716Y+221615D02*
X-304556Y+221615D01*
X-286776Y+221615D02*
X-276616Y+221615D01*
X-220736Y+221615D02*
X-208036Y+221615D01*
X-462036Y+224155D02*
X-451876Y+224155D01*
X-403616Y+224155D02*
X-393456Y+224155D01*
X-373136Y+224155D02*
X-362976Y+224155D01*
X-355356Y+224155D02*
X-345196Y+224155D01*
X-314716Y+224155D02*
X-304556Y+224155D01*
X-286776Y+224155D02*
X-276616Y+224155D01*
X-218196Y+224155D02*
X-208036Y+224155D01*
X-462036Y+226695D02*
X-451876Y+226695D01*
X-403616Y+226695D02*
X-393456Y+226695D01*
X-373136Y+226695D02*
X-362976Y+226695D01*
X-355356Y+226695D02*
X-342656Y+226695D01*
X-314716Y+226695D02*
X-304556Y+226695D01*
X-286776Y+226695D02*
X-276616Y+226695D01*
X-218196Y+226695D02*
X-208036Y+226695D01*
X-464576Y+229235D02*
X-451876Y+229235D01*
X-403616Y+229235D02*
X-393456Y+229235D01*
X-373136Y+229235D02*
X-362976Y+229235D01*
X-352816Y+229235D02*
X-342656Y+229235D01*
X-314716Y+229235D02*
X-304556Y+229235D01*
X-286776Y+229235D02*
X-276616Y+229235D01*
X-218196Y+229235D02*
X-205496Y+229235D01*
X-464576Y+231775D02*
X-454416Y+231775D01*
X-403616Y+231775D02*
X-393456Y+231775D01*
X-373136Y+231775D02*
X-362976Y+231775D01*
X-350276Y+231775D02*
X-340116Y+231775D01*
X-314716Y+231775D02*
X-304556Y+231775D01*
X-286776Y+231775D02*
X-276616Y+231775D01*
X-215656Y+231775D02*
X-205496Y+231775D01*
X-464576Y+234315D02*
X-454416Y+234315D01*
X-403616Y+234315D02*
X-393456Y+234315D01*
X-373136Y+234315D02*
X-362976Y+234315D01*
X-350276Y+234315D02*
X-337576Y+234315D01*
X-314716Y+234315D02*
X-304556Y+234315D01*
X-286776Y+234315D02*
X-248676Y+234315D01*
X-215656Y+234315D02*
X-205496Y+234315D01*
X-464576Y+236855D02*
X-454416Y+236855D01*
X-403616Y+236855D02*
X-393456Y+236855D01*
X-373136Y+236855D02*
X-362976Y+236855D01*
X-347736Y+236855D02*
X-337576Y+236855D01*
X-314716Y+236855D02*
X-304556Y+236855D01*
X-286776Y+236855D02*
X-248676Y+236855D01*
X-215656Y+236855D02*
X-205496Y+236855D01*
X-464576Y+239395D02*
X-454416Y+239395D01*
X-403616Y+239395D02*
X-393456Y+239395D01*
X-373136Y+239395D02*
X-362976Y+239395D01*
X-345196Y+239395D02*
X-335036Y+239395D01*
X-314716Y+239395D02*
X-304556Y+239395D01*
X-286776Y+239395D02*
X-248676Y+239395D01*
X-215656Y+239395D02*
X-205496Y+239395D01*
X-464576Y+241935D02*
X-454416Y+241935D01*
X-403616Y+241935D02*
X-393456Y+241935D01*
X-373136Y+241935D02*
X-362976Y+241935D01*
X-345196Y+241935D02*
X-332496Y+241935D01*
X-314716Y+241935D02*
X-304556Y+241935D01*
X-286776Y+241935D02*
X-248676Y+241935D01*
X-215656Y+241935D02*
X-205496Y+241935D01*
X-464576Y+244475D02*
X-454416Y+244475D01*
X-403616Y+244475D02*
X-393456Y+244475D01*
X-373136Y+244475D02*
X-362976Y+244475D01*
X-342656Y+244475D02*
X-332496Y+244475D01*
X-314716Y+244475D02*
X-304556Y+244475D01*
X-215656Y+244475D02*
X-205496Y+244475D01*
X-464576Y+247015D02*
X-454416Y+247015D01*
X-403616Y+247015D02*
X-393456Y+247015D01*
X-373136Y+247015D02*
X-362976Y+247015D01*
X-340116Y+247015D02*
X-329956Y+247015D01*
X-314716Y+247015D02*
X-304556Y+247015D01*
X-215656Y+247015D02*
X-205496Y+247015D01*
X-464576Y+249555D02*
X-454416Y+249555D01*
X-403616Y+249555D02*
X-393456Y+249555D01*
X-373136Y+249555D02*
X-362976Y+249555D01*
X-340116Y+249555D02*
X-327416Y+249555D01*
X-314716Y+249555D02*
X-304556Y+249555D01*
X-215656Y+249555D02*
X-205496Y+249555D01*
X-464576Y+252095D02*
X-454416Y+252095D01*
X-403616Y+252095D02*
X-393456Y+252095D01*
X-373136Y+252095D02*
X-362976Y+252095D01*
X-337576Y+252095D02*
X-327416Y+252095D01*
X-314716Y+252095D02*
X-304556Y+252095D01*
X-215656Y+252095D02*
X-205496Y+252095D01*
X-464576Y+254635D02*
X-454416Y+254635D01*
X-403616Y+254635D02*
X-393456Y+254635D01*
X-373136Y+254635D02*
X-362976Y+254635D01*
X-335036Y+254635D02*
X-324876Y+254635D01*
X-314716Y+254635D02*
X-304556Y+254635D01*
X-218196Y+254635D02*
X-208036Y+254635D01*
X-462036Y+257175D02*
X-451876Y+257175D01*
X-403616Y+257175D02*
X-393456Y+257175D01*
X-373136Y+257175D02*
X-362976Y+257175D01*
X-335036Y+257175D02*
X-322336Y+257175D01*
X-314716Y+257175D02*
X-304556Y+257175D01*
X-218196Y+257175D02*
X-208036Y+257175D01*
X-462036Y+259715D02*
X-451876Y+259715D01*
X-403616Y+259715D02*
X-393456Y+259715D01*
X-373136Y+259715D02*
X-362976Y+259715D01*
X-332496Y+259715D02*
X-322336Y+259715D01*
X-314716Y+259715D02*
X-304556Y+259715D01*
X-218196Y+259715D02*
X-208036Y+259715D01*
X-462036Y+262255D02*
X-451876Y+262255D01*
X-403616Y+262255D02*
X-393456Y+262255D01*
X-373136Y+262255D02*
X-362976Y+262255D01*
X-332496Y+262255D02*
X-319796Y+262255D01*
X-314716Y+262255D02*
X-304556Y+262255D01*
X-286776Y+262255D02*
X-274076Y+262255D01*
X-220736Y+262255D02*
X-208036Y+262255D01*
X-459496Y+264795D02*
X-449336Y+264795D01*
X-403616Y+264795D02*
X-393456Y+264795D01*
X-373136Y+264795D02*
X-362976Y+264795D01*
X-329956Y+264795D02*
X-317256Y+264795D01*
X-314716Y+264795D02*
X-304556Y+264795D01*
X-284236Y+264795D02*
X-274076Y+264795D01*
X-220736Y+264795D02*
X-210576Y+264795D01*
X-459496Y+267335D02*
X-446796Y+267335D01*
X-403616Y+267335D02*
X-393456Y+267335D01*
X-373136Y+267335D02*
X-362976Y+267335D01*
X-327416Y+267335D02*
X-317256Y+267335D01*
X-314716Y+267335D02*
X-304556Y+267335D01*
X-284236Y+267335D02*
X-274076Y+267335D01*
X-223276Y+267335D02*
X-210576Y+267335D01*
X-459496Y+269875D02*
X-444256Y+269875D01*
X-403616Y+269875D02*
X-393456Y+269875D01*
X-373136Y+269875D02*
X-362976Y+269875D01*
X-327416Y+269875D02*
X-304556Y+269875D01*
X-284236Y+269875D02*
X-271536Y+269875D01*
X-225816Y+269875D02*
X-213116Y+269875D01*
X-456956Y+272415D02*
X-441716Y+272415D01*
X-403616Y+272415D02*
X-393456Y+272415D01*
X-373136Y+272415D02*
X-362976Y+272415D01*
X-324876Y+272415D02*
X-304556Y+272415D01*
X-281696Y+272415D02*
X-268996Y+272415D01*
X-228356Y+272415D02*
X-213116Y+272415D01*
X-454416Y+274955D02*
X-436636Y+274955D01*
X-403616Y+274955D02*
X-393456Y+274955D01*
X-373136Y+274955D02*
X-362976Y+274955D01*
X-322336Y+274955D02*
X-304556Y+274955D01*
X-279156Y+274955D02*
X-263916Y+274955D01*
X-233436Y+274955D02*
X-215656Y+274955D01*
X-451876Y+277495D02*
X-393456Y+277495D01*
X-373136Y+277495D02*
X-362976Y+277495D01*
X-322336Y+277495D02*
X-304556Y+277495D01*
X-279156Y+277495D02*
X-258836Y+277495D01*
X-238516Y+277495D02*
X-218196Y+277495D01*
X-449336Y+280035D02*
X-393456Y+280035D01*
X-373136Y+280035D02*
X-362976Y+280035D01*
X-319796Y+280035D02*
X-304556Y+280035D01*
X-276616Y+280035D02*
X-220736Y+280035D01*
X-444256Y+282575D02*
X-393456Y+282575D01*
X-373136Y+282575D02*
X-362976Y+282575D01*
X-317256Y+282575D02*
X-304556Y+282575D01*
X-274076Y+282575D02*
X-225816Y+282575D01*
X-439176Y+285115D02*
X-393456Y+285115D01*
X-373136Y+285115D02*
X-362976Y+285115D01*
X-317256Y+285115D02*
X-304556Y+285115D01*
X-268996Y+285115D02*
X-230896Y+285115D01*
X-261376Y+287655D02*
X-238516Y+287655D01*
X-186135Y-57785D02*
X-163275Y-57785D01*
X-353775Y-55245D02*
X-343615Y-55245D01*
X-272495Y-55245D02*
X-229315Y-55245D01*
X-193755Y-55245D02*
X-155655Y-55245D01*
X-59135Y-55245D02*
X-48975Y-55245D01*
X-353775Y-52705D02*
X-343615Y-52705D01*
X-280115Y-52705D02*
X-229315Y-52705D01*
X-198835Y-52705D02*
X-150575Y-52705D01*
X-59135Y-52705D02*
X-48975Y-52705D01*
X-353775Y-50165D02*
X-343615Y-50165D01*
X-285195Y-50165D02*
X-229315Y-50165D01*
X-203915Y-50165D02*
X-145495Y-50165D01*
X-59135Y-50165D02*
X-48975Y-50165D01*
X-353775Y-47625D02*
X-343615Y-47625D01*
X-287735Y-47625D02*
X-229315Y-47625D01*
X-208995Y-47625D02*
X-183595Y-47625D01*
X-163275Y-47625D02*
X-142955Y-47625D01*
X-59135Y-47625D02*
X-48975Y-47625D01*
X-353775Y-45085D02*
X-343615Y-45085D01*
X-290275Y-45085D02*
X-272495Y-45085D01*
X-239475Y-45085D02*
X-229315Y-45085D01*
X-211535Y-45085D02*
X-191215Y-45085D01*
X-158195Y-45085D02*
X-140415Y-45085D01*
X-59135Y-45085D02*
X-48975Y-45085D01*
X-353775Y-42545D02*
X-343615Y-42545D01*
X-292815Y-42545D02*
X-277575Y-42545D01*
X-239475Y-42545D02*
X-229315Y-42545D01*
X-211535Y-42545D02*
X-196295Y-42545D01*
X-153115Y-42545D02*
X-140415Y-42545D01*
X-59135Y-42545D02*
X-48975Y-42545D01*
X-353775Y-40005D02*
X-343615Y-40005D01*
X-292815Y-40005D02*
X-280115Y-40005D01*
X-239475Y-40005D02*
X-229315Y-40005D01*
X-211535Y-40005D02*
X-198835Y-40005D01*
X-150575Y-40005D02*
X-137875Y-40005D01*
X-59135Y-40005D02*
X-48975Y-40005D01*
X-353775Y-37465D02*
X-343615Y-37465D01*
X-295355Y-37465D02*
X-282655Y-37465D01*
X-239475Y-37465D02*
X-229315Y-37465D01*
X-211535Y-37465D02*
X-201375Y-37465D01*
X-148035Y-37465D02*
X-135335Y-37465D01*
X-59135Y-37465D02*
X-48975Y-37465D01*
X-353775Y-34925D02*
X-343615Y-34925D01*
X-295355Y-34925D02*
X-285195Y-34925D01*
X-239475Y-34925D02*
X-229315Y-34925D01*
X-211535Y-34925D02*
X-201375Y-34925D01*
X-145495Y-34925D02*
X-135335Y-34925D01*
X-59135Y-34925D02*
X-48975Y-34925D01*
X-353775Y-32385D02*
X-343615Y-32385D01*
X-297895Y-32385D02*
X-285195Y-32385D01*
X-239475Y-32385D02*
X-229315Y-32385D01*
X-211535Y-32385D02*
X-201375Y-32385D01*
X-145495Y-32385D02*
X-132795Y-32385D01*
X-59135Y-32385D02*
X-48975Y-32385D01*
X-353775Y-29845D02*
X-343615Y-29845D01*
X-297895Y-29845D02*
X-287735Y-29845D01*
X-239475Y-29845D02*
X-229315Y-29845D01*
X-211535Y-29845D02*
X-201375Y-29845D01*
X-142955Y-29845D02*
X-132795Y-29845D01*
X-59135Y-29845D02*
X-48975Y-29845D01*
X-353775Y-27305D02*
X-343615Y-27305D01*
X-297895Y-27305D02*
X-287735Y-27305D01*
X-239475Y-27305D02*
X-229315Y-27305D01*
X-211535Y-27305D02*
X-201375Y-27305D01*
X-142955Y-27305D02*
X-132795Y-27305D01*
X-59135Y-27305D02*
X-48975Y-27305D01*
X-353775Y-24765D02*
X-343615Y-24765D01*
X-300435Y-24765D02*
X-287735Y-24765D01*
X-239475Y-24765D02*
X-229315Y-24765D01*
X-211535Y-24765D02*
X-201375Y-24765D01*
X-142955Y-24765D02*
X-130255Y-24765D01*
X-59135Y-24765D02*
X-48975Y-24765D01*
X-353775Y-22225D02*
X-343615Y-22225D01*
X-300435Y-22225D02*
X-290275Y-22225D01*
X-239475Y-22225D02*
X-229315Y-22225D01*
X-211535Y-22225D02*
X-201375Y-22225D01*
X-140415Y-22225D02*
X-130255Y-22225D01*
X-59135Y-22225D02*
X-48975Y-22225D01*
X-353775Y-19685D02*
X-343615Y-19685D01*
X-300435Y-19685D02*
X-290275Y-19685D01*
X-239475Y-19685D02*
X-229315Y-19685D01*
X-211535Y-19685D02*
X-173435Y-19685D01*
X-140415Y-19685D02*
X-130255Y-19685D01*
X-94695Y-19685D02*
X-48975Y-19685D01*
X-353775Y-17145D02*
X-343615Y-17145D01*
X-300435Y-17145D02*
X-290275Y-17145D01*
X-239475Y-17145D02*
X-229315Y-17145D01*
X-211535Y-17145D02*
X-173435Y-17145D01*
X-140415Y-17145D02*
X-130255Y-17145D01*
X-102315Y-17145D02*
X-48975Y-17145D01*
X-353775Y-14605D02*
X-343615Y-14605D01*
X-300435Y-14605D02*
X-290275Y-14605D01*
X-239475Y-14605D02*
X-229315Y-14605D01*
X-211535Y-14605D02*
X-173435Y-14605D01*
X-140415Y-14605D02*
X-130255Y-14605D01*
X-107395Y-14605D02*
X-48975Y-14605D01*
X-353775Y-12065D02*
X-343615Y-12065D01*
X-300435Y-12065D02*
X-290275Y-12065D01*
X-239475Y-12065D02*
X-229315Y-12065D01*
X-211535Y-12065D02*
X-173435Y-12065D01*
X-140415Y-12065D02*
X-130255Y-12065D01*
X-107395Y-12065D02*
X-48975Y-12065D01*
X-353775Y-9525D02*
X-343615Y-9525D01*
X-300435Y-9525D02*
X-290275Y-9525D01*
X-239475Y-9525D02*
X-229315Y-9525D01*
X-140415Y-9525D02*
X-130255Y-9525D01*
X-109935Y-9525D02*
X-94695Y-9525D01*
X-59135Y-9525D02*
X-48975Y-9525D01*
X-353775Y-6985D02*
X-343615Y-6985D01*
X-300435Y-6985D02*
X-290275Y-6985D01*
X-239475Y-6985D02*
X-229315Y-6985D01*
X-140415Y-6985D02*
X-130255Y-6985D01*
X-112475Y-6985D02*
X-99775Y-6985D01*
X-59135Y-6985D02*
X-48975Y-6985D01*
X-353775Y-4445D02*
X-343615Y-4445D01*
X-300435Y-4445D02*
X-290275Y-4445D01*
X-239475Y-4445D02*
X-229315Y-4445D01*
X-140415Y-4445D02*
X-130255Y-4445D01*
X-112475Y-4445D02*
X-102315Y-4445D01*
X-59135Y-4445D02*
X-48975Y-4445D01*
X-353775Y-1905D02*
X-343615Y-1905D01*
X-300435Y-1905D02*
X-290275Y-1905D01*
X-239475Y-1905D02*
X-229315Y-1905D01*
X-140415Y-1905D02*
X-130255Y-1905D01*
X-115015Y-1905D02*
X-102315Y-1905D01*
X-59135Y-1905D02*
X-48975Y-1905D01*
X-353775Y+635D02*
X-343615Y+635D01*
X-323295Y+635D02*
X-320755Y+635D01*
X-300435Y+635D02*
X-290275Y+635D01*
X-239475Y+635D02*
X-229315Y+635D01*
X-142955Y+635D02*
X-132795Y+635D01*
X-115015Y+635D02*
X-104855Y+635D01*
X-59135Y+635D02*
X-48975Y+635D01*
X-353775Y+3175D02*
X-343615Y+3175D01*
X-328375Y+3175D02*
X-320755Y+3175D01*
X-297895Y+3175D02*
X-287735Y+3175D01*
X-239475Y+3175D02*
X-229315Y+3175D01*
X-142955Y+3175D02*
X-132795Y+3175D01*
X-115015Y+3175D02*
X-104855Y+3175D01*
X-59135Y+3175D02*
X-48975Y+3175D01*
X-353775Y+5715D02*
X-343615Y+5715D01*
X-333455Y+5715D02*
X-320755Y+5715D01*
X-297895Y+5715D02*
X-287735Y+5715D01*
X-239475Y+5715D02*
X-229315Y+5715D01*
X-142955Y+5715D02*
X-132795Y+5715D01*
X-115015Y+5715D02*
X-104855Y+5715D01*
X-59135Y+5715D02*
X-48975Y+5715D01*
X-353775Y+8255D02*
X-343615Y+8255D01*
X-338535Y+8255D02*
X-320755Y+8255D01*
X-297895Y+8255D02*
X-287735Y+8255D01*
X-239475Y+8255D02*
X-229315Y+8255D01*
X-211535Y+8255D02*
X-198835Y+8255D01*
X-145495Y+8255D02*
X-132795Y+8255D01*
X-115015Y+8255D02*
X-104855Y+8255D01*
X-59135Y+8255D02*
X-48975Y+8255D01*
X-353775Y+10795D02*
X-343615Y+10795D01*
X-341075Y+10795D02*
X-323295Y+10795D01*
X-295355Y+10795D02*
X-285195Y+10795D01*
X-239475Y+10795D02*
X-229315Y+10795D01*
X-208995Y+10795D02*
X-198835Y+10795D01*
X-145495Y+10795D02*
X-135335Y+10795D01*
X-115015Y+10795D02*
X-104855Y+10795D01*
X-59135Y+10795D02*
X-48975Y+10795D01*
X-353775Y+13335D02*
X-325835Y+13335D01*
X-295355Y+13335D02*
X-282655Y+13335D01*
X-239475Y+13335D02*
X-229315Y+13335D01*
X-208995Y+13335D02*
X-198835Y+13335D01*
X-148035Y+13335D02*
X-135335Y+13335D01*
X-115015Y+13335D02*
X-102315Y+13335D01*
X-59135Y+13335D02*
X-48975Y+13335D01*
X-353775Y+15875D02*
X-330915Y+15875D01*
X-295355Y+15875D02*
X-280115Y+15875D01*
X-239475Y+15875D02*
X-229315Y+15875D01*
X-208995Y+15875D02*
X-196295Y+15875D01*
X-150575Y+15875D02*
X-137875Y+15875D01*
X-112475Y+15875D02*
X-102315Y+15875D01*
X-59135Y+15875D02*
X-48975Y+15875D01*
X-353775Y+18415D02*
X-333455Y+18415D01*
X-292815Y+18415D02*
X-277575Y+18415D01*
X-239475Y+18415D02*
X-229315Y+18415D01*
X-206455Y+18415D02*
X-193755Y+18415D01*
X-153115Y+18415D02*
X-137875Y+18415D01*
X-112475Y+18415D02*
X-99775Y+18415D01*
X-59135Y+18415D02*
X-48975Y+18415D01*
X-353775Y+20955D02*
X-338535Y+20955D01*
X-290275Y+20955D02*
X-272495Y+20955D01*
X-239475Y+20955D02*
X-229315Y+20955D01*
X-203915Y+20955D02*
X-188675Y+20955D01*
X-158195Y+20955D02*
X-140415Y+20955D01*
X-109935Y+20955D02*
X-94695Y+20955D01*
X-59135Y+20955D02*
X-48975Y+20955D01*
X-353775Y+23495D02*
X-341075Y+23495D01*
X-287735Y+23495D02*
X-229315Y+23495D01*
X-203915Y+23495D02*
X-183595Y+23495D01*
X-163275Y+23495D02*
X-142955Y+23495D01*
X-109935Y+23495D02*
X-48975Y+23495D01*
X-353775Y+26035D02*
X-343615Y+26035D01*
X-285195Y+26035D02*
X-229315Y+26035D01*
X-201375Y+26035D02*
X-145495Y+26035D01*
X-107395Y+26035D02*
X-48975Y+26035D01*
X-353775Y+28575D02*
X-343615Y+28575D01*
X-280115Y+28575D02*
X-229315Y+28575D01*
X-198835Y+28575D02*
X-150575Y+28575D01*
X-102315Y+28575D02*
X-48975Y+28575D01*
X-353775Y+31115D02*
X-346155Y+31115D01*
X-275035Y+31115D02*
X-229315Y+31115D01*
X-193755Y+31115D02*
X-155655Y+31115D01*
X-97235Y+31115D02*
X-48975Y+31115D01*
X-186135Y+33655D02*
X-163275Y+33655D01*
X-433785Y-311785D02*
X-413465Y-311785D01*
X-344885Y-311785D02*
X-322025Y-311785D01*
X-512525Y-309245D02*
X-502365Y-309245D01*
X-441405Y-309245D02*
X-405845Y-309245D01*
X-352505Y-309245D02*
X-314405Y-309245D01*
X-217885Y-309245D02*
X-207725Y-309245D01*
X-512525Y-306705D02*
X-502365Y-306705D01*
X-443945Y-306705D02*
X-403305Y-306705D01*
X-357585Y-306705D02*
X-309325Y-306705D01*
X-217885Y-306705D02*
X-207725Y-306705D01*
X-512525Y-304165D02*
X-502365Y-304165D01*
X-449025Y-304165D02*
X-398225Y-304165D01*
X-362665Y-304165D02*
X-304245Y-304165D01*
X-217885Y-304165D02*
X-207725Y-304165D01*
X-512525Y-301625D02*
X-502365Y-301625D01*
X-451565Y-301625D02*
X-431245Y-301625D01*
X-416005Y-301625D02*
X-395685Y-301625D01*
X-367745Y-301625D02*
X-342345Y-301625D01*
X-322025Y-301625D02*
X-301705Y-301625D01*
X-217885Y-301625D02*
X-207725Y-301625D01*
X-512525Y-299085D02*
X-502365Y-299085D01*
X-451565Y-299085D02*
X-436325Y-299085D01*
X-410925Y-299085D02*
X-395685Y-299085D01*
X-370285Y-299085D02*
X-349965Y-299085D01*
X-316945Y-299085D02*
X-299165Y-299085D01*
X-217885Y-299085D02*
X-207725Y-299085D01*
X-512525Y-296545D02*
X-502365Y-296545D01*
X-454105Y-296545D02*
X-441405Y-296545D01*
X-405845Y-296545D02*
X-393145Y-296545D01*
X-370285Y-296545D02*
X-355045Y-296545D01*
X-311865Y-296545D02*
X-299165Y-296545D01*
X-217885Y-296545D02*
X-207725Y-296545D01*
X-512525Y-294005D02*
X-502365Y-294005D01*
X-454105Y-294005D02*
X-443945Y-294005D01*
X-403305Y-294005D02*
X-390605Y-294005D01*
X-370285Y-294005D02*
X-357585Y-294005D01*
X-309325Y-294005D02*
X-296625Y-294005D01*
X-217885Y-294005D02*
X-207725Y-294005D01*
X-512525Y-291465D02*
X-502365Y-291465D01*
X-456645Y-291465D02*
X-443945Y-291465D01*
X-400765Y-291465D02*
X-390605Y-291465D01*
X-370285Y-291465D02*
X-360125Y-291465D01*
X-306785Y-291465D02*
X-294085Y-291465D01*
X-217885Y-291465D02*
X-207725Y-291465D01*
X-512525Y-288925D02*
X-502365Y-288925D01*
X-456645Y-288925D02*
X-446485Y-288925D01*
X-400765Y-288925D02*
X-390605Y-288925D01*
X-370285Y-288925D02*
X-360125Y-288925D01*
X-304245Y-288925D02*
X-294085Y-288925D01*
X-217885Y-288925D02*
X-207725Y-288925D01*
X-512525Y-286385D02*
X-502365Y-286385D01*
X-459185Y-286385D02*
X-446485Y-286385D01*
X-398225Y-286385D02*
X-388065Y-286385D01*
X-370285Y-286385D02*
X-360125Y-286385D01*
X-304245Y-286385D02*
X-291545Y-286385D01*
X-217885Y-286385D02*
X-207725Y-286385D01*
X-512525Y-283845D02*
X-502365Y-283845D01*
X-459185Y-283845D02*
X-449025Y-283845D01*
X-398225Y-283845D02*
X-388065Y-283845D01*
X-370285Y-283845D02*
X-360125Y-283845D01*
X-301705Y-283845D02*
X-291545Y-283845D01*
X-217885Y-283845D02*
X-207725Y-283845D01*
X-512525Y-281305D02*
X-502365Y-281305D01*
X-454105Y-281305D02*
X-449025Y-281305D01*
X-398225Y-281305D02*
X-388065Y-281305D01*
X-370285Y-281305D02*
X-360125Y-281305D01*
X-301705Y-281305D02*
X-291545Y-281305D01*
X-217885Y-281305D02*
X-207725Y-281305D01*
X-512525Y-278765D02*
X-502365Y-278765D01*
X-395685Y-278765D02*
X-385525Y-278765D01*
X-370285Y-278765D02*
X-360125Y-278765D01*
X-301705Y-278765D02*
X-289005Y-278765D01*
X-217885Y-278765D02*
X-207725Y-278765D01*
X-512525Y-276225D02*
X-502365Y-276225D01*
X-395685Y-276225D02*
X-385525Y-276225D01*
X-370285Y-276225D02*
X-360125Y-276225D01*
X-299165Y-276225D02*
X-289005Y-276225D01*
X-217885Y-276225D02*
X-207725Y-276225D01*
X-512525Y-273685D02*
X-502365Y-273685D01*
X-395685Y-273685D02*
X-385525Y-273685D01*
X-370285Y-273685D02*
X-332185Y-273685D01*
X-299165Y-273685D02*
X-289005Y-273685D01*
X-253445Y-273685D02*
X-207725Y-273685D01*
X-512525Y-271145D02*
X-502365Y-271145D01*
X-395685Y-271145D02*
X-385525Y-271145D01*
X-370285Y-271145D02*
X-332185Y-271145D01*
X-299165Y-271145D02*
X-289005Y-271145D01*
X-261065Y-271145D02*
X-207725Y-271145D01*
X-512525Y-268605D02*
X-502365Y-268605D01*
X-395685Y-268605D02*
X-385525Y-268605D01*
X-370285Y-268605D02*
X-332185Y-268605D01*
X-299165Y-268605D02*
X-289005Y-268605D01*
X-266145Y-268605D02*
X-207725Y-268605D01*
X-512525Y-266065D02*
X-502365Y-266065D01*
X-395685Y-266065D02*
X-385525Y-266065D01*
X-370285Y-266065D02*
X-332185Y-266065D01*
X-299165Y-266065D02*
X-289005Y-266065D01*
X-266145Y-266065D02*
X-207725Y-266065D01*
X-512525Y-263525D02*
X-502365Y-263525D01*
X-395685Y-263525D02*
X-385525Y-263525D01*
X-299165Y-263525D02*
X-289005Y-263525D01*
X-268685Y-263525D02*
X-253445Y-263525D01*
X-217885Y-263525D02*
X-207725Y-263525D01*
X-512525Y-260985D02*
X-502365Y-260985D01*
X-395685Y-260985D02*
X-385525Y-260985D01*
X-299165Y-260985D02*
X-289005Y-260985D01*
X-271225Y-260985D02*
X-258525Y-260985D01*
X-217885Y-260985D02*
X-207725Y-260985D01*
X-512525Y-258445D02*
X-502365Y-258445D01*
X-395685Y-258445D02*
X-385525Y-258445D01*
X-299165Y-258445D02*
X-289005Y-258445D01*
X-271225Y-258445D02*
X-261065Y-258445D01*
X-217885Y-258445D02*
X-207725Y-258445D01*
X-512525Y-255905D02*
X-502365Y-255905D01*
X-395685Y-255905D02*
X-385525Y-255905D01*
X-299165Y-255905D02*
X-289005Y-255905D01*
X-273765Y-255905D02*
X-261065Y-255905D01*
X-217885Y-255905D02*
X-207725Y-255905D01*
X-512525Y-253365D02*
X-502365Y-253365D01*
X-482045Y-253365D02*
X-479505Y-253365D01*
X-395685Y-253365D02*
X-385525Y-253365D01*
X-301705Y-253365D02*
X-291545Y-253365D01*
X-273765Y-253365D02*
X-263605Y-253365D01*
X-217885Y-253365D02*
X-207725Y-253365D01*
X-512525Y-250825D02*
X-502365Y-250825D01*
X-487125Y-250825D02*
X-479505Y-250825D01*
X-398225Y-250825D02*
X-388065Y-250825D01*
X-301705Y-250825D02*
X-291545Y-250825D01*
X-273765Y-250825D02*
X-263605Y-250825D01*
X-217885Y-250825D02*
X-207725Y-250825D01*
X-512525Y-248285D02*
X-502365Y-248285D01*
X-492205Y-248285D02*
X-479505Y-248285D01*
X-398225Y-248285D02*
X-388065Y-248285D01*
X-301705Y-248285D02*
X-291545Y-248285D01*
X-273765Y-248285D02*
X-263605Y-248285D01*
X-217885Y-248285D02*
X-207725Y-248285D01*
X-512525Y-245745D02*
X-502365Y-245745D01*
X-497285Y-245745D02*
X-479505Y-245745D01*
X-456645Y-245745D02*
X-446485Y-245745D01*
X-398225Y-245745D02*
X-388065Y-245745D01*
X-370285Y-245745D02*
X-357585Y-245745D01*
X-304245Y-245745D02*
X-291545Y-245745D01*
X-273765Y-245745D02*
X-263605Y-245745D01*
X-217885Y-245745D02*
X-207725Y-245745D01*
X-512525Y-243205D02*
X-502365Y-243205D01*
X-499825Y-243205D02*
X-482045Y-243205D01*
X-456645Y-243205D02*
X-443945Y-243205D01*
X-400765Y-243205D02*
X-388065Y-243205D01*
X-367745Y-243205D02*
X-357585Y-243205D01*
X-304245Y-243205D02*
X-294085Y-243205D01*
X-273765Y-243205D02*
X-263605Y-243205D01*
X-217885Y-243205D02*
X-207725Y-243205D01*
X-512525Y-240665D02*
X-484585Y-240665D01*
X-454105Y-240665D02*
X-443945Y-240665D01*
X-400765Y-240665D02*
X-390605Y-240665D01*
X-367745Y-240665D02*
X-357585Y-240665D01*
X-306785Y-240665D02*
X-294085Y-240665D01*
X-273765Y-240665D02*
X-261065Y-240665D01*
X-217885Y-240665D02*
X-207725Y-240665D01*
X-512525Y-238125D02*
X-489665Y-238125D01*
X-454105Y-238125D02*
X-441405Y-238125D01*
X-403305Y-238125D02*
X-390605Y-238125D01*
X-367745Y-238125D02*
X-355045Y-238125D01*
X-309325Y-238125D02*
X-296625Y-238125D01*
X-271225Y-238125D02*
X-261065Y-238125D01*
X-217885Y-238125D02*
X-207725Y-238125D01*
X-512525Y-235585D02*
X-492205Y-235585D01*
X-451565Y-235585D02*
X-438865Y-235585D01*
X-405845Y-235585D02*
X-393145Y-235585D01*
X-365205Y-235585D02*
X-352505Y-235585D01*
X-311865Y-235585D02*
X-296625Y-235585D01*
X-271225Y-235585D02*
X-258525Y-235585D01*
X-217885Y-235585D02*
X-207725Y-235585D01*
X-512525Y-233045D02*
X-497285Y-233045D01*
X-451565Y-233045D02*
X-436325Y-233045D01*
X-408385Y-233045D02*
X-395685Y-233045D01*
X-362665Y-233045D02*
X-347425Y-233045D01*
X-316945Y-233045D02*
X-299165Y-233045D01*
X-268685Y-233045D02*
X-253445Y-233045D01*
X-217885Y-233045D02*
X-207725Y-233045D01*
X-512525Y-230505D02*
X-499825Y-230505D01*
X-449025Y-230505D02*
X-431245Y-230505D01*
X-416005Y-230505D02*
X-398225Y-230505D01*
X-362665Y-230505D02*
X-342345Y-230505D01*
X-322025Y-230505D02*
X-301705Y-230505D01*
X-268685Y-230505D02*
X-207725Y-230505D01*
X-512525Y-227965D02*
X-502365Y-227965D01*
X-446485Y-227965D02*
X-400765Y-227965D01*
X-360125Y-227965D02*
X-304245Y-227965D01*
X-266145Y-227965D02*
X-207725Y-227965D01*
X-512525Y-225425D02*
X-502365Y-225425D01*
X-443945Y-225425D02*
X-403305Y-225425D01*
X-357585Y-225425D02*
X-309325Y-225425D01*
X-261065Y-225425D02*
X-207725Y-225425D01*
X-512525Y-222885D02*
X-504905Y-222885D01*
X-441405Y-222885D02*
X-408385Y-222885D01*
X-352505Y-222885D02*
X-314405Y-222885D01*
X-255985Y-222885D02*
X-207725Y-222885D01*
X-433785Y-220345D02*
X-413465Y-220345D01*
X-344885Y-220345D02*
X-322025Y-220345D01*
X-219846Y-565785D02*
X-199526Y-565785D01*
X-227466Y-563245D02*
X-191906Y-563245D01*
X-148726Y-563245D02*
X-138566Y-563245D01*
X-118246Y-563245D02*
X-105546Y-563245D01*
X-59826Y-563245D02*
X-49666Y-563245D01*
X-230006Y-560705D02*
X-189366Y-560705D01*
X-148726Y-560705D02*
X-138566Y-560705D01*
X-118246Y-560705D02*
X-105546Y-560705D01*
X-59826Y-560705D02*
X-49666Y-560705D01*
X-235086Y-558165D02*
X-184286Y-558165D01*
X-148726Y-558165D02*
X-138566Y-558165D01*
X-118246Y-558165D02*
X-103006Y-558165D01*
X-59826Y-558165D02*
X-49666Y-558165D01*
X-237626Y-555625D02*
X-217306Y-555625D01*
X-202066Y-555625D02*
X-181746Y-555625D01*
X-148726Y-555625D02*
X-138566Y-555625D01*
X-118246Y-555625D02*
X-100466Y-555625D01*
X-59826Y-555625D02*
X-49666Y-555625D01*
X-237626Y-553085D02*
X-222386Y-553085D01*
X-196986Y-553085D02*
X-181746Y-553085D01*
X-118246Y-553085D02*
X-100466Y-553085D01*
X-59826Y-553085D02*
X-49666Y-553085D01*
X-240166Y-550545D02*
X-227466Y-550545D01*
X-191906Y-550545D02*
X-179206Y-550545D01*
X-118246Y-550545D02*
X-97926Y-550545D01*
X-59826Y-550545D02*
X-49666Y-550545D01*
X-240166Y-548005D02*
X-230006Y-548005D01*
X-189366Y-548005D02*
X-176666Y-548005D01*
X-118246Y-548005D02*
X-95386Y-548005D01*
X-59826Y-548005D02*
X-49666Y-548005D01*
X-242706Y-545465D02*
X-230006Y-545465D01*
X-186826Y-545465D02*
X-176666Y-545465D01*
X-118246Y-545465D02*
X-108086Y-545465D01*
X-105546Y-545465D02*
X-95386Y-545465D01*
X-59826Y-545465D02*
X-49666Y-545465D01*
X-242706Y-542925D02*
X-232546Y-542925D01*
X-186826Y-542925D02*
X-176666Y-542925D01*
X-118246Y-542925D02*
X-108086Y-542925D01*
X-105546Y-542925D02*
X-92846Y-542925D01*
X-59826Y-542925D02*
X-49666Y-542925D01*
X-245246Y-540385D02*
X-232546Y-540385D01*
X-184286Y-540385D02*
X-174126Y-540385D01*
X-118246Y-540385D02*
X-108086Y-540385D01*
X-103006Y-540385D02*
X-90306Y-540385D01*
X-59826Y-540385D02*
X-49666Y-540385D01*
X-245246Y-537845D02*
X-235086Y-537845D01*
X-184286Y-537845D02*
X-174126Y-537845D01*
X-118246Y-537845D02*
X-108086Y-537845D01*
X-100466Y-537845D02*
X-90306Y-537845D01*
X-59826Y-537845D02*
X-49666Y-537845D01*
X-240166Y-535305D02*
X-235086Y-535305D01*
X-184286Y-535305D02*
X-174126Y-535305D01*
X-118246Y-535305D02*
X-108086Y-535305D01*
X-100466Y-535305D02*
X-87766Y-535305D01*
X-59826Y-535305D02*
X-49666Y-535305D01*
X-181746Y-532765D02*
X-171586Y-532765D01*
X-118246Y-532765D02*
X-108086Y-532765D01*
X-97926Y-532765D02*
X-87766Y-532765D01*
X-59826Y-532765D02*
X-49666Y-532765D01*
X-181746Y-530225D02*
X-171586Y-530225D01*
X-118246Y-530225D02*
X-108086Y-530225D01*
X-95386Y-530225D02*
X-85226Y-530225D01*
X-59826Y-530225D02*
X-49666Y-530225D01*
X-181746Y-527685D02*
X-171586Y-527685D01*
X-118246Y-527685D02*
X-108086Y-527685D01*
X-95386Y-527685D02*
X-82686Y-527685D01*
X-59826Y-527685D02*
X-49666Y-527685D01*
X-181746Y-525145D02*
X-171586Y-525145D01*
X-118246Y-525145D02*
X-108086Y-525145D01*
X-92846Y-525145D02*
X-82686Y-525145D01*
X-59826Y-525145D02*
X-49666Y-525145D01*
X-181746Y-522605D02*
X-171586Y-522605D01*
X-118246Y-522605D02*
X-108086Y-522605D01*
X-90306Y-522605D02*
X-80146Y-522605D01*
X-59826Y-522605D02*
X-49666Y-522605D01*
X-181746Y-520065D02*
X-171586Y-520065D01*
X-118246Y-520065D02*
X-108086Y-520065D01*
X-90306Y-520065D02*
X-77606Y-520065D01*
X-59826Y-520065D02*
X-49666Y-520065D01*
X-181746Y-517525D02*
X-171586Y-517525D01*
X-118246Y-517525D02*
X-108086Y-517525D01*
X-87766Y-517525D02*
X-77606Y-517525D01*
X-59826Y-517525D02*
X-49666Y-517525D01*
X-181746Y-514985D02*
X-171586Y-514985D01*
X-118246Y-514985D02*
X-108086Y-514985D01*
X-85226Y-514985D02*
X-75066Y-514985D01*
X-59826Y-514985D02*
X-49666Y-514985D01*
X-181746Y-512445D02*
X-171586Y-512445D01*
X-118246Y-512445D02*
X-108086Y-512445D01*
X-85226Y-512445D02*
X-72526Y-512445D01*
X-59826Y-512445D02*
X-49666Y-512445D01*
X-181746Y-509905D02*
X-171586Y-509905D01*
X-118246Y-509905D02*
X-108086Y-509905D01*
X-82686Y-509905D02*
X-72526Y-509905D01*
X-59826Y-509905D02*
X-49666Y-509905D01*
X-181746Y-507365D02*
X-171586Y-507365D01*
X-118246Y-507365D02*
X-108086Y-507365D01*
X-80146Y-507365D02*
X-69986Y-507365D01*
X-59826Y-507365D02*
X-49666Y-507365D01*
X-184286Y-504825D02*
X-174126Y-504825D01*
X-118246Y-504825D02*
X-108086Y-504825D01*
X-80146Y-504825D02*
X-67446Y-504825D01*
X-59826Y-504825D02*
X-49666Y-504825D01*
X-184286Y-502285D02*
X-174126Y-502285D01*
X-118246Y-502285D02*
X-108086Y-502285D01*
X-77606Y-502285D02*
X-67446Y-502285D01*
X-59826Y-502285D02*
X-49666Y-502285D01*
X-242706Y-499745D02*
X-232546Y-499745D01*
X-184286Y-499745D02*
X-174126Y-499745D01*
X-118246Y-499745D02*
X-108086Y-499745D01*
X-77606Y-499745D02*
X-64906Y-499745D01*
X-59826Y-499745D02*
X-49666Y-499745D01*
X-242706Y-497205D02*
X-230006Y-497205D01*
X-186826Y-497205D02*
X-174126Y-497205D01*
X-118246Y-497205D02*
X-108086Y-497205D01*
X-75066Y-497205D02*
X-62366Y-497205D01*
X-59826Y-497205D02*
X-49666Y-497205D01*
X-240166Y-494665D02*
X-230006Y-494665D01*
X-186826Y-494665D02*
X-176666Y-494665D01*
X-118246Y-494665D02*
X-108086Y-494665D01*
X-72526Y-494665D02*
X-62366Y-494665D01*
X-59826Y-494665D02*
X-49666Y-494665D01*
X-240166Y-492125D02*
X-227466Y-492125D01*
X-189366Y-492125D02*
X-176666Y-492125D01*
X-118246Y-492125D02*
X-108086Y-492125D01*
X-72526Y-492125D02*
X-49666Y-492125D01*
X-237626Y-489585D02*
X-224926Y-489585D01*
X-191906Y-489585D02*
X-179206Y-489585D01*
X-118246Y-489585D02*
X-108086Y-489585D01*
X-69986Y-489585D02*
X-49666Y-489585D01*
X-237626Y-487045D02*
X-222386Y-487045D01*
X-194446Y-487045D02*
X-181746Y-487045D01*
X-118246Y-487045D02*
X-108086Y-487045D01*
X-67446Y-487045D02*
X-49666Y-487045D01*
X-235086Y-484505D02*
X-217306Y-484505D01*
X-202066Y-484505D02*
X-184286Y-484505D01*
X-118246Y-484505D02*
X-108086Y-484505D01*
X-67446Y-484505D02*
X-49666Y-484505D01*
X-232546Y-481965D02*
X-186826Y-481965D01*
X-118246Y-481965D02*
X-108086Y-481965D01*
X-64906Y-481965D02*
X-49666Y-481965D01*
X-230006Y-479425D02*
X-189366Y-479425D01*
X-118246Y-479425D02*
X-108086Y-479425D01*
X-62366Y-479425D02*
X-49666Y-479425D01*
X-227466Y-476885D02*
X-194446Y-476885D01*
X-118246Y-476885D02*
X-108086Y-476885D01*
X-62366Y-476885D02*
X-49666Y-476885D01*
X-219846Y-474345D02*
X-199526Y-474345D01*
X+1631892Y-226695D02*
X+1690312Y-226695D01*
X+1703012Y-226695D02*
X+1713172Y-226695D01*
X+1738572Y-226695D02*
X+1751272Y-226695D01*
X+1776672Y-226695D02*
X+1786832Y-226695D01*
X+1631892Y-224155D02*
X+1690312Y-224155D01*
X+1703012Y-224155D02*
X+1713172Y-224155D01*
X+1738572Y-224155D02*
X+1751272Y-224155D01*
X+1776672Y-224155D02*
X+1786832Y-224155D01*
X+1631892Y-221615D02*
X+1690312Y-221615D01*
X+1703012Y-221615D02*
X+1713172Y-221615D01*
X+1736032Y-221615D02*
X+1753812Y-221615D01*
X+1776672Y-221615D02*
X+1786832Y-221615D01*
X+1631892Y-219075D02*
X+1687772Y-219075D01*
X+1703012Y-219075D02*
X+1713172Y-219075D01*
X+1736032Y-219075D02*
X+1753812Y-219075D01*
X+1776672Y-219075D02*
X+1786832Y-219075D01*
X+1675072Y-216535D02*
X+1687772Y-216535D01*
X+1703012Y-216535D02*
X+1713172Y-216535D01*
X+1736032Y-216535D02*
X+1753812Y-216535D01*
X+1776672Y-216535D02*
X+1786832Y-216535D01*
X+1672532Y-213995D02*
X+1685232Y-213995D01*
X+1703012Y-213995D02*
X+1713172Y-213995D01*
X+1733492Y-213995D02*
X+1743652Y-213995D01*
X+1746192Y-213995D02*
X+1756352Y-213995D01*
X+1776672Y-213995D02*
X+1786832Y-213995D01*
X+1669992Y-211455D02*
X+1682692Y-211455D01*
X+1703012Y-211455D02*
X+1713172Y-211455D01*
X+1733492Y-211455D02*
X+1743652Y-211455D01*
X+1746192Y-211455D02*
X+1756352Y-211455D01*
X+1776672Y-211455D02*
X+1786832Y-211455D01*
X+1667452Y-208915D02*
X+1680152Y-208915D01*
X+1703012Y-208915D02*
X+1713172Y-208915D01*
X+1733492Y-208915D02*
X+1743652Y-208915D01*
X+1746192Y-208915D02*
X+1756352Y-208915D01*
X+1776672Y-208915D02*
X+1786832Y-208915D01*
X+1664912Y-206375D02*
X+1677612Y-206375D01*
X+1703012Y-206375D02*
X+1713172Y-206375D01*
X+1730952Y-206375D02*
X+1741112Y-206375D01*
X+1748732Y-206375D02*
X+1758892Y-206375D01*
X+1776672Y-206375D02*
X+1786832Y-206375D01*
X+1659832Y-203835D02*
X+1675072Y-203835D01*
X+1703012Y-203835D02*
X+1713172Y-203835D01*
X+1730952Y-203835D02*
X+1741112Y-203835D01*
X+1748732Y-203835D02*
X+1758892Y-203835D01*
X+1776672Y-203835D02*
X+1786832Y-203835D01*
X+1657292Y-201295D02*
X+1672532Y-201295D01*
X+1703012Y-201295D02*
X+1713172Y-201295D01*
X+1730952Y-201295D02*
X+1741112Y-201295D01*
X+1748732Y-201295D02*
X+1758892Y-201295D01*
X+1776672Y-201295D02*
X+1786832Y-201295D01*
X+1654752Y-198755D02*
X+1669992Y-198755D01*
X+1703012Y-198755D02*
X+1713172Y-198755D01*
X+1728412Y-198755D02*
X+1738572Y-198755D01*
X+1751272Y-198755D02*
X+1761432Y-198755D01*
X+1776672Y-198755D02*
X+1786832Y-198755D01*
X+1652212Y-196215D02*
X+1664912Y-196215D01*
X+1703012Y-196215D02*
X+1713172Y-196215D01*
X+1728412Y-196215D02*
X+1738572Y-196215D01*
X+1751272Y-196215D02*
X+1761432Y-196215D01*
X+1776672Y-196215D02*
X+1786832Y-196215D01*
X+1649672Y-193675D02*
X+1662372Y-193675D01*
X+1703012Y-193675D02*
X+1713172Y-193675D01*
X+1728412Y-193675D02*
X+1738572Y-193675D01*
X+1751272Y-193675D02*
X+1761432Y-193675D01*
X+1776672Y-193675D02*
X+1786832Y-193675D01*
X+1647132Y-191135D02*
X+1659832Y-191135D01*
X+1703012Y-191135D02*
X+1713172Y-191135D01*
X+1725872Y-191135D02*
X+1736032Y-191135D01*
X+1753812Y-191135D02*
X+1763972Y-191135D01*
X+1776672Y-191135D02*
X+1786832Y-191135D01*
X+1644592Y-188595D02*
X+1657292Y-188595D01*
X+1703012Y-188595D02*
X+1713172Y-188595D01*
X+1725872Y-188595D02*
X+1736032Y-188595D01*
X+1753812Y-188595D02*
X+1763972Y-188595D01*
X+1776672Y-188595D02*
X+1786832Y-188595D01*
X+1642052Y-186055D02*
X+1654752Y-186055D01*
X+1703012Y-186055D02*
X+1713172Y-186055D01*
X+1725872Y-186055D02*
X+1736032Y-186055D01*
X+1753812Y-186055D02*
X+1763972Y-186055D01*
X+1776672Y-186055D02*
X+1786832Y-186055D01*
X+1639512Y-183515D02*
X+1652212Y-183515D01*
X+1703012Y-183515D02*
X+1713172Y-183515D01*
X+1723332Y-183515D02*
X+1733492Y-183515D01*
X+1756352Y-183515D02*
X+1766512Y-183515D01*
X+1776672Y-183515D02*
X+1786832Y-183515D01*
X+1636972Y-180975D02*
X+1649672Y-180975D01*
X+1703012Y-180975D02*
X+1713172Y-180975D01*
X+1723332Y-180975D02*
X+1733492Y-180975D01*
X+1756352Y-180975D02*
X+1766512Y-180975D01*
X+1776672Y-180975D02*
X+1786832Y-180975D01*
X+1636972Y-178435D02*
X+1647132Y-178435D01*
X+1703012Y-178435D02*
X+1713172Y-178435D01*
X+1723332Y-178435D02*
X+1733492Y-178435D01*
X+1756352Y-178435D02*
X+1766512Y-178435D01*
X+1776672Y-178435D02*
X+1786832Y-178435D01*
X+1634432Y-175895D02*
X+1647132Y-175895D01*
X+1703012Y-175895D02*
X+1713172Y-175895D01*
X+1720792Y-175895D02*
X+1730952Y-175895D01*
X+1758892Y-175895D02*
X+1769052Y-175895D01*
X+1776672Y-175895D02*
X+1786832Y-175895D01*
X+1634432Y-173355D02*
X+1644592Y-173355D01*
X+1703012Y-173355D02*
X+1713172Y-173355D01*
X+1720792Y-173355D02*
X+1730952Y-173355D01*
X+1758892Y-173355D02*
X+1769052Y-173355D01*
X+1776672Y-173355D02*
X+1786832Y-173355D01*
X+1631892Y-170815D02*
X+1642052Y-170815D01*
X+1703012Y-170815D02*
X+1713172Y-170815D01*
X+1720792Y-170815D02*
X+1730952Y-170815D01*
X+1758892Y-170815D02*
X+1769052Y-170815D01*
X+1776672Y-170815D02*
X+1786832Y-170815D01*
X+1631892Y-168275D02*
X+1642052Y-168275D01*
X+1703012Y-168275D02*
X+1713172Y-168275D01*
X+1718252Y-168275D02*
X+1728412Y-168275D01*
X+1761432Y-168275D02*
X+1771592Y-168275D01*
X+1776672Y-168275D02*
X+1786832Y-168275D01*
X+1631892Y-165735D02*
X+1642052Y-165735D01*
X+1677612Y-165735D02*
X+1682692Y-165735D01*
X+1703012Y-165735D02*
X+1713172Y-165735D01*
X+1718252Y-165735D02*
X+1728412Y-165735D01*
X+1761432Y-165735D02*
X+1771592Y-165735D01*
X+1776672Y-165735D02*
X+1786832Y-165735D01*
X+1631892Y-163195D02*
X+1642052Y-163195D01*
X+1677612Y-163195D02*
X+1687772Y-163195D01*
X+1703012Y-163195D02*
X+1713172Y-163195D01*
X+1718252Y-163195D02*
X+1728412Y-163195D01*
X+1761432Y-163195D02*
X+1771592Y-163195D01*
X+1776672Y-163195D02*
X+1786832Y-163195D01*
X+1631892Y-160655D02*
X+1642052Y-160655D01*
X+1677612Y-160655D02*
X+1687772Y-160655D01*
X+1703012Y-160655D02*
X+1713172Y-160655D01*
X+1715712Y-160655D02*
X+1728412Y-160655D01*
X+1761432Y-160655D02*
X+1774132Y-160655D01*
X+1776672Y-160655D02*
X+1786832Y-160655D01*
X+1631892Y-158115D02*
X+1644592Y-158115D01*
X+1675072Y-158115D02*
X+1687772Y-158115D01*
X+1703012Y-158115D02*
X+1713172Y-158115D01*
X+1715712Y-158115D02*
X+1725872Y-158115D01*
X+1763972Y-158115D02*
X+1774132Y-158115D01*
X+1776672Y-158115D02*
X+1786832Y-158115D01*
X+1634432Y-155575D02*
X+1644592Y-155575D01*
X+1675072Y-155575D02*
X+1685232Y-155575D01*
X+1703012Y-155575D02*
X+1713172Y-155575D01*
X+1715712Y-155575D02*
X+1725872Y-155575D01*
X+1763972Y-155575D02*
X+1774132Y-155575D01*
X+1776672Y-155575D02*
X+1786832Y-155575D01*
X+1634432Y-153035D02*
X+1647132Y-153035D01*
X+1672532Y-153035D02*
X+1685232Y-153035D01*
X+1703012Y-153035D02*
X+1725872Y-153035D01*
X+1763972Y-153035D02*
X+1786832Y-153035D01*
X+1636972Y-150495D02*
X+1652212Y-150495D01*
X+1667452Y-150495D02*
X+1682692Y-150495D01*
X+1703012Y-150495D02*
X+1723332Y-150495D01*
X+1766512Y-150495D02*
X+1786832Y-150495D01*
X+1636972Y-147955D02*
X+1682692Y-147955D01*
X+1703012Y-147955D02*
X+1723332Y-147955D01*
X+1766512Y-147955D02*
X+1786832Y-147955D01*
X+1639512Y-145415D02*
X+1680152Y-145415D01*
X+1703012Y-145415D02*
X+1723332Y-145415D01*
X+1766512Y-145415D02*
X+1786832Y-145415D01*
X+1644592Y-142875D02*
X+1675072Y-142875D01*
X+1703012Y-142875D02*
X+1720792Y-142875D01*
X+1769052Y-142875D02*
X+1786832Y-142875D01*
X+1649672Y-140335D02*
X+1669992Y-140335D01*
X+1703012Y-140335D02*
X+1720792Y-140335D01*
X+1769052Y-140335D02*
X+1786832Y-140335D01*
X+1733495Y-102235D02*
X+1753815Y-102235D01*
X+1639515Y-99695D02*
X+1697935Y-99695D01*
X+1725875Y-99695D02*
X+1761435Y-99695D01*
X+1639515Y-97155D02*
X+1697935Y-97155D01*
X+1723335Y-97155D02*
X+1763975Y-97155D01*
X+1639515Y-94615D02*
X+1697935Y-94615D01*
X+1718255Y-94615D02*
X+1769055Y-94615D01*
X+1639515Y-92075D02*
X+1695395Y-92075D01*
X+1715715Y-92075D02*
X+1736035Y-92075D01*
X+1751275Y-92075D02*
X+1771595Y-92075D01*
X+1682695Y-89535D02*
X+1695395Y-89535D01*
X+1715715Y-89535D02*
X+1730955Y-89535D01*
X+1756355Y-89535D02*
X+1771595Y-89535D01*
X+1680155Y-86995D02*
X+1692855Y-86995D01*
X+1713175Y-86995D02*
X+1725875Y-86995D01*
X+1761435Y-86995D02*
X+1774135Y-86995D01*
X+1677615Y-84455D02*
X+1690315Y-84455D01*
X+1713175Y-84455D02*
X+1723335Y-84455D01*
X+1763975Y-84455D02*
X+1776675Y-84455D01*
X+1675075Y-81915D02*
X+1687775Y-81915D01*
X+1710635Y-81915D02*
X+1723335Y-81915D01*
X+1766515Y-81915D02*
X+1776675Y-81915D01*
X+1672535Y-79375D02*
X+1685235Y-79375D01*
X+1710635Y-79375D02*
X+1720795Y-79375D01*
X+1766515Y-79375D02*
X+1776675Y-79375D01*
X+1667455Y-76835D02*
X+1682695Y-76835D01*
X+1708095Y-76835D02*
X+1720795Y-76835D01*
X+1769055Y-76835D02*
X+1779215Y-76835D01*
X+1664915Y-74295D02*
X+1680155Y-74295D01*
X+1708095Y-74295D02*
X+1718255Y-74295D01*
X+1769055Y-74295D02*
X+1779215Y-74295D01*
X+1662375Y-71755D02*
X+1677615Y-71755D01*
X+1713175Y-71755D02*
X+1718255Y-71755D01*
X+1769055Y-71755D02*
X+1779215Y-71755D01*
X+1659835Y-69215D02*
X+1672535Y-69215D01*
X+1771595Y-69215D02*
X+1781755Y-69215D01*
X+1657295Y-66675D02*
X+1669995Y-66675D01*
X+1771595Y-66675D02*
X+1781755Y-66675D01*
X+1654755Y-64135D02*
X+1667455Y-64135D01*
X+1771595Y-64135D02*
X+1781755Y-64135D01*
X+1652215Y-61595D02*
X+1664915Y-61595D01*
X+1771595Y-61595D02*
X+1781755Y-61595D01*
X+1649675Y-59055D02*
X+1662375Y-59055D01*
X+1771595Y-59055D02*
X+1781755Y-59055D01*
X+1647135Y-56515D02*
X+1659835Y-56515D01*
X+1771595Y-56515D02*
X+1781755Y-56515D01*
X+1644595Y-53975D02*
X+1657295Y-53975D01*
X+1771595Y-53975D02*
X+1781755Y-53975D01*
X+1644595Y-51435D02*
X+1654755Y-51435D01*
X+1771595Y-51435D02*
X+1781755Y-51435D01*
X+1642055Y-48895D02*
X+1654755Y-48895D01*
X+1771595Y-48895D02*
X+1781755Y-48895D01*
X+1642055Y-46355D02*
X+1652215Y-46355D01*
X+1771595Y-46355D02*
X+1781755Y-46355D01*
X+1639515Y-43815D02*
X+1649675Y-43815D01*
X+1771595Y-43815D02*
X+1781755Y-43815D01*
X+1639515Y-41275D02*
X+1649675Y-41275D01*
X+1769055Y-41275D02*
X+1779215Y-41275D01*
X+1639515Y-38735D02*
X+1649675Y-38735D01*
X+1685235Y-38735D02*
X+1690315Y-38735D01*
X+1769055Y-38735D02*
X+1779215Y-38735D01*
X+1639515Y-36195D02*
X+1649675Y-36195D01*
X+1685235Y-36195D02*
X+1695395Y-36195D01*
X+1710635Y-36195D02*
X+1720795Y-36195D01*
X+1769055Y-36195D02*
X+1779215Y-36195D01*
X+1639515Y-33655D02*
X+1649675Y-33655D01*
X+1685235Y-33655D02*
X+1695395Y-33655D01*
X+1710635Y-33655D02*
X+1723335Y-33655D01*
X+1766515Y-33655D02*
X+1779215Y-33655D01*
X+1639515Y-31115D02*
X+1652215Y-31115D01*
X+1682695Y-31115D02*
X+1695395Y-31115D01*
X+1713175Y-31115D02*
X+1723335Y-31115D01*
X+1766515Y-31115D02*
X+1776675Y-31115D01*
X+1642055Y-28575D02*
X+1652215Y-28575D01*
X+1682695Y-28575D02*
X+1692855Y-28575D01*
X+1713175Y-28575D02*
X+1725875Y-28575D01*
X+1763975Y-28575D02*
X+1776675Y-28575D01*
X+1642055Y-26035D02*
X+1654755Y-26035D01*
X+1680155Y-26035D02*
X+1692855Y-26035D01*
X+1715715Y-26035D02*
X+1728415Y-26035D01*
X+1761435Y-26035D02*
X+1774135Y-26035D01*
X+1644595Y-23495D02*
X+1659835Y-23495D01*
X+1675075Y-23495D02*
X+1690315Y-23495D01*
X+1715715Y-23495D02*
X+1730955Y-23495D01*
X+1758895Y-23495D02*
X+1771595Y-23495D01*
X+1644595Y-20955D02*
X+1690315Y-20955D01*
X+1718255Y-20955D02*
X+1736035Y-20955D01*
X+1751275Y-20955D02*
X+1769055Y-20955D01*
X+1647135Y-18415D02*
X+1687775Y-18415D01*
X+1720795Y-18415D02*
X+1766515Y-18415D01*
X+1652215Y-15875D02*
X+1682695Y-15875D01*
X+1723335Y-15875D02*
X+1763975Y-15875D01*
X+1657295Y-13335D02*
X+1677615Y-13335D01*
X+1725875Y-13335D02*
X+1758895Y-13335D01*
X+1733495Y-10795D02*
X+1753815Y-10795D01*
X+1645865Y+27305D02*
X+1704285Y+27305D01*
X+1742385Y+27305D02*
X+1785565Y+27305D01*
X+1645865Y+29845D02*
X+1704285Y+29845D01*
X+1734765Y+29845D02*
X+1785565Y+29845D01*
X+1645865Y+32385D02*
X+1704285Y+32385D01*
X+1729685Y+32385D02*
X+1785565Y+32385D01*
X+1645865Y+34925D02*
X+1701745Y+34925D01*
X+1727145Y+34925D02*
X+1785565Y+34925D01*
X+1689045Y+37465D02*
X+1701745Y+37465D01*
X+1724605Y+37465D02*
X+1742385Y+37465D01*
X+1775405Y+37465D02*
X+1785565Y+37465D01*
X+1686505Y+40005D02*
X+1699205Y+40005D01*
X+1722065Y+40005D02*
X+1737305Y+40005D01*
X+1775405Y+40005D02*
X+1785565Y+40005D01*
X+1683965Y+42545D02*
X+1696665Y+42545D01*
X+1722065Y+42545D02*
X+1734765Y+42545D01*
X+1775405Y+42545D02*
X+1785565Y+42545D01*
X+1681425Y+45085D02*
X+1694125Y+45085D01*
X+1719525Y+45085D02*
X+1732225Y+45085D01*
X+1775405Y+45085D02*
X+1785565Y+45085D01*
X+1678885Y+47625D02*
X+1691585Y+47625D01*
X+1719525Y+47625D02*
X+1729685Y+47625D01*
X+1775405Y+47625D02*
X+1785565Y+47625D01*
X+1673805Y+50165D02*
X+1689045Y+50165D01*
X+1716985Y+50165D02*
X+1729685Y+50165D01*
X+1775405Y+50165D02*
X+1785565Y+50165D01*
X+1671265Y+52705D02*
X+1686505Y+52705D01*
X+1716985Y+52705D02*
X+1727145Y+52705D01*
X+1775405Y+52705D02*
X+1785565Y+52705D01*
X+1668725Y+55245D02*
X+1683965Y+55245D01*
X+1716985Y+55245D02*
X+1727145Y+55245D01*
X+1775405Y+55245D02*
X+1785565Y+55245D01*
X+1666185Y+57785D02*
X+1678885Y+57785D01*
X+1714445Y+57785D02*
X+1727145Y+57785D01*
X+1775405Y+57785D02*
X+1785565Y+57785D01*
X+1663645Y+60325D02*
X+1676345Y+60325D01*
X+1714445Y+60325D02*
X+1724605Y+60325D01*
X+1775405Y+60325D02*
X+1785565Y+60325D01*
X+1661105Y+62865D02*
X+1673805Y+62865D01*
X+1714445Y+62865D02*
X+1724605Y+62865D01*
X+1775405Y+62865D02*
X+1785565Y+62865D01*
X+1658565Y+65405D02*
X+1671265Y+65405D01*
X+1714445Y+65405D02*
X+1724605Y+65405D01*
X+1775405Y+65405D02*
X+1785565Y+65405D01*
X+1656025Y+67945D02*
X+1668725Y+67945D01*
X+1714445Y+67945D02*
X+1724605Y+67945D01*
X+1775405Y+67945D02*
X+1785565Y+67945D01*
X+1653485Y+70485D02*
X+1666185Y+70485D01*
X+1714445Y+70485D02*
X+1724605Y+70485D01*
X+1775405Y+70485D02*
X+1785565Y+70485D01*
X+1650945Y+73025D02*
X+1663645Y+73025D01*
X+1714445Y+73025D02*
X+1724605Y+73025D01*
X+1775405Y+73025D02*
X+1785565Y+73025D01*
X+1650945Y+75565D02*
X+1661105Y+75565D01*
X+1714445Y+75565D02*
X+1724605Y+75565D01*
X+1775405Y+75565D02*
X+1785565Y+75565D01*
X+1648405Y+78105D02*
X+1661105Y+78105D01*
X+1714445Y+78105D02*
X+1724605Y+78105D01*
X+1775405Y+78105D02*
X+1785565Y+78105D01*
X+1648405Y+80645D02*
X+1658565Y+80645D01*
X+1714445Y+80645D02*
X+1724605Y+80645D01*
X+1775405Y+80645D02*
X+1785565Y+80645D01*
X+1645865Y+83185D02*
X+1656025Y+83185D01*
X+1714445Y+83185D02*
X+1724605Y+83185D01*
X+1775405Y+83185D02*
X+1785565Y+83185D01*
X+1645865Y+85725D02*
X+1656025Y+85725D01*
X+1716985Y+85725D02*
X+1727145Y+85725D01*
X+1775405Y+85725D02*
X+1785565Y+85725D01*
X+1645865Y+88265D02*
X+1656025Y+88265D01*
X+1691585Y+88265D02*
X+1696665Y+88265D01*
X+1716985Y+88265D02*
X+1727145Y+88265D01*
X+1775405Y+88265D02*
X+1785565Y+88265D01*
X+1645865Y+90805D02*
X+1656025Y+90805D01*
X+1691585Y+90805D02*
X+1701745Y+90805D01*
X+1716985Y+90805D02*
X+1727145Y+90805D01*
X+1775405Y+90805D02*
X+1785565Y+90805D01*
X+1645865Y+93345D02*
X+1656025Y+93345D01*
X+1691585Y+93345D02*
X+1701745Y+93345D01*
X+1719525Y+93345D02*
X+1729685Y+93345D01*
X+1775405Y+93345D02*
X+1785565Y+93345D01*
X+1645865Y+95885D02*
X+1658565Y+95885D01*
X+1689045Y+95885D02*
X+1701745Y+95885D01*
X+1719525Y+95885D02*
X+1732225Y+95885D01*
X+1775405Y+95885D02*
X+1785565Y+95885D01*
X+1648405Y+98425D02*
X+1658565Y+98425D01*
X+1689045Y+98425D02*
X+1699205Y+98425D01*
X+1719525Y+98425D02*
X+1734765Y+98425D01*
X+1775405Y+98425D02*
X+1785565Y+98425D01*
X+1648405Y+100965D02*
X+1661105Y+100965D01*
X+1686505Y+100965D02*
X+1699205Y+100965D01*
X+1722065Y+100965D02*
X+1737305Y+100965D01*
X+1775405Y+100965D02*
X+1785565Y+100965D01*
X+1650945Y+103505D02*
X+1666185Y+103505D01*
X+1681425Y+103505D02*
X+1696665Y+103505D01*
X+1724605Y+103505D02*
X+1742385Y+103505D01*
X+1775405Y+103505D02*
X+1785565Y+103505D01*
X+1650945Y+106045D02*
X+1696665Y+106045D01*
X+1727145Y+106045D02*
X+1785565Y+106045D01*
X+1653485Y+108585D02*
X+1694125Y+108585D01*
X+1729685Y+108585D02*
X+1785565Y+108585D01*
X+1658565Y+111125D02*
X+1689045Y+111125D01*
X+1734765Y+111125D02*
X+1785565Y+111125D01*
X+1663645Y+113665D02*
X+1683965Y+113665D01*
X+1739845Y+113665D02*
X+1785565Y+113665D01*
X+1669764Y+147955D02*
X+1677384Y+147955D01*
X+1761204Y+147955D02*
X+1768824Y+147955D01*
X+1667224Y+150495D02*
X+1674844Y+150495D01*
X+1763744Y+150495D02*
X+1771364Y+150495D01*
X+1664684Y+153035D02*
X+1674844Y+153035D01*
X+1763744Y+153035D02*
X+1773904Y+153035D01*
X+1664684Y+155575D02*
X+1672304Y+155575D01*
X+1766284Y+155575D02*
X+1773904Y+155575D01*
X+1662144Y+158115D02*
X+1669764Y+158115D01*
X+1768824Y+158115D02*
X+1776444Y+158115D01*
X+1662144Y+160655D02*
X+1669764Y+160655D01*
X+1768824Y+160655D02*
X+1776444Y+160655D01*
X+1659604Y+163195D02*
X+1669764Y+163195D01*
X+1768824Y+163195D02*
X+1778984Y+163195D01*
X+1659604Y+165735D02*
X+1667224Y+165735D01*
X+1771364Y+165735D02*
X+1778984Y+165735D01*
X+1657064Y+168275D02*
X+1667224Y+168275D01*
X+1771364Y+168275D02*
X+1781524Y+168275D01*
X+1657064Y+170815D02*
X+1664684Y+170815D01*
X+1773904Y+170815D02*
X+1781524Y+170815D01*
X+1654524Y+173355D02*
X+1664684Y+173355D01*
X+1773904Y+173355D02*
X+1784064Y+173355D01*
X+1654524Y+175895D02*
X+1664684Y+175895D01*
X+1773904Y+175895D02*
X+1784064Y+175895D01*
X+1654524Y+178435D02*
X+1662144Y+178435D01*
X+1776444Y+178435D02*
X+1784064Y+178435D01*
X+1651984Y+180975D02*
X+1662144Y+180975D01*
X+1776444Y+180975D02*
X+1786604Y+180975D01*
X+1651984Y+183515D02*
X+1662144Y+183515D01*
X+1776444Y+183515D02*
X+1786604Y+183515D01*
X+1651984Y+186055D02*
X+1662144Y+186055D01*
X+1715484Y+186055D02*
X+1725644Y+186055D01*
X+1776444Y+186055D02*
X+1786604Y+186055D01*
X+1651984Y+188595D02*
X+1659604Y+188595D01*
X+1715484Y+188595D02*
X+1725644Y+188595D01*
X+1778984Y+188595D02*
X+1786604Y+188595D01*
X+1649444Y+191135D02*
X+1659604Y+191135D01*
X+1715484Y+191135D02*
X+1725644Y+191135D01*
X+1778984Y+191135D02*
X+1789144Y+191135D01*
X+1649444Y+193675D02*
X+1659604Y+193675D01*
X+1715484Y+193675D02*
X+1725644Y+193675D01*
X+1778984Y+193675D02*
X+1789144Y+193675D01*
X+1649444Y+196215D02*
X+1659604Y+196215D01*
X+1715484Y+196215D02*
X+1725644Y+196215D01*
X+1778984Y+196215D02*
X+1789144Y+196215D01*
X+1649444Y+198755D02*
X+1659604Y+198755D01*
X+1715484Y+198755D02*
X+1725644Y+198755D01*
X+1778984Y+198755D02*
X+1789144Y+198755D01*
X+1649444Y+201295D02*
X+1659604Y+201295D01*
X+1715484Y+201295D02*
X+1725644Y+201295D01*
X+1778984Y+201295D02*
X+1789144Y+201295D01*
X+1649444Y+203835D02*
X+1659604Y+203835D01*
X+1715484Y+203835D02*
X+1725644Y+203835D01*
X+1778984Y+203835D02*
X+1789144Y+203835D01*
X+1649444Y+206375D02*
X+1659604Y+206375D01*
X+1715484Y+206375D02*
X+1725644Y+206375D01*
X+1778984Y+206375D02*
X+1789144Y+206375D01*
X+1649444Y+208915D02*
X+1659604Y+208915D01*
X+1715484Y+208915D02*
X+1725644Y+208915D01*
X+1778984Y+208915D02*
X+1789144Y+208915D01*
X+1649444Y+211455D02*
X+1659604Y+211455D01*
X+1690084Y+211455D02*
X+1751044Y+211455D01*
X+1778984Y+211455D02*
X+1789144Y+211455D01*
X+1649444Y+213995D02*
X+1659604Y+213995D01*
X+1690084Y+213995D02*
X+1751044Y+213995D01*
X+1778984Y+213995D02*
X+1789144Y+213995D01*
X+1649444Y+216535D02*
X+1659604Y+216535D01*
X+1690084Y+216535D02*
X+1751044Y+216535D01*
X+1778984Y+216535D02*
X+1789144Y+216535D01*
X+1651984Y+219075D02*
X+1659604Y+219075D01*
X+1690084Y+219075D02*
X+1751044Y+219075D01*
X+1778984Y+219075D02*
X+1786604Y+219075D01*
X+1651984Y+221615D02*
X+1662144Y+221615D01*
X+1715484Y+221615D02*
X+1725644Y+221615D01*
X+1776444Y+221615D02*
X+1786604Y+221615D01*
X+1651984Y+224155D02*
X+1662144Y+224155D01*
X+1715484Y+224155D02*
X+1725644Y+224155D01*
X+1776444Y+224155D02*
X+1786604Y+224155D01*
X+1651984Y+226695D02*
X+1662144Y+226695D01*
X+1715484Y+226695D02*
X+1725644Y+226695D01*
X+1776444Y+226695D02*
X+1786604Y+226695D01*
X+1654524Y+229235D02*
X+1662144Y+229235D01*
X+1715484Y+229235D02*
X+1725644Y+229235D01*
X+1776444Y+229235D02*
X+1784064Y+229235D01*
X+1654524Y+231775D02*
X+1664684Y+231775D01*
X+1715484Y+231775D02*
X+1725644Y+231775D01*
X+1773904Y+231775D02*
X+1784064Y+231775D01*
X+1654524Y+234315D02*
X+1664684Y+234315D01*
X+1715484Y+234315D02*
X+1725644Y+234315D01*
X+1773904Y+234315D02*
X+1784064Y+234315D01*
X+1657064Y+236855D02*
X+1664684Y+236855D01*
X+1715484Y+236855D02*
X+1725644Y+236855D01*
X+1773904Y+236855D02*
X+1781524Y+236855D01*
X+1657064Y+239395D02*
X+1667224Y+239395D01*
X+1715484Y+239395D02*
X+1725644Y+239395D01*
X+1771364Y+239395D02*
X+1781524Y+239395D01*
X+1659604Y+241935D02*
X+1667224Y+241935D01*
X+1715484Y+241935D02*
X+1725644Y+241935D01*
X+1771364Y+241935D02*
X+1778984Y+241935D01*
X+1659604Y+244475D02*
X+1667224Y+244475D01*
X+1715484Y+244475D02*
X+1725644Y+244475D01*
X+1771364Y+244475D02*
X+1778984Y+244475D01*
X+1662144Y+247015D02*
X+1669764Y+247015D01*
X+1768824Y+247015D02*
X+1776444Y+247015D01*
X+1662144Y+249555D02*
X+1669764Y+249555D01*
X+1768824Y+249555D02*
X+1776444Y+249555D01*
X+1664684Y+252095D02*
X+1672304Y+252095D01*
X+1766284Y+252095D02*
X+1773904Y+252095D01*
X+1664684Y+254635D02*
X+1674844Y+254635D01*
X+1763744Y+254635D02*
X+1773904Y+254635D01*
X+1667224Y+257175D02*
X+1674844Y+257175D01*
X+1763744Y+257175D02*
X+1771364Y+257175D01*
X+1669764Y+259715D02*
X+1677384Y+259715D01*
X+1761204Y+259715D02*
X+1768824Y+259715D01*
X+1426210Y+191135D02*
X+1426210Y+219075D01*
X+1428750Y+180975D02*
X+1428750Y+229235D01*
X+1431290Y+173355D02*
X+1431290Y+236855D01*
X+1433830Y+168275D02*
X+1433830Y+241935D01*
X+1436370Y+163195D02*
X+1436370Y+188595D01*
X+1436370Y+221615D02*
X+1436370Y+247015D01*
X+1438910Y+158115D02*
X+1438910Y+178435D01*
X+1438910Y+231775D02*
X+1438910Y+252095D01*
X+1441450Y+153035D02*
X+1441450Y+170815D01*
X+1441450Y+239395D02*
X+1441450Y+257175D01*
X+1443990Y+150495D02*
X+1443990Y+165735D01*
X+1443990Y+247015D02*
X+1443990Y+259715D01*
X+1446530Y+147955D02*
X+1446530Y+158115D01*
X+1446530Y+252095D02*
X+1446530Y+262255D01*
X+1449070Y+147955D02*
X+1449070Y+155575D01*
X+1449070Y+254635D02*
X+1449070Y+262255D01*
X+1451610Y+147955D02*
X+1451610Y+150495D01*
X+1451610Y+259715D02*
X+1451610Y+262255D01*
X+1461770Y+201295D02*
X+1461770Y+211455D01*
X+1464310Y+201295D02*
X+1464310Y+211455D01*
X+1466850Y+201295D02*
X+1466850Y+211455D01*
X+1469390Y+201295D02*
X+1469390Y+211455D01*
X+1471930Y+201295D02*
X+1471930Y+211455D01*
X+1474470Y+201295D02*
X+1474470Y+211455D01*
X+1477010Y+201295D02*
X+1477010Y+211455D01*
X+1479550Y+201295D02*
X+1479550Y+211455D01*
X+1482090Y+201295D02*
X+1482090Y+211455D01*
X+1484630Y+201295D02*
X+1484630Y+211455D01*
X+1487170Y+201295D02*
X+1487170Y+211455D01*
X+1489710Y+201295D02*
X+1489710Y+211455D01*
X+1492250Y+201295D02*
X+1492250Y+211455D01*
X+1504950Y+147955D02*
X+1504950Y+150495D01*
X+1504950Y+259715D02*
X+1504950Y+262255D01*
X+1507490Y+147955D02*
X+1507490Y+155575D01*
X+1507490Y+254635D02*
X+1507490Y+262255D01*
X+1510030Y+147955D02*
X+1510030Y+158115D01*
X+1510030Y+252095D02*
X+1510030Y+262255D01*
X+1512570Y+150495D02*
X+1512570Y+165735D01*
X+1512570Y+247015D02*
X+1512570Y+259715D01*
X+1515110Y+153035D02*
X+1515110Y+170815D01*
X+1515110Y+239395D02*
X+1515110Y+257175D01*
X+1517650Y+158115D02*
X+1517650Y+178435D01*
X+1517650Y+231775D02*
X+1517650Y+252095D01*
X+1520190Y+163195D02*
X+1520190Y+188595D01*
X+1520190Y+221615D02*
X+1520190Y+247015D01*
X+1522730Y+168275D02*
X+1522730Y+241935D01*
X+1525270Y+173355D02*
X+1525270Y+236855D01*
X+1527810Y+180975D02*
X+1527810Y+229235D01*
X+1530350Y+191135D02*
X+1530350Y+219075D01*
X+1428750Y+27305D02*
X+1438910Y+27305D01*
X+1510030Y+27305D02*
X+1553210Y+27305D01*
X+1428750Y+29845D02*
X+1438910Y+29845D01*
X+1502410Y+29845D02*
X+1553210Y+29845D01*
X+1428750Y+32385D02*
X+1438910Y+32385D01*
X+1497330Y+32385D02*
X+1553210Y+32385D01*
X+1428750Y+34925D02*
X+1438910Y+34925D01*
X+1494790Y+34925D02*
X+1553210Y+34925D01*
X+1428750Y+37465D02*
X+1438910Y+37465D01*
X+1492250Y+37465D02*
X+1510030Y+37465D01*
X+1543050Y+37465D02*
X+1553210Y+37465D01*
X+1428750Y+40005D02*
X+1438910Y+40005D01*
X+1489710Y+40005D02*
X+1504950Y+40005D01*
X+1543050Y+40005D02*
X+1553210Y+40005D01*
X+1428750Y+42545D02*
X+1438910Y+42545D01*
X+1489710Y+42545D02*
X+1502410Y+42545D01*
X+1543050Y+42545D02*
X+1553210Y+42545D01*
X+1428750Y+45085D02*
X+1438910Y+45085D01*
X+1487170Y+45085D02*
X+1499870Y+45085D01*
X+1543050Y+45085D02*
X+1553210Y+45085D01*
X+1428750Y+47625D02*
X+1438910Y+47625D01*
X+1487170Y+47625D02*
X+1497330Y+47625D01*
X+1543050Y+47625D02*
X+1553210Y+47625D01*
X+1428750Y+50165D02*
X+1438910Y+50165D01*
X+1484630Y+50165D02*
X+1497330Y+50165D01*
X+1543050Y+50165D02*
X+1553210Y+50165D01*
X+1428750Y+52705D02*
X+1438910Y+52705D01*
X+1484630Y+52705D02*
X+1494790Y+52705D01*
X+1543050Y+52705D02*
X+1553210Y+52705D01*
X+1428750Y+55245D02*
X+1438910Y+55245D01*
X+1484630Y+55245D02*
X+1494790Y+55245D01*
X+1543050Y+55245D02*
X+1553210Y+55245D01*
X+1428750Y+57785D02*
X+1438910Y+57785D01*
X+1482090Y+57785D02*
X+1494790Y+57785D01*
X+1543050Y+57785D02*
X+1553210Y+57785D01*
X+1428750Y+60325D02*
X+1438910Y+60325D01*
X+1482090Y+60325D02*
X+1492250Y+60325D01*
X+1543050Y+60325D02*
X+1553210Y+60325D01*
X+1428750Y+62865D02*
X+1438910Y+62865D01*
X+1482090Y+62865D02*
X+1492250Y+62865D01*
X+1543050Y+62865D02*
X+1553210Y+62865D01*
X+1428750Y+65405D02*
X+1438910Y+65405D01*
X+1482090Y+65405D02*
X+1492250Y+65405D01*
X+1543050Y+65405D02*
X+1553210Y+65405D01*
X+1428750Y+67945D02*
X+1438910Y+67945D01*
X+1482090Y+67945D02*
X+1492250Y+67945D01*
X+1543050Y+67945D02*
X+1553210Y+67945D01*
X+1428750Y+70485D02*
X+1438910Y+70485D01*
X+1482090Y+70485D02*
X+1492250Y+70485D01*
X+1543050Y+70485D02*
X+1553210Y+70485D01*
X+1428750Y+73025D02*
X+1438910Y+73025D01*
X+1482090Y+73025D02*
X+1492250Y+73025D01*
X+1543050Y+73025D02*
X+1553210Y+73025D01*
X+1428750Y+75565D02*
X+1438910Y+75565D01*
X+1482090Y+75565D02*
X+1492250Y+75565D01*
X+1543050Y+75565D02*
X+1553210Y+75565D01*
X+1428750Y+78105D02*
X+1438910Y+78105D01*
X+1482090Y+78105D02*
X+1492250Y+78105D01*
X+1543050Y+78105D02*
X+1553210Y+78105D01*
X+1428750Y+80645D02*
X+1438910Y+80645D01*
X+1482090Y+80645D02*
X+1492250Y+80645D01*
X+1543050Y+80645D02*
X+1553210Y+80645D01*
X+1428750Y+83185D02*
X+1438910Y+83185D01*
X+1459230Y+83185D02*
X+1461770Y+83185D01*
X+1482090Y+83185D02*
X+1492250Y+83185D01*
X+1543050Y+83185D02*
X+1553210Y+83185D01*
X+1428750Y+85725D02*
X+1438910Y+85725D01*
X+1454150Y+85725D02*
X+1461770Y+85725D01*
X+1484630Y+85725D02*
X+1494790Y+85725D01*
X+1543050Y+85725D02*
X+1553210Y+85725D01*
X+1428750Y+88265D02*
X+1438910Y+88265D01*
X+1449070Y+88265D02*
X+1461770Y+88265D01*
X+1484630Y+88265D02*
X+1494790Y+88265D01*
X+1543050Y+88265D02*
X+1553210Y+88265D01*
X+1428750Y+90805D02*
X+1438910Y+90805D01*
X+1443990Y+90805D02*
X+1461770Y+90805D01*
X+1484630Y+90805D02*
X+1494790Y+90805D01*
X+1543050Y+90805D02*
X+1553210Y+90805D01*
X+1428750Y+93345D02*
X+1438910Y+93345D01*
X+1441450Y+93345D02*
X+1459230Y+93345D01*
X+1487170Y+93345D02*
X+1497330Y+93345D01*
X+1543050Y+93345D02*
X+1553210Y+93345D01*
X+1428750Y+95885D02*
X+1456690Y+95885D01*
X+1487170Y+95885D02*
X+1499870Y+95885D01*
X+1543050Y+95885D02*
X+1553210Y+95885D01*
X+1428750Y+98425D02*
X+1451610Y+98425D01*
X+1487170Y+98425D02*
X+1502410Y+98425D01*
X+1543050Y+98425D02*
X+1553210Y+98425D01*
X+1428750Y+100965D02*
X+1449070Y+100965D01*
X+1489710Y+100965D02*
X+1504950Y+100965D01*
X+1543050Y+100965D02*
X+1553210Y+100965D01*
X+1428750Y+103505D02*
X+1443990Y+103505D01*
X+1492250Y+103505D02*
X+1510030Y+103505D01*
X+1543050Y+103505D02*
X+1553210Y+103505D01*
X+1428750Y+106045D02*
X+1441450Y+106045D01*
X+1494790Y+106045D02*
X+1553210Y+106045D01*
X+1428750Y+108585D02*
X+1438910Y+108585D01*
X+1497330Y+108585D02*
X+1553210Y+108585D01*
X+1428750Y+111125D02*
X+1438910Y+111125D01*
X+1502410Y+111125D02*
X+1553210Y+111125D01*
X+1428750Y+113665D02*
X+1436370Y+113665D01*
X+1507490Y+113665D02*
X+1553210Y+113665D01*
X+1507490Y-102235D02*
X+1527810Y-102235D01*
X+1428750Y-99695D02*
X+1438910Y-99695D01*
X+1499870Y-99695D02*
X+1535430Y-99695D01*
X+1428750Y-97155D02*
X+1438910Y-97155D01*
X+1497330Y-97155D02*
X+1537970Y-97155D01*
X+1428750Y-94615D02*
X+1438910Y-94615D01*
X+1492250Y-94615D02*
X+1543050Y-94615D01*
X+1428750Y-92075D02*
X+1438910Y-92075D01*
X+1489710Y-92075D02*
X+1510030Y-92075D01*
X+1525270Y-92075D02*
X+1545590Y-92075D01*
X+1428750Y-89535D02*
X+1438910Y-89535D01*
X+1489710Y-89535D02*
X+1504950Y-89535D01*
X+1530350Y-89535D02*
X+1545590Y-89535D01*
X+1428750Y-86995D02*
X+1438910Y-86995D01*
X+1487170Y-86995D02*
X+1499870Y-86995D01*
X+1535430Y-86995D02*
X+1548130Y-86995D01*
X+1428750Y-84455D02*
X+1438910Y-84455D01*
X+1487170Y-84455D02*
X+1497330Y-84455D01*
X+1537970Y-84455D02*
X+1550670Y-84455D01*
X+1428750Y-81915D02*
X+1438910Y-81915D01*
X+1484630Y-81915D02*
X+1497330Y-81915D01*
X+1540510Y-81915D02*
X+1550670Y-81915D01*
X+1428750Y-79375D02*
X+1438910Y-79375D01*
X+1484630Y-79375D02*
X+1494790Y-79375D01*
X+1540510Y-79375D02*
X+1550670Y-79375D01*
X+1428750Y-76835D02*
X+1438910Y-76835D01*
X+1482090Y-76835D02*
X+1494790Y-76835D01*
X+1543050Y-76835D02*
X+1553210Y-76835D01*
X+1428750Y-74295D02*
X+1438910Y-74295D01*
X+1482090Y-74295D02*
X+1492250Y-74295D01*
X+1543050Y-74295D02*
X+1553210Y-74295D01*
X+1428750Y-71755D02*
X+1438910Y-71755D01*
X+1487170Y-71755D02*
X+1492250Y-71755D01*
X+1543050Y-71755D02*
X+1553210Y-71755D01*
X+1428750Y-69215D02*
X+1438910Y-69215D01*
X+1545590Y-69215D02*
X+1555750Y-69215D01*
X+1428750Y-66675D02*
X+1438910Y-66675D01*
X+1545590Y-66675D02*
X+1555750Y-66675D01*
X+1428750Y-64135D02*
X+1438910Y-64135D01*
X+1545590Y-64135D02*
X+1555750Y-64135D01*
X+1428750Y-61595D02*
X+1438910Y-61595D01*
X+1545590Y-61595D02*
X+1555750Y-61595D01*
X+1428750Y-59055D02*
X+1438910Y-59055D01*
X+1545590Y-59055D02*
X+1555750Y-59055D01*
X+1428750Y-56515D02*
X+1438910Y-56515D01*
X+1545590Y-56515D02*
X+1555750Y-56515D01*
X+1428750Y-53975D02*
X+1438910Y-53975D01*
X+1545590Y-53975D02*
X+1555750Y-53975D01*
X+1428750Y-51435D02*
X+1438910Y-51435D01*
X+1545590Y-51435D02*
X+1555750Y-51435D01*
X+1428750Y-48895D02*
X+1438910Y-48895D01*
X+1545590Y-48895D02*
X+1555750Y-48895D01*
X+1428750Y-46355D02*
X+1438910Y-46355D01*
X+1545590Y-46355D02*
X+1555750Y-46355D01*
X+1428750Y-43815D02*
X+1438910Y-43815D01*
X+1459230Y-43815D02*
X+1461770Y-43815D01*
X+1545590Y-43815D02*
X+1555750Y-43815D01*
X+1428750Y-41275D02*
X+1438910Y-41275D01*
X+1454150Y-41275D02*
X+1461770Y-41275D01*
X+1543050Y-41275D02*
X+1553210Y-41275D01*
X+1428750Y-38735D02*
X+1438910Y-38735D01*
X+1449070Y-38735D02*
X+1461770Y-38735D01*
X+1543050Y-38735D02*
X+1553210Y-38735D01*
X+1428750Y-36195D02*
X+1438910Y-36195D01*
X+1443990Y-36195D02*
X+1461770Y-36195D01*
X+1484630Y-36195D02*
X+1494790Y-36195D01*
X+1543050Y-36195D02*
X+1553210Y-36195D01*
X+1428750Y-33655D02*
X+1438910Y-33655D01*
X+1441450Y-33655D02*
X+1459230Y-33655D01*
X+1484630Y-33655D02*
X+1497330Y-33655D01*
X+1540510Y-33655D02*
X+1553210Y-33655D01*
X+1428750Y-31115D02*
X+1456690Y-31115D01*
X+1487170Y-31115D02*
X+1497330Y-31115D01*
X+1540510Y-31115D02*
X+1550670Y-31115D01*
X+1428750Y-28575D02*
X+1451610Y-28575D01*
X+1487170Y-28575D02*
X+1499870Y-28575D01*
X+1537970Y-28575D02*
X+1550670Y-28575D01*
X+1428750Y-26035D02*
X+1449070Y-26035D01*
X+1489710Y-26035D02*
X+1502410Y-26035D01*
X+1535430Y-26035D02*
X+1548130Y-26035D01*
X+1428750Y-23495D02*
X+1443990Y-23495D01*
X+1489710Y-23495D02*
X+1504950Y-23495D01*
X+1532890Y-23495D02*
X+1545590Y-23495D01*
X+1428750Y-20955D02*
X+1441450Y-20955D01*
X+1492250Y-20955D02*
X+1510030Y-20955D01*
X+1525270Y-20955D02*
X+1543050Y-20955D01*
X+1428750Y-18415D02*
X+1438910Y-18415D01*
X+1494790Y-18415D02*
X+1540510Y-18415D01*
X+1428750Y-15875D02*
X+1438910Y-15875D01*
X+1497330Y-15875D02*
X+1537970Y-15875D01*
X+1428750Y-13335D02*
X+1436370Y-13335D01*
X+1499870Y-13335D02*
X+1532890Y-13335D01*
X+1507490Y-10795D02*
X+1527810Y-10795D01*
X+1428750Y-226695D02*
X+1438910Y-226695D01*
X+1484630Y-226695D02*
X+1494790Y-226695D01*
X+1520190Y-226695D02*
X+1532890Y-226695D01*
X+1558290Y-226695D02*
X+1568450Y-226695D01*
X+1428750Y-224155D02*
X+1438910Y-224155D01*
X+1484630Y-224155D02*
X+1494790Y-224155D01*
X+1520190Y-224155D02*
X+1532890Y-224155D01*
X+1558290Y-224155D02*
X+1568450Y-224155D01*
X+1428750Y-221615D02*
X+1438910Y-221615D01*
X+1484630Y-221615D02*
X+1494790Y-221615D01*
X+1517650Y-221615D02*
X+1535430Y-221615D01*
X+1558290Y-221615D02*
X+1568450Y-221615D01*
X+1428750Y-219075D02*
X+1438910Y-219075D01*
X+1484630Y-219075D02*
X+1494790Y-219075D01*
X+1517650Y-219075D02*
X+1535430Y-219075D01*
X+1558290Y-219075D02*
X+1568450Y-219075D01*
X+1428750Y-216535D02*
X+1438910Y-216535D01*
X+1484630Y-216535D02*
X+1494790Y-216535D01*
X+1517650Y-216535D02*
X+1535430Y-216535D01*
X+1558290Y-216535D02*
X+1568450Y-216535D01*
X+1428750Y-213995D02*
X+1438910Y-213995D01*
X+1484630Y-213995D02*
X+1494790Y-213995D01*
X+1515110Y-213995D02*
X+1525270Y-213995D01*
X+1527810Y-213995D02*
X+1537970Y-213995D01*
X+1558290Y-213995D02*
X+1568450Y-213995D01*
X+1428750Y-211455D02*
X+1438910Y-211455D01*
X+1484630Y-211455D02*
X+1494790Y-211455D01*
X+1515110Y-211455D02*
X+1525270Y-211455D01*
X+1527810Y-211455D02*
X+1537970Y-211455D01*
X+1558290Y-211455D02*
X+1568450Y-211455D01*
X+1428750Y-208915D02*
X+1438910Y-208915D01*
X+1484630Y-208915D02*
X+1494790Y-208915D01*
X+1515110Y-208915D02*
X+1525270Y-208915D01*
X+1527810Y-208915D02*
X+1537970Y-208915D01*
X+1558290Y-208915D02*
X+1568450Y-208915D01*
X+1428750Y-206375D02*
X+1438910Y-206375D01*
X+1484630Y-206375D02*
X+1494790Y-206375D01*
X+1512570Y-206375D02*
X+1522730Y-206375D01*
X+1530350Y-206375D02*
X+1540510Y-206375D01*
X+1558290Y-206375D02*
X+1568450Y-206375D01*
X+1428750Y-203835D02*
X+1438910Y-203835D01*
X+1484630Y-203835D02*
X+1494790Y-203835D01*
X+1512570Y-203835D02*
X+1522730Y-203835D01*
X+1530350Y-203835D02*
X+1540510Y-203835D01*
X+1558290Y-203835D02*
X+1568450Y-203835D01*
X+1428750Y-201295D02*
X+1438910Y-201295D01*
X+1484630Y-201295D02*
X+1494790Y-201295D01*
X+1512570Y-201295D02*
X+1522730Y-201295D01*
X+1530350Y-201295D02*
X+1540510Y-201295D01*
X+1558290Y-201295D02*
X+1568450Y-201295D01*
X+1428750Y-198755D02*
X+1438910Y-198755D01*
X+1484630Y-198755D02*
X+1494790Y-198755D01*
X+1510030Y-198755D02*
X+1520190Y-198755D01*
X+1532890Y-198755D02*
X+1543050Y-198755D01*
X+1558290Y-198755D02*
X+1568450Y-198755D01*
X+1428750Y-196215D02*
X+1438910Y-196215D01*
X+1484630Y-196215D02*
X+1494790Y-196215D01*
X+1510030Y-196215D02*
X+1520190Y-196215D01*
X+1532890Y-196215D02*
X+1543050Y-196215D01*
X+1558290Y-196215D02*
X+1568450Y-196215D01*
X+1428750Y-193675D02*
X+1438910Y-193675D01*
X+1484630Y-193675D02*
X+1494790Y-193675D01*
X+1510030Y-193675D02*
X+1520190Y-193675D01*
X+1532890Y-193675D02*
X+1543050Y-193675D01*
X+1558290Y-193675D02*
X+1568450Y-193675D01*
X+1428750Y-191135D02*
X+1438910Y-191135D01*
X+1484630Y-191135D02*
X+1494790Y-191135D01*
X+1507490Y-191135D02*
X+1517650Y-191135D01*
X+1535430Y-191135D02*
X+1545590Y-191135D01*
X+1558290Y-191135D02*
X+1568450Y-191135D01*
X+1428750Y-188595D02*
X+1438910Y-188595D01*
X+1484630Y-188595D02*
X+1494790Y-188595D01*
X+1507490Y-188595D02*
X+1517650Y-188595D01*
X+1535430Y-188595D02*
X+1545590Y-188595D01*
X+1558290Y-188595D02*
X+1568450Y-188595D01*
X+1428750Y-186055D02*
X+1438910Y-186055D01*
X+1484630Y-186055D02*
X+1494790Y-186055D01*
X+1507490Y-186055D02*
X+1517650Y-186055D01*
X+1535430Y-186055D02*
X+1545590Y-186055D01*
X+1558290Y-186055D02*
X+1568450Y-186055D01*
X+1428750Y-183515D02*
X+1438910Y-183515D01*
X+1484630Y-183515D02*
X+1494790Y-183515D01*
X+1504950Y-183515D02*
X+1515110Y-183515D01*
X+1537970Y-183515D02*
X+1548130Y-183515D01*
X+1558290Y-183515D02*
X+1568450Y-183515D01*
X+1428750Y-180975D02*
X+1438910Y-180975D01*
X+1484630Y-180975D02*
X+1494790Y-180975D01*
X+1504950Y-180975D02*
X+1515110Y-180975D01*
X+1537970Y-180975D02*
X+1548130Y-180975D01*
X+1558290Y-180975D02*
X+1568450Y-180975D01*
X+1428750Y-178435D02*
X+1438910Y-178435D01*
X+1484630Y-178435D02*
X+1494790Y-178435D01*
X+1504950Y-178435D02*
X+1515110Y-178435D01*
X+1537970Y-178435D02*
X+1548130Y-178435D01*
X+1558290Y-178435D02*
X+1568450Y-178435D01*
X+1428750Y-175895D02*
X+1438910Y-175895D01*
X+1484630Y-175895D02*
X+1494790Y-175895D01*
X+1502410Y-175895D02*
X+1512570Y-175895D01*
X+1540510Y-175895D02*
X+1550670Y-175895D01*
X+1558290Y-175895D02*
X+1568450Y-175895D01*
X+1428750Y-173355D02*
X+1438910Y-173355D01*
X+1484630Y-173355D02*
X+1494790Y-173355D01*
X+1502410Y-173355D02*
X+1512570Y-173355D01*
X+1540510Y-173355D02*
X+1550670Y-173355D01*
X+1558290Y-173355D02*
X+1568450Y-173355D01*
X+1428750Y-170815D02*
X+1438910Y-170815D01*
X+1459230Y-170815D02*
X+1461770Y-170815D01*
X+1484630Y-170815D02*
X+1494790Y-170815D01*
X+1502410Y-170815D02*
X+1512570Y-170815D01*
X+1540510Y-170815D02*
X+1550670Y-170815D01*
X+1558290Y-170815D02*
X+1568450Y-170815D01*
X+1428750Y-168275D02*
X+1438910Y-168275D01*
X+1454150Y-168275D02*
X+1461770Y-168275D01*
X+1484630Y-168275D02*
X+1494790Y-168275D01*
X+1499870Y-168275D02*
X+1510030Y-168275D01*
X+1543050Y-168275D02*
X+1553210Y-168275D01*
X+1558290Y-168275D02*
X+1568450Y-168275D01*
X+1428750Y-165735D02*
X+1438910Y-165735D01*
X+1449070Y-165735D02*
X+1461770Y-165735D01*
X+1484630Y-165735D02*
X+1494790Y-165735D01*
X+1499870Y-165735D02*
X+1510030Y-165735D01*
X+1543050Y-165735D02*
X+1553210Y-165735D01*
X+1558290Y-165735D02*
X+1568450Y-165735D01*
X+1428750Y-163195D02*
X+1438910Y-163195D01*
X+1443990Y-163195D02*
X+1461770Y-163195D01*
X+1484630Y-163195D02*
X+1494790Y-163195D01*
X+1499870Y-163195D02*
X+1510030Y-163195D01*
X+1543050Y-163195D02*
X+1553210Y-163195D01*
X+1558290Y-163195D02*
X+1568450Y-163195D01*
X+1428750Y-160655D02*
X+1438910Y-160655D01*
X+1441450Y-160655D02*
X+1459230Y-160655D01*
X+1484630Y-160655D02*
X+1494790Y-160655D01*
X+1497330Y-160655D02*
X+1510030Y-160655D01*
X+1543050Y-160655D02*
X+1555750Y-160655D01*
X+1558290Y-160655D02*
X+1568450Y-160655D01*
X+1428750Y-158115D02*
X+1456690Y-158115D01*
X+1484630Y-158115D02*
X+1494790Y-158115D01*
X+1497330Y-158115D02*
X+1507490Y-158115D01*
X+1545590Y-158115D02*
X+1555750Y-158115D01*
X+1558290Y-158115D02*
X+1568450Y-158115D01*
X+1428750Y-155575D02*
X+1451610Y-155575D01*
X+1484630Y-155575D02*
X+1494790Y-155575D01*
X+1497330Y-155575D02*
X+1507490Y-155575D01*
X+1545590Y-155575D02*
X+1555750Y-155575D01*
X+1558290Y-155575D02*
X+1568450Y-155575D01*
X+1428750Y-153035D02*
X+1449070Y-153035D01*
X+1484630Y-153035D02*
X+1507490Y-153035D01*
X+1545590Y-153035D02*
X+1568450Y-153035D01*
X+1428750Y-150495D02*
X+1443990Y-150495D01*
X+1484630Y-150495D02*
X+1504950Y-150495D01*
X+1548130Y-150495D02*
X+1568450Y-150495D01*
X+1428750Y-147955D02*
X+1441450Y-147955D01*
X+1484630Y-147955D02*
X+1504950Y-147955D01*
X+1548130Y-147955D02*
X+1568450Y-147955D01*
X+1428750Y-145415D02*
X+1438910Y-145415D01*
X+1484630Y-145415D02*
X+1504950Y-145415D01*
X+1548130Y-145415D02*
X+1568450Y-145415D01*
X+1428750Y-142875D02*
X+1438910Y-142875D01*
X+1484630Y-142875D02*
X+1502410Y-142875D01*
X+1550670Y-142875D02*
X+1568450Y-142875D01*
X+1428750Y-140335D02*
X+1436370Y-140335D01*
X+1484630Y-140335D02*
X+1502410Y-140335D01*
X+1550670Y-140335D02*
X+1568450Y-140335D01*
M02*
