G04 PROTEUS RS274X GERBER FILE*
%FSLAX45Y45*%
%MOMM*%
G01*
%AMPPAD045*
4,1,36,
-0.495200,0.927000,
0.495200,0.927000,
0.583490,0.918410,
0.665130,0.893690,
0.738560,0.854420,
0.802180,0.802180,
0.854420,0.738560,
0.893690,0.665130,
0.918410,0.583490,
0.927000,0.495200,
0.927000,-0.495200,
0.918410,-0.583490,
0.893690,-0.665130,
0.854420,-0.738560,
0.802180,-0.802180,
0.738560,-0.854420,
0.665130,-0.893690,
0.583490,-0.918410,
0.495200,-0.927000,
-0.495200,-0.927000,
-0.583490,-0.918410,
-0.665130,-0.893690,
-0.738560,-0.854420,
-0.802180,-0.802180,
-0.854420,-0.738560,
-0.893690,-0.665130,
-0.918410,-0.583490,
-0.927000,-0.495200,
-0.927000,0.495200,
-0.918410,0.583490,
-0.893690,0.665130,
-0.854420,0.738560,
-0.802180,0.802180,
-0.738560,0.854420,
-0.665130,0.893690,
-0.583490,0.918410,
-0.495200,0.927000,
0*%
%ADD51PPAD045*%
%ADD52C,1.854000*%
%AMPPAD072*
4,1,36,
-2.375000,0.877000,
2.375000,0.877000,
2.400970,0.874470,
2.424980,0.867200,
2.446580,0.855650,
2.465290,0.840290,
2.480650,0.821570,
2.492200,0.799980,
2.499470,0.775970,
2.502000,0.750000,
2.502000,-0.750000,
2.499470,-0.775970,
2.492200,-0.799980,
2.480650,-0.821570,
2.465290,-0.840290,
2.446580,-0.855650,
2.424980,-0.867200,
2.400970,-0.874470,
2.375000,-0.877000,
-2.375000,-0.877000,
-2.400970,-0.874470,
-2.424980,-0.867200,
-2.446580,-0.855650,
-2.465290,-0.840290,
-2.480650,-0.821570,
-2.492200,-0.799980,
-2.499470,-0.775970,
-2.502000,-0.750000,
-2.502000,0.750000,
-2.499470,0.775970,
-2.492200,0.799980,
-2.480650,0.821570,
-2.465290,0.840290,
-2.446580,0.855650,
-2.424980,0.867200,
-2.400970,0.874470,
-2.375000,0.877000,
0*%
%ADD82PPAD072*%
%ADD42C,0.025400*%
D51*
X+1016000Y+254000D03*
D52*
X+1270000Y+254000D03*
X+1524000Y+254000D03*
X+1778000Y+254000D03*
X+2032000Y+254000D03*
X+2286000Y+254000D03*
X+2540000Y+254000D03*
X+2794000Y+254000D03*
X+3048000Y+254000D03*
X+3302000Y+254000D03*
D51*
X+3556000Y+254000D03*
D52*
X+3810000Y+254000D03*
X+4064000Y+254000D03*
X+4318000Y+254000D03*
X+4572000Y+254000D03*
X+4826000Y+254000D03*
X+5080000Y+254000D03*
D51*
X+609600Y+5080000D03*
D52*
X+863600Y+5080000D03*
X+1117600Y+5080000D03*
X+1371600Y+5080000D03*
X+1625600Y+5080000D03*
X+1879600Y+5080000D03*
X+2133600Y+5080000D03*
X+2387600Y+5080000D03*
X+2641600Y+5080000D03*
X+2895600Y+5080000D03*
D51*
X+3302000Y+5080000D03*
D52*
X+3556000Y+5080000D03*
X+3810000Y+5080000D03*
X+4064000Y+5080000D03*
X+4318000Y+5080000D03*
X+4572000Y+5080000D03*
X+4826000Y+5080000D03*
X+5080000Y+5080000D03*
D82*
X+5314950Y+2117500D03*
X+5314950Y+2962500D03*
D42*
X+5492750Y+762000D02*
X+5492220Y+774958D01*
X+5487916Y+800876D01*
X+5478925Y+826794D01*
X+5464280Y+852712D01*
X+5441876Y+878466D01*
X+5415958Y+897958D01*
X+5390040Y+910530D01*
X+5364122Y+917866D01*
X+5338204Y+920694D01*
X+5334000Y+920750D01*
X+5175250Y+762000D02*
X+5175780Y+774958D01*
X+5180084Y+800876D01*
X+5189075Y+826794D01*
X+5203720Y+852712D01*
X+5226124Y+878466D01*
X+5252042Y+897958D01*
X+5277960Y+910530D01*
X+5303878Y+917866D01*
X+5329796Y+920694D01*
X+5334000Y+920750D01*
X+5175250Y+762000D02*
X+5175780Y+749042D01*
X+5180084Y+723124D01*
X+5189075Y+697206D01*
X+5203720Y+671288D01*
X+5226124Y+645534D01*
X+5252042Y+626042D01*
X+5277960Y+613470D01*
X+5303878Y+606134D01*
X+5329796Y+603306D01*
X+5334000Y+603250D01*
X+5492750Y+762000D02*
X+5492220Y+749042D01*
X+5487916Y+723124D01*
X+5478925Y+697206D01*
X+5464280Y+671288D01*
X+5441876Y+645534D01*
X+5415958Y+626042D01*
X+5390040Y+613470D01*
X+5364122Y+606134D01*
X+5338204Y+603306D01*
X+5334000Y+603250D01*
X+5492750Y+3556000D02*
X+5492220Y+3568958D01*
X+5487916Y+3594876D01*
X+5478925Y+3620794D01*
X+5464280Y+3646712D01*
X+5441876Y+3672466D01*
X+5415958Y+3691958D01*
X+5390040Y+3704530D01*
X+5364122Y+3711866D01*
X+5338204Y+3714694D01*
X+5334000Y+3714750D01*
X+5175250Y+3556000D02*
X+5175780Y+3568958D01*
X+5180084Y+3594876D01*
X+5189075Y+3620794D01*
X+5203720Y+3646712D01*
X+5226124Y+3672466D01*
X+5252042Y+3691958D01*
X+5277960Y+3704530D01*
X+5303878Y+3711866D01*
X+5329796Y+3714694D01*
X+5334000Y+3714750D01*
X+5175250Y+3556000D02*
X+5175780Y+3543042D01*
X+5180084Y+3517124D01*
X+5189075Y+3491206D01*
X+5203720Y+3465288D01*
X+5226124Y+3439534D01*
X+5252042Y+3420042D01*
X+5277960Y+3407470D01*
X+5303878Y+3400134D01*
X+5329796Y+3397306D01*
X+5334000Y+3397250D01*
X+5492750Y+3556000D02*
X+5492220Y+3543042D01*
X+5487916Y+3517124D01*
X+5478925Y+3491206D01*
X+5464280Y+3465288D01*
X+5441876Y+3439534D01*
X+5415958Y+3420042D01*
X+5390040Y+3407470D01*
X+5364122Y+3400134D01*
X+5338204Y+3397306D01*
X+5334000Y+3397250D01*
X+412750Y+5080000D02*
X+412220Y+5092958D01*
X+407916Y+5118876D01*
X+398925Y+5144794D01*
X+384280Y+5170712D01*
X+361876Y+5196466D01*
X+335958Y+5215958D01*
X+310040Y+5228530D01*
X+284122Y+5235866D01*
X+258204Y+5238694D01*
X+254000Y+5238750D01*
X+95250Y+5080000D02*
X+95780Y+5092958D01*
X+100084Y+5118876D01*
X+109075Y+5144794D01*
X+123720Y+5170712D01*
X+146124Y+5196466D01*
X+172042Y+5215958D01*
X+197960Y+5228530D01*
X+223878Y+5235866D01*
X+249796Y+5238694D01*
X+254000Y+5238750D01*
X+95250Y+5080000D02*
X+95780Y+5067042D01*
X+100084Y+5041124D01*
X+109075Y+5015206D01*
X+123720Y+4989288D01*
X+146124Y+4963534D01*
X+172042Y+4944042D01*
X+197960Y+4931470D01*
X+223878Y+4924134D01*
X+249796Y+4921306D01*
X+254000Y+4921250D01*
X+412750Y+5080000D02*
X+412220Y+5067042D01*
X+407916Y+5041124D01*
X+398925Y+5015206D01*
X+384280Y+4989288D01*
X+361876Y+4963534D01*
X+335958Y+4944042D01*
X+310040Y+4931470D01*
X+284122Y+4924134D01*
X+258204Y+4921306D01*
X+254000Y+4921250D01*
X+412750Y+254000D02*
X+412220Y+266958D01*
X+407916Y+292876D01*
X+398925Y+318794D01*
X+384280Y+344712D01*
X+361876Y+370466D01*
X+335958Y+389958D01*
X+310040Y+402530D01*
X+284122Y+409866D01*
X+258204Y+412694D01*
X+254000Y+412750D01*
X+95250Y+254000D02*
X+95780Y+266958D01*
X+100084Y+292876D01*
X+109075Y+318794D01*
X+123720Y+344712D01*
X+146124Y+370466D01*
X+172042Y+389958D01*
X+197960Y+402530D01*
X+223878Y+409866D01*
X+249796Y+412694D01*
X+254000Y+412750D01*
X+95250Y+254000D02*
X+95780Y+241042D01*
X+100084Y+215124D01*
X+109075Y+189206D01*
X+123720Y+163288D01*
X+146124Y+137534D01*
X+172042Y+118042D01*
X+197960Y+105470D01*
X+223878Y+98134D01*
X+249796Y+95306D01*
X+254000Y+95250D01*
X+412750Y+254000D02*
X+412220Y+241042D01*
X+407916Y+215124D01*
X+398925Y+189206D01*
X+384280Y+163288D01*
X+361876Y+137534D01*
X+335958Y+118042D01*
X+310040Y+105470D01*
X+284122Y+98134D01*
X+258204Y+95306D01*
X+254000Y+95250D01*
X+0Y+127000D02*
X+2527Y+101032D01*
X+9798Y+77018D01*
X+21348Y+55423D01*
X+36711Y+36711D01*
X+55423Y+21347D01*
X+77018Y+9798D01*
X+101032Y+2527D01*
X+127000Y+0D01*
X+5207000Y+0D01*
X+5232967Y+2527D01*
X+5256981Y+9798D01*
X+5278577Y+21347D01*
X+5297289Y+36711D01*
X+5312652Y+55423D01*
X+5324202Y+77018D01*
X+5331473Y+101032D01*
X+5334000Y+127000D01*
X+5334000Y+254000D01*
X+5588000Y+508000D01*
X+5588000Y+3810000D01*
X+5334000Y+4064000D01*
X+5334000Y+5207000D01*
X+5207000Y+5334000D01*
X+127000Y+5334000D01*
X+101032Y+5331473D01*
X+77018Y+5324202D01*
X+55423Y+5312652D01*
X+36711Y+5297289D01*
X+21348Y+5278577D01*
X+9798Y+5256981D01*
X+2527Y+5232967D01*
X+0Y+5207000D01*
X+0Y+127000D01*
X+480300Y+803300D02*
X+480197Y+805789D01*
X+479355Y+810769D01*
X+477595Y+815749D01*
X+474718Y+820729D01*
X+470317Y+825645D01*
X+465337Y+829259D01*
X+460357Y+831564D01*
X+455377Y+832867D01*
X+450397Y+833300D01*
X+450300Y+833300D01*
X+420300Y+803300D02*
X+420403Y+805789D01*
X+421245Y+810769D01*
X+423005Y+815749D01*
X+425882Y+820729D01*
X+430283Y+825645D01*
X+435263Y+829259D01*
X+440243Y+831564D01*
X+445223Y+832867D01*
X+450203Y+833300D01*
X+450300Y+833300D01*
X+420300Y+803300D02*
X+420403Y+800811D01*
X+421245Y+795831D01*
X+423005Y+790851D01*
X+425882Y+785871D01*
X+430283Y+780955D01*
X+435263Y+777341D01*
X+440243Y+775036D01*
X+445223Y+773733D01*
X+450203Y+773300D01*
X+450300Y+773300D01*
X+480300Y+803300D02*
X+480197Y+800811D01*
X+479355Y+795831D01*
X+477595Y+790851D01*
X+474718Y+785871D01*
X+470317Y+780955D01*
X+465337Y+777341D01*
X+460357Y+775036D01*
X+455377Y+773733D01*
X+450397Y+773300D01*
X+450300Y+773300D01*
X+480300Y+1203300D02*
X+480197Y+1205789D01*
X+479355Y+1210769D01*
X+477595Y+1215749D01*
X+474718Y+1220729D01*
X+470317Y+1225645D01*
X+465337Y+1229259D01*
X+460357Y+1231564D01*
X+455377Y+1232867D01*
X+450397Y+1233300D01*
X+450300Y+1233300D01*
X+420300Y+1203300D02*
X+420403Y+1205789D01*
X+421245Y+1210769D01*
X+423005Y+1215749D01*
X+425882Y+1220729D01*
X+430283Y+1225645D01*
X+435263Y+1229259D01*
X+440243Y+1231564D01*
X+445223Y+1232867D01*
X+450203Y+1233300D01*
X+450300Y+1233300D01*
X+420300Y+1203300D02*
X+420403Y+1200811D01*
X+421245Y+1195831D01*
X+423005Y+1190851D01*
X+425882Y+1185871D01*
X+430283Y+1180955D01*
X+435263Y+1177341D01*
X+440243Y+1175036D01*
X+445223Y+1173733D01*
X+450203Y+1173300D01*
X+450300Y+1173300D01*
X+480300Y+1203300D02*
X+480197Y+1200811D01*
X+479355Y+1195831D01*
X+477595Y+1190851D01*
X+474718Y+1185871D01*
X+470317Y+1180955D01*
X+465337Y+1177341D01*
X+460357Y+1175036D01*
X+455377Y+1173733D01*
X+450397Y+1173300D01*
X+450300Y+1173300D01*
X+594700Y+3443900D02*
X+594428Y+3450496D01*
X+592214Y+3463690D01*
X+587584Y+3476884D01*
X+580027Y+3490078D01*
X+568465Y+3503140D01*
X+555271Y+3512849D01*
X+542077Y+3519070D01*
X+528883Y+3522633D01*
X+515689Y+3523894D01*
X+514700Y+3523900D01*
X+434700Y+3443900D02*
X+434972Y+3450496D01*
X+437186Y+3463690D01*
X+441816Y+3476884D01*
X+449373Y+3490078D01*
X+460935Y+3503140D01*
X+474129Y+3512849D01*
X+487323Y+3519070D01*
X+500517Y+3522633D01*
X+513711Y+3523894D01*
X+514700Y+3523900D01*
X+434700Y+3443900D02*
X+434972Y+3437304D01*
X+437186Y+3424110D01*
X+441816Y+3410916D01*
X+449373Y+3397722D01*
X+460935Y+3384660D01*
X+474129Y+3374951D01*
X+487323Y+3368730D01*
X+500517Y+3365167D01*
X+513711Y+3363906D01*
X+514700Y+3363900D01*
X+594700Y+3443900D02*
X+594428Y+3437304D01*
X+592214Y+3424110D01*
X+587584Y+3410916D01*
X+580027Y+3397722D01*
X+568465Y+3384660D01*
X+555271Y+3374951D01*
X+542077Y+3368730D01*
X+528883Y+3365167D01*
X+515689Y+3363906D01*
X+514700Y+3363900D01*
X+1054700Y+3443900D02*
X+1054394Y+3451311D01*
X+1051910Y+3466135D01*
X+1046716Y+3480959D01*
X+1038240Y+3495783D01*
X+1025272Y+3510466D01*
X+1010448Y+3521406D01*
X+995624Y+3528420D01*
X+980800Y+3532448D01*
X+965976Y+3533891D01*
X+964700Y+3533900D01*
X+874700Y+3443900D02*
X+875006Y+3451311D01*
X+877490Y+3466135D01*
X+882684Y+3480959D01*
X+891160Y+3495783D01*
X+904128Y+3510466D01*
X+918952Y+3521406D01*
X+933776Y+3528420D01*
X+948600Y+3532448D01*
X+963424Y+3533891D01*
X+964700Y+3533900D01*
X+874700Y+3443900D02*
X+875006Y+3436489D01*
X+877490Y+3421665D01*
X+882684Y+3406841D01*
X+891160Y+3392017D01*
X+904128Y+3377334D01*
X+918952Y+3366394D01*
X+933776Y+3359380D01*
X+948600Y+3355352D01*
X+963424Y+3353909D01*
X+964700Y+3353900D01*
X+1054700Y+3443900D02*
X+1054394Y+3436489D01*
X+1051910Y+3421665D01*
X+1046716Y+3406841D01*
X+1038240Y+3392017D01*
X+1025272Y+3377334D01*
X+1010448Y+3366394D01*
X+995624Y+3359380D01*
X+980800Y+3355352D01*
X+965976Y+3353909D01*
X+964700Y+3353900D01*
X+1225050Y+1656200D02*
X+1224929Y+1659102D01*
X+1223949Y+1664908D01*
X+1221899Y+1670714D01*
X+1218547Y+1676520D01*
X+1213421Y+1682254D01*
X+1207615Y+1686473D01*
X+1201809Y+1689166D01*
X+1196003Y+1690690D01*
X+1190197Y+1691200D01*
X+1190050Y+1691200D01*
X+1155050Y+1656200D02*
X+1155171Y+1659102D01*
X+1156151Y+1664908D01*
X+1158201Y+1670714D01*
X+1161553Y+1676520D01*
X+1166679Y+1682254D01*
X+1172485Y+1686473D01*
X+1178291Y+1689166D01*
X+1184097Y+1690690D01*
X+1189903Y+1691200D01*
X+1190050Y+1691200D01*
X+1155050Y+1656200D02*
X+1155171Y+1653298D01*
X+1156151Y+1647492D01*
X+1158201Y+1641686D01*
X+1161553Y+1635880D01*
X+1166679Y+1630146D01*
X+1172485Y+1625927D01*
X+1178291Y+1623234D01*
X+1184097Y+1621710D01*
X+1189903Y+1621200D01*
X+1190050Y+1621200D01*
X+1225050Y+1656200D02*
X+1224929Y+1653298D01*
X+1223949Y+1647492D01*
X+1221899Y+1641686D01*
X+1218547Y+1635880D01*
X+1213421Y+1630146D01*
X+1207615Y+1625927D01*
X+1201809Y+1623234D01*
X+1196003Y+1621710D01*
X+1190197Y+1621200D01*
X+1190050Y+1621200D01*
X+405050Y+2556200D02*
X+404895Y+2559927D01*
X+403639Y+2567382D01*
X+401009Y+2574837D01*
X+396713Y+2582292D01*
X+390143Y+2589658D01*
X+382688Y+2595091D01*
X+375233Y+2598561D01*
X+367778Y+2600531D01*
X+360323Y+2601199D01*
X+360050Y+2601200D01*
X+315050Y+2556200D02*
X+315205Y+2559927D01*
X+316461Y+2567382D01*
X+319091Y+2574837D01*
X+323387Y+2582292D01*
X+329957Y+2589658D01*
X+337412Y+2595091D01*
X+344867Y+2598561D01*
X+352322Y+2600531D01*
X+359777Y+2601199D01*
X+360050Y+2601200D01*
X+315050Y+2556200D02*
X+315205Y+2552473D01*
X+316461Y+2545018D01*
X+319091Y+2537563D01*
X+323387Y+2530108D01*
X+329957Y+2522742D01*
X+337412Y+2517309D01*
X+344867Y+2513839D01*
X+352322Y+2511869D01*
X+359777Y+2511201D01*
X+360050Y+2511200D01*
X+405050Y+2556200D02*
X+404895Y+2552473D01*
X+403639Y+2545018D01*
X+401009Y+2537563D01*
X+396713Y+2530108D01*
X+390143Y+2522742D01*
X+382688Y+2517309D01*
X+375233Y+2513839D01*
X+367778Y+2511869D01*
X+360323Y+2511201D01*
X+360050Y+2511200D01*
M02*
