M48
METRIC,TZ
T01C0.3050
T02C0.9500
%
T01
X+17790Y+16082
X+20942Y+20100
X+20942Y+17100
X+17790Y+21162
X+16190Y+23702
X+20942Y+15600
X+13602Y+6620
X+29080Y+46409
X+23143Y+42729
X+19051Y+43164
X+29080Y+45520
X+29080Y+47298
X+13602Y+46943
X+14174Y+46372
X+13030Y+46372
X+13030Y+47514
X+14174Y+47514
X+13602Y+13446
X+14174Y+12874
X+13030Y+12874
X+13030Y+14018
X+14174Y+14018
X+9502Y+6620
X+10074Y+7191
X+8930Y+7191
X+8930Y+6048
X+10074Y+6048
X+13030Y+6048
X+14174Y+6048
X+14174Y+7191
X+13030Y+7191
X+18035Y+41729
X+24712Y+42726
X+1850Y+44276
X+1850Y+42498
X+1850Y+43387
X+1850Y+46943
X+35062Y+47171
X+22860Y+6680
X+36396Y+47616
X+24712Y+41075
X+26634Y+37900
X+21651Y+43418
X+19051Y+40440
X+33592Y+5080
X+31134Y+37900
X+40322Y+6680
X+42850Y+9284
X+45402Y+6680
X+47930Y+9284
X+49720Y+14876
X+45393Y+39246
X+45934Y+21600
X+37770Y+9284
X+45934Y+20100
X+35242Y+6680
X+45934Y+18600
X+7750Y+26462
X+6862Y+26462
X+8640Y+26462
X+7750Y+15862
X+8640Y+15862
X+6862Y+15862
X+7433Y+3797
X+13974Y+3797
X+45934Y+30700
X+44410Y+30700
X+45934Y+29200
X+44410Y+29200
X+45934Y+33700
X+44410Y+33700
X+45934Y+35200
X+44410Y+35200
X+53150Y+29625
X+51626Y+29625
X+54674Y+29625
X+53150Y+21175
X+54674Y+21175
X+51626Y+21175
X+48057Y+22212
X+50038Y+21175
X+49657Y+28588
X+41734Y+12908
X+41734Y+14432
X+26634Y+36376
X+51120Y+37912
X+51120Y+39500
X+50473Y+44646
X+51246Y+45284
X+49711Y+45284
X+49711Y+44012
X+51235Y+44012
X+44885Y+44123
X+47425Y+46663
X+44885Y+46663
X+42345Y+46663
X+42345Y+44123
X+42345Y+41583
X+44885Y+41583
X+47425Y+41583
X+47425Y+44123
X+35062Y+43298
X+33462Y+41646
X+29080Y+41809
X+29080Y+40894
X+29080Y+42672
X+6050Y+43387
X+6050Y+42498
X+6050Y+44276
X+11247Y+40189
X+10358Y+40951
X+10358Y+39427
X+5147Y+40189
X+5972Y+39427
X+4322Y+39427
X+4322Y+40951
X+5972Y+40951
X+5147Y+28689
X+5972Y+29451
X+4322Y+29451
X+4322Y+27927
X+5972Y+27927
X+11247Y+28689
X+10422Y+29451
X+12072Y+29451
X+12072Y+27927
X+10422Y+27927
X+21591Y+37900
X+21651Y+40440
X+31560Y+5080
X+31754Y+8877
X+34294Y+11417
X+41914Y+3797
X+46994Y+3797
X+50482Y+5080
X+39374Y+8877
X+44454Y+8877
X+54614Y+11417
X+54614Y+16497
X+50930Y+13957
X+46994Y+13957
X+54614Y+31737
X+49534Y+31737
X+41914Y+34277
X+41914Y+31737
X+41914Y+29197
X+41914Y+24117
X+41914Y+19037
X+39374Y+16497
X+39374Y+21577
X+39374Y+26657
X+39374Y+31737
X+36770Y+34277
X+36770Y+29197
X+36770Y+24117
X+36770Y+19037
X+34294Y+21577
X+34294Y+26657
X+34294Y+36817
X+34294Y+31737
X+29214Y+31737
X+31754Y+34277
X+29214Y+26657
X+26674Y+29197
X+29214Y+19037
X+26674Y+16497
X+24134Y+19037
X+26674Y+21577
X+20894Y+25400
X+24134Y+31737
X+23876Y+49086
X+28956Y+49086
X+34036Y+49086
X+11176Y+49086
X+6096Y+49086
X+11176Y+44006
X+16256Y+44006
X+16256Y+38926
X+18796Y+36386
X+16256Y+33846
X+18796Y+31306
X+16256Y+28766
X+18796Y+26226
X+17790Y+23702
X+16190Y+13542
X+21270Y+13542
X+5210Y+18402
X+10290Y+18402
X+7750Y+20942
X+10290Y+23482
X+5210Y+23482
X+7687Y+33769
X+5147Y+36309
X+10227Y+36309
X+1342Y+47514
X+2358Y+47514
X+2358Y+46340
X+1342Y+46340
X+21594Y+3797
X+16190Y+16082
X+11434Y+6337
X+8894Y+8877
X+13974Y+8877
X+19054Y+8877
X+24134Y+8877
X+20117Y+7696
X+18796Y+49086
X+16258Y+49086
T02
X+10160Y+2540
X+12700Y+2540
X+15240Y+2540
X+17780Y+2540
X+20320Y+2540
X+22860Y+2540
X+25400Y+2540
X+27940Y+2540
X+30480Y+2540
X+33020Y+2540
X+35560Y+2540
X+38100Y+2540
X+40640Y+2540
X+43180Y+2540
X+45720Y+2540
X+48260Y+2540
X+50800Y+2540
X+6096Y+50800
X+8636Y+50800
X+11176Y+50800
X+13716Y+50800
X+16256Y+50800
X+18796Y+50800
X+21336Y+50800
X+23876Y+50800
X+26416Y+50800
X+28956Y+50800
X+33020Y+50800
X+35560Y+50800
X+38100Y+50800
X+40640Y+50800
X+43180Y+50800
X+45720Y+50800
X+48260Y+50800
X+50800Y+50800
M30
