G04 PROTEUS RS274X GERBER FILE*
%FSLAX45Y45*%
%MOMM*%
G01*
%ADD44C,0.127000*%
%ADD42C,0.025400*%
%ADD113C,0.063500*%
D44*
X+1734149Y+1653101D02*
X+1823951Y+1563299D01*
X+1734149Y+1563299D02*
X+1823951Y+1653101D01*
X+2049299Y+2054901D02*
X+2139101Y+1965099D01*
X+2049299Y+1965099D02*
X+2139101Y+2054901D01*
X+2049299Y+1754901D02*
X+2139101Y+1665099D01*
X+2049299Y+1665099D02*
X+2139101Y+1754901D01*
X+1734149Y+2161101D02*
X+1823951Y+2071299D01*
X+1734149Y+2071299D02*
X+1823951Y+2161101D01*
X+1574149Y+2415101D02*
X+1663951Y+2325299D01*
X+1574149Y+2325299D02*
X+1663951Y+2415101D01*
X+2049299Y+1604901D02*
X+2139101Y+1515099D01*
X+2049299Y+1515099D02*
X+2139101Y+1604901D01*
X+1315299Y+706851D02*
X+1405101Y+617049D01*
X+1315299Y+617049D02*
X+1405101Y+706851D01*
X+2863149Y+4685801D02*
X+2952951Y+4595999D01*
X+2863149Y+4595999D02*
X+2952951Y+4685801D01*
X+2269421Y+4317778D02*
X+2359223Y+4227976D01*
X+2269421Y+4227976D02*
X+2359223Y+4317778D01*
X+1860199Y+4361301D02*
X+1950001Y+4271499D01*
X+1860199Y+4271499D02*
X+1950001Y+4361301D01*
X+2863149Y+4596901D02*
X+2952951Y+4507099D01*
X+2863149Y+4507099D02*
X+2952951Y+4596901D01*
X+2863149Y+4774701D02*
X+2952951Y+4684899D01*
X+2863149Y+4684899D02*
X+2952951Y+4774701D01*
X+1315299Y+4739201D02*
X+1405101Y+4649399D01*
X+1315299Y+4649399D02*
X+1405101Y+4739201D01*
X+1372449Y+4682051D02*
X+1462251Y+4592249D01*
X+1372449Y+4592249D02*
X+1462251Y+4682051D01*
X+1258149Y+4682051D02*
X+1347951Y+4592249D01*
X+1258149Y+4592249D02*
X+1347951Y+4682051D01*
X+1258149Y+4796351D02*
X+1347951Y+4706549D01*
X+1258149Y+4706549D02*
X+1347951Y+4796351D01*
X+1372449Y+4796351D02*
X+1462251Y+4706549D01*
X+1372449Y+4706549D02*
X+1462251Y+4796351D01*
X+1315299Y+1389501D02*
X+1405101Y+1299699D01*
X+1315299Y+1299699D02*
X+1405101Y+1389501D01*
X+1372449Y+1332351D02*
X+1462251Y+1242549D01*
X+1372449Y+1242549D02*
X+1462251Y+1332351D01*
X+1258149Y+1332351D02*
X+1347951Y+1242549D01*
X+1258149Y+1242549D02*
X+1347951Y+1332351D01*
X+1258149Y+1446651D02*
X+1347951Y+1356849D01*
X+1258149Y+1356849D02*
X+1347951Y+1446651D01*
X+1372449Y+1446651D02*
X+1462251Y+1356849D01*
X+1372449Y+1356849D02*
X+1462251Y+1446651D01*
X+905299Y+706851D02*
X+995101Y+617049D01*
X+905299Y+617049D02*
X+995101Y+706851D01*
X+962449Y+764001D02*
X+1052251Y+674199D01*
X+962449Y+674199D02*
X+1052251Y+764001D01*
X+848149Y+764001D02*
X+937951Y+674199D01*
X+848149Y+674199D02*
X+937951Y+764001D01*
X+848149Y+649701D02*
X+937951Y+559899D01*
X+848149Y+559899D02*
X+937951Y+649701D01*
X+962449Y+649701D02*
X+1052251Y+559899D01*
X+962449Y+559899D02*
X+1052251Y+649701D01*
X+1258149Y+649701D02*
X+1347951Y+559899D01*
X+1258149Y+559899D02*
X+1347951Y+649701D01*
X+1372449Y+649701D02*
X+1462251Y+559899D01*
X+1372449Y+559899D02*
X+1462251Y+649701D01*
X+1372449Y+764001D02*
X+1462251Y+674199D01*
X+1372449Y+674199D02*
X+1462251Y+764001D01*
X+1258149Y+764001D02*
X+1347951Y+674199D01*
X+1258149Y+674199D02*
X+1347951Y+764001D01*
X+1758599Y+4217801D02*
X+1848401Y+4127999D01*
X+1758599Y+4127999D02*
X+1848401Y+4217801D01*
X+2426249Y+4317501D02*
X+2516051Y+4227699D01*
X+2426249Y+4227699D02*
X+2516051Y+4317501D01*
X+140149Y+4472501D02*
X+229951Y+4382699D01*
X+140149Y+4382699D02*
X+229951Y+4472501D01*
X+140149Y+4294701D02*
X+229951Y+4204899D01*
X+140149Y+4204899D02*
X+229951Y+4294701D01*
X+140149Y+4383601D02*
X+229951Y+4293799D01*
X+140149Y+4293799D02*
X+229951Y+4383601D01*
X+140149Y+4739201D02*
X+229951Y+4649399D01*
X+140149Y+4649399D02*
X+229951Y+4739201D01*
X+3461299Y+4762001D02*
X+3551101Y+4672199D01*
X+3461299Y+4672199D02*
X+3551101Y+4762001D01*
X+2241099Y+712901D02*
X+2330901Y+623099D01*
X+2241099Y+623099D02*
X+2330901Y+712901D01*
X+3594649Y+4806451D02*
X+3684451Y+4716649D01*
X+3594649Y+4716649D02*
X+3684451Y+4806451D01*
X+2426249Y+4152401D02*
X+2516051Y+4062599D01*
X+2426249Y+4062599D02*
X+2516051Y+4152401D01*
X+2618499Y+3834901D02*
X+2708301Y+3745099D01*
X+2618499Y+3745099D02*
X+2708301Y+3834901D01*
X+2120199Y+4386701D02*
X+2210001Y+4296899D01*
X+2120199Y+4296899D02*
X+2210001Y+4386701D01*
X+1860199Y+4088901D02*
X+1950001Y+3999099D01*
X+1860199Y+3999099D02*
X+1950001Y+4088901D01*
X+3314249Y+552901D02*
X+3404051Y+463099D01*
X+3314249Y+463099D02*
X+3404051Y+552901D01*
X+2063299Y+552901D02*
X+2153101Y+463099D01*
X+2063299Y+463099D02*
X+2153101Y+552901D01*
X+3068499Y+3834901D02*
X+3158301Y+3745099D01*
X+3068499Y+3745099D02*
X+3158301Y+3834901D01*
X+3987349Y+712901D02*
X+4077151Y+623099D01*
X+3987349Y+623099D02*
X+4077151Y+712901D01*
X+4240079Y+973271D02*
X+4329881Y+883469D01*
X+4240079Y+883469D02*
X+4329881Y+973271D01*
X+4495349Y+712901D02*
X+4585151Y+623099D01*
X+4495349Y+623099D02*
X+4585151Y+712901D01*
X+4748079Y+973271D02*
X+4837881Y+883469D01*
X+4748079Y+883469D02*
X+4837881Y+973271D01*
X+4927149Y+1532501D02*
X+5016951Y+1442699D01*
X+4927149Y+1442699D02*
X+5016951Y+1532501D01*
X+4494399Y+3969501D02*
X+4584201Y+3879699D01*
X+4494399Y+3879699D02*
X+4584201Y+3969501D01*
X+4548499Y+2204901D02*
X+4638301Y+2115099D01*
X+4548499Y+2115099D02*
X+4638301Y+2204901D01*
X+3732079Y+973271D02*
X+3821881Y+883469D01*
X+3732079Y+883469D02*
X+3821881Y+973271D01*
X+4548499Y+2054901D02*
X+4638301Y+1965099D01*
X+4548499Y+1965099D02*
X+4638301Y+2054901D01*
X+3479349Y+712901D02*
X+3569151Y+623099D01*
X+3479349Y+623099D02*
X+3569151Y+712901D01*
X+4548499Y+1904901D02*
X+4638301Y+1815099D01*
X+4548499Y+1815099D02*
X+4638301Y+1904901D01*
X+730149Y+2691101D02*
X+819951Y+2601299D01*
X+730149Y+2601299D02*
X+819951Y+2691101D01*
X+641249Y+2691101D02*
X+731051Y+2601299D01*
X+641249Y+2601299D02*
X+731051Y+2691101D01*
X+819049Y+2691101D02*
X+908851Y+2601299D01*
X+819049Y+2601299D02*
X+908851Y+2691101D01*
X+730149Y+1631101D02*
X+819951Y+1541299D01*
X+730149Y+1541299D02*
X+819951Y+1631101D01*
X+819049Y+1631101D02*
X+908851Y+1541299D01*
X+819049Y+1541299D02*
X+908851Y+1631101D01*
X+641249Y+1631101D02*
X+731051Y+1541299D01*
X+641249Y+1541299D02*
X+731051Y+1631101D01*
X+1574149Y+1653101D02*
X+1663951Y+1563299D01*
X+1574149Y+1563299D02*
X+1663951Y+1653101D01*
X+698399Y+424601D02*
X+788201Y+334799D01*
X+698399Y+334799D02*
X+788201Y+424601D01*
X+1352449Y+424601D02*
X+1442251Y+334799D01*
X+1352449Y+334799D02*
X+1442251Y+424601D01*
X+4548499Y+3114901D02*
X+4638301Y+3025099D01*
X+4548499Y+3025099D02*
X+4638301Y+3114901D01*
X+4396099Y+3114901D02*
X+4485901Y+3025099D01*
X+4396099Y+3025099D02*
X+4485901Y+3114901D01*
X+4548499Y+2964901D02*
X+4638301Y+2875099D01*
X+4548499Y+2875099D02*
X+4638301Y+2964901D01*
X+4396099Y+2964901D02*
X+4485901Y+2875099D01*
X+4396099Y+2875099D02*
X+4485901Y+2964901D01*
X+4548499Y+3414901D02*
X+4638301Y+3325099D01*
X+4548499Y+3325099D02*
X+4638301Y+3414901D01*
X+4396099Y+3414901D02*
X+4485901Y+3325099D01*
X+4396099Y+3325099D02*
X+4485901Y+3414901D01*
X+4548499Y+3564901D02*
X+4638301Y+3475099D01*
X+4548499Y+3475099D02*
X+4638301Y+3564901D01*
X+4396099Y+3564901D02*
X+4485901Y+3475099D01*
X+4396099Y+3475099D02*
X+4485901Y+3564901D01*
X+5270049Y+3007401D02*
X+5359851Y+2917599D01*
X+5270049Y+2917599D02*
X+5359851Y+3007401D01*
X+5117649Y+3007401D02*
X+5207451Y+2917599D01*
X+5117649Y+2917599D02*
X+5207451Y+3007401D01*
X+5422449Y+3007401D02*
X+5512251Y+2917599D01*
X+5422449Y+2917599D02*
X+5512251Y+3007401D01*
X+5270049Y+2162401D02*
X+5359851Y+2072599D01*
X+5270049Y+2072599D02*
X+5359851Y+2162401D01*
X+5422449Y+2162401D02*
X+5512251Y+2072599D01*
X+5422449Y+2072599D02*
X+5512251Y+2162401D01*
X+5117649Y+2162401D02*
X+5207451Y+2072599D01*
X+5117649Y+2072599D02*
X+5207451Y+2162401D01*
X+4760799Y+2266151D02*
X+4850601Y+2176349D01*
X+4760799Y+2176349D02*
X+4850601Y+2266151D01*
X+4958899Y+2162401D02*
X+5048701Y+2072599D01*
X+4958899Y+2072599D02*
X+5048701Y+2162401D01*
X+4920799Y+2903651D02*
X+5010601Y+2813849D01*
X+4920799Y+2813849D02*
X+5010601Y+2903651D01*
X+4128499Y+1335701D02*
X+4218301Y+1245899D01*
X+4128499Y+1245899D02*
X+4218301Y+1335701D01*
X+4128499Y+1488101D02*
X+4218301Y+1398299D01*
X+4128499Y+1398299D02*
X+4218301Y+1488101D01*
X+2618499Y+3682501D02*
X+2708301Y+3592699D01*
X+2618499Y+3592699D02*
X+2708301Y+3682501D01*
X+5067149Y+3836151D02*
X+5156951Y+3746349D01*
X+5067149Y+3746349D02*
X+5156951Y+3836151D01*
X+5067149Y+3994901D02*
X+5156951Y+3905099D01*
X+5067149Y+3905099D02*
X+5156951Y+3994901D01*
X+5002399Y+4509551D02*
X+5092201Y+4419749D01*
X+5002399Y+4419749D02*
X+5092201Y+4509551D01*
X+5079717Y+4573254D02*
X+5169519Y+4483452D01*
X+5079717Y+4483452D02*
X+5169519Y+4573254D01*
X+4926199Y+4573254D02*
X+5016001Y+4483452D01*
X+4926199Y+4483452D02*
X+5016001Y+4573254D01*
X+4926199Y+4446051D02*
X+5016001Y+4356249D01*
X+4926199Y+4356249D02*
X+5016001Y+4446051D01*
X+5078599Y+4446051D02*
X+5168401Y+4356249D01*
X+5078599Y+4356249D02*
X+5168401Y+4446051D01*
X+4443599Y+4457201D02*
X+4533401Y+4367399D01*
X+4443599Y+4367399D02*
X+4533401Y+4457201D01*
X+4697599Y+4711201D02*
X+4787401Y+4621399D01*
X+4697599Y+4621399D02*
X+4787401Y+4711201D01*
X+4443599Y+4711201D02*
X+4533401Y+4621399D01*
X+4443599Y+4621399D02*
X+4533401Y+4711201D01*
X+4189599Y+4711201D02*
X+4279401Y+4621399D01*
X+4189599Y+4621399D02*
X+4279401Y+4711201D01*
X+4189599Y+4457201D02*
X+4279401Y+4367399D01*
X+4189599Y+4367399D02*
X+4279401Y+4457201D01*
X+4189599Y+4203201D02*
X+4279401Y+4113399D01*
X+4189599Y+4113399D02*
X+4279401Y+4203201D01*
X+4443599Y+4203201D02*
X+4533401Y+4113399D01*
X+4443599Y+4113399D02*
X+4533401Y+4203201D01*
X+4697599Y+4203201D02*
X+4787401Y+4113399D01*
X+4697599Y+4113399D02*
X+4787401Y+4203201D01*
X+4697599Y+4457201D02*
X+4787401Y+4367399D01*
X+4697599Y+4367399D02*
X+4787401Y+4457201D01*
X+3461299Y+4374651D02*
X+3551101Y+4284849D01*
X+3461299Y+4284849D02*
X+3551101Y+4374651D01*
X+3301299Y+4209551D02*
X+3391101Y+4119749D01*
X+3301299Y+4119749D02*
X+3391101Y+4209551D01*
X+2863149Y+4225801D02*
X+2952951Y+4135999D01*
X+2863149Y+4135999D02*
X+2952951Y+4225801D01*
X+2863149Y+4134301D02*
X+2952951Y+4044499D01*
X+2863149Y+4044499D02*
X+2952951Y+4134301D01*
X+2863149Y+4312101D02*
X+2952951Y+4222299D01*
X+2863149Y+4222299D02*
X+2952951Y+4312101D01*
X+560149Y+4383601D02*
X+649951Y+4293799D01*
X+560149Y+4293799D02*
X+649951Y+4383601D01*
X+560149Y+4294701D02*
X+649951Y+4204899D01*
X+560149Y+4204899D02*
X+649951Y+4294701D01*
X+560149Y+4472501D02*
X+649951Y+4382699D01*
X+560149Y+4382699D02*
X+649951Y+4472501D01*
X+1079799Y+4063801D02*
X+1169601Y+3973999D01*
X+1079799Y+3973999D02*
X+1169601Y+4063801D01*
X+990899Y+4140001D02*
X+1080701Y+4050199D01*
X+990899Y+4050199D02*
X+1080701Y+4140001D01*
X+990899Y+3987601D02*
X+1080701Y+3897799D01*
X+990899Y+3897799D02*
X+1080701Y+3987601D01*
X+469799Y+4063801D02*
X+559601Y+3973999D01*
X+469799Y+3973999D02*
X+559601Y+4063801D01*
X+552349Y+3987601D02*
X+642151Y+3897799D01*
X+552349Y+3897799D02*
X+642151Y+3987601D01*
X+387249Y+3987601D02*
X+477051Y+3897799D01*
X+387249Y+3897799D02*
X+477051Y+3987601D01*
X+387249Y+4140001D02*
X+477051Y+4050199D01*
X+387249Y+4050199D02*
X+477051Y+4140001D01*
X+552349Y+4140001D02*
X+642151Y+4050199D01*
X+552349Y+4050199D02*
X+642151Y+4140001D01*
X+469799Y+2913801D02*
X+559601Y+2823999D01*
X+469799Y+2823999D02*
X+559601Y+2913801D01*
X+552349Y+2990001D02*
X+642151Y+2900199D01*
X+552349Y+2900199D02*
X+642151Y+2990001D01*
X+387249Y+2990001D02*
X+477051Y+2900199D01*
X+387249Y+2900199D02*
X+477051Y+2990001D01*
X+387249Y+2837601D02*
X+477051Y+2747799D01*
X+387249Y+2747799D02*
X+477051Y+2837601D01*
X+552349Y+2837601D02*
X+642151Y+2747799D01*
X+552349Y+2747799D02*
X+642151Y+2837601D01*
X+1079799Y+2913801D02*
X+1169601Y+2823999D01*
X+1079799Y+2823999D02*
X+1169601Y+2913801D01*
X+997249Y+2990001D02*
X+1087051Y+2900199D01*
X+997249Y+2900199D02*
X+1087051Y+2990001D01*
X+1162349Y+2990001D02*
X+1252151Y+2900199D01*
X+1162349Y+2900199D02*
X+1252151Y+2990001D01*
X+1162349Y+2837601D02*
X+1252151Y+2747799D01*
X+1162349Y+2747799D02*
X+1252151Y+2837601D01*
X+997249Y+2837601D02*
X+1087051Y+2747799D01*
X+997249Y+2747799D02*
X+1087051Y+2837601D01*
X+2114199Y+3834901D02*
X+2204001Y+3745099D01*
X+2114199Y+3745099D02*
X+2204001Y+3834901D01*
X+2120199Y+4088901D02*
X+2210001Y+3999099D01*
X+2120199Y+3999099D02*
X+2210001Y+4088901D01*
X+1098449Y+678601D02*
X+1188251Y+588799D01*
X+1098449Y+588799D02*
X+1188251Y+678601D01*
X+844449Y+932601D02*
X+934251Y+842799D01*
X+844449Y+842799D02*
X+934251Y+932601D01*
X+1352449Y+932601D02*
X+1442251Y+842799D01*
X+1352449Y+842799D02*
X+1442251Y+932601D01*
X+1860449Y+932601D02*
X+1950251Y+842799D01*
X+1860449Y+842799D02*
X+1950251Y+932601D01*
X+2368449Y+932601D02*
X+2458251Y+842799D01*
X+2368449Y+842799D02*
X+2458251Y+932601D01*
X+2114449Y+424601D02*
X+2204251Y+334799D01*
X+2114449Y+334799D02*
X+2204251Y+424601D01*
X+3111049Y+552901D02*
X+3200851Y+463099D01*
X+3111049Y+463099D02*
X+3200851Y+552901D01*
X+3130449Y+932601D02*
X+3220251Y+842799D01*
X+3130449Y+842799D02*
X+3220251Y+932601D01*
X+3384449Y+1186601D02*
X+3474251Y+1096799D01*
X+3384449Y+1096799D02*
X+3474251Y+1186601D01*
X+4146449Y+424601D02*
X+4236251Y+334799D01*
X+4146449Y+334799D02*
X+4236251Y+424601D01*
X+4654449Y+424601D02*
X+4744251Y+334799D01*
X+4654449Y+334799D02*
X+4744251Y+424601D01*
X+5003349Y+552901D02*
X+5093151Y+463099D01*
X+5003349Y+463099D02*
X+5093151Y+552901D01*
X+3892449Y+932601D02*
X+3982251Y+842799D01*
X+3892449Y+842799D02*
X+3982251Y+932601D01*
X+4400449Y+932601D02*
X+4490251Y+842799D01*
X+4400449Y+842799D02*
X+4490251Y+932601D01*
X+5416449Y+1186601D02*
X+5506251Y+1096799D01*
X+5416449Y+1096799D02*
X+5506251Y+1186601D01*
X+5416449Y+1694601D02*
X+5506251Y+1604799D01*
X+5416449Y+1604799D02*
X+5506251Y+1694601D01*
X+5048149Y+1440601D02*
X+5137951Y+1350799D01*
X+5048149Y+1350799D02*
X+5137951Y+1440601D01*
X+4654449Y+1440601D02*
X+4744251Y+1350799D01*
X+4654449Y+1350799D02*
X+4744251Y+1440601D01*
X+5416449Y+3218601D02*
X+5506251Y+3128799D01*
X+5416449Y+3128799D02*
X+5506251Y+3218601D01*
X+4908449Y+3218601D02*
X+4998251Y+3128799D01*
X+4908449Y+3128799D02*
X+4998251Y+3218601D01*
X+4146449Y+3472601D02*
X+4236251Y+3382799D01*
X+4146449Y+3382799D02*
X+4236251Y+3472601D01*
X+4146449Y+3218601D02*
X+4236251Y+3128799D01*
X+4146449Y+3128799D02*
X+4236251Y+3218601D01*
X+4146449Y+2964601D02*
X+4236251Y+2874799D01*
X+4146449Y+2874799D02*
X+4236251Y+2964601D01*
X+4146449Y+2456601D02*
X+4236251Y+2366799D01*
X+4146449Y+2366799D02*
X+4236251Y+2456601D01*
X+4146449Y+1948601D02*
X+4236251Y+1858799D01*
X+4146449Y+1858799D02*
X+4236251Y+1948601D01*
X+3892449Y+1694601D02*
X+3982251Y+1604799D01*
X+3892449Y+1604799D02*
X+3982251Y+1694601D01*
X+3892449Y+2202601D02*
X+3982251Y+2112799D01*
X+3892449Y+2112799D02*
X+3982251Y+2202601D01*
X+3892449Y+2710601D02*
X+3982251Y+2620799D01*
X+3892449Y+2620799D02*
X+3982251Y+2710601D01*
X+3892449Y+3218601D02*
X+3982251Y+3128799D01*
X+3892449Y+3128799D02*
X+3982251Y+3218601D01*
X+3632099Y+3472601D02*
X+3721901Y+3382799D01*
X+3632099Y+3382799D02*
X+3721901Y+3472601D01*
X+3632099Y+2964601D02*
X+3721901Y+2874799D01*
X+3632099Y+2874799D02*
X+3721901Y+2964601D01*
X+3632099Y+2456601D02*
X+3721901Y+2366799D01*
X+3632099Y+2366799D02*
X+3721901Y+2456601D01*
X+3632099Y+1948601D02*
X+3721901Y+1858799D01*
X+3632099Y+1858799D02*
X+3721901Y+1948601D01*
X+3384449Y+2202601D02*
X+3474251Y+2112799D01*
X+3384449Y+2112799D02*
X+3474251Y+2202601D01*
X+3384449Y+2710601D02*
X+3474251Y+2620799D01*
X+3384449Y+2620799D02*
X+3474251Y+2710601D01*
X+3384449Y+3726601D02*
X+3474251Y+3636799D01*
X+3384449Y+3636799D02*
X+3474251Y+3726601D01*
X+3384449Y+3218601D02*
X+3474251Y+3128799D01*
X+3384449Y+3128799D02*
X+3474251Y+3218601D01*
X+2876449Y+3218601D02*
X+2966251Y+3128799D01*
X+2876449Y+3128799D02*
X+2966251Y+3218601D01*
X+3130449Y+3472601D02*
X+3220251Y+3382799D01*
X+3130449Y+3382799D02*
X+3220251Y+3472601D01*
X+2876449Y+2710601D02*
X+2966251Y+2620799D01*
X+2876449Y+2620799D02*
X+2966251Y+2710601D01*
X+2622449Y+2964601D02*
X+2712251Y+2874799D01*
X+2622449Y+2874799D02*
X+2712251Y+2964601D01*
X+2876449Y+1948601D02*
X+2966251Y+1858799D01*
X+2876449Y+1858799D02*
X+2966251Y+1948601D01*
X+2622449Y+1694601D02*
X+2712251Y+1604799D01*
X+2622449Y+1604799D02*
X+2712251Y+1694601D01*
X+2368449Y+1948601D02*
X+2458251Y+1858799D01*
X+2368449Y+1858799D02*
X+2458251Y+1948601D01*
X+2622449Y+2202601D02*
X+2712251Y+2112799D01*
X+2622449Y+2112799D02*
X+2712251Y+2202601D01*
X+2044499Y+2584901D02*
X+2134301Y+2495099D01*
X+2044499Y+2495099D02*
X+2134301Y+2584901D01*
X+2368449Y+3218601D02*
X+2458251Y+3128799D01*
X+2368449Y+3128799D02*
X+2458251Y+3218601D01*
X+1834699Y+4953451D02*
X+1924501Y+4863649D01*
X+1834699Y+4863649D02*
X+1924501Y+4953451D01*
X+2342699Y+4953451D02*
X+2432501Y+4863649D01*
X+2342699Y+4863649D02*
X+2432501Y+4953451D01*
X+2850699Y+4953451D02*
X+2940501Y+4863649D01*
X+2850699Y+4863649D02*
X+2940501Y+4953451D01*
X+3358699Y+4953451D02*
X+3448501Y+4863649D01*
X+3358699Y+4863649D02*
X+3448501Y+4953451D01*
X+1072699Y+4953451D02*
X+1162501Y+4863649D01*
X+1072699Y+4863649D02*
X+1162501Y+4953451D01*
X+564699Y+4953451D02*
X+654501Y+4863649D01*
X+564699Y+4863649D02*
X+654501Y+4953451D01*
X+1072699Y+4445451D02*
X+1162501Y+4355649D01*
X+1072699Y+4355649D02*
X+1162501Y+4445451D01*
X+1580699Y+4445451D02*
X+1670501Y+4355649D01*
X+1580699Y+4355649D02*
X+1670501Y+4445451D01*
X+1580699Y+3937451D02*
X+1670501Y+3847649D01*
X+1580699Y+3847649D02*
X+1670501Y+3937451D01*
X+1834699Y+3683451D02*
X+1924501Y+3593649D01*
X+1834699Y+3593649D02*
X+1924501Y+3683451D01*
X+1580699Y+3429451D02*
X+1670501Y+3339649D01*
X+1580699Y+3339649D02*
X+1670501Y+3429451D01*
X+1834699Y+3175451D02*
X+1924501Y+3085649D01*
X+1834699Y+3085649D02*
X+1924501Y+3175451D01*
X+1580699Y+2921451D02*
X+1670501Y+2831649D01*
X+1580699Y+2831649D02*
X+1670501Y+2921451D01*
X+1834699Y+2667451D02*
X+1924501Y+2577649D01*
X+1834699Y+2577649D02*
X+1924501Y+2667451D01*
X+1734149Y+2415101D02*
X+1823951Y+2325299D01*
X+1734149Y+2325299D02*
X+1823951Y+2415101D01*
X+1574149Y+1399101D02*
X+1663951Y+1309299D01*
X+1574149Y+1309299D02*
X+1663951Y+1399101D01*
X+2082149Y+1399101D02*
X+2171951Y+1309299D01*
X+2082149Y+1309299D02*
X+2171951Y+1399101D01*
X+476149Y+1885101D02*
X+565951Y+1795299D01*
X+476149Y+1795299D02*
X+565951Y+1885101D01*
X+984149Y+1885101D02*
X+1073951Y+1795299D01*
X+984149Y+1795299D02*
X+1073951Y+1885101D01*
X+730149Y+2139101D02*
X+819951Y+2049299D01*
X+730149Y+2049299D02*
X+819951Y+2139101D01*
X+984149Y+2393101D02*
X+1073951Y+2303299D01*
X+984149Y+2303299D02*
X+1073951Y+2393101D01*
X+476149Y+2393101D02*
X+565951Y+2303299D01*
X+476149Y+2303299D02*
X+565951Y+2393101D01*
X+723799Y+3421801D02*
X+813601Y+3331999D01*
X+723799Y+3331999D02*
X+813601Y+3421801D01*
X+469799Y+3675801D02*
X+559601Y+3585999D01*
X+469799Y+3585999D02*
X+559601Y+3675801D01*
X+977799Y+3675801D02*
X+1067601Y+3585999D01*
X+977799Y+3585999D02*
X+1067601Y+3675801D01*
X+89349Y+4796351D02*
X+179151Y+4706549D01*
X+89349Y+4706549D02*
X+179151Y+4796351D01*
X+190949Y+4796351D02*
X+280751Y+4706549D01*
X+190949Y+4706549D02*
X+280751Y+4796351D01*
X+190949Y+4678876D02*
X+280751Y+4589074D01*
X+190949Y+4589074D02*
X+280751Y+4678876D01*
X+89349Y+4678876D02*
X+179151Y+4589074D01*
X+89349Y+4589074D02*
X+179151Y+4678876D01*
X+1016000Y+317500D02*
X+1016000Y+190500D01*
X+952500Y+254000D02*
X+1079500Y+254000D01*
X+1270000Y+317500D02*
X+1270000Y+190500D01*
X+1206500Y+254000D02*
X+1333500Y+254000D01*
X+1524000Y+317500D02*
X+1524000Y+190500D01*
X+1460500Y+254000D02*
X+1587500Y+254000D01*
X+1778000Y+317500D02*
X+1778000Y+190500D01*
X+1714500Y+254000D02*
X+1841500Y+254000D01*
X+2032000Y+317500D02*
X+2032000Y+190500D01*
X+1968500Y+254000D02*
X+2095500Y+254000D01*
X+2286000Y+317500D02*
X+2286000Y+190500D01*
X+2222500Y+254000D02*
X+2349500Y+254000D01*
X+2540000Y+317500D02*
X+2540000Y+190500D01*
X+2476500Y+254000D02*
X+2603500Y+254000D01*
X+2794000Y+317500D02*
X+2794000Y+190500D01*
X+2730500Y+254000D02*
X+2857500Y+254000D01*
X+3048000Y+317500D02*
X+3048000Y+190500D01*
X+2984500Y+254000D02*
X+3111500Y+254000D01*
X+3302000Y+317500D02*
X+3302000Y+190500D01*
X+3238500Y+254000D02*
X+3365500Y+254000D01*
X+3556000Y+317500D02*
X+3556000Y+190500D01*
X+3492500Y+254000D02*
X+3619500Y+254000D01*
X+3810000Y+317500D02*
X+3810000Y+190500D01*
X+3746500Y+254000D02*
X+3873500Y+254000D01*
X+4064000Y+317500D02*
X+4064000Y+190500D01*
X+4000500Y+254000D02*
X+4127500Y+254000D01*
X+4318000Y+317500D02*
X+4318000Y+190500D01*
X+4254500Y+254000D02*
X+4381500Y+254000D01*
X+4572000Y+317500D02*
X+4572000Y+190500D01*
X+4508500Y+254000D02*
X+4635500Y+254000D01*
X+4826000Y+317500D02*
X+4826000Y+190500D01*
X+4762500Y+254000D02*
X+4889500Y+254000D01*
X+5080000Y+317500D02*
X+5080000Y+190500D01*
X+5016500Y+254000D02*
X+5143500Y+254000D01*
X+609600Y+5143500D02*
X+609600Y+5016500D01*
X+546100Y+5080000D02*
X+673100Y+5080000D01*
X+863600Y+5143500D02*
X+863600Y+5016500D01*
X+800100Y+5080000D02*
X+927100Y+5080000D01*
X+1117600Y+5143500D02*
X+1117600Y+5016500D01*
X+1054100Y+5080000D02*
X+1181100Y+5080000D01*
X+1371600Y+5143500D02*
X+1371600Y+5016500D01*
X+1308100Y+5080000D02*
X+1435100Y+5080000D01*
X+1625600Y+5143500D02*
X+1625600Y+5016500D01*
X+1562100Y+5080000D02*
X+1689100Y+5080000D01*
X+1879600Y+5143500D02*
X+1879600Y+5016500D01*
X+1816100Y+5080000D02*
X+1943100Y+5080000D01*
X+2133600Y+5143500D02*
X+2133600Y+5016500D01*
X+2070100Y+5080000D02*
X+2197100Y+5080000D01*
X+2387600Y+5143500D02*
X+2387600Y+5016500D01*
X+2324100Y+5080000D02*
X+2451100Y+5080000D01*
X+2641600Y+5143500D02*
X+2641600Y+5016500D01*
X+2578100Y+5080000D02*
X+2705100Y+5080000D01*
X+2895600Y+5143500D02*
X+2895600Y+5016500D01*
X+2832100Y+5080000D02*
X+2959100Y+5080000D01*
X+3302000Y+5143500D02*
X+3302000Y+5016500D01*
X+3238500Y+5080000D02*
X+3365500Y+5080000D01*
X+3556000Y+5143500D02*
X+3556000Y+5016500D01*
X+3492500Y+5080000D02*
X+3619500Y+5080000D01*
X+3810000Y+5143500D02*
X+3810000Y+5016500D01*
X+3746500Y+5080000D02*
X+3873500Y+5080000D01*
X+4064000Y+5143500D02*
X+4064000Y+5016500D01*
X+4000500Y+5080000D02*
X+4127500Y+5080000D01*
X+4318000Y+5143500D02*
X+4318000Y+5016500D01*
X+4254500Y+5080000D02*
X+4381500Y+5080000D01*
X+4572000Y+5143500D02*
X+4572000Y+5016500D01*
X+4508500Y+5080000D02*
X+4635500Y+5080000D01*
X+4826000Y+5143500D02*
X+4826000Y+5016500D01*
X+4762500Y+5080000D02*
X+4889500Y+5080000D01*
X+5080000Y+5143500D02*
X+5080000Y+5016500D01*
X+5016500Y+5080000D02*
X+5143500Y+5080000D01*
D42*
X+5492750Y+762000D02*
X+5492220Y+774958D01*
X+5487916Y+800876D01*
X+5478925Y+826794D01*
X+5464280Y+852712D01*
X+5441876Y+878466D01*
X+5415958Y+897958D01*
X+5390040Y+910530D01*
X+5364122Y+917866D01*
X+5338204Y+920694D01*
X+5334000Y+920750D01*
X+5175250Y+762000D02*
X+5175780Y+774958D01*
X+5180084Y+800876D01*
X+5189075Y+826794D01*
X+5203720Y+852712D01*
X+5226124Y+878466D01*
X+5252042Y+897958D01*
X+5277960Y+910530D01*
X+5303878Y+917866D01*
X+5329796Y+920694D01*
X+5334000Y+920750D01*
X+5175250Y+762000D02*
X+5175780Y+749042D01*
X+5180084Y+723124D01*
X+5189075Y+697206D01*
X+5203720Y+671288D01*
X+5226124Y+645534D01*
X+5252042Y+626042D01*
X+5277960Y+613470D01*
X+5303878Y+606134D01*
X+5329796Y+603306D01*
X+5334000Y+603250D01*
X+5492750Y+762000D02*
X+5492220Y+749042D01*
X+5487916Y+723124D01*
X+5478925Y+697206D01*
X+5464280Y+671288D01*
X+5441876Y+645534D01*
X+5415958Y+626042D01*
X+5390040Y+613470D01*
X+5364122Y+606134D01*
X+5338204Y+603306D01*
X+5334000Y+603250D01*
X+5492750Y+3556000D02*
X+5492220Y+3568958D01*
X+5487916Y+3594876D01*
X+5478925Y+3620794D01*
X+5464280Y+3646712D01*
X+5441876Y+3672466D01*
X+5415958Y+3691958D01*
X+5390040Y+3704530D01*
X+5364122Y+3711866D01*
X+5338204Y+3714694D01*
X+5334000Y+3714750D01*
X+5175250Y+3556000D02*
X+5175780Y+3568958D01*
X+5180084Y+3594876D01*
X+5189075Y+3620794D01*
X+5203720Y+3646712D01*
X+5226124Y+3672466D01*
X+5252042Y+3691958D01*
X+5277960Y+3704530D01*
X+5303878Y+3711866D01*
X+5329796Y+3714694D01*
X+5334000Y+3714750D01*
X+5175250Y+3556000D02*
X+5175780Y+3543042D01*
X+5180084Y+3517124D01*
X+5189075Y+3491206D01*
X+5203720Y+3465288D01*
X+5226124Y+3439534D01*
X+5252042Y+3420042D01*
X+5277960Y+3407470D01*
X+5303878Y+3400134D01*
X+5329796Y+3397306D01*
X+5334000Y+3397250D01*
X+5492750Y+3556000D02*
X+5492220Y+3543042D01*
X+5487916Y+3517124D01*
X+5478925Y+3491206D01*
X+5464280Y+3465288D01*
X+5441876Y+3439534D01*
X+5415958Y+3420042D01*
X+5390040Y+3407470D01*
X+5364122Y+3400134D01*
X+5338204Y+3397306D01*
X+5334000Y+3397250D01*
X+412750Y+5080000D02*
X+412220Y+5092958D01*
X+407916Y+5118876D01*
X+398925Y+5144794D01*
X+384280Y+5170712D01*
X+361876Y+5196466D01*
X+335958Y+5215958D01*
X+310040Y+5228530D01*
X+284122Y+5235866D01*
X+258204Y+5238694D01*
X+254000Y+5238750D01*
X+95250Y+5080000D02*
X+95780Y+5092958D01*
X+100084Y+5118876D01*
X+109075Y+5144794D01*
X+123720Y+5170712D01*
X+146124Y+5196466D01*
X+172042Y+5215958D01*
X+197960Y+5228530D01*
X+223878Y+5235866D01*
X+249796Y+5238694D01*
X+254000Y+5238750D01*
X+95250Y+5080000D02*
X+95780Y+5067042D01*
X+100084Y+5041124D01*
X+109075Y+5015206D01*
X+123720Y+4989288D01*
X+146124Y+4963534D01*
X+172042Y+4944042D01*
X+197960Y+4931470D01*
X+223878Y+4924134D01*
X+249796Y+4921306D01*
X+254000Y+4921250D01*
X+412750Y+5080000D02*
X+412220Y+5067042D01*
X+407916Y+5041124D01*
X+398925Y+5015206D01*
X+384280Y+4989288D01*
X+361876Y+4963534D01*
X+335958Y+4944042D01*
X+310040Y+4931470D01*
X+284122Y+4924134D01*
X+258204Y+4921306D01*
X+254000Y+4921250D01*
X+412750Y+254000D02*
X+412220Y+266958D01*
X+407916Y+292876D01*
X+398925Y+318794D01*
X+384280Y+344712D01*
X+361876Y+370466D01*
X+335958Y+389958D01*
X+310040Y+402530D01*
X+284122Y+409866D01*
X+258204Y+412694D01*
X+254000Y+412750D01*
X+95250Y+254000D02*
X+95780Y+266958D01*
X+100084Y+292876D01*
X+109075Y+318794D01*
X+123720Y+344712D01*
X+146124Y+370466D01*
X+172042Y+389958D01*
X+197960Y+402530D01*
X+223878Y+409866D01*
X+249796Y+412694D01*
X+254000Y+412750D01*
X+95250Y+254000D02*
X+95780Y+241042D01*
X+100084Y+215124D01*
X+109075Y+189206D01*
X+123720Y+163288D01*
X+146124Y+137534D01*
X+172042Y+118042D01*
X+197960Y+105470D01*
X+223878Y+98134D01*
X+249796Y+95306D01*
X+254000Y+95250D01*
X+412750Y+254000D02*
X+412220Y+241042D01*
X+407916Y+215124D01*
X+398925Y+189206D01*
X+384280Y+163288D01*
X+361876Y+137534D01*
X+335958Y+118042D01*
X+310040Y+105470D01*
X+284122Y+98134D01*
X+258204Y+95306D01*
X+254000Y+95250D01*
X+0Y+127000D02*
X+2527Y+101032D01*
X+9798Y+77018D01*
X+21348Y+55423D01*
X+36711Y+36711D01*
X+55423Y+21347D01*
X+77018Y+9798D01*
X+101032Y+2527D01*
X+127000Y+0D01*
X+5207000Y+0D01*
X+5232967Y+2527D01*
X+5256981Y+9798D01*
X+5278577Y+21347D01*
X+5297289Y+36711D01*
X+5312652Y+55423D01*
X+5324202Y+77018D01*
X+5331473Y+101032D01*
X+5334000Y+127000D01*
X+5334000Y+254000D01*
X+5588000Y+508000D01*
X+5588000Y+3810000D01*
X+5334000Y+4064000D01*
X+5334000Y+5207000D01*
X+5207000Y+5334000D01*
X+127000Y+5334000D01*
X+101032Y+5331473D01*
X+77018Y+5324202D01*
X+55423Y+5312652D01*
X+36711Y+5297289D01*
X+21348Y+5278577D01*
X+9798Y+5256981D01*
X+2527Y+5232967D01*
X+0Y+5207000D01*
X+0Y+127000D01*
X+480300Y+803300D02*
X+480197Y+805789D01*
X+479355Y+810769D01*
X+477595Y+815749D01*
X+474718Y+820729D01*
X+470317Y+825645D01*
X+465337Y+829259D01*
X+460357Y+831564D01*
X+455377Y+832867D01*
X+450397Y+833300D01*
X+450300Y+833300D01*
X+420300Y+803300D02*
X+420403Y+805789D01*
X+421245Y+810769D01*
X+423005Y+815749D01*
X+425882Y+820729D01*
X+430283Y+825645D01*
X+435263Y+829259D01*
X+440243Y+831564D01*
X+445223Y+832867D01*
X+450203Y+833300D01*
X+450300Y+833300D01*
X+420300Y+803300D02*
X+420403Y+800811D01*
X+421245Y+795831D01*
X+423005Y+790851D01*
X+425882Y+785871D01*
X+430283Y+780955D01*
X+435263Y+777341D01*
X+440243Y+775036D01*
X+445223Y+773733D01*
X+450203Y+773300D01*
X+450300Y+773300D01*
X+480300Y+803300D02*
X+480197Y+800811D01*
X+479355Y+795831D01*
X+477595Y+790851D01*
X+474718Y+785871D01*
X+470317Y+780955D01*
X+465337Y+777341D01*
X+460357Y+775036D01*
X+455377Y+773733D01*
X+450397Y+773300D01*
X+450300Y+773300D01*
X+480300Y+1203300D02*
X+480197Y+1205789D01*
X+479355Y+1210769D01*
X+477595Y+1215749D01*
X+474718Y+1220729D01*
X+470317Y+1225645D01*
X+465337Y+1229259D01*
X+460357Y+1231564D01*
X+455377Y+1232867D01*
X+450397Y+1233300D01*
X+450300Y+1233300D01*
X+420300Y+1203300D02*
X+420403Y+1205789D01*
X+421245Y+1210769D01*
X+423005Y+1215749D01*
X+425882Y+1220729D01*
X+430283Y+1225645D01*
X+435263Y+1229259D01*
X+440243Y+1231564D01*
X+445223Y+1232867D01*
X+450203Y+1233300D01*
X+450300Y+1233300D01*
X+420300Y+1203300D02*
X+420403Y+1200811D01*
X+421245Y+1195831D01*
X+423005Y+1190851D01*
X+425882Y+1185871D01*
X+430283Y+1180955D01*
X+435263Y+1177341D01*
X+440243Y+1175036D01*
X+445223Y+1173733D01*
X+450203Y+1173300D01*
X+450300Y+1173300D01*
X+480300Y+1203300D02*
X+480197Y+1200811D01*
X+479355Y+1195831D01*
X+477595Y+1190851D01*
X+474718Y+1185871D01*
X+470317Y+1180955D01*
X+465337Y+1177341D01*
X+460357Y+1175036D01*
X+455377Y+1173733D01*
X+450397Y+1173300D01*
X+450300Y+1173300D01*
X+594700Y+3443900D02*
X+594428Y+3450496D01*
X+592214Y+3463690D01*
X+587584Y+3476884D01*
X+580027Y+3490078D01*
X+568465Y+3503140D01*
X+555271Y+3512849D01*
X+542077Y+3519070D01*
X+528883Y+3522633D01*
X+515689Y+3523894D01*
X+514700Y+3523900D01*
X+434700Y+3443900D02*
X+434972Y+3450496D01*
X+437186Y+3463690D01*
X+441816Y+3476884D01*
X+449373Y+3490078D01*
X+460935Y+3503140D01*
X+474129Y+3512849D01*
X+487323Y+3519070D01*
X+500517Y+3522633D01*
X+513711Y+3523894D01*
X+514700Y+3523900D01*
X+434700Y+3443900D02*
X+434972Y+3437304D01*
X+437186Y+3424110D01*
X+441816Y+3410916D01*
X+449373Y+3397722D01*
X+460935Y+3384660D01*
X+474129Y+3374951D01*
X+487323Y+3368730D01*
X+500517Y+3365167D01*
X+513711Y+3363906D01*
X+514700Y+3363900D01*
X+594700Y+3443900D02*
X+594428Y+3437304D01*
X+592214Y+3424110D01*
X+587584Y+3410916D01*
X+580027Y+3397722D01*
X+568465Y+3384660D01*
X+555271Y+3374951D01*
X+542077Y+3368730D01*
X+528883Y+3365167D01*
X+515689Y+3363906D01*
X+514700Y+3363900D01*
X+1054700Y+3443900D02*
X+1054394Y+3451311D01*
X+1051910Y+3466135D01*
X+1046716Y+3480959D01*
X+1038240Y+3495783D01*
X+1025272Y+3510466D01*
X+1010448Y+3521406D01*
X+995624Y+3528420D01*
X+980800Y+3532448D01*
X+965976Y+3533891D01*
X+964700Y+3533900D01*
X+874700Y+3443900D02*
X+875006Y+3451311D01*
X+877490Y+3466135D01*
X+882684Y+3480959D01*
X+891160Y+3495783D01*
X+904128Y+3510466D01*
X+918952Y+3521406D01*
X+933776Y+3528420D01*
X+948600Y+3532448D01*
X+963424Y+3533891D01*
X+964700Y+3533900D01*
X+874700Y+3443900D02*
X+875006Y+3436489D01*
X+877490Y+3421665D01*
X+882684Y+3406841D01*
X+891160Y+3392017D01*
X+904128Y+3377334D01*
X+918952Y+3366394D01*
X+933776Y+3359380D01*
X+948600Y+3355352D01*
X+963424Y+3353909D01*
X+964700Y+3353900D01*
X+1054700Y+3443900D02*
X+1054394Y+3436489D01*
X+1051910Y+3421665D01*
X+1046716Y+3406841D01*
X+1038240Y+3392017D01*
X+1025272Y+3377334D01*
X+1010448Y+3366394D01*
X+995624Y+3359380D01*
X+980800Y+3355352D01*
X+965976Y+3353909D01*
X+964700Y+3353900D01*
X+1225050Y+1656200D02*
X+1224929Y+1659102D01*
X+1223949Y+1664908D01*
X+1221899Y+1670714D01*
X+1218547Y+1676520D01*
X+1213421Y+1682254D01*
X+1207615Y+1686473D01*
X+1201809Y+1689166D01*
X+1196003Y+1690690D01*
X+1190197Y+1691200D01*
X+1190050Y+1691200D01*
X+1155050Y+1656200D02*
X+1155171Y+1659102D01*
X+1156151Y+1664908D01*
X+1158201Y+1670714D01*
X+1161553Y+1676520D01*
X+1166679Y+1682254D01*
X+1172485Y+1686473D01*
X+1178291Y+1689166D01*
X+1184097Y+1690690D01*
X+1189903Y+1691200D01*
X+1190050Y+1691200D01*
X+1155050Y+1656200D02*
X+1155171Y+1653298D01*
X+1156151Y+1647492D01*
X+1158201Y+1641686D01*
X+1161553Y+1635880D01*
X+1166679Y+1630146D01*
X+1172485Y+1625927D01*
X+1178291Y+1623234D01*
X+1184097Y+1621710D01*
X+1189903Y+1621200D01*
X+1190050Y+1621200D01*
X+1225050Y+1656200D02*
X+1224929Y+1653298D01*
X+1223949Y+1647492D01*
X+1221899Y+1641686D01*
X+1218547Y+1635880D01*
X+1213421Y+1630146D01*
X+1207615Y+1625927D01*
X+1201809Y+1623234D01*
X+1196003Y+1621710D01*
X+1190197Y+1621200D01*
X+1190050Y+1621200D01*
X+405050Y+2556200D02*
X+404895Y+2559927D01*
X+403639Y+2567382D01*
X+401009Y+2574837D01*
X+396713Y+2582292D01*
X+390143Y+2589658D01*
X+382688Y+2595091D01*
X+375233Y+2598561D01*
X+367778Y+2600531D01*
X+360323Y+2601199D01*
X+360050Y+2601200D01*
X+315050Y+2556200D02*
X+315205Y+2559927D01*
X+316461Y+2567382D01*
X+319091Y+2574837D01*
X+323387Y+2582292D01*
X+329957Y+2589658D01*
X+337412Y+2595091D01*
X+344867Y+2598561D01*
X+352322Y+2600531D01*
X+359777Y+2601199D01*
X+360050Y+2601200D01*
X+315050Y+2556200D02*
X+315205Y+2552473D01*
X+316461Y+2545018D01*
X+319091Y+2537563D01*
X+323387Y+2530108D01*
X+329957Y+2522742D01*
X+337412Y+2517309D01*
X+344867Y+2513839D01*
X+352322Y+2511869D01*
X+359777Y+2511201D01*
X+360050Y+2511200D01*
X+405050Y+2556200D02*
X+404895Y+2552473D01*
X+403639Y+2545018D01*
X+401009Y+2537563D01*
X+396713Y+2530108D01*
X+390143Y+2522742D01*
X+382688Y+2517309D01*
X+375233Y+2513839D01*
X+367778Y+2511869D01*
X+360323Y+2511201D01*
X+360050Y+2511200D01*
D44*
X-51050Y-1025525D02*
X+2593090Y-1025525D01*
X+2593090Y-263525D01*
X-51050Y-263525D01*
X-51050Y-1025525D01*
D113*
X+416312Y-263525D02*
X+416312Y-1025525D01*
X+1229112Y-263525D02*
X+1229112Y-1025525D01*
X+2062232Y-263525D02*
X+2062232Y-1025525D01*
X-51050Y-536575D02*
X+2593090Y-536575D01*
X-51050Y-777875D02*
X+2593090Y-777875D01*
D44*
X+6100Y-427355D02*
X+21340Y-442595D01*
X+82300Y-442595D01*
X+97540Y-427355D01*
X+97540Y-412115D01*
X+82300Y-396875D01*
X+21340Y-396875D01*
X+6100Y-381635D01*
X+6100Y-366395D01*
X+21340Y-351155D01*
X+82300Y-351155D01*
X+97540Y-366395D01*
X+219460Y-351155D02*
X+128020Y-442595D01*
X+128020Y-351155D02*
X+173740Y-396875D01*
X+249940Y-442595D02*
X+249940Y-351155D01*
X+295660Y-396875D01*
X+341380Y-351155D01*
X+341380Y-442595D01*
X+473460Y-427355D02*
X+488700Y-442595D01*
X+549660Y-442595D01*
X+564900Y-427355D01*
X+564900Y-412115D01*
X+549660Y-396875D01*
X+488700Y-396875D01*
X+473460Y-381635D01*
X+473460Y-366395D01*
X+488700Y-351155D01*
X+549660Y-351155D01*
X+564900Y-366395D01*
X+610620Y-351155D02*
X+671580Y-351155D01*
X+641100Y-351155D02*
X+641100Y-442595D01*
X+610620Y-442595D02*
X+671580Y-442595D01*
X+717300Y-351155D02*
X+808740Y-351155D01*
X+717300Y-442595D01*
X+808740Y-442595D01*
X+930660Y-442595D02*
X+839220Y-442595D01*
X+839220Y-351155D01*
X+930660Y-351155D01*
X+839220Y-396875D02*
X+900180Y-396875D01*
X+1286260Y-442595D02*
X+1286260Y-351155D01*
X+1362460Y-351155D01*
X+1377700Y-366395D01*
X+1377700Y-381635D01*
X+1362460Y-396875D01*
X+1286260Y-396875D01*
X+1408180Y-351155D02*
X+1408180Y-442595D01*
X+1499620Y-442595D01*
X+1530100Y-442595D02*
X+1530100Y-381635D01*
X+1560580Y-351155D01*
X+1591060Y-351155D01*
X+1621540Y-381635D01*
X+1621540Y-442595D01*
X+1530100Y-412115D02*
X+1621540Y-412115D01*
X+1652020Y-351155D02*
X+1743460Y-351155D01*
X+1697740Y-351155D02*
X+1697740Y-442595D01*
X+1865380Y-442595D02*
X+1773940Y-442595D01*
X+1773940Y-351155D01*
X+1865380Y-351155D01*
X+1773940Y-396875D02*
X+1834900Y-396875D01*
X+1895860Y-442595D02*
X+1895860Y-351155D01*
X+1956820Y-351155D01*
X+1987300Y-381635D01*
X+1987300Y-412115D01*
X+1956820Y-442595D01*
X+1895860Y-442595D01*
X+2119380Y-381635D02*
X+2149860Y-351155D01*
X+2180340Y-351155D01*
X+2210820Y-381635D01*
X+2210820Y-412115D01*
X+2180340Y-442595D01*
X+2149860Y-442595D01*
X+2119380Y-412115D01*
X+2119380Y-381635D01*
X+2180340Y-412115D02*
X+2210820Y-442595D01*
X+2241300Y-351155D02*
X+2332740Y-351155D01*
X+2287020Y-351155D02*
X+2287020Y-442595D01*
X+2454660Y-351155D02*
X+2363220Y-442595D01*
X+2363220Y-351155D02*
X+2408940Y-396875D01*
X+195330Y-587375D02*
X+195330Y-714375D01*
X+131830Y-650875D02*
X+258830Y-650875D01*
X+492510Y-676275D02*
X+492510Y-625475D01*
X+505210Y-612775D01*
X+556010Y-612775D01*
X+568710Y-625475D01*
X+568710Y-676275D01*
X+556010Y-688975D01*
X+505210Y-688975D01*
X+492510Y-676275D01*
X+492510Y-688975D02*
X+568710Y-612775D01*
X+632210Y-676275D02*
X+644910Y-676275D01*
X+644910Y-688975D01*
X+632210Y-688975D01*
X+632210Y-676275D01*
X+771910Y-638175D02*
X+759210Y-650875D01*
X+721110Y-650875D01*
X+708410Y-638175D01*
X+708410Y-625475D01*
X+721110Y-612775D01*
X+759210Y-612775D01*
X+771910Y-625475D01*
X+771910Y-676275D01*
X+759210Y-688975D01*
X+721110Y-688975D01*
X+873510Y-612775D02*
X+810010Y-612775D01*
X+810010Y-638175D01*
X+860810Y-638175D01*
X+873510Y-650875D01*
X+873510Y-676275D01*
X+860810Y-688975D01*
X+822710Y-688975D01*
X+810010Y-676275D01*
X+898910Y-688975D02*
X+898910Y-638175D01*
X+898910Y-650875D02*
X+911610Y-638175D01*
X+937010Y-663575D01*
X+962410Y-638175D01*
X+975110Y-650875D01*
X+975110Y-688975D01*
X+1000510Y-688975D02*
X+1000510Y-638175D01*
X+1000510Y-650875D02*
X+1013210Y-638175D01*
X+1038610Y-663575D01*
X+1064010Y-638175D01*
X+1076710Y-650875D01*
X+1076710Y-688975D01*
X+1394210Y-612775D02*
X+1318010Y-688975D01*
X+1318010Y-612775D02*
X+1356110Y-650875D01*
X+1495810Y-688975D02*
X+1419610Y-688975D01*
X+1419610Y-612775D01*
X+1495810Y-612775D01*
X+1419610Y-650875D02*
X+1470410Y-650875D01*
X+1521210Y-676275D02*
X+1533910Y-688975D01*
X+1584710Y-688975D01*
X+1597410Y-676275D01*
X+1597410Y-663575D01*
X+1584710Y-650875D01*
X+1533910Y-650875D01*
X+1521210Y-638175D01*
X+1521210Y-625475D01*
X+1533910Y-612775D01*
X+1584710Y-612775D01*
X+1597410Y-625475D01*
X+2176530Y-625475D02*
X+2189230Y-612775D01*
X+2227330Y-612775D01*
X+2240030Y-625475D01*
X+2240030Y-638175D01*
X+2227330Y-650875D01*
X+2240030Y-663575D01*
X+2240030Y-676275D01*
X+2227330Y-688975D01*
X+2189230Y-688975D01*
X+2176530Y-676275D01*
X+2201930Y-650875D02*
X+2227330Y-650875D01*
X+2341630Y-612775D02*
X+2278130Y-612775D01*
X+2278130Y-638175D01*
X+2328930Y-638175D01*
X+2341630Y-650875D01*
X+2341630Y-676275D01*
X+2328930Y-688975D01*
X+2290830Y-688975D01*
X+2278130Y-676275D01*
X+150429Y-847274D02*
X+240231Y-937076D01*
X+150429Y-937076D02*
X+240231Y-847274D01*
X+492510Y-917575D02*
X+492510Y-866775D01*
X+505210Y-854075D01*
X+556010Y-854075D01*
X+568710Y-866775D01*
X+568710Y-917575D01*
X+556010Y-930275D01*
X+505210Y-930275D01*
X+492510Y-917575D01*
X+492510Y-930275D02*
X+568710Y-854075D01*
X+632210Y-917575D02*
X+644910Y-917575D01*
X+644910Y-930275D01*
X+632210Y-930275D01*
X+632210Y-917575D01*
X+708410Y-866775D02*
X+721110Y-854075D01*
X+759210Y-854075D01*
X+771910Y-866775D01*
X+771910Y-879475D01*
X+759210Y-892175D01*
X+771910Y-904875D01*
X+771910Y-917575D01*
X+759210Y-930275D01*
X+721110Y-930275D01*
X+708410Y-917575D01*
X+733810Y-892175D02*
X+759210Y-892175D01*
X+797310Y-917575D02*
X+797310Y-866775D01*
X+810010Y-854075D01*
X+860810Y-854075D01*
X+873510Y-866775D01*
X+873510Y-917575D01*
X+860810Y-930275D01*
X+810010Y-930275D01*
X+797310Y-917575D01*
X+797310Y-930275D02*
X+873510Y-854075D01*
X+975110Y-854075D02*
X+911610Y-854075D01*
X+911610Y-879475D01*
X+962410Y-879475D01*
X+975110Y-892175D01*
X+975110Y-917575D01*
X+962410Y-930275D01*
X+924310Y-930275D01*
X+911610Y-917575D01*
X+1000510Y-930275D02*
X+1000510Y-879475D01*
X+1000510Y-892175D02*
X+1013210Y-879475D01*
X+1038610Y-904875D01*
X+1064010Y-879475D01*
X+1076710Y-892175D01*
X+1076710Y-930275D01*
X+1102110Y-930275D02*
X+1102110Y-879475D01*
X+1102110Y-892175D02*
X+1114810Y-879475D01*
X+1140210Y-904875D01*
X+1165610Y-879475D01*
X+1178310Y-892175D01*
X+1178310Y-930275D01*
X+1394210Y-854075D02*
X+1318010Y-930275D01*
X+1318010Y-854075D02*
X+1356110Y-892175D01*
X+1495810Y-930275D02*
X+1419610Y-930275D01*
X+1419610Y-854075D01*
X+1495810Y-854075D01*
X+1419610Y-892175D02*
X+1470410Y-892175D01*
X+1521210Y-917575D02*
X+1533910Y-930275D01*
X+1584710Y-930275D01*
X+1597410Y-917575D01*
X+1597410Y-904875D01*
X+1584710Y-892175D01*
X+1533910Y-892175D01*
X+1521210Y-879475D01*
X+1521210Y-866775D01*
X+1533910Y-854075D01*
X+1584710Y-854075D01*
X+1597410Y-866775D01*
X+2176530Y-866775D02*
X+2189230Y-854075D01*
X+2227330Y-854075D01*
X+2240030Y-866775D01*
X+2240030Y-879475D01*
X+2227330Y-892175D01*
X+2189230Y-892175D01*
X+2176530Y-904875D01*
X+2176530Y-930275D01*
X+2240030Y-930275D01*
X+2265430Y-917575D02*
X+2265430Y-866775D01*
X+2278130Y-854075D01*
X+2328930Y-854075D01*
X+2341630Y-866775D01*
X+2341630Y-917575D01*
X+2328930Y-930275D01*
X+2278130Y-930275D01*
X+2265430Y-917575D01*
X+2265430Y-930275D02*
X+2341630Y-854075D01*
X+2379730Y-854075D02*
X+2443230Y-854075D01*
X+2443230Y-866775D01*
X+2379730Y-930275D01*
M02*
